<svg viewBox="0 0 16 17" fill="none" xmlns="http://www.w3.org/2000/svg">
<rect width="16" height="16" transform="translate(0 0.513672)" fill="white" fill-opacity="0.01" style="mix-blend-mode:multiply"/>
<path d="M8 10.5137C7.60444 10.5137 7.21776 10.3964 6.88886 10.1766C6.55996 9.95685 6.30362 9.64449 6.15224 9.27904C6.00087 8.91359 5.96126 8.51146 6.03843 8.12349C6.1156 7.73553 6.30608 7.37917 6.58579 7.09946C6.86549 6.81976 7.22186 6.62927 7.60982 6.5521C7.99778 6.47493 8.39992 6.51454 8.76537 6.66592C9.13082 6.81729 9.44318 7.07364 9.66294 7.40253C9.88271 7.73143 10 8.11811 10 8.51368C9.99941 9.04393 9.7885 9.55229 9.41356 9.92723C9.03862 10.3022 8.53025 10.5131 8 10.5137ZM8 7.51368C7.80222 7.51368 7.60888 7.57232 7.44443 7.68221C7.27998 7.79209 7.15181 7.94827 7.07612 8.13099C7.00044 8.31372 6.98063 8.51478 7.01922 8.70877C7.0578 8.90275 7.15304 9.08093 7.2929 9.22078C7.43275 9.36063 7.61093 9.45588 7.80491 9.49446C7.99889 9.53305 8.19996 9.51324 8.38269 9.43755C8.56541 9.36187 8.72159 9.2337 8.83147 9.06925C8.94135 8.9048 9 8.71146 9 8.51368C8.99973 8.24854 8.89428 7.99435 8.7068 7.80688C8.51933 7.6194 8.26513 7.51395 8 7.51368Z" fill="currentColor"/>
<path d="M8 12.5137C6.86403 12.4833 5.76753 12.0906 4.87067 11.3927C3.9738 10.6949 3.32359 9.72855 3.015 8.63487L2.9846 8.51368L3.0149 8.39248C3.32349 7.29879 3.97372 6.33243 4.87061 5.63459C5.76749 4.93674 6.86402 4.54398 8 4.51367C9.13597 4.544 10.2325 4.93677 11.1293 5.63462C12.0262 6.33246 12.6764 7.2988 12.985 8.39248L13.0154 8.51368L12.9851 8.63487C12.6765 9.72856 12.0263 10.6949 11.1294 11.3928C10.2325 12.0906 9.13599 12.4834 8 12.5137ZM4.0176 8.51368C4.28725 9.36562 4.8157 10.1123 5.52944 10.65C6.24318 11.1877 7.10673 11.4896 8 11.5137C8.89327 11.4896 9.75683 11.1877 10.4706 10.65C11.1843 10.1123 11.7128 9.36562 11.9824 8.51368C11.7128 7.66173 11.1843 6.915 10.4706 6.37733C9.75683 5.83966 8.89327 5.53778 8 5.51368C7.10673 5.53778 6.24318 5.83966 5.52944 6.37733C4.8157 6.915 4.28725 7.66173 4.0176 8.51368Z" fill="currentColor"/>
<path d="M8 15.5137C6.61553 15.5137 5.26216 15.1031 4.11101 14.334C2.95987 13.5648 2.06266 12.4715 1.53285 11.1925C1.00303 9.91338 0.86441 8.50591 1.13451 7.14804C1.4046 5.79018 2.07129 4.54289 3.05026 3.56393C4.02922 2.58496 5.2765 1.91827 6.63437 1.64818C7.99224 1.37808 9.3997 1.5167 10.6788 2.04652C11.9579 2.57633 13.0511 3.47354 13.8203 4.62468C14.5895 5.77583 15 7.12921 15 8.51368C14.9979 10.3695 14.2597 12.1488 12.9474 13.4611C11.6351 14.7734 9.85588 15.5116 8 15.5137ZM8 2.51368C6.81332 2.51368 5.65328 2.86557 4.66658 3.52486C3.67989 4.18415 2.91085 5.12122 2.45673 6.21757C2.0026 7.31393 1.88378 8.52033 2.11529 9.68422C2.3468 10.8481 2.91825 11.9172 3.75736 12.7563C4.59648 13.5954 5.66558 14.1669 6.82946 14.3984C7.99335 14.6299 9.19975 14.5111 10.2961 14.057C11.3925 13.6028 12.3295 12.8338 12.9888 11.8471C13.6481 10.8604 14 9.70036 14 8.51368C13.9982 6.92293 13.3655 5.39786 12.2406 4.27304C11.1158 3.14821 9.59075 2.51549 8 2.51368Z" fill="currentColor"/>
</svg>
