<svg viewBox="0 0 16 16" fill="none" xmlns="http://www.w3.org/2000/svg">
<rect width="16" height="16" fill="white" fill-opacity="0.01" style="mix-blend-mode:multiply"/>
<path d="M11.5011 5.51615L4 5.5L7.49925 8L4.00145 10.5H11.5C11.7761 10.5 12 10.2761 12 10V6.01615C12 5.74045 11.7768 5.51675 11.5011 5.51615Z" fill="currentColor"/>
<path d="M10.5 15H5.5C3.0187 15 1 12.9813 1 10.5V5.5C1 3.0187 3.0187 1 5.5 1H10.5C12.9813 1 15 3.0187 15 5.5V10.5C15 12.9813 12.9813 15 10.5 15ZM5.5 2C3.57005 2 2 3.57005 2 5.5V10.5C2 12.4299 3.57005 14 5.5 14H10.5C12.4299 14 14 12.4299 14 10.5V5.5C14 3.57005 12.4299 2 10.5 2H5.5Z" fill="currentColor"/>
</svg>
