<svg viewBox="0 0 16 17" fill="none" xmlns="http://www.w3.org/2000/svg">
    <g clip-path="url(#clip0_1961_11692)">
        <rect width="16" height="16" transform="translate(0 0.513672)" fill="white" fill-opacity="0.01"
              style="mix-blend-mode:multiply"/>
        <path d="M14.775 13.5687L13.25 14.3287L11.83 11.0137H7.50004C7.23483 11.0137 6.98047 10.9083 6.79294 10.7208C6.6054 10.5332 6.50004 10.2789 6.50004 10.0137V7.01367C6.50004 6.74846 6.6054 6.4941 6.79294 6.30657C6.98047 6.11903 7.23483 6.01367 7.50004 6.01367C7.76526 6.01367 8.01961 6.11903 8.20715 6.30657C8.39469 6.4941 8.50004 6.74846 8.50004 7.01367V9.01367H12V8.01367H9.50004V7.01367C9.50004 6.48324 9.28933 5.97453 8.91426 5.59946C8.53918 5.22439 8.03048 5.01367 7.50004 5.01367C6.96961 5.01367 6.4609 5.22439 6.08583 5.59946C5.71076 5.97453 5.50004 6.48324 5.50004 7.01367V7.51367C4.65282 7.51321 3.82267 7.75192 3.10511 8.20235C2.38755 8.65278 1.81171 9.29663 1.44386 10.0598C1.07601 10.823 0.931075 11.6746 1.02574 12.5165C1.12041 13.3584 1.45082 14.1565 1.97898 14.8189C2.50713 15.4814 3.21156 15.9813 4.01124 16.2611C4.81092 16.541 5.67334 16.5894 6.49931 16.4008C7.32527 16.2122 8.08122 15.7942 8.68017 15.195C9.27913 14.5958 9.69677 13.8397 9.88504 13.0137H8.85504C8.66959 13.6357 8.31484 14.1939 7.83041 14.6259C7.34598 15.0579 6.75097 15.3466 6.11187 15.4599C5.47276 15.5732 4.81475 15.5066 4.21134 15.2674C3.60794 15.0283 3.08293 14.626 2.69497 14.1057C2.30701 13.5853 2.07139 12.9673 2.01444 12.3208C1.95749 11.6742 2.08145 11.0245 2.37248 10.4444C2.6635 9.8642 3.11012 9.37639 3.66243 9.03544C4.21474 8.69449 4.85098 8.51384 5.50004 8.51367V10.0137C5.50004 10.5441 5.71076 11.0528 6.08583 11.4279C6.4609 11.803 6.96961 12.0137 7.50004 12.0137H11.17L12.75 15.6987L15.225 14.4587L14.775 13.5687Z"
              fill="currentColor"/>
        <path d="M7.75004 4.51367C7.40393 4.51367 7.06558 4.41104 6.77779 4.21874C6.49001 4.02645 6.26571 3.75314 6.13325 3.43337C6.0008 3.1136 5.96614 2.76173 6.03367 2.42226C6.10119 2.0828 6.26786 1.77098 6.51261 1.52624C6.75735 1.28149 7.06917 1.11482 7.40863 1.0473C7.7481 0.979774 8.09997 1.01443 8.41974 1.14688C8.73951 1.27934 9.01282 1.50364 9.20511 1.79142C9.39741 2.07921 9.50004 2.41756 9.50004 2.76367C9.50004 3.2278 9.31567 3.67292 8.98748 4.00111C8.65929 4.3293 8.21417 4.51367 7.75004 4.51367ZM7.75004 2.01367C7.60171 2.01367 7.4567 2.05766 7.33337 2.14007C7.21003 2.22248 7.1139 2.33962 7.05713 2.47666C7.00037 2.6137 6.98551 2.7645 7.01445 2.90999C7.04339 3.05548 7.11482 3.18911 7.21971 3.294C7.3246 3.39889 7.45824 3.47032 7.60372 3.49926C7.74921 3.5282 7.90001 3.51335 8.03706 3.45658C8.1741 3.39982 8.29123 3.30369 8.37364 3.18035C8.45606 3.05701 8.50004 2.91201 8.50004 2.76367C8.50004 2.56476 8.42102 2.37399 8.28037 2.23334C8.13972 2.09269 7.94896 2.01367 7.75004 2.01367Z"
              fill="currentColor"/>
    </g>
    <defs>
        <clipPath id="clip0_1961_11692">
            <rect width="16" height="16" fill="white" transform="translate(0 0.513672)"/>
        </clipPath>
    </defs>
</svg>
