<svg viewBox="0 0 16 17" fill="none" xmlns="http://www.w3.org/2000/svg">
<rect width="16" height="16" transform="translate(0 0.513672)" fill="white" fill-opacity="0.01" style="mix-blend-mode:multiply"/>
<path d="M14 2.51367C13.7349 2.51398 13.4807 2.61943 13.2932 2.8069C13.1058 2.99437 13.0003 3.24855 13 3.51367V4.51367H12C11.6595 4.49379 11.3326 4.37305 11.0609 4.1668C10.7892 3.96055 10.585 3.67812 10.4743 3.35547C10.4407 3.25622 10.3769 3.16994 10.2919 3.10867C10.2068 3.0474 10.1048 3.01419 10 3.01367C9.89534 3.01288 9.79313 3.04531 9.70806 3.10629C9.623 3.16727 9.55946 3.25365 9.5266 3.35302C9.41612 3.67619 9.21194 3.95915 8.94007 4.16585C8.66819 4.37255 8.34094 4.49363 8 4.51367C7.65948 4.49379 7.33257 4.37305 7.06088 4.1668C6.7892 3.96055 6.58502 3.67812 6.47435 3.35547C6.44069 3.25622 6.3769 3.16994 6.29187 3.10867C6.20684 3.0474 6.10481 3.01419 6 3.01367C5.89501 3.01143 5.79211 3.04328 5.70676 3.10447C5.6214 3.16565 5.55819 3.25287 5.5266 3.35302C5.41612 3.67619 5.21194 3.95915 4.94007 4.16585C4.66819 4.37255 4.34094 4.49363 4 4.51367H3V3.51367C2.9997 3.24855 2.89424 2.99437 2.70677 2.8069C2.5193 2.61943 2.26512 2.51398 2 2.51367H1V3.51367H2V13.5137C2.0003 13.7788 2.10576 14.033 2.29323 14.2204C2.4807 14.4079 2.73488 14.5134 3 14.5137H13C13.2651 14.5134 13.5193 14.4079 13.7068 14.2204C13.8942 14.033 13.9997 13.7788 14 13.5137V3.51367H15V2.51367H14ZM3 13.5137V11.5137H5V10.5137H3V8.51367H5V7.51367H3V5.51367H4C4.38804 5.5171 4.77141 5.4289 5.11894 5.25624C5.46647 5.08358 5.76834 4.83134 6 4.52002C6.23404 4.82879 6.5364 5.07918 6.88338 5.25158C7.23036 5.42397 7.61255 5.51368 8 5.51368C8.38745 5.51368 8.76963 5.42397 9.11662 5.25158C9.4636 5.07918 9.76596 4.82879 10 4.52002C10.2317 4.83134 10.5335 5.08358 10.8811 5.25624C11.2286 5.4289 11.612 5.5171 12 5.51367H13V13.5137H3Z" fill="currentColor"/>
</svg>
