<svg viewBox="0 0 16 17" fill="none" xmlns="http://www.w3.org/2000/svg">
<rect width="16" height="16" transform="translate(0 0.513672)" fill="white" fill-opacity="0.01" style="mix-blend-mode:multiply"/>
<path d="M9 8.51366H8V9.51366H9V8.51366Z" fill="currentColor"/>
<path d="M10 9.51366H9V10.5137H10V9.51366Z" fill="currentColor"/>
<path d="M11 10.5137H10V11.5137H11V10.5137Z" fill="currentColor"/>
<path d="M11 8.51366H10V9.51366H11V8.51366Z" fill="currentColor"/>
<path d="M9 10.5137H8V11.5137H9V10.5137Z" fill="currentColor"/>
<path d="M10 6.51366C9.48464 6.52742 8.98482 6.33641 8.60997 5.98246C8.23512 5.62852 8.01579 5.14046 8 4.62516C8.00936 4.25725 8.12261 3.89949 8.32665 3.59321L9.585 1.72071C9.63336 1.65641 9.69601 1.60424 9.768 1.56831C9.83999 1.53238 9.91934 1.51367 9.9998 1.51367C10.0803 1.51367 10.1596 1.53238 10.2316 1.56831C10.3036 1.60424 10.3662 1.65641 10.4146 1.72071L11.6577 3.56866C11.87 3.88107 11.9888 4.24759 12 4.62516C11.9842 5.14046 11.7649 5.62852 11.39 5.98246C11.0152 6.33641 10.5154 6.52742 10 6.51366ZM10 2.89526L9.1719 4.12651C9.06843 4.27304 9.00881 4.44599 9 4.62516C9.01584 4.87519 9.12982 5.10884 9.31711 5.27525C9.5044 5.44166 9.74984 5.52734 10 5.51366C10.2502 5.52734 10.4956 5.44166 10.6829 5.27525C10.8702 5.10884 10.9842 4.87519 11 4.62516C10.9888 4.4364 10.9237 4.2548 10.8125 4.10186L10 2.89526Z" fill="currentColor"/>
<path d="M14 2.51366C13.7349 2.51396 13.4807 2.61941 13.2932 2.80689C13.1058 2.99436 13.0003 3.24853 13 3.51366V13.5137H3V5.51366H4V9.51366L4.5 10.5137L5 9.51366V5.51366H6V7.51366L6.5 8.51366L7 7.51366V4.51366H3V3.51366C2.9997 3.24853 2.89424 2.99436 2.70677 2.80689C2.5193 2.61941 2.26512 2.51396 2 2.51366H1V3.51366H2V13.5137C2.0003 13.7788 2.10576 14.033 2.29323 14.2204C2.4807 14.4079 2.73488 14.5134 3 14.5137H13C13.2651 14.5134 13.5193 14.4079 13.7068 14.2204C13.8942 14.033 13.9997 13.7788 14 13.5137V3.51366H15V2.51366H14Z" fill="currentColor"/>
</svg>
