<svg viewBox="0 0 16 16" fill="none" xmlns="http://www.w3.org/2000/svg">
<rect width="16" height="16" fill="white" fill-opacity="0.01" style="mix-blend-mode:multiply"/>
<path d="M8.99 8.74605C8.99 7.30935 9.73855 6.40605 11.0633 6.40605C11.9666 6.40605 12.5602 6.8362 12.8269 7.54165L11.9235 7.946C11.8203 7.56745 11.5364 7.2922 11.0632 7.2922C10.4525 7.2922 10.1427 7.7223 10.1427 8.3503V9.16755C10.1427 9.7956 10.4524 10.2172 11.0632 10.2172C11.588 10.2172 11.8461 9.916 12.0096 9.51165L12.8526 9.916C12.5601 10.7075 11.9321 11.1032 11.0632 11.1032C9.7384 11.1032 8.99 10.1914 8.99 8.74605Z" fill="currentColor"/>
<path d="M7.3115 11L6.82975 9.4687H4.69625L4.223 11H3.07025L5.08325 4.9952H6.4941L8.48995 11H7.3115ZM5.78015 6.02755H5.7371L4.97155 8.4966H6.5545L5.78015 6.02755Z" fill="currentColor"/>
<path d="M10.5 15H5.5C3.0187 15 1 12.9813 1 10.5V5.5C1 3.0187 3.0187 1 5.5 1H10.5C12.9813 1 15 3.0187 15 5.5V10.5C15 12.9813 12.9813 15 10.5 15ZM5.5 2C3.57005 2 2 3.57005 2 5.5V10.5C2 12.4299 3.57005 14 5.5 14H10.5C12.4299 14 14 12.4299 14 10.5V5.5C14 3.57005 12.4299 2 10.5 2H5.5Z" fill="currentColor"/>
</svg>
