<svg viewBox="0 0 16 16" fill="none" xmlns="http://www.w3.org/2000/svg">
<g clip-path="url(#clip0_1961_7486)">
<rect width="16" height="16" fill="white" fill-opacity="0.01" style="mix-blend-mode:multiply"/>
<path d="M11.5 13.7949L10.205 12.5L9.5 13.205L11.5 15.205L15.5 11.205L14.7949 10.5L11.5 13.7949Z" fill="currentColor"/>
<path d="M8 11.5L6.93065 10.9937C6.0615 10.5825 5.5 9.6953 5.5 8.7339V5.5H10.5V8.7339C10.5 9.69535 9.9385 10.5826 9.06935 10.9937L8 11.5ZM6.5 6.5V8.7339C6.5 9.31055 6.8369 9.8428 7.3584 10.0893L8 10.3931L8.6416 10.0893C9.1631 9.84275 9.5 9.31055 9.5 8.7339V6.5H6.5Z" fill="currentColor"/>
<path d="M2.0604 8.8281C2.32565 8.6484 2.5 8.34445 2.5 8C2.5 7.44775 2.05225 7 1.5 7C0.94775 7 0.5 7.44775 0.5 8C0.5 8.3943 0.73035 8.7322 1.062 8.895C1.4016 11.562 3.2356 13.8188 5.8463 14.6623L6.15365 13.7107C3.9359 12.9944 2.37155 11.0876 2.0604 8.8281Z" fill="currentColor"/>
<path d="M14.938 7.105C14.5984 4.438 12.7644 2.18115 10.1537 1.33765L9.84635 2.2893C12.0641 3.0056 13.6285 4.91235 13.9396 7.17185C13.6744 7.35155 13.5 7.6555 13.5 7.99995C13.5 8.5522 13.9478 8.99995 14.5 8.99995C15.0523 8.99995 15.5 8.5522 15.5 7.99995C15.5 7.60565 15.2698 7.2678 14.938 7.105Z" fill="currentColor"/>
<path d="M8 0.5C7.6056 0.5 7.2678 0.7302 7.1051 1.062C4.4381 1.4016 2.18115 3.2356 1.33765 5.8462L2.2893 6.1538C3.00575 3.93605 4.91235 2.37155 7.17185 2.06055C7.35165 2.3257 7.65535 2.5 7.99995 2.5C8.5522 2.5 8.99995 2.05225 8.99995 1.5C8.99995 0.94775 8.55225 0.5 8 0.5Z" fill="currentColor"/>
</g>
<defs>
<clipPath id="clip0_1961_7486">
<rect width="16" height="16" fill="white"/>
</clipPath>
</defs>
</svg>
