<svg viewBox="0 0 16 17" fill="none" xmlns="http://www.w3.org/2000/svg">
<rect width="16" height="16" transform="translate(0 0.513672)" fill="white" fill-opacity="0.01" style="mix-blend-mode:multiply"/>
<path d="M7.99982 14.5136C6.91202 14.5136 5.84865 14.191 4.94418 13.5866C4.03971 12.9823 3.33476 12.1233 2.91848 11.1183C2.5022 10.1133 2.39328 9.00745 2.6055 7.94056C2.81772 6.87366 3.34154 5.89366 4.11073 5.12447C4.87992 4.35528 5.85992 3.83145 6.92682 3.61923C7.99372 3.40702 9.09958 3.51593 10.1046 3.93222C11.1096 4.3485 11.9686 5.05345 12.5729 5.95792C13.1772 6.86239 13.4998 7.92576 13.4998 9.01355C13.4998 10.4722 12.9204 11.8712 11.8889 12.9026C10.8575 13.9341 9.45851 14.5136 7.99982 14.5136ZM7.99982 4.51355C7.1098 4.51355 6.23977 4.77747 5.49975 5.27194C4.75973 5.76641 4.18295 6.46921 3.84236 7.29148C3.50176 8.11375 3.41265 9.01855 3.58628 9.89146C3.75992 10.7644 4.1885 11.5662 4.81784 12.1955C5.44717 12.8249 6.249 13.2535 7.12191 13.4271C7.99482 13.6007 8.89962 13.5116 9.72189 13.171C10.5442 12.8304 11.247 12.2536 11.7414 11.5136C12.2359 10.7736 12.4998 9.90357 12.4998 9.01355C12.4998 7.82008 12.0257 6.67549 11.1818 5.83157C10.3379 4.98766 9.19329 4.51355 7.99982 4.51355Z" fill="currentColor"/>
<path d="M9.29482 11.0136L7.49982 9.21855V6.01355H8.49982V8.80355L9.99982 10.3086L9.29482 11.0136Z" fill="currentColor"/>
<path d="M3.79064 2.51513L2 4.30952L2.70785 5.01589L4.49848 3.2215L3.79064 2.51513Z" fill="currentColor"/>
<path d="M12.2074 2.51074L11.4995 3.21711L13.2902 5.0115L13.998 4.30513L12.2074 2.51074Z" fill="currentColor"/>
</svg>
