<svg viewBox="0 0 16 16" fill="none" xmlns="http://www.w3.org/2000/svg">
<rect width="16" height="16" fill="white" fill-opacity="0.01" style="mix-blend-mode:multiply"/>
<path d="M4.49979 12.0003C4.44932 11.6533 4.29607 11.3294 4.05979 11.0703L8.82479 2.78027L7.95979 2.28027L3.17479 10.5603C3.03664 10.5204 2.89357 10.5002 2.74979 10.5003C2.43635 10.4992 2.12837 10.5823 1.85804 10.7409C1.5877 10.8995 1.36493 11.1278 1.21299 11.402C1.06106 11.6761 0.985546 11.9861 0.994342 12.2994C1.00314 12.6127 1.09592 12.9179 1.26299 13.1831C1.43007 13.4483 1.6653 13.6637 1.94411 13.8069C2.22292 13.9501 2.53507 14.0158 2.84795 13.9972C3.16083 13.9785 3.46295 13.8761 3.72274 13.7007C3.98253 13.5254 4.19045 13.2835 4.32479 13.0003H13.9998V12.0003H4.49979ZM2.74979 13.0003C2.60145 13.0003 2.45645 12.9563 2.33311 12.8739C2.20977 12.7915 2.11364 12.6743 2.05688 12.5373C2.00011 12.4002 1.98526 12.2494 2.0142 12.104C2.04314 11.9585 2.11457 11.8248 2.21946 11.7199C2.32435 11.6151 2.45798 11.5436 2.60347 11.5147C2.74895 11.4857 2.89975 11.5006 3.0368 11.5574C3.17384 11.6141 3.29098 11.7103 3.37339 11.8336C3.4558 11.9569 3.49979 12.1019 3.49979 12.2503C3.49979 12.4492 3.42077 12.64 3.28012 12.7806C3.13946 12.9213 2.9487 13.0003 2.74979 13.0003Z" fill="currentColor"/>
<path d="M10.9998 10.5003H11.9998C11.9997 9.46825 11.7538 8.45108 11.2826 7.53292C10.8113 6.61477 10.1282 5.82202 9.28979 5.22027L8.70979 6.03027C9.41898 6.54001 9.99659 7.21131 10.3948 7.98862C10.793 8.76593 11.0004 9.6269 10.9998 10.5003Z" fill="currentColor"/>
</svg>
