<svg viewBox="0 0 16 17" fill="none" xmlns="http://www.w3.org/2000/svg">
<rect width="16" height="16" transform="translate(0 0.513672)" fill="white" fill-opacity="0.01" style="mix-blend-mode:multiply"/>
<path d="M8 1.51367C6.61553 1.51367 5.26216 1.92421 4.11101 2.69338C2.95987 3.46255 2.06266 4.55581 1.53285 5.83489C1.00303 7.11397 0.86441 8.52144 1.13451 9.8793C1.4046 11.2372 2.07129 12.4845 3.05026 13.4634C4.02922 14.4424 5.2765 15.1091 6.63437 15.3792C7.99224 15.6493 9.3997 15.5106 10.6788 14.9808C11.9579 14.451 13.0511 13.5538 13.8203 12.4027C14.5895 11.2515 15 9.89814 15 8.51367C15 6.65716 14.2625 4.87668 12.9497 3.56392C11.637 2.25117 9.85652 1.51367 8 1.51367V1.51367ZM13.92 7.58367L11 9.27367V3.32367C11.7732 3.77151 12.4366 4.38639 12.9418 5.12341C13.447 5.86043 13.7812 6.70098 13.92 7.58367V7.58367ZM6 9.85367V7.17367L8 6.01367L10 7.16867V9.84867L8 11.0137L6 9.85367ZM10 2.85367V6.01367L5.17 3.22367C5.90483 2.82834 6.7146 2.59199 7.54672 2.52997C8.37883 2.46795 9.21469 2.58165 10 2.86367V2.85367ZM4.24 3.85367L7 5.43867L2 8.32367C2.02858 7.45964 2.24354 6.61199 2.63016 5.83875C3.01678 5.06551 3.56593 4.38496 4.24 3.84367V3.85367ZM2.08 9.43867L5 7.74867V13.7037C4.2262 13.2553 3.56241 12.6397 3.05719 11.9017C2.55197 11.1638 2.2181 10.3223 2.08 9.43867ZM6 14.1637V11.0137L10.835 13.8037C9.96357 14.272 8.98928 14.516 8 14.5137C7.31834 14.511 6.64207 14.3926 6 14.1637V14.1637ZM11.76 13.1637L9 11.5837L14 8.69867C13.9721 9.56356 13.7575 10.4122 13.3709 11.1863C12.9842 11.9605 12.4347 12.6418 11.76 13.1837V13.1637Z" fill="currentColor"/>
</svg>
