<svg viewBox="0 0 16 16" fill="none" xmlns="http://www.w3.org/2000/svg">
<rect width="16" height="16" fill="white" fill-opacity="0.01" style="mix-blend-mode:multiply"/>
<path d="M15 3.00041C15.0009 2.48017 14.7987 1.98012 14.4364 1.60679C14.0741 1.23347 13.5803 1.01637 13.0602 1.00176C12.5402 0.987155 12.035 1.17619 11.6523 1.52858C11.2696 1.88098 11.0396 2.36889 11.0113 2.88836L4.7932 4.13176C4.64778 3.82961 4.42855 3.56898 4.15577 3.37396C3.88298 3.17895 3.56544 3.05584 3.23248 3.01601C2.89953 2.97618 2.56191 3.02092 2.25082 3.1461C1.93973 3.27127 1.66522 3.47284 1.45264 3.73217C1.24006 3.99151 1.09628 4.30024 1.03459 4.62985C0.972896 4.95945 0.995278 5.29928 1.09967 5.61795C1.20406 5.93661 1.38709 6.22382 1.63184 6.45304C1.8766 6.68225 2.17518 6.84607 2.5 6.92936V11.0715C2.15888 11.1589 1.84699 11.3351 1.59598 11.5821C1.34497 11.8291 1.16378 12.1381 1.07081 12.4778C0.977839 12.8174 0.976393 13.1756 1.06662 13.516C1.15685 13.8564 1.33553 14.1669 1.58454 14.4159C1.83355 14.6649 2.14401 14.8436 2.4844 14.9338C2.8248 15.024 3.183 15.0226 3.52266 14.9296C3.86231 14.8366 4.17132 14.6554 4.41831 14.4044C4.6653 14.1534 4.84147 13.8415 4.92895 13.5004H9.07105C9.15417 13.8255 9.31793 14.1244 9.54717 14.3694C9.77641 14.6144 10.0637 14.7977 10.3826 14.9023C10.7014 15.0068 11.0415 15.0293 11.3713 14.9676C11.7011 14.9059 12.0101 14.7621 12.2696 14.5494C12.5291 14.3366 12.7307 14.0619 12.8559 13.7506C12.9811 13.4393 13.0258 13.1014 12.9858 12.7683C12.9459 12.4351 12.8225 12.1174 12.6272 11.8446C12.4319 11.5717 12.171 11.3525 11.8685 11.2072L13.112 4.98916C13.6211 4.96127 14.1002 4.73974 14.4513 4.36999C14.8023 4.00024 14.9986 3.51024 15 3.00041ZM13 2.00041C13.1978 2.00041 13.3911 2.05906 13.5556 2.16895C13.72 2.27883 13.8482 2.43501 13.9239 2.61773C13.9996 2.80046 14.0194 3.00152 13.9808 3.19551C13.9422 3.38949 13.847 3.56767 13.7071 3.70752C13.5673 3.84737 13.3891 3.94262 13.1951 3.9812C13.0011 4.01979 12.8 3.99998 12.6173 3.92429C12.4346 3.84861 12.2784 3.72043 12.1685 3.55598C12.0586 3.39154 12 3.1982 12 3.00041C12.0003 2.73529 12.1058 2.48111 12.2932 2.29364C12.4807 2.10617 12.7349 2.00072 13 2.00041ZM2 5.00041C2 4.80263 2.05864 4.60929 2.16853 4.44484C2.27841 4.2804 2.43459 4.15222 2.61731 4.07654C2.80004 4.00085 3.00111 3.98104 3.19509 4.01963C3.38907 4.05821 3.56725 4.15346 3.7071 4.29331C3.84696 4.43316 3.9422 4.61134 3.98078 4.80532C4.01937 4.99931 3.99956 5.20037 3.92388 5.3831C3.84819 5.56582 3.72002 5.722 3.55557 5.83188C3.39112 5.94177 3.19778 6.00041 3 6.00041C2.73487 6.00011 2.4807 5.89466 2.29323 5.70719C2.10575 5.51971 2.0003 5.26554 2 5.00041ZM3 14.0004C2.80221 14.0004 2.60887 13.9418 2.44443 13.8319C2.27998 13.722 2.1518 13.5658 2.07612 13.3831C2.00043 13.2004 1.98063 12.9993 2.01921 12.8053C2.0578 12.6113 2.15304 12.4332 2.29289 12.2933C2.43274 12.1535 2.61092 12.0582 2.80491 12.0196C2.99889 11.981 3.19995 12.0008 3.38268 12.0765C3.56541 12.1522 3.72158 12.2804 3.83147 12.4448C3.94135 12.6093 4 12.8026 4 13.0004C3.99969 13.2655 3.89424 13.5197 3.70677 13.7072C3.5193 13.8947 3.26512 14.0001 3 14.0004ZM9.07105 12.5004H4.92895C4.83937 12.1567 4.65973 11.843 4.40855 11.5919C4.15737 11.3407 3.84374 11.161 3.5 11.0715V6.92936C3.90853 6.82313 4.27279 6.58996 4.54032 6.26344C4.80785 5.93692 4.96483 5.53391 4.98865 5.11246L11.2068 3.86906C11.4029 4.27202 11.7285 4.59757 12.1314 4.79361L10.8879 11.0117C10.4665 11.0355 10.0635 11.1925 9.73697 11.4601C9.41045 11.7276 9.17729 12.0919 9.07105 12.5004ZM11 14.0004C10.8022 14.0004 10.6089 13.9418 10.4444 13.8319C10.28 13.722 10.1518 13.5658 10.0761 13.3831C10.0004 13.2004 9.98063 12.9993 10.0192 12.8053C10.0578 12.6113 10.153 12.4332 10.2929 12.2933C10.4327 12.1535 10.6109 12.0582 10.8049 12.0196C10.9989 11.981 11.2 12.0008 11.3827 12.0765C11.5654 12.1522 11.7216 12.2804 11.8315 12.4448C11.9413 12.6093 12 12.8026 12 13.0004C11.9997 13.2655 11.8942 13.5197 11.7068 13.7072C11.5193 13.8947 11.2651 14.0001 11 14.0004Z" fill="currentColor"/>
</svg>
