<svg viewBox="0 0 16 16" fill="none" xmlns="http://www.w3.org/2000/svg">
<rect width="16" height="16" fill="white" fill-opacity="0.01" style="mix-blend-mode:multiply"/>
<path d="M14.5 1H13.5V15H14.5V1Z" fill="currentColor"/>
<path d="M10 7.5H6C5.4486 7.5 5 7.0514 5 6.5V3.5C5 2.9486 5.4486 2.5 6 2.5H10C10.5514 2.5 11 2.9486 11 3.5V6.5C11 7.0514 10.5514 7.5 10 7.5ZM6 3.5V6.5H10V3.5H6Z" fill="currentColor"/>
<path d="M6 8.5H10C10.5514 8.5 11 8.9486 11 9.5V12.5C11 13.0514 10.5514 13.5 10 13.5H6C5.4486 13.5 5 13.0514 5 12.5V9.5C5 8.9486 5.4486 8.5 6 8.5ZM10 12.5V9.5H6V12.5H10Z" fill="currentColor"/>
<path d="M2.5 1H1.5V15H2.5V1Z" fill="currentColor"/>
</svg>
