<svg viewBox="0 0 16 17" fill="none" xmlns="http://www.w3.org/2000/svg">
<rect width="16" height="16" transform="translate(0 0.513672)" fill="white" fill-opacity="0.01" style="mix-blend-mode:multiply"/>
<path d="M15 14.514H1V15.514H15V14.514Z" fill="currentColor"/>
<path d="M8.605 3.12897L9.3 3.31897L9.8 8.96397L12.735 9.74897C12.9713 9.80477 13.1792 9.94461 13.3199 10.1424C13.4607 10.3402 13.5247 10.5825 13.5 10.824C13.4714 11.0033 13.3915 11.1705 13.27 11.3053C13.1484 11.4402 12.9904 11.537 12.815 11.584C12.651 11.6263 12.479 11.6263 12.315 11.584L2.965 9.08397C2.72514 9.01834 2.52082 8.86081 2.39634 8.64554C2.27185 8.43027 2.23724 8.1746 2.3 7.93397L3.175 4.68397L3.895 4.87398L4.2 7.46397L7.2 8.27397L8.605 3.12897ZM8.105 2.02897C8.02374 2.05296 7.94991 2.09721 7.89043 2.15755C7.83096 2.2179 7.7878 2.29237 7.765 2.37397L6.5 7.04897L5.095 6.67397L4.845 4.40897C4.82971 4.31765 4.78936 4.23235 4.72845 4.16261C4.66753 4.09287 4.58844 4.04141 4.5 4.01397L2.935 3.58397C2.85319 3.56141 2.76681 3.56141 2.685 3.58397C2.60432 3.60751 2.53087 3.651 2.47145 3.71042C2.41202 3.76985 2.36853 3.84329 2.345 3.92397L1.345 7.66897C1.27924 7.91455 1.26253 8.17067 1.2958 8.42271C1.32907 8.67475 1.41168 8.91776 1.53891 9.13785C1.66614 9.35795 1.83549 9.55082 2.03729 9.70544C2.23909 9.86006 2.46938 9.97339 2.715 10.039L12.07 12.539C12.3302 12.6123 12.6028 12.6302 12.8703 12.5917C13.1378 12.5532 13.3943 12.4591 13.6232 12.3154C13.8522 12.1718 14.0485 11.9817 14.1995 11.7576C14.3505 11.5334 14.4529 11.2801 14.5 11.014C14.5663 10.5255 14.4498 10.0298 14.173 9.62188C13.8961 9.214 13.4784 8.92274 13 8.80397L10.74 8.19897L10.265 2.86897C10.2539 2.77042 10.2138 2.67738 10.1497 2.60171C10.0856 2.52603 10.0004 2.47112 9.905 2.44397L8.365 2.01397C8.28286 1.99404 8.19714 1.99404 8.115 2.01397L8.105 2.02897Z" fill="currentColor"/>
</svg>
