<svg viewBox="0 0 16 17" fill="none" xmlns="http://www.w3.org/2000/svg">
<rect width="16" height="16" transform="translate(0 0.513672)" fill="white" fill-opacity="0.01" style="mix-blend-mode:multiply"/>
<path d="M11.0002 13.5138C11.5525 13.5138 12.0002 13.0661 12.0002 12.5138C12.0002 11.9615 11.5525 11.5138 11.0002 11.5138C10.4479 11.5138 10.0002 11.9615 10.0002 12.5138C10.0002 13.0661 10.4479 13.5138 11.0002 13.5138Z" fill="currentColor"/>
<path d="M14.8887 12.253C14.5797 11.466 14.0466 10.787 13.3554 10.3001C12.6642 9.81314 11.8453 9.53975 11.0002 9.51377C10.1551 9.53975 9.33626 9.81314 8.64507 10.3001C7.95387 10.787 7.42075 11.466 7.11178 12.253L7.00023 12.5138L7.11178 12.7745C7.42075 13.5615 7.95387 14.2406 8.64507 14.7275C9.33626 15.2144 10.1551 15.4878 11.0002 15.5138C11.8453 15.4878 12.6642 15.2144 13.3554 14.7275C14.0466 14.2406 14.5797 13.5615 14.8887 12.7745L15.0002 12.5138L14.8887 12.253ZM11.0002 14.5138C10.6047 14.5138 10.218 14.3965 9.88909 14.1767C9.56019 13.9569 9.30384 13.6446 9.15247 13.2791C9.00109 12.9137 8.96149 12.5115 9.03866 12.1236C9.11583 11.7356 9.30631 11.3793 9.58601 11.0996C9.86572 10.8198 10.2221 10.6294 10.61 10.5522C10.998 10.475 11.4001 10.5146 11.7656 10.666C12.131 10.8174 12.4434 11.0737 12.6632 11.4026C12.8829 11.7315 13.0002 12.1182 13.0002 12.5138C12.9996 13.044 12.7887 13.5524 12.4138 13.9273C12.0388 14.3023 11.5305 14.5132 11.0002 14.5138Z" fill="currentColor"/>
<path d="M6.00023 12.5138C5.66662 12.5138 5.33831 12.4303 5.04519 12.271C4.75207 12.1118 4.50345 11.8817 4.32198 11.6017C4.1405 11.3218 4.03193 11.0009 4.00614 10.6683C3.98036 10.3357 4.03819 10.0019 4.17436 9.6974C4.31053 9.39285 4.52073 9.1272 4.7858 8.92464C5.05087 8.72208 5.3624 8.58905 5.69202 8.53765C6.02164 8.48625 6.35889 8.51812 6.67304 8.63036C6.9872 8.74259 7.26829 8.93164 7.49073 9.18027L6.74573 9.84727C6.63454 9.7229 6.49402 9.62833 6.33694 9.57216C6.17987 9.51599 6.01123 9.50001 5.8464 9.52567C5.68157 9.55133 5.52578 9.61781 5.39321 9.71907C5.26064 9.82033 5.15551 9.95314 5.08739 10.1054C5.01928 10.2577 4.99033 10.4246 5.0032 10.5909C5.01607 10.7572 5.07034 10.9177 5.16107 11.0577C5.2518 11.1977 5.37611 11.3127 5.52268 11.3924C5.66924 11.472 5.83341 11.5138 6.00023 11.5138V12.5138Z" fill="currentColor"/>
<path d="M13.0002 1.51372C12.6766 1.51491 12.3586 1.59744 12.0752 1.75372L3.88022 5.99372C2.85028 6.47518 2.0154 7.29359 1.51352 8.31374C1.01164 9.33389 0.872796 10.4947 1.11992 11.6045C1.36705 12.7142 1.98536 13.7064 2.8727 14.4172C3.76003 15.128 4.8633 15.5148 6.00022 15.5137V14.5137C5.34303 14.514 4.6959 14.3524 4.11603 14.0431C3.53616 13.7338 3.04143 13.2865 2.67557 12.7405C2.30971 12.1946 2.084 11.5669 2.0184 10.913C1.95279 10.2591 2.04931 9.59913 2.29942 8.9914C2.54953 8.38367 2.94553 7.84692 3.4524 7.42862C3.95927 7.01032 4.5614 6.72335 5.20555 6.59309C5.8497 6.46282 6.51602 6.49327 7.1456 6.68175C7.77518 6.87023 8.34862 7.21093 8.81522 7.67372L9.51522 6.97372C8.78165 6.24457 7.84012 5.76071 6.82022 5.58872L11.0102 3.41872C11.0102 3.44872 11.0002 3.47872 11.0002 3.51372C11.0001 3.77638 11.0518 4.03649 11.1523 4.27917C11.2528 4.52186 11.4001 4.74236 11.5858 4.92809C11.7716 5.11383 11.9921 5.26114 12.2348 5.36163C12.4775 5.46211 12.7376 5.51379 13.0002 5.51372C13.0302 5.51372 13.0602 5.50372 13.0952 5.50372L11.5352 8.51372H12.6552L14.7802 4.40872C14.9365 4.10489 15.0118 3.76587 14.9988 3.42444C14.9858 3.08301 14.885 2.7507 14.706 2.45963C14.527 2.16857 14.276 1.92859 13.9772 1.76289C13.6784 1.59719 13.3419 1.51136 13.0002 1.51372ZM13.0002 4.51372C12.8024 4.51372 12.6091 4.45507 12.4447 4.34519C12.2802 4.23531 12.152 4.07913 12.0763 3.8964C12.0007 3.71368 11.9809 3.51261 12.0194 3.31863C12.058 3.12465 12.1533 2.94646 12.2931 2.80661C12.433 2.66676 12.6111 2.57152 12.8051 2.53293C12.9991 2.49435 13.2002 2.51415 13.3829 2.58984C13.5656 2.66553 13.7218 2.7937 13.8317 2.95815C13.9416 3.1226 14.0002 3.31594 14.0002 3.51372C13.9995 3.7787 13.8939 4.03261 13.7065 4.21998C13.5191 4.40735 13.2652 4.51295 13.0002 4.51372Z" fill="currentColor"/>
</svg>
