<svg viewBox="0 0 16 18" fill="none" xmlns="http://www.w3.org/2000/svg">
<rect width="16" height="17.5131" fill="white" fill-opacity="0.01" style="mix-blend-mode:multiply"/>
<path d="M12 10.9458V13.135H10V15.3241H8V16.4187H11V14.2295H13V12.0404H15V10.9458H12Z" fill="currentColor"/>
<path d="M4 2.18929H8V5.473C8 6.07638 8.4486 6.56756 9 6.56756H12V8.7567H13V5.473C13 5.32791 12.9473 5.18868 12.8535 5.08607L9.3535 1.25508C9.25975 1.15246 9.13255 1.09473 9 1.09473H4C3.4486 1.09473 3 1.58591 3 2.18929V15.3241C3 15.9275 3.4486 16.4187 4 16.4187H6V15.3241H4V2.18929ZM11.7928 5.473H9V2.41592L11.7928 5.473Z" fill="currentColor"/>
</svg>
