<svg viewBox="0 0 16 17" fill="none" xmlns="http://www.w3.org/2000/svg">
<rect width="16" height="16" transform="translate(0 0.513672)" fill="white" fill-opacity="0.01" style="mix-blend-mode:multiply"/>
<path d="M13.5 6.01367H13V5.51367C13 5.24846 12.8946 4.9941 12.7071 4.80657C12.5196 4.61903 12.2652 4.51367 12 4.51367H10V5.51367H12V7.01367H13.5V10.0137H12V11.5137H9.5V12.5137H12C12.2652 12.5137 12.5196 12.4083 12.7071 12.2208C12.8946 12.0332 13 11.7789 13 11.5137V11.0137H13.5C13.7652 11.0137 14.0196 10.9083 14.2071 10.7208C14.3946 10.5332 14.5 10.2789 14.5 10.0137V7.01367C14.5 6.74846 14.3946 6.4941 14.2071 6.30657C14.0196 6.11903 13.7652 6.01367 13.5 6.01367Z" fill="currentColor"/>
<path d="M5.5 11.5137H3V5.51367H6V4.51367H3C2.73478 4.51367 2.48043 4.61903 2.29289 4.80657C2.10536 4.9941 2 5.24846 2 5.51367V11.5137C2 11.7789 2.10536 12.0332 2.29289 12.2208C2.48043 12.4083 2.73478 12.5137 3 12.5137H5.5V11.5137Z" fill="currentColor"/>
<path d="M7.405 12.3037L6.595 11.7237L8.53 9.01367H4.685L8.11 4.70367L8.89 5.32367L6.755 8.01367H10.47L7.405 12.3037Z" fill="currentColor"/>
</svg>
