<svg viewBox="0 0 16 17" fill="none" xmlns="http://www.w3.org/2000/svg">
<rect width="16" height="16" transform="translate(0 0.513672)" fill="white" fill-opacity="0.01" style="mix-blend-mode:multiply"/>
<path d="M12 12.5137H3C2.73488 12.5134 2.4807 12.4079 2.29323 12.2204C2.10576 12.033 2.0003 11.7788 2 11.5137V5.51367C2.00026 5.24854 2.10571 4.99434 2.29319 4.80686C2.48066 4.61938 2.73486 4.51394 3 4.51367H12C12.2651 4.51398 12.5193 4.61943 12.7068 4.8069C12.8942 4.99437 12.9997 5.24855 13 5.51367V6.01367H13.5C13.7651 6.01398 14.0193 6.11943 14.2068 6.3069C14.3942 6.49437 14.4997 6.74855 14.5 7.01367V10.0137C14.4996 10.2788 14.3942 10.5329 14.2067 10.7204C14.0193 10.9078 13.7651 11.0133 13.5 11.0137H13V11.5137C12.9996 11.7788 12.8942 12.0329 12.7067 12.2204C12.5193 12.4078 12.2651 12.5133 12 12.5137ZM3 5.51367V11.5137H12V10.0137H13.5V7.01367H12V5.51367H3Z" fill="currentColor"/>
<path d="M5 10.5137V6.51367H4V10.5137H5Z" fill="currentColor"/>
</svg>
