<svg viewBox="0 0 16 16" fill="none" xmlns="http://www.w3.org/2000/svg">
<rect width="16" height="16" fill="white" fill-opacity="0.01" style="mix-blend-mode:multiply"/>
<path d="M10.3586 6.88496C10.7208 6.60316 11.0126 6.24095 11.2107 5.82697C11.4088 5.41299 11.508 4.9586 11.5002 4.49971C11.5002 2.73336 10.061 1.49971 8.0002 1.49971C7.53349 1.47261 7.06632 1.54458 6.6294 1.71089C6.19248 1.87719 5.7957 2.13407 5.46513 2.46464C5.13456 2.79521 4.87768 3.192 4.71137 3.62892C4.54507 4.06583 4.4731 4.533 4.5002 4.99971V15.4997H5.5002V12.56C5.88817 12.9618 6.35481 13.2793 6.87098 13.4926C7.38716 13.706 7.94177 13.8106 8.5002 13.8C9.0055 13.8187 9.50924 13.7334 9.98021 13.5494C10.4512 13.3653 10.8793 13.0865 11.2381 12.7302C11.5968 12.3739 11.8786 11.9477 12.0658 11.478C12.2531 11.0083 12.3418 10.5051 12.3266 9.99971C12.343 9.34417 12.1649 8.69846 11.8146 8.1441C11.4644 7.58974 10.9577 7.15158 10.3586 6.88496V6.88496ZM8.5002 12.7997C8.11732 12.8215 7.734 12.7655 7.37336 12.635C7.01273 12.5046 6.68227 12.3024 6.40191 12.0407C6.12155 11.7791 5.89711 11.4633 5.74213 11.1125C5.58716 10.7617 5.50486 10.3832 5.5002 9.99971V4.99971C5.4769 4.66541 5.5256 4.33 5.643 4.01612C5.76039 3.70224 5.94376 3.4172 6.18072 3.18023C6.41769 2.94327 6.70273 2.7599 7.01661 2.64251C7.33048 2.52511 7.6659 2.47642 8.0002 2.49971C9.5189 2.49971 10.5002 3.28471 10.5002 4.49971C10.509 4.76474 10.4633 5.02876 10.3659 5.2754C10.2686 5.52205 10.1216 5.74606 9.93406 5.93357C9.74655 6.12108 9.52253 6.26808 9.27589 6.36546C9.02924 6.46285 8.76523 6.50854 8.5002 6.49971V7.49971C10.2173 7.49971 11.3266 8.48116 11.3266 9.99971C11.3416 10.3737 11.2785 10.7467 11.1414 11.0949C11.0044 11.4432 10.7962 11.7591 10.5303 12.0225C10.2645 12.2859 9.94664 12.491 9.59711 12.6248C9.24758 12.7587 8.87401 12.8182 8.5002 12.7997V12.7997Z" fill="currentColor"/>
</svg>
