<svg viewBox="0 0 16 17" fill="none" xmlns="http://www.w3.org/2000/svg">
<g clip-path="url(#clip0_1961_11239)">
<rect width="16" height="16" transform="translate(0 0.513672)" fill="white" fill-opacity="0.01" style="mix-blend-mode:multiply"/>
<path d="M13 8.51367C12.9561 8.51367 12.9135 8.51832 12.87 8.52027L12.1184 5.01367H14V4.01367H11.5C11.4255 4.01365 11.3518 4.03031 11.2845 4.06245C11.2172 4.09458 11.1579 4.14136 11.111 4.19937C11.0641 4.25738 11.0308 4.32514 11.0135 4.39769C10.9962 4.47024 10.9954 4.54575 11.011 4.61867L11.31 6.01367H6.19364L5.69364 4.51367H7.00004V3.51367H3.50004V4.51367H4.64004L5.16059 6.07517L3.87559 8.64477C3.29242 8.46617 2.66866 8.46955 2.08746 8.65448C1.50626 8.83941 0.995229 9.19709 0.622491 9.67985C0.249753 10.1626 0.033014 10.7475 0.00116466 11.3566C-0.0306847 11.9657 0.123869 12.57 0.444223 13.089C0.764578 13.608 1.23551 14.017 1.79426 14.2616C2.353 14.5061 2.97301 14.5745 3.57163 14.4577C4.17025 14.3409 4.71905 14.0444 5.14487 13.6078C5.57069 13.1711 5.8533 12.615 5.95504 12.0137H7.26004C7.41003 12.014 7.55816 11.9805 7.69336 11.9155C7.82857 11.8506 7.94735 11.756 8.04084 11.6387L11.57 7.22657L11.8918 8.72852C11.2002 9.00568 10.6367 9.53074 10.3114 10.2011C9.98621 10.8715 9.92259 11.6391 10.133 12.3539C10.3435 13.0687 10.8128 13.6794 11.4494 14.0666C12.086 14.4539 12.8441 14.5898 13.5756 14.448C14.3071 14.3062 14.9595 13.8968 15.4053 13.2997C15.851 12.7026 16.0582 11.9608 15.9862 11.2191C15.9143 10.4775 15.5685 9.78929 15.0163 9.289C14.4641 8.78872 13.7452 8.51227 13 8.51367ZM3.00004 13.5137C2.71919 13.5144 2.44133 13.4561 2.18455 13.3423C1.92777 13.2286 1.69782 13.062 1.50967 12.8535C1.32153 12.645 1.17941 12.3992 1.09257 12.1321C1.00573 11.865 0.976111 11.5826 1.00565 11.3034C1.03518 11.0241 1.12321 10.7541 1.26399 10.5111C1.40478 10.2681 1.59516 10.0575 1.82276 9.89291C2.05035 9.72836 2.31005 9.61359 2.58495 9.55607C2.85984 9.49856 3.14377 9.49958 3.41824 9.55907L2.55279 11.29L2.55729 11.2922C2.52107 11.3605 2.50145 11.4364 2.50004 11.5137C2.49927 11.6262 2.53675 11.7357 2.60633 11.8241C2.67591 11.9125 2.77347 11.9747 2.88302 12.0005C2.99257 12.0262 3.10761 12.014 3.2093 11.9657C3.31098 11.9175 3.39327 11.8362 3.44269 11.7351L3.44729 11.7373L4.30914 10.0137C4.61746 10.2796 4.83687 10.6336 4.93783 11.028C5.0388 11.4225 5.01646 11.8384 4.87382 12.2197C4.73119 12.601 4.47511 12.9295 4.14009 13.1609C3.80506 13.3922 3.40718 13.5154 3.00004 13.5137ZM5.95504 11.0137C5.82414 10.2442 5.39846 9.55612 4.76839 9.09547L5.60774 7.41677L6.80654 11.0137H5.95504ZM7.68389 10.4837L6.52704 7.01367H10.4597L7.68389 10.4837ZM13 13.5137C12.5499 13.515 12.1125 13.364 11.7591 13.0851C11.4057 12.8063 11.157 12.4161 11.0535 11.978C10.95 11.5399 10.9978 11.0797 11.1891 10.6722C11.3804 10.2647 11.7039 9.93393 12.1071 9.73367L12.511 11.6187L12.521 11.6165C12.5431 11.7277 12.6027 11.8279 12.6899 11.9002C12.7772 11.9725 12.8867 12.0126 13 12.0137C13.1326 12.0137 13.2598 11.961 13.3536 11.8672C13.4474 11.7735 13.5 11.6463 13.5 11.5137C13.497 11.4787 13.49 11.4443 13.4793 11.4109L13.4893 11.4087L13.085 9.52222C13.6074 9.54345 14.1006 9.76875 14.4587 10.1497C14.8168 10.5307 15.0112 11.0369 15 11.5596C14.9889 12.0823 14.7732 12.5798 14.3992 12.9452C14.0252 13.3106 13.5229 13.5147 13 13.5137Z" fill="currentColor"/>
</g>
<defs>
<clipPath id="clip0_1961_11239">
<rect width="16" height="16" fill="white" transform="translate(0 0.513672)"/>
</clipPath>
</defs>
</svg>
