<svg viewBox="0 0 16 17" fill="none" xmlns="http://www.w3.org/2000/svg">
<rect width="16" height="16" transform="translate(0 0.513672)" fill="white" fill-opacity="0.01" style="mix-blend-mode:multiply"/>
<path d="M12.5 4.51367L11.6861 5.09472L14.271 8.51367L11.693 11.9326L12.507 12.5137L15.5 8.51367L12.5 4.51367Z" fill="currentColor"/>
<path d="M10 4.51367L9.18605 5.09472L11.771 8.51367L9.193 11.9326L10.007 12.5137L13 8.51367L10 4.51367Z" fill="currentColor"/>
<path d="M4.31395 5.09472L3.5 4.51367L0.5 8.51367L3.49305 12.5137L4.307 11.9326L1.729 8.51367L4.31395 5.09472Z" fill="currentColor"/>
<path d="M6 4.51367L3 8.51367L5.99305 12.5137L6.807 11.9326L4.229 8.51367L6.81395 5.09472L6 4.51367Z" fill="currentColor"/>
</svg>
