<svg viewBox="0 0 16 17" fill="none" xmlns="http://www.w3.org/2000/svg">
<rect width="16" height="16" transform="translate(0 0.513672)" fill="white" fill-opacity="0.01" style="mix-blend-mode:multiply"/>
<path d="M7 12.5137H2V13.5137H7V12.5137Z" fill="currentColor"/>
<path d="M7 9.51367H2V10.5137H7V9.51367Z" fill="currentColor"/>
<path d="M13 7.51367H3C2.73478 7.51367 2.48043 7.40831 2.29289 7.22078C2.10536 7.03324 2 6.77889 2 6.51367V3.51367C2 3.24846 2.10536 2.9941 2.29289 2.80657C2.48043 2.61903 2.73478 2.51367 3 2.51367H13C13.2652 2.51367 13.5196 2.61903 13.7071 2.80657C13.8946 2.9941 14 3.24846 14 3.51367V6.51367C14 6.77889 13.8946 7.03324 13.7071 7.22078C13.5196 7.40831 13.2652 7.51367 13 7.51367ZM3 3.51367V6.51367H13V3.51367H3Z" fill="currentColor"/>
<path d="M13 14.5137H10C9.73478 14.5137 9.48043 14.4083 9.29289 14.2208C9.10536 14.0332 9 13.7789 9 13.5137V10.5137C9 10.2485 9.10536 9.9941 9.29289 9.80657C9.48043 9.61903 9.73478 9.51367 10 9.51367H13C13.2652 9.51367 13.5196 9.61903 13.7071 9.80657C13.8946 9.9941 14 10.2485 14 10.5137V13.5137C14 13.7789 13.8946 14.0332 13.7071 14.2208C13.5196 14.4083 13.2652 14.5137 13 14.5137ZM10 10.5137V13.5137H13V10.5137H10Z" fill="currentColor"/>
</svg>
