<svg viewBox="0 0 16 17" fill="none" xmlns="http://www.w3.org/2000/svg">
<rect width="16" height="16" transform="translate(0 0.513672)" fill="white" fill-opacity="0.01" style="mix-blend-mode:multiply"/>
<path d="M14 13.809L2.705 2.51402L2 3.21902L7.295 8.51402L3.5 12.309L4.205 13.014L7.5 9.71902V15.014C7.49976 15.1097 7.52696 15.2034 7.57836 15.284C7.62976 15.3646 7.70321 15.4289 7.79 15.469C7.8562 15.4982 7.92766 15.5135 8 15.514C8.11917 15.514 8.23443 15.4715 8.325 15.394L11.475 12.694L13.295 14.514L14 13.809ZM8.5 13.929V9.71902L10.765 11.984L8.5 13.929Z" fill="currentColor"/>
<path d="M8.5 6.88902V3.09902L10.765 5.04402L8.71 7.09902L9.415 7.80402L11.855 5.36902C11.9013 5.3223 11.938 5.26689 11.9629 5.20597C11.9878 5.14505 12.0004 5.07982 12 5.01402C11.9972 4.9452 11.9802 4.87769 11.9501 4.81574C11.92 4.75379 11.8774 4.69874 11.825 4.65402L8.325 1.65402C8.25237 1.59159 8.16334 1.55134 8.0685 1.53805C7.97366 1.52475 7.87699 1.53897 7.79 1.57902C7.70623 1.61771 7.6348 1.67882 7.58362 1.7556C7.53243 1.83237 7.50349 1.92181 7.5 2.01402V5.88902L8.5 6.88902Z" fill="currentColor"/>
</svg>
