<svg viewBox="0 0 16 17" fill="none" xmlns="http://www.w3.org/2000/svg">
<rect width="16" height="16" transform="translate(0 0.513672)" fill="white" fill-opacity="0.01" style="mix-blend-mode:multiply"/>
<path d="M12 9.01367H9C8.86742 9.01357 8.74031 8.96085 8.64656 8.86711C8.55282 8.77336 8.50011 8.64625 8.5 8.51367V2.51367C8.49967 2.24856 8.39421 1.9944 8.20674 1.80693C8.01928 1.61947 7.76511 1.514 7.5 1.51367H2.5C2.23489 1.514 1.98072 1.61947 1.79326 1.80693C1.60579 1.9944 1.50033 2.24856 1.5 2.51367V14.5137C1.50033 14.7788 1.60579 15.0329 1.79326 15.2204C1.98072 15.4079 2.23489 15.5133 2.5 15.5137H13.5C13.7651 15.5133 14.0193 15.4079 14.2067 15.2204C14.3942 15.0329 14.4997 14.7788 14.5 14.5137V11.5137C14.4992 10.8509 14.2356 10.2154 13.7669 9.74674C13.2983 9.27806 12.6628 9.01443 12 9.01367V9.01367ZM13.5 11.5137V12.5137H11.5V10.0137H12C12.3977 10.0141 12.779 10.1723 13.0602 10.4535C13.3414 10.7347 13.4996 11.116 13.5 11.5137V11.5137ZM7.5 2.51367V3.51367H5.5V4.51367H7.5V5.51367H5.5V6.51367H7.5V7.51367H5.5V8.51367H7.5C7.50044 8.91136 7.65861 9.29264 7.93982 9.57385C8.22103 9.85506 8.60231 10.0132 9 10.0137H10.5V12.5137H7.0812L5.5812 12.0137H2.5V2.51367H7.5ZM12.5 14.5137V14.0137H11.5V14.5137H10.5V14.0137H9.5V14.5137H8.5V14.0137H7.5V14.5137H6.5V14.0137H5.5V14.5137H2.5V13.0137H5.4188L6.9188 13.5137H13.5V14.5137H12.5Z" fill="currentColor"/>
</svg>
