<svg viewBox="0 0 16 16" fill="none" xmlns="http://www.w3.org/2000/svg">
<rect width="16" height="16" fill="white" fill-opacity="0.01" style="mix-blend-mode:multiply"/>
<path d="M13 4.6853V1.5C13 1.2239 12.7761 1 12.5 1H11V2H12V5.36035C12 5.36035 13.5 5.61365 13.5 7.5V14H12V15H14C14.2761 15 14.5 14.7761 14.5 14.5V7.5C14.5 5.77415 13.5337 4.98805 13 4.6853Z" fill="currentColor"/>
<path d="M9.5 4.6853V1.5C9.5 1.2239 9.2761 1 9 1H7.5V2H8.5V5.36035C8.5 5.36035 10 5.61365 10 7.5V14H8.5V15H10.5C10.7761 15 11 14.7761 11 14.5V7.5C11 5.77415 10.0337 4.98805 9.5 4.6853Z" fill="currentColor"/>
<path d="M6.5 14H5V15H7C7.2761 15 7.5 14.7761 7.5 14.5V12.5H6.5V14Z" fill="currentColor"/>
<path d="M2.5 12.5H1.5V14.5C1.5 14.7761 1.7239 15 2 15H4V14H2.5V12.5Z" fill="currentColor"/>
<path d="M7.5 9H6.5V11.5H7.5V9Z" fill="currentColor"/>
<path d="M2.5 9H1.5V11.5H2.5V9Z" fill="currentColor"/>
<path d="M6 4.6853V1.5C6 1.2239 5.7761 1 5.5 1H3.5C3.2239 1 3 1.2239 3 1.5V4.6853C2.4663 4.98805 1.5 5.77415 1.5 7.5V8H2.5V7.5C2.5 5.61375 4 5.36035 4 5.36035V2H5V5.36035C5 5.36035 6.5 5.61375 6.5 7.5V8H7.5V7.5C7.5 5.77415 6.5337 4.98805 6 4.6853Z" fill="currentColor"/>
</svg>
