<svg viewBox="0 0 16 16" fill="none" xmlns="http://www.w3.org/2000/svg">
<rect width="16" height="16" fill="white" fill-opacity="0.01" style="mix-blend-mode:multiply"/>
<path d="M12 4.52565V3C12 2.7239 11.7761 2.5 11.5 2.5H10V3.5H11V5.01C11 5.01 12 5.5719 12 6.75V12.5H10V13.5H12.5C12.7761 13.5 13 13.2761 13 13V6.75C13 5.89355 12.6385 5.0962 12 4.52565Z" fill="currentColor"/>
<path d="M8 12.5H6.5V13.5H8.5C8.7761 13.5 9 13.2761 9 13V11H8V12.5Z" fill="currentColor"/>
<path d="M4 11H3V13C3 13.2761 3.2239 13.5 3.5 13.5H5.5V12.5H4V11Z" fill="currentColor"/>
<path d="M9 8H8V10H9V8Z" fill="currentColor"/>
<path d="M4 8H3V10H4V8Z" fill="currentColor"/>
<path d="M8 4.52565V3C8 2.7239 7.7761 2.5 7.5 2.5H4.5C4.2239 2.5 4 2.7239 4 3V4.52565C3.36145 5.0962 3 5.89355 3 6.75V7H4V6.75C4 5.572 5 5.01 5 5.01V3.5H7V5.01C7 5.01 8 5.572 8 6.75V7H9V6.75C9 5.89355 8.63855 5.0962 8 4.52565Z" fill="currentColor"/>
</svg>
