<svg viewBox="0 0 16 16" fill="none" xmlns="http://www.w3.org/2000/svg">
<rect width="16" height="16" fill="white" fill-opacity="0.01" style="mix-blend-mode:multiply"/>
<path d="M10 3C10 3.92935 10.6398 4.70545 11.5 4.929V7C11.5 7.82715 10.8271 8.5 10 8.5H6C5.43505 8.5 4.91915 8.6955 4.5 9.0128V4.929C5.36015 4.70545 6 3.92935 6 3C6 1.89695 5.1028 1 4 1C2.8972 1 2 1.89695 2 3C2 3.92935 2.63985 4.7054 3.5 4.929V11V11.071C2.63985 11.2947 2 12.0709 2 13C2 14.1028 2.8972 15 4 15C5.1028 15 6 14.1028 6 13C6 12.0709 5.36015 11.2947 4.5 11.071V11C4.5 10.1729 5.17285 9.5 6 9.5H10C11.3784 9.5 12.5 8.3784 12.5 7V4.929C13.3602 4.70545 14 3.92935 14 3C14 1.89695 13.103 1 12 1C10.897 1 10 1.89695 10 3ZM3 3C3 2.44875 3.4485 2 4 2C4.5515 2 5 2.44875 5 3C5 3.55125 4.5515 4 4 4C3.4485 4 3 3.55125 3 3ZM5 13C5 13.5515 4.5515 14 4 14C3.4485 14 3 13.5515 3 13C3 12.4485 3.4485 12 4 12C4.5515 12 5 12.4485 5 13ZM13 3C13 3.55125 12.5512 4 12 4C11.4488 4 11 3.55125 11 3C11 2.44875 11.4488 2 12 2C12.5512 2 13 2.44875 13 3Z" fill="currentColor"/>
</svg>
