<svg viewBox="0 0 16 17" fill="none" xmlns="http://www.w3.org/2000/svg">
<g clip-path="url(#clip0_1961_10948)">
<rect width="16" height="16" transform="translate(0 0.513672)" fill="white" fill-opacity="0.01" style="mix-blend-mode:multiply"/>
<path d="M15.5 13.0137C15.5 12.4203 15.3241 11.8403 14.9944 11.347C14.6648 10.8536 14.1962 10.4691 13.6481 10.242C13.0999 10.015 12.4967 9.95556 11.9147 10.0713C11.3328 10.1871 10.7982 10.4728 10.3787 10.8924C9.95912 11.3119 9.6734 11.8465 9.55764 12.4284C9.44189 13.0103 9.5013 13.6135 9.72836 14.1617C9.95542 14.7099 10.3399 15.1784 10.8333 15.5081C11.3266 15.8377 11.9067 16.0137 12.5 16.0137C13.2954 16.0128 14.0579 15.6964 14.6204 15.134C15.1828 14.5716 15.4991 13.8091 15.5 13.0137ZM14.5 13.0137C14.4981 13.3696 14.4002 13.7183 14.2165 14.0232L11.4905 11.2971C11.7953 11.1135 12.1441 11.0155 12.5 11.0137C13.0303 11.0143 13.5386 11.2252 13.9136 11.6001C14.2885 11.9751 14.4994 12.4834 14.5 13.0137ZM10.5 13.0137C10.5019 12.6578 10.5998 12.309 10.7835 12.0042L13.5095 14.7302C13.2047 14.9139 12.8559 15.0118 12.5 15.0137C11.9697 15.0131 11.4614 14.8022 11.0864 14.4272C10.7115 14.0523 10.5006 13.5439 10.5 13.0137Z" fill="currentColor"/>
<path d="M9.795 8.51367L8.5 9.80867L9.21 10.5137L11.21 8.51367L9.21 6.51367L8.5 7.21867L9.795 8.51367Z" fill="currentColor"/>
<path d="M5.205 8.51367L6.5 7.21867L5.79 6.51367L3.79 8.51367L5.79 10.5137L6.5 9.80867L5.205 8.51367Z" fill="currentColor"/>
<path d="M2 5.01367H13V8.51367H14V2.51367C14 2.24846 13.8946 1.9941 13.7071 1.80657C13.5196 1.61903 13.2652 1.51367 13 1.51367H2C1.73478 1.51367 1.48043 1.61903 1.29289 1.80657C1.10536 1.9941 1 2.24846 1 2.51367V12.5137C1 12.7789 1.10536 13.0332 1.29289 13.2208C1.48043 13.4083 1.73478 13.5137 2 13.5137H8V12.5137H2V5.01367ZM2 2.51367H13V4.01367H2V2.51367Z" fill="currentColor"/>
</g>
<defs>
<clipPath id="clip0_1961_10948">
<rect width="16" height="16" fill="white" transform="translate(0 0.513672)"/>
</clipPath>
</defs>
</svg>
