<svg viewBox="0 0 16 17" fill="none" xmlns="http://www.w3.org/2000/svg">
<rect width="16" height="16" transform="translate(0 0.513672)" fill="white" fill-opacity="0.01" style="mix-blend-mode:multiply"/>
<path d="M14 1.51367H8C7.73486 1.51394 7.48066 1.61938 7.29319 1.80686C7.10571 1.99434 7.00026 2.24854 7 2.51367V7.51367H2C1.73486 7.51394 1.48066 7.61938 1.29319 7.80686C1.10571 7.99434 1.00026 8.24854 1 8.51367V15.5137H15V2.51367C14.9997 2.24855 14.8942 1.99437 14.7068 1.8069C14.5193 1.61943 14.2651 1.51398 14 1.51367ZM4.5 14.5137V11.0137H6.5V14.5137H4.5ZM14 14.5137H7.5V10.5137C7.5 10.3811 7.44732 10.2539 7.35355 10.1601C7.25979 10.0663 7.13261 10.0137 7 10.0137H4C3.86739 10.0137 3.74021 10.0663 3.64645 10.1601C3.55268 10.2539 3.5 10.3811 3.5 10.5137V14.5137H2V8.51367H8V2.51367H14V14.5137Z" fill="currentColor"/>
<path d="M10 4.51367H9V5.51367H10V4.51367Z" fill="currentColor"/>
<path d="M13 4.51367H12V5.51367H13V4.51367Z" fill="currentColor"/>
<path d="M10 7.51367H9V8.51367H10V7.51367Z" fill="currentColor"/>
<path d="M13 7.51367H12V8.51367H13V7.51367Z" fill="currentColor"/>
<path d="M10 10.5135H9V11.5135H10V10.5135Z" fill="currentColor"/>
<path d="M13 10.5135H12V11.5135H13V10.5135Z" fill="currentColor"/>
<path d="M2.75 6.51367C2.28587 6.51367 1.84075 6.3293 1.51256 6.00111C1.18437 5.67292 1 5.2278 1 4.76367C1 4.29954 1.18437 3.85442 1.51256 3.52624C1.84075 3.19805 2.28587 3.01367 2.75 3.01367H3.0635C3.17483 2.58462 3.42532 2.20462 3.77575 1.93318C4.12618 1.66174 4.55674 1.5142 5 1.51367H6V2.51367H5C4.73488 2.51398 4.4807 2.61943 4.29323 2.8069C4.10576 2.99437 4.0003 3.24855 4 3.51367V4.01367H2.75C2.55109 4.01367 2.36032 4.09269 2.21967 4.23334C2.07902 4.37399 2 4.56476 2 4.76367C2 4.96258 2.07902 5.15335 2.21967 5.294C2.36032 5.43465 2.55109 5.51367 2.75 5.51367H6V6.51367H2.75Z" fill="currentColor"/>
</svg>
