<svg viewBox="0 0 16 17" fill="none" xmlns="http://www.w3.org/2000/svg">
<rect width="16" height="16" transform="translate(0 0.513672)" fill="white" fill-opacity="0.01" style="mix-blend-mode:multiply"/>
<path d="M14 11.5137C13.6595 11.4938 13.3326 11.373 13.0609 11.1668C12.7892 10.9605 12.585 10.6781 12.4743 10.3555C12.4412 10.2562 12.3777 10.1698 12.2929 10.1085C12.208 10.0471 12.106 10.014 12.0014 10.0138C11.8967 10.0135 11.7945 10.0461 11.7094 10.1069C11.6242 10.1678 11.5603 10.2539 11.5266 10.353C11.4161 10.6762 11.2119 10.9591 10.9401 11.1658C10.6682 11.3725 10.3409 11.4936 10 11.5137C9.65948 11.4938 9.33257 11.373 9.06088 11.1668C8.7892 10.9605 8.58502 10.6781 8.47435 10.3555C8.44069 10.2562 8.3769 10.1699 8.29187 10.1087C8.20684 10.0474 8.10481 10.0142 8 10.0137C7.89534 10.0129 7.79313 10.0453 7.70806 10.1063C7.623 10.1673 7.55946 10.2537 7.5266 10.353C7.41612 10.6762 7.21194 10.9591 6.94007 11.1658C6.66819 11.3725 6.34094 11.4936 6 11.5137C5.65948 11.4938 5.33257 11.373 5.06088 11.1668C4.7892 10.9605 4.58502 10.6781 4.47435 10.3555C4.44069 10.2562 4.3769 10.1699 4.29187 10.1087C4.20684 10.0474 4.10481 10.0142 4 10.0137C3.895 10.0114 3.79211 10.0433 3.70676 10.1045C3.6214 10.1657 3.55819 10.2529 3.5266 10.353C3.41612 10.6762 3.21194 10.9591 2.94007 11.1658C2.66819 11.3725 2.34094 11.4936 2 11.5137H1V12.5137H2C2.38804 12.5171 2.77141 12.4289 3.11894 12.2562C3.46647 12.0836 3.76834 11.8313 4 11.52C4.14514 11.7056 4.31313 11.8721 4.5 12.0156C4.5 12.9439 4.86875 13.8341 5.52513 14.4905C6.1815 15.1469 7.07174 15.5156 8 15.5156C8.92826 15.5156 9.8185 15.1469 10.4749 14.4905C11.1313 13.8341 11.5 12.9439 11.5 12.0156C11.6869 11.8721 11.8549 11.7056 12 11.52C12.2317 11.8313 12.5335 12.0836 12.8811 12.2562C13.2286 12.4289 13.612 12.5171 14 12.5137H15V11.5137H14ZM8 14.5137C7.41704 14.5125 6.8528 14.3078 6.40478 13.9348C5.95675 13.5618 5.65308 13.0441 5.54625 12.471C5.69597 12.4984 5.8478 12.5127 6 12.5137C6.38804 12.5171 6.77141 12.4289 7.11894 12.2562C7.46647 12.0836 7.76834 11.8313 8 11.52C8.23166 11.8313 8.53353 12.0836 8.88106 12.2562C9.22859 12.4289 9.61196 12.5171 10 12.5137C10.1522 12.5127 10.304 12.4984 10.4537 12.471C10.3469 13.0441 10.0433 13.5618 9.59522 13.9348C9.1472 14.3078 8.58296 14.5125 8 14.5137Z" fill="currentColor"/>
<path d="M10.035 4.43092C10.013 4.18141 9.89859 3.9491 9.7143 3.77945C9.53 3.6098 9.28904 3.51503 9.03855 3.51367H8.5V1.51367H7.5V3.51367H6.95875C6.71325 3.51324 6.4762 3.60336 6.293 3.76678C6.10979 3.93021 5.99329 4.15546 5.9658 4.39942L5.14025 10.0137H6.15075L6.51805 7.51367H9.47865L9.8462 10.0137H10.8567L10.035 4.43092ZM6.665 6.51367L6.95885 4.51367L9.04235 4.54492L9.33165 6.51367H6.665Z" fill="currentColor"/>
</svg>
