<svg viewBox="0 0 16 17" fill="none" xmlns="http://www.w3.org/2000/svg">
<g clip-path="url(#clip0_1961_10952)">
<rect width="16" height="16" transform="translate(0 0.513672)" fill="white" fill-opacity="0.01" style="mix-blend-mode:multiply"/>
<path d="M11.5001 16.0137C11.4954 16.0137 11.4907 16.0136 11.486 16.0135C11.2809 16.0077 11.1002 15.8773 11.0302 15.6846L9.4619 11.372L8.4596 13.7107C8.38075 13.8945 8.2001 14.0137 8 14.0137H6V13.0137H7.6703L9.0404 9.81677C9.12135 9.62817 9.31435 9.50847 9.51405 9.51392C9.71915 9.51967 9.8998 9.65007 9.96985 9.84282L11.5381 14.1554L12.5404 11.8167C12.6192 11.6329 12.7999 11.5137 13 11.5137H15V12.5137H13.3297L11.9596 15.7106C11.8806 15.8948 11.6996 16.0137 11.5001 16.0137Z" fill="currentColor"/>
<path d="M4.5 13.0137H2V5.51367H14V10.0137H15V5.51367C15 4.96217 14.5512 4.51367 14 4.51367H11V2.51367C11 1.96217 10.5512 1.51367 10 1.51367H6C5.4485 1.51367 5 1.96217 5 2.51367V4.51367H2C1.4485 4.51367 1 4.96217 1 5.51367V13.0137C1 13.5649 1.4485 14.0137 2 14.0137H4.5V13.0137ZM6 2.51367H10V4.51367H6V2.51367Z" fill="currentColor"/>
</g>
<defs>
<clipPath id="clip0_1961_10952">
<rect width="16" height="16" fill="white" transform="translate(0 0.513672)"/>
</clipPath>
</defs>
</svg>
