<svg viewBox="0 0 16 17" fill="none" xmlns="http://www.w3.org/2000/svg">
<rect width="16" height="16" transform="translate(0 0.513672)" fill="white" fill-opacity="0.01" style="mix-blend-mode:multiply"/>
<path d="M15 13.0137V12.0137H10.3838L9.98379 10.5137H13.5V9.51368H9.71739L8.48289 4.88478L7.51709 5.14258L9.41794 12.271C9.47496 12.4839 9.60063 12.6721 9.77547 12.8064C9.9503 12.9407 10.1645 13.0135 10.385 13.0137H11V14.5137H4.99999V13.0137H7.99999V12.0137H3.38379L2.98379 10.5137H6.49999V9.51368H2.71739L1.48289 4.88478L0.51709 5.14258L2.41794 12.271C2.47496 12.4839 2.60063 12.6721 2.77547 12.8064C2.9503 12.9407 3.16454 13.0135 3.38499 13.0137H3.99999V14.5137H0.99999V15.5137H15V14.5137H12V13.0137H15Z" fill="currentColor"/>
<path d="M13.6515 1.51368C13.4736 1.51368 13.2976 1.54934 13.1337 1.61855C12.9699 1.68776 12.8215 1.78911 12.6975 1.91663L12.5 2.11928L12.3024 1.91663C12.1784 1.78911 12.0301 1.68776 11.8663 1.61854C11.7024 1.54933 11.5264 1.51367 11.3485 1.51367C11.1706 1.51367 10.9946 1.54933 10.8307 1.61854C10.6669 1.68776 10.5186 1.78911 10.3946 1.91663C10.1415 2.17773 9.99999 2.52708 9.99999 2.8907C9.99999 3.25433 10.1415 3.60368 10.3946 3.86478L12.5 6.01368L14.6054 3.86478C14.8585 3.60368 15 3.25433 15 2.8907C15 2.52708 14.8585 2.17773 14.6054 1.91663C14.4814 1.78912 14.3331 1.68777 14.1692 1.61856C14.0054 1.54935 13.8293 1.51368 13.6515 1.51368Z" fill="currentColor"/>
</svg>
