<svg viewBox="0 0 16 17" fill="none" xmlns="http://www.w3.org/2000/svg">
<rect width="16" height="16" transform="translate(0 0.513672)" fill="white" fill-opacity="0.01" style="mix-blend-mode:multiply"/>
<path d="M13.6511 1.51368C13.4732 1.51369 13.2972 1.54936 13.1333 1.61857C12.9695 1.68778 12.8212 1.78913 12.6972 1.91663L12.5006 2.11928L12.3021 1.91663C12.1781 1.78912 12.0298 1.68776 11.8659 1.61854C11.7021 1.54933 11.526 1.51367 11.3482 1.51367C11.1703 1.51367 10.9942 1.54933 10.8304 1.61854C10.6665 1.68776 10.5182 1.78912 10.3942 1.91663C10.1411 2.17774 9.99962 2.52709 9.99962 2.89071C9.99962 3.25433 10.1411 3.60368 10.3942 3.86478L12.5006 6.01368L14.605 3.86478C14.8581 3.60368 14.9996 3.25433 14.9996 2.89071C14.9996 2.52709 14.8581 2.17774 14.605 1.91663C14.481 1.78912 14.3327 1.68777 14.1689 1.61856C14.005 1.54935 13.829 1.51369 13.6511 1.51368Z" fill="currentColor"/>
<path d="M11.9109 9.51368H7.5415L5.93215 3.49633C5.7949 2.98396 5.45973 2.5471 5.00038 2.28184C4.54103 2.01659 3.99512 1.94468 3.48275 2.08193C2.97038 2.21918 2.53351 2.55435 2.26826 3.0137C2.00301 3.47305 1.9311 4.01896 2.06835 4.53133L4.2727 12.7721C4.3296 12.9848 4.45513 13.1728 4.62981 13.3069C4.80449 13.441 5.01854 13.5137 5.23875 13.5137H9.5V14.5137H2V15.5137H9.5C9.76522 15.5137 10.0196 15.4083 10.2071 15.2208C10.3946 15.0333 10.5 14.7789 10.5 14.5137V13.5137H12C12.2794 13.5133 12.5556 13.4545 12.811 13.341C13.0663 13.2275 13.295 13.0618 13.4824 12.8546C13.6699 12.6474 13.8118 12.4032 13.8993 12.1378C13.9867 11.8725 14.0176 11.5917 13.99 11.3137C13.9259 10.8103 13.6783 10.3483 13.2946 10.0161C12.911 9.68399 12.4183 9.50508 11.9109 9.51368ZM12 12.5137H5.2388L3.0343 4.27273C2.96566 4.01655 3.0016 3.74359 3.13422 3.5139C3.26684 3.28422 3.48526 3.11662 3.74145 3.04798C3.99764 2.97934 4.2706 3.01529 4.50028 3.1479C4.72997 3.28052 4.89756 3.49895 4.9662 3.75513L6.7733 10.5137H12C12.2652 10.5137 12.5196 10.619 12.7071 10.8066C12.8946 10.9941 13 11.2485 13 11.5137C13 11.7789 12.8946 12.0333 12.7071 12.2208C12.5196 12.4083 12.2652 12.5137 12 12.5137Z" fill="currentColor"/>
</svg>
