<svg viewBox="0 0 16 17" fill="none" xmlns="http://www.w3.org/2000/svg">
<rect width="16" height="16" transform="translate(0 0.513672)" fill="white" fill-opacity="0.01" style="mix-blend-mode:multiply"/>
<path d="M15 14.5137H1V15.5137H15V14.5137Z" fill="currentColor"/>
<path d="M12.25 6.01367H4C3.73486 6.01394 3.48066 6.11938 3.29319 6.30686C3.10571 6.49434 3.00026 6.74854 3 7.01367V11.0137C3.00078 11.6765 3.26442 12.3119 3.7331 12.7806C4.20177 13.2492 4.8372 13.5129 5.5 13.5137H9.5C10.1628 13.5129 10.7982 13.2492 11.2669 12.7806C11.7356 12.3119 11.9992 11.6765 12 11.0137V10.5137H12.25C12.8467 10.5137 13.419 10.2766 13.841 9.85466C14.2629 9.43271 14.5 8.86041 14.5 8.26367C14.5 7.66693 14.2629 7.09464 13.841 6.67268C13.419 6.25072 12.8467 6.01367 12.25 6.01367ZM11 11.0137C10.9996 11.4114 10.8414 11.7926 10.5602 12.0738C10.279 12.3551 9.89769 12.5132 9.5 12.5137H5.5C5.10231 12.5132 4.72103 12.3551 4.43982 12.0738C4.15861 11.7926 4.00044 11.4114 4 11.0137V7.01367H11V11.0137ZM12.25 9.51367H12V7.01367H12.25C12.5815 7.01367 12.8995 7.14537 13.1339 7.37979C13.3683 7.61421 13.5 7.93215 13.5 8.26367C13.5 8.59519 13.3683 8.91313 13.1339 9.14756C12.8995 9.38198 12.5815 9.51367 12.25 9.51367Z" fill="currentColor"/>
<path d="M9.5 5.01367H8.5V4.94067C8.50066 4.75484 8.44921 4.57255 8.35151 4.41448C8.25381 4.2564 8.11376 4.12888 7.94725 4.04637L6.60545 3.37547C6.27249 3.21033 5.99245 2.95523 5.79707 2.63906C5.60168 2.3229 5.49877 1.95833 5.5 1.58667V1.01367H6.5V1.58667C6.4994 1.77249 6.55086 1.95476 6.64856 2.11282C6.74625 2.27089 6.88627 2.39842 7.05275 2.48097L8.39455 3.15187C8.72749 3.31703 9.00752 3.57214 9.2029 3.8883C9.39828 4.20445 9.5012 4.56902 9.5 4.94067V5.01367Z" fill="currentColor"/>
</svg>
