<svg viewBox="0 0 16 17" fill="none" xmlns="http://www.w3.org/2000/svg">
<rect width="16" height="16" transform="translate(0 0.513672)" fill="white" fill-opacity="0.01" style="mix-blend-mode:multiply"/>
<path d="M11.9905 12.7303C12.2954 12.9139 12.6441 13.0118 13 13.0137C13.5303 13.0131 14.0386 12.8022 14.4136 12.4272C14.7885 12.0523 14.9994 11.5439 15 11.0137C14.9977 10.8407 14.9726 10.6687 14.9254 10.5023L13.7071 11.7207C13.6142 11.8135 13.5038 11.8869 13.3825 11.9372C13.2612 11.9874 13.1313 12.0132 13 12.0132C12.8687 12.0132 12.7388 11.9874 12.6175 11.9372C12.4962 11.8869 12.386 11.8133 12.2932 11.7205C12.2004 11.6277 12.1268 11.5175 12.0765 11.3962C12.0263 11.2749 12.0004 11.1449 12.0004 11.0137C12.0004 10.8824 12.0263 10.7524 12.0765 10.6312C12.1268 10.5099 12.2004 10.3997 12.2932 10.3069L13.5113 9.08822C13.3449 9.04108 13.173 9.01602 13 9.01367C12.4697 9.01427 11.9614 9.22517 11.5864 9.60012C11.2115 9.97506 11.0006 10.4834 11 11.0137C11.0019 11.3696 11.0998 11.7183 11.2835 12.0232L8.5 14.8067L9.20705 15.5137L11.9905 12.7303Z" fill="currentColor"/>
<path fill-rule="evenodd" clip-rule="evenodd" d="M13 2.51367H11V1.51367H10V2.51367H6V1.51367H5V2.51367H3C2.73478 2.51367 2.48043 2.61903 2.29289 2.80657C2.10536 2.9941 2 3.24846 2 3.51367V13.5137C2 13.7789 2.10536 14.0332 2.29289 14.2208C2.48043 14.4083 2.73478 14.5137 3 14.5137H7V13.5137H3V3.51367H5V4.51367H6V3.51367H10V4.51367H11V3.51367H13V7.51367H14V3.51367C14 3.24846 13.8946 2.9941 13.7071 2.80657C13.5196 2.61903 13.2652 2.51367 13 2.51367Z" fill="currentColor"/>
</svg>
