<svg viewBox="0 0 16 17" fill="none" xmlns="http://www.w3.org/2000/svg">
<rect width="16" height="16" transform="translate(0 0.513672)" fill="white" fill-opacity="0.01" style="mix-blend-mode:multiply"/>
<path d="M15 12.0137V11.0137H13.955C13.8801 10.5684 13.7049 10.146 13.4428 9.77832L14.182 9.03867L13.475 8.33177L12.7356 9.07102C12.3679 8.80879 11.9454 8.63359 11.5 8.55867V7.51367H10.5V8.55867C10.0547 8.63357 9.63223 8.80871 9.26455 9.07087L8.525 8.33177L7.818 9.03867L8.55735 9.77817C8.29518 10.1459 8.11999 10.5683 8.045 11.0137H7V12.0137H8.045C8.11997 12.4589 8.29511 12.8813 8.5572 13.249L7.818 13.9887L8.525 14.6956L9.2644 13.9563C9.63211 14.2186 10.0546 14.3938 10.5 14.4687V15.5137H11.5V14.4687C11.9453 14.3938 12.3678 14.2186 12.7354 13.9565L13.475 14.6956L14.182 13.9887L13.4426 13.2492C13.7049 12.8815 13.8801 12.459 13.955 12.0137H15ZM11 13.5137C10.6044 13.5137 10.2178 13.3964 9.88886 13.1766C9.55996 12.9568 9.30362 12.6445 9.15224 12.279C9.00087 11.9136 8.96126 11.5115 9.03843 11.1235C9.1156 10.7355 9.30608 10.3792 9.58579 10.0995C9.86549 9.81975 10.2219 9.62927 10.6098 9.5521C10.9978 9.47493 11.3999 9.51454 11.7654 9.66591C12.1308 9.81729 12.4432 10.0736 12.6629 10.4025C12.8827 10.7314 13 11.1181 13 11.5137C12.9994 12.0439 12.7885 12.5523 12.4136 12.9272C12.0386 13.3022 11.5303 13.5131 11 13.5137Z" fill="currentColor"/>
<path d="M14 3.51367C14 3.24846 13.8946 2.9941 13.7071 2.80657C13.5196 2.61903 13.2652 2.51367 13 2.51367H11V1.51367H10V2.51367H6V1.51367H5V2.51367H3C2.73478 2.51367 2.48043 2.61903 2.29289 2.80657C2.10536 2.9941 2 3.24846 2 3.51367V13.5137C2 13.7789 2.10536 14.0332 2.29289 14.2208C2.48043 14.4083 2.73478 14.5137 3 14.5137H5V13.5137H3V3.51367H5V4.51367H6V3.51367H10V4.51367H11V3.51367H13V6.51367H14V3.51367Z" fill="currentColor"/>
</svg>
