<svg viewBox="0 0 16 16" fill="none" xmlns="http://www.w3.org/2000/svg">
<rect width="16" height="16" fill="white" fill-opacity="0.01" style="mix-blend-mode:multiply"/>
<path d="M13 6C11.8954 6 11 6.8954 11 8C11 9.1046 11.8954 10 13 10C14.1046 10 15 9.10455 15 8C15 6.89545 14.1046 6 13 6ZM13 9C12.4486 9 12 8.5514 12 8C12 7.4486 12.4486 7 13 7C13.5514 7 14 7.4486 14 8C14 8.5514 13.5514 9 13 9Z" fill="currentColor"/>
<path d="M7.5 10L6.79285 10.7071L8.0858 12H3.90785C3.7008 11.4194 3.151 11 2.5 11C1.67285 11 1 11.6729 1 12.5C1 13.3271 1.67285 14 2.5 14C3.151 14 3.7008 13.5806 3.90785 13H8.08585L6.7929 14.2929L7.50005 15L10 12.5L7.5 10ZM2.5 13C2.22425 13 2 12.7756 2 12.5C2 12.2244 2.22425 12 2.5 12C2.77575 12 3 12.2244 3 12.5C3 12.7756 2.77575 13 2.5 13Z" fill="currentColor"/>
<path d="M7.5 2L6.79285 2.70705L8.0858 4H3.90785C3.7008 3.41945 3.151 3 2.5 3C1.67285 3 1 3.67285 1 4.5C1 5.32715 1.67285 6 2.5 6C3.151 6 3.7008 5.58055 3.90785 5H8.08585L6.7929 6.29295L7.50005 7L10 4.5L7.5 2ZM2.5 5C2.22425 5 2 4.77565 2 4.5C2 4.22435 2.22425 4 2.5 4C2.77575 4 3 4.22435 3 4.5C3 4.77565 2.77575 5 2.5 5Z" fill="currentColor"/>
</svg>
