<svg viewBox="0 0 16 17" fill="none" xmlns="http://www.w3.org/2000/svg">
<rect width="16" height="16" transform="translate(0 0.513672)" fill="white" fill-opacity="0.01" style="mix-blend-mode:multiply"/>
<path d="M6 12.0137C5.40666 12.0137 4.82664 11.8377 4.33329 11.5081C3.83994 11.1784 3.45542 10.7099 3.22836 10.1617C3.0013 9.61354 2.94189 9.01034 3.05764 8.4284C3.1734 7.84646 3.45912 7.31191 3.87868 6.89235C4.29824 6.47279 4.83279 6.18707 5.41473 6.07132C5.99667 5.95556 6.59987 6.01497 7.14805 6.24203C7.69623 6.4691 8.16476 6.85361 8.49441 7.34696C8.82405 7.84031 9 8.42033 9 9.01367C9 9.80932 8.68393 10.5724 8.12132 11.135C7.55871 11.6976 6.79565 12.0137 6 12.0137ZM6 7.01367C5.60444 7.01367 5.21776 7.13097 4.88886 7.35073C4.55996 7.5705 4.30362 7.88285 4.15224 8.24831C4.00087 8.61376 3.96126 9.01589 4.03843 9.40385C4.1156 9.79181 4.30608 10.1482 4.58579 10.4279C4.86549 10.7076 5.22186 10.8981 5.60982 10.9752C5.99778 11.0524 6.39991 11.0128 6.76537 10.8614C7.13082 10.7101 7.44318 10.4537 7.66294 10.1248C7.8827 9.79591 8 9.40923 8 9.01367C8 8.48324 7.78929 7.97453 7.41421 7.59946C7.03914 7.22439 6.53043 7.01367 6 7.01367Z" fill="currentColor"/>
<path d="M14.5 14.0137H1.5C1.36739 14.0137 1.24021 13.961 1.14645 13.8672C1.05268 13.7735 1 13.6463 1 13.5137V3.51367C1 3.38106 1.05268 3.25389 1.14645 3.16012C1.24021 3.06635 1.36739 3.01367 1.5 3.01367H14.5C14.6326 3.01367 14.7598 3.06635 14.8536 3.16012C14.9473 3.25389 15 3.38106 15 3.51367V13.5137C15 13.6463 14.9473 13.7735 14.8536 13.8672C14.7598 13.961 14.6326 14.0137 14.5 14.0137ZM2 13.0137H14V4.01367H2V13.0137Z" fill="currentColor"/>
<path d="M13 5.01367H9.5V6.01367H13V5.01367Z" fill="currentColor"/>
<path d="M6 9.51367C6.27614 9.51367 6.5 9.28981 6.5 9.01367C6.5 8.73753 6.27614 8.51367 6 8.51367C5.72386 8.51367 5.5 8.73753 5.5 9.01367C5.5 9.28981 5.72386 9.51367 6 9.51367Z" fill="currentColor"/>
</svg>
