<svg viewBox="0 0 16 16" fill="none" xmlns="http://www.w3.org/2000/svg">
<rect width="16" height="16" fill="white" fill-opacity="0.01" style="mix-blend-mode:multiply"/>
<path d="M3.5 3.5C3.77614 3.5 4 3.27614 4 3C4 2.72386 3.77614 2.5 3.5 2.5C3.22386 2.5 3 2.72386 3 3C3 3.27614 3.22386 3.5 3.5 3.5Z" fill="currentColor"/>
<path d="M5.5 3.5C5.77614 3.5 6 3.27614 6 3C6 2.72386 5.77614 2.5 5.5 2.5C5.22386 2.5 5 2.72386 5 3C5 3.27614 5.22386 3.5 5.5 3.5Z" fill="currentColor"/>
<path d="M14.25 13C14.6642 13 15 12.6642 15 12.25C15 11.8358 14.6642 11.5 14.25 11.5C13.8358 11.5 13.5 11.8358 13.5 12.25C13.5 12.6642 13.8358 13 14.25 13Z" fill="currentColor"/>
<path d="M11.75 14.5C12.1642 14.5 12.5 14.1642 12.5 13.75C12.5 13.3358 12.1642 13 11.75 13C11.3358 13 11 13.3358 11 13.75C11 14.1642 11.3358 14.5 11.75 14.5Z" fill="currentColor"/>
<path d="M9.25 13C9.66421 13 10 12.6642 10 12.25C10 11.8358 9.66421 11.5 9.25 11.5C8.83579 11.5 8.5 11.8358 8.5 12.25C8.5 12.6642 8.83579 13 9.25 13Z" fill="currentColor"/>
<path d="M9.25 10.5C9.66421 10.5 10 10.1642 10 9.75C10 9.33579 9.66421 9 9.25 9C8.83579 9 8.5 9.33579 8.5 9.75C8.5 10.1642 8.83579 10.5 9.25 10.5Z" fill="currentColor"/>
<path d="M11.75 9C12.1642 9 12.5 8.66421 12.5 8.25C12.5 7.83579 12.1642 7.5 11.75 7.5C11.3358 7.5 11 7.83579 11 8.25C11 8.66421 11.3358 9 11.75 9Z" fill="currentColor"/>
<path d="M14.25 10.5C14.6642 10.5 15 10.1642 15 9.75C15 9.33579 14.6642 9 14.25 9C13.8358 9 13.5 9.33579 13.5 9.75C13.5 10.1642 13.8358 10.5 14.25 10.5Z" fill="currentColor"/>
<path d="M14 1H2C1.4477 1 1 1.4477 1 2V12C1 12.5523 1.4477 13 2 13H6.5V12H2V5H14V7H15V2C15 1.4477 14.5523 1 14 1ZM14 4H2V2H14V4Z" fill="currentColor"/>
</svg>
