<svg viewBox="0 0 16 17" fill="none" xmlns="http://www.w3.org/2000/svg">
<rect width="16" height="16" transform="translate(0 0.513672)" fill="white" fill-opacity="0.01" style="mix-blend-mode:multiply"/>
<path d="M11 13.5137H5C4.73478 13.5137 4.48043 13.4083 4.29289 13.2208C4.10536 13.0332 4 12.7789 4 12.5137V4.51367C4 4.24846 4.10536 3.9941 4.29289 3.80657C4.48043 3.61903 4.73478 3.51367 5 3.51367H11C11.2652 3.51367 11.5196 3.61903 11.7071 3.80657C11.8946 3.9941 12 4.24846 12 4.51367V12.5137C12 12.7789 11.8946 13.0332 11.7071 13.2208C11.5196 13.4083 11.2652 13.5137 11 13.5137ZM5 4.51367V12.5137H11V4.51367H5Z" fill="currentColor"/>
<path d="M2 12.5137H0V11.5137H2V5.51367H0V4.51367H2C2.26522 4.51367 2.51957 4.61903 2.70711 4.80657C2.89464 4.9941 3 5.24846 3 5.51367V11.5137C3 11.7789 2.89464 12.0332 2.70711 12.2208C2.51957 12.4083 2.26522 12.5137 2 12.5137Z" fill="currentColor"/>
<path d="M16 12.5137H14C13.7348 12.5137 13.4804 12.4083 13.2929 12.2208C13.1054 12.0332 13 11.7789 13 11.5137V5.51367C13 5.24846 13.1054 4.9941 13.2929 4.80657C13.4804 4.61903 13.7348 4.51367 14 4.51367H16V5.51367H14V11.5137H16V12.5137Z" fill="currentColor"/>
</svg>
