<svg viewBox="0 0 16 17" fill="none" xmlns="http://www.w3.org/2000/svg">
<rect width="16" height="16" transform="translate(0 0.513672)" fill="white" fill-opacity="0.01" style="mix-blend-mode:multiply"/>
<path d="M12.5 6.01367V8.51367H8.5V6.01367H7.5V8.51367H3.5V6.01367H2.5V12.0137H3.5V9.51367H5V15.5137H6V9.51367H7.5V12.0137H8.5V9.51367H10V15.5137H11V9.51367H12.5V12.0137H13.5V6.01367H12.5Z" fill="currentColor"/>
<path d="M8 3.51367C7.15 3.51367 6.4 3.86367 5.9 4.41367L6.6 5.11367C6.95 4.71367 7.45 4.51367 8 4.51367C8.55 4.51367 9.05 4.71367 9.4 5.11367L10.1 4.41367C9.6 3.86367 8.85 3.51367 8 3.51367Z" fill="currentColor"/>
<path d="M4.45 2.96367L5.15 3.66367C5.9 2.96367 6.9 2.51367 8 2.51367C9.1 2.51367 10.1 2.96367 10.85 3.66367L11.55 2.96367C10.65 2.06367 9.4 1.51367 8 1.51367C6.6 1.51367 5.35 2.06367 4.45 2.96367Z" fill="currentColor"/>
</svg>
