<svg viewBox="0 0 16 17" fill="none" xmlns="http://www.w3.org/2000/svg">
<rect width="16" height="16" transform="translate(0 0.513672)" fill="white" fill-opacity="0.01" style="mix-blend-mode:multiply"/>
<path d="M14.5 4.01367V2.51367H13.5V4.01367H13V7.01367H13.5V12.7637C13.5 12.9626 13.421 13.1533 13.2803 13.294C13.1397 13.4347 12.9489 13.5137 12.75 13.5137C12.5511 13.5137 12.3603 13.4347 12.2197 13.294C12.079 13.1533 12 12.9626 12 12.7637V8.51367C12 8.38106 11.9473 8.25389 11.8536 8.16012C11.7598 8.06635 11.6326 8.01367 11.5 8.01367H9.5V3.01367C9.5 2.88106 9.44732 2.75389 9.35355 2.66012C9.25979 2.56635 9.13261 2.51367 9 2.51367H2.5C2.36739 2.51367 2.24021 2.56635 2.14645 2.66012C2.05268 2.75389 2 2.88106 2 3.01367V13.5137H1V14.5137H10.5V13.5137H9.5V9.01367H11V12.7637C11 13.2278 11.1844 13.6729 11.5126 14.0011C11.8408 14.3293 12.2859 14.5137 12.75 14.5137C13.2141 14.5137 13.6592 14.3293 13.9874 14.0011C14.3156 13.6729 14.5 13.2278 14.5 12.7637V7.01367H15V4.01367H14.5ZM5.9287 11.271L5.0713 10.7564L6.11695 9.01367H3.61695L5.5713 5.75637L6.4287 6.27097L5.38305 8.01367H7.88305L5.9287 11.271Z" fill="currentColor"/>
</svg>
