<svg viewBox="0 0 16 16" fill="none" xmlns="http://www.w3.org/2000/svg">
<rect width="16" height="16" fill="white" fill-opacity="0.01" style="mix-blend-mode:multiply"/>
<path d="M13.7663 8.58644C14.1916 8.13662 14.5194 7.60379 14.7291 7.02137C14.9389 6.43895 15.026 5.81948 14.9852 5.20179C14.9444 4.58411 14.7764 3.98151 14.4918 3.43178C14.2072 2.88205 13.8121 2.39702 13.3313 2.00711C12.8505 1.6172 12.2943 1.3308 11.6976 1.16586C11.101 1.00093 10.4767 0.961014 9.86387 1.04862C9.25106 1.13622 8.66295 1.34946 8.13641 1.67497C7.60986 2.00048 7.15622 2.43123 6.80392 2.94024C6.63373 2.48952 6.35744 2.08643 5.99843 1.76513C5.63943 1.44383 5.20828 1.21376 4.74151 1.09442C4.27473 0.97508 3.78607 0.969975 3.3169 1.07954C2.84774 1.1891 2.41188 1.41011 2.04624 1.72384C1.6806 2.03757 1.39594 2.43479 1.21637 2.88187C1.0368 3.32894 0.967612 3.81271 1.01465 4.29219C1.0617 4.77168 1.22359 5.23277 1.48662 5.63643C1.74965 6.04008 2.10608 6.3744 2.52572 6.61109C2.14403 6.87161 1.81774 7.20516 1.56569 7.59249C1.31364 7.97981 1.14082 8.41324 1.05723 8.86774C0.973632 9.32223 0.980911 9.78878 1.07864 10.2404C1.17638 10.6921 1.36263 11.1199 1.62664 11.4992C1.89065 11.8785 2.22719 12.2017 2.61682 12.4502C3.00645 12.6987 3.44145 12.8675 3.89669 12.9469C4.35194 13.0263 4.8184 13.0147 5.26915 12.9128C5.71989 12.811 6.14599 12.6208 6.52282 12.3533C6.61255 13.113 6.98921 13.8097 7.57574 14.3009C8.16227 14.792 8.91432 15.0405 9.678 14.9954C10.4417 14.9503 11.1593 14.615 11.6839 14.0583C12.2085 13.5015 12.5006 12.7653 12.5002 12.0002C12.5002 11.9394 12.4947 11.8802 12.4912 11.8205C12.7073 11.9262 12.943 11.9861 13.1834 11.9962C13.4238 12.0064 13.6637 11.9667 13.888 11.8796C14.1123 11.7926 14.3162 11.66 14.4868 11.4903C14.6574 11.3206 14.791 11.1175 14.8792 10.8936C14.9675 10.6698 15.0085 10.4301 14.9996 10.1897C14.9907 9.9492 14.9321 9.7132 14.8275 9.49649C14.723 9.27977 14.5747 9.08705 14.3921 8.93043C14.2094 8.77381 13.9965 8.65669 13.7663 8.58644ZM10.5002 2.00024C11.1925 2.00024 11.8691 2.20552 12.4447 2.5901C13.0203 2.97469 13.4689 3.52131 13.7338 4.16085C13.9987 4.80039 14.068 5.50413 13.933 6.18306C13.7979 6.86199 13.4646 7.48563 12.9751 7.97512C12.4856 8.4646 11.862 8.79795 11.183 8.93299C10.5041 9.06804 9.80037 8.99873 9.16083 8.73382C8.52129 8.46892 7.97466 8.02031 7.59008 7.44474C7.20549 6.86917 7.00022 6.19248 7.00022 5.50024C7.00125 4.5723 7.37033 3.68266 8.02649 3.02651C8.68264 2.37036 9.57228 2.00128 10.5002 2.00024ZM4.00022 2.00024C4.39578 2.00024 4.78246 2.11754 5.11136 2.33731C5.44026 2.55707 5.69661 2.86943 5.84798 3.23488C5.99936 3.60033 6.03896 4.00246 5.96179 4.39043C5.88462 4.77839 5.69414 5.13475 5.41443 5.41446C5.13473 5.69416 4.77836 5.88464 4.3904 5.96182C4.00244 6.03899 3.60031 5.99938 3.23485 5.848C2.8694 5.69663 2.55704 5.44028 2.33728 5.11138C2.11752 4.78249 2.00022 4.39581 2.00022 4.00024C2.00082 3.46999 2.21172 2.96163 2.58667 2.58669C2.96161 2.21175 3.46997 2.00084 4.00022 2.00024ZM9.50022 14.0002C9.10466 14.0002 8.71798 13.8829 8.38908 13.6632C8.06018 13.4434 7.80384 13.1311 7.65246 12.7656C7.50109 12.4002 7.46148 11.998 7.53865 11.6101C7.61582 11.2221 7.8063 10.8657 8.08601 10.586C8.36571 10.3063 8.72208 10.1158 9.11004 10.0387C9.498 9.9615 9.90014 10.0011 10.2656 10.1525C10.631 10.3039 10.9434 10.5602 11.1632 10.8891C11.3829 11.218 11.5002 11.6047 11.5002 12.0002C11.4996 12.5305 11.2887 13.0389 10.9138 13.4138C10.5388 13.7887 10.0305 13.9997 9.50022 14.0002Z" fill="currentColor"/>
</svg>
