<svg viewBox="0 0 16 16" fill="none" xmlns="http://www.w3.org/2000/svg">
<rect width="16" height="16" fill="white" fill-opacity="0.01" style="mix-blend-mode:multiply"/>
<path d="M13 2.99989C12.5578 3.00124 12.1286 3.14923 11.7795 3.42067C11.4304 3.69211 11.1813 4.07167 11.071 4.49989H8.96522C8.87196 3.75745 8.57223 3.05608 8.10011 2.47555C7.62799 1.89503 7.00244 1.45863 6.2946 1.21601C5.58675 0.973388 4.82503 0.934271 4.09605 1.10311C3.36708 1.27195 2.70012 1.64196 2.17101 2.17108C1.64191 2.70019 1.27191 3.36716 1.10309 4.09614C0.934267 4.82512 0.973401 5.58684 1.21604 6.29468C1.45868 7.00252 1.89508 7.62807 2.47562 8.10017C3.05616 8.57228 3.75754 8.87199 4.49998 8.96524V11.0709C4.02865 11.1926 3.61788 11.4821 3.34467 11.8849C3.07147 12.2878 2.95458 12.7765 3.01592 13.2594C3.07725 13.7423 3.31261 14.1863 3.67786 14.5081C4.04311 14.8299 4.51319 15.0074 4.99998 15.0074C5.48676 15.0074 5.95684 14.8299 6.32209 14.5081C6.68734 14.1863 6.9227 13.7423 6.98403 13.2594C7.04537 12.7765 6.92848 12.2878 6.65528 11.8849C6.38207 11.4821 5.9713 11.1926 5.49997 11.0709V8.96524C6.21065 8.87586 6.88397 8.59613 7.44877 8.15564L9.28342 9.99064C9.09982 10.2954 9.00189 10.6441 8.99997 10.9999C8.99997 11.3954 9.11727 11.7821 9.33704 12.111C9.5568 12.4399 9.86916 12.6963 10.2346 12.8476C10.6001 12.999 11.0022 13.0386 11.3902 12.9615C11.7781 12.8843 12.1345 12.6938 12.4142 12.4141C12.6939 12.1344 12.8844 11.778 12.9615 11.3901C13.0387 11.0021 12.9991 10.6 12.8477 10.2345C12.6964 9.86907 12.44 9.55671 12.1111 9.33695C11.7822 9.11718 11.3955 8.99989 11 8.99989C10.6441 9.00174 10.2953 9.09967 9.99048 9.28334L8.15577 7.44864C8.59625 6.88385 8.87592 6.21054 8.96522 5.49989H11.071C11.1651 5.86124 11.3587 6.18895 11.6297 6.44582C11.9008 6.70268 12.2384 6.8784 12.6043 6.95301C12.9701 7.02763 13.3496 6.99815 13.6996 6.86793C14.0495 6.73771 14.356 6.51196 14.5841 6.21633C14.8122 5.92069 14.9528 5.56701 14.99 5.19546C15.0272 4.82391 14.9595 4.44937 14.7945 4.11439C14.6295 3.7794 14.3739 3.4974 14.0567 3.30039C13.7395 3.10338 13.3734 2.99927 13 2.99989ZM5.99997 12.9999C5.99997 13.1977 5.94133 13.391 5.83144 13.5555C5.72156 13.7199 5.56538 13.8481 5.38266 13.9238C5.19993 13.9995 4.99887 14.0193 4.80488 13.9807C4.6109 13.9421 4.43272 13.8468 4.29287 13.707C4.15302 13.5671 4.05778 13.389 4.01919 13.195C3.9806 13.001 4.00041 12.7999 4.0761 12.6172C4.15178 12.4345 4.27996 12.2783 4.44441 12.1684C4.60885 12.0585 4.80219 11.9999 4.99998 11.9999C5.2651 12.0002 5.51927 12.1056 5.70675 12.2931C5.89422 12.4806 5.99967 12.7348 5.99997 12.9999ZM4.99998 7.99989C4.40663 7.99989 3.82661 7.82394 3.33326 7.4943C2.83992 7.16465 2.4554 6.69612 2.22834 6.14794C2.00127 5.59976 1.94186 4.99656 2.05762 4.41462C2.17338 3.83267 2.4591 3.29812 2.87866 2.87857C3.29821 2.45901 3.83276 2.17329 4.4147 2.05753C4.99665 1.94177 5.59985 2.00118 6.14803 2.22825C6.6962 2.45531 7.16474 2.83983 7.49438 3.33318C7.82403 3.82652 7.99997 4.40654 7.99997 4.99989C7.9991 5.79527 7.68275 6.55782 7.12033 7.12024C6.55791 7.68266 5.79536 7.99901 4.99998 7.99989ZM12 10.9999C12 11.1977 11.9413 11.391 11.8314 11.5555C11.7216 11.7199 11.5654 11.8481 11.3827 11.9238C11.1999 11.9995 10.9989 12.0193 10.8049 11.9807C10.6109 11.9421 10.4327 11.8468 10.2929 11.707C10.153 11.5671 10.0578 11.389 10.0192 11.195C9.9806 11.001 10.0004 10.7999 10.0761 10.6172C10.1518 10.4345 10.28 10.2783 10.4444 10.1684C10.6089 10.0585 10.8022 9.99989 11 9.99989C11.2651 10.0002 11.5193 10.1056 11.7067 10.2931C11.8942 10.4806 11.9997 10.7348 12 10.9999ZM13 5.99989C12.8022 5.99989 12.6089 5.94124 12.4444 5.83136C12.28 5.72147 12.1518 5.5653 12.0761 5.38257C12.0004 5.19984 11.9806 4.99878 12.0192 4.8048C12.0578 4.61082 12.153 4.43263 12.2929 4.29278C12.4327 4.15293 12.6109 4.05769 12.8049 4.0191C12.9989 3.98052 13.1999 4.00032 13.3827 4.07601C13.5654 4.15169 13.7216 4.27987 13.8314 4.44432C13.9413 4.60877 14 4.80211 14 4.99989C13.9997 5.26501 13.8942 5.51919 13.7067 5.70666C13.5193 5.89413 13.2651 5.99958 13 5.99989Z" fill="currentColor"/>
</svg>
