<svg viewBox="0 0 16 17" fill="none" xmlns="http://www.w3.org/2000/svg">
<rect width="16" height="16" transform="translate(0 0.513672)" fill="white" fill-opacity="0.01" style="mix-blend-mode:multiply"/>
<path d="M8 10.0137C7.42247 10.0142 6.85381 9.87153 6.34487 9.59855C5.83593 9.32556 5.40256 8.93072 5.0835 8.44932L5.9165 7.89562C6.14459 8.23941 6.4542 8.52141 6.81774 8.71649C7.18127 8.91157 7.58743 9.01366 8 9.01366C8.41257 9.01366 8.81873 8.91157 9.18226 8.71649C9.5458 8.52141 9.85541 8.23941 10.0835 7.89562L10.9165 8.44932C10.5974 8.93072 10.1641 9.32556 9.65513 9.59855C9.14619 9.87153 8.57753 10.0142 8 10.0137Z" fill="currentColor"/>
<path d="M10 4.51367C9.80222 4.51367 9.60888 4.57232 9.44443 4.6822C9.27998 4.79208 9.15181 4.94826 9.07612 5.13099C9.00043 5.31371 8.98063 5.51478 9.01921 5.70876C9.0578 5.90274 9.15304 6.08093 9.29289 6.22078C9.43275 6.36063 9.61093 6.45587 9.80491 6.49446C9.99889 6.53304 10.2 6.51324 10.3827 6.43755C10.5654 6.36186 10.7216 6.23369 10.8315 6.06924C10.9414 5.90479 11 5.71145 11 5.51367C11.0013 5.38199 10.9763 5.25137 10.9265 5.12946C10.8767 5.00755 10.8031 4.89679 10.71 4.80368C10.6169 4.71056 10.5061 4.63695 10.3842 4.58715C10.2623 4.53736 10.1317 4.51238 10 4.51367Z" fill="currentColor"/>
<path d="M6 4.51367C5.80222 4.51367 5.60888 4.57232 5.44443 4.6822C5.27998 4.79208 5.15181 4.94826 5.07612 5.13099C5.00043 5.31371 4.98063 5.51478 5.01921 5.70876C5.0578 5.90274 5.15304 6.08093 5.29289 6.22078C5.43275 6.36063 5.61093 6.45587 5.80491 6.49446C5.99889 6.53304 6.19996 6.51324 6.38268 6.43755C6.56541 6.36186 6.72159 6.23369 6.83147 6.06924C6.94135 5.90479 7 5.71145 7 5.51367C7.0013 5.38199 6.97632 5.25137 6.92652 5.12946C6.87672 5.00755 6.80311 4.89679 6.71 4.80368C6.61688 4.71056 6.50612 4.63695 6.38421 4.58715C6.2623 4.53736 6.13168 4.51238 6 4.51367Z" fill="currentColor"/>
<path d="M8.8679 15.5137L8 15.0137L10 11.5137H13C13.1314 11.5139 13.2615 11.4882 13.3829 11.438C13.5044 11.3878 13.6147 11.3142 13.7076 11.2213C13.8005 11.1284 13.8742 11.018 13.9243 10.8966C13.9745 10.7752 14.0002 10.6451 14 10.5137V3.51367C14.0002 3.38229 13.9745 3.25215 13.9243 3.13072C13.8742 3.0093 13.8005 2.89897 13.7076 2.80607C13.6147 2.71316 13.5044 2.63951 13.3829 2.58934C13.2615 2.53916 13.1314 2.51345 13 2.51367H3C2.86862 2.51345 2.73848 2.53916 2.61705 2.58934C2.49563 2.63951 2.3853 2.71316 2.29239 2.80607C2.19949 2.89897 2.12584 3.0093 2.07566 3.13072C2.02549 3.25215 1.99978 3.38229 2 3.51367V10.5137C1.99978 10.6451 2.02549 10.7752 2.07566 10.8966C2.12584 11.018 2.19949 11.1284 2.29239 11.2213C2.3853 11.3142 2.49563 11.3878 2.61705 11.438C2.73848 11.4882 2.86862 11.5139 3 11.5137H7.5V12.5137H3C2.73734 12.5137 2.47725 12.462 2.23458 12.3615C1.99191 12.261 1.77141 12.1137 1.58568 11.928C1.39996 11.7423 1.25264 11.5218 1.15215 11.2791C1.05165 11.0364 0.999954 10.7763 1 10.5137V3.51367C0.999921 3.25101 1.0516 2.9909 1.15208 2.74821C1.25256 2.50553 1.39988 2.28502 1.58561 2.09928C1.77134 1.91355 1.99185 1.76623 2.23454 1.66575C2.47723 1.56527 2.73733 1.51359 3 1.51367H13C13.2627 1.51359 13.5228 1.56527 13.7655 1.66575C14.0081 1.76623 14.2287 1.91355 14.4144 2.09928C14.6001 2.28502 14.7474 2.50553 14.8479 2.74821C14.9484 2.9909 15.0001 3.25101 15 3.51367V10.5137C15 10.7763 14.9483 11.0364 14.8479 11.2791C14.7474 11.5218 14.6 11.7423 14.4143 11.928C14.2286 12.1137 14.0081 12.261 13.7654 12.3615C13.5227 12.462 13.2627 12.5137 13 12.5137H10.5823L8.8679 15.5137Z" fill="currentColor"/>
</svg>
