<svg viewBox="0 0 16 17" fill="none" xmlns="http://www.w3.org/2000/svg">
<rect width="16" height="16" transform="translate(0 0.513672)" fill="white" fill-opacity="0.01" style="mix-blend-mode:multiply"/>
<path d="M7.793 5.72067L9.583 7.51367L7.792 9.30717L8.5 10.0137L11 7.51367L8.5 5.01367L7.793 5.72067Z" fill="currentColor"/>
<path d="M10.293 5.72067L12.083 7.51367L10.292 9.30717L11 10.0137L13.5 7.51367L11 5.01367L10.293 5.72067Z" fill="currentColor"/>
<path d="M5 5.01367L5.7965 6.51367L7.5 6.72067L6.25 7.84717L6.5 9.51367L5 8.57617L3.5 9.51367L3.75 7.84717L2.5 6.72067L4.25 6.51367L5 5.01367Z" fill="currentColor"/>
<path d="M8.8679 15.5137L8 15.0137L10 11.5137H13C13.1314 11.5139 13.2615 11.4882 13.3829 11.438C13.5044 11.3878 13.6147 11.3142 13.7076 11.2213C13.8005 11.1284 13.8742 11.018 13.9243 10.8966C13.9745 10.7752 14.0002 10.6451 14 10.5137V4.51367C14.0002 4.38229 13.9745 4.25215 13.9243 4.13072C13.8742 4.0093 13.8005 3.89897 13.7076 3.80607C13.6147 3.71316 13.5044 3.63951 13.3829 3.58934C13.2615 3.53916 13.1314 3.51345 13 3.51367H3C2.86862 3.51345 2.73848 3.53916 2.61705 3.58934C2.49563 3.63951 2.3853 3.71316 2.29239 3.80607C2.19949 3.89897 2.12584 4.0093 2.07566 4.13072C2.02549 4.25215 1.99978 4.38229 2 4.51367V10.5137C1.99978 10.6451 2.02549 10.7752 2.07566 10.8966C2.12584 11.018 2.19949 11.1284 2.29239 11.2213C2.3853 11.3142 2.49563 11.3878 2.61705 11.438C2.73848 11.4882 2.86862 11.5139 3 11.5137H7.5V12.5137H3C2.73734 12.5137 2.47725 12.462 2.23458 12.3615C1.99191 12.261 1.77141 12.1137 1.58568 11.928C1.39996 11.7423 1.25264 11.5218 1.15215 11.2791C1.05165 11.0364 0.999954 10.7763 1 10.5137V4.51367C0.999921 4.25101 1.0516 3.9909 1.15208 3.74821C1.25256 3.50553 1.39988 3.28502 1.58561 3.09928C1.77134 2.91355 1.99185 2.76623 2.23454 2.66575C2.47723 2.56527 2.73733 2.51359 3 2.51367H13C13.2627 2.51359 13.5228 2.56527 13.7655 2.66575C14.0081 2.76623 14.2287 2.91355 14.4144 3.09928C14.6001 3.28502 14.7474 3.50553 14.8479 3.74821C14.9484 3.9909 15.0001 4.25101 15 4.51367V10.5137C15 10.7763 14.9483 11.0364 14.8479 11.2791C14.7474 11.5218 14.6 11.7423 14.4143 11.928C14.2286 12.1137 14.0081 12.261 13.7654 12.3615C13.5227 12.462 13.2627 12.5137 13 12.5137H10.5823L8.8679 15.5137Z" fill="currentColor"/>
</svg>
