<svg viewBox="0 0 16 16" fill="none" xmlns="http://www.w3.org/2000/svg">
<rect width="16" height="16" fill="white" fill-opacity="0.01" style="mix-blend-mode:multiply"/>
<path d="M15.0001 12.0001C15.0001 11.4068 14.8241 10.8267 14.4945 10.3334C14.1648 9.84004 13.6963 9.45552 13.1481 9.22846C12.6 9.0014 11.9968 8.94199 11.4148 9.05774C10.8329 9.1735 10.2983 9.45922 9.87876 9.87878C9.45921 10.2983 9.17348 10.8329 9.05773 11.4148C8.94197 11.9968 9.00138 12.6 9.22845 13.1482C9.45551 13.6963 9.84003 14.1649 10.3334 14.4945C10.8267 14.8242 11.4067 15.0001 12.0001 15.0001C12.7955 14.9992 13.558 14.6829 14.1204 14.1205C14.6829 13.558 14.9992 12.7955 15.0001 12.0001ZM14.0001 12.0001C13.9982 12.356 13.9003 12.7048 13.7166 13.0096L10.9906 10.2836C11.2954 10.0999 11.6442 10.002 12.0001 10.0001C12.5303 10.0007 13.0387 10.2116 13.4136 10.5865C13.7886 10.9615 13.9995 11.4698 14.0001 12.0001ZM10.0001 12.0001C10.0019 11.6442 10.0999 11.2954 10.2835 10.9906L13.0096 13.7167C12.7047 13.9003 12.356 13.9982 12.0001 14.0001C11.4698 13.9995 10.9615 13.7886 10.5865 13.4137C10.2116 13.0387 10.0007 12.5304 10.0001 12.0001Z" fill="currentColor"/>
<path d="M7.00008 1.0001C6.16693 0.995275 5.3419 1.16402 4.57755 1.49559C3.8132 1.82717 3.12628 2.31429 2.56055 2.92595C1.99482 3.53761 1.56268 4.26038 1.29165 5.04824C1.02063 5.8361 0.916661 6.67176 0.986371 7.50201C1.05608 8.33226 1.29794 9.13889 1.69655 9.87052C2.09515 10.6022 2.64177 11.2428 3.30157 11.7515C3.96137 12.2603 4.7199 12.626 5.52884 12.8255C6.33778 13.025 7.1794 13.0538 8.00008 12.9101V12.0001C8.00008 10.9392 8.42151 9.92182 9.17166 9.17167C9.9218 8.42153 10.9392 8.0001 12.0001 8.0001H12.9101C13.0613 7.13945 13.0217 6.2561 12.794 5.41245C12.5663 4.56881 12.1561 3.78547 11.5923 3.11778C11.0286 2.4501 10.3252 1.91436 9.53163 1.54844C8.73811 1.18251 7.8739 0.995322 7.00008 1.0001ZM6.00008 9.2955L4.00008 7.2955L4.79548 6.5001L6.00008 7.7047L8.70468 5.0001L9.50008 5.7955L6.00008 9.2955Z" fill="currentColor"/>
</svg>
