<svg viewBox="0 0 16 17" fill="none" xmlns="http://www.w3.org/2000/svg">
<rect width="16" height="16" transform="translate(0 0.513672)" fill="white" fill-opacity="0.01" style="mix-blend-mode:multiply"/>
<path d="M13 2.51367H3C2.73478 2.51367 2.48043 2.61903 2.29289 2.80657C2.10536 2.9941 2 3.24846 2 3.51367V13.5137C2 13.7789 2.10536 14.0332 2.29289 14.2208C2.48043 14.4083 2.73478 14.5137 3 14.5137H13C13.2652 14.5137 13.5196 14.4083 13.7071 14.2208C13.8946 14.0332 14 13.7789 14 13.5137V3.51367C14 3.24846 13.8946 2.9941 13.7071 2.80657C13.5196 2.61903 13.2652 2.51367 13 2.51367ZM3 13.5137V3.51367H13V13.5137H3Z" fill="currentColor"/>
<path d="M7 11.2637L4.5 8.78367L5.295 8.01367L7 9.68867L10.705 6.01367L11.5 6.80367L7 11.2637Z" fill="currentColor"/>
</svg>
