<svg viewBox="0 0 16 17" fill="none" xmlns="http://www.w3.org/2000/svg">
<rect width="16" height="16" transform="translate(0 0.513672)" fill="white" fill-opacity="0.01" style="mix-blend-mode:multiply"/>
<path d="M5.5 6.01367V11.0137H10.5V6.01367H5.5ZM9.5 10.0137H6.5V7.01367H9.5V10.0137Z" fill="currentColor"/>
<path d="M15 7.01367V6.01367H13V4.51367C13 4.24846 12.8946 3.9941 12.7071 3.80657C12.5196 3.61903 12.2652 3.51367 12 3.51367H10.5V1.51367H9.5V3.51367H6.5V1.51367H5.5V3.51367H4C3.73478 3.51367 3.48043 3.61903 3.29289 3.80657C3.10536 3.9941 3 4.24846 3 4.51367V6.01367H1V7.01367H3V10.0137H1V11.0137H3V12.5137C3 12.7789 3.10536 13.0332 3.29289 13.2208C3.48043 13.4083 3.73478 13.5137 4 13.5137H5.5V15.5137H6.5V13.5137H9.5V15.5137H10.5V13.5137H12C12.2652 13.5137 12.5196 13.4083 12.7071 13.2208C12.8946 13.0332 13 12.7789 13 12.5137V11.0137H15V10.0137H13V7.01367H15ZM12 12.5137H4V4.51367H12V12.5137Z" fill="currentColor"/>
</svg>
