<svg viewBox="0 0 16 17" fill="none" xmlns="http://www.w3.org/2000/svg">
<rect width="16" height="16" transform="translate(0 0.513672)" fill="white" fill-opacity="0.01" style="mix-blend-mode:multiply"/>
<path d="M4 9.81367V9.01367H3V9.81367C2.9989 10.2999 3.09385 10.7815 3.2794 11.2309C3.46496 11.6803 3.73745 12.0886 4.08125 12.4324C4.42505 12.7762 4.83337 13.0487 5.28277 13.2343C5.73217 13.4198 6.2138 13.5148 6.7 13.5137H7.5V12.5137H6.7C6.34501 12.5152 5.99325 12.4463 5.665 12.3112C5.33675 12.176 5.03851 11.9772 4.78749 11.7262C4.53648 11.4752 4.33765 11.1769 4.20249 10.8487C4.06733 10.5204 3.99851 10.1687 4 9.81367Z" fill="currentColor"/>
<path d="M14 9.51367H10C9.73502 9.51445 9.48112 9.62006 9.29375 9.80742C9.10638 9.99479 9.00078 10.2487 9 10.5137V14.5137C9.00078 14.7786 9.10638 15.0326 9.29375 15.2199C9.48112 15.4073 9.73502 15.5129 10 15.5137H14C14.265 15.5129 14.5189 15.4073 14.7062 15.2199C14.8936 15.0326 14.9992 14.7786 15 14.5137V10.5137C14.9992 10.2487 14.8936 9.99479 14.7062 9.80742C14.5189 9.62006 14.265 9.51445 14 9.51367ZM10 14.5137V10.5137H14V14.5137H10Z" fill="currentColor"/>
<path d="M12 7.21367V8.01367H13V7.21367C13.0011 6.72747 12.9061 6.24584 12.7206 5.79644C12.535 5.34704 12.2625 4.93872 11.9187 4.59492C11.575 4.25113 11.1666 3.97863 10.7172 3.79308C10.2678 3.60752 9.7862 3.51257 9.3 3.51367H8.5V4.51367H9.3C9.65499 4.51218 10.0068 4.58101 10.335 4.71617C10.6633 4.85133 10.9615 5.05015 11.2125 5.30117C11.4635 5.55218 11.6623 5.85042 11.7975 6.17867C11.9327 6.50692 12.0015 6.85869 12 7.21367Z" fill="currentColor"/>
<path d="M6 1.51367H2C1.73502 1.51445 1.48112 1.62006 1.29375 1.80742C1.10638 1.99479 1.00078 2.24869 1 2.51367V6.51367C1.00078 6.77865 1.10638 7.03255 1.29375 7.21992C1.48112 7.40729 1.73502 7.51289 2 7.51367H6C6.26498 7.51289 6.51888 7.40729 6.70625 7.21992C6.89361 7.03255 6.99922 6.77865 7 6.51367V2.51367C6.99922 2.24869 6.89361 1.99479 6.70625 1.80742C6.51888 1.62006 6.26498 1.51445 6 1.51367ZM2 6.51367V2.51367H6V6.51367H2Z" fill="currentColor"/>
</svg>
