<svg viewBox="0 0 16 17" fill="none" xmlns="http://www.w3.org/2000/svg">
<rect width="16" height="16" transform="translate(0 0.513672)" fill="white" fill-opacity="0.01" style="mix-blend-mode:multiply"/>
<path d="M15.1669 15.5137H13.0001V14.5137H15.0001V13.5137H14.0001C13.735 13.5134 13.4808 13.408 13.2933 13.2205C13.1058 13.033 13.0004 12.7788 13.0001 12.5137V11.3469C13.0004 11.126 13.0882 10.9142 13.2445 10.758C13.4007 10.6018 13.6125 10.5139 13.8334 10.5137H16.0001V11.5137H14.0001V12.5137H15.0001C15.2653 12.5139 15.5195 12.6194 15.7069 12.8069C15.8944 12.9943 15.9999 13.2485 16.0001 13.5137V14.6804C15.9999 14.9013 15.912 15.1131 15.7558 15.2693C15.5996 15.4256 15.3878 15.5134 15.1669 15.5137Z" fill="currentColor"/>
<path d="M11.1669 10.5137H9.83338C9.61239 10.5137 9.40045 10.6015 9.24418 10.7577C9.08792 10.914 9.00013 11.1259 9.00013 11.3469V15.5137H10.0001V13.5137H11.0001V15.5137H12.0001V11.3469C12.0001 11.1259 11.9123 10.914 11.7561 10.7577C11.5998 10.6015 11.3879 10.5137 11.1669 10.5137ZM10.0001 12.5137V11.5137H11.0001V12.5137H10.0001Z" fill="currentColor"/>
<path d="M6.25013 12.5137L5.50013 10.5137H4.50013V15.5137H5.50013V12.0137L6.25013 14.0137L7.00013 12.0137V15.5137H8.00013V10.5137H7.00013L6.25013 12.5137Z" fill="currentColor"/>
<path d="M0.500129 11.5137V14.7637C0.498276 14.8627 0.516409 14.961 0.553445 15.0529C0.59048 15.1447 0.645655 15.2281 0.715672 15.2981C0.785688 15.3681 0.869107 15.4233 0.960939 15.4604C1.05277 15.4974 1.15113 15.5155 1.25013 15.5137H3.50013V14.5137H1.50013V11.5137H3.50013V10.5137H1.50013C1.23515 10.5145 0.98125 10.6201 0.793882 10.8074C0.606514 10.9948 0.500907 11.2487 0.500129 11.5137Z" fill="currentColor"/>
<path d="M6.50013 4.51367H5.50013V6.01367H4.00013V7.01367H5.50013V8.51367H6.50013V7.01367H8.00013V6.01367H6.50013V4.51367Z" fill="currentColor"/>
<path d="M3.00013 3.51367H13.0001V9.51367H14.0001V3.51367C13.9994 3.24869 13.8937 2.99479 13.7064 2.80742C13.519 2.62006 13.2651 2.51445 13.0001 2.51367H3.00013C2.73515 2.51445 2.48125 2.62006 2.29388 2.80742C2.10651 2.99479 2.00091 3.24869 2.00013 3.51367V9.51367H3.00013V3.51367Z" fill="currentColor"/>
</svg>
