<svg viewBox="0 0 16 17" fill="none" xmlns="http://www.w3.org/2000/svg">
<rect width="16" height="16" transform="translate(0 0.513672)" fill="white" fill-opacity="0.01" style="mix-blend-mode:multiply"/>
<path d="M11 11.5137H12V14.5137H11V15.5137H14V14.5137H13V11.5137H14V10.5137H11V11.5137Z" fill="currentColor"/>
<path d="M9 14.5137H8V10.5137H7V14.8137C7.0069 15.0059 7.08972 15.1875 7.23031 15.3187C7.3709 15.4499 7.55779 15.52 7.75 15.5137H9.25C9.44221 15.52 9.6291 15.4499 9.76969 15.3187C9.91028 15.1875 9.9931 15.0059 10 14.8137V10.5137H9V14.5137Z" fill="currentColor"/>
<path d="M5.1 10.5137L5 14.7637L4.5 11.5137H3.5L3 14.7637L2.9 10.5137H2L2.36 15.5137H3.5L4 12.2637L4.5 15.5137H5.64L6 10.5137H5.1Z" fill="currentColor"/>
<path d="M8 6.01367H6.5V4.51367H5.5V6.01367H4V7.01367H5.5V8.51367H6.5V7.01367H8V6.01367Z" fill="currentColor"/>
<path d="M13 2.51367H3C2.73502 2.51445 2.48112 2.62006 2.29375 2.80742C2.10638 2.99479 2.00078 3.24869 2 3.51367V9.51367H3V3.51367H13V9.51367H14V3.51367C13.9992 3.24869 13.8936 2.99479 13.7062 2.80742C13.5189 2.62006 13.265 2.51445 13 2.51367Z" fill="currentColor"/>
</svg>
