<svg viewBox="0 0 16 17" fill="none" xmlns="http://www.w3.org/2000/svg">
<rect width="16" height="16" transform="translate(0 0.513672)" fill="white" fill-opacity="0.01" style="mix-blend-mode:multiply"/>
<path d="M12 8.51368L9.7 7.81368L10.85 5.66368L8.7 6.81368L8 4.51367L7.3 6.81368L5.15 5.66368L6.3 7.81368L4 8.51368L6.3 9.21368L5.15 11.3637L7.3 10.2137L8 12.5137L8.7 10.2137L10.85 11.3637L9.7 9.21368L12 8.51368Z" fill="currentColor"/>
<path d="M8 15.5137C6.61553 15.5137 5.26215 15.1031 4.11101 14.334C2.95987 13.5648 2.06266 12.4715 1.53285 11.1925C1.00303 9.91338 0.86441 8.50591 1.13451 7.14804C1.4046 5.79018 2.07129 4.54289 3.05026 3.56393C4.02922 2.58496 5.2765 1.91827 6.63437 1.64818C7.99224 1.37808 9.3997 1.5167 10.6788 2.04652C11.9579 2.57633 13.0511 3.47354 13.8203 4.62468C14.5895 5.77583 15 7.12921 15 8.51367C14.9979 10.3695 14.2597 12.1488 12.9474 13.4611C11.6351 14.7734 9.85588 15.5116 8 15.5137ZM8 2.51368C6.81332 2.51368 5.65328 2.86557 4.66658 3.52486C3.67989 4.18415 2.91085 5.12122 2.45673 6.21757C2.0026 7.31393 1.88378 8.52033 2.11529 9.68422C2.3468 10.8481 2.91825 11.9172 3.75736 12.7563C4.59648 13.5954 5.66558 14.1669 6.82946 14.3984C7.99335 14.6299 9.19975 14.5111 10.2961 14.057C11.3925 13.6028 12.3295 12.8338 12.9888 11.8471C13.6481 10.8604 14 9.70036 14 8.51367C13.9982 6.92293 13.3655 5.39786 12.2406 4.27304C11.1158 3.14821 9.59075 2.51549 8 2.51368Z" fill="currentColor"/>
</svg>
