<svg viewBox="0 0 16 16" fill="none" xmlns="http://www.w3.org/2000/svg">
<rect width="16" height="16" fill="white" fill-opacity="0.01" style="mix-blend-mode:multiply"/>
<path d="M15 4.99966V0.999656H11V4.99966H12.5V6.99966H11.5V7.99966H15V6.99966H13.5V4.99966H15ZM12 1.99966H14V3.99966H12V1.99966Z" fill="currentColor"/>
<path d="M10 11.7047L9.295 10.9997L8 12.2947L6.705 10.9997L6 11.7047L7.295 12.9997L6 14.2947L6.705 14.9997L8 13.7047L9.295 14.9997L10 14.2947L8.705 12.9997L10 11.7047Z" fill="currentColor"/>
<path d="M10 6.99966H6V7.99966H7.5V10.4997H8.5V7.99966H10V6.99966Z" fill="currentColor"/>
<path d="M3.5 4.92966C3.97133 4.80796 4.3821 4.51854 4.65531 4.11565C4.92851 3.71276 5.0454 3.22406 4.98406 2.74116C4.92273 2.25825 4.68737 1.81429 4.32212 1.49249C3.95687 1.1707 3.48679 0.993164 3 0.993164C2.51322 0.993164 2.04314 1.1707 1.67789 1.49249C1.31264 1.81429 1.07728 2.25825 1.01595 2.74116C0.954608 3.22406 1.0715 3.71276 1.3447 4.11565C1.61791 4.51854 2.02868 4.80796 2.5 4.92966V6.99966H1V7.99966H4.5V6.99966H3.5V4.92966ZM2 2.99966C2 2.80187 2.05865 2.60853 2.16854 2.44409C2.27842 2.27964 2.4346 2.15146 2.61732 2.07578C2.80005 2.00009 3.00111 1.98029 3.1951 2.01887C3.38908 2.05746 3.56726 2.1527 3.70711 2.29255C3.84696 2.4324 3.9422 2.61058 3.98079 2.80457C4.01938 2.99855 3.99957 3.19961 3.92388 3.38234C3.8482 3.56507 3.72002 3.72124 3.55557 3.83113C3.39113 3.94101 3.19779 3.99966 3 3.99966C2.73479 3.99966 2.48043 3.8943 2.2929 3.70676C2.10536 3.51923 2 3.26487 2 2.99966Z" fill="currentColor"/>
</svg>
