<svg viewBox="0 0 16 17" fill="none" xmlns="http://www.w3.org/2000/svg">
<rect width="16" height="16" transform="translate(0 0.513672)" fill="white" fill-opacity="0.01" style="mix-blend-mode:multiply"/>
<path d="M15.0002 8.26372C14.9967 7.51589 14.7366 6.79193 14.2634 6.2128C13.7903 5.63367 13.1327 5.23444 12.4006 5.08182C12.1876 4.07268 11.6341 3.16744 10.833 2.51781C10.0319 1.86819 9.03188 1.51367 8.00049 1.51367C6.9691 1.51367 5.96905 1.86819 5.16795 2.51781C4.36686 3.16744 3.8134 4.07268 3.60034 5.08182C2.86815 5.23434 2.21049 5.63352 1.73726 6.21267C1.26402 6.79181 1.00389 7.51583 1.00034 8.26372C1.00069 9.06865 1.30184 9.8444 1.84469 10.4387C1.4348 10.8611 1.15862 11.395 1.05071 11.9736C0.942801 12.5522 1.00796 13.1497 1.23804 13.6914C1.46812 14.2332 1.85288 14.695 2.34417 15.0191C2.83546 15.3432 3.41143 15.5152 3.99999 15.5135H9.49999C9.98503 15.5154 10.4633 15.3992 10.8934 15.175C11.3234 14.9507 11.6925 14.6251 11.9686 14.2263C12.2447 13.8275 12.4196 13.3675 12.4782 12.886C12.5367 12.4045 12.4772 11.916 12.3047 11.4627C13.0585 11.3317 13.742 10.9391 14.235 10.354C14.728 9.76895 14.9989 9.02881 15.0002 8.26372ZM9.49999 14.5135H3.99999C3.49909 14.5145 3.01613 14.3271 2.64693 13.9886C2.27772 13.6501 2.04927 13.1852 2.0069 12.6861C1.96454 12.187 2.11135 11.6902 2.41821 11.2943C2.72507 10.8984 3.16954 10.6323 3.66344 10.5489L3.99499 10.4925L4.06789 10.1644C4.2037 9.55423 4.54347 9.00863 5.03112 8.61759C5.51877 8.22655 6.12517 8.01345 6.75024 8.01345C7.37531 8.01345 7.98171 8.22655 8.46936 8.61759C8.95701 9.00863 9.29678 9.55423 9.43259 10.1644L9.50549 10.4925L9.83679 10.5489C10.3307 10.6323 10.7752 10.8984 11.0821 11.2943C11.3889 11.6903 11.5357 12.1871 11.4933 12.6862C11.4509 13.1853 11.2224 13.6503 10.8532 13.9888C10.4839 14.3272 10.0009 14.5145 9.49999 14.5135ZM11.75 10.5135H11.7223C11.3484 10.0948 10.8638 9.79042 10.3243 9.63527C10.0849 8.87482 9.60919 8.21054 8.96634 7.73898C8.32349 7.26742 7.547 7.01317 6.74974 7.01317C5.95248 7.01317 5.176 7.26742 4.53314 7.73898C3.89029 8.21054 3.41458 8.87482 3.17514 9.63527C2.99729 9.68706 2.82464 9.75523 2.65939 9.83892C2.45104 9.63281 2.28552 9.38753 2.17235 9.11719C2.05918 8.84685 2.00061 8.55679 1.99999 8.26372C2.00258 7.6988 2.21678 7.15535 2.60035 6.74059C2.98391 6.32583 3.50899 6.06988 4.07199 6.02322L4.47974 5.99127L4.52929 5.58527C4.63311 4.73781 5.04339 3.95762 5.68277 3.39179C6.32215 2.82596 7.14644 2.5136 8.00024 2.5136C8.85404 2.5136 9.67833 2.82596 10.3177 3.39179C10.9571 3.95762 11.3674 4.73781 11.4712 5.58527L11.5205 5.99127L11.9282 6.02322C12.5075 6.06904 13.0466 6.33734 13.4324 6.77189C13.8183 7.20643 14.0209 7.77348 13.9979 8.35414C13.9748 8.93481 13.7279 9.48401 13.3088 9.88661C12.8898 10.2892 12.3311 10.5137 11.75 10.5135Z" fill="currentColor"/>
</svg>
