<svg viewBox="0 0 16 16" fill="none" xmlns="http://www.w3.org/2000/svg">
<rect width="16" height="16" fill="white" fill-opacity="0.01" style="mix-blend-mode:multiply"/>
<path d="M14 8.00005V11.0001H2V3.00005H5.5V2.00005H2C1.73478 2.00005 1.48043 2.10541 1.29289 2.29295C1.10536 2.48048 1 2.73484 1 3.00005V11.0001C1 11.2653 1.10536 11.5196 1.29289 11.7072C1.48043 11.8947 1.73478 12.0001 2 12.0001H6V14.0001H4V15.0001H12V14.0001H10V12.0001H14C14.2652 12.0001 14.5196 11.8947 14.7071 11.7072C14.8946 11.5196 15 11.2653 15 11.0001V8.00005H14ZM9 14.0001H7V12.0001H9V14.0001Z" fill="currentColor"/>
<path d="M9 9.00005H8.995C8.88724 8.99893 8.78272 8.96302 8.69703 8.89767C8.61134 8.83232 8.54905 8.74103 8.51945 8.6374L7.6228 5.50005H5.5V4.50005H8C8.10865 4.50005 8.21434 4.53544 8.30108 4.60087C8.38782 4.66629 8.45089 4.75819 8.48075 4.86265L9.01785 6.7421L10.5223 1.85295C10.5547 1.75137 10.6183 1.66259 10.7041 1.59924C10.7898 1.53588 10.8934 1.50118 11 1.50005C11.1053 1.4985 11.2083 1.53091 11.2938 1.59249C11.3792 1.65408 11.4425 1.74155 11.4743 1.84195L12.3603 4.50005H15V5.50005H12C11.8951 5.50005 11.7928 5.46703 11.7076 5.40567C11.6225 5.34431 11.5588 5.25771 11.5257 5.15815L11.019 3.63815L9.4778 8.64715C9.44635 8.74933 9.38298 8.83873 9.29698 8.90225C9.21099 8.96576 9.10691 9.00004 9 9.00005Z" fill="currentColor"/>
</svg>
