<svg viewBox="0 0 16 16" fill="none" xmlns="http://www.w3.org/2000/svg">
<g clip-path="url(#clip0_1961_6411)">
<rect width="16" height="16" fill="white" fill-opacity="0.01" style="mix-blend-mode:multiply"/>
<path d="M14.5 13C14.1622 13.0014 13.8351 13.118 13.5724 13.3304L12.5 12.7112V11.9079C12.8336 11.7899 13.1148 11.5578 13.2938 11.2526C13.4729 10.9474 13.5382 10.5888 13.4784 10.24C13.4186 9.89125 13.2374 9.57489 12.9668 9.34682C12.6963 9.11874 12.3538 8.99366 12 8.99366C11.6462 8.99366 11.3037 9.11874 11.0332 9.34682C10.7626 9.57489 10.5814 9.89125 10.5216 10.24C10.4618 10.5888 10.5271 10.9474 10.7062 11.2526C10.8852 11.5578 11.1664 11.7899 11.5 11.9079V12.7112L10.4276 13.3304C10.1649 13.118 9.83775 13.0014 9.5 13C9.18659 12.998 8.8803 13.0935 8.62361 13.2733C8.36692 13.4531 8.17255 13.7084 8.06746 14.0037C7.96236 14.2989 7.95175 14.6196 8.0371 14.9212C8.12245 15.2227 8.29952 15.4903 8.54376 15.6867C8.78801 15.8831 9.08731 15.9987 9.40018 16.0173C9.71304 16.036 10.024 15.9568 10.2898 15.7908C10.5557 15.6248 10.7633 15.3802 10.8838 15.0909C11.0044 14.8016 11.032 14.4819 10.9627 14.1763L12 13.5774L13.0373 14.1763C12.9705 14.4794 12.9994 14.7957 13.1201 15.0817C13.2407 15.3676 13.4472 15.609 13.7109 15.7726C13.9747 15.9363 14.2827 16.014 14.5925 15.995C14.9022 15.9761 15.1985 15.8615 15.4404 15.667C15.6822 15.4725 15.8578 15.2077 15.9427 14.9092C16.0277 14.6107 16.0179 14.2932 15.9147 14.0005C15.8115 13.7078 15.6199 13.4543 15.3665 13.2751C15.1131 13.0959 14.8104 12.9998 14.5 13ZM9.5 15C9.40111 15 9.30444 14.9707 9.22221 14.9158C9.13999 14.8608 9.0759 14.7827 9.03806 14.6914C9.00022 14.6 8.99031 14.4995 9.00961 14.4025C9.0289 14.3055 9.07652 14.2164 9.14645 14.1465C9.21637 14.0765 9.30546 14.0289 9.40245 14.0096C9.49944 13.9903 9.59998 14.0002 9.69134 14.0381C9.7827 14.0759 9.86079 14.14 9.91574 14.2222C9.97068 14.3045 10 14.4011 10 14.5C9.99992 14.6326 9.94722 14.7597 9.85347 14.8535C9.75972 14.9472 9.63258 14.9999 9.5 15ZM12 10C12.0989 10 12.1956 10.0293 12.2778 10.0843C12.36 10.1392 12.4241 10.2173 12.4619 10.3087C12.4998 10.4 12.5097 10.5006 12.4904 10.5976C12.4711 10.6946 12.4235 10.7836 12.3536 10.8536C12.2836 10.9235 12.1945 10.9711 12.0975 10.9904C12.0006 11.0097 11.9 10.9998 11.8087 10.962C11.7173 10.9241 11.6392 10.86 11.5843 10.7778C11.5293 10.6956 11.5 10.5989 11.5 10.5C11.5001 10.3674 11.5528 10.2403 11.6466 10.1466C11.7403 10.0529 11.8674 10.0001 12 10ZM14.5 15C14.4011 15 14.3044 14.9707 14.2222 14.9158C14.14 14.8608 14.0759 14.7827 14.0381 14.6914C14.0002 14.6 13.9903 14.4995 14.0096 14.4025C14.0289 14.3055 14.0765 14.2164 14.1464 14.1465C14.2164 14.0765 14.3055 14.0289 14.4025 14.0096C14.4994 13.9903 14.6 14.0002 14.6913 14.0381C14.7827 14.0759 14.8608 14.14 14.9157 14.2222C14.9707 14.3045 15 14.4011 15 14.5C14.9999 14.6326 14.9472 14.7597 14.8535 14.8535C14.7597 14.9472 14.6326 14.9999 14.5 15Z" fill="currentColor"/>
<path d="M3.5 11C4.05228 11 4.5 10.5523 4.5 10C4.5 9.44773 4.05228 9.00002 3.5 9.00002C2.94772 9.00002 2.5 9.44773 2.5 10C2.5 10.5523 2.94772 11 3.5 11Z" fill="currentColor"/>
<path d="M7 10C6.60444 10 6.21776 9.88272 5.88886 9.66296C5.55996 9.4432 5.30362 9.13084 5.15224 8.76539C5.00087 8.39993 4.96126 7.9978 5.03843 7.60984C5.1156 7.22188 5.30608 6.86551 5.58579 6.58581C5.86549 6.3061 6.22186 6.11562 6.60982 6.03845C6.99778 5.96128 7.39992 6.00088 7.76537 6.15226C8.13082 6.30364 8.44318 6.55998 8.66294 6.88888C8.8827 7.21778 9 7.60446 9 8.00002C8.99844 8.52997 8.78723 9.03778 8.41249 9.41251C8.03776 9.78725 7.52995 9.99846 7 10ZM7 7.00002C6.80222 7.00002 6.60888 7.05867 6.44443 7.16855C6.27998 7.27843 6.15181 7.43461 6.07612 7.61734C6.00043 7.80006 5.98063 8.00113 6.01921 8.19511C6.0578 8.38909 6.15304 8.56727 6.29289 8.70713C6.43275 8.84698 6.61093 8.94222 6.80491 8.9808C6.99889 9.01939 7.19996 8.99959 7.38268 8.9239C7.56541 8.84821 7.72159 8.72004 7.83147 8.55559C7.94135 8.39114 8 8.1978 8 8.00002C7.99922 7.73504 7.89362 7.48114 7.70625 7.29377C7.51888 7.1064 7.26498 7.0008 7 7.00002Z" fill="currentColor"/>
<path d="M10.5 7.00002C11.0523 7.00002 11.5 6.5523 11.5 6.00002C11.5 5.44773 11.0523 5.00002 10.5 5.00002C9.94772 5.00002 9.5 5.44773 9.5 6.00002C9.5 6.5523 9.94772 7.00002 10.5 7.00002Z" fill="currentColor"/>
<path d="M6.51025 14.1358L1.5 11.2129V4.78712L7 1.57887L12.748 4.93192L13.252 4.06812L7.25195 0.568119C7.17548 0.523507 7.08853 0.5 7 0.5C6.91147 0.5 6.82452 0.523507 6.74805 0.568119L0.74805 4.06812C0.672546 4.11213 0.609906 4.17518 0.56638 4.25096C0.522855 4.32675 0.499967 4.41262 0.5 4.50002V11.5C0.499993 11.5874 0.52289 11.6733 0.566411 11.7492C0.609932 11.825 0.672557 11.8881 0.74805 11.9322L6.00635 15L6.51025 14.1358Z" fill="currentColor"/>
</g>
<defs>
<clipPath id="clip0_1961_6411">
<rect width="16" height="16" fill="white"/>
</clipPath>
</defs>
</svg>
