<svg viewBox="0 0 16 17" fill="none" xmlns="http://www.w3.org/2000/svg">
<rect width="16" height="16" transform="translate(0 0.513672)" fill="white" fill-opacity="0.01" style="mix-blend-mode:multiply"/>
<path d="M14 9.01367V11.5137H2V3.51367H7V2.51367H2C1.73478 2.51367 1.48043 2.61903 1.29289 2.80657C1.10536 2.9941 1 3.24846 1 3.51367V11.5137C1 11.7789 1.10536 12.0332 1.29289 12.2208C1.48043 12.4083 1.73478 12.5137 2 12.5137H6V14.5137H4V15.5137H12V14.5137H10V12.5137H14C14.2652 12.5137 14.5196 12.4083 14.7071 12.2208C14.8946 12.0332 15 11.7789 15 11.5137V9.01367H14ZM9 14.5137H7V12.5137H9V14.5137Z" fill="currentColor"/>
<path d="M15 5.51367V4.51367H13.9494C13.885 4.2007 13.7607 3.90311 13.5835 3.63722L14.3285 2.89222L13.6215 2.18522L12.8765 2.93022C12.6106 2.75298 12.313 2.6287 12 2.56422V1.51367H11V2.56422C10.687 2.62869 10.3894 2.75295 10.1236 2.93017L9.37855 2.18517L8.67155 2.89217L9.41655 3.63717C9.2393 3.90307 9.11503 4.20068 9.05055 4.51367H8V5.51367H9.05055C9.11502 5.82664 9.23928 6.12423 9.4165 6.39012L8.6715 7.13512L9.3785 7.84212L10.1235 7.09712C10.3894 7.27437 10.687 7.39864 11 7.46312V8.51367H12V7.46312C12.313 7.39865 12.6106 7.27439 12.8764 7.09717L13.6215 7.84217L14.3285 7.13517L13.5835 6.39017C13.7607 6.12427 13.885 5.82666 13.9494 5.51367H15ZM11.5 6.51367C11.2033 6.51367 10.9133 6.4257 10.6666 6.26088C10.42 6.09605 10.2277 5.86179 10.1142 5.5877C10.0006 5.31361 9.97094 5.01201 10.0288 4.72104C10.0867 4.43006 10.2296 4.16279 10.4393 3.95301C10.6491 3.74323 10.9164 3.60037 11.2074 3.54249C11.4983 3.48462 11.7999 3.51432 12.074 3.62785C12.3481 3.74138 12.5824 3.93364 12.7472 4.18032C12.912 4.42699 13 4.717 13 5.01367C12.9996 5.41136 12.8414 5.79264 12.5602 6.07385C12.279 6.35506 11.8977 6.51324 11.5 6.51367Z" fill="currentColor"/>
</svg>
