<svg viewBox="0 0 16 17" fill="none" xmlns="http://www.w3.org/2000/svg">
<g clip-path="url(#clip0_1961_10496)">
<rect width="16" height="16" transform="translate(0 0.513672)" fill="white" fill-opacity="0.01" style="mix-blend-mode:multiply"/>
<path d="M12.9109 5.57577C12.6928 4.4331 12.083 3.40226 11.1866 2.6608C10.2902 1.91934 9.16332 1.51367 8.00001 1.51367C6.8367 1.51367 5.70981 1.91934 4.81342 2.6608C3.91703 3.40226 3.30726 4.4331 3.08914 5.57577C2.16677 5.74053 1.33955 6.24477 0.770491 6.98913C0.20143 7.73349 -0.0682061 8.664 0.0147147 9.59729C0.0976356 10.5306 0.527099 11.399 1.21848 12.0313C1.90986 12.6637 2.81302 13.0142 3.74999 13.0138H3.99999V12.0138H3.74999C3.03718 12.0142 2.35208 11.7377 1.83932 11.2425C1.32656 10.7474 1.02626 10.0724 1.0018 9.36C0.977349 8.64762 1.23066 7.9536 1.70826 7.42446C2.18586 6.89531 2.85038 6.57245 3.56154 6.52402L3.97974 6.49547L4.02474 6.07872C4.13169 5.09911 4.59659 4.19348 5.33024 3.53558C6.06389 2.87767 7.01463 2.51382 8.00006 2.51382C8.9855 2.51382 9.93623 2.87767 10.6699 3.53558C11.4035 4.19348 11.8684 5.09911 11.9754 6.07872L12.0204 6.49547L12.4386 6.52402C13.1498 6.57245 13.8143 6.89533 14.2919 7.42448C14.7695 7.95364 15.0228 8.64768 14.9983 9.36008C14.9738 10.0725 14.6735 10.7475 14.1607 11.2426C13.6479 11.7378 12.9628 12.0143 12.25 12.0138H12V13.0138H12.25C13.187 13.0142 14.0901 12.6637 14.7815 12.0314C15.4729 11.399 15.9024 10.5306 15.9853 9.59731C16.0682 8.66402 15.7986 7.73351 15.2295 6.98914C14.6605 6.24477 13.8333 5.74053 12.9109 5.57577Z" fill="currentColor"/>
<path d="M11.5 11.5138V10.5138H10.4494C10.385 10.2008 10.2607 9.90322 10.0835 9.63733L10.8285 8.89232L10.1215 8.18532L9.37649 8.93032C9.11058 8.75308 8.81298 8.62881 8.49999 8.56433V7.51377H7.49999V8.56433C7.18702 8.6288 6.88943 8.75305 6.62354 8.93027L5.87854 8.18528L5.17154 8.89227L5.91654 9.63727C5.73929 9.90318 5.61502 10.2008 5.55054 10.5138H4.49999V11.5138H5.55054C5.61501 11.8267 5.73926 12.1243 5.91649 12.3902L5.17149 13.1352L5.87849 13.8422L6.62349 13.0972C6.88939 13.2745 7.187 13.3987 7.49999 13.4632V14.5138H8.49999V13.4632C8.81295 13.3988 9.11054 13.2745 9.37644 13.0973L10.1214 13.8423L10.8284 13.1353L10.0834 12.3903C10.2607 12.1244 10.385 11.8268 10.4494 11.5138H11.5ZM7.99999 12.5138C7.70331 12.5138 7.4133 12.4258 7.16663 12.261C6.91996 12.0962 6.7277 11.8619 6.61417 11.5878C6.50063 11.3137 6.47093 11.0121 6.52881 10.7211C6.58669 10.4302 6.72955 10.1629 6.93933 9.95311C7.1491 9.74334 7.41638 9.60047 7.70735 9.5426C7.99832 9.48472 8.29992 9.51442 8.57401 9.62796C8.8481 9.74149 9.08237 9.93375 9.24719 10.1804C9.41201 10.4271 9.49999 10.7171 9.49999 11.0138C9.49955 11.4115 9.34137 11.7927 9.06016 12.074C8.77895 12.3552 8.39768 12.5133 7.99999 12.5138Z" fill="currentColor"/>
</g>
<defs>
<clipPath id="clip0_1961_10496">
<rect width="16" height="16" fill="white" transform="translate(0 0.513672)"/>
</clipPath>
</defs>
</svg>
