<svg viewBox="0 0 16 17" fill="none" xmlns="http://www.w3.org/2000/svg">
<rect width="16" height="16" transform="translate(0 0.513672)" fill="white" fill-opacity="0.01" style="mix-blend-mode:multiply"/>
<path d="M14 9.0138V11.5138H2V3.5138H7.5V2.5138H2C1.73478 2.5138 1.48043 2.61915 1.29289 2.80669C1.10536 2.99423 1 3.24858 1 3.5138V11.5138C1 11.779 1.10536 12.0334 1.29289 12.2209C1.48043 12.4084 1.73478 12.5138 2 12.5138H6V14.5138H4V15.5138H12V14.5138H10V12.5138H14C14.2652 12.5138 14.5196 12.4084 14.7071 12.2209C14.8946 12.0334 15 11.779 15 11.5138V9.0138H14ZM9 14.5138H7V12.5138H9V14.5138Z" fill="currentColor"/>
<path d="M14.5 7.5138H8.5C8.41153 7.51378 8.32465 7.4903 8.24822 7.44573C8.17179 7.40117 8.10856 7.33713 8.06497 7.26014C8.02138 7.18315 7.999 7.09598 8.00011 7.00751C8.00123 6.91905 8.02579 6.83246 8.0713 6.7566L11.0713 1.7566C11.1157 1.68251 11.1786 1.62119 11.2537 1.57862C11.3289 1.53605 11.4138 1.51367 11.5002 1.51367C11.5865 1.51367 11.6714 1.53605 11.7466 1.57862C11.8217 1.62119 11.8846 1.68251 11.929 1.7566L14.929 6.7566C14.9745 6.83249 14.9991 6.9191 15.0002 7.00759C15.0013 7.09608 14.9789 7.18327 14.9353 7.26027C14.8916 7.33727 14.8284 7.4013 14.7519 7.44585C14.6754 7.49039 14.5885 7.51384 14.5 7.5138ZM9.38305 6.5138H13.617L11.5 2.9856L9.38305 6.5138Z" fill="currentColor"/>
</svg>
