<svg viewBox="0 0 16 16" fill="none" xmlns="http://www.w3.org/2000/svg">
<g clip-path="url(#clip0_1961_6409)">
<rect width="16" height="16" fill="white" fill-opacity="0.01" style="mix-blend-mode:multiply"/>
<path d="M16 13V12H14.9494C14.885 11.687 14.7607 11.3895 14.5835 11.1236L15.3285 10.3786L14.6215 9.67157L13.8765 10.4166C13.6106 10.2393 13.313 10.1151 13 10.0506V9.00002H12V10.0506C11.687 10.115 11.3894 10.2393 11.1236 10.4165L10.3785 9.67152L9.67155 10.3785L10.4165 11.1235C10.2393 11.3894 10.115 11.687 10.0506 12H9V13H10.0506C10.115 13.313 10.2393 13.6106 10.4165 13.8765L9.6715 14.6215L10.3785 15.3285L11.1235 14.5835C11.3894 14.7607 11.687 14.885 12 14.9495V16H13V14.9495C13.313 14.885 13.6106 14.7607 13.8764 14.5835L14.6215 15.3285L15.3285 14.6215L14.5835 13.8765C14.7607 13.6106 14.885 13.313 14.9494 13H16ZM12.5 14C12.2033 14 11.9133 13.912 11.6666 13.7472C11.42 13.5824 11.2277 13.3481 11.1142 13.074C11.0006 12.8 10.9709 12.4984 11.0288 12.2074C11.0867 11.9164 11.2296 11.6491 11.4393 11.4394C11.6491 11.2296 11.9164 11.0867 12.2074 11.0288C12.4983 10.971 12.7999 11.0007 13.074 11.1142C13.3481 11.2277 13.5824 11.42 13.7472 11.6667C13.912 11.9133 14 12.2033 14 12.5C13.9996 12.8977 13.8414 13.279 13.5602 13.5602C13.279 13.8414 12.8977 13.9996 12.5 14Z" fill="currentColor"/>
<path d="M3.5 11C4.05228 11 4.5 10.5523 4.5 10C4.5 9.44773 4.05228 9.00002 3.5 9.00002C2.94772 9.00002 2.5 9.44773 2.5 10C2.5 10.5523 2.94772 11 3.5 11Z" fill="currentColor"/>
<path d="M7 10C6.60444 10 6.21776 9.88272 5.88886 9.66296C5.55996 9.4432 5.30362 9.13084 5.15224 8.76539C5.00087 8.39993 4.96126 7.9978 5.03843 7.60984C5.1156 7.22188 5.30608 6.86551 5.58579 6.5858C5.86549 6.3061 6.22186 6.11562 6.60982 6.03845C6.99778 5.96128 7.39992 6.00088 7.76537 6.15226C8.13082 6.30363 8.44318 6.55998 8.66294 6.88888C8.8827 7.21778 9 7.60446 9 8.00002C8.99844 8.52997 8.78723 9.03778 8.41249 9.41251C8.03776 9.78725 7.52995 9.99846 7 10ZM7 7.00002C6.80222 7.00002 6.60888 7.05867 6.44443 7.16855C6.27998 7.27843 6.15181 7.43461 6.07612 7.61734C6.00043 7.80006 5.98063 8.00113 6.01921 8.19511C6.0578 8.38909 6.15304 8.56727 6.29289 8.70713C6.43275 8.84698 6.61093 8.94222 6.80491 8.9808C6.99889 9.01939 7.19996 8.99959 7.38268 8.9239C7.56541 8.84821 7.72159 8.72004 7.83147 8.55559C7.94135 8.39114 8 8.1978 8 8.00002C7.99922 7.73504 7.89362 7.48114 7.70625 7.29377C7.51888 7.1064 7.26498 7.0008 7 7.00002Z" fill="currentColor"/>
<path d="M10.5 7.00002C11.0523 7.00002 11.5 6.5523 11.5 6.00002C11.5 5.44773 11.0523 5.00002 10.5 5.00002C9.94772 5.00002 9.5 5.44773 9.5 6.00002C9.5 6.5523 9.94772 7.00002 10.5 7.00002Z" fill="currentColor"/>
<path d="M6.51025 14.1358L1.5 11.2129V4.78712L7 1.57887L12.748 4.93192L13.2519 4.06812L7.25195 0.568119C7.17548 0.523507 7.08853 0.5 7 0.5C6.91147 0.5 6.82452 0.523507 6.74805 0.568119L0.74805 4.06812C0.672546 4.11213 0.609906 4.17518 0.56638 4.25096C0.522855 4.32675 0.499967 4.41262 0.5 4.50002V11.5C0.499993 11.5874 0.52289 11.6733 0.566411 11.7492C0.609932 11.825 0.672557 11.8881 0.74805 11.9322L6.00635 15L6.51025 14.1358Z" fill="currentColor"/>
</g>
<defs>
<clipPath id="clip0_1961_6409">
<rect width="16" height="16" fill="white"/>
</clipPath>
</defs>
</svg>
