<svg viewBox="0 0 16 16" fill="none" xmlns="http://www.w3.org/2000/svg">
<rect width="16" height="16" fill="white" fill-opacity="0.01" style="mix-blend-mode:multiply"/>
<path d="M4.5 11C5.05228 11 5.5 10.5523 5.5 10C5.5 9.44775 5.05228 9.00003 4.5 9.00003C3.94772 9.00003 3.5 9.44775 3.5 10C3.5 10.5523 3.94772 11 4.5 11Z" fill="currentColor"/>
<path d="M8 10C7.60444 10 7.21776 9.88273 6.88886 9.66297C6.55996 9.44321 6.30362 9.13085 6.15224 8.7654C6.00087 8.39995 5.96126 7.99781 6.03843 7.60985C6.1156 7.22189 6.30608 6.86552 6.58579 6.58582C6.86549 6.30611 7.22186 6.11563 7.60982 6.03846C7.99778 5.96129 8.39992 6.0009 8.76537 6.15227C9.13082 6.30365 9.44318 6.55999 9.66294 6.88889C9.8827 7.21779 10 7.60447 10 8.00003C9.99844 8.52999 9.78723 9.03779 9.4125 9.41253C9.03776 9.78726 8.52996 9.99847 8 10ZM8 7.00003C7.80222 7.00003 7.60888 7.05868 7.44443 7.16856C7.27998 7.27844 7.15181 7.43462 7.07612 7.61735C7.00043 7.80007 6.98063 8.00114 7.01922 8.19512C7.0578 8.3891 7.15304 8.56729 7.29289 8.70714C7.43275 8.84699 7.61093 8.94223 7.80491 8.98082C7.99889 9.0194 8.19996 8.9996 8.38269 8.92391C8.56541 8.84822 8.72159 8.72005 8.83147 8.5556C8.94135 8.39115 9 8.19781 9 8.00003C8.99922 7.73505 8.89362 7.48115 8.70625 7.29378C8.51888 7.10642 8.26498 7.00081 8 7.00003Z" fill="currentColor"/>
<path d="M11.5 7.00003C12.0523 7.00003 12.5 6.55232 12.5 6.00003C12.5 5.44775 12.0523 5.00003 11.5 5.00003C10.9477 5.00003 10.5 5.44775 10.5 6.00003C10.5 6.55232 10.9477 7.00003 11.5 7.00003Z" fill="currentColor"/>
<path d="M8 15.5C7.91149 15.5001 7.82454 15.4767 7.74805 15.4322L1.74805 11.9322C1.67256 11.8881 1.60993 11.825 1.56641 11.7492C1.52289 11.6733 1.49999 11.5874 1.5 11.5V4.50002C1.49997 4.41262 1.52285 4.32675 1.56638 4.25096C1.60991 4.17518 1.67255 4.11213 1.74805 4.06812L7.74805 0.568119C7.82452 0.523507 7.91147 0.5 8 0.5C8.08853 0.5 8.17548 0.523507 8.25195 0.568119L14.252 4.06812L13.748 4.93192L8 1.57887L2.5 4.78712V11.2129L8 14.4214L13.5 11.2129V7.50002H14.5V11.5C14.5 11.5874 14.4771 11.6733 14.4336 11.7492C14.3901 11.825 14.3274 11.8881 14.252 11.9322L8.25195 15.4322C8.17546 15.4767 8.08851 15.5001 8 15.5Z" fill="currentColor"/>
</svg>
