<svg viewBox="0 0 16 17" fill="none" xmlns="http://www.w3.org/2000/svg">
<g clip-path="url(#clip0_1961_10494)">
<rect width="16" height="16" transform="translate(0 0.513672)" fill="white" fill-opacity="0.01" style="mix-blend-mode:multiply"/>
<path d="M14.9999 9.51365H13.9999V14.5137H14.9999V9.51365Z" fill="currentColor"/>
<path d="M12.9999 7.51365H11.9999V14.5137H12.9999V7.51365Z" fill="currentColor"/>
<path d="M10.9999 11.5137H9.99987V14.5137H10.9999V11.5137Z" fill="currentColor"/>
<path d="M11.0874 5.51365L11.8799 4.8806C11.143 3.95937 10.1028 3.32989 8.94487 3.10445C8.2996 2.9798 7.6361 2.98355 6.99228 3.11549C6.34847 3.24742 5.73697 3.50495 5.19274 3.87335C4.64851 4.24175 4.18223 4.71381 3.82054 5.26252C3.45886 5.81124 3.20887 6.42586 3.08487 7.07125C2.14222 7.2416 1.3004 7.76598 0.73189 8.53696C0.163378 9.30793 -0.0887836 10.2671 0.0270703 11.218C0.159789 12.1423 0.624534 12.9865 1.33444 13.5931C2.04435 14.1996 2.95084 14.5268 3.88447 14.5137H7.99987V13.5137H3.84712C3.19224 13.5239 2.55428 13.3055 2.04302 12.8962C1.53176 12.4868 1.17918 11.912 1.04597 11.2708C0.979262 10.914 0.983764 10.5475 1.05922 10.1924C1.13467 9.8374 1.27959 9.50077 1.48563 9.20194C1.69167 8.90311 1.95477 8.64797 2.25979 8.4512C2.56481 8.25443 2.90572 8.11992 3.26292 8.0554L3.93722 7.93335L4.04417 7.37835C4.19435 6.54438 4.59906 5.77737 5.20272 5.18267C5.80637 4.58797 6.57935 4.19476 7.41547 4.05705C7.91731 3.98256 8.42876 4.00462 8.92232 4.12205C9.78062 4.3277 10.5438 4.81827 11.0874 5.51365Z" fill="currentColor"/>
</g>
<defs>
<clipPath id="clip0_1961_10494">
<rect width="16" height="16" fill="white" transform="translate(0 0.513672)"/>
</clipPath>
</defs>
</svg>
