<svg viewBox="0 0 16 16" fill="none" xmlns="http://www.w3.org/2000/svg">
<rect width="16" height="16" fill="white" fill-opacity="0.01" style="mix-blend-mode:multiply"/>
<path d="M10 8.50038V7.50038C10 7.23516 9.89464 6.98081 9.70711 6.79327C9.51957 6.60573 9.26522 6.50038 9 6.50038H5C4.73478 6.50038 4.48043 6.60573 4.29289 6.79327C4.10536 6.98081 4 7.23516 4 7.50038V8.50038C4 8.76559 4.10536 9.01995 4.29289 9.20748C4.48043 9.39502 4.73478 9.50038 5 9.50038H9C9.26522 9.50038 9.51957 9.39502 9.70711 9.20748C9.89464 9.01995 10 8.76559 10 8.50038ZM5 7.50038H9V8.50038H5V7.50038Z" fill="currentColor"/>
<path d="M11.71 12.2404C11.6418 11.9869 11.4768 11.7704 11.2504 11.6376C11.024 11.5048 10.7545 11.4663 10.5 11.5304L6.635 12.5654C6.37934 12.6334 6.16107 12.8001 6.028 13.0287C5.89492 13.2574 5.85789 13.5295 5.925 13.7854L6.185 14.7504C6.23961 14.962 6.36207 15.15 6.53364 15.2854C6.70522 15.4209 6.91644 15.4964 7.135 15.5004C7.22252 15.4963 7.30952 15.4846 7.395 15.4654L11.26 14.4304C11.5158 14.3613 11.7338 14.1935 11.866 13.9638C11.9982 13.7341 12.0338 13.4613 11.965 13.2054L11.71 12.2404ZM7.135 14.5004L6.88 13.5304L10.74 12.5004L11 13.4604L7.135 14.5004Z" fill="currentColor"/>
<path d="M6.62 3.43038L10.5 4.46538C10.5834 4.4868 10.6689 4.49855 10.755 4.50038C10.9757 4.50134 11.1905 4.42929 11.3659 4.29544C11.5414 4.16159 11.6676 3.97347 11.725 3.76038L12 2.79038C12.0688 2.53445 12.0332 2.26168 11.901 2.03199C11.7688 1.8023 11.5508 1.63447 11.295 1.56538L7.395 0.530376C7.13907 0.461583 6.8663 0.497192 6.63661 0.629381C6.40692 0.76157 6.23909 0.979529 6.17 1.23538L5.91 2.20038C5.84289 2.45629 5.87993 2.72837 6.013 2.95703C6.14607 3.1857 6.36434 3.35231 6.62 3.42038V3.43038ZM7.12 1.50038L11 2.53538L10.74 3.50038L6.88 2.46538L7.12 1.50038Z" fill="currentColor"/>
<path d="M8 10.5004H7V11.5004H8V10.5004Z" fill="currentColor"/>
<path d="M8 4.50038H7V5.50038H8V4.50038Z" fill="currentColor"/>
</svg>
