<svg viewBox="0 0 16 16" fill="none" xmlns="http://www.w3.org/2000/svg">
<rect width="16" height="16" fill="white" fill-opacity="0.01" style="mix-blend-mode:multiply"/>
<path d="M5 7.00033C5.55229 7.00033 6 6.55261 6 6.00033C6 5.44804 5.55229 5.00033 5 5.00033C4.44772 5.00033 4 5.44804 4 6.00033C4 6.55261 4.44772 7.00033 5 7.00033Z" fill="currentColor"/>
<path d="M8 5.50033C8.55229 5.50033 9 5.05261 9 4.50033C9 3.94804 8.55229 3.50033 8 3.50033C7.44772 3.50033 7 3.94804 7 4.50033C7 5.05261 7.44772 5.50033 8 5.50033Z" fill="currentColor"/>
<path d="M11 7.00033C11.5523 7.00033 12 6.55261 12 6.00033C12 5.44804 11.5523 5.00033 11 5.00033C10.4477 5.00033 10 5.44804 10 6.00033C10 6.55261 10.4477 7.00033 11 7.00033Z" fill="currentColor"/>
<path d="M11.5 10.0003C12.0523 10.0003 12.5 9.55261 12.5 9.00033C12.5 8.44804 12.0523 8.00033 11.5 8.00033C10.9477 8.00033 10.5 8.44804 10.5 9.00033C10.5 9.55261 10.9477 10.0003 11.5 10.0003Z" fill="currentColor"/>
<path d="M9.5 12.5003C10.0523 12.5003 10.5 12.0526 10.5 11.5003C10.5 10.948 10.0523 10.5003 9.5 10.5003C8.94772 10.5003 8.5 10.948 8.5 11.5003C8.5 12.0526 8.94772 12.5003 9.5 12.5003Z" fill="currentColor"/>
<path d="M8.27 1.00033C7.32828 0.963976 6.38892 1.11816 5.50823 1.45363C4.62754 1.7891 3.82365 2.29895 3.14477 2.95262C2.4659 3.60629 1.926 4.39031 1.55745 5.25768C1.18891 6.12505 0.999301 7.05791 1 8.00033C0.999977 8.37099 1.08545 8.73666 1.24977 9.06891C1.4141 9.40115 1.65285 9.69102 1.94745 9.91596C2.24205 10.1409 2.58457 10.2949 2.94837 10.3659C3.31217 10.4369 3.68744 10.423 4.045 10.3253L4.605 10.1703C4.82777 10.1095 5.06158 10.101 5.2882 10.1453C5.51482 10.1897 5.72814 10.2858 5.91153 10.4261C6.09492 10.5664 6.24344 10.7472 6.34551 10.9544C6.44759 11.1615 6.50045 11.3894 6.5 11.6203V13.5003C6.5 13.8982 6.65804 14.2797 6.93934 14.561C7.22065 14.8423 7.60218 15.0003 8 15.0003C8.94242 15.001 9.87528 14.8114 10.7427 14.4429C11.61 14.0743 12.394 13.5344 13.0477 12.8556C13.7014 12.1767 14.2112 11.3728 14.5467 10.4921C14.8822 9.61141 15.0364 8.67205 15 7.73033C14.9275 5.96866 14.1951 4.29869 12.9484 3.05195C11.7016 1.80521 10.0317 1.07287 8.27 1.00033ZM12.325 12.1553C11.7667 12.7398 11.0954 13.2048 10.352 13.522C9.60849 13.8391 8.8083 14.0019 8 14.0003C7.86739 14.0003 7.74022 13.9476 7.64645 13.8539C7.55268 13.7601 7.5 13.6329 7.5 13.5003V11.6203C7.5 10.9573 7.23661 10.3214 6.76777 9.85256C6.29893 9.38372 5.66304 9.12033 5 9.12033C4.77533 9.12072 4.5517 9.15099 4.335 9.21033L3.775 9.36533C3.56584 9.42138 3.34658 9.42851 3.13422 9.38616C2.92186 9.3438 2.72211 9.25311 2.55046 9.12111C2.3788 8.9891 2.23986 8.81934 2.1444 8.62497C2.04894 8.43061 1.99953 8.21687 2 8.00033C1.99938 7.19222 2.16201 6.39232 2.47813 5.64862C2.79424 4.90491 3.25733 4.23273 3.83962 3.67239C4.4219 3.11205 5.11137 2.67512 5.86667 2.38779C6.62196 2.10047 7.42752 1.96868 8.235 2.00033C9.7386 2.07864 11.1599 2.71116 12.2245 3.7758C13.2892 4.84045 13.9217 6.26173 14 7.76533C14.0344 8.57331 13.9036 9.37982 13.6156 10.1355C13.3276 10.8912 12.8884 11.5802 12.325 12.1603V12.1553Z" fill="currentColor"/>
</svg>
