<svg viewBox="0 0 16 17" fill="none" xmlns="http://www.w3.org/2000/svg">
<rect width="16" height="16" transform="translate(0 0.513672)" fill="white" fill-opacity="0.01" style="mix-blend-mode:multiply"/>
<path d="M8 2.51367C9.18669 2.51367 10.3467 2.86557 11.3334 3.52485C12.3201 4.18414 13.0892 5.12121 13.5433 6.21757C13.9974 7.31393 14.1162 8.52033 13.8847 9.68421C13.6532 10.8481 13.0818 11.9172 12.2426 12.7563C11.4035 13.5954 10.3344 14.1669 9.17054 14.3984C8.00666 14.6299 6.80026 14.5111 5.7039 14.0569C4.60755 13.6028 3.67047 12.8338 3.01119 11.8471C2.3519 10.8604 2 9.70036 2 8.51367C2 6.92237 2.63214 5.39625 3.75736 4.27103C4.88258 3.14581 6.4087 2.51367 8 2.51367ZM8 1.51367C6.61553 1.51367 5.26216 1.92421 4.11101 2.69338C2.95987 3.46255 2.06266 4.55581 1.53285 5.83489C1.00303 7.11397 0.86441 8.52144 1.13451 9.8793C1.4046 11.2372 2.07129 12.4845 3.05026 13.4634C4.02922 14.4424 5.2765 15.1091 6.63437 15.3792C7.99224 15.6493 9.3997 15.5106 10.6788 14.9808C11.9579 14.451 13.0511 13.5538 13.8203 12.4027C14.5895 11.2515 15 9.89814 15 8.51367C15 6.65716 14.2625 4.87668 12.9497 3.56392C11.637 2.25117 9.85652 1.51367 8 1.51367Z" fill="currentColor"/>
<path d="M11.5 5.71867L10.795 5.01367L8.645 7.16367C8.3651 7.02999 8.05063 6.98637 7.7449 7.03883C7.43918 7.09128 7.15724 7.23723 6.9379 7.45656C6.71856 7.6759 6.57261 7.95785 6.52016 8.26357C6.4677 8.5693 6.51132 8.88376 6.645 9.16367L4.5 11.3087L5.205 12.0137L7.355 9.86367C7.63491 9.99735 7.94938 10.041 8.2551 9.98852C8.56083 9.93606 8.84277 9.79012 9.06211 9.57078C9.28145 9.35144 9.42739 9.0695 9.47985 8.76377C9.5323 8.45805 9.48868 8.14358 9.355 7.86367L11.5 5.71867ZM8.5 8.51367C8.5 8.61256 8.47068 8.70923 8.41574 8.79146C8.3608 8.87368 8.28271 8.93777 8.19134 8.97561C8.09998 9.01346 7.99945 9.02336 7.90246 9.00406C7.80547 8.98477 7.71638 8.93715 7.64645 8.86723C7.57652 8.7973 7.5289 8.70821 7.50961 8.61122C7.49032 8.51423 7.50022 8.41369 7.53806 8.32233C7.57591 8.23097 7.63999 8.15288 7.72222 8.09794C7.80444 8.043 7.90111 8.01367 8 8.01367C8.13261 8.01367 8.25979 8.06635 8.35356 8.16012C8.44733 8.25389 8.5 8.38106 8.5 8.51367Z" fill="currentColor"/>
<path d="M8 5.01367C8.41422 5.01367 8.75 4.67789 8.75 4.26367C8.75 3.84946 8.41422 3.51367 8 3.51367C7.58579 3.51367 7.25 3.84946 7.25 4.26367C7.25 4.67789 7.58579 5.01367 8 5.01367Z" fill="currentColor"/>
</svg>
