<svg viewBox="0 0 16 17" fill="none" xmlns="http://www.w3.org/2000/svg">
<rect width="16" height="16" transform="translate(0 0.513672)" fill="white" fill-opacity="0.01" style="mix-blend-mode:multiply"/>
<path d="M14.67 8.54367C14.5734 8.50877 14.4684 8.50444 14.3692 8.53127C14.2701 8.55811 14.1816 8.61481 14.1158 8.69367L12.23 10.9565L9.51225 10.4624L7.71125 5.98682C7.60318 5.70153 7.41107 5.45576 7.16031 5.282C6.90956 5.10823 6.61197 5.01467 6.3069 5.01367H4.2769C4.00498 5.01372 3.73818 5.08763 3.505 5.22752L1 6.73047V9.93092L3.5 10.3855V15.5137H4.5V10.5674L6.2826 10.8914L7 12.6137V15.5137H8V12.4137L7.45445 11.1046L11.495 11.8391L9.11595 14.6937C9.05514 14.7667 9.01639 14.8555 9.00424 14.9497C8.99209 15.044 9.00704 15.1397 9.04734 15.2257C9.08764 15.3118 9.15162 15.3846 9.23178 15.4356C9.31195 15.4866 9.40499 15.5136 9.5 15.5137H14.5C14.6326 15.5137 14.7598 15.461 14.8536 15.3672C14.9473 15.2735 15 15.1463 15 15.0137V9.01367C15 8.91092 14.9683 8.81067 14.9092 8.72657C14.8502 8.64247 14.7666 8.57861 14.67 8.54367ZM2 9.09642V7.29687L3.5 6.39687V9.36927L2 9.09642ZM4.5 9.55102V6.01367H6.3069C6.41052 6.01459 6.51137 6.04723 6.59588 6.10721C6.68038 6.16718 6.74448 6.25161 6.77955 6.34912L8.34955 10.251L4.5 9.55102ZM14 14.5137H10.5676L14 10.3945V14.5137Z" fill="currentColor"/>
<path d="M6.25 4.51367C5.90388 4.51367 5.56554 4.41104 5.27775 4.21874C4.98997 4.02645 4.76566 3.75314 4.63321 3.43337C4.50076 3.1136 4.4661 2.76173 4.53363 2.42226C4.60115 2.0828 4.76782 1.77098 5.01256 1.52624C5.25731 1.28149 5.56912 1.11482 5.90859 1.0473C6.24806 0.979774 6.59993 1.01443 6.9197 1.14688C7.23947 1.27934 7.51278 1.50364 7.70507 1.79142C7.89736 2.07921 8 2.41756 8 2.76367C7.99944 3.22763 7.81489 3.67243 7.48682 4.0005C7.15875 4.32856 6.71396 4.51312 6.25 4.51367ZM6.25 2.01367C6.10166 2.01367 5.95666 2.05766 5.83332 2.14007C5.70999 2.22248 5.61386 2.33962 5.55709 2.47666C5.50032 2.6137 5.48547 2.7645 5.51441 2.90999C5.54335 3.05548 5.61478 3.18911 5.71967 3.294C5.82456 3.39889 5.9582 3.47032 6.10368 3.49926C6.24917 3.5282 6.39997 3.51335 6.53701 3.45658C6.67406 3.39982 6.79119 3.30369 6.8736 3.18035C6.95601 3.05701 7 2.91201 7 2.76367C6.99977 2.56483 6.92069 2.37419 6.78008 2.23359C6.63948 2.09299 6.44884 2.0139 6.25 2.01367Z" fill="currentColor"/>
</svg>
