<svg viewBox="0 0 16 17" fill="none" xmlns="http://www.w3.org/2000/svg">
<rect width="16" height="16" transform="translate(0 0.513672)" fill="white" fill-opacity="0.01" style="mix-blend-mode:multiply"/>
<path d="M11 13.0137C11.5523 13.0137 12 12.566 12 12.0137C12 11.4614 11.5523 11.0137 11 11.0137C10.4477 11.0137 10 11.4614 10 12.0137C10 12.566 10.4477 13.0137 11 13.0137Z" fill="currentColor"/>
<path d="M14.8884 11.7529C14.2569 10.1443 12.7274 9.06677 11 9.01367C9.2726 9.06677 7.7431 10.1443 7.11155 11.7529L7 12.0137L7.11155 12.2744C7.7431 13.8831 9.2726 14.9606 11 15.0137C12.7274 14.9606 14.2569 13.8831 14.8884 12.2744L15 12.0137L14.8884 11.7529ZM11 14.0137C9.89545 14.0137 9 13.1182 9 12.0137C9 10.9091 9.89545 10.0137 11 10.0137C12.1046 10.0137 13 10.9091 13 12.0137C12.9988 13.1177 12.1041 14.0124 11 14.0137Z" fill="currentColor"/>
<path d="M6 14.5137H3C2.4486 14.5137 2 14.0651 2 13.5137V3.51367C2 2.96227 2.4486 2.51367 3 2.51367H13C13.5514 2.51367 14 2.96227 14 3.51367V8.51367H13V3.51367H3V13.5137H6V14.5137Z" fill="currentColor"/>
</svg>
