<svg viewBox="0 0 16 16" fill="none" xmlns="http://www.w3.org/2000/svg">
<rect width="16" height="16" fill="white" fill-opacity="0.01" style="mix-blend-mode:multiply"/>
<path d="M3.85009 2.3496C3.2766 2.78971 2.77116 3.312 2.35009 3.8996L3.15009 4.4996C3.51733 3.99033 3.95504 3.53579 4.45009 3.1496L3.85009 2.3496Z" fill="currentColor"/>
<path d="M2.30009 6.1496L1.35009 5.8496C1.10858 6.54029 0.990123 7.26798 1.00009 7.9996H2.00009C1.99802 7.37066 2.09938 6.74566 2.30009 6.1496Z" fill="currentColor"/>
<path d="M1.35009 10.1996C1.58199 10.8968 1.91923 11.5544 2.35009 12.1496L3.15009 11.5496C2.78861 11.0435 2.50231 10.4877 2.30009 9.8996L1.35009 10.1996Z" fill="currentColor"/>
<path d="M3.90009 13.6496C4.49527 14.0805 5.15288 14.4177 5.85009 14.6496L6.15009 13.6996C5.56195 13.4974 5.00619 13.2111 4.50009 12.8496L3.90009 13.6496Z" fill="currentColor"/>
<path d="M5.85009 1.3496L6.15009 2.2996C6.74615 2.09889 7.37115 1.99754 8.00009 1.9996V0.999604C7.26847 0.989634 6.54077 1.1081 5.85009 1.3496Z" fill="currentColor"/>
<path d="M12.1001 13.6496C12.689 13.2107 13.2111 12.6886 13.6501 12.0996L12.8501 11.4996C12.4783 12.0215 12.022 12.4778 11.5001 12.8496L12.1001 13.6496Z" fill="currentColor"/>
<path d="M13.7001 9.8496L14.6501 10.1496C14.8676 9.45303 14.9854 8.72919 15.0001 7.9996H14.0001C14.0022 8.62855 13.9008 9.25355 13.7001 9.8496Z" fill="currentColor"/>
<path d="M14.6001 5.7996C14.3682 5.1024 14.031 4.44478 13.6001 3.8496L12.8001 4.4496C13.1616 4.9557 13.4479 5.51146 13.6501 6.0996L14.6001 5.7996Z" fill="currentColor"/>
<path d="M12.0501 2.2996C11.4549 1.86874 10.7973 1.53151 10.1001 1.2996L9.80009 2.2496C10.3882 2.45182 10.944 2.73812 11.4501 3.0996L12.0501 2.2996Z" fill="currentColor"/>
<path d="M10.1501 14.6496L9.85009 13.6996C9.25404 13.9003 8.62903 14.0017 8.00009 13.9996V14.9996C8.72679 14.9563 9.44718 14.839 10.1501 14.6496Z" fill="currentColor"/>
<path d="M8.00009 12.9996C7.01119 12.9996 6.04449 12.7064 5.22224 12.157C4.4 11.6075 3.75913 10.8267 3.38069 9.91302C3.00226 8.99939 2.90324 7.99406 3.09617 7.02415C3.28909 6.05425 3.7653 5.16333 4.46456 4.46407C5.16382 3.76481 6.05474 3.2886 7.02464 3.09568C7.99455 2.90275 8.99988 3.00177 9.91351 3.38021C10.8271 3.75864 11.608 4.39951 12.1574 5.22175C12.7068 6.044 13.0001 7.0107 13.0001 7.9996C12.9986 9.32522 12.4713 10.5961 11.5339 11.5335C10.5966 12.4708 9.32571 12.9981 8.00009 12.9996ZM8.00009 3.9996C7.20897 3.9996 6.43561 4.2342 5.77781 4.67373C5.12001 5.11325 4.60732 5.73797 4.30457 6.46887C4.00182 7.19977 3.92261 8.00404 4.07695 8.77997C4.23129 9.55589 4.61226 10.2686 5.17167 10.828C5.73108 11.3874 6.44381 11.7684 7.21973 11.9227C7.99566 12.0771 8.79992 11.9979 9.53083 11.6951C10.2617 11.3924 10.8864 10.8797 11.326 10.2219C11.7655 9.56409 12.0001 8.79073 12.0001 7.9996C11.9989 6.93911 11.5771 5.9224 10.8272 5.17252C10.0773 4.42264 9.06058 4.00082 8.00009 3.9996Z" fill="currentColor"/>
</svg>
