<svg viewBox="0 0 16 16" fill="none" xmlns="http://www.w3.org/2000/svg">
<rect width="16" height="16" fill="white" fill-opacity="0.01" style="mix-blend-mode:multiply"/>
<path d="M3.85009 2.3496C3.2766 2.7897 2.77116 3.31199 2.35009 3.8996L3.15009 4.4996C3.51733 3.99033 3.95503 3.53579 4.45009 3.1496L3.85009 2.3496Z" fill="currentColor"/>
<path d="M2.30009 6.1496L1.35009 5.8496C1.10858 6.54028 0.990123 7.26798 1.00009 7.9996H2.00009C1.99802 7.37066 2.09938 6.74566 2.30009 6.1496Z" fill="currentColor"/>
<path d="M5.85009 1.3496L6.15009 2.2996C6.74614 2.09889 7.37115 1.99754 8.00009 1.9996V0.999604C7.26847 0.989634 6.54077 1.1081 5.85009 1.3496Z" fill="currentColor"/>
<path d="M12.1001 13.6496C12.689 13.2106 13.2111 12.6885 13.6501 12.0996L12.8501 11.4996C12.4783 12.0215 12.022 12.4778 11.5001 12.8496L12.1001 13.6496Z" fill="currentColor"/>
<path d="M13.7001 9.84958L14.6501 10.1496C14.8676 9.453 14.9854 8.72916 15.0001 7.99957H14.0001C14.0022 8.62852 13.9008 9.25352 13.7001 9.84958Z" fill="currentColor"/>
<path d="M14.6001 5.7996C14.3682 5.10239 14.031 4.44478 13.6001 3.8496L12.8001 4.4496C13.1616 4.95569 13.4479 5.51146 13.6501 6.0996L14.6001 5.7996Z" fill="currentColor"/>
<path d="M12.0501 2.29959C11.4549 1.86873 10.7973 1.53149 10.1001 1.29959L9.80011 2.24959C10.3882 2.4518 10.944 2.73811 11.4501 3.09959L12.0501 2.29959Z" fill="currentColor"/>
<path d="M10.1501 14.6496L9.85009 13.6996C9.25404 13.9003 8.62903 14.0016 8.00009 13.9996V14.9996C8.72679 14.9563 9.44718 14.839 10.1501 14.6496Z" fill="currentColor"/>
<path d="M7.70125 12.1236C7.50449 11.5259 7.21455 10.9631 6.84215 10.4559L7.6488 9.86458C8.08326 10.4566 8.42149 11.1135 8.651 11.8111L7.70125 12.1236Z" fill="currentColor"/>
<path d="M5.5101 9.13297C5.00052 8.76405 4.43575 8.47813 3.83675 8.28582L4.14245 7.33367C4.84174 7.55822 5.5011 7.89202 6.09605 8.32267L5.5101 9.13297Z" fill="currentColor"/>
</svg>
