<svg viewBox="0 0 16 17" fill="none" xmlns="http://www.w3.org/2000/svg">
<rect width="16" height="16" transform="translate(0 0.513672)" fill="white" fill-opacity="0.01" style="mix-blend-mode:multiply"/>
<path d="M13.5 11.5137V9.01367C13.4997 8.74855 13.3942 8.49437 13.2068 8.3069C13.0193 8.11943 12.7651 8.01398 12.5 8.01367H8.5V5.51367H10C10.2651 5.51337 10.5193 5.40791 10.7068 5.22044C10.8942 5.03297 10.9997 4.7788 11 4.51367V2.51367C10.9997 2.24855 10.8942 1.99437 10.7068 1.8069C10.5193 1.61943 10.2651 1.51398 10 1.51367H6C5.73488 1.51398 5.4807 1.61943 5.29323 1.8069C5.10576 1.99437 5.0003 2.24855 5 2.51367V4.51367C5.0003 4.7788 5.10576 5.03297 5.29323 5.22044C5.4807 5.40791 5.73488 5.51337 6 5.51367H7.5V8.01367H3.5C3.23488 8.01398 2.9807 8.11943 2.79323 8.3069C2.60576 8.49437 2.5003 8.74855 2.5 9.01367V11.5137H1V15.5137H5V11.5137H3.5V9.01367H7.5V11.5137H6V15.5137H10V11.5137H8.5V9.01367H12.5V11.5137H11V15.5137H15V11.5137H13.5ZM6 2.51367H10V4.51367H6V2.51367ZM4 14.5137H2V12.5137H4V14.5137ZM9 14.5137H7V12.5137H9V14.5137ZM14 14.5137H12V12.5137H14V14.5137Z" fill="currentColor"/>
</svg>
