<svg viewBox="0 0 16 17" fill="none" xmlns="http://www.w3.org/2000/svg">
<rect width="16" height="16" transform="translate(0 0.513672)" fill="white" fill-opacity="0.01" style="mix-blend-mode:multiply"/>
<path d="M8.5 7.01367V3.51367H4V11.5137H12V7.01367H8.5ZM5 4.51367H7.5V7.01367H5V4.51367ZM5 8.01367H7.5V10.5137H5V8.01367ZM11 10.5137H8.5V8.01367H11V10.5137Z" fill="currentColor"/>
<path d="M14 6.01367H9.5V1.51367H14V6.01367ZM10.5 5.01367H13V2.51367H10.5V5.01367Z" fill="currentColor"/>
<path d="M14 10.5137H13V11.5137H14V14.5137H2V11.5137H3V10.5137H2C1.73488 10.514 1.48071 10.6194 1.29324 10.8069C1.10578 10.9944 1.00032 11.2486 1 11.5137V14.5137C1.00032 14.7788 1.10578 15.033 1.29324 15.2204C1.48071 15.4079 1.73488 15.5134 2 15.5137H14C14.2651 15.5134 14.5193 15.4079 14.7068 15.2204C14.8942 15.033 14.9997 14.7788 15 14.5137V11.5137C14.9997 11.2486 14.8942 10.9944 14.7068 10.8069C14.5193 10.6194 14.2651 10.514 14 10.5137Z" fill="currentColor"/>
<path d="M3.5 13.5137C3.77614 13.5137 4 13.2898 4 13.0137C4 12.7375 3.77614 12.5137 3.5 12.5137C3.22386 12.5137 3 12.7375 3 13.0137C3 13.2898 3.22386 13.5137 3.5 13.5137Z" fill="currentColor"/>
</svg>
