<svg viewBox="0 0 16 17" fill="none" xmlns="http://www.w3.org/2000/svg">
<rect width="16" height="16" transform="translate(0 0.513672)" fill="white" fill-opacity="0.01" style="mix-blend-mode:multiply"/>
<path d="M8 11.5137C8.39556 11.5137 8.78224 11.3964 9.11114 11.1766C9.44004 10.9568 9.69638 10.6445 9.84776 10.279C9.99913 9.91359 10.0387 9.51145 9.96157 9.12349C9.8844 8.73553 9.69392 8.37916 9.41421 8.09946C9.13451 7.81975 8.77814 7.62927 8.39018 7.5521C8.00222 7.47493 7.60009 7.51454 7.23463 7.66591C6.86918 7.81729 6.55682 8.07363 6.33706 8.40253C6.1173 8.73143 6 9.11811 6 9.51367C6 10.0441 6.21071 10.5528 6.58579 10.9279C6.96086 11.303 7.46957 11.5137 8 11.5137ZM8 8.51367C8.19778 8.51367 8.39112 8.57232 8.55557 8.6822C8.72002 8.79208 8.84819 8.94826 8.92388 9.13099C8.99957 9.31371 9.01937 9.51478 8.98079 9.70876C8.9422 9.90274 8.84696 10.0809 8.70711 10.2208C8.56725 10.3606 8.38907 10.4559 8.19509 10.4945C8.00111 10.533 7.80004 10.5132 7.61732 10.4376C7.43459 10.3619 7.27841 10.2337 7.16853 10.0692C7.05865 9.90479 7 9.71145 7 9.51367C7 9.24846 7.10536 8.9941 7.29289 8.80657C7.48043 8.61903 7.73478 8.51367 8 8.51367Z" fill="currentColor"/>
<path d="M9 3.51367H7V4.51367H9V3.51367Z" fill="currentColor"/>
<path d="M12 1.51367H4C3.73486 1.51394 3.48066 1.61938 3.29319 1.80686C3.10571 1.99434 3.00026 2.24854 3 2.51367V14.5137C3.0003 14.7788 3.10576 15.033 3.29323 15.2204C3.4807 15.4079 3.73488 15.5134 4 15.5137H12C12.2651 15.5133 12.5193 15.4078 12.7067 15.2204C12.8942 15.0329 12.9996 14.7788 13 14.5137V2.51367C12.9997 2.24855 12.8942 1.99437 12.7068 1.8069C12.5193 1.61943 12.2651 1.51398 12 1.51367ZM10 14.5137H6V13.5137C6 13.3811 6.05268 13.2539 6.14645 13.1601C6.24021 13.0663 6.36739 13.0137 6.5 13.0137H9.5C9.63261 13.0137 9.75979 13.0663 9.85355 13.1601C9.94732 13.2539 10 13.3811 10 13.5137V14.5137ZM11 14.5137V13.5137C11 13.1158 10.842 12.7343 10.5607 12.453C10.2794 12.1717 9.89782 12.0137 9.5 12.0137H6.5C6.10218 12.0137 5.72064 12.1717 5.43934 12.453C5.15804 12.7343 5 13.1158 5 13.5137V14.5137H4V2.51367H12V14.5137H11Z" fill="currentColor"/>
</svg>
