<svg viewBox="0 0 16 17" fill="none" xmlns="http://www.w3.org/2000/svg">
<rect width="16" height="16" transform="translate(0 0.513672)" fill="white" fill-opacity="0.01" style="mix-blend-mode:multiply"/>
<path d="M13 7.01367C13.5303 7.01308 14.0386 6.80217 14.4136 6.42723C14.7885 6.05228 14.9994 5.54392 15 5.01367V3.51367H13.5C12.9881 3.51451 12.4962 3.71264 12.1266 4.06687C11.8676 3.59684 11.4873 3.20483 11.0254 2.93166C10.5634 2.65849 10.0367 2.51415 9.5 2.51367H8V4.01367C8.00087 4.80905 8.31722 5.57161 8.87964 6.13403C9.44206 6.69645 10.2046 7.0128 11 7.01367H11.5V13.5137H5.5V11.0137H6C6.53025 11.0131 7.03861 10.8022 7.41356 10.4272C7.7885 10.0523 7.9994 9.54392 8 9.01367V7.51367H6.5C5.98808 7.51451 5.49618 7.71264 5.1266 8.06687C4.86759 7.59684 4.48731 7.20483 4.02536 6.93166C3.56341 6.65849 3.03667 6.51415 2.5 6.51367H1V8.01367C1.00087 8.80905 1.31722 9.57161 1.87964 10.134C2.44206 10.6964 3.20462 11.0128 4 11.0137H4.5V13.5137H1V14.5137H15V13.5137H12.5V7.01367H13ZM12.5 5.51367C12.5003 5.24854 12.6057 4.99434 12.7932 4.80686C12.9807 4.61938 13.2349 4.51394 13.5 4.51367H14V5.01367C13.9997 5.27881 13.8943 5.53301 13.7068 5.72049C13.5193 5.90797 13.2651 6.01341 13 6.01367H12.5V5.51367ZM5.5 9.51367C5.50026 9.24854 5.60571 8.99434 5.79319 8.80686C5.98066 8.61938 6.23486 8.51394 6.5 8.51367H7V9.01367C6.99974 9.27881 6.89429 9.53301 6.70681 9.72049C6.51934 9.90797 6.26514 10.0134 6 10.0137H5.5V9.51367ZM4.5 10.0137H4C3.46975 10.0131 2.96139 9.80217 2.58644 9.42723C2.2115 9.05228 2.0006 8.54392 2 8.01367V7.51367H2.5C3.03025 7.51427 3.53861 7.72517 3.91356 8.10012C4.2885 8.47506 4.4994 8.98342 4.5 9.51367V10.0137ZM11.5 6.01367H11C10.4697 6.01308 9.96139 5.80217 9.58644 5.42723C9.2115 5.05228 9.0006 4.54392 9 4.01367V3.51367H9.5C10.0303 3.51427 10.5386 3.72517 10.9136 4.10012C11.2885 4.47506 11.4994 4.98342 11.5 5.51367V6.01367Z" fill="currentColor"/>
</svg>
