<svg viewBox="0 0 16 17" fill="none" xmlns="http://www.w3.org/2000/svg">
<rect width="16" height="16" transform="translate(0 0.513672)" fill="white" fill-opacity="0.01" style="mix-blend-mode:multiply"/>
<path d="M12.5 15.5137C11.9067 15.5137 11.3266 15.3377 10.8333 15.0081C10.3399 14.6784 9.95542 14.2099 9.72836 13.6617C9.5013 13.1135 9.44189 12.5103 9.55764 11.9284C9.6734 11.3465 9.95912 10.8119 10.3787 10.3924C10.7982 9.97279 11.3328 9.68707 11.9147 9.57132C12.4967 9.45556 13.0999 9.51497 13.6481 9.74203C14.1962 9.9691 14.6648 10.3536 14.9944 10.847C15.3241 11.3403 15.5 11.9203 15.5 12.5137C15.4991 13.309 15.1827 14.0716 14.6203 14.634C14.0579 15.1964 13.2954 15.5128 12.5 15.5137ZM12.5 10.5137C12.1044 10.5137 11.7178 10.631 11.3889 10.8507C11.06 11.0705 10.8036 11.3829 10.6522 11.7483C10.5009 12.1138 10.4613 12.5159 10.5384 12.9039C10.6156 13.2918 10.8061 13.6482 11.0858 13.9279C11.3655 14.2076 11.7219 14.3981 12.1098 14.4752C12.4978 14.5524 12.8999 14.5128 13.2654 14.3614C13.6308 14.2101 13.9432 13.9537 14.1629 13.6248C14.3827 13.2959 14.5 12.9092 14.5 12.5137C14.4994 11.9834 14.2885 11.4751 13.9136 11.1001C13.5386 10.7252 13.0303 10.5143 12.5 10.5137Z" fill="currentColor"/>
<path d="M3.5 15.5137C2.90666 15.5137 2.32664 15.3377 1.83329 15.0081C1.33994 14.6784 0.955426 14.2099 0.728363 13.6617C0.5013 13.1135 0.44189 12.5103 0.557646 11.9284C0.673401 11.3465 0.959123 10.8119 1.37868 10.3924C1.79824 9.97279 2.33279 9.68707 2.91473 9.57132C3.49667 9.45556 4.09987 9.51497 4.64805 9.74203C5.19623 9.9691 5.66477 10.3536 5.99441 10.847C6.32405 11.3403 6.5 11.9203 6.5 12.5137C6.49909 13.309 6.18272 14.0716 5.62031 14.634C5.0579 15.1964 4.29537 15.5128 3.5 15.5137ZM3.5 10.5137C3.10444 10.5137 2.71776 10.631 2.38886 10.8507C2.05996 11.0705 1.80362 11.3829 1.65224 11.7483C1.50087 12.1138 1.46126 12.5159 1.53843 12.9039C1.6156 13.2918 1.80608 13.6482 2.08579 13.9279C2.36549 14.2076 2.72186 14.3981 3.10982 14.4752C3.49778 14.5524 3.89992 14.5128 4.26537 14.3614C4.63082 14.2101 4.94318 13.9537 5.16294 13.6248C5.3827 13.2959 5.5 12.9092 5.5 12.5137C5.49941 11.9834 5.2885 11.4751 4.91356 11.1001C4.53861 10.7252 4.03025 10.5143 3.5 10.5137Z" fill="currentColor"/>
<path d="M8.5 14.0137H7.5V10.7206L4.79245 8.01367C4.60516 7.82593 4.49998 7.57156 4.49998 7.30637C4.49998 7.04118 4.60516 6.78682 4.79245 6.59907L7.0854 4.30612C7.2731 4.11885 7.52741 4.01368 7.79255 4.01368C8.05769 4.01368 8.31201 4.11885 8.4997 4.30612L10.707 6.51367H13.5V7.51332L10.2927 7.51367L7.79265 5.01367L5.5 7.30612L8.5 10.3061V14.0137Z" fill="currentColor"/>
<path d="M10.75 4.51367C10.4039 4.51367 10.0655 4.41104 9.77775 4.21874C9.48997 4.02645 9.26567 3.75314 9.13321 3.43337C9.00076 3.1136 8.9661 2.76173 9.03363 2.42226C9.10115 2.0828 9.26782 1.77098 9.51256 1.52624C9.75731 1.28149 10.0691 1.11482 10.4086 1.0473C10.7481 0.979774 11.0999 1.01443 11.4197 1.14688C11.7395 1.27934 12.0128 1.50364 12.2051 1.79142C12.3974 2.07921 12.5 2.41756 12.5 2.76367C12.4994 3.22763 12.3149 3.67243 11.9868 4.0005C11.6588 4.32856 11.214 4.51312 10.75 4.51367ZM10.75 2.01367C10.6017 2.01367 10.4567 2.05766 10.3333 2.14007C10.21 2.22248 10.1139 2.33962 10.0571 2.47666C10.0003 2.6137 9.98547 2.7645 10.0144 2.90999C10.0434 3.05548 10.1148 3.18911 10.2197 3.294C10.3246 3.39889 10.4582 3.47032 10.6037 3.49926C10.7492 3.5282 10.9 3.51335 11.037 3.45658C11.1741 3.39982 11.2912 3.30369 11.3736 3.18035C11.456 3.05701 11.5 2.91201 11.5 2.76367C11.4998 2.56483 11.4207 2.37419 11.2801 2.23359C11.1395 2.09299 10.9488 2.0139 10.75 2.01367Z" fill="currentColor"/>
</svg>
