<svg viewBox="0 0 16 17" fill="none" xmlns="http://www.w3.org/2000/svg">
<rect width="16" height="16" transform="translate(0 0.513672)" fill="white" fill-opacity="0.01" style="mix-blend-mode:multiply"/>
<path d="M15 8.01367H13.5V4.01367H12.5V8.01367H11V4.01367H10V7.92677L3.76195 4.08787C3.68619 4.04128 3.59938 4.01573 3.51046 4.01387C3.42153 4.01201 3.33373 4.0339 3.25609 4.07729C3.17845 4.12068 3.11379 4.18399 3.06877 4.2607C3.02376 4.3374 3.00002 4.42473 3 4.51367V8.01367H1V9.01367H3V12.5137C3.00002 12.6026 3.02376 12.6899 3.06877 12.7666C3.11379 12.8434 3.17845 12.9067 3.25609 12.9501C3.33373 12.9934 3.42153 13.0153 3.51046 13.0135C3.59938 13.0116 3.68619 12.9861 3.76195 12.9395L10 9.10057V13.0137H11V9.01367H12.5V13.0137H13.5V9.01367H15V8.01367ZM4 11.6187V5.40867L9.0459 8.51367L4 11.6187Z" fill="currentColor"/>
</svg>
