<svg viewBox="0 0 16 16" fill="none" xmlns="http://www.w3.org/2000/svg">
<rect width="16" height="16" fill="white" fill-opacity="0.01" style="mix-blend-mode:multiply"/>
<path d="M8.91401 11.0338L9.81086 10.16C10.0057 10.4112 10.2548 10.615 10.5395 10.7564C10.8242 10.8977 11.1371 10.9729 11.455 10.9763C12.1562 10.9763 12.455 10.7119 12.455 10.2863C12.455 9.94131 12.2481 9.72296 11.7192 9.65401L11.1213 9.57341C9.83351 9.41256 9.12076 8.84921 9.12076 7.75691C9.12076 6.59566 10.0291 5.85981 11.3973 5.85981C11.8343 5.8268 12.2731 5.89464 12.6797 6.0581C13.0864 6.22156 13.4501 6.47626 13.7427 6.80256L12.8804 7.66486C12.6976 7.46505 12.4757 7.30484 12.2285 7.19411C11.9813 7.08338 11.7141 7.02449 11.4433 7.02106C10.8108 7.02106 10.535 7.27401 10.535 7.64191C10.535 8.04436 10.7533 8.22821 11.3168 8.32026L11.9262 8.40071C13.2369 8.58466 13.8692 9.17111 13.8692 10.1714C13.8692 11.3326 12.8919 12.1374 11.3973 12.1374C10.9262 12.1581 10.4567 12.0692 10.0258 11.8777C9.5949 11.6862 9.21432 11.3974 8.91401 11.0338Z" fill="currentColor"/>
<path d="M2.62354 11.9996V3.97461H7.91249V5.31961H4.14124V7.26271H7.47558V8.60796H4.14124V10.6546H7.91249V11.9996H2.62354Z" fill="currentColor"/>
</svg>
