<svg viewBox="0 0 16 16" fill="none" xmlns="http://www.w3.org/2000/svg">
<rect width="16" height="16" fill="white" fill-opacity="0.01" style="mix-blend-mode:multiply"/>
<path d="M11.4898 14.4371C9.46609 14.4371 8.69584 13.9082 8.69584 13.0229C8.6899 12.877 8.71292 12.7314 8.76355 12.5945C8.81419 12.4575 8.89145 12.332 8.99087 12.2251C9.09029 12.1182 9.20991 12.032 9.34281 11.9715C9.47571 11.9111 9.61926 11.8776 9.76519 11.8729V11.7464C9.5401 11.6961 9.33975 11.5685 9.19898 11.3858C9.05821 11.2031 8.98592 10.9769 8.99469 10.7464C8.99469 10.1254 9.52349 9.81501 10.0984 9.68851V9.64261C9.76029 9.49688 9.4746 9.25155 9.27945 8.93931C9.0843 8.62707 8.98896 8.26276 9.00614 7.89496C9.00614 6.67621 9.86844 5.85996 11.4898 5.85996C11.8442 5.8539 12.1974 5.90433 12.5359 6.00936V5.81396C12.5187 5.69722 12.5286 5.57808 12.5648 5.46579C12.6011 5.35351 12.6628 5.25111 12.7452 5.16656C12.8275 5.08202 12.9282 5.0176 13.0395 4.97833C13.1507 4.93907 13.2696 4.926 13.3867 4.94016H14.3179V6.06686H13.0415V6.22786C13.3378 6.39006 13.5824 6.63252 13.7471 6.92741C13.9119 7.22229 13.9901 7.55766 13.9729 7.89501C13.9729 9.10226 13.1218 9.90706 11.4895 9.90706C11.1797 9.91136 10.8706 9.87659 10.5695 9.80356C10.4529 9.84103 10.3501 9.91248 10.2743 10.0088C10.1986 10.105 10.1533 10.2218 10.1443 10.344C10.1443 10.6429 10.3972 10.7923 10.926 10.7923H12.5356C14.0073 10.7923 14.6396 11.4248 14.6396 12.5055C14.6398 13.7588 13.7888 14.4371 11.4898 14.4371ZM12.2368 12.0686H10.1902C10.0915 12.1386 10.0114 12.2319 9.9573 12.3402C9.90315 12.4486 9.87653 12.5685 9.87979 12.6896C9.87979 13.1496 10.2248 13.4255 11.1444 13.4255H11.8802C12.8348 13.4255 13.2602 13.184 13.2602 12.6782C13.26 12.2986 12.9844 12.0686 12.2368 12.0686ZM12.5703 7.98706V7.79146C12.5703 7.18211 12.1909 6.87146 11.4898 6.87146C10.7886 6.87146 10.4087 7.18191 10.4087 7.79146V7.98706C10.4087 8.58481 10.7881 8.90706 11.4898 8.90706C12.1914 8.90706 12.5703 8.58461 12.5703 7.98706Z" fill="currentColor"/>
<path d="M2.30127 11.9996V3.97461H5.91127C7.39467 3.97461 8.29127 4.97461 8.29127 6.45811C8.29127 7.95276 7.39452 8.94151 5.91127 8.94151H3.81912V11.9996H2.30127ZM3.81912 7.63061H5.77372C5.89816 7.64564 6.02438 7.63277 6.14322 7.59294C6.26206 7.55311 6.37055 7.48733 6.4608 7.40035C6.55105 7.31338 6.62081 7.2074 6.66501 7.09011C6.7092 6.97282 6.72673 6.84717 6.71632 6.72226V6.19336C6.72646 6.06902 6.70864 5.94398 6.66417 5.82742C6.61969 5.71086 6.5497 5.60573 6.45931 5.51974C6.36892 5.43375 6.26044 5.36908 6.14181 5.33047C6.02317 5.29186 5.8974 5.28029 5.77372 5.29661H3.81912V7.63061Z" fill="currentColor"/>
</svg>
