<svg viewBox="0 0 16 16" fill="none" xmlns="http://www.w3.org/2000/svg">
<rect width="16" height="16" fill="white" fill-opacity="0.01" style="mix-blend-mode:multiply"/>
<path d="M12.5 14.5C11.6729 14.5 11 13.8271 11 13C11 12.1729 11.6729 11.5 12.5 11.5C13.3271 11.5 14 12.1729 14 13C14 13.8271 13.3271 14.5 12.5 14.5ZM12.5 12.5C12.2242 12.5 12 12.7243 12 13C12 13.2757 12.2242 13.5 12.5 13.5C12.7758 13.5 13 13.2757 13 13C13 12.7243 12.7758 12.5 12.5 12.5Z" fill="currentColor"/>
<path d="M10 11.5C10.5523 11.5 11 11.0523 11 10.5C11 9.94772 10.5523 9.5 10 9.5C9.44772 9.5 9 9.94772 9 10.5C9 11.0523 9.44772 11.5 10 11.5Z" fill="currentColor"/>
<path d="M7.5 9.5C6.67285 9.5 6 8.8271 6 8C6 7.1729 6.67285 6.5 7.5 6.5C8.32715 6.5 9 7.1729 9 8C9 8.8271 8.32715 9.5 7.5 9.5ZM7.5 7.5C7.22425 7.5 7 7.7243 7 8C7 8.2757 7.22425 8.5 7.5 8.5C7.77575 8.5 8 8.2757 8 8C8 7.7243 7.77575 7.5 7.5 7.5Z" fill="currentColor"/>
<path d="M6.5 13.5H2C1.448 13.4994 1.00065 13.052 1 12.5V2.5C1.00065 1.948 1.448 1.50065 2 1.5H5.79285C6.05825 1.49925 6.3129 1.60475 6.5 1.79295L8.20715 3.5H14C14.552 3.50065 14.9993 3.948 15 4.5V8H14V4.5H7.79285L5.79285 2.5H2V12.5H6.5V13.5Z" fill="currentColor"/>
</svg>
