<svg viewBox="0 0 16 16" fill="none" xmlns="http://www.w3.org/2000/svg">
<rect width="16" height="16" fill="white" fill-opacity="0.01" style="mix-blend-mode:multiply"/>
<path d="M12.674 14.4371C10.6504 14.4371 9.88012 13.9082 9.88012 13.0229C9.87421 12.877 9.89723 12.7314 9.94788 12.5945C9.99852 12.4576 10.0758 12.332 10.1752 12.2251C10.2746 12.1182 10.3942 12.032 10.5271 11.9716C10.66 11.9111 10.8035 11.8776 10.9494 11.8729V11.7464C10.7244 11.6961 10.5241 11.5684 10.3834 11.3858C10.2427 11.2031 10.1704 10.9768 10.1792 10.7464C10.1792 10.1254 10.708 9.81501 11.2827 9.68851V9.64261C10.9446 9.49683 10.6589 9.25148 10.4638 8.93925C10.2686 8.62703 10.1733 8.26275 10.1904 7.89496C10.1904 6.67621 11.0527 5.85996 12.674 5.85996C13.0284 5.85396 13.3815 5.90447 13.72 6.00961V5.81421C13.7027 5.69745 13.7126 5.57828 13.7489 5.46598C13.7852 5.35368 13.847 5.25127 13.9293 5.16672C14.0117 5.08218 14.1124 5.01777 14.2237 4.97852C14.335 4.93926 14.4539 4.92622 14.5711 4.94041H15.5022V6.06711H14.226V6.22811C14.5224 6.39027 14.7669 6.63272 14.9317 6.92762C15.0964 7.22251 15.1747 7.5579 15.1574 7.89526C15.1574 9.10251 14.3066 9.90731 12.674 9.90731C12.3643 9.91161 12.0554 9.87684 11.7544 9.80381C11.6377 9.84123 11.5348 9.91266 11.459 10.0089C11.3832 10.1052 11.3378 10.222 11.3288 10.3442C11.3288 10.6432 11.5818 10.7926 12.1108 10.7926H13.72C15.1917 10.7926 15.824 11.425 15.824 12.5057C15.8242 13.7588 14.9736 14.4371 12.674 14.4371ZM13.4214 12.0686H11.375C11.2762 12.1385 11.1961 12.2318 11.142 12.3401C11.0878 12.4484 11.0612 12.5684 11.0644 12.6894C11.0644 13.1494 11.4092 13.4253 12.3291 13.4253H13.065C14.0193 13.4253 14.445 13.1838 14.445 12.678C14.445 12.2986 14.1687 12.0686 13.4214 12.0686ZM13.7549 7.98706V7.79146C13.7549 7.18211 13.3755 6.87146 12.674 6.87146C11.9726 6.87146 11.5932 7.18191 11.5932 7.79146V7.98706C11.5932 8.58481 11.9726 8.90706 12.674 8.90706C13.3754 8.90706 13.7549 8.58461 13.7549 7.98706Z" fill="currentColor"/>
<path d="M1.11719 3.97461H2.82999L4.88809 7.89526H4.93424L6.96924 3.97461H8.61354V11.9996H7.17624V6.23961H7.13034L6.50929 7.51561L4.86524 10.5506L3.22119 7.51561L2.60034 6.23961H2.55419V11.9996H1.11719V3.97461Z" fill="currentColor"/>
</svg>
