<svg viewBox="0 0 16 16" fill="none" xmlns="http://www.w3.org/2000/svg">
<rect width="16" height="16" fill="white" fill-opacity="0.01" style="mix-blend-mode:multiply"/>
<path d="M12.8579 10.9999H12.8004C12.6832 11.3422 12.4589 11.6377 12.1607 11.8426C11.8626 12.0476 11.5064 12.1512 11.1448 12.1381C9.6386 12.1381 8.7992 10.9999 8.7992 8.98779C8.7992 6.98719 9.6386 5.86049 11.1448 5.86049C11.5061 5.84116 11.8637 5.94092 12.1627 6.14445C12.4618 6.34798 12.6859 6.64404 12.8004 6.98719H12.8579V3.49219H14.3296V11.9999H12.8579V10.9999ZM12.8579 9.94204V8.03324C12.8579 7.44689 12.3175 7.06754 11.6161 7.06754C11.4363 7.0668 11.2585 7.104 11.0941 7.17669C10.9297 7.24938 10.7824 7.35594 10.662 7.4894C10.5416 7.62286 10.4507 7.78022 10.3952 7.95121C10.3398 8.12219 10.321 8.30295 10.3401 8.48169V9.51669C10.3212 9.69483 10.3401 9.87498 10.3958 10.0453C10.4515 10.2155 10.5426 10.3721 10.6632 10.5046C10.7837 10.6371 10.931 10.7426 11.0953 10.8141C11.2596 10.8855 11.4371 10.9214 11.6162 10.9193C12.3175 10.9191 12.8579 10.563 12.8579 9.94204Z" fill="currentColor"/>
<path d="M3.27893 11.9999H1.76123V3.97488H5.38293C6.84293 3.97488 7.75148 4.94068 7.75148 6.45838C7.792 6.95018 7.66689 7.44142 7.39605 7.85393C7.12522 8.26644 6.72421 8.57653 6.25683 8.73488L7.90103 11.9999H6.21103L4.71618 8.90713H3.27893V11.9999ZM5.23353 7.63088C5.35797 7.64591 5.4842 7.63304 5.60306 7.59322C5.72191 7.5534 5.83041 7.48761 5.92067 7.40064C6.01094 7.31367 6.08071 7.20769 6.12492 7.0904C6.16913 6.97311 6.18668 6.84744 6.17628 6.72253V6.19363C6.1864 6.06927 6.16857 5.94423 6.12408 5.82766C6.07959 5.7111 6.00958 5.60597 5.91918 5.51998C5.82878 5.43399 5.72029 5.36932 5.60164 5.33072C5.483 5.29211 5.35722 5.28055 5.23353 5.29688H3.27893V7.63088H5.23353Z" fill="currentColor"/>
</svg>
