<svg viewBox="0 0 16 17" fill="none" xmlns="http://www.w3.org/2000/svg">
<rect width="16" height="16" transform="translate(0 0.513672)" fill="white" fill-opacity="0.01" style="mix-blend-mode:multiply"/>
<path d="M14.9149 10.5137L15.0849 9.51367L12.4999 9.08867V7.01367C12.4999 6.97367 12.4999 6.93867 12.4999 6.89867L15.0299 6.21867L14.7749 5.25367L12.3599 5.89867C12.1955 5.27711 11.8998 4.69799 11.4927 4.20034C11.0856 3.70269 10.5766 3.29805 9.99992 3.01367V1.51367H8.99992V2.62867C8.34207 2.47533 7.65777 2.47533 6.99992 2.62867V1.51367H5.99992V3.01367C5.42152 3.30128 4.91182 3.71003 4.50546 4.21216C4.0991 4.71429 3.8056 5.29802 3.64492 5.92367L1.22992 5.25367L0.999922 6.21867L3.49992 6.89867C3.49992 6.93867 3.49992 6.97367 3.49992 7.01367V9.08867L0.919922 9.51367L1.07992 10.5137L3.49992 10.1037C3.51134 10.7207 3.65097 11.3285 3.90992 11.8887L1.64492 14.1587L2.35492 14.8687L4.44992 12.7687C4.87069 13.3088 5.40918 13.7458 6.02436 14.0464C6.63955 14.347 7.31522 14.5033 7.99992 14.5033C8.68462 14.5033 9.36029 14.347 9.97548 14.0464C10.5907 13.7458 11.1292 13.3088 11.5499 12.7687L13.6449 14.8687L14.3549 14.1587L12.0849 11.8887C12.3456 11.3289 12.4869 10.721 12.4999 10.1037L14.9149 10.5137ZM7.49992 13.4737C6.66762 13.3535 5.9064 12.9378 5.35551 12.3024C4.80463 11.6671 4.50091 10.8546 4.49992 10.0137V7.01367H7.49992V13.4737ZM4.64492 6.01367C4.85978 5.29065 5.30245 4.65639 5.90701 4.20535C6.51157 3.75432 7.24565 3.51065 7.99992 3.51065C8.75419 3.51065 9.48828 3.75432 10.0928 4.20535C10.6974 4.65639 11.1401 5.29065 11.3549 6.01367H4.64492ZM11.4999 10.0137C11.4989 10.8546 11.1952 11.6671 10.6443 12.3024C10.0934 12.9378 9.33222 13.3535 8.49992 13.4737V7.01367H11.4999V10.0137Z" fill="currentColor"/>
</svg>
