<svg viewBox="0 0 16 17" fill="none" xmlns="http://www.w3.org/2000/svg">
<rect width="16" height="16" transform="translate(0 0.513672)" fill="white" fill-opacity="0.01" style="mix-blend-mode:multiply"/>
<path d="M14 1.51367V5.51367H12L8 1.51367L4 5.51367H2V1.51367H1V5.51367C1 6.06492 1.4486 6.51367 2 6.51367H4L7.5 10.0137V13.5996L6.20705 12.3067L5.5 13.0137L8 15.5137L10.5 13.0137L9.79295 12.3067L8.5 13.5996V10.0137L12 6.51367H14C14.5514 6.51367 15 6.06492 15 5.51367V1.51367H14ZM8 9.09937L4.9143 6.01367L8 2.92797L11.0857 6.01367L8 9.09937Z" fill="currentColor"/>
</svg>
