<svg viewBox="0 0 16 16" fill="none" xmlns="http://www.w3.org/2000/svg">
<rect width="16" height="16" fill="white" fill-opacity="0.01" style="mix-blend-mode:multiply"/>
<path fill-rule="evenodd" clip-rule="evenodd" d="M5.99998 13H14.5C14.7761 13 15 12.7761 15 12.5V3.5C15 3.2239 14.7761 3 14.5 3H5.99998C5.86743 3 5.74023 3.05265 5.64648 3.1464L1.14648 7.64645C0.951175 7.84175 0.951175 8.1583 1.14648 8.3536L5.64648 12.8536C5.74023 12.9473 5.86743 13 5.99998 13ZM14 12H6.20713L2.20712 8L6.20713 4H14V12ZM12.5 5.70705L10.207 8L12.5 10.2929L11.7929 11L9.49997 8.70705L7.20712 11L6.49997 10.2929L8.79292 8L6.49997 5.70705L7.20712 5L9.49997 7.29295L11.7929 5L12.5 5.70705Z" fill="currentColor"/>
</svg>
