<svg viewBox="0 0 16 17" fill="none" xmlns="http://www.w3.org/2000/svg">
<rect width="16" height="16" transform="translate(0 0.513672)" fill="white" fill-opacity="0.01" style="mix-blend-mode:multiply"/>
<path d="M14.96 8.81867L13.46 5.31867C13.4217 5.2283 13.3577 5.15119 13.2759 5.09695C13.1941 5.04271 13.0981 5.01375 13 5.01367H11.5V4.01367C11.5 3.88106 11.4473 3.75389 11.3536 3.66012C11.2598 3.56635 11.1326 3.51367 11 3.51367H1.5C1.36739 3.51367 1.24021 3.56635 1.14645 3.66012C1.05268 3.75389 1 3.88106 1 4.01367V12.5137C1 12.6463 1.05268 12.7735 1.14645 12.8672C1.24021 12.961 1.36739 13.0137 1.5 13.0137H2.57C2.68514 13.4374 2.9365 13.8114 3.2853 14.078C3.6341 14.3447 4.06095 14.4892 4.5 14.4892C4.93905 14.4892 5.3659 14.3447 5.7147 14.078C6.0635 13.8114 6.31486 13.4374 6.43 13.0137H9.57C9.68514 13.4374 9.9365 13.8114 10.2853 14.078C10.6341 14.3447 11.0609 14.4892 11.5 14.4892C11.9391 14.4892 12.3659 14.3447 12.7147 14.078C13.0635 13.8114 13.3149 13.4374 13.43 13.0137H14.5C14.6326 13.0137 14.7598 12.961 14.8536 12.8672C14.9473 12.7735 15 12.6463 15 12.5137V9.01367C14.9999 8.94665 14.9863 8.88033 14.96 8.81867ZM11.5 6.01367H12.67L13.74 8.51367H11.5V6.01367ZM4.5 13.5137C4.30222 13.5137 4.10888 13.455 3.94443 13.3451C3.77998 13.2353 3.65181 13.0791 3.57612 12.8964C3.50043 12.7136 3.48063 12.5126 3.51921 12.3186C3.5578 12.1246 3.65304 11.9464 3.79289 11.8066C3.93275 11.6667 4.11093 11.5715 4.30491 11.5329C4.49889 11.4943 4.69996 11.5141 4.88268 11.5898C5.06541 11.6655 5.22159 11.7937 5.33147 11.9581C5.44135 12.1226 5.5 12.3159 5.5 12.5137C5.5 12.7789 5.39464 13.0332 5.20711 13.2208C5.01957 13.4083 4.76522 13.5137 4.5 13.5137ZM9.57 12.0137H6.43C6.31486 11.59 6.0635 11.216 5.7147 10.9493C5.3659 10.6826 4.93905 10.5382 4.5 10.5382C4.06095 10.5382 3.6341 10.6826 3.2853 10.9493C2.9365 11.216 2.68514 11.59 2.57 12.0137H2V4.51367H10.5V10.7937C10.2723 10.9258 10.073 11.1016 9.91338 11.311C9.75379 11.5203 9.6371 11.7591 9.57 12.0137ZM11.5 13.5137C11.3022 13.5137 11.1089 13.455 10.9444 13.3451C10.78 13.2353 10.6518 13.0791 10.5761 12.8964C10.5004 12.7136 10.4806 12.5126 10.5192 12.3186C10.5578 12.1246 10.653 11.9464 10.7929 11.8066C10.9327 11.6667 11.1109 11.5715 11.3049 11.5329C11.4989 11.4943 11.7 11.5141 11.8827 11.5898C12.0654 11.6655 12.2216 11.7937 12.3315 11.9581C12.4414 12.1226 12.5 12.3159 12.5 12.5137C12.5 12.7789 12.3946 13.0332 12.2071 13.2208C12.0196 13.4083 11.7652 13.5137 11.5 13.5137ZM14 12.0137H13.43C13.3194 11.5854 13.07 11.2059 12.7208 10.9345C12.3716 10.6631 11.9423 10.5151 11.5 10.5137V9.51367H14V12.0137Z" fill="currentColor"/>
</svg>
