<svg viewBox="0 0 16 16" fill="none" xmlns="http://www.w3.org/2000/svg">
<rect width="16" height="16" fill="white" fill-opacity="0.01" style="mix-blend-mode:multiply"/>
<path d="M14.7409 4.31189L9.74095 1.56189C9.66713 1.52129 9.58425 1.5 9.5 1.5C9.41575 1.5 9.33287 1.52129 9.25905 1.56189L4.25905 4.31189C4.18066 4.35505 4.11528 4.41846 4.06975 4.4955C4.02422 4.57255 4.00021 4.6604 4.00021 4.74989C4.00021 4.83938 4.02422 4.92723 4.06975 5.00427C4.11528 5.08131 4.18066 5.14472 4.25905 5.18789L9 7.79554V13.1542L7.4819 12.3195L7 13.1955L9.25905 14.4379C9.33285 14.4786 9.41574 14.4999 9.5 14.4999C9.58426 14.4999 9.66715 14.4786 9.74095 14.4379L14.7409 11.6879C14.8194 11.6448 14.8848 11.5814 14.9304 11.5043C14.9759 11.4273 15 11.3394 15 11.2499V4.74989C15 4.66038 14.9759 4.57251 14.9304 4.49547C14.8848 4.41842 14.8194 4.35502 14.7409 4.31189ZM9.5 2.57069L13.4624 4.74989L9.5 6.92909L5.5376 4.74989L9.5 2.57069ZM14 10.9542L10 13.1542V7.79554L14 5.59554V10.9542Z" fill="currentColor"/>
<path d="M1 7.99989H5V6.99989H1V7.99989Z" fill="currentColor"/>
<path d="M2 11.9999H6V10.9999H2V11.9999Z" fill="currentColor"/>
<path d="M3 9.99989H7V8.99989H3V9.99989Z" fill="currentColor"/>
</svg>
