<svg viewBox="0 0 16 17" fill="none" xmlns="http://www.w3.org/2000/svg">
<rect width="16" height="16" transform="translate(0 0.513672)" fill="white" fill-opacity="0.01" style="mix-blend-mode:multiply"/>
<path d="M8 12.0137H6V5.01367H8C8.53025 5.01427 9.03861 5.22517 9.41356 5.60012C9.7885 5.97506 9.9994 6.48342 10 7.01367V10.0137C9.99944 10.5439 9.78855 11.0523 9.4136 11.4273C9.03865 11.8022 8.53026 12.0131 8 12.0137V12.0137ZM7 11.0137H8C8.26512 11.0134 8.5193 10.9079 8.70677 10.7204C8.89424 10.533 8.9997 10.2788 9 10.0137V7.01367C8.99974 6.74854 8.89429 6.49434 8.70681 6.30686C8.51934 6.11938 8.26514 6.01394 8 6.01367H7V11.0137Z" fill="currentColor"/>
</svg>
