<svg viewBox="0 0 16 17" fill="none" xmlns="http://www.w3.org/2000/svg">
<rect width="16" height="16" transform="translate(0 0.513672)" fill="white" fill-opacity="0.01" style="mix-blend-mode:multiply"/>
<path d="M10.5 12.0137H8.5V5.01367H10.5C11.0303 5.01427 11.5386 5.22517 11.9136 5.60012C12.2885 5.97506 12.4994 6.48342 12.5 7.01367V10.0137C12.4994 10.5439 12.2886 11.0523 11.9136 11.4273C11.5386 11.8022 11.0303 12.0131 10.5 12.0137ZM9.5 11.0137H10.5C10.7651 11.0134 11.0193 10.9079 11.2068 10.7204C11.3942 10.533 11.4997 10.2788 11.5 10.0137V7.01367C11.4997 6.74854 11.3943 6.49434 11.2068 6.30686C11.0193 6.11938 10.7651 6.01394 10.5 6.01367H9.5V11.0137Z" fill="currentColor"/>
<path d="M3.5 6.01367H5V12.0137H6V6.01367H7.5V5.01367H3.5V6.01367Z" fill="currentColor"/>
</svg>
