<svg viewBox="0 0 16 17" fill="none" xmlns="http://www.w3.org/2000/svg">
<rect width="16" height="16" transform="translate(0 0.513672)" fill="white" fill-opacity="0.01" style="mix-blend-mode:multiply"/>
<path d="M4 2.51367V4.51367H2V2.51367H4ZM1 1.51367V5.51367H5V1.51367H1Z" fill="currentColor"/>
<path d="M9 4.01367V6.01367H7V4.01367H9ZM6 3.01367V7.01367H10V3.01367H6Z" fill="currentColor"/>
<path d="M4 8.51367V10.5137H2V8.51367H4ZM1 7.51367V11.5137H5V7.51367H1Z" fill="currentColor"/>
<path d="M11 5.51367V8.51367H8V11.5137H5V15.5137H15V5.51367H11ZM9 9.51367H11V11.5137H9V9.51367ZM8 14.5137H6V12.5137H8V14.5137ZM11 14.5137H9V12.5137H11V14.5137ZM14 14.5137H12V12.5137H14V14.5137ZM14 11.5137H12V9.51367H14V11.5137ZM12 8.51367V6.51367H14V8.51367H12Z" fill="currentColor"/>
</svg>
