<svg viewBox="0 0 16 17" fill="none" xmlns="http://www.w3.org/2000/svg">
<rect width="16" height="16" transform="translate(0 0.513672)" fill="white" fill-opacity="0.01" style="mix-blend-mode:multiply"/>
<path d="M15 1.51367H13V3.51367H15V1.51367Z" fill="currentColor"/>
<path d="M15 4.51367H13V6.51367H15V4.51367Z" fill="currentColor"/>
<path d="M12 1.51367H10V3.51367H12V1.51367Z" fill="currentColor"/>
<path d="M12 4.51367H10V6.51367H12V4.51367Z" fill="currentColor"/>
<path d="M14 10.5137H7V11.5137H8V13.5137H7V14.5137H11.5V13.5137H9V11.5137H14C14.2652 11.5137 14.5196 11.4083 14.7071 11.2208C14.8946 11.0333 15 10.7789 15 10.5137V7.51367H14V10.5137Z" fill="currentColor"/>
<path d="M3 3.51367H9V2.51367H3C2.7348 2.51367 2.4804 2.61902 2.2929 2.80657C2.10535 2.99407 2 3.24847 2 3.51367V6.51367H3V3.51367Z" fill="currentColor"/>
<path d="M5 7.51367H2C1.7348 7.51367 1.4804 7.61902 1.2929 7.80657C1.10535 7.99407 1 8.24847 1 8.51367V14.5137C1 14.7789 1.10535 15.0333 1.2929 15.2208C1.4804 15.4083 1.7348 15.5137 2 15.5137H5C5.2652 15.5137 5.5196 15.4083 5.7071 15.2208C5.89465 15.0333 6 14.7789 6 14.5137V8.51367C6 8.24847 5.89465 7.99407 5.7071 7.80657C5.5196 7.61902 5.2652 7.51367 5 7.51367ZM5 14.5137H2V8.51367H5V14.5137Z" fill="currentColor"/>
</svg>
