<svg viewBox="0 0 16 17" fill="none" xmlns="http://www.w3.org/2000/svg">
<rect width="16" height="16" transform="translate(0 0.513672)" fill="white" fill-opacity="0.01" style="mix-blend-mode:multiply"/>
<path d="M5 15.5137H2C1.73478 15.5137 1.48043 15.4083 1.29289 15.2208C1.10536 15.0332 1 14.7789 1 14.5137V8.51367C1 8.24846 1.10536 7.9941 1.29289 7.80657C1.48043 7.61903 1.73478 7.51367 2 7.51367H5C5.26522 7.51367 5.51957 7.61903 5.70711 7.80657C5.89464 7.9941 6 8.24846 6 8.51367V14.5137C6 14.7789 5.89464 15.0332 5.70711 15.2208C5.51957 15.4083 5.26522 15.5137 5 15.5137ZM2 8.51367V14.5137H5V8.51367H2Z" fill="currentColor"/>
<path d="M14 2.51367H3C2.73478 2.51367 2.48043 2.61903 2.29289 2.80657C2.10536 2.9941 2 3.24846 2 3.51367V6.51367H3V3.51367H14V10.5137H7V11.5137H8V13.5137H7V14.5137H11.5V13.5137H9V11.5137H14C14.2652 11.5137 14.5196 11.4083 14.7071 11.2208C14.8946 11.0332 15 10.7789 15 10.5137V3.51367C15 3.24846 14.8946 2.9941 14.7071 2.80657C14.5196 2.61903 14.2652 2.51367 14 2.51367Z" fill="currentColor"/>
</svg>
