<svg viewBox="0 0 16 16" fill="none" xmlns="http://www.w3.org/2000/svg">
<rect width="16" height="16" fill="white" fill-opacity="0.01" style="mix-blend-mode:multiply"/>
<path d="M14.6953 7.26345L8.73655 1.3047C8.53355 1.1016 8.2667 1 8 1C7.7333 1 7.46645 1.10155 7.26345 1.3047L1.3047 7.26345C1.1016 7.46655 1 7.7332 1 8C1 8.2668 1.10155 8.53345 1.3047 8.73655L7.26345 14.6953C7.46645 14.8984 7.7333 15 8 15C8.2667 15 8.53355 14.8985 8.73655 14.6953L14.6953 8.73655C14.8984 8.53345 15 8.2668 15 8C15 7.7332 14.8985 7.46655 14.6953 7.26345ZM8 14.0178L1.9823 8L8 1.9822L14.0178 8L8 14.0178Z" fill="currentColor"/>
</svg>
