<svg viewBox="0 0 16 17" fill="none" xmlns="http://www.w3.org/2000/svg">
<rect width="16" height="16" transform="translate(0 0.513672)" fill="white" fill-opacity="0.01" style="mix-blend-mode:multiply"/>
<path d="M14 13.5137H9.40785C9.33329 13.3045 9.21315 13.1145 9.05614 12.9575C8.89912 12.8005 8.70916 12.6803 8.5 12.6057V10.0137H12C12.2651 10.0133 12.5193 9.90788 12.7067 9.72041C12.8942 9.53295 12.9997 9.27879 13 9.01367V2.51367C12.9997 2.24856 12.8942 1.9944 12.7067 1.80693C12.5193 1.61947 12.2651 1.514 12 1.51367H4C3.73489 1.514 3.48072 1.61947 3.29326 1.80693C3.10579 1.9944 3.00033 2.24856 3 2.51367V9.01367C3.00033 9.27879 3.10579 9.53295 3.29326 9.72041C3.48072 9.90788 3.73489 10.0133 4 10.0137H7.5V12.6057C7.29084 12.6803 7.10088 12.8005 6.94386 12.9575C6.78685 13.1145 6.66671 13.3045 6.59215 13.5137H2V14.5137H6.59215C6.69404 14.8058 6.8843 15.0591 7.13656 15.2383C7.38882 15.4174 7.69058 15.5137 8 15.5137C8.30942 15.5137 8.61118 15.4174 8.86344 15.2383C9.1157 15.0591 9.30596 14.8058 9.40785 14.5137H14V13.5137ZM12 6.51367H4V5.01367H12V6.51367ZM12 2.51367V4.01367H4V2.51367H12ZM4 7.51367H12V9.01367H4V7.51367ZM8 14.5137C7.90111 14.5137 7.80444 14.4843 7.72221 14.4294C7.63999 14.3745 7.5759 14.2964 7.53806 14.205C7.50022 14.1137 7.49031 14.0131 7.50961 13.9161C7.5289 13.8191 7.57652 13.73 7.64645 13.6601C7.71637 13.5902 7.80546 13.5426 7.90245 13.5233C7.99945 13.504 8.09998 13.5139 8.19134 13.5517C8.2827 13.5896 8.36079 13.6537 8.41574 13.7359C8.47068 13.8181 8.5 13.9148 8.5 14.0137C8.49989 14.1462 8.44718 14.2734 8.35344 14.3671C8.25969 14.4609 8.13258 14.5136 8 14.5137V14.5137Z" fill="currentColor"/>
</svg>
