<svg viewBox="0 0 16 17" fill="none" xmlns="http://www.w3.org/2000/svg">
<rect width="16" height="16" transform="translate(0 0.513672)" fill="white" fill-opacity="0.01" style="mix-blend-mode:multiply"/>
<path d="M9 10.5137H8V14.5137H9V10.5137Z" fill="currentColor"/>
<path d="M11.5 2.51367C10.5721 2.5147 9.68242 2.88378 9.02627 3.53994C8.37011 4.19609 8.00103 5.08573 8 6.01367V7.51367H9V6.01367C9 5.51922 9.14662 5.03587 9.42133 4.62475C9.69603 4.21362 10.0865 3.89319 10.5433 3.70397C11.0001 3.51475 11.5028 3.46525 11.9877 3.56171C12.4727 3.65817 12.9181 3.89627 13.2678 4.2459C13.6174 4.59554 13.8555 5.04099 13.952 5.52595C14.0484 6.0109 13.9989 6.51357 13.8097 6.97038C13.6205 7.4272 13.3 7.81764 12.8889 8.09235C12.4778 8.36705 11.9945 8.51367 11.5 8.51367H2.91405L5.20705 6.22072L4.5 5.51367L1 9.01367L4.5 12.5137L5.20705 11.8066L2.91405 9.51367H11.5C12.4283 9.51367 13.3185 9.14492 13.9749 8.48855C14.6313 7.83217 15 6.94193 15 6.01367C15 5.08541 14.6313 4.19518 13.9749 3.5388C13.3185 2.88242 12.4283 2.51367 11.5 2.51367Z" fill="currentColor"/>
</svg>
