<svg viewBox="0 0 16 17" fill="none" xmlns="http://www.w3.org/2000/svg">
<rect width="16" height="16" transform="translate(0 0.513672)" fill="white" fill-opacity="0.01" style="mix-blend-mode:multiply"/>
<path d="M14 1.51367H2C1.73478 1.51367 1.48043 1.61903 1.29289 1.80657C1.10536 1.9941 1 2.24846 1 2.51367V14.5137C1 14.7789 1.10536 15.0332 1.29289 15.2208C1.48043 15.4083 1.73478 15.5137 2 15.5137H14C14.2652 15.5137 14.5196 15.4083 14.7071 15.2208C14.8946 15.0332 15 14.7789 15 14.5137V2.51367C15 2.24846 14.8946 1.9941 14.7071 1.80657C14.5196 1.61903 14.2652 1.51367 14 1.51367ZM8.9392 8.24607L10.2678 9.57422C10.5007 9.80585 10.6853 10.0814 10.8109 10.3848C10.9366 10.6882 11.0009 11.0136 11 11.342V13.5137H10V11.342C10.0005 11.145 9.96197 10.9498 9.88659 10.7677C9.8112 10.5856 9.70047 10.4203 9.5608 10.2813L8.2322 8.95312C8.148 8.86468 8.07039 8.7702 8 8.67042C7.92961 8.7702 7.852 8.86468 7.7678 8.95312L6.4392 10.2815C6.29952 10.4204 6.18878 10.5857 6.11339 10.7678C6.038 10.9498 5.99946 11.145 6 11.342V13.5137H5V11.342C4.99912 11.0136 5.06338 10.6882 5.18906 10.3848C5.31474 10.0814 5.49935 9.80585 5.7322 9.57422L7.0608 8.24587C7.20048 8.10691 7.31122 7.94162 7.38661 7.75958C7.462 7.57754 7.50054 7.38236 7.5 7.18532V4.92772L5.20705 7.22072L4.5 6.51367L8 3.01367L11.5 6.51367L10.7929 7.22072L8.5 4.92772V7.18532C8.49948 7.38238 8.53803 7.57759 8.61341 7.75966C8.6888 7.94173 8.79953 8.10706 8.9392 8.24607Z" fill="currentColor"/>
</svg>
