<svg viewBox="0 0 16 17" fill="none" xmlns="http://www.w3.org/2000/svg">
<rect width="16" height="16" transform="translate(0 0.513672)" fill="white" fill-opacity="0.01" style="mix-blend-mode:multiply"/>
<path d="M8 11.5137C8.82843 11.5137 9.5 10.8421 9.5 10.0137C9.5 9.18524 8.82843 8.51367 8 8.51367C7.17157 8.51367 6.5 9.18524 6.5 10.0137C6.5 10.8421 7.17157 11.5137 8 11.5137Z" fill="currentColor"/>
<path d="M14 1.51367H2C1.73478 1.51367 1.48043 1.61903 1.29289 1.80657C1.10536 1.9941 1 2.24846 1 2.51367V14.5137C1 14.7789 1.10536 15.0332 1.29289 15.2208C1.48043 15.4083 1.73478 15.5137 2 15.5137H14C14.2652 15.5137 14.5196 15.4083 14.7071 15.2208C14.8946 15.0332 15 14.7789 15 14.5137V2.51367C15 2.24846 14.8946 1.9941 14.7071 1.80657C14.5196 1.61903 14.2652 1.51367 14 1.51367ZM10.7929 6.72072L8.5 4.42772V7.56422C9.06455 7.67951 9.57195 7.98627 9.93636 8.43261C10.3008 8.87895 10.4998 9.43747 10.4998 10.0137C10.4998 10.5899 10.3008 11.1484 9.93636 11.5947C9.57195 12.0411 9.06455 12.3478 8.5 12.4631V14.5137H7.5V12.4631C6.93545 12.3478 6.42805 12.0411 6.06364 11.5947C5.69923 11.1484 5.50019 10.5899 5.50019 10.0137C5.50019 9.43747 5.69923 8.87895 6.06364 8.43261C6.42805 7.98627 6.93545 7.67951 7.5 7.56422V4.42772L5.20705 6.72072L4.5 6.01367L8 2.51367L11.5 6.01367L10.7929 6.72072Z" fill="currentColor"/>
</svg>
