<svg viewBox="0 0 16 16" fill="none" xmlns="http://www.w3.org/2000/svg">
<rect width="16" height="16" fill="white" fill-opacity="0.01" style="mix-blend-mode:multiply"/>
<path d="M14.9998 9.9998H9.99979V10.9998H14.9998V9.9998Z" fill="currentColor"/>
<path d="M12.9998 11.9998H9.99979V12.9998H12.9998V11.9998Z" fill="currentColor"/>
<path d="M14.9998 8.4998V7.9998C14.9985 6.54769 14.5451 5.132 13.7028 3.94921C12.8604 2.76641 11.6707 1.87516 10.2988 1.39914C8.92695 0.923119 7.44092 0.885939 6.04696 1.29276C4.653 1.69957 3.42024 2.53021 2.51976 3.6694C1.61928 4.80859 1.09573 6.19984 1.02177 7.65006C0.947818 9.10029 1.32712 10.5376 2.10704 11.7625C2.88697 12.9873 4.02883 13.9391 5.37417 14.4856C6.71952 15.0321 8.20162 15.1463 9.61479 14.8123L9.3848 13.8391C8.93091 13.9461 8.46613 14.0001 7.9998 13.9998C7.9048 13.9998 7.8123 13.9905 7.7183 13.9861C6.63337 12.3597 6.04113 10.4547 6.01275 8.4998H14.9998ZM13.979 7.4998H10.9873C10.9317 5.65758 10.4575 3.8522 9.6005 2.2205C10.7816 2.54903 11.834 3.2308 12.6166 4.17441C13.3992 5.11802 13.8746 6.27834 13.979 7.4998ZM8.2813 2.01345C9.36622 3.63986 9.95846 5.54494 9.98685 7.4998H6.01275C6.04113 5.54494 6.63337 3.63986 7.7183 2.01345C7.8123 2.0091 7.9048 1.9998 7.9998 1.9998C8.0948 1.9998 8.1873 2.0091 8.2813 2.01345ZM6.3991 2.2205C5.54212 3.8522 5.06786 5.65758 5.01225 7.4998H2.02055C2.125 6.27834 2.60041 5.11802 3.38302 4.17441C4.16562 3.2308 5.21802 2.54903 6.3991 2.2205ZM6.3991 13.7791C5.21802 13.4506 4.16562 12.7688 3.38302 11.8252C2.60041 10.8816 2.125 9.72125 2.02055 8.4998H5.01225C5.06786 10.342 5.54212 12.1474 6.3991 13.7791Z" fill="currentColor"/>
</svg>
