<svg viewBox="0 0 16 16" fill="none" xmlns="http://www.w3.org/2000/svg">
<rect width="16" height="16" fill="white" fill-opacity="0.01" style="mix-blend-mode:multiply"/>
<path d="M15 9.00017V8.00017H12V13.0002H13V11.0002H14.5V10.0002H13V9.00017H15Z" fill="currentColor"/>
<path d="M9.5 13.0002H7.5V8.00017H9.5C9.89769 8.00061 10.279 8.15878 10.5602 8.43999C10.8414 8.7212 10.9996 9.10248 11 9.50017V11.5002C10.9996 11.8979 10.8414 12.2791 10.5602 12.5603C10.279 12.8416 9.89769 12.9997 9.5 13.0002ZM8.5 12.0002H9.5C9.63256 12 9.75966 11.9473 9.85339 11.8536C9.94713 11.7598 9.99985 11.6327 10 11.5002V9.50017C9.99985 9.36761 9.94713 9.24052 9.85339 9.14678C9.75966 9.05304 9.63256 9.00032 9.5 9.00017H8.5V12.0002Z" fill="currentColor"/>
<path d="M5.5 8.00017H3V13.0002H4V11.5002H5.5C5.76511 11.4998 6.01925 11.3943 6.20671 11.2069C6.39417 11.0194 6.49964 10.7653 6.5 10.5002V9.00017C6.4997 8.73505 6.39424 8.48087 6.20677 8.2934C6.0193 8.10593 5.76512 8.00048 5.5 8.00017ZM4 10.5002V9.00017H5.5L5.5005 10.5002H4Z" fill="currentColor"/>
<path d="M11 7.00017V5.00017C11.0018 4.93446 10.9893 4.86913 10.9634 4.80871C10.9375 4.74828 10.8988 4.6942 10.85 4.65017L7.35 1.15017C7.30599 1.10134 7.2519 1.06263 7.19147 1.03674C7.13105 1.01084 7.06572 0.998364 7 1.00017H2C1.73502 1.00095 1.48112 1.10656 1.29375 1.29392C1.10638 1.48129 1.00078 1.73519 1 2.00017V14.0002C1 14.2654 1.10536 14.5197 1.29289 14.7073C1.48043 14.8948 1.73478 15.0002 2 15.0002H10V14.0002H2V2.00017H6V5.00017C6.00078 5.26515 6.10639 5.51905 6.29375 5.70642C6.48112 5.89379 6.73502 5.99939 7 6.00017H10V7.00017H11ZM7 5.00017V2.20017L9.8 5.00017H7Z" fill="currentColor"/>
</svg>
