<svg viewBox="0 0 16 16" fill="none" xmlns="http://www.w3.org/2000/svg">
<rect width="16" height="16" fill="white" fill-opacity="0.01" style="mix-blend-mode:multiply"/>
<path d="M11 13.0002C11.5523 13.0002 12 12.5525 12 12.0002C12 11.4479 11.5523 11.0002 11 11.0002C10.4477 11.0002 10 11.4479 10 12.0002C10 12.5525 10.4477 13.0002 11 13.0002Z" fill="currentColor"/>
<path d="M14.8884 11.7394C14.5795 10.9524 14.0464 10.2734 13.3552 9.78646C12.664 9.29954 11.8451 9.02615 11 9.00017C10.1549 9.02615 9.33604 9.29954 8.64484 9.78646C7.95365 10.2734 7.42052 10.9524 7.11155 11.7394L7 12.0002L7.11155 12.2609C7.42052 13.0479 7.95365 13.727 8.64484 14.2139C9.33604 14.7008 10.1549 14.9742 11 15.0002C11.8451 14.9742 12.664 14.7008 13.3552 14.2139C14.0464 13.727 14.5795 13.0479 14.8884 12.2609L15 12.0002L14.8884 11.7394ZM11 14.0002C10.6044 14.0002 10.2178 13.8829 9.88886 13.6631C9.55996 13.4433 9.30362 13.131 9.15224 12.7655C9.00087 12.4001 8.96126 11.998 9.03843 11.61C9.1156 11.222 9.30608 10.8657 9.58579 10.586C9.86549 10.3063 10.2219 10.1158 10.6098 10.0386C10.9978 9.96143 11.3999 10.001 11.7654 10.1524C12.1308 10.3038 12.4432 10.5601 12.6629 10.889C12.8827 11.2179 13 11.6046 13 12.0002C12.9994 12.5304 12.7885 13.0388 12.4136 13.4137C12.0386 13.7887 11.5303 13.9996 11 14.0002Z" fill="currentColor"/>
<path d="M6 14.0002H4V2.00017H8V5.00017C8.00077 5.26515 8.10637 5.51906 8.29374 5.70643C8.48111 5.8938 8.73502 5.99941 9 6.00017H12V8.00017H13V5.00017C13.0018 4.93446 12.9893 4.86913 12.9634 4.80871C12.9375 4.74828 12.8988 4.6942 12.85 4.65017L9.35 1.15017C9.30599 1.10134 9.2519 1.06263 9.19147 1.03674C9.13104 1.01084 9.06572 0.998364 9 1.00017H4C3.73502 1.00094 3.48111 1.10654 3.29374 1.29391C3.10637 1.48128 3.00077 1.73519 3 2.00017V14.0002C3.00077 14.2652 3.10637 14.5191 3.29374 14.7064C3.48111 14.8938 3.73502 14.9994 4 15.0002H6V14.0002ZM9 2.20017L11.8 5.00017H9V2.20017Z" fill="currentColor"/>
</svg>
