<svg viewBox="0 0 16 16" fill="none" xmlns="http://www.w3.org/2000/svg">
<rect width="16" height="16" fill="white" fill-opacity="0.01" style="mix-blend-mode:multiply"/>
<path d="M2.49995 12C1.6716 12 0.999954 12.6717 0.999954 13.5C0.999954 14.3284 1.6716 15 2.49995 15C3.3283 15 3.99995 14.3284 3.99995 13.5C3.99995 12.6717 3.3283 12 2.49995 12ZM2.49995 14C2.22385 14 1.99995 13.7761 1.99995 13.5C1.99995 13.2239 2.22385 13 2.49995 13C2.77605 13 2.99995 13.2239 2.99995 13.5C2.99995 13.7761 2.77605 14 2.49995 14Z" fill="currentColor"/>
<path d="M7.99995 12C7.1716 12 6.49995 12.6717 6.49995 13.5C6.49995 14.3284 7.1716 15 7.99995 15C8.8283 15 9.49995 14.3284 9.49995 13.5C9.49995 12.6717 8.8283 12 7.99995 12ZM7.99995 14C7.72385 14 7.49995 13.7761 7.49995 13.5C7.49995 13.2239 7.72385 13 7.99995 13C8.27605 13 8.49995 13.2239 8.49995 13.5C8.49995 13.7761 8.27605 14 7.99995 14Z" fill="currentColor"/>
<path d="M13.5 12C12.6716 12 12 12.6717 12 13.5C12 14.3284 12.6716 15 13.5 15C14.3283 15 15 14.3284 15 13.5C15 12.6717 14.3283 12 13.5 12ZM13.5 14C13.2239 14 13 13.7761 13 13.5C13 13.2239 13.2239 13 13.5 13C13.7761 13 14 13.2239 14 13.5C14 13.7761 13.7761 14 13.5 14Z" fill="currentColor"/>
<path d="M14.793 8.793L14 9.58595V8C14 6.2229 12.6677 4.75415 10.9501 4.53225C10.9812 4.3594 11 4.1819 11 4C11 2.34325 9.65685 1 8 1C6.34315 1 5 2.34325 5 4C5 4.1819 5.0188 4.3594 5.04995 4.53225C3.3323 4.75415 2 6.2229 2 8V9.5857L1.20705 8.793L0.5 9.50005L2.5 11.5L4.5 9.50005L3.79295 8.793L3 9.58595V8C3 6.65235 4.07395 5.5576 5.41015 5.50905C5.8501 6.2622 6.6074 6.80495 7.5 6.9551V9.58595L6.70705 8.793L6 9.50005L8 11.5L10 9.50005L9.29295 8.793L8.5 9.58595V6.9551C9.3926 6.80495 10.1499 6.26225 10.5899 5.50905C11.9261 5.55765 13 6.65235 13 8V9.5857L12.2071 8.793L11.5 9.50005L13.5 11.5L15.5 9.50005L14.793 8.793ZM8 6.00005C6.8972 6.00005 6 5.10285 6 4.00005C6 2.89725 6.8972 2.00005 8 2.00005C9.1028 2.00005 10 2.89725 10 4.00005C10 5.10285 9.1028 6.00005 8 6.00005Z" fill="currentColor"/>
</svg>
