<svg viewBox="0 0 16 16" fill="none" xmlns="http://www.w3.org/2000/svg">
<rect width="16" height="16" fill="white" fill-opacity="0.01" style="mix-blend-mode:multiply"/>
<path d="M4.99984 3L5.70684 2.293L7.49984 4.086V0H8.49984V4.086L10.2928 2.293L10.9998 3L7.99984 6L4.99984 3Z" fill="currentColor"/>
<path d="M10.9998 8C11.0004 7.60596 10.923 7.2157 10.7722 6.85164C10.6214 6.48759 10.4002 6.15693 10.1212 5.87865L7.99984 8L5.87849 5.87865C5.52965 6.22751 5.27222 6.65701 5.12901 7.12911C4.98581 7.60122 4.96124 8.10136 5.05749 8.58523C5.15374 9.0691 5.36784 9.52176 5.68081 9.90312C5.99379 10.2845 6.39599 10.5828 6.85178 10.7716C7.30758 10.9604 7.8029 11.0338 8.29387 10.9855C8.78485 10.9371 9.25632 10.7685 9.66652 10.4944C10.0767 10.2203 10.413 9.84926 10.6456 9.41417C10.8782 8.97908 10.9998 8.49335 10.9998 8Z" fill="currentColor"/>
<path d="M14.9998 8C15.0004 7.0808 14.8194 6.17054 14.4671 5.3215C14.1149 4.47246 13.5984 3.70137 12.9473 3.0525L12.2405 3.7594C13.0802 4.5983 13.6522 5.66738 13.8842 6.83142C14.1161 7.99546 13.9976 9.20214 13.5436 10.2988C13.0897 11.3955 12.3206 12.3329 11.3338 12.9924C10.347 13.6519 9.18676 14.004 7.99984 14.004C6.81292 14.004 5.65266 13.6519 4.66585 12.9924C3.67904 12.3329 2.91 11.3955 2.45604 10.2988C2.00208 9.20214 1.88358 7.99546 2.11553 6.83142C2.34749 5.66738 2.91948 4.5983 3.75914 3.7594L3.05234 3.0525C2.23846 3.86638 1.63786 4.86842 1.30376 5.96987C0.969667 7.07132 0.912381 8.23816 1.13698 9.36704C1.36158 10.4959 1.86113 11.552 2.59138 12.4417C3.32163 13.3313 4.26003 14.0272 5.32346 14.4676C6.38689 14.9079 7.54252 15.0792 8.68796 14.9663C9.83341 14.8533 10.9333 14.4596 11.8902 13.82C12.8472 13.1804 13.6316 12.3147 14.174 11.2995C14.7164 10.2843 15.0001 9.151 14.9998 8Z" fill="currentColor"/>
</svg>
