<svg viewBox="0 0 16 16" fill="none" xmlns="http://www.w3.org/2000/svg">
<rect width="16" height="16" fill="white" fill-opacity="0.01" style="mix-blend-mode:multiply"/>
<path d="M11.5 5.20705L13 3.70705L12.2929 3L10.6465 4.6465C10.5527 4.74025 10.5 4.86745 10.5 5V7H6.96285L7.53465 15H11.9653L12.5371 7H11.5V5.20705ZM11.0346 14H8.4653L8.0371 8H11.4629L11.0346 14Z" fill="currentColor"/>
<path d="M8 3.52565V2C8 1.7239 7.7761 1.5 7.5 1.5H4.5C4.2239 1.5 4 1.7239 4 2V3.52565C3.36145 4.0962 3 4.89355 3 5.75V14.5C3 14.7761 3.2239 15 3.5 15H6V14H4V5.75C4 4.572 5 4.01 5 4.01V2.5H7V4.01C7 4.01 8 4.572 8 5.75V6H9V5.75C9 4.89355 8.63855 4.0962 8 3.52565Z" fill="currentColor"/>
</svg>
