<svg viewBox="0 0 16 17" fill="none" xmlns="http://www.w3.org/2000/svg">
<rect width="16" height="16" transform="translate(0 0.513672)" fill="white" fill-opacity="0.01" style="mix-blend-mode:multiply"/>
<path d="M8 1.51367C6.61553 1.51367 5.26216 1.92421 4.11101 2.69338C2.95987 3.46255 2.06266 4.55581 1.53285 5.83489C1.00303 7.11397 0.86441 8.52144 1.13451 9.8793C1.4046 11.2372 2.07129 12.4845 3.05026 13.4634C4.02922 14.4424 5.2765 15.1091 6.63437 15.3792C7.99224 15.6493 9.3997 15.5106 10.6788 14.9808C11.9579 14.451 13.0511 13.5538 13.8203 12.4027C14.5895 11.2515 15 9.89814 15 8.51367C14.9979 6.6578 14.2597 4.87854 12.9474 3.56623C11.6351 2.25393 9.85588 1.51576 8 1.51367ZM2 8.51367C2.00085 7.56281 2.22802 6.62581 2.66274 5.78014C3.09746 4.93447 3.72724 4.20443 4.5 3.65037V5.01367C4.5 5.14628 4.55268 5.27346 4.64645 5.36723C4.74022 5.46099 4.8674 5.51367 5 5.51367H6.69105C6.78389 5.51366 6.8749 5.48781 6.95387 5.439C7.03285 5.39019 7.09668 5.32036 7.1382 5.23732L7.5 4.51367H9.5V7.51367H6.61805C6.54042 7.51366 6.46385 7.53172 6.3944 7.56642L4.77635 8.37547C4.6933 8.41701 4.62345 8.48086 4.57464 8.55986C4.52583 8.63887 4.49998 8.72991 4.5 8.82277V10.6751C4.49998 10.775 4.52992 10.8727 4.58596 10.9555C4.64199 11.0382 4.72154 11.1023 4.81435 11.1394L7 12.0137L7.41175 14.4837C5.93031 14.336 4.55647 13.6435 3.55658 12.5405C2.55669 11.4375 2.00198 10.0025 2 8.51367ZM11 13.7017V12.0137L11.8773 10.6978C11.9159 10.6398 11.942 10.5744 11.9539 10.5057C11.9658 10.4371 11.9633 10.3667 11.9464 10.2991L11.5 8.51367V7.01367H13.8025C14.1376 8.28147 14.0445 9.62444 13.5377 10.8339C13.0309 12.0433 12.1388 13.0515 11 13.7017Z" fill="currentColor"/>
</svg>
