<svg viewBox="0 0 16 17" fill="none" xmlns="http://www.w3.org/2000/svg">
<rect width="16" height="16" transform="translate(0 0.513672)" fill="white" fill-opacity="0.01" style="mix-blend-mode:multiply"/>
<path d="M8 1.51367C6.61553 1.51367 5.26216 1.92421 4.11101 2.69338C2.95987 3.46255 2.06266 4.55581 1.53285 5.83489C1.00303 7.11397 0.86441 8.52144 1.13451 9.8793C1.4046 11.2372 2.07129 12.4845 3.05026 13.4634C4.02922 14.4424 5.2765 15.1091 6.63437 15.3792C7.99224 15.6493 9.3997 15.5106 10.6788 14.9808C11.9579 14.451 13.0511 13.5538 13.8203 12.4027C14.5895 11.2515 15 9.89814 15 8.51367C14.9979 6.6578 14.2597 4.87854 12.9474 3.56623C11.6351 2.25393 9.85588 1.51576 8 1.51367ZM2 8.51367C2.00137 7.83189 2.11975 7.1554 2.35 6.51367H5L7.5 8.51367L6.1 10.3601C6.0278 10.4564 5.99275 10.5755 6.00129 10.6956C6.00983 10.8156 6.06139 10.9286 6.1465 11.0137L7.5 12.5137V14.4883C6.0017 14.3618 4.60535 13.6779 3.58697 12.5716C2.56859 11.4654 2.00229 10.0173 2 8.51367ZM10.7174 13.856L11.9903 10.0064C12.0085 9.91533 12.001 9.82102 11.9686 9.734C11.9362 9.64698 11.8803 9.57069 11.807 9.51367L7.5 6.01367L8.5 5.01367H11.1397C11.2446 5.01368 11.3469 4.98067 11.432 4.91933C11.5171 4.85799 11.5808 4.77141 11.614 4.67187L11.8617 3.92867C12.6202 4.56526 13.209 5.38004 13.5753 6.30005C13.9416 7.22006 14.074 8.21657 13.9606 9.2003C13.8472 10.184 13.4916 11.1243 12.9256 11.9368C12.3596 12.7494 11.6009 13.4087 10.7174 13.856Z" fill="currentColor"/>
</svg>
