<svg viewBox="0 0 16 17" fill="none" xmlns="http://www.w3.org/2000/svg">
<rect width="16" height="16" transform="translate(0 0.513672)" fill="white" fill-opacity="0.01" style="mix-blend-mode:multiply"/>
<path d="M8.30615 1.62062C8.21742 1.55132 8.10806 1.51367 7.99547 1.51367C7.88289 1.51367 7.77353 1.55132 7.6848 1.62062L0.5 7.22337L1.12135 8.00927L2 7.32422V13.5137C2.00054 13.7787 2.10607 14.0328 2.29349 14.2202C2.48091 14.4076 2.73495 14.5131 3 14.5137H13C13.2651 14.5132 13.5191 14.4077 13.7066 14.2202C13.894 14.0328 13.9995 13.7787 14 13.5137V7.32867L14.8786 8.01367L15.5 7.22777L8.30615 1.62062ZM3 6.54442L7.5 3.03867V6.72057L9.229 8.44957L5.8618 10.8548L7.1909 13.5137H3V6.54442ZM13 13.5137H8.3091L7.1382 11.1724L10.771 8.57762L8.5 6.30662V3.03957L13 6.54957V13.5137Z" fill="currentColor"/>
</svg>
