<svg viewBox="0 0 16 17" fill="none" xmlns="http://www.w3.org/2000/svg">
<rect width="16" height="16" transform="translate(0 0.513672)" fill="white" fill-opacity="0.01" style="mix-blend-mode:multiply"/>
<path d="M15 8.51359C15.0035 6.97161 14.4988 5.47146 13.564 4.24511C12.6292 3.01876 11.3165 2.13454 9.82871 1.72918C8.34096 1.32382 6.7611 1.4199 5.33344 2.00256C3.90578 2.58522 2.70984 3.62201 1.93058 4.95259C1.15131 6.28318 0.832115 7.83344 1.02236 9.36364C1.2126 10.8938 1.90169 12.3187 2.98305 13.418C4.06441 14.5173 5.47781 15.2296 7.00468 15.445C8.53156 15.6603 10.0868 15.3666 11.43 14.6093L11.4883 14.622L11.5007 14.5663C12.5634 13.9527 13.4461 13.0705 14.0603 12.0082C14.6745 10.9458 14.9985 9.7407 15 8.51359ZM2.00004 8.51359C2.00198 8.00724 2.06835 7.50319 2.19754 7.01359H4.31914L6.81504 9.09359L5.86044 10.3665C5.71688 10.5594 5.64728 10.7974 5.6643 11.0373C5.68132 11.2772 5.78383 11.5029 5.95319 11.6736L7.00004 12.7206V14.4232C5.60344 14.1862 4.3356 13.4631 3.42064 12.3817C2.50567 11.3002 2.00249 9.93015 2.00004 8.51359ZM6.66004 10.9667L8.18504 8.93359L4.68094 6.01359H2.55279C2.91758 5.21342 3.45432 4.50353 4.1248 3.9345C4.79528 3.36546 5.583 2.95128 6.43183 2.72146C7.28067 2.49164 8.16974 2.45182 9.03573 2.60486C9.90171 2.75789 10.7233 3.10001 11.4419 3.60684L11.1397 4.51359H8.29299L6.77154 6.03509L11.4483 10.1918L10.624 13.901C9.80771 14.3031 8.91004 14.5127 8.00004 14.5136V12.3065L6.66004 10.9667ZM11.8175 13.1388L12.4242 10.4088C12.4627 10.235 12.4541 10.054 12.3993 9.88454C12.3445 9.7151 12.2455 9.56336 12.1124 9.44499L8.22854 5.99209L8.70709 5.51359H11.1397C11.3496 5.51374 11.5543 5.44776 11.7246 5.325C11.8949 5.20224 12.0222 5.02896 12.0884 4.82974L12.265 4.29974C12.8513 4.89135 13.3078 5.59874 13.6052 6.37673C13.9026 7.15472 14.0345 7.98619 13.9924 8.81803C13.9503 9.64987 13.7351 10.4638 13.3607 11.2078C12.9862 11.9518 12.4606 12.6094 11.8175 13.1388Z" fill="currentColor"/>
</svg>
