<svg viewBox="0 0 16 17" fill="none" xmlns="http://www.w3.org/2000/svg">
<rect width="16" height="16" transform="translate(0 0.513672)" fill="white" fill-opacity="0.01" style="mix-blend-mode:multiply"/>
<path d="M8.5 12.5137H7V13.5137H8.5V12.5137Z" fill="currentColor"/>
<path d="M9.5 11.5137H8.5V12.5137H9.5V11.5137Z" fill="currentColor"/>
<path d="M9.5 9.51367H8.5V10.5137H9.5V9.51367Z" fill="currentColor"/>
<path d="M8 1.51367C6.61553 1.51367 5.26216 1.92421 4.11101 2.69338C2.95987 3.46255 2.06266 4.55581 1.53285 5.83489C1.00303 7.11397 0.86441 8.52144 1.13451 9.8793C1.4046 11.2372 2.07129 12.4845 3.05026 13.4634C4.02922 14.4424 5.2765 15.1091 6.63437 15.3792C7.99224 15.6493 9.3997 15.5106 10.6788 14.9808C11.9579 14.451 13.0511 13.5538 13.8203 12.4027C14.5895 11.2515 15 9.89814 15 8.51367C14.9979 6.6578 14.2597 4.87854 12.9474 3.56623C11.6351 2.25393 9.85588 1.51576 8 1.51367ZM7.6985 2.52867L8.95215 5.03647L8.1614 7.01367H5.1355L4.4305 9.20727L5.85655 10.6333L5.3528 11.3892L3.1428 10.0137H2.1975C1.9702 9.15238 1.93857 8.25113 2.10495 7.37602C2.27132 6.50092 2.63148 5.67415 3.15901 4.95637C3.68653 4.23859 4.36804 3.648 5.15354 3.22791C5.93905 2.80783 6.80863 2.56891 7.6985 2.52867ZM2.55275 11.0137H2.8572L4.82445 12.238C5.04473 12.3764 5.31044 12.4232 5.56472 12.3681C5.819 12.3131 6.04164 12.1608 6.185 11.9437L6.6889 11.1878C6.81664 10.9953 6.87397 10.7646 6.85119 10.5347C6.82841 10.3047 6.72693 10.0898 6.5639 9.92607L5.56955 8.93167L5.8645 8.01367H8.1614C8.36143 8.01433 8.55702 7.95471 8.72266 7.84257C8.88831 7.73043 9.01632 7.57099 9.09 7.38502L9.8806 5.40867C9.93312 5.2775 9.95726 5.13669 9.95146 4.99551C9.94565 4.85434 9.91002 4.71599 9.8469 4.58957L8.84215 2.57982C9.76751 2.70821 10.6499 3.05162 11.4186 3.58253C12.1873 4.11345 12.8209 4.81709 13.2686 5.63703C13.7163 6.45698 13.9657 7.37043 13.9967 8.30413C14.0277 9.23783 13.8396 10.1658 13.4473 11.0137H11.5C11.2349 11.014 10.9807 11.1194 10.7932 11.3069C10.6058 11.4944 10.5003 11.7485 10.5 12.0137V13.9609C9.78508 14.2919 9.01176 14.4782 8.22455 14.5091C7.43734 14.54 6.65179 14.4148 5.91313 14.1409C5.17447 13.867 4.49729 13.4497 3.92058 12.9129C3.34386 12.3762 2.879 11.7308 2.55275 11.0137ZM11.5 13.377V12.0137H12.8634C12.4849 12.5382 12.0246 12.9985 11.5 13.377Z" fill="currentColor"/>
</svg>
