<svg viewBox="0 0 16 17" fill="none" xmlns="http://www.w3.org/2000/svg">
<rect width="16" height="16" transform="translate(0 0.513672)" fill="white" fill-opacity="0.01" style="mix-blend-mode:multiply"/>
<path d="M8 1.51367C6.61553 1.51367 5.26216 1.92421 4.11101 2.69338C2.95987 3.46255 2.06266 4.55581 1.53285 5.83489C1.00303 7.11397 0.86441 8.52144 1.13451 9.8793C1.4046 11.2372 2.07129 12.4845 3.05026 13.4634C4.02922 14.4424 5.2765 15.1091 6.63437 15.3792C7.99224 15.6493 9.3997 15.5106 10.6788 14.9808C11.9579 14.451 13.0511 13.5538 13.8203 12.4027C14.5895 11.2515 15 9.89814 15 8.51367C14.9979 6.6578 14.2597 4.87854 12.9474 3.56623C11.6351 2.25393 9.85588 1.51576 8 1.51367ZM2.01 8.71067L2.6792 8.93357L3.5 10.165V10.8066C3.50001 10.9392 3.55268 11.0664 3.64645 11.1601L5 12.5137V13.7019C4.11899 13.1921 3.38225 12.4664 2.85915 11.5932C2.33606 10.72 2.04384 9.72801 2.01 8.71067ZM8 14.5137C7.56749 14.5128 7.13633 14.4651 6.7141 14.3713L7 13.5137L7.9023 11.2579C7.93243 11.1826 7.94378 11.1011 7.93538 11.0204C7.92699 10.9397 7.89909 10.8623 7.8541 10.7948L7.14845 9.73632C7.10279 9.66783 7.04093 9.61167 6.96835 9.57283C6.89577 9.53399 6.81472 9.51367 6.7324 9.51367H4.2674L3.6433 8.57737L4.70705 7.51367H5.5V8.51367H6.5V7.14647L8.4341 3.76172L7.5659 3.26562L7.13845 4.01367H5.7676L5.2246 3.19922C5.95356 2.81451 6.75472 2.58597 7.57694 2.5282C8.39917 2.47042 9.22441 2.58468 10 2.86367V4.51367C10 4.64628 10.0527 4.77346 10.1464 4.86723C10.2402 4.96099 10.3674 5.01367 10.5 5.01367H11.2324C11.3147 5.01368 11.3958 4.99336 11.4683 4.95451C11.5409 4.91567 11.6028 4.85951 11.6485 4.79102L12.0869 4.13332C12.6581 4.66588 13.1201 5.30454 13.4473 6.01367H11.41C11.2944 6.01367 11.1824 6.05372 11.093 6.127C11.0036 6.20028 10.9424 6.30228 10.9197 6.41562L10.5587 8.65102C10.5417 8.75616 10.5587 8.86398 10.6073 8.95876C10.6558 9.05354 10.7334 9.13034 10.8287 9.17797L12.5 10.0137L12.8426 12.0415C12.2876 12.8064 11.5596 13.4291 10.7179 13.8587C9.87631 14.2884 8.94496 14.5128 8 14.5137Z" fill="currentColor"/>
</svg>
