<svg viewBox="0 0 16 17" fill="none" xmlns="http://www.w3.org/2000/svg">
<rect width="16" height="16" transform="translate(0 0.513672)" fill="white" fill-opacity="0.01" style="mix-blend-mode:multiply"/>
<path d="M4.5 6.01367H3.5V11.0137H4.5V6.01367Z" fill="currentColor"/>
<path d="M6.5 6.01367H5.5V11.0137H6.5V6.01367Z" fill="currentColor"/>
<path d="M8.5 6.01367H7.5V11.0137H8.5V6.01367Z" fill="currentColor"/>
<path d="M10.5 6.01367H9.5V11.0137H10.5V6.01367Z" fill="currentColor"/>
<path d="M12.5 6.01367H11.5V11.0137H12.5V6.01367Z" fill="currentColor"/>
<path d="M14 13.5137H2C1.73488 13.5134 1.4807 13.4079 1.29323 13.2204C1.10576 13.033 1.0003 12.7788 1 12.5137V4.51367C1.0003 4.24855 1.10576 3.99437 1.29323 3.8069C1.4807 3.61943 1.73488 3.51398 2 3.51367H14C14.2651 3.51398 14.5193 3.61943 14.7068 3.8069C14.8942 3.99437 14.9997 4.24855 15 4.51367V12.5137C14.9997 12.7788 14.8942 13.033 14.7068 13.2204C14.5193 13.4079 14.2651 13.5134 14 13.5137ZM2 4.51367V12.5137H14V4.51367H2Z" fill="currentColor"/>
</svg>
