<svg viewBox="0 0 16 16" fill="none" xmlns="http://www.w3.org/2000/svg">
<rect width="16" height="16" fill="white" fill-opacity="0.01" style="mix-blend-mode:multiply"/>
<path d="M11.8123 11.2936C11.3921 11.2979 10.9756 11.2158 10.5885 11.0524C10.2015 10.889 9.85216 10.6477 9.56228 10.3436L8.01228 8.74355L6.46228 10.3436C5.8574 10.9441 5.03962 11.281 4.18728 11.281C3.33494 11.281 2.51716 10.9441 1.91228 10.3436C1.33247 9.69818 1.0119 8.86113 1.01228 7.99355C1.00649 7.11556 1.34796 6.27086 1.96228 5.64355C2.25686 5.3465 2.60735 5.11071 2.99353 4.9498C3.37971 4.7889 3.79392 4.70605 4.21228 4.70605C4.63064 4.70605 5.04485 4.7889 5.43103 4.9498C5.81721 5.11071 6.1677 5.3465 6.46228 5.64355L8.01228 7.24355L9.56228 5.64355C9.85686 5.3465 10.2074 5.11071 10.5935 4.9498C10.9797 4.7889 11.3939 4.70605 11.8123 4.70605C12.2306 4.70605 12.6449 4.7889 13.031 4.9498C13.4172 5.11071 13.7677 5.3465 14.0623 5.64355C14.6642 6.27791 14.9998 7.11906 14.9998 7.99355C14.9998 8.86804 14.6642 9.70919 14.0623 10.3436C13.4631 10.9389 12.6568 11.2793 11.8123 11.2936ZM8.71228 7.99355L10.2623 9.64355C10.6748 10.052 11.2318 10.2811 11.8123 10.2811C12.3928 10.2811 12.9498 10.052 13.3623 9.64355C13.7725 9.19195 13.9998 8.60369 13.9998 7.99355C13.9998 7.38342 13.7725 6.79516 13.3623 6.34355C12.9498 5.93515 12.3928 5.70605 11.8123 5.70605C11.2318 5.70605 10.6748 5.93515 10.2623 6.34355L8.71228 7.99355ZM4.21228 5.69355C3.92291 5.68805 3.63557 5.74302 3.36867 5.85494C3.10176 5.96687 2.86117 6.13329 2.66228 6.34355C2.24457 6.79145 2.01229 7.38111 2.01229 7.99355C2.01229 8.606 2.24457 9.19566 2.66228 9.64355C3.07478 10.052 3.6318 10.2811 4.21228 10.2811C4.79276 10.2811 5.34978 10.052 5.76228 9.64355L7.31228 7.99355L5.76228 6.34355C5.34159 5.946 4.7907 5.71498 4.21228 5.69355Z" fill="currentColor"/>
</svg>
