<svg viewBox="0 0 16 17" fill="none" xmlns="http://www.w3.org/2000/svg">
<rect width="16" height="16" transform="translate(0 0.513672)" fill="white" fill-opacity="0.01" style="mix-blend-mode:multiply"/>
<path d="M13 15.5137H12V14.0137C11.9992 13.3509 11.7356 12.7154 11.2669 12.2468C10.7982 11.7781 10.1628 11.5145 9.5 11.5137H6.5C5.8372 11.5145 5.20177 11.7781 4.7331 12.2468C4.26442 12.7154 4.00078 13.3509 4 14.0137V15.5137H3V14.0137C3.00109 13.0857 3.37018 12.1961 4.02632 11.54C4.68247 10.8839 5.57208 10.5148 6.5 10.5137H9.5C10.4279 10.5148 11.3175 10.8839 11.9737 11.54C12.6298 12.1961 12.9989 13.0857 13 14.0137V15.5137Z" fill="currentColor"/>
<path d="M2.5 3.51367C2.36739 3.51367 2.24021 3.56635 2.14645 3.66012C2.05268 3.75389 2 3.88106 2 4.01367V8.51367H3V4.01367C3 3.88106 2.94732 3.75389 2.85355 3.66012C2.75979 3.56635 2.63261 3.51367 2.5 3.51367Z" fill="currentColor"/>
<path d="M2 1.51367V2.51367H4.5V6.01367C4.5 6.94193 4.86875 7.83217 5.52513 8.48855C6.1815 9.14492 7.07174 9.51367 8 9.51367C8.92826 9.51367 9.8185 9.14492 10.4749 8.48855C11.1313 7.83217 11.5 6.94193 11.5 6.01367V2.51367H14V1.51367H2ZM5.5 2.51367H10.5V4.01367H5.5V2.51367ZM8 8.51367C7.33696 8.51367 6.70107 8.25028 6.23223 7.78144C5.76339 7.3126 5.5 6.67671 5.5 6.01367V5.01367H10.5V6.01367C10.5 6.67671 10.2366 7.3126 9.76777 7.78144C9.29893 8.25028 8.66304 8.51367 8 8.51367Z" fill="currentColor"/>
</svg>
