<svg viewBox="0 0 16 17" fill="none" xmlns="http://www.w3.org/2000/svg">
<rect width="16" height="16" transform="translate(0 0.513672)" fill="white" fill-opacity="0.01" style="mix-blend-mode:multiply"/>
<path d="M9.5 12.5137H2L1.9983 4.96677L7.71535 8.92482C7.799 8.98268 7.89829 9.01367 8 9.01367C8.10171 9.01367 8.201 8.98268 8.28465 8.92482L14 4.96802V9.51367H15V4.51367C14.9996 4.24857 14.8942 3.99442 14.7067 3.80696C14.5193 3.6195 14.2651 3.51403 14 3.51367H2C1.73488 3.51398 1.4807 3.61943 1.29323 3.8069C1.10576 3.99437 1.0003 4.24855 1 4.51367V12.5137C1.00036 12.7788 1.10583 13.0329 1.29329 13.2204C1.48075 13.4078 1.73489 13.5133 2 13.5137H9.5V12.5137ZM12.8993 4.51367L8 7.90552L3.1007 4.51367H12.8993Z" fill="currentColor"/>
<path d="M13 14.5137C14.1046 14.5137 15 13.6182 15 12.5137C15 11.4091 14.1046 10.5137 13 10.5137C11.8954 10.5137 11 11.4091 11 12.5137C11 13.6182 11.8954 14.5137 13 14.5137Z" fill="currentColor"/>
</svg>
