<svg viewBox="0 0 16 17" fill="none" xmlns="http://www.w3.org/2000/svg">
<rect width="16" height="16" transform="translate(0 0.513672)" fill="white" fill-opacity="0.01" style="mix-blend-mode:multiply"/>
<path d="M14.5 11.1528V10.0137C14.5 9.48324 14.2893 8.97453 13.9142 8.59946C13.5391 8.22439 13.0304 8.01367 12.5 8.01367C11.9696 8.01367 11.4609 8.22439 11.0858 8.59946C10.7107 8.97453 10.5 9.48324 10.5 10.0137V11.1528C10.3485 11.2399 10.2226 11.3653 10.1348 11.5164C10.0471 11.6674 10.0006 11.8389 10 12.0137V14.5137C10.0003 14.7788 10.1058 15.0329 10.2933 15.2204C10.4807 15.4079 10.7349 15.5133 11 15.5137H14C14.2651 15.5133 14.5193 15.4079 14.7067 15.2204C14.8942 15.0329 14.9997 14.7788 15 14.5137V12.0137C14.9994 11.8389 14.9529 11.6674 14.8652 11.5164C14.7774 11.3653 14.6515 11.2399 14.5 11.1528ZM12.5 9.01367C12.7651 9.014 13.0193 9.11947 13.2067 9.30693C13.3942 9.4944 13.4997 9.74856 13.5 10.0137V11.0137H11.5V10.0137C11.5003 9.74856 11.6058 9.4944 11.7933 9.30693C11.9807 9.11947 12.2349 9.014 12.5 9.01367ZM11 14.5137V12.0137H14V14.5137H11Z" fill="currentColor"/>
<path d="M2 1.51367H1V3.51367H2V1.51367Z" fill="currentColor"/>
<path d="M8 1.51367H7V3.51367H8V1.51367Z" fill="currentColor"/>
<path d="M10 1.51367H9V3.51367H10V1.51367Z" fill="currentColor"/>
<path d="M2 4.51367H1V8.51367H2V4.51367Z" fill="currentColor"/>
<path d="M2 9.51367H1V13.5137H2V9.51367Z" fill="currentColor"/>
<path d="M8 9.51367H7V13.5137H8V9.51367Z" fill="currentColor"/>
<path d="M4 4.51367H3V8.51367H4V4.51367Z" fill="currentColor"/>
<path d="M10 4.51367H9V7.51367H10V4.51367Z" fill="currentColor"/>
<path d="M5 13.5137H4C3.73488 13.5134 3.4807 13.4079 3.29323 13.2204C3.10576 13.033 3.0003 12.7788 3 12.5137V10.5137C3.0003 10.2485 3.10576 9.99437 3.29323 9.8069C3.4807 9.61943 3.73488 9.51398 4 9.51367H5C5.26512 9.51398 5.5193 9.61943 5.70677 9.8069C5.89424 9.99437 5.9997 10.2485 6 10.5137V12.5137C5.9997 12.7788 5.89424 13.033 5.70677 13.2204C5.5193 13.4079 5.26512 13.5134 5 13.5137ZM4 10.5137V12.5137H5V10.5137H4Z" fill="currentColor"/>
<path d="M7 8.51367H6C5.73488 8.51337 5.4807 8.40791 5.29323 8.22044C5.10576 8.03297 5.0003 7.77879 5 7.51367V5.51367C5.0003 5.24855 5.10576 4.99437 5.29323 4.8069C5.4807 4.61943 5.73488 4.51398 6 4.51367H7C7.26512 4.51398 7.5193 4.61943 7.70677 4.8069C7.89424 4.99437 7.9997 5.24855 8 5.51367V7.51367C7.9997 7.77879 7.89424 8.03297 7.70677 8.22044C7.5193 8.40791 7.26512 8.51337 7 8.51367ZM6 5.51367V7.51367H7V5.51367H6Z" fill="currentColor"/>
<path d="M5 3.51367H4C3.73488 3.51337 3.4807 3.40791 3.29323 3.22044C3.10576 3.03297 3.0003 2.77879 3 2.51367V1.51367H4V2.51367H5V1.51367H6V2.51367C5.9997 2.77879 5.89424 3.03297 5.70677 3.22044C5.5193 3.40791 5.26512 3.51337 5 3.51367Z" fill="currentColor"/>
</svg>
