<svg viewBox="0 0 16 17" fill="none" xmlns="http://www.w3.org/2000/svg">
<rect width="16" height="16" transform="translate(0 0.513672)" fill="white" fill-opacity="0.01" style="mix-blend-mode:multiply"/>
<path d="M14.5 7.51367H14V5.51367H13V7.51367H12V5.51367H11V7.51367H10.5C10.3674 7.51367 10.2402 7.56635 10.1464 7.66012C10.0527 7.75389 10 7.88106 10 8.01367V10.0137C10.0008 10.5897 10.2001 11.1479 10.5644 11.5941C10.9287 12.0403 11.4358 12.3472 12 12.4631V14.0137C11.9999 14.1462 11.9472 14.2734 11.8534 14.3671C11.7597 14.4609 11.6326 14.5136 11.5 14.5137H2.5C2.36739 14.5137 2.24021 14.461 2.14645 14.3672C2.05268 14.2735 2 14.1463 2 14.0137C2 13.8811 2.05268 13.7539 2.14645 13.6601C2.24021 13.5663 2.36739 13.5137 2.5 13.5137H5C5.39782 13.5137 5.77936 13.3556 6.06066 13.0743C6.34196 12.793 6.5 12.4115 6.5 12.0137C6.5 11.6158 6.34196 11.2343 6.06066 10.953C5.77936 10.6717 5.39782 10.5137 5 10.5137H2.5C2.36739 10.5137 2.24021 10.461 2.14645 10.3672C2.05268 10.2735 2 10.1463 2 10.0137C2 9.88106 2.05268 9.75389 2.14645 9.66012C2.24021 9.56635 2.36739 9.51367 2.5 9.51367H5C5.39769 9.51324 5.77897 9.35506 6.06018 9.07385C6.34139 8.79264 6.49956 8.41136 6.5 8.01367V6.01367H7C7.53025 6.01308 8.03861 5.80217 8.41356 5.42723C8.7885 5.05228 8.9994 4.54392 9 4.01367V2.51367H7.5C6.98808 2.51451 6.49618 2.71264 6.1266 3.06687C5.86759 2.59684 5.48731 2.20483 5.02536 1.93166C4.56341 1.65849 4.03667 1.51415 3.5 1.51367H2V3.01367C2.00087 3.80905 2.31722 4.57161 2.87964 5.13403C3.44206 5.69645 4.20462 6.0128 5 6.01367H5.5V8.01367C5.49989 8.14625 5.44718 8.27336 5.35344 8.36711C5.25969 8.46085 5.13258 8.51357 5 8.51367H2.5C2.10218 8.51367 1.72064 8.67171 1.43934 8.95301C1.15804 9.23432 1 9.61585 1 10.0137C1 10.4115 1.15804 10.793 1.43934 11.0743C1.72064 11.3556 2.10218 11.5137 2.5 11.5137H5C5.13261 11.5137 5.25979 11.5663 5.35355 11.6601C5.44732 11.7539 5.5 11.8811 5.5 12.0137C5.5 12.1463 5.44732 12.2735 5.35355 12.3672C5.25979 12.461 5.13261 12.5137 5 12.5137H2.5C2.10218 12.5137 1.72064 12.6717 1.43934 12.953C1.15804 13.2343 1 13.6158 1 14.0137C1 14.4115 1.15804 14.793 1.43934 15.0743C1.72064 15.3556 2.10218 15.5137 2.5 15.5137H11.5C11.8977 15.5132 12.279 15.3551 12.5602 15.0738C12.8414 14.7926 12.9996 14.4114 13 14.0137V12.4631C13.5642 12.3472 14.0713 12.0403 14.4356 11.5941C14.7999 11.1479 14.9992 10.5897 15 10.0137V8.01367C15 7.88106 14.9473 7.75389 14.8536 7.66012C14.7598 7.56635 14.6326 7.51367 14.5 7.51367ZM6.5 4.51367C6.50026 4.24854 6.60571 3.99434 6.79319 3.80686C6.98066 3.61938 7.23486 3.51394 7.5 3.51367H8V4.01367C7.99974 4.27881 7.89429 4.53301 7.70681 4.72049C7.51934 4.90797 7.26514 5.01341 7 5.01367H6.5V4.51367ZM5 5.01367C4.46975 5.01308 3.96139 4.80217 3.58644 4.42723C3.2115 4.05228 3.0006 3.54392 3 3.01367V2.51367H3.5C4.03025 2.51427 4.53861 2.72517 4.91356 3.10012C5.2885 3.47506 5.4994 3.98342 5.5 4.51367V5.01367H5ZM14 10.0137C14 10.4115 13.842 10.793 13.5607 11.0743C13.2794 11.3556 12.8978 11.5137 12.5 11.5137C12.1022 11.5137 11.7206 11.3556 11.4393 11.0743C11.158 10.793 11 10.4115 11 10.0137V8.51367H14V10.0137Z" fill="currentColor"/>
</svg>
