<svg viewBox="0 0 16 16" fill="none" xmlns="http://www.w3.org/2000/svg">
<rect width="16" height="16" fill="white" fill-opacity="0.01" style="mix-blend-mode:multiply"/>
<path d="M14.9999 13.5002H3.49989V14.5002H14.9999V13.5002Z" fill="currentColor"/>
<path d="M13.6899 5.25524L9.72489 1.29524C9.63202 1.20226 9.52173 1.1285 9.40033 1.07818C9.27893 1.02786 9.1488 1.00195 9.01739 1.00195C8.88597 1.00195 8.75585 1.02786 8.63445 1.07818C8.51305 1.1285 8.40276 1.20226 8.30989 1.29524L1.30989 8.29524C1.21691 8.38811 1.14315 8.4984 1.09283 8.6198C1.0425 8.7412 1.0166 8.87132 1.0166 9.00274C1.0166 9.13415 1.0425 9.26428 1.09283 9.38568C1.14315 9.50708 1.21691 9.61737 1.30989 9.71024L3.56489 12.0002H8.35989L13.6899 6.67024C13.7829 6.57737 13.8566 6.46708 13.9069 6.34568C13.9573 6.22428 13.9832 6.09416 13.9832 5.96274C13.9832 5.83132 13.9573 5.7012 13.9069 5.5798C13.8566 5.4584 13.7829 5.34811 13.6899 5.25524ZM7.94489 11.0002H3.99989L1.99989 9.00024L5.15489 5.84524L9.11989 9.80524L7.94489 11.0002ZM9.82489 9.12024L5.86489 5.15524L8.99989 2.00024L12.9999 5.96524L9.82489 9.12024Z" fill="currentColor"/>
</svg>
