<svg viewBox="0 0 16 16" fill="none" xmlns="http://www.w3.org/2000/svg">
<rect width="16" height="16" fill="white" fill-opacity="0.01" style="mix-blend-mode:multiply"/>
<path d="M10.5088 13.3609L11.008 14.227L12.4969 13.3661V15H13.4953V13.3658L15.0008 14.2364L15.5 13.3701L13.9949 12.4998L15.4951 11.6323L14.9959 10.7661L13.4953 11.6339V10H12.4969V11.6336L10.9992 10.7676L10.5 11.6338L11.9977 12.4998L10.5088 13.3609Z" fill="currentColor"/>
<path d="M7.99997 11.5C7.58577 11.5 7.24997 11.8358 7.24997 12.25C7.24997 12.6642 7.58577 13 7.99997 13C8.41417 13 8.74997 12.6642 8.74997 12.25C8.74997 11.8358 8.41417 11.5 7.99997 11.5Z" fill="currentColor"/>
<path d="M8.49997 6H7.49997V10.5H8.49997V6Z" fill="currentColor"/>
<path d="M8.99997 15H1.49997C1.32527 15 1.16317 14.9088 1.07262 14.7594C0.981917 14.6101 0.975817 14.4243 1.05637 14.2694L7.55637 1.76935C7.64242 1.6038 7.82122 1.5 7.99997 1.5C8.17872 1.5 8.35752 1.6038 8.44357 1.76935L11.8236 8.26935L10.9364 8.73065L7.99997 3.08375L2.32357 14H8.99997V15Z" fill="currentColor"/>
</svg>
