<svg viewBox="0 0 16 17" fill="none" xmlns="http://www.w3.org/2000/svg">
<rect width="16" height="16" transform="translate(0 0.513672)" fill="white" fill-opacity="0.01" style="mix-blend-mode:multiply"/>
<path d="M13 7.51367H12V8.51367H13C13.3977 8.51411 13.779 8.67228 14.0602 8.95349C14.3414 9.2347 14.4996 9.61598 14.5 10.0137V12.0137H15.5V10.0137C15.4992 9.35087 15.2356 8.71543 14.7669 8.24675C14.2982 7.77808 13.6628 7.51444 13 7.51367Z" fill="currentColor"/>
<path d="M12 2.51367C12.2967 2.51367 12.5867 2.60165 12.8334 2.76647C13.08 2.93129 13.2723 3.16556 13.3858 3.43965C13.4994 3.71374 13.5291 4.01534 13.4712 4.30631C13.4133 4.59728 13.2704 4.86455 13.0607 5.07433C12.8509 5.28411 12.5836 5.42697 12.2926 5.48485C12.0017 5.54273 11.7001 5.51302 11.426 5.39949C11.1519 5.28596 10.9176 5.0937 10.7528 4.84703C10.588 4.60035 10.5 4.31034 10.5 4.01367C10.5 3.61585 10.658 3.23432 10.9393 2.95301C11.2206 2.67171 11.6022 2.51367 12 2.51367ZM12 1.51367C11.5055 1.51367 11.0222 1.66029 10.6111 1.935C10.2 2.2097 9.87952 2.60015 9.6903 3.05696C9.50108 3.51378 9.45157 4.01645 9.54804 4.5014C9.6445 4.98635 9.8826 5.43181 10.2322 5.78144C10.5819 6.13107 11.0273 6.36917 11.5123 6.46564C11.9972 6.5621 12.4999 6.51259 12.9567 6.32337C13.4135 6.13415 13.804 5.81372 14.0787 5.4026C14.3534 4.99147 14.5 4.50813 14.5 4.01367C14.5 3.35063 14.2366 2.71475 13.7678 2.2459C13.2989 1.77706 12.663 1.51367 12 1.51367Z" fill="currentColor"/>
<path d="M11.5 15.5137H10.5V14.5137C10.4996 14.116 10.3414 13.7347 10.0602 13.4535C9.77897 13.1723 9.39769 13.0141 9 13.0137H7C6.60231 13.0141 6.22103 13.1723 5.93982 13.4535C5.65861 13.7347 5.50044 14.116 5.5 14.5137V15.5137H4.5V14.5137C4.50078 13.8509 4.76442 13.2154 5.2331 12.7468C5.70177 12.2781 6.3372 12.0145 7 12.0137H9C9.6628 12.0145 10.2982 12.2781 10.7669 12.7468C11.2356 13.2154 11.4992 13.8509 11.5 14.5137V15.5137Z" fill="currentColor"/>
<path d="M8 7.01367C8.29667 7.01367 8.58668 7.10165 8.83335 7.26647C9.08003 7.43129 9.27229 7.66556 9.38582 7.93965C9.49935 8.21374 9.52906 8.51534 9.47118 8.80631C9.4133 9.09728 9.27044 9.36455 9.06066 9.57433C8.85088 9.78411 8.58361 9.92697 8.29264 9.98485C8.00166 10.0427 7.70006 10.013 7.42597 9.89949C7.15189 9.78596 6.91762 9.5937 6.7528 9.34703C6.58797 9.10035 6.5 8.81034 6.5 8.51367C6.5 8.11585 6.65804 7.73432 6.93934 7.45301C7.22064 7.17171 7.60218 7.01367 8 7.01367ZM8 6.01367C7.50555 6.01367 7.0222 6.16029 6.61107 6.435C6.19995 6.7097 5.87952 7.10015 5.6903 7.55696C5.50108 8.01378 5.45157 8.51645 5.54804 9.0014C5.6445 9.48635 5.8826 9.93181 6.23223 10.2814C6.58186 10.6311 7.02732 10.8692 7.51227 10.9656C7.99723 11.0621 8.49989 11.0126 8.95671 10.8234C9.41352 10.6342 9.80397 10.3137 10.0787 9.9026C10.3534 9.49147 10.5 9.00813 10.5 8.51367C10.5 7.85063 10.2366 7.21475 9.76777 6.7459C9.29893 6.27706 8.66304 6.01367 8 6.01367Z" fill="currentColor"/>
<path d="M4 7.51367H3C2.3372 7.51445 1.70177 7.7781 1.2331 8.24677C0.764423 8.71544 0.500781 9.35087 0.5 10.0137V12.0137H1.5V10.0137C1.50044 9.61598 1.65861 9.2347 1.93982 8.95349C2.22103 8.67228 2.60231 8.51411 3 8.51367H4V7.51367Z" fill="currentColor"/>
<path d="M4 2.51367C4.29667 2.51367 4.58668 2.60165 4.83336 2.76647C5.08003 2.93129 5.27229 3.16556 5.38582 3.43965C5.49935 3.71374 5.52906 4.01534 5.47118 4.30631C5.4133 4.59728 5.27044 4.86455 5.06066 5.07433C4.85088 5.28411 4.58361 5.42697 4.29264 5.48485C4.00166 5.54273 3.70006 5.51302 3.42597 5.39949C3.15189 5.28596 2.91762 5.0937 2.7528 4.84703C2.58797 4.60035 2.5 4.31034 2.5 4.01367C2.5 3.61585 2.65804 3.23432 2.93934 2.95301C3.22064 2.67171 3.60218 2.51367 4 2.51367ZM4 1.51367C3.50555 1.51367 3.0222 1.66029 2.61107 1.935C2.19995 2.2097 1.87952 2.60015 1.6903 3.05696C1.50108 3.51378 1.45157 4.01645 1.54804 4.5014C1.6445 4.98635 1.8826 5.43181 2.23223 5.78144C2.58186 6.13107 3.02732 6.36917 3.51227 6.46564C3.99723 6.5621 4.49989 6.51259 4.95671 6.32337C5.41352 6.13415 5.80397 5.81372 6.07867 5.4026C6.35338 4.99147 6.5 4.50813 6.5 4.01367C6.5 3.35063 6.23661 2.71475 5.76777 2.2459C5.29893 1.77706 4.66304 1.51367 4 1.51367Z" fill="currentColor"/>
</svg>
