<svg viewBox="0 0 16 17" fill="none" xmlns="http://www.w3.org/2000/svg">
<g clip-path="url(#clip0_1961_10533)">
<rect width="16" height="16" transform="translate(0 0.513672)" fill="white" fill-opacity="0.01" style="mix-blend-mode:multiply"/>
<path fill-rule="evenodd" clip-rule="evenodd" d="M12.5 11.0137L16 13.5137L12.5 16.0137V11.0137Z" fill="currentColor"/>
<path d="M10.085 10.0137L8.79 11.3087L9.5 12.0137L11.5 10.0137L9.5 8.01367L8.79 8.71867L10.085 10.0137Z" fill="currentColor"/>
<path d="M5.915 10.0137L7.21 8.71867L6.5 8.01367L4.5 10.0137L6.5 12.0137L7.21 11.3087L5.915 10.0137Z" fill="currentColor"/>
<path d="M4.5 5.01367C4.77614 5.01367 5 4.78981 5 4.51367C5 4.23753 4.77614 4.01367 4.5 4.01367C4.22386 4.01367 4 4.23753 4 4.51367C4 4.78981 4.22386 5.01367 4.5 5.01367Z" fill="currentColor"/>
<path d="M3 5.01367C3.27614 5.01367 3.5 4.78981 3.5 4.51367C3.5 4.23753 3.27614 4.01367 3 4.01367C2.72386 4.01367 2.5 4.23753 2.5 4.51367C2.5 4.78981 2.72386 5.01367 3 5.01367Z" fill="currentColor"/>
<path d="M10.5 13.5137H2V6.51367H14V10.0137H15V3.51367C15 2.96242 14.5514 2.51367 14 2.51367H2C1.4486 2.51367 1 2.96242 1 3.51367V13.5137C1 14.0649 1.4486 14.5137 2 14.5137H10.5V13.5137ZM2 3.51367H14V5.51367H2V3.51367Z" fill="currentColor"/>
</g>
<defs>
<clipPath id="clip0_1961_10533">
<rect width="16" height="16" fill="white" transform="translate(0 0.513672)"/>
</clipPath>
</defs>
</svg>
