<svg viewBox="0 0 16 17" fill="none" xmlns="http://www.w3.org/2000/svg">
<rect width="16" height="16" transform="translate(0 0.513672)" fill="white" fill-opacity="0.01" style="mix-blend-mode:multiply"/>
<path d="M8 1.51367C6.61553 1.51367 5.26216 1.92421 4.11101 2.69338C2.95987 3.46255 2.06266 4.55581 1.53285 5.83489C1.00303 7.11397 0.86441 8.52144 1.13451 9.8793C1.4046 11.2372 2.07129 12.4845 3.05026 13.4634C4.02922 14.4424 5.2765 15.1091 6.63437 15.3792C7.99224 15.6493 9.3997 15.5106 10.6788 14.9808C11.9579 14.451 13.0511 13.5538 13.8203 12.4027C14.5895 11.2515 15 9.89814 15 8.51367C15 6.65716 14.2625 4.87668 12.9497 3.56392C11.637 2.25117 9.85652 1.51367 8 1.51367ZM5.75 6.01367C5.99723 6.01367 6.2389 6.08698 6.44447 6.22433C6.65003 6.36169 6.81024 6.55691 6.90485 6.78532C6.99946 7.01373 7.02422 7.26506 6.97599 7.50753C6.92775 7.75001 6.8087 7.97274 6.63389 8.14756C6.45907 8.32237 6.23634 8.44142 5.99387 8.48965C5.75139 8.53789 5.50006 8.51313 5.27165 8.41852C5.04324 8.32391 4.84802 8.1637 4.71067 7.95813C4.57331 7.75257 4.5 7.5109 4.5 7.26367C4.49861 7.09744 4.53066 6.93262 4.59425 6.77902C4.65783 6.62542 4.75166 6.48618 4.87013 6.36956C4.98861 6.25295 5.12933 6.16135 5.28392 6.10021C5.43851 6.03907 5.60381 6.00964 5.77 6.01367H5.75ZM10.57 12.4737C10.3032 12.0306 9.92631 11.664 9.47601 11.4095C9.0257 11.155 8.51724 11.0213 8 11.0213C7.48276 11.0213 6.97431 11.155 6.524 11.4095C6.07369 11.664 5.69683 12.0306 5.43 12.4737L4.575 11.9737C4.93097 11.3836 5.43334 10.8955 6.03341 10.5567C6.63348 10.2179 7.3109 10.0399 8 10.0399C8.68911 10.0399 9.36653 10.2179 9.9666 10.5567C10.5667 10.8955 11.069 11.3836 11.425 11.9737L10.57 12.4737ZM10.25 8.51367C9.91848 8.51367 9.60054 8.38198 9.36612 8.14756C9.1317 7.91314 9 7.59519 9 7.26367C9 6.93215 9.1317 6.61421 9.36612 6.37979C9.60054 6.14537 9.91848 6.01367 10.25 6.01367C10.5815 6.01367 10.8995 6.14537 11.1339 6.37979C11.3683 6.61421 11.5 6.93215 11.5 7.26367C11.5 7.59519 11.3683 7.91314 11.1339 8.14756C10.8995 8.38198 10.5815 8.51367 10.25 8.51367Z" fill="currentColor"/>
</svg>
