<svg viewBox="0 0 16 16" fill="none" xmlns="http://www.w3.org/2000/svg">
<rect width="16" height="16" fill="white" fill-opacity="0.01" style="mix-blend-mode:multiply"/>
<path d="M4.12021 12.57L3.50021 13.335C4.11951 13.8617 4.82707 14.2747 5.59021 14.555L5.93521 13.62C5.27327 13.3792 4.65889 13.0238 4.12021 12.57Z" fill="currentColor"/>
<path d="M2.09521 9L1.09521 9.205C1.23782 10.0128 1.5204 10.7894 1.93021 11.5L2.79521 11C2.44921 10.3783 2.21244 9.7018 2.09521 9Z" fill="currentColor"/>
<path d="M5.91021 2.38L5.56521 1.445C4.81089 1.7279 4.11199 2.14082 3.50021 2.665L4.12021 3.43C4.65136 2.97869 5.25709 2.62337 5.91021 2.38Z" fill="currentColor"/>
<path d="M2.79521 5L1.93021 4.5C1.52819 5.21272 1.25087 5.98889 1.11021 6.795L2.11021 6.965C2.22285 6.27523 2.45464 5.61031 2.79521 5Z" fill="currentColor"/>
<path d="M8.00021 1V2C9.59151 2 11.1176 2.63214 12.2429 3.75736C13.3681 4.88258 14.0002 6.4087 14.0002 8C14.0002 9.5913 13.3681 11.1174 12.2429 12.2426C11.1176 13.3679 9.59151 14 8.00021 14V15C9.85673 15 11.6372 14.2625 12.95 12.9497C14.2627 11.637 15.0002 9.85652 15.0002 8C15.0002 6.14348 14.2627 4.36301 12.95 3.05025C11.6372 1.7375 9.85673 1 8.00021 1Z" fill="currentColor"/>
</svg>
