<svg viewBox="0 0 16 17" fill="none" xmlns="http://www.w3.org/2000/svg">
<rect width="16" height="16" transform="translate(0 0.513672)" fill="white" fill-opacity="0.01" style="mix-blend-mode:multiply"/>
<path d="M2.10495 9.04441L7.99995 15.0137L13.8949 9.04441C14.6031 8.32183 14.9998 7.35038 14.9998 6.33861C14.9998 5.32685 14.6031 4.3554 13.8949 3.63281C13.5462 3.27839 13.1305 2.9969 12.6719 2.80476C12.2134 2.61262 11.7211 2.51367 11.2239 2.51367C10.7267 2.51367 10.2345 2.61262 9.77592 2.80476C9.31734 2.9969 8.9016 3.27839 8.5529 3.63281L7.99995 4.19581L7.44685 3.63281C7.09815 3.27839 6.6824 2.9969 6.22383 2.80476C5.76525 2.61262 5.27302 2.51367 4.77582 2.51367C4.27862 2.51367 3.78639 2.61262 3.32782 2.80476C2.86924 2.9969 2.45349 3.27839 2.1048 3.63281C1.39662 4.35542 0.999972 5.32688 1 6.33865C1.00003 7.35041 1.39673 8.32185 2.10495 9.04441ZM13.1775 8.33616L7.99995 13.5764V5.62866C8.42355 5.19946 8.8471 4.77043 9.2706 4.34156C9.52548 4.08211 9.8295 3.87603 10.1649 3.73535C10.5003 3.59467 10.8604 3.52222 11.2241 3.52222C11.5878 3.52222 11.9478 3.59467 12.2832 3.73535C12.6186 3.87603 12.9227 4.08211 13.1775 4.34156C13.7002 4.87501 13.9929 5.59206 13.9929 6.33886C13.9929 7.08566 13.7002 7.80271 13.1775 8.33616Z" fill="currentColor"/>
</svg>
