<svg viewBox="0 0 16 17" fill="none" xmlns="http://www.w3.org/2000/svg">
<rect width="16" height="16" transform="translate(0 0.513672)" fill="white" fill-opacity="0.01" style="mix-blend-mode:multiply"/>
<path d="M12.416 8.99807C12.2798 8.67482 12.1252 8.30807 11.9743 7.85547C11.5793 6.67137 12.8416 5.37937 12.8535 5.36717L12.1465 4.66017C12.0761 4.73047 10.4348 6.39892 11.0257 8.17187C11.1887 8.66087 11.3513 9.04637 11.4946 9.38687C11.8283 10.0461 12.0014 10.7748 12 11.5137C11.9414 12.1092 11.7128 12.6754 11.3414 13.1446C10.9701 13.6138 10.4716 13.9664 9.9054 14.1602C10.0842 13.459 10.0815 12.7238 9.89746 12.0239C9.71342 11.3241 9.35414 10.6827 8.8535 10.1602L8.3313 9.63792L8.04055 10.3167C7.12245 12.4587 6.03 13.3937 5.38735 13.7837C4.99295 13.5421 4.66152 13.2104 4.42033 12.8157C4.17914 12.4211 4.03508 11.9748 4 11.5137C4.03445 10.8843 4.19222 10.2678 4.46435 9.69922C4.78721 9.01384 4.96935 8.27067 5 7.51367V6.62452C5.43675 6.80452 6 7.27637 6 8.51367V9.81542L6.8716 8.84837C8.4275 7.12107 8.1028 5.06447 7.4746 3.69432C7.9523 3.85358 8.36252 4.16894 8.63922 4.58966C8.91592 5.01037 9.043 5.51196 9 6.01367H10C10 3.24512 7.7107 2.51367 6.5 2.51367H5.5L6.0996 3.31297C6.16845 3.40577 7.531 5.27687 6.77635 7.15697C6.60845 6.68445 6.30078 6.2742 5.89419 5.98068C5.4876 5.68717 5.00135 5.52429 4.5 5.51367H4V7.51367C3.96555 8.14306 3.80778 8.75956 3.53565 9.32812C3.21279 10.0135 3.03065 10.7567 3 11.5137C3 13.4375 4.9116 15.5137 8 15.5137C11.0884 15.5137 13 13.4375 13 11.5137C13.0008 10.6415 12.8009 9.78074 12.416 8.99807ZM6.4176 14.2769C7.33989 13.5133 8.08488 12.558 8.60085 11.4775C8.87645 11.9224 9.03303 12.4307 9.05556 12.9536C9.07809 13.4765 8.96581 13.9964 8.7295 14.4634C8.48767 14.4958 8.244 14.5126 8 14.5137C7.46343 14.5174 6.92956 14.4375 6.4176 14.2769Z" fill="currentColor"/>
</svg>
