<svg viewBox="0 0 16 17" fill="none" xmlns="http://www.w3.org/2000/svg">
<rect width="16" height="16" transform="translate(0 0.513672)" fill="white" fill-opacity="0.01" style="mix-blend-mode:multiply"/>
<path d="M14 10.5137V9.01367C14 8.48324 13.7893 7.97453 13.4142 7.59946C13.0391 7.22439 12.5304 7.01367 12 7.01367C11.4696 7.01367 10.9609 7.22439 10.5858 7.59946C10.2107 7.97453 10 8.48324 10 9.01367V10.5137C9.73488 10.514 9.4807 10.6194 9.29323 10.8069C9.10576 10.9944 9.0003 11.2485 9 11.5137V14.5137C9.0003 14.7788 9.10576 15.033 9.29323 15.2204C9.4807 15.4079 9.73488 15.5134 10 15.5137H14C14.2651 15.5134 14.5193 15.4079 14.7068 15.2204C14.8942 15.033 14.9997 14.7788 15 14.5137V11.5137C14.9997 11.2485 14.8942 10.9944 14.7068 10.8069C14.5193 10.6194 14.2651 10.514 14 10.5137ZM11 9.01367C11 8.74846 11.1054 8.4941 11.2929 8.30657C11.4804 8.11903 11.7348 8.01367 12 8.01367C12.2652 8.01367 12.5196 8.11903 12.7071 8.30657C12.8946 8.4941 13 8.74846 13 9.01367V10.5137H11V9.01367ZM14 14.5137H10V11.5137H14V14.5137Z" fill="currentColor"/>
<path d="M7.5 14.0137H2C1.73478 14.0137 1.48043 13.9083 1.29289 13.7208C1.10536 13.5332 1 13.2789 1 13.0137V11.5137C1 11.2485 1.10536 10.9941 1.29289 10.8066C1.48043 10.619 1.73478 10.5137 2 10.5137H7.5V11.5137H2V13.0137H7.5V14.0137Z" fill="currentColor"/>
<path d="M8.5 9.51367H4C3.73478 9.51367 3.48043 9.40831 3.29289 9.22078C3.10536 9.03324 3 8.77889 3 8.51367V7.01367C3 6.74846 3.10536 6.4941 3.29289 6.30657C3.48043 6.11903 3.73478 6.01367 4 6.01367H9.5V7.01367H4V8.51367H8.5V9.51367Z" fill="currentColor"/>
<path d="M11 5.01367H2C1.73478 5.01367 1.48043 4.90831 1.29289 4.72078C1.10536 4.53324 1 4.27889 1 4.01367V2.51367C1 2.24846 1.10536 1.9941 1.29289 1.80657C1.48043 1.61903 1.73478 1.51367 2 1.51367H11C11.2652 1.51367 11.5196 1.61903 11.7071 1.80657C11.8946 1.9941 12 2.24846 12 2.51367V4.01367C12 4.27889 11.8946 4.53324 11.7071 4.72078C11.5196 4.90831 11.2652 5.01367 11 5.01367ZM2 4.01367H11V2.51367H2V4.01367Z" fill="currentColor"/>
</svg>
