<svg viewBox="0 0 16 16" fill="none" xmlns="http://www.w3.org/2000/svg">
<rect width="16" height="16" fill="white" fill-opacity="0.01" style="mix-blend-mode:multiply"/>
<path d="M15 7.00012C15.0024 6.1415 14.8344 5.29094 14.5058 4.49768C14.1772 3.70442 13.6945 2.98422 13.0857 2.37877L12.2071 1.50012L11.5 2.20702L12.3786 3.08572C12.8927 3.59975 13.3004 4.21 13.5786 4.88161C13.8568 5.55323 14 6.27307 14 7.00002C14 7.72697 13.8568 8.44681 13.5786 9.11842C13.3004 9.79004 12.8927 10.4003 12.3786 10.9143L11 12.293L11.7071 13.0001L13.0857 11.6215C13.6945 11.016 14.1772 10.2958 14.5058 9.50256C14.8344 8.7093 15.0024 7.85874 15 7.00012Z" fill="currentColor"/>
<path d="M8.5 6.00002C8.77614 6.00002 9 5.77616 9 5.50002C9 5.22388 8.77614 5.00002 8.5 5.00002C8.22386 5.00002 8 5.22388 8 5.50002C8 5.77616 8.22386 6.00002 8.5 6.00002Z" fill="currentColor"/>
<path d="M11 7.00012C11.0024 6.1415 10.8344 5.29094 10.5058 4.49768C10.1772 3.70442 9.69452 2.98422 9.0857 2.37877L8.20715 1.50012L7.5 2.20702L8.37865 3.08572C8.89268 3.59975 9.30044 4.21 9.57863 4.88161C9.85682 5.55323 10 6.27307 10 7.00002C10 7.72697 9.85682 8.44681 9.57863 9.11842C9.30044 9.79004 8.89268 10.4003 8.37865 10.9143L7 12.293L7.70715 13.0001L9.0857 11.6215C9.69452 11.016 10.1772 10.2958 10.5058 9.50256C10.8344 8.7093 11.0024 7.85874 11 7.00012Z" fill="currentColor"/>
<path d="M12.5 6.00002C12.7761 6.00002 13 5.77616 13 5.50002C13 5.22388 12.7761 5.00002 12.5 5.00002C12.2239 5.00002 12 5.22388 12 5.50002C12 5.77616 12.2239 6.00002 12.5 6.00002Z" fill="currentColor"/>
<path d="M4.5 6.00002C4.77614 6.00002 5 5.77616 5 5.50002C5 5.22388 4.77614 5.00002 4.5 5.00002C4.22386 5.00002 4 5.22388 4 5.50002C4 5.77616 4.22386 6.00002 4.5 6.00002Z" fill="currentColor"/>
<path d="M4.70705 12.0001L5.0857 11.6215C5.6926 11.0146 6.17403 10.2941 6.50249 9.50119C6.83094 8.70826 7 7.85839 7 7.00012C7 6.14185 6.83094 5.29198 6.50249 4.49905C6.17403 3.70611 5.6926 2.98564 5.0857 2.37877L4 1.29297L2.9143 2.37867C2.30739 2.98554 1.82597 3.70601 1.49751 4.49895C1.16905 5.29188 1 6.14175 1 7.00002C1 7.85829 1.16905 8.70815 1.49751 9.50109C1.82597 10.294 2.30739 11.0145 2.9143 11.6214L3.29295 12.0001L1.1465 14.1465C1.07656 14.2164 1.02893 14.3055 1.00962 14.4025C0.990319 14.4995 1.00021 14.6001 1.03805 14.6914C1.07589 14.7828 1.13998 14.8609 1.2222 14.9158C1.30443 14.9708 1.4011 15.0001 1.5 15.0001H6.5C6.59887 15.0001 6.69552 14.9708 6.77773 14.9158C6.85993 14.8609 6.924 14.7828 6.96184 14.6914C6.99967 14.6001 7.00957 14.4996 6.99029 14.4026C6.97101 14.3056 6.9234 14.2165 6.8535 14.1466L4.70705 12.0001ZM2 7.00012C1.998 6.27286 2.14027 5.55242 2.41857 4.88051C2.69688 4.2086 3.10569 3.59857 3.62135 3.08572L4 2.70702L4.37865 3.08572C4.89268 3.59975 5.30044 4.21 5.57863 4.88161C5.85682 5.55323 6.00001 6.27307 6.00001 7.00002C6.00001 7.72697 5.85682 8.44681 5.57863 9.11842C5.30044 9.79004 4.89268 10.4003 4.37865 10.9143L4 11.293L3.62135 10.9143C3.10572 10.4015 2.69692 9.79149 2.41861 9.11962C2.14031 8.44775 1.99802 7.72735 2 7.00012ZM2.70705 14.0001L4 12.707L5.29295 14.0001H2.70705Z" fill="currentColor"/>
</svg>
