<svg viewBox="0 0 16 17" fill="none" xmlns="http://www.w3.org/2000/svg">
<rect width="16" height="16" transform="translate(0 0.513672)" fill="white" fill-opacity="0.01" style="mix-blend-mode:multiply"/>
<path d="M12.5 6.01368C11.924 6.01447 11.3659 6.21382 10.9197 6.57813C10.4735 6.94245 10.1666 7.44945 10.0506 8.01368H5.94949C5.82558 7.40666 5.4807 6.86727 4.98169 6.50008C4.48269 6.13289 3.86513 5.96407 3.24873 6.02634C2.63233 6.08861 2.061 6.37753 1.64552 6.8371C1.23004 7.29667 1 7.89414 1 8.51368C1 9.13322 1.23004 9.73069 1.64552 10.1903C2.061 10.6498 2.63233 10.9387 3.24873 11.001C3.86513 11.0633 4.48269 10.8945 4.98169 10.5273C5.4807 10.1601 5.82558 9.6207 5.94949 9.01368H10.0506C10.1452 9.47716 10.3694 9.90429 10.697 10.2455C11.0247 10.5866 11.4425 10.8278 11.9018 10.941C12.361 11.0542 12.843 11.0348 13.2917 10.885C13.7404 10.7352 14.1374 10.4612 14.4366 10.0948C14.7358 9.72838 14.9248 9.28461 14.9819 8.81502C15.0389 8.34543 14.9615 7.8693 14.7587 7.44193C14.5559 7.01457 14.236 6.65351 13.8362 6.40069C13.4364 6.14787 12.9731 6.01367 12.5 6.01368ZM12.5 10.0137C12.2034 10.0137 11.9134 9.9257 11.6667 9.76088C11.42 9.59606 11.2278 9.36179 11.1142 9.0877C11.0007 8.81361 10.971 8.51201 11.0289 8.22104C11.0867 7.93007 11.2296 7.6628 11.4394 7.45302C11.6492 7.24324 11.9164 7.10038 12.2074 7.0425C12.4984 6.98462 12.8 7.01433 13.0741 7.12786C13.3482 7.24139 13.5824 7.43365 13.7472 7.68032C13.9121 7.927 14 8.21701 14 8.51368C13.9996 8.91137 13.8414 9.29265 13.5602 9.57385C13.279 9.85506 12.8977 10.0132 12.5 10.0137Z" fill="currentColor"/>
</svg>
