<svg viewBox="0 0 16 17" fill="none" xmlns="http://www.w3.org/2000/svg">
<rect width="16" height="16" transform="translate(0 0.513672)" fill="white" fill-opacity="0.01" style="mix-blend-mode:multiply"/>
<path d="M14.5 14.5137C14.3293 14.5133 14.16 14.4825 14 14.4229V14.4199C13.7657 14.3207 13.5539 14.175 13.3774 13.9916C13.201 13.8082 13.0635 13.591 12.9734 13.353C12.9418 13.2529 12.8786 13.1657 12.7932 13.1045C12.7079 13.0433 12.605 13.0114 12.5 13.0137C12.3952 13.0142 12.2932 13.0474 12.2081 13.1087C12.1231 13.1699 12.0593 13.2562 12.0257 13.3555C11.915 13.6781 11.7108 13.9605 11.4391 14.1668C11.1674 14.373 10.8405 14.4938 10.5 14.5137C10.1591 14.4936 9.83181 14.3725 9.55993 14.1658C9.28806 13.9591 9.08388 13.6762 8.9734 13.353C8.94054 13.2537 8.877 13.1673 8.79194 13.1063C8.70687 13.0453 8.60466 13.0129 8.5 13.0137C8.39519 13.0142 8.29316 13.0474 8.20813 13.1087C8.1231 13.1699 8.05931 13.2562 8.02565 13.3555C7.91498 13.6781 7.7108 13.9605 7.43912 14.1668C7.16743 14.373 6.84052 14.4938 6.5 14.5137C6.15906 14.4936 5.83181 14.3725 5.55993 14.1658C5.28806 13.9591 5.08388 13.6762 4.9734 13.353C4.93975 13.2539 4.87582 13.1678 4.79065 13.1069C4.70547 13.0461 4.60334 13.0135 4.49864 13.0138C4.39395 13.014 4.29199 13.0471 4.20713 13.1085C4.12227 13.1698 4.05879 13.2562 4.02565 13.3555C3.91498 13.6781 3.7108 13.9605 3.43912 14.1668C3.16743 14.373 2.84052 14.4938 2.5 14.5137H1V15.5137H2.5C2.88804 15.5171 3.27141 15.4289 3.61894 15.2562C3.96647 15.0836 4.26834 14.8313 4.5 14.52C4.73404 14.8288 5.0364 15.0792 5.38338 15.2516C5.73036 15.424 6.11255 15.5137 6.5 15.5137C6.88745 15.5137 7.26964 15.424 7.61662 15.2516C7.9636 15.0792 8.26596 14.8288 8.5 14.52C8.73404 14.8288 9.0364 15.0792 9.38338 15.2516C9.73037 15.424 10.1126 15.5137 10.5 15.5137C10.8874 15.5137 11.2696 15.424 11.6166 15.2516C11.9636 15.0792 12.266 14.8288 12.5 14.52C12.7784 14.8798 13.1473 15.1593 13.5689 15.33C13.8641 15.4521 14.1806 15.5145 14.5 15.5137H15V14.5137H14.5Z" fill="currentColor"/>
<path d="M14 7.32867L14.8786 8.01367L15.5 7.22777L8.30615 1.62062C8.21742 1.55132 8.10806 1.51367 7.99547 1.51367C7.88289 1.51367 7.77353 1.55132 7.6848 1.62062L0.5 7.22337L1.12135 8.00927L2 7.32422V9.91797C1.90747 10.1426 1.7715 10.3467 1.5999 10.5187C1.42829 10.6906 1.22443 10.827 1 10.9199V11.9617C1.59823 11.8415 2.13179 11.5066 2.5 11.02C2.73404 11.3288 3.0364 11.5792 3.38338 11.7516C3.73036 11.924 4.11255 12.0137 4.5 12.0137C4.88745 12.0137 5.26964 11.924 5.61662 11.7516C5.9636 11.5792 6.26596 11.3288 6.5 11.02C6.73404 11.3288 7.0364 11.5792 7.38338 11.7516C7.73036 11.924 8.11255 12.0137 8.5 12.0137C8.88745 12.0137 9.26963 11.924 9.61662 11.7516C9.9636 11.5792 10.266 11.3288 10.5 11.02C10.7317 11.3313 11.0335 11.5836 11.3811 11.7562C11.7286 11.9289 12.112 12.0171 12.5 12.0137H15V11.0137H14V7.32867ZM10.9743 9.85528C10.9412 9.75597 10.8777 9.66957 10.7929 9.60826C10.708 9.54695 10.606 9.51382 10.5014 9.51355C10.3967 9.51328 10.2945 9.54588 10.2094 9.60675C10.1242 9.66762 10.0603 9.75369 10.0266 9.85283C9.91615 10.176 9.71199 10.459 9.44011 10.6658C9.16823 10.8725 8.84096 10.9936 8.5 11.0137C8.15948 10.9938 7.83257 10.873 7.56088 10.6668C7.2892 10.4605 7.08502 10.1781 6.97435 9.85547C6.94069 9.75622 6.8769 9.66994 6.79187 9.60867C6.70684 9.5474 6.60481 9.51419 6.5 9.51367C6.39534 9.51289 6.29313 9.54531 6.20806 9.60629C6.123 9.66727 6.05946 9.75366 6.0266 9.85302C5.91612 10.1762 5.71194 10.4591 5.44007 10.6658C5.16819 10.8726 4.84094 10.9936 4.5 11.0137C4.17001 10.9984 3.85179 10.8864 3.58491 10.6918C3.31803 10.4971 3.11427 10.2282 2.99895 9.91867L3 6.54442L7.9955 2.64942L13 6.54957L13.0008 11.0137H12.5C12.1595 10.9938 11.8326 10.873 11.5609 10.6668C11.2892 10.4605 11.085 10.1779 10.9743 9.85528Z" fill="currentColor"/>
</svg>
