<svg viewBox="0 0 16 16" fill="none" xmlns="http://www.w3.org/2000/svg">
<rect width="16" height="16" fill="white" fill-opacity="0.01" style="mix-blend-mode:multiply"/>
<path d="M13.5 11.0697V8.49966C13.5 8.23444 13.3946 7.98009 13.2071 7.79255C13.0196 7.60501 12.7652 7.49966 12.5 7.49966H8.5V4.92966C8.97133 4.80796 9.3821 4.51854 9.65531 4.11565C9.92851 3.71276 10.0454 3.22406 9.98406 2.74116C9.92273 2.25825 9.68737 1.81429 9.32212 1.49249C8.95687 1.1707 8.48679 0.993164 8 0.993164C7.51322 0.993164 7.04314 1.1707 6.67789 1.49249C6.31264 1.81429 6.07728 2.25825 6.01595 2.74116C5.95461 3.22406 6.0715 3.71276 6.3447 4.11565C6.61791 4.51854 7.02868 4.80796 7.5 4.92966V7.49966H3.5C3.23479 7.49966 2.98043 7.60501 2.7929 7.79255C2.60536 7.98009 2.5 8.23444 2.5 8.49966V11.0697C2.02868 11.1914 1.61791 11.4808 1.3447 11.8837C1.0715 12.2865 0.954608 12.7752 1.01595 13.2582C1.07728 13.7411 1.31264 14.185 1.67789 14.5068C2.04314 14.8286 2.51322 15.0061 3 15.0061C3.48679 15.0061 3.95687 14.8286 4.32212 14.5068C4.68737 14.185 4.92273 13.7411 4.98406 13.2582C5.0454 12.7752 4.92851 12.2865 4.65531 11.8837C4.3821 11.4808 3.97133 11.1914 3.5 11.0697V8.49966H12.5V11.0697C12.0287 11.1914 11.6179 11.4808 11.3447 11.8837C11.0715 12.2865 10.9546 12.7752 11.0159 13.2582C11.0773 13.7411 11.3126 14.185 11.6779 14.5068C12.0431 14.8286 12.5132 15.0061 13 15.0061C13.4868 15.0061 13.9569 14.8286 14.3221 14.5068C14.6874 14.185 14.9227 13.7411 14.9841 13.2582C15.0454 12.7752 14.9285 12.2865 14.6553 11.8837C14.3821 11.4808 13.9713 11.1914 13.5 11.0697ZM4 12.9997C4 13.1974 3.94136 13.3908 3.83147 13.5552C3.72159 13.7197 3.56541 13.8478 3.38269 13.9235C3.19996 13.9992 2.9989 14.019 2.80491 13.9804C2.61093 13.9419 2.43275 13.8466 2.2929 13.7068C2.15305 13.5669 2.0578 13.3887 2.01922 13.1947C1.98063 13.0008 2.00044 12.7997 2.07613 12.617C2.15181 12.4342 2.27999 12.2781 2.44443 12.1682C2.60888 12.0583 2.80222 11.9997 3 11.9997C3.26522 11.9997 3.51958 12.105 3.70711 12.2925C3.89465 12.4801 4 12.7344 4 12.9997ZM7 2.99966C7 2.80187 7.05865 2.60853 7.16854 2.44409C7.27842 2.27964 7.4346 2.15146 7.61732 2.07578C7.80005 2.00009 8.00111 1.98029 8.1951 2.01887C8.38908 2.05746 8.56726 2.1527 8.70711 2.29255C8.84696 2.4324 8.9422 2.61058 8.98079 2.80457C9.01938 2.99855 8.99957 3.19961 8.92388 3.38234C8.8482 3.56507 8.72002 3.72124 8.55558 3.83113C8.39113 3.94101 8.19779 3.99966 8 3.99966C7.73479 3.99966 7.48043 3.8943 7.2929 3.70676C7.10536 3.51923 7 3.26487 7 2.99966ZM13 13.9997C12.8022 13.9997 12.6089 13.941 12.4444 13.8311C12.28 13.7212 12.1518 13.5651 12.0761 13.3823C12.0004 13.1996 11.9806 12.9985 12.0192 12.8046C12.0578 12.6106 12.153 12.4324 12.2929 12.2925C12.4328 12.1527 12.6109 12.0575 12.8049 12.0189C12.9989 11.9803 13.2 12.0001 13.3827 12.0758C13.5654 12.1515 13.7216 12.2796 13.8315 12.4441C13.9414 12.6085 14 12.8019 14 12.9997C14 13.2649 13.8946 13.5192 13.7071 13.7068C13.5196 13.8943 13.2652 13.9997 13 13.9997Z" fill="currentColor"/>
</svg>
