<svg viewBox="0 0 16 17" fill="none" xmlns="http://www.w3.org/2000/svg">
<rect width="16" height="16" transform="translate(0 0.513672)" fill="white" fill-opacity="0.01" style="mix-blend-mode:multiply"/>
<path d="M7.5 5.51367H4V6.51367H7.5V5.51367Z" fill="currentColor"/>
<path d="M14.2072 4.51367L11.7072 2.01367L11 2.72072L12.5 4.22072V6.51367C12.5003 6.77879 12.6058 7.03297 12.7932 7.22044C12.9807 7.40791 13.2349 7.51337 13.5 7.51367V12.7637C13.5 12.9626 13.421 13.1533 13.2803 13.294C13.1397 13.4347 12.9489 13.5137 12.75 13.5137C12.5511 13.5137 12.3603 13.4347 12.2197 13.294C12.079 13.1533 12 12.9626 12 12.7637V8.51367C12 8.38106 11.9473 8.25389 11.8536 8.16012C11.7598 8.06635 11.6326 8.01367 11.5 8.01367H9.5V3.01367C9.5 2.88106 9.44732 2.75389 9.35355 2.66012C9.25979 2.56635 9.13261 2.51367 9 2.51367H2.5C2.36739 2.51367 2.24021 2.56635 2.14645 2.66012C2.05268 2.75389 2 2.88106 2 3.01367V13.5137H1V14.5137H10.5V13.5137H9.5V9.01367H11V12.7137C10.9942 13.1213 11.1282 13.5186 11.3798 13.8393C11.6315 14.16 11.9854 14.3848 12.3827 14.4761C12.6379 14.5303 12.9021 14.5269 13.1558 14.4661C13.4095 14.4052 13.6465 14.2885 13.8494 14.1244C14.0523 13.9603 14.216 13.753 14.3285 13.5176C14.4411 13.2822 14.4997 13.0246 14.5 12.7637V5.22097C14.5 5.08962 14.4742 4.95955 14.4239 4.83819C14.3737 4.71683 14.3 4.60656 14.2072 4.51367ZM7.5 6.51367H4V5.51367H7.5V6.51367Z" fill="currentColor"/>
</svg>
