<svg viewBox="0 0 16 17" fill="none" xmlns="http://www.w3.org/2000/svg">
<g clip-path="url(#clip0_1961_10542)">
<rect width="16" height="16" transform="translate(0 0.513672)" fill="white" fill-opacity="0.01" style="mix-blend-mode:multiply"/>
<path d="M15.5 8.51366C15.5004 8.38229 15.4747 8.25214 15.4244 8.13077C15.3741 8.00941 15.3002 7.89922 15.207 7.80661L12.3105 4.91016L13.7445 3.47631C13.9571 3.53331 14.1826 3.51855 14.386 3.43432C14.5894 3.3501 14.7593 3.20111 14.8694 3.01047C14.9795 2.81983 15.0236 2.5982 14.9949 2.37994C14.9661 2.16168 14.8662 1.959 14.7105 1.80333C14.5549 1.64766 14.3522 1.54771 14.134 1.51897C13.9157 1.49023 13.6941 1.53432 13.5034 1.64439C13.3128 1.75446 13.1638 1.92436 13.0795 2.12774C12.9953 2.33113 12.9805 2.55662 13.0375 2.76926L11.6035 4.20311L8.70704 1.30661C8.6142 1.21374 8.50397 1.14007 8.38266 1.08981C8.26134 1.03954 8.13131 1.01367 7.99999 1.01367C7.86867 1.01367 7.73864 1.03954 7.61732 1.08981C7.49601 1.14007 7.38578 1.21374 7.29294 1.30661L4.39649 4.20311L2.96249 2.76926C3.01947 2.55662 3.0047 2.33113 2.92046 2.12774C2.83622 1.92436 2.68722 1.75446 2.49657 1.64439C2.30592 1.53432 2.08428 1.49023 1.86603 1.51897C1.64777 1.54771 1.4451 1.64766 1.28944 1.80333C1.13378 1.959 1.03384 2.16168 1.00512 2.37994C0.976398 2.5982 1.0205 2.81983 1.13058 3.01047C1.24066 3.20111 1.41058 3.3501 1.61397 3.43432C1.81736 3.51855 2.04286 3.53331 2.25549 3.47631L3.68944 4.91016L0.79294 7.80661C0.700069 7.89945 0.626397 8.00968 0.576134 8.131C0.525871 8.25231 0.5 8.38234 0.5 8.51366C0.5 8.64498 0.525871 8.77501 0.576134 8.89633C0.626397 9.01765 0.700069 9.12787 0.79294 9.22071L3.68944 12.1172L2.25549 13.551C2.04286 13.494 1.81736 13.5088 1.61397 13.593C1.41058 13.6772 1.24066 13.8262 1.13058 14.0169C1.0205 14.2075 0.976398 14.4291 1.00512 14.6474C1.03384 14.8656 1.13378 15.0683 1.28944 15.224C1.4451 15.3797 1.64777 15.4796 1.86603 15.5084C2.08428 15.5371 2.30592 15.493 2.49657 15.3829C2.68722 15.2729 2.83622 15.103 2.92046 14.8996C3.0047 14.6962 3.01947 14.4707 2.96249 14.2581L4.39649 12.8242L7.29294 15.7207C7.38578 15.8136 7.49601 15.8873 7.61732 15.9375C7.73864 15.9878 7.86867 16.0137 7.99999 16.0137C8.13131 16.0137 8.26134 15.9878 8.38266 15.9375C8.50397 15.8873 8.6142 15.8136 8.70704 15.7207L11.6035 12.8242L13.0375 14.2581C12.9805 14.4707 12.9953 14.6962 13.0795 14.8996C13.1638 15.103 13.3128 15.2729 13.5034 15.3829C13.6941 15.493 13.9157 15.5371 14.134 15.5084C14.3522 15.4796 14.5549 15.3797 14.7105 15.224C14.8662 15.0683 14.9661 14.8656 14.9949 14.6474C15.0236 14.4291 14.9795 14.2075 14.8694 14.0169C14.7593 13.8262 14.5894 13.6772 14.386 13.593C14.1826 13.5088 13.9571 13.494 13.7445 13.551L12.3105 12.1172L15.207 9.22071C15.3002 9.12809 15.3741 9.0179 15.4243 8.89653C15.4746 8.77517 15.5003 8.64503 15.5 8.51366V8.51366ZM11.6035 11.4102L10.207 10.0137L9.49999 10.7207L10.8965 12.1172L7.99999 15.0137L5.10349 12.1172L6.49999 10.7207L5.79294 10.0137L4.39649 11.4102L1.49999 8.51366L4.39624 5.61691L5.79294 7.01366L6.49999 6.30661L5.10324 4.90991L7.99999 2.01366L10.8967 4.90991L9.49999 6.30661L10.207 7.01366L11.6037 5.61691L14.5 8.51366L11.6035 11.4102Z" fill="currentColor"/>
</g>
<defs>
<clipPath id="clip0_1961_10542">
<rect width="16" height="16" fill="white" transform="translate(0 0.513672)"/>
</clipPath>
</defs>
</svg>
