<svg viewBox="0 0 16 17" fill="none" xmlns="http://www.w3.org/2000/svg">
<g clip-path="url(#clip0_1961_10543)">
<rect width="16" height="16" transform="translate(0 0.513672)" fill="white" fill-opacity="0.01" style="mix-blend-mode:multiply"/>
<path d="M8.49999 9.60571V7.42161C8.83369 7.30366 9.11496 7.07153 9.29406 6.76626C9.47316 6.46098 9.53858 6.10222 9.47874 5.75338C9.41891 5.40453 9.23767 5.08808 8.96707 4.85994C8.69647 4.6318 8.35393 4.50668 7.99999 4.50668C7.64605 4.50668 7.30351 4.6318 7.03291 4.85994C6.76231 5.08808 6.58107 5.40453 6.52124 5.75338C6.4614 6.10222 6.52681 6.46098 6.70592 6.76626C6.88502 7.07153 7.16629 7.30366 7.49999 7.42161V9.60596C7.16638 9.72391 6.88521 9.956 6.70617 10.2612C6.52714 10.5664 6.46176 10.9251 6.52159 11.2738C6.58143 11.6226 6.76263 11.9389 7.03316 12.167C7.30369 12.3951 7.64615 12.5202 7.99999 12.5202C8.35383 12.5202 8.69629 12.3951 8.96682 12.167C9.23735 11.9389 9.41855 11.6226 9.47839 11.2738C9.53822 10.9251 9.47284 10.5664 9.29381 10.2612C9.11477 9.956 8.8336 9.72366 8.49999 9.60571ZM7.99999 5.51366C8.09888 5.51366 8.19555 5.54299 8.27778 5.59793C8.36 5.65287 8.42409 5.73096 8.46193 5.82232C8.49977 5.91368 8.50968 6.01422 8.49038 6.11121C8.47109 6.2082 8.42347 6.29729 8.35354 6.36722C8.28362 6.43714 8.19453 6.48476 8.09754 6.50405C8.00055 6.52335 7.90001 6.51345 7.80865 6.4756C7.71729 6.43776 7.6392 6.37367 7.58426 6.29145C7.52931 6.20922 7.49999 6.11255 7.49999 6.01366C7.50011 5.88109 7.55283 5.75398 7.64657 5.66024C7.74031 5.5665 7.86742 5.51378 7.99999 5.51366ZM7.99999 11.5137C7.9011 11.5137 7.80443 11.4843 7.7222 11.4294C7.63998 11.3745 7.57589 11.2964 7.53805 11.205C7.50021 11.1136 7.4903 11.0131 7.5096 10.9161C7.52889 10.8191 7.57651 10.73 7.64644 10.6601C7.71636 10.5902 7.80545 10.5426 7.90244 10.5233C7.99944 10.504 8.09997 10.5139 8.19133 10.5517C8.28269 10.5896 8.36078 10.6537 8.41573 10.7359C8.47067 10.8181 8.49999 10.9148 8.49999 11.0137C8.49987 11.1462 8.44715 11.2733 8.35341 11.3671C8.25967 11.4608 8.13256 11.5135 7.99999 11.5137Z" fill="currentColor"/>
<path d="M15.207 9.22071C15.2999 9.12787 15.3736 9.01765 15.4238 8.89633C15.4741 8.77501 15.5 8.64498 15.5 8.51366C15.5 8.38234 15.4741 8.25231 15.4238 8.131C15.3736 8.00968 15.2999 7.89945 15.207 7.80661L12.3136 4.91331L13.7639 3.48191C13.9778 3.53491 14.2032 3.51585 14.4051 3.42767C14.6071 3.3395 14.7743 3.18714 14.8808 2.99423C14.9873 2.80133 15.0272 2.57866 14.9943 2.36078C14.9613 2.14289 14.8574 1.94197 14.6986 1.78918C14.5399 1.63638 14.3351 1.54026 14.1161 1.51572C13.8971 1.49118 13.6761 1.5396 13.4875 1.65346C13.2988 1.76732 13.153 1.94026 13.0726 2.14545C12.9923 2.35064 12.9819 2.57662 13.0431 2.78831L11.6064 4.20606L8.70704 1.30661C8.6142 1.21374 8.50397 1.14007 8.38266 1.08981C8.26134 1.03954 8.13131 1.01367 7.99999 1.01367C7.86867 1.01367 7.73864 1.03954 7.61732 1.08981C7.49601 1.14007 7.38578 1.21374 7.29294 1.30661L4.39964 4.19996L2.96839 2.74951C3.02136 2.53558 3.00225 2.31015 2.91403 2.10819C2.8258 1.90623 2.67339 1.73904 2.48044 1.63254C2.28749 1.52604 2.06478 1.4862 1.84688 1.51919C1.62897 1.55219 1.42804 1.65617 1.27527 1.81502C1.1225 1.97386 1.02641 2.17869 1.00193 2.39771C0.977448 2.61674 1.02593 2.83772 1.13986 3.02638C1.25379 3.21504 1.4268 3.36082 1.63204 3.44111C1.83728 3.52141 2.06329 3.53173 2.27499 3.47046L3.69249 4.90721L0.79294 7.80661C0.700069 7.89945 0.626397 8.00968 0.576134 8.131C0.525871 8.25231 0.5 8.38234 0.5 8.51366C0.5 8.64498 0.525871 8.77501 0.576134 8.89633C0.626397 9.01765 0.700069 9.12787 0.79294 9.22071L3.69239 12.1201L2.27499 13.5569C2.06376 13.496 1.83838 13.5066 1.63376 13.5869C1.42914 13.6672 1.25673 13.8127 1.14323 14.001C1.02974 14.1892 0.981504 14.4096 1.00601 14.6281C1.03051 14.8465 1.12639 15.0508 1.27877 15.2092C1.43115 15.3676 1.63153 15.4713 1.84885 15.5043C2.06617 15.5372 2.2883 15.4976 2.4808 15.3915C2.6733 15.2854 2.82543 15.1187 2.9136 14.9174C3.00177 14.716 3.02106 14.4912 2.96849 14.2778L4.39974 12.8274L7.29304 15.7207C7.38588 15.8136 7.49611 15.8873 7.61742 15.9375C7.73874 15.9878 7.86877 16.0137 8.00009 16.0137C8.13141 16.0137 8.26144 15.9878 8.38276 15.9375C8.50407 15.8873 8.6143 15.8136 8.70714 15.7207L11.6065 12.8213L13.0432 14.239C12.9824 14.4503 12.993 14.6757 13.0733 14.8804C13.1536 15.085 13.2992 15.2574 13.4875 15.3709C13.6758 15.4844 13.8963 15.5326 14.1147 15.5081C14.3332 15.4836 14.5375 15.3876 14.6959 15.2352C14.8543 15.0828 14.958 14.8823 14.9909 14.6649C15.0239 14.4476 14.9842 14.2254 14.878 14.0329C14.7718 13.8404 14.6051 13.6883 14.4037 13.6001C14.2023 13.512 13.9774 13.4928 13.764 13.5454L12.3137 12.114L15.207 9.22071ZM7.99999 15.0137L1.49999 8.51366L7.99999 2.01366L14.5 8.51366L7.99999 15.0137Z" fill="currentColor"/>
</g>
<defs>
<clipPath id="clip0_1961_10543">
<rect width="16" height="16" fill="white" transform="translate(0 0.513672)"/>
</clipPath>
</defs>
</svg>
