<svg viewBox="0 0 16 16" fill="none" xmlns="http://www.w3.org/2000/svg">
<rect width="16" height="16" fill="white" fill-opacity="0.01" style="mix-blend-mode:multiply"/>
<path d="M14 10.9923C14 10.7626 13.9716 10.5397 13.9225 10.3246L15 9.91095L14.6417 8.9774L13.5385 9.40085C13.312 9.041 13.0134 8.73125 12.6601 8.49555L13.1448 7.4067L12.2313 6.99995L11.746 8.09C11.507 8.0285 11.258 7.9923 11 7.9923C10.742 7.9923 10.493 8.0285 10.254 8.09L9.7687 6.99995L8.85515 7.4067L9.3399 8.49555C8.98655 8.73125 8.68795 9.041 8.4615 9.40085L7.35835 8.9774L7 9.91095L8.0775 10.3246C8.02835 10.5397 8 10.7626 8 10.9923C8 11.2121 8.02535 11.4259 8.0704 11.6324L7 12.109L7.40675 13.0225L8.44675 12.5595C8.66775 12.9181 8.9597 13.2282 9.3063 13.4662L8.85515 14.6416L9.7887 14.9999L10.2167 13.885C10.4669 13.9528 10.7287 13.9923 11 13.9923C11.2713 13.9923 11.5331 13.9528 11.7833 13.885L12.2113 14.9999L13.1448 14.6416L12.6937 13.4662C13.0403 13.2282 13.3323 12.9181 13.5533 12.5595L14.5933 13.0225L15 12.109L13.9296 11.6324C13.9746 11.4259 14 11.2121 14 10.9923ZM11 12.9923C9.89695 12.9923 9 12.0951 9 10.9923C9 9.8895 9.89695 8.9923 11 8.9923C12.103 8.9923 13 9.8895 13 10.9923C13 12.0951 12.103 12.9923 11 12.9923Z" fill="currentColor"/>
<path d="M6.7355 7.44255L7.4749 8.18195L8.182 7.47485L7.4426 6.7355C7.6999 6.3744 7.8781 5.9547 7.95485 5.5H9V4.5H7.95485C7.8781 4.0453 7.69995 3.6256 7.4426 3.2645L8.182 2.5251L7.4749 1.818L6.7355 2.5574C6.3744 2.3001 5.9547 2.1219 5.5 2.04515V1H4.5V2.04515C4.0453 2.1219 3.6256 2.3001 3.2645 2.5574L2.5251 1.818L1.818 2.5251L2.5574 3.2645C2.3001 3.6256 2.1219 4.0453 2.04515 4.5H1V5.5H2.04515C2.1219 5.9547 2.30005 6.3744 2.5574 6.7355L1.818 7.47485L2.5251 8.18195L3.2645 7.44255C3.6256 7.69985 4.0453 7.87805 4.5 7.9548V8.99995H5.5V7.9548C5.9547 7.87805 6.3744 7.6999 6.7355 7.44255ZM3 4.99995C3 3.89715 3.89695 2.99995 5 2.99995C6.10305 2.99995 7 3.89715 7 4.99995C7 6.10275 6.10305 6.99995 5 6.99995C3.89695 6.99995 3 6.10275 3 4.99995Z" fill="currentColor"/>
</svg>
