<svg viewBox="0 0 16 16" fill="none" xmlns="http://www.w3.org/2000/svg">
<rect width="16" height="16" fill="white" fill-opacity="0.01" style="mix-blend-mode:multiply"/>
<path d="M2.00001 10V11H4.29301L1.00001 14.293L1.70701 15L5.00001 11.707V14H6.00001V10H2.00001Z" fill="currentColor"/>
<path d="M11.75 2H4.25001L0.85791 6.5227L3.00501 9L3.76071 8.345L2.59501 7H5.22271L8.00001 11.4433L10.7772 7H13.405L7.90626 13.346L8.66211 14L15.1421 6.5227L11.75 2ZM2.50001 6L4.75001 3H7.09791L5.22291 6H2.50001ZM8.00001 3.44335L9.59791 6H6.40211L8.00001 3.44335ZM8.00001 9.55665L6.40221 7H9.59781L8.00001 9.55665ZM10.7771 6L8.90211 3H11.25L13.5 6H10.7771Z" fill="currentColor"/>
</svg>
