<svg viewBox="0 0 16 17" fill="none" xmlns="http://www.w3.org/2000/svg">
<rect width="16" height="16" transform="translate(0 0.513672)" fill="white" fill-opacity="0.01" style="mix-blend-mode:multiply"/>
<path d="M8.50001 10.4794C9.50953 10.3522 10.4326 9.84505 11.0814 9.06121C11.7302 8.27738 12.0559 7.27576 11.9922 6.26025C11.9284 5.24474 11.4801 4.29169 10.7384 3.5951C9.99677 2.89851 9.01751 2.51074 8.00001 2.51074C6.9825 2.51074 6.00324 2.89851 5.26157 3.5951C4.5199 4.29169 4.07158 5.24474 4.00786 6.26025C3.94414 7.27576 4.26982 8.27738 4.9186 9.06121C5.56737 9.84505 6.49048 10.3522 7.50001 10.4794V11.514H5.00001V12.514H7.50001V14.514H8.50001V12.514H11V11.514H8.50001V10.4794ZM5.00001 6.51402C5.00001 5.92068 5.17595 5.34066 5.5056 4.84731C5.83524 4.35396 6.30378 3.96944 6.85196 3.74238C7.40013 3.51532 8.00333 3.45591 8.58528 3.57166C9.16722 3.68742 9.70177 3.97314 10.1213 4.3927C10.5409 4.81226 10.8266 5.34681 10.9424 5.92875C11.0581 6.51069 10.9987 7.11389 10.7716 7.66207C10.5446 8.21025 10.1601 8.67878 9.66672 9.00843C9.17337 9.33807 8.59335 9.51402 8.00001 9.51402C7.20462 9.51315 6.44207 9.19679 5.87965 8.63437C5.31723 8.07195 5.00088 7.3094 5.00001 6.51402V6.51402Z" fill="currentColor"/>
</svg>
