<svg viewBox="0 0 16 17" fill="none" xmlns="http://www.w3.org/2000/svg">
<rect width="16" height="16" transform="translate(0 0.513672)" fill="white" fill-opacity="0.01" style="mix-blend-mode:multiply"/>
<path d="M6 2.51367H3C2.73478 2.51367 2.48043 2.61903 2.29289 2.80657C2.10536 2.9941 2 3.24846 2 3.51367V6.51367C2 6.77889 2.10536 7.03324 2.29289 7.22078C2.48043 7.40831 2.73478 7.51367 3 7.51367H6C6.26522 7.51367 6.51957 7.40831 6.70711 7.22078C6.89464 7.03324 7 6.77889 7 6.51367V3.51367C7 3.24846 6.89464 2.9941 6.70711 2.80657C6.51957 2.61903 6.26522 2.51367 6 2.51367ZM6 6.51367H3V3.51367H6V6.51367Z" fill="currentColor"/>
<path d="M13 2.51367H10C9.73478 2.51367 9.48043 2.61903 9.29289 2.80657C9.10536 2.9941 9 3.24846 9 3.51367V6.51367C9 6.77889 9.10536 7.03324 9.29289 7.22078C9.48043 7.40831 9.73478 7.51367 10 7.51367H13C13.2652 7.51367 13.5196 7.40831 13.7071 7.22078C13.8946 7.03324 14 6.77889 14 6.51367V3.51367C14 3.24846 13.8946 2.9941 13.7071 2.80657C13.5196 2.61903 13.2652 2.51367 13 2.51367ZM13 6.51367H10V3.51367H13V6.51367Z" fill="currentColor"/>
<path d="M6 9.51367H3C2.73478 9.51367 2.48043 9.61903 2.29289 9.80657C2.10536 9.9941 2 10.2485 2 10.5137V13.5137C2 13.7789 2.10536 14.0332 2.29289 14.2208C2.48043 14.4083 2.73478 14.5137 3 14.5137H6C6.26522 14.5137 6.51957 14.4083 6.70711 14.2208C6.89464 14.0332 7 13.7789 7 13.5137V10.5137C7 10.2485 6.89464 9.9941 6.70711 9.80657C6.51957 9.61903 6.26522 9.51367 6 9.51367ZM6 13.5137H3V10.5137H6V13.5137Z" fill="currentColor"/>
<path d="M13 9.51367H10C9.73478 9.51367 9.48043 9.61903 9.29289 9.80657C9.10536 9.9941 9 10.2485 9 10.5137V13.5137C9 13.7789 9.10536 14.0332 9.29289 14.2208C9.48043 14.4083 9.73478 14.5137 10 14.5137H13C13.2652 14.5137 13.5196 14.4083 13.7071 14.2208C13.8946 14.0332 14 13.7789 14 13.5137V10.5137C14 10.2485 13.8946 9.9941 13.7071 9.80657C13.5196 9.61903 13.2652 9.51367 13 9.51367ZM13 13.5137H10V10.5137H13V13.5137Z" fill="currentColor"/>
</svg>
