<svg viewBox="0 0 16 17" fill="none" xmlns="http://www.w3.org/2000/svg">
<rect width="16" height="16" transform="translate(0 0.513672)" fill="white" fill-opacity="0.01" style="mix-blend-mode:multiply"/>
<path d="M8.5 6.01367H5.5C5.10218 6.01367 4.72064 6.17171 4.43934 6.45301C4.15804 6.73432 4 7.11585 4 7.51367V9.51367H5V7.51367C5 7.38106 5.05268 7.25389 5.14645 7.16012C5.24021 7.06635 5.36739 7.01367 5.5 7.01367H8.5C8.63261 7.01367 8.75979 7.06635 8.85355 7.16012C8.94732 7.25389 9 7.38106 9 7.51367V8.01367H10V7.51367C10 7.11585 9.84196 6.73432 9.56066 6.45301C9.27936 6.17171 8.89782 6.01367 8.5 6.01367Z" fill="currentColor"/>
<path d="M5 3.51367C5 3.90923 5.1173 4.29591 5.33706 4.62481C5.55682 4.95371 5.86918 5.21006 6.23463 5.36143C6.60009 5.51281 7.00222 5.55241 7.39018 5.47524C7.77814 5.39807 8.13451 5.20759 8.41421 4.92789C8.69392 4.64818 8.8844 4.29181 8.96157 3.90385C9.03874 3.51589 8.99913 3.11376 8.84776 2.74831C8.69638 2.38285 8.44004 2.0705 8.11114 1.85073C7.78224 1.63097 7.39556 1.51367 7 1.51367C6.46957 1.51367 5.96086 1.72439 5.58579 2.09946C5.21071 2.47453 5 2.98324 5 3.51367ZM8 3.51367C8 3.71145 7.94135 3.90479 7.83147 4.06924C7.72159 4.23369 7.56541 4.36186 7.38268 4.43755C7.19996 4.51324 6.99889 4.53304 6.80491 4.49446C6.61093 4.45587 6.43275 4.36063 6.29289 4.22078C6.15304 4.08093 6.0578 3.90274 6.01921 3.70876C5.98063 3.51478 6.00043 3.31371 6.07612 3.13099C6.15181 2.94826 6.27998 2.79208 6.44443 2.6822C6.60888 2.57232 6.80222 2.51367 7 2.51367C7.26522 2.51367 7.51957 2.61903 7.70711 2.80657C7.89464 2.9941 8 3.24846 8 3.51367Z" fill="currentColor"/>
<path d="M11 14.0137H8C7.73487 14.0134 7.48068 13.9079 7.2932 13.7205C7.10572 13.533 7.00028 13.2788 7 13.0137V10.0137C7.00028 9.74854 7.10572 9.49435 7.2932 9.30687C7.48068 9.1194 7.73487 9.01395 8 9.01367H11C11.2651 9.01395 11.5193 9.1194 11.7068 9.30687C11.8943 9.49435 11.9997 9.74854 12 10.0137V13.0137C11.9997 13.2788 11.8943 13.533 11.7068 13.7205C11.5193 13.9079 11.2651 14.0134 11 14.0137ZM8 10.0137V13.0137H11V10.0137H8Z" fill="currentColor"/>
<path d="M4 15.5137H2C1.73487 15.5134 1.48068 15.4079 1.2932 15.2205C1.10572 15.033 1.00028 14.7788 1 14.5137V2.51367C1.00028 2.24854 1.10572 1.99435 1.2932 1.80687C1.48068 1.6194 1.73487 1.51395 2 1.51367H4V2.51367H2V14.5137H4V15.5137Z" fill="currentColor"/>
<path d="M14 15.5137H12V14.5137H14V2.51367H12V1.51367H14C14.2651 1.51395 14.5193 1.6194 14.7068 1.80687C14.8943 1.99435 14.9997 2.24854 15 2.51367V14.5137C14.9997 14.7788 14.8943 15.033 14.7068 15.2205C14.5193 15.4079 14.2651 15.5134 14 15.5137Z" fill="currentColor"/>
</svg>
