<svg viewBox="0 0 16 17" fill="none" xmlns="http://www.w3.org/2000/svg">
<rect width="16" height="16" transform="translate(0 0.513672)" fill="white" fill-opacity="0.01" style="mix-blend-mode:multiply"/>
<path d="M5.5 11.0137H4.5V10.0137C4.50044 9.61598 4.65862 9.2347 4.93983 8.95349C5.22104 8.67228 5.60231 8.51411 6 8.51367H9V9.51367H6C5.86744 9.51382 5.74035 9.56654 5.64661 9.66028C5.55287 9.75402 5.50015 9.88111 5.5 10.0137V11.0137Z" fill="currentColor"/>
<path d="M7.5 8.01367C7.10444 8.01367 6.71776 7.89637 6.38886 7.67661C6.05996 7.45685 5.80362 7.14449 5.65224 6.77904C5.50087 6.41359 5.46126 6.01145 5.53843 5.62349C5.6156 5.23553 5.80608 4.87916 6.08579 4.59946C6.36549 4.31975 6.72186 4.12927 7.10982 4.0521C7.49778 3.97493 7.89992 4.01454 8.26537 4.16591C8.63082 4.31729 8.94318 4.57363 9.16294 4.90253C9.38271 5.23143 9.5 5.61811 9.5 6.01367C9.49941 6.54392 9.2885 7.05228 8.91356 7.42723C8.53862 7.80217 8.03025 8.01308 7.5 8.01367ZM7.5 5.01367C7.30222 5.01367 7.10888 5.07232 6.94443 5.1822C6.77998 5.29208 6.65181 5.44826 6.57612 5.63099C6.50044 5.81371 6.48063 6.01478 6.51922 6.20876C6.5578 6.40274 6.65304 6.58093 6.7929 6.72078C6.93275 6.86063 7.11093 6.95587 7.30491 6.99446C7.49889 7.03304 7.69996 7.01324 7.88269 6.93755C8.06541 6.86186 8.22159 6.73369 8.33147 6.56924C8.44135 6.40479 8.5 6.21145 8.5 6.01367C8.49973 5.74854 8.39428 5.49435 8.2068 5.30687C8.01933 5.1194 7.76513 5.01395 7.5 5.01367Z" fill="currentColor"/>
<path d="M12 11.5137C11.6044 11.5137 11.2178 11.3964 10.8889 11.1766C10.56 10.9568 10.3036 10.6445 10.1522 10.279C10.0009 9.91359 9.96126 9.51145 10.0384 9.12349C10.1156 8.73553 10.3061 8.37916 10.5858 8.09946C10.8655 7.81975 11.2219 7.62927 11.6098 7.5521C11.9978 7.47493 12.3999 7.51454 12.7654 7.66591C13.1308 7.81729 13.4432 8.07363 13.6629 8.40253C13.8827 8.73143 14 9.11811 14 9.51367C13.9994 10.0439 13.7885 10.5523 13.4136 10.9272C13.0386 11.3022 12.5303 11.5131 12 11.5137ZM12 8.51367C11.8022 8.51367 11.6089 8.57232 11.4444 8.6822C11.28 8.79208 11.1518 8.94826 11.0761 9.13099C11.0004 9.31371 10.9806 9.51478 11.0192 9.70876C11.0578 9.90274 11.153 10.0809 11.2929 10.2208C11.4327 10.3606 11.6109 10.4559 11.8049 10.4945C11.9989 10.533 12.2 10.5132 12.3827 10.4376C12.5654 10.3619 12.7216 10.2337 12.8315 10.0692C12.9414 9.90479 13 9.71145 13 9.51367C12.9997 9.24854 12.8943 8.99435 12.7068 8.80687C12.5193 8.6194 12.2651 8.51395 12 8.51367Z" fill="currentColor"/>
<path d="M15 14.5137H14V13.5137C13.9999 13.3811 13.9471 13.254 13.8534 13.1603C13.7597 13.0665 13.6326 13.0138 13.5 13.0137H10.5C10.3674 13.0138 10.2403 13.0665 10.1466 13.1603C10.0529 13.254 10.0001 13.3811 10 13.5137V14.5137H9V13.5137C9.00044 13.116 9.15862 12.7347 9.43983 12.4535C9.72104 12.1723 10.1023 12.0141 10.5 12.0137H13.5C13.8977 12.0141 14.279 12.1723 14.5602 12.4535C14.8414 12.7347 14.9996 13.116 15 13.5137V14.5137Z" fill="currentColor"/>
<path d="M7 14.3804L4.3828 12.9849C3.66248 12.6017 3.0601 12.0296 2.64031 11.3299C2.22051 10.6303 1.99916 9.82958 2 9.01367V2.51367H12V5.51367H13V2.51367C12.9997 2.24855 12.8942 1.99437 12.7068 1.8069C12.5193 1.61943 12.2651 1.51398 12 1.51367H2C1.73488 1.51398 1.4807 1.61943 1.29323 1.8069C1.10576 1.99437 1.00031 2.24855 1 2.51367V9.01367C0.99892 10.0109 1.26942 10.9895 1.78246 11.8446C2.29551 12.6997 3.03173 13.3989 3.9121 13.8672L7 15.5137V14.3804Z" fill="currentColor"/>
</svg>
