<svg viewBox="0 0 16 17" fill="none" xmlns="http://www.w3.org/2000/svg">
<rect width="16" height="16" transform="translate(0 0.513672)" fill="white" fill-opacity="0.01" style="mix-blend-mode:multiply"/>
<path d="M10 5.01367C10.2761 5.01367 10.5 4.78981 10.5 4.51367C10.5 4.23753 10.2761 4.01367 10 4.01367C9.72386 4.01367 9.5 4.23753 9.5 4.51367C9.5 4.78981 9.72386 5.01367 10 5.01367Z" fill="currentColor"/>
<path d="M11.5 5.01367C11.7761 5.01367 12 4.78981 12 4.51367C12 4.23753 11.7761 4.01367 11.5 4.01367C11.2239 4.01367 11 4.23753 11 4.51367C11 4.78981 11.2239 5.01367 11.5 5.01367Z" fill="currentColor"/>
<path d="M13 5.01367C13.2761 5.01367 13.5 4.78981 13.5 4.51367C13.5 4.23753 13.2761 4.01367 13 4.01367C12.7239 4.01367 12.5 4.23753 12.5 4.51367C12.5 4.78981 12.7239 5.01367 13 5.01367Z" fill="currentColor"/>
<path d="M14 2.51367H2C1.73488 2.51398 1.4807 2.61943 1.29323 2.8069C1.10576 2.99437 1.0003 3.24855 1 3.51367V13.5137C1.0003 13.7788 1.10576 14.033 1.29323 14.2204C1.4807 14.4079 1.73488 14.5134 2 14.5137H14C14.2651 14.5134 14.5193 14.4079 14.7068 14.2204C14.8942 14.033 14.9997 13.7788 15 13.5137V3.51367C14.9997 3.24855 14.8942 2.99437 14.7068 2.8069C14.5193 2.61943 14.2651 2.51398 14 2.51367ZM14 3.51367V5.51367H2V3.51367H14ZM2 6.51367H5V13.5137H2V6.51367ZM6 13.5137V6.51367H14V13.5137H6Z" fill="currentColor"/>
</svg>
