<svg viewBox="0 0 16 16" fill="none" xmlns="http://www.w3.org/2000/svg">
<rect width="16" height="16" fill="white" fill-opacity="0.01" style="mix-blend-mode:multiply"/>
<path d="M13.1851 10.2597L8.50014 7.70465V6.92965C8.86259 6.83607 9.19151 6.64263 9.44946 6.37136C9.70742 6.10008 9.88407 5.76186 9.95931 5.39515C10.0346 5.02845 10.0054 4.64799 9.87507 4.29706C9.74478 3.94612 9.51862 3.63879 9.2223 3.41004C8.92598 3.18128 8.57142 3.04028 8.19893 3.00307C7.82644 2.96586 7.45098 3.03394 7.11527 3.19956C6.77956 3.36518 6.49707 3.62169 6.29993 3.93992C6.10279 4.25815 5.99892 4.62531 6.00014 4.99965H7.00014C7.02268 4.73444 7.14966 4.48904 7.35313 4.31744C7.45389 4.23248 7.57039 4.16819 7.69598 4.12825C7.82158 4.0883 7.95382 4.07349 8.08514 4.08465C8.21646 4.09582 8.3443 4.13273 8.46135 4.1933C8.5784 4.25387 8.68238 4.3369 8.76735 4.43765C8.85231 4.5384 8.9166 4.6549 8.95654 4.7805C8.99649 4.9061 9.0113 5.03833 9.00014 5.16965C8.95067 5.41033 8.81759 5.62573 8.62448 5.77766C8.43137 5.92958 8.1907 6.00823 7.94514 5.99965V5.99965C7.82712 5.99965 7.71393 6.04654 7.63047 6.12999C7.54702 6.21345 7.50014 6.32663 7.50014 6.44465V7.70465L2.81514 10.2597C2.50884 10.4222 2.26589 10.6827 2.12514 10.9997C2.02756 11.2145 1.98529 11.4504 2.00215 11.6858C2.01902 11.9212 2.0945 12.1487 2.22172 12.3474C2.34894 12.5462 2.52386 12.71 2.73055 12.8239C2.93724 12.9378 3.16914 12.9983 3.40514 12.9997H12.5951C12.8311 12.9983 13.063 12.9378 13.2697 12.8239C13.4764 12.71 13.6513 12.5462 13.7786 12.3474C13.9058 12.1487 13.9813 11.9212 13.9981 11.6858C14.015 11.4504 13.9727 11.2145 13.8751 10.9997C13.7344 10.6827 13.4914 10.4222 13.1851 10.2597V10.2597ZM12.5951 11.9997H3.40514C3.29772 11.9997 3.19471 11.957 3.11876 11.881C3.04281 11.8051 3.00014 11.7021 3.00014 11.5947C2.99989 11.5047 3.02391 11.4164 3.06967 11.3389C3.11543 11.2615 3.18123 11.1978 3.26014 11.1547L8.00014 8.56965L12.7401 11.1547C12.819 11.1978 12.8848 11.2615 12.9306 11.3389C12.9764 11.4164 13.0004 11.5047 13.0001 11.5947C13.0001 11.7021 12.9575 11.8051 12.8815 11.881C12.8056 11.957 12.7026 11.9997 12.5951 11.9997V11.9997Z" fill="currentColor"/>
</svg>
