<svg viewBox="0 0 16 17" fill="none" xmlns="http://www.w3.org/2000/svg">
<rect width="16" height="16" transform="translate(0 0.513672)" fill="white" fill-opacity="0.01" style="mix-blend-mode:multiply"/>
<path d="M12.5 8.51367V8.01367C12.5 6.8202 12.0259 5.6756 11.182 4.83169C10.3381 3.98778 9.19347 3.51367 8 3.51367C6.80653 3.51367 5.66193 3.98778 4.81802 4.83169C3.97411 5.6756 3.5 6.8202 3.5 8.01367V8.51367C2.83696 8.51367 2.20107 8.77706 1.73223 9.2459C1.26339 9.71475 1 10.3506 1 11.0137C1 11.6767 1.26339 12.3126 1.73223 12.7814C2.20107 13.2503 2.83696 13.5137 3.5 13.5137H4.5V8.01367C4.5 7.08541 4.86875 6.19518 5.52513 5.5388C6.1815 4.88242 7.07174 4.51367 8 4.51367C8.92826 4.51367 9.8185 4.88242 10.4749 5.5388C11.1313 6.19518 11.5 7.08541 11.5 8.01367V13.5137H12.5C13.163 13.5137 13.7989 13.2503 14.2678 12.7814C14.7366 12.3126 15 11.6767 15 11.0137C15 10.3506 14.7366 9.71475 14.2678 9.2459C13.7989 8.77706 13.163 8.51367 12.5 8.51367ZM2 11.0137C2 10.6158 2.15804 10.2343 2.43934 9.95301C2.72064 9.67171 3.10218 9.51367 3.5 9.51367V12.5137C3.10218 12.5137 2.72064 12.3556 2.43934 12.0743C2.15804 11.793 2 11.4115 2 11.0137V11.0137ZM12.5 12.5137V9.51367C12.8978 9.51367 13.2794 9.67171 13.5607 9.95301C13.842 10.2343 14 10.6158 14 11.0137C14 11.4115 13.842 11.793 13.5607 12.0743C13.2794 12.3556 12.8978 12.5137 12.5 12.5137V12.5137Z" fill="currentColor"/>
</svg>
