<svg viewBox="0 0 16 17" fill="none" xmlns="http://www.w3.org/2000/svg">
<rect width="16" height="16" transform="translate(0 0.513672)" fill="white" fill-opacity="0.01" style="mix-blend-mode:multiply"/>
<path d="M12.5 5.51348H12.47C12.3428 4.41719 11.8171 3.40588 10.993 2.67184C10.1688 1.9378 9.10365 1.53223 8 1.53223C6.89635 1.53223 5.83119 1.9378 5.00704 2.67184C4.18289 3.40588 3.65723 4.41719 3.53 5.51348H3.5C2.83696 5.51348 2.20107 5.77687 1.73223 6.24571C1.26339 6.71455 1 7.35044 1 8.01348C1 8.67652 1.26339 9.3124 1.73223 9.78125C2.20107 10.2501 2.83696 10.5135 3.5 10.5135H4.5V6.01348C4.5 5.08522 4.86875 4.19498 5.52513 3.5386C6.1815 2.88223 7.07174 2.51348 8 2.51348C8.92826 2.51348 9.8185 2.88223 10.4749 3.5386C11.1313 4.19498 11.5 5.08522 11.5 6.01348V11.0135C11.4997 11.4716 11.3421 11.9157 11.0536 12.2715C10.7651 12.6274 10.3631 12.8734 9.915 12.9685C9.78153 12.5004 9.48191 12.097 9.07232 11.834C8.66272 11.571 8.17126 11.4663 7.69006 11.5397C7.20885 11.6131 6.77093 11.8595 6.45838 12.2327C6.14584 12.6059 5.98011 13.0802 5.99228 13.5669C6.00444 14.0535 6.19366 14.519 6.52447 14.8761C6.85527 15.2331 7.30496 15.4573 7.78923 15.5066C8.2735 15.5559 8.75912 15.4268 9.15506 15.1437C9.551 14.8605 9.83009 14.4427 9.94 13.9685C10.6495 13.8633 11.2978 13.5074 11.7675 12.9653C12.2371 12.4232 12.497 11.7307 12.5 11.0135V10.5135C13.163 10.5135 13.7989 10.2501 14.2678 9.78125C14.7366 9.3124 15 8.67652 15 8.01348C15 7.35044 14.7366 6.71455 14.2678 6.24571C13.7989 5.77687 13.163 5.51348 12.5 5.51348ZM2 8.01348C2 7.61565 2.15804 7.23412 2.43934 6.95282C2.72064 6.67151 3.10218 6.51348 3.5 6.51348V9.51348C3.10218 9.51348 2.72064 9.35544 2.43934 9.07414C2.15804 8.79283 2 8.4113 2 8.01348V8.01348ZM8 14.5135C7.80222 14.5135 7.60888 14.4548 7.44443 14.3449C7.27998 14.2351 7.15181 14.0789 7.07612 13.8962C7.00043 13.7134 6.98063 13.5124 7.01921 13.3184C7.0578 13.1244 7.15304 12.9462 7.29289 12.8064C7.43275 12.6665 7.61093 12.5713 7.80491 12.5327C7.99889 12.4941 8.19996 12.5139 8.38268 12.5896C8.56541 12.6653 8.72159 12.7935 8.83147 12.9579C8.94135 13.1224 9 13.3157 9 13.5135C9 13.7787 8.89464 14.033 8.70711 14.2206C8.51957 14.4081 8.26522 14.5135 8 14.5135V14.5135ZM12.5 9.51348V6.51348C12.8978 6.51348 13.2794 6.67151 13.5607 6.95282C13.842 7.23412 14 7.61565 14 8.01348C14 8.4113 13.842 8.79283 13.5607 9.07414C13.2794 9.35544 12.8978 9.51348 12.5 9.51348V9.51348Z" fill="currentColor"/>
</svg>
