<svg viewBox="0 0 16 17" fill="none" xmlns="http://www.w3.org/2000/svg">
<rect width="16" height="16" transform="translate(0 0.513672)" fill="white" fill-opacity="0.01" style="mix-blend-mode:multiply"/>
<path d="M13.5 5.51367H10.5C10.1023 5.51411 9.72103 5.67229 9.43982 5.9535C9.15861 6.2347 9.00044 6.61598 9 7.01367V10.0137C9.0003 10.2788 9.10576 10.533 9.29323 10.7204C9.4807 10.9079 9.73488 11.0134 10 11.0137V14.5137C10.0003 14.7788 10.1058 15.033 10.2932 15.2204C10.4807 15.4079 10.7349 15.5134 11 15.5137H13C13.2651 15.5134 13.5193 15.4079 13.7068 15.2204C13.8942 15.033 13.9997 14.7788 14 14.5137V11.0137C14.2651 11.0134 14.5193 10.9079 14.7068 10.7204C14.8942 10.533 14.9997 10.2788 15 10.0137V7.01367C14.9996 6.61598 14.8414 6.2347 14.5602 5.9535C14.279 5.67229 13.8977 5.51411 13.5 5.51367ZM14 10.0137H13V14.5137H11V10.0137H10V7.01367C10.0001 6.8811 10.0528 6.75399 10.1466 6.66025C10.2403 6.56651 10.3674 6.51379 10.5 6.51367H13.5C13.6326 6.51379 13.7597 6.56651 13.8534 6.66025C13.9472 6.75399 13.9999 6.8811 14 7.01367V10.0137Z" fill="currentColor"/>
<path d="M10 3.01367C10 2.61811 10.1173 2.23143 10.3371 1.90253C10.5568 1.57363 10.8692 1.31729 11.2346 1.16591C11.6001 1.01454 12.0022 0.974932 12.3902 1.0521C12.7781 1.12927 13.1345 1.31975 13.4142 1.59946C13.6939 1.87916 13.8844 2.23553 13.9616 2.62349C14.0387 3.01145 13.9991 3.41359 13.8478 3.77904C13.6964 4.14449 13.44 4.45685 13.1111 4.67661C12.7822 4.89637 12.3956 5.01367 12 5.01367C11.4697 5.01312 10.9614 4.80222 10.5864 4.42727C10.2114 4.05232 10.0006 3.54394 10 3.01367ZM11 3.01367C11 3.21145 11.0586 3.40479 11.1685 3.56924C11.2784 3.73369 11.4346 3.86186 11.6173 3.93755C11.8 4.01324 12.0011 4.03304 12.1951 3.99446C12.3891 3.95587 12.5673 3.86063 12.7071 3.72078C12.847 3.58093 12.9422 3.40274 12.9808 3.20876C13.0194 3.01478 12.9996 2.81372 12.9239 2.63099C12.8482 2.44826 12.72 2.29208 12.5556 2.1822C12.3911 2.07232 12.1978 2.01367 12 2.01367C11.7349 2.01398 11.4807 2.11943 11.2932 2.3069C11.1058 2.49437 11.0003 2.74855 11 3.01367Z" fill="currentColor"/>
<path d="M7 8.51367V7.01367C6.99956 6.61598 6.84139 6.2347 6.56018 5.9535C6.27897 5.67229 5.89769 5.51411 5.5 5.51367H2.5C2.10231 5.51411 1.72103 5.67229 1.43982 5.9535C1.15861 6.2347 1.00044 6.61598 1 7.01367V8.51367H0V9.51367H8V8.51367H7ZM2 7.01367C2.00012 6.8811 2.05284 6.75399 2.14658 6.66025C2.24032 6.56651 2.36743 6.51379 2.5 6.51367H5.5C5.63257 6.51379 5.75968 6.56651 5.85342 6.66025C5.94716 6.75399 5.99988 6.8811 6 7.01367V8.51367H2V7.01367Z" fill="currentColor"/>
<path d="M2 3.01367C2 2.61811 2.1173 2.23143 2.33706 1.90253C2.55682 1.57363 2.86918 1.31729 3.23463 1.16591C3.60009 1.01454 4.00222 0.974932 4.39018 1.0521C4.77814 1.12927 5.13451 1.31975 5.41421 1.59946C5.69392 1.87916 5.8844 2.23553 5.96157 2.62349C6.03874 3.01145 5.99913 3.41359 5.84776 3.77904C5.69638 4.14449 5.44004 4.45685 5.11114 4.67661C4.78224 4.89637 4.39556 5.01367 4 5.01367C3.46974 5.01312 2.96135 4.80222 2.5864 4.42727C2.21145 4.05232 2.00056 3.54394 2 3.01367ZM3 3.01367C3 3.21145 3.05865 3.40479 3.16853 3.56924C3.27841 3.73369 3.43459 3.86186 3.61732 3.93755C3.80004 4.01324 4.00111 4.03304 4.19509 3.99446C4.38907 3.95587 4.56725 3.86063 4.70711 3.72078C4.84696 3.58093 4.9422 3.40274 4.98079 3.20876C5.01937 3.01478 4.99957 2.81372 4.92388 2.63099C4.84819 2.44826 4.72002 2.29208 4.55557 2.1822C4.39112 2.07232 4.19778 2.01367 4 2.01367C3.73488 2.01398 3.4807 2.11943 3.29323 2.3069C3.10576 2.49437 3.0003 2.74855 3 3.01367Z" fill="currentColor"/>
</svg>
