<svg viewBox="0 0 16 16" fill="none" xmlns="http://www.w3.org/2000/svg">
<rect width="16" height="16" fill="white" fill-opacity="0.01" style="mix-blend-mode:multiply"/>
<path d="M11.5 14.5H4.5C4.32225 14.5 4.1577 14.4055 4.0681 14.252L0.5681 8.25195C0.4773 8.0963 0.4773 7.9037 0.5681 7.74805L4.0681 1.74805C4.1577 1.5945 4.32225 1.5 4.5 1.5H11.5C11.6778 1.5 11.8423 1.5945 11.9319 1.74805L15.4319 7.74805C15.5227 7.9037 15.5227 8.0963 15.4319 8.25195L11.9319 14.252C11.8423 14.4055 11.6778 14.5 11.5 14.5ZM4.7871 13.5H11.2129L14.4212 8L11.2129 2.5H4.7871L1.57885 8L4.7871 13.5Z" fill="currentColor"/>
</svg>
