<svg viewBox="0 0 16 16" fill="none" xmlns="http://www.w3.org/2000/svg">
<rect width="16" height="16" fill="white" fill-opacity="0.01" style="mix-blend-mode:multiply"/>
<path d="M1.5 11.5V4.5C1.5 4.32225 1.5945 4.1577 1.74805 4.0681L7.74805 0.5681C7.9037 0.4773 8.0963 0.4773 8.25195 0.5681L14.252 4.0681C14.4055 4.1577 14.5 4.32225 14.5 4.5V11.5C14.5 11.6778 14.4055 11.8423 14.252 11.9319L8.25195 15.4319C8.0963 15.5227 7.9037 15.5227 7.74805 15.4319L1.74805 11.9319C1.5945 11.8423 1.5 11.6778 1.5 11.5ZM2.5 4.7871V11.2129L8 14.4212L13.5 11.2129V4.7871L8 1.57885L2.5 4.7871Z" fill="currentColor"/>
</svg>
