<svg viewBox="0 0 16 17" fill="none" xmlns="http://www.w3.org/2000/svg">
<rect width="16" height="16" transform="translate(0 0.513672)" fill="white" fill-opacity="0.01" style="mix-blend-mode:multiply"/>
<path d="M12.5 8.51367H8.5C8.23488 8.51398 7.9807 8.61943 7.79323 8.8069C7.60576 8.99437 7.5003 9.24855 7.5 9.51367V12.5137H2V7.51367H1V15.5137H2V13.5137H14V15.5137H15V11.0137C14.9992 10.3509 14.7356 9.71544 14.2669 9.24677C13.7982 8.7781 13.1628 8.51445 12.5 8.51367ZM14 12.5137H8.5V9.51367H12.5C12.8977 9.51411 13.279 9.67228 13.5602 9.95349C13.8414 10.2347 13.9996 10.616 14 11.0137V12.5137Z" fill="currentColor"/>
<path d="M4.75 9.01367C4.89834 9.01367 5.04334 9.05766 5.16668 9.14007C5.29001 9.22248 5.38614 9.33962 5.44291 9.47666C5.49968 9.6137 5.51453 9.7645 5.48559 9.90999C5.45665 10.0555 5.38522 10.1891 5.28033 10.294C5.17544 10.3989 5.0418 10.4703 4.89632 10.4993C4.75083 10.5282 4.60003 10.5133 4.46299 10.4566C4.32594 10.3998 4.20881 10.3037 4.1264 10.1803C4.04399 10.057 4 9.91201 4 9.76367C4.00022 9.56483 4.07931 9.37419 4.21992 9.23359C4.36052 9.09299 4.55116 9.0139 4.75 9.01367ZM4.75 8.01367C4.40388 8.01367 4.06554 8.11631 3.77775 8.3086C3.48997 8.50089 3.26566 8.77421 3.13321 9.09398C3.00076 9.41375 2.9661 9.76561 3.03363 10.1051C3.10115 10.4445 3.26782 10.7564 3.51256 11.0011C3.75731 11.2459 4.06912 11.4125 4.40859 11.48C4.74806 11.5476 5.09993 11.5129 5.4197 11.3805C5.73947 11.248 6.01278 11.0237 6.20507 10.7359C6.39736 10.4481 6.5 10.1098 6.5 9.76367C6.5 9.29954 6.31563 8.85442 5.98744 8.52623C5.65925 8.19805 5.21413 8.01367 4.75 8.01367Z" fill="currentColor"/>
<path d="M10.5 3.51367H8.5V1.51367H7.5V3.51367H5.5V4.51367H7.5V6.51367H8.5V4.51367H10.5V3.51367Z" fill="currentColor"/>
</svg>
