<svg viewBox="0 0 16 17" fill="none" xmlns="http://www.w3.org/2000/svg">
<rect width="16" height="16" transform="translate(0 0.513672)" fill="white" fill-opacity="0.01" style="mix-blend-mode:multiply"/>
<path d="M4.75 8.01332C4.89834 8.01332 5.04334 8.0573 5.16668 8.13971C5.29001 8.22212 5.38614 8.33926 5.44291 8.4763C5.49968 8.61335 5.51453 8.76415 5.48559 8.90963C5.45665 9.05512 5.38522 9.18876 5.28033 9.29364C5.17544 9.39853 5.0418 9.46997 4.89632 9.4989C4.75083 9.52784 4.60003 9.51299 4.46299 9.45622C4.32594 9.39946 4.20881 9.30333 4.1264 9.17999C4.04399 9.05666 4 8.91165 4 8.76332C4 8.5644 4.07902 8.37364 4.21967 8.23299C4.36032 8.09233 4.55109 8.01332 4.75 8.01332ZM4.75 7.01332C4.40388 7.01332 4.06554 7.11595 3.77775 7.30824C3.48997 7.50054 3.26566 7.77385 3.13321 8.09362C3.00076 8.41339 2.9661 8.76526 3.03363 9.10472C3.10115 9.44419 3.26782 9.75601 3.51256 10.0008C3.75731 10.2455 4.06912 10.4122 4.40859 10.4797C4.74806 10.5472 5.09993 10.5126 5.4197 10.3801C5.73947 10.2477 6.01278 10.0233 6.20507 9.73556C6.39736 9.44778 6.5 9.10943 6.5 8.76332C6.5 8.29919 6.31563 7.85407 5.98744 7.52588C5.65925 7.19769 5.21413 7.01332 4.75 7.01332Z" fill="currentColor"/>
<path d="M12.5 7.51332H8.5C8.23478 7.51332 7.98043 7.61867 7.79289 7.80621C7.60536 7.99374 7.5 8.2481 7.5 8.51332V11.5133H2V5.81332L8 2.58332L14.265 5.95332L14.735 5.07332L8.235 1.57332C8.16266 1.5348 8.08196 1.51465 8 1.51465C7.91804 1.51465 7.83734 1.5348 7.765 1.57332L1.265 5.07332C1.18516 5.11583 1.11835 5.1792 1.07168 5.25669C1.02502 5.33417 1.00024 5.42286 1 5.51332V15.5133H2V12.5133H14V15.5133H15V10.0133C15 9.35027 14.7366 8.71439 14.2678 8.24555C13.7989 7.77671 13.163 7.51332 12.5 7.51332ZM8.5 11.5133V8.51332H12.5C12.8978 8.51332 13.2794 8.67135 13.5607 8.95265C13.842 9.23396 14 9.61549 14 10.0133V11.5133H8.5Z" fill="currentColor"/>
</svg>
