<svg viewBox="0 0 16 17" fill="none" xmlns="http://www.w3.org/2000/svg">
<rect width="16" height="16" transform="translate(0 0.513672)" fill="white" fill-opacity="0.01" style="mix-blend-mode:multiply"/>
<path d="M8.5 10.0137H7.5V11.0137H8.5V10.0137Z" fill="currentColor"/>
<path d="M8.5 12.0137H7.5V13.0137H8.5V12.0137Z" fill="currentColor"/>
<path d="M11.5 6.34867V2.51367H13V1.51367H3V2.51367H4.5V6.34867C4.5 6.56504 4.57018 6.77558 4.7 6.94867L5.875 8.51367L4.7 10.0787C4.57018 10.2518 4.5 10.4623 4.5 10.6787V14.5137H3V15.5137H13V14.5137H11.5V10.6787C11.5 10.4623 11.4298 10.2518 11.3 10.0787L10.125 8.51367L11.3 6.94867C11.4298 6.77558 11.5 6.56504 11.5 6.34867ZM10.5 2.51367V6.01367H5.5V2.51367H10.5ZM10.5 10.6787V14.5137H5.5V10.6787L7.125 8.51367L6 7.01367H10L8.875 8.51367L10.5 10.6787Z" fill="currentColor"/>
</svg>
