<svg viewBox="0 0 16 17" fill="none" xmlns="http://www.w3.org/2000/svg">
<rect width="16" height="16" transform="translate(0 0.513672)" fill="white" fill-opacity="0.01" style="mix-blend-mode:multiply"/>
<path d="M11.7381 7.51042L8.4236 2.23207C8.37552 2.16454 8.31198 2.10948 8.23829 2.07149C8.16461 2.03349 8.0829 2.01367 8 2.01367C7.9171 2.01367 7.83539 2.03349 7.76171 2.07149C7.68802 2.10948 7.62448 2.16454 7.5764 2.23207L4.24705 7.53602C3.78459 8.28194 3.52692 9.13659 3.5 10.0138C3.5 11.2073 3.97411 12.3519 4.81802 13.1958C5.66193 14.0397 6.80653 14.5138 8 14.5138C9.19347 14.5138 10.3381 14.0397 11.182 13.1958C12.0259 12.3519 12.5 11.2073 12.5 10.0138C12.4713 9.12676 12.2084 8.26308 11.7381 7.51042V7.51042ZM8 13.5141C7.0721 13.5129 6.18255 13.1438 5.52643 12.4876C4.8703 11.8315 4.50118 10.942 4.5 10.0141C4.52655 9.31471 4.73663 8.63465 5.10915 8.04217L5.57665 7.29777L10.6136 12.3344C10.2864 12.705 9.88416 13.0018 9.43358 13.2052C8.98301 13.4085 8.49435 13.5138 8 13.5141V13.5141Z" fill="currentColor"/>
</svg>
