<svg viewBox="0 0 16 17" fill="none" xmlns="http://www.w3.org/2000/svg">
<rect width="16" height="16" transform="translate(0 0.513672)" fill="white" fill-opacity="0.01" style="mix-blend-mode:multiply"/>
<path d="M12.9998 6.51366C12.4845 6.52742 11.9847 6.33641 11.6098 5.98246C11.235 5.62852 11.0156 5.14046 10.9998 4.62516C11.0092 4.25725 11.1225 3.89949 11.3265 3.59321L12.5848 1.72071C12.6332 1.65641 12.6959 1.60424 12.7678 1.56831C12.8398 1.53238 12.9192 1.51367 12.9996 1.51367C13.0801 1.51367 13.1595 1.53238 13.2314 1.56831C13.3034 1.60424 13.3661 1.65641 13.4144 1.72071L14.6575 3.56866C14.8699 3.88107 14.9886 4.24759 14.9998 4.62516C14.984 5.14046 14.7647 5.62852 14.3899 5.98246C14.015 6.33641 13.5152 6.52742 12.9998 6.51366ZM12.9998 2.89526L12.1717 4.12651C12.0683 4.27304 12.0087 4.44599 11.9998 4.62516C12.0288 4.87006 12.1466 5.09584 12.3309 5.25967C12.5152 5.42351 12.7532 5.514 12.9998 5.514C13.2465 5.514 13.4845 5.42351 13.6688 5.25967C13.8531 5.09584 13.9709 4.87006 13.9998 4.62516C13.9886 4.4364 13.9235 4.2548 13.8123 4.10186L12.9998 2.89526Z" fill="currentColor"/>
<path d="M11.7498 15.5137H4.24984C3.44456 15.5142 2.66778 15.2156 2.07023 14.6758C1.47268 14.1359 1.09696 13.3934 1.01598 12.5922C0.935004 11.791 1.15453 10.9883 1.63198 10.3398C2.10942 9.69131 2.81074 9.24331 3.59984 9.08271C3.81267 8.07336 4.36603 7.16787 5.16715 6.51805C5.96828 5.86823 6.96846 5.51359 7.99999 5.51359C9.03153 5.51359 10.0317 5.86823 10.8328 6.51805C11.634 7.16787 12.1873 8.07336 12.4001 9.08271C13.1891 9.24352 13.8902 9.69162 14.3674 10.3401C14.8447 10.9886 15.0641 11.7912 14.9831 12.5922C14.9021 13.3933 14.5264 14.1358 13.929 14.6756C13.3316 15.2154 12.555 15.514 11.7498 15.5137ZM7.99984 6.51366C7.14614 6.51441 6.32214 6.82717 5.68294 7.39305C5.04373 7.95894 4.63339 8.73894 4.52914 9.58626L4.47959 9.99236L4.07184 10.0244C3.49247 10.0699 2.95322 10.3379 2.56722 10.7724C2.18122 11.2069 1.97847 11.7739 2.0015 12.3546C2.02452 12.9353 2.27153 13.4846 2.69072 13.8871C3.1099 14.2896 3.66868 14.5142 4.24984 14.5137H11.7498C12.331 14.5142 12.8898 14.2897 13.3091 13.8872C13.7283 13.4847 13.9753 12.9354 13.9984 12.3547C14.0214 11.774 13.8187 11.2069 13.4327 10.7724C13.0467 10.338 12.5074 10.0699 11.928 10.0244L11.5203 9.99236L11.471 9.58626C11.3666 8.73895 10.9561 7.95902 10.3168 7.39316C9.67755 6.82731 8.85357 6.51453 7.99984 6.51366Z" fill="currentColor"/>
</svg>
