<svg viewBox="0 0 16 16" fill="none" xmlns="http://www.w3.org/2000/svg">
<g clip-path="url(#clip0_1961_7502)">
<rect width="16" height="16" fill="white" fill-opacity="0.01" style="mix-blend-mode:multiply"/>
<path d="M13.9624 9.7141C13.4009 10.5193 12.4804 11 11.5 11C10.4383 11 9.4768 10.4563 8.9281 9.5454L8.07165 10.0615C8.80285 11.2753 10.0845 12 11.5 12C12.2115 12 12.8963 11.8045 13.4961 11.4583C12.324 13.3062 10.2554 14.5 8 14.5C5.1448 14.5 2.58265 12.5908 1.76915 9.8574L0.81065 10.1426C1.74935 13.2969 4.70565 15.5 8 15.5C11.2943 15.5 14.2506 13.2969 15.1894 10.1426L13.9624 9.7141Z" fill="currentColor"/>
<path d="M15 9C15.5523 9 16 8.55228 16 8C16 7.44772 15.5523 7 15 7C14.4477 7 14 7.44772 14 8C14 8.55228 14.4477 9 15 9Z" fill="currentColor"/>
<path d="M1 9C1.55228 9 2 8.55228 2 8C2 7.44772 1.55228 7 1 7C0.447715 7 0 7.44772 0 8C0 8.55228 0.447715 9 1 9Z" fill="currentColor"/>
<path d="M8 9C8.55228 9 9 8.55228 9 8C9 7.44772 8.55228 7 8 7C7.44772 7 7 7.44772 7 8C7 8.55228 7.44772 9 8 9Z" fill="currentColor"/>
<path d="M8 0.5C4.7057 0.5 1.7494 2.7031 0.81065 5.8574L2.0376 6.28585C2.5991 5.48065 3.51965 4.99995 4.5 4.99995C5.48035 4.99995 6.4009 5.48065 6.9624 6.28585L7.7827 5.71385C7.03415 4.6406 5.807 4 4.5 4C3.78845 4 3.10375 4.19555 2.5039 4.54175C3.676 2.6941 5.7446 1.5 8 1.5C10.8552 1.5 13.4174 3.4092 14.2309 6.1426L15.1894 5.85745C14.2507 2.70315 11.2943 0.5 8 0.5Z" fill="currentColor"/>
</g>
<defs>
<clipPath id="clip0_1961_7502">
<rect width="16" height="16" fill="white"/>
</clipPath>
</defs>
</svg>
