<svg viewBox="0 0 16 16" fill="none" xmlns="http://www.w3.org/2000/svg">
<rect width="16" height="16" fill="white" fill-opacity="0.01" style="mix-blend-mode:multiply"/>
<path d="M14.9736 6.9677H13.9736C13.6052 6.9677 13.2862 7.17025 13.1127 7.4677H3.00778L4.32028 3.9677H7.97393V2.9677H4.32028C3.90573 2.9677 3.52973 3.2282 3.38378 3.6164L2.12693 6.9677L0.973633 6.96745V7.96745L1.97363 7.96755V12.4676C1.97363 13.0191 2.42238 13.4676 2.97363 13.4676V14.9676H3.97363V13.4676H11.9736V14.9676H12.9736V13.4676C13.5249 13.4676 13.9736 13.0191 13.9736 12.4676V7.96765H14.9736L14.9736 6.9677ZM2.97358 12.4677V10.9677H4.47358V9.9677H2.97358V8.4677H12.9736V9.9677H11.4736V10.9677H12.9736V12.4677H2.97358Z" fill="currentColor"/>
<path d="M9.98994 9.97035H5.98994V10.9703H9.98994V9.97035Z" fill="currentColor"/>
<path d="M14.7686 1.2627L11.4736 4.5576L10.1786 3.26265L9.47359 3.9677L11.4736 5.9677L15.4736 1.9677L14.7686 1.2627Z" fill="currentColor"/>
</svg>
