<svg viewBox="0 0 16 16" fill="none" xmlns="http://www.w3.org/2000/svg">
<rect width="16" height="16" fill="white" fill-opacity="0.01" style="mix-blend-mode:multiply"/>
<path d="M10.5 11H7.5C7.23488 10.9997 6.9807 10.8943 6.79323 10.7068C6.60576 10.5193 6.5003 10.2651 6.5 10V8.00002C6.5003 7.7349 6.60576 7.48072 6.79323 7.29325C6.9807 7.10578 7.23488 7.00033 7.5 7.00002H10.5C10.7651 7.00033 11.0193 7.10578 11.2068 7.29325C11.3942 7.48072 11.4997 7.7349 11.5 8.00002V10C11.4997 10.2651 11.3942 10.5193 11.2068 10.7068C11.0193 10.8943 10.7651 10.9997 10.5 11ZM7.5 8.00002V10H10.5V8.00002H7.5Z" fill="currentColor"/>
<path d="M5.5 8.50002H4.5V6.00002C4.5003 5.7349 4.60576 5.48072 4.79323 5.29325C4.9807 5.10578 5.23488 5.00033 5.5 5.00002H8.5V6.00002H5.5V8.50002Z" fill="currentColor"/>
<path d="M8 15.5C7.91149 15.5001 7.82454 15.4767 7.74805 15.4322L1.74805 11.9322C1.67256 11.8881 1.60993 11.825 1.56641 11.7492C1.52289 11.6733 1.49999 11.5874 1.5 11.5V4.50002C1.49997 4.41262 1.52285 4.32675 1.56638 4.25096C1.60991 4.17518 1.67255 4.11213 1.74805 4.06812L7.74805 0.568119C7.82452 0.523507 7.91147 0.5 8 0.5C8.08853 0.5 8.17548 0.523507 8.25195 0.568119L14.252 4.06812L13.748 4.93192L8 1.57887L2.5 4.78712V11.2129L8 14.4214L13.5 11.2129V7.50002H14.5V11.5C14.5 11.5874 14.4771 11.6733 14.4336 11.7492C14.3901 11.825 14.3274 11.8881 14.252 11.9322L8.25195 15.4322C8.17546 15.4767 8.08851 15.5001 8 15.5Z" fill="currentColor"/>
</svg>
