<svg viewBox="0 0 16 16" fill="none" xmlns="http://www.w3.org/2000/svg">
<rect width="16" height="16" fill="white" fill-opacity="0.01" style="mix-blend-mode:multiply"/>
<path d="M1 8.5H8.58595L6.79295 10.2929L7.5 11L10.5 8L7.5 5L6.79295 5.70705L8.58595 7.5H1V8.5Z" fill="currentColor"/>
<path d="M14.252 4.0681L8.25195 0.5681C8.17405 0.5227 8.08705 0.5 8 0.5C7.91295 0.5 7.82595 0.5227 7.74805 0.5681L1.74805 4.0681C1.5945 4.1577 1.5 4.32225 1.5 4.5V6H2.5V4.7871L8 1.57885L13.5 4.7871V11.2129L8 14.4212L2.13625 11L1.63235 11.8638L7.74805 15.4319C7.82595 15.4773 7.91295 15.5 8 15.5C8.08705 15.5 8.17405 15.4773 8.25195 15.4319L14.252 11.9319C14.4055 11.8423 14.5 11.6777 14.5 11.5V4.49995C14.5 4.3222 14.4055 4.1577 14.252 4.0681Z" fill="currentColor"/>
</svg>
