<svg viewBox="0 0 16 16" fill="none" xmlns="http://www.w3.org/2000/svg">
<rect width="16" height="16" fill="white" fill-opacity="0.01" style="mix-blend-mode:multiply"/>
<path d="M9.5 14C9.77614 14 10 13.7761 10 13.5C10 13.2239 9.77614 13 9.5 13C9.22386 13 9 13.2239 9 13.5C9 13.7761 9.22386 14 9.5 14Z" fill="currentColor"/>
<path d="M14.5 15.5H8C7.4486 15.5 7 15.0514 7 14.5V12.5C7 11.9486 7.4486 11.5 8 11.5H14.5C15.0514 11.5 15.5 11.9486 15.5 12.5V14.5C15.5 15.0514 15.0514 15.5 14.5 15.5ZM8 12.5V14.5H14.5V12.5H8Z" fill="currentColor"/>
<path d="M14.5 10.5H8C7.4486 10.5 7 10.0514 7 9.5V7.5C7 6.9486 7.4486 6.5 8 6.5H14.5C15.0514 6.5 15.5 6.9486 15.5 7.5V9.5C15.5 10.0514 15.0514 10.5 14.5 10.5ZM8 7.5V9.5H14.5V7.5H8Z" fill="currentColor"/>
<path d="M6 13.6499C3.67345 12.8238 2 10.6065 2 8C2 4.69165 4.69165 2 8 2C10.4155 2 12.4969 3.438 13.4473 5.5H14.5305C13.5211 2.8728 10.9783 1 8 1C4.14015 1 1 4.14015 1 8C1 11.1646 3.1123 13.8423 6 14.7051V13.6499Z" fill="currentColor"/>
</svg>
