<svg viewBox="0 0 16 16" fill="none" xmlns="http://www.w3.org/2000/svg">
<rect width="16" height="16" fill="white" fill-opacity="0.01" style="mix-blend-mode:multiply"/>
<path d="M9 12.5H7.5V11H6.5V12.5H5V13.5H6.5V15H7.5V13.5H9V12.5Z" fill="currentColor"/>
<path d="M11 15H10V12.5C10 11.1 8.9 10 7.5 10H4.5C3.1 10 2 11.1 2 12.5V15H1V12.5C1 10.55 2.55 9 4.5 9H7.5C9.45 9 11 10.55 11 12.5V15Z" fill="currentColor"/>
<path d="M14 2.6V1.5C14 0.95 13.55 0.5 13 0.5H9C8.45 0.5 8 0.95 8 1.5V4.5C8 5.05 8.45 5.5 9 5.5H13C13.55 5.5 14 5.05 14 4.5V3.4L15.5 4.5V1.5L14 2.6ZM13 4.5H9V1.5H13V4.5Z" fill="currentColor"/>
<path d="M7.75 6.25C7.3 6.7 6.7 7 6 7C4.6 7 3.5 5.9 3.5 4.5C3.5 3.1 4.6 2 6 2C6.25 2 6.45 2.05 6.65 2.1L6.95 1.15C6.65 1.05 6.35 1 6 1C4.05 1 2.5 2.55 2.5 4.5C2.5 6.45 4.05 8 6 8C6.95 8 7.85 7.6 8.5 7L7.75 6.25Z" fill="currentColor"/>
</svg>
