<svg viewBox="0 0 16 16" fill="none" xmlns="http://www.w3.org/2000/svg">
<rect width="16" height="16" fill="white" fill-opacity="0.01" style="mix-blend-mode:multiply"/>
<path d="M11.085 8L9.795 9.29L10.5 10L12.5 8L10.5 6L9.79 6.705L11.085 8Z" fill="currentColor"/>
<path d="M7.75 10.5L6.79255 10.2114L8.25 5.5L9.20745 5.78855L7.75 10.5Z" fill="currentColor"/>
<path d="M4.915 8L6.205 6.71L5.5 6L3.5 8L5.5 10L6.21 9.295L4.915 8Z" fill="currentColor"/>
<path d="M9.5 14.5C9.77614 14.5 10 14.2761 10 14C10 13.7239 9.77614 13.5 9.5 13.5C9.22386 13.5 9 13.7239 9 14C9 14.2761 9.22386 14.5 9.5 14.5Z" fill="currentColor"/>
<path d="M11 14.5V13.5C12.3784 13.5 13.5 12.3784 13.5 11V5C13.5 3.6216 12.3784 2.5 11 2.5H8V1.5H11C12.9297 1.5 14.5 3.07005 14.5 5V11C14.5 12.9297 12.9297 14.5 11 14.5Z" fill="currentColor"/>
<path d="M6.5 2.5C6.77614 2.5 7 2.27614 7 2C7 1.72386 6.77614 1.5 6.5 1.5C6.22386 1.5 6 1.72386 6 2C6 2.27614 6.22386 2.5 6.5 2.5Z" fill="currentColor"/>
<path d="M8 14.5H5C3.0703 14.5 1.5 12.9297 1.5 11V5C1.5 3.07005 3.0703 1.5 5 1.5V2.5C3.6216 2.5 2.5 3.6216 2.5 5V11C2.5 12.3784 3.6216 13.5 5 13.5H8V14.5Z" fill="currentColor"/>
</svg>
