<svg viewBox="0 0 16 16" fill="none" xmlns="http://www.w3.org/2000/svg">
<rect width="16" height="16" fill="white" fill-opacity="0.01" style="mix-blend-mode:multiply"/>
<path d="M14 2H12.5V2.99955L14 2.9993V13H12.5V14H14C14.5515 14 15 13.5515 15 13V3C15 2.4485 14.5515 2 14 2Z" fill="currentColor"/>
<path d="M8 9.5C8.55228 9.5 9 9.05228 9 8.5C9 7.94772 8.55228 7.5 8 7.5C7.44772 7.5 7 7.94772 7 8.5C7 9.05228 7.44772 9.5 8 9.5Z" fill="currentColor"/>
<path d="M11 2V14C11 14.5515 10.5515 15 10 15H2C1.4485 15 1 14.5515 1 14V2C1 1.4485 1.4485 1 2 1H10C10.5515 1 11 1.4485 11 2ZM2 14H10V1.99925L2 2V14Z" fill="currentColor"/>
</svg>
