<svg viewBox="0 0 16 16" fill="none" xmlns="http://www.w3.org/2000/svg">
<rect width="16" height="16" fill="white" fill-opacity="0.01" style="mix-blend-mode:multiply"/>
<path d="M15 10.5C15.2761 10.5 15.5 10.2761 15.5 10C15.5 9.72386 15.2761 9.5 15 9.5C14.7239 9.5 14.5 9.72386 14.5 10C14.5 10.2761 14.7239 10.5 15 10.5Z" fill="currentColor"/>
<path d="M1 10.5C1.27614 10.5 1.5 10.2761 1.5 10C1.5 9.72386 1.27614 9.5 1 9.5C0.723858 9.5 0.5 9.72386 0.5 10C0.5 10.2761 0.723858 10.5 1 10.5Z" fill="currentColor"/>
<path d="M12 13C10.8917 13 9.9243 12.3944 9.40485 11.4983L8.53855 11.9984C9.23025 13.1937 10.5196 14 12 14C13.4804 14 14.7697 13.1937 15.4614 11.9984L14.5951 11.4983C14.0757 12.3944 13.1083 13 12 13Z" fill="currentColor"/>
<path d="M12 7C13.0678 7 14.0635 7.5747 14.5986 8.5L15.4643 7.9995C14.7512 6.7661 13.4236 6 12 6C10.5764 6 9.2488 6.7661 8.531 8.00755L6.59865 11.5C6.0635 12.4253 5.0679 13 4 13C2.9321 13 1.9365 12.4253 1.40135 11.5L0.53565 12.0005C1.2488 13.2339 2.5764 14 4 14C5.4236 14 6.7512 13.2339 7.469 11.9924L9.40135 8.5C9.9365 7.5747 10.9321 7 12 7Z" fill="currentColor"/>
<path d="M4 7C5.10825 7 6.0757 7.6056 6.59515 8.5017L7.46145 8.0016C6.76975 6.8063 5.48035 6 4 6C2.51965 6 1.23025 6.80625 0.53855 8.0016L1.40485 8.5017C1.9243 7.6056 2.89175 7 4 7Z" fill="currentColor"/>
<path d="M8 3C9.37855 3 10.6286 3.5608 11.5339 4.46605L12.2407 3.7594C11.1542 2.67285 9.6542 2 8 2C6.3458 2 4.84585 2.67285 3.75935 3.7594L4.4661 4.46605C5.37145 3.5608 6.62145 3 8 3Z" fill="currentColor"/>
</svg>
