<svg viewBox="0 0 16 16" fill="none" xmlns="http://www.w3.org/2000/svg">
<rect width="16" height="16" fill="white" fill-opacity="0.01" style="mix-blend-mode:multiply"/>
<path d="M10.5 9.50003C10.4135 9.50119 10.3275 9.51368 10.2442 9.53718L9.3535 8.64653L9.34065 8.65938C9.44538 8.45537 9.5 8.22934 9.5 8.00003C9.5 7.77071 9.44538 7.54469 9.34065 7.34068L9.3535 7.35353L10.2442 6.46288C10.4607 6.52318 10.6912 6.51006 10.8995 6.42557C11.1078 6.34108 11.2822 6.18997 11.3956 5.99586C11.5089 5.80174 11.5548 5.57555 11.526 5.35261C11.4972 5.12968 11.3954 4.92256 11.2364 4.76361C11.0775 4.60466 10.8703 4.50284 10.6474 4.47405C10.4245 4.44525 10.1983 4.49111 10.0042 4.60446C9.81006 4.7178 9.65895 4.89225 9.57446 5.10056C9.48996 5.30886 9.47685 5.53928 9.53715 5.75583L8.6465 6.64653L8.65935 6.65938C8.45534 6.55465 8.22932 6.50003 8 6.50003C7.77068 6.50003 7.54466 6.55465 7.34065 6.65938L7.3535 6.64653L6.46285 5.75583C6.52316 5.53928 6.51004 5.30886 6.42555 5.10056C6.34106 4.89225 6.18995 4.7178 5.99583 4.60446C5.80172 4.49111 5.57552 4.44525 5.35259 4.47405C5.12966 4.50284 4.92254 4.60466 4.76359 4.76361C4.60464 4.92256 4.50282 5.12968 4.47402 5.35261C4.44523 5.57555 4.49109 5.80174 4.60443 5.99586C4.71778 6.18997 4.89223 6.34108 5.10053 6.42557C5.30884 6.51006 5.53926 6.52318 5.7558 6.46288L6.6465 7.35353L6.6594 7.34063C6.55465 7.54464 6.5 7.77068 6.5 8.00003C6.5 8.22937 6.55465 8.45541 6.6594 8.65943L6.6465 8.64653L5.7558 9.53718C5.53926 9.47687 5.30884 9.48999 5.10053 9.57448C4.89223 9.65897 4.71778 9.81008 4.60443 10.0042C4.49109 10.1983 4.44523 10.4245 4.47402 10.6474C4.50282 10.8704 4.60464 11.0775 4.76359 11.2364C4.92254 11.3954 5.12966 11.4972 5.35259 11.526C5.57552 11.5548 5.80172 11.5089 5.99583 11.3956C6.18995 11.2822 6.34106 11.1078 6.42555 10.8995C6.51004 10.6912 6.52316 10.4608 6.46285 10.2442L7.3535 9.35353L7.3406 9.34063C7.54462 9.44538 7.77066 9.50002 8 9.50002C8.22934 9.50002 8.45538 9.44538 8.6594 9.34063L8.6465 9.35353L9.53715 10.2442C9.48419 10.4458 9.49566 10.6588 9.56993 10.8535C9.6442 11.0482 9.77757 11.2147 9.9513 11.3298C10.125 11.4448 10.3304 11.5026 10.5387 11.495C10.7469 11.4873 10.9475 11.4147 11.1124 11.2873C11.2772 11.1599 11.3981 10.984 11.4579 10.7844C11.5178 10.5848 11.5137 10.3715 11.4461 10.1744C11.3786 9.97728 11.251 9.80625 11.0813 9.6853C10.9117 9.56436 10.7084 9.49957 10.5 9.50003ZM8 8.50003C7.90111 8.50003 7.80444 8.4707 7.72222 8.41576C7.63999 8.36082 7.57591 8.28273 7.53806 8.19137C7.50022 8.1 7.49032 7.99947 7.50961 7.90248C7.5289 7.80549 7.57652 7.7164 7.64645 7.64647C7.71638 7.57655 7.80547 7.52893 7.90246 7.50963C7.99945 7.49034 8.09998 7.50024 8.19134 7.53809C8.28271 7.57593 8.3608 7.64002 8.41574 7.72224C8.47068 7.80446 8.5 7.90113 8.5 8.00003C8.49992 8.13261 8.44722 8.25974 8.35347 8.35349C8.25972 8.44724 8.13259 8.49995 8 8.50003Z" fill="currentColor"/>
<path d="M8 15.5C7.91149 15.5001 7.82454 15.4767 7.74805 15.4322L1.74805 11.9322C1.67256 11.8881 1.60993 11.825 1.56641 11.7492C1.52289 11.6733 1.49999 11.5874 1.5 11.5V4.50002C1.49997 4.41262 1.52285 4.32675 1.56638 4.25096C1.60991 4.17518 1.67255 4.11213 1.74805 4.06812L7.74805 0.568119C7.82452 0.523507 7.91147 0.5 8 0.5C8.08853 0.5 8.17548 0.523507 8.25195 0.568119L14.252 4.06812L13.748 4.93192L8 1.57887L2.5 4.78712V11.2129L8 14.4214L13.5 11.2129V7.50002H14.5V11.5C14.5 11.5874 14.4771 11.6733 14.4336 11.7492C14.3901 11.825 14.3274 11.8881 14.252 11.9322L8.25195 15.4322C8.17546 15.4767 8.08851 15.5001 8 15.5Z" fill="currentColor"/>
</svg>
