<svg viewBox="0 0 16 16" fill="none" xmlns="http://www.w3.org/2000/svg">
<rect width="16" height="16" fill="white" fill-opacity="0.01" style="mix-blend-mode:multiply"/>
<path d="M6.9999 14.9955L1.74805 11.9319C1.5945 11.8423 1.5 11.6778 1.5 11.5V4.5H2.5V11.2128L7.5038 14.1318L6.9999 14.9955Z" fill="currentColor"/>
<path d="M4.5 3H3.5V8H4.5V3Z" fill="currentColor"/>
<path d="M14.5 6.5H13.5V4.78715L8 1.57885L6.5 2.4538V6.5H5.5V2.16665C5.5 1.9888 5.5945 1.82435 5.74805 1.73475L7.74805 0.5681C7.82595 0.5227 7.91295 0.5 8 0.5C8.08705 0.5 8.17405 0.5227 8.25195 0.5681L14.252 4.0681C14.4055 4.1577 14.5 4.32215 14.5 4.5V6.5Z" fill="currentColor"/>
<path d="M13.5 11.5L12.79 12.2051L13.585 13H10V11.429C10.8601 11.2053 11.5 10.4292 11.5 9.5C11.5 8.3972 10.6028 7.5 9.5 7.5C8.3972 7.5 7.5 8.3972 7.5 9.5C7.5 10.4292 8.1399 11.2053 9 11.429V13C9 13.5512 9.4486 14 10 14H13.585L12.795 14.79L13.5 15.5L15.5 13.5L13.5 11.5ZM8.5 9.5C8.5 8.94875 8.9486 8.5 9.5 8.5C10.0514 8.5 10.5 8.94875 10.5 9.5C10.5 10.0512 10.0514 10.5 9.5 10.5C8.9486 10.5 8.5 10.0512 8.5 9.5Z" fill="currentColor"/>
</svg>
