<svg viewBox="0 0 16 16" fill="none" xmlns="http://www.w3.org/2000/svg">
<rect width="16" height="16" fill="white" fill-opacity="0.01" style="mix-blend-mode:multiply"/>
<path d="M11.1819 10.682L10.475 9.97502C10.8 9.65004 11.0578 9.26423 11.2337 8.83961C11.4096 8.41499 11.5001 7.95988 11.5001 7.50027C11.5001 7.04066 11.4096 6.58555 11.2337 6.16093C11.0578 5.73631 10.8 5.3505 10.475 5.02552L11.1819 4.31802C11.5998 4.73588 11.9312 5.23196 12.1574 5.77793C12.3835 6.3239 12.4999 6.90907 12.4999 7.50002C12.4999 8.09097 12.3835 8.67614 12.1574 9.22211C11.9312 9.76808 11.5998 10.2642 11.1819 10.682Z" fill="currentColor"/>
<path d="M9.7678 9.26772L9.0608 8.56067C9.34162 8.27911 9.49932 7.89768 9.49932 7.50002C9.49932 7.10236 9.34162 6.72093 9.0608 6.43937L9.7678 5.73232C10.236 6.20147 10.499 6.83721 10.499 7.50002C10.499 8.16283 10.236 8.79857 9.7678 9.26772Z" fill="currentColor"/>
<path d="M8.5 13H7.5V7.50002C7.5 7.36741 7.55268 7.24023 7.64645 7.14647C7.74021 7.0527 7.86739 7.00002 8 7.00002C8.13261 7.00002 8.25979 7.0527 8.35355 7.14647C8.44732 7.24023 8.5 7.36741 8.5 7.50002V13Z" fill="currentColor"/>
<path d="M6.2322 9.26772C5.76399 8.79857 5.50103 8.16283 5.50103 7.50002C5.50103 6.83721 5.76399 6.20147 6.2322 5.73232L6.9392 6.43937C6.65838 6.72093 6.50068 7.10236 6.50068 7.50002C6.50068 7.89768 6.65838 8.27911 6.9392 8.56067L6.2322 9.26772Z" fill="currentColor"/>
<path d="M4.8181 10.682C4.40023 10.2642 4.06876 9.76808 3.84261 9.22211C3.61646 8.67614 3.50006 8.09097 3.50006 7.50002C3.50006 6.90907 3.61646 6.3239 3.84261 5.77793C4.06876 5.23196 4.40023 4.73588 4.8181 4.31802L5.525 5.02527C5.19999 5.35025 4.94218 5.73606 4.76628 6.16068C4.59039 6.5853 4.49985 7.04041 4.49985 7.50002C4.49985 7.95963 4.59039 8.41474 4.76628 8.83936C4.94218 9.26398 5.19999 9.64979 5.525 9.97477L4.8181 10.682Z" fill="currentColor"/>
<path d="M8 15.5C7.91149 15.5001 7.82454 15.4767 7.74805 15.4322L1.74805 11.9322C1.67256 11.8881 1.60993 11.825 1.56641 11.7492C1.52289 11.6733 1.49999 11.5874 1.5 11.5V4.50002C1.49997 4.41262 1.52285 4.32675 1.56638 4.25096C1.60991 4.17518 1.67255 4.11213 1.74805 4.06812L7.74805 0.568119C7.82452 0.523507 7.91147 0.5 8 0.5C8.08853 0.5 8.17548 0.523507 8.25195 0.568119L14.252 4.06812L13.748 4.93192L8 1.57887L2.5 4.78712V11.2129L8 14.4214L13.5 11.2129V7.50002H14.5V11.5C14.5 11.5874 14.4771 11.6733 14.4336 11.7492C14.3901 11.825 14.3274 11.8881 14.252 11.9322L8.25195 15.4322C8.17546 15.4767 8.08851 15.5001 8 15.5Z" fill="currentColor"/>
</svg>
