<svg viewBox="0 0 16 16" fill="none" xmlns="http://www.w3.org/2000/svg">
<rect width="16" height="16" fill="white" fill-opacity="0.01" style="mix-blend-mode:multiply"/>
<path d="M4 13.5C4.27614 13.5 4.5 13.2761 4.5 13C4.5 12.7239 4.27614 12.5 4 12.5C3.72386 12.5 3.5 12.7239 3.5 13C3.5 13.2761 3.72386 13.5 4 13.5Z" fill="currentColor"/>
<path d="M2.5 15H13.5C14.05 15 14.5 14.55 14.5 14V12C14.5 11.45 14.05 11 13.5 11H2.5C1.95 11 1.5 11.45 1.5 12V14C1.5 14.55 1.95 15 2.5 15ZM2.5 12H13.5V14H2.5V12Z" fill="currentColor"/>
<path d="M11.5 10H4.5C2.845 10 1.5 8.655 1.5 7C1.5 5.475 2.645 4.21 4.125 4.025C4.565 2.275 6.165 1 8 1C9.835 1 11.435 2.275 11.875 4.025C13.355 4.21 14.5 5.475 14.5 7C14.5 8.655 13.155 10 11.5 10ZM4.475 5C3.385 5.015 2.5 5.905 2.5 7C2.5 8.105 3.395 9 4.5 9H11.5C12.605 9 13.5 8.105 13.5 7C13.5 5.905 12.62 5.015 11.53 5L11.47 5.005L11.03 5.015L10.97 4.575C10.755 3.105 9.48 2 8 2C6.52 2 5.245 3.105 5.035 4.575L4.975 5.015L4.475 5Z" fill="currentColor"/>
</svg>
