<svg viewBox="0 0 16 16" fill="none" xmlns="http://www.w3.org/2000/svg">
<rect width="16" height="16" fill="white" fill-opacity="0.01" style="mix-blend-mode:multiply"/>
<path d="M11.75 4.6L11.25 5.45C12.35 6.05 13 7.25 13 8.5C13 11.1 11.1 12.85 10 13.6V12H9.5C8.25 12 7.05 11.3 6.45 10.2L5.6 10.7C6.3 12 7.6 12.8 9.05 13V14.5C9.05 14.65 9.15 14.85 9.3 14.95C9.3 15 9.4 15 9.5 15C9.6 15 9.65 15 9.7 14.95C9.9 14.85 14 12.75 14 8.5C14 6.9 13.15 5.4 11.75 4.6Z" fill="currentColor"/>
<path d="M10 6.55V3.9C10.6 3.7 11 3.15 11 2.5C11 1.65 10.35 1 9.5 1C8.65 1 8 1.65 8 2.5C8 3.15 8.4 3.7 9 3.9V6.55C8.8 6.6 8.65 6.65 8.5 6.75L5.85 4.1C5.95 3.95 6 3.75 6 3.5C6 2.65 5.35 2 4.5 2C3.65 2 3 2.65 3 3.5C3 4.35 3.65 5 4.5 5C4.75 5 4.95 4.95 5.15 4.85L7.8 7.5C7.7 7.65 7.65 7.85 7.6 8H4.9C4.7 7.4 4.15 7 3.5 7C2.65 7 2 7.65 2 8.5C2 9.35 2.65 10 3.5 10C4.15 10 4.7 9.6 4.9 9H7.55C7.75 9.85 8.55 10.5 9.5 10.5C10.6 10.5 11.5 9.6 11.5 8.5C11.5 7.55 10.85 6.8 10 6.55ZM9.5 2C9.8 2 10 2.2 10 2.5C10 2.8 9.8 3 9.5 3C9.2 3 9 2.8 9 2.5C9 2.2 9.2 2 9.5 2ZM4.5 4C4.2 4 4 3.8 4 3.5C4 3.2 4.2 3 4.5 3C4.8 3 5 3.2 5 3.5C5 3.8 4.8 4 4.5 4ZM3.5 9C3.2 9 3 8.8 3 8.5C3 8.2 3.2 8 3.5 8C3.8 8 4 8.2 4 8.5C4 8.8 3.8 9 3.5 9ZM9.5 9.5C8.95 9.5 8.5 9.05 8.5 8.5C8.5 7.95 8.95 7.5 9.5 7.5C10.05 7.5 10.5 7.95 10.5 8.5C10.5 9.05 10.05 9.5 9.5 9.5Z" fill="currentColor"/>
</svg>
