<svg viewBox="0 0 16 16" fill="none" xmlns="http://www.w3.org/2000/svg">
<rect width="16" height="16" fill="white" fill-opacity="0.01" style="mix-blend-mode:multiply"/>
<path d="M12 8C11.349 8 10.7992 8.41925 10.5921 9H6V8H3V11H6V10H10.5921C10.7992 10.5807 11.349 11 12 11C12.8271 11 13.5 10.3271 13.5 9.5C13.5 8.67285 12.8271 8 12 8ZM5 10H4V9H5V10ZM12 10C11.7241 10 11.5 9.7759 11.5 9.5C11.5 9.2241 11.7241 9 12 9C12.2759 9 12.5 9.2241 12.5 9.5C12.5 9.7759 12.2759 10 12 10Z" fill="currentColor"/>
<path d="M12.916 5.61C12.4944 3.27675 10.4527 1.5 8 1.5C5.5473 1.5 3.50545 3.27675 3.0839 5.61C1.3191 6.02585 0 7.61005 0 9.5C0 11.7055 1.79445 13.5 4 13.5H6V12.5H4C2.3457 12.5 1 11.1543 1 9.5C1 7.8457 2.3457 6.5 4 6.5C4 4.29445 5.79445 2.5 8 2.5C10.2055 2.5 12 4.29445 12 6.5C13.6543 6.5 15 7.8457 15 9.5C15 11.1543 13.6543 12.5 12 12.5H8V13.5H12C14.2055 13.5 16 11.7055 16 9.5C16 7.61005 14.6809 6.0258 12.916 5.61Z" fill="currentColor"/>
</svg>
