<svg viewBox="0 0 16 16" fill="none" xmlns="http://www.w3.org/2000/svg">
<rect width="16" height="16" fill="white" fill-opacity="0.01" style="mix-blend-mode:multiply"/>
<path d="M15.5 11V10H14.4497C14.3847 9.6814 14.2574 9.38575 14.0836 9.12355L14.8283 8.3787L14.1213 7.67165L13.3764 8.4165C13.1142 8.24265 12.8186 8.11545 12.5 8.05055V7H11.5V8.05055C11.1814 8.1155 10.8857 8.2427 10.6235 8.4165L9.8787 7.67165L9.17165 8.3787L9.9163 9.12355C9.74245 9.38575 9.61525 9.6814 9.55035 10H8.50005V11H9.55035C9.6153 11.3186 9.7425 11.6143 9.9163 11.8766L9.17165 12.6214L9.8787 13.3284L10.6235 12.5836C10.8857 12.7574 11.1814 12.8846 11.5 12.9495V14H12.5V12.9495C12.8186 12.8846 13.1142 12.7574 13.3764 12.5836L14.1213 13.3284L14.8283 12.6214L14.0836 11.8766C14.2575 11.6143 14.3847 11.3186 14.4497 11H15.5ZM12 12C11.1716 12 10.5 11.3284 10.5 10.5C10.5 9.67165 11.1716 9 12 9C12.8283 9 13.5 9.67165 13.5 10.5C13.5 11.3284 12.8283 12 12 12Z" fill="currentColor"/>
<path d="M10.5 3C10.5 1.6216 9.3784 0.5 8 0.5C7.1101 0.5 6.2805 0.97875 5.8347 1.74975C5.67465 2.0265 5.57175 2.32275 5.52025 2.64695C4.94885 2.2412 4.25265 2 3.5 2C1.57005 2 0 3.57005 0 5.5C0 6.84905 0.7684 8.02015 1.88935 8.60415C1.35 9.06315 1 9.7381 1 10.5C1 11.8784 2.1216 13 3.5 13C3.8672 13 4.21325 12.9158 4.5276 12.7731C4.6658 14.0217 5.7151 15 7 15C7.6675 15 8.2954 14.74 8.7678 14.2681L8.06075 13.5605C7.7773 13.844 7.4006 14 6.99995 14C6.1728 14 5.49995 13.3271 5.49995 12.5C5.49995 11.6729 6.1728 11 6.99995 11V10C6.63275 10 6.2867 10.0842 5.97235 10.2269C5.9006 9.57865 5.5799 9.0072 5.11145 8.6038C6.23195 8.01955 6.99995 6.8488 6.99995 5.50005C6.99995 5.42645 6.993 5.3545 6.9885 5.2819C7.29845 5.41995 7.6394 5.50005 7.99995 5.50005C9.37835 5.50005 10.5 4.3784 10.5 3ZM6.70045 2.25025C6.96805 1.7876 7.46605 1.5 8 1.5C8.82715 1.5 9.5 2.17285 9.5 3C9.5 3.82715 8.82715 4.5 8 4.5C7.17285 4.5 6.5 3.82715 6.5 3H6.48535C6.50295 2.7119 6.57105 2.4739 6.70045 2.25025ZM5 10.5C5 11.3271 4.32715 12 3.5 12C2.67285 12 2 11.3271 2 10.5C2 9.67285 2.67285 9 3.5 9C4.32715 9 5 9.67285 5 10.5ZM3.5 8C2.1216 8 1 6.8784 1 5.5C1 4.1216 2.1216 3 3.5 3C4.8784 3 6 4.1216 6 5.5C6 6.8784 4.8784 8 3.5 8Z" fill="currentColor"/>
</svg>
