<svg viewBox="0 0 16 16" fill="none" xmlns="http://www.w3.org/2000/svg">
<rect width="16" height="16" fill="white" fill-opacity="0.01" style="mix-blend-mode:multiply"/>
<path d="M7.70701 5.75005L6.99997 6.45709L8.29295 7.75007L8.99999 7.04303L7.70701 5.75005Z" fill="currentColor"/>
<path d="M7.70704 8.25001L7 8.95705L8.29298 10.25L9.00002 9.543L7.70704 8.25001Z" fill="currentColor"/>
<path d="M9.5 12H6.5C6.23488 11.9997 5.9807 11.8943 5.79323 11.7068C5.60576 11.5193 5.5003 11.2651 5.5 11V5.00002C5.5003 4.7349 5.60576 4.48072 5.79323 4.29325C5.9807 4.10578 6.23488 4.00033 6.5 4.00002H9.5C9.76512 4.00033 10.0193 4.10578 10.2068 4.29325C10.3942 4.48072 10.4997 4.7349 10.5 5.00002V11C10.4997 11.2651 10.3942 11.5193 10.2068 11.7068C10.0193 11.8943 9.76512 11.9997 9.5 12ZM6.5 5.00002V11H9.5006L9.5 5.00002H6.5Z" fill="currentColor"/>
<path d="M8 15.5C7.91149 15.5001 7.82454 15.4767 7.74805 15.4322L1.74805 11.9322C1.67256 11.8881 1.60993 11.825 1.56641 11.7492C1.52289 11.6733 1.49999 11.5874 1.5 11.5V4.50002C1.49997 4.41262 1.52285 4.32675 1.56638 4.25096C1.60991 4.17518 1.67255 4.11213 1.74805 4.06812L7.74805 0.568119C7.82452 0.523507 7.91147 0.5 8 0.5C8.08853 0.5 8.17548 0.523507 8.25195 0.568119L14.252 4.06812L13.748 4.93192L8 1.57887L2.5 4.78712V11.2129L8 14.4214L13.5 11.2129V7.50002H14.5V11.5C14.5 11.5874 14.4771 11.6733 14.4336 11.7492C14.3901 11.825 14.3274 11.8881 14.252 11.9322L8.25195 15.4322C8.17546 15.4767 8.08851 15.5001 8 15.5Z" fill="currentColor"/>
</svg>
