<svg viewBox="0 0 16 16" fill="none" xmlns="http://www.w3.org/2000/svg">
<rect width="16" height="16" fill="white" fill-opacity="0.01" style="mix-blend-mode:multiply"/>
<path d="M14.4 11.7C13.9 12.85 11.4 14 8 14C4.15 14 1.5 12.55 1.5 11.25C1.5 10.2 3.3 9 6.05 8.65L5.9 7.65C2.75 8.1 0.5 9.5 0.5 11.25C0.5 13.35 3.8 15 8 15C11.55 15 14.45 13.8 15.25 12.2L14.4 11.7Z" fill="currentColor"/>
<path d="M12.25 10.45C11.65 10.95 10.15 11.5 8 11.5C5.85 11.5 4.35 10.95 3.75 10.45L2.85 10.95C3.7 11.95 5.9 12.5 7.95 12.5C10.05 12.5 12.2 11.95 13.05 10.95L12.25 10.45Z" fill="currentColor"/>
<path d="M8 9C8.55228 9 9 8.55228 9 8C9 7.44772 8.55228 7 8 7C7.44772 7 7 7.44772 7 8C7 8.55228 7.44772 9 8 9Z" fill="currentColor"/>
<path d="M8 3.5C5.9 3.5 3.75 4.05 2.9 5.05L3.8 5.55C4.35 5.05 5.9 4.5 8 4.5C10.1 4.5 11.65 5.05 12.25 5.55L13.15 5.05C12.25 4.05 10.1 3.5 8 3.5Z" fill="currentColor"/>
<path d="M15.5 4.75C15.5 2.65 12.2 1 8 1C4.45 1 1.55 2.2 0.75 3.8L1.6 4.3C2.1 3.15 4.6 2 8 2C11.85 2 14.5 3.45 14.5 4.75C14.5 5.8 12.7 7 9.95 7.35L10.1 8.35C13.25 7.9 15.5 6.5 15.5 4.75Z" fill="currentColor"/>
</svg>
