<svg viewBox="0 0 16 16" fill="none" xmlns="http://www.w3.org/2000/svg">
<rect width="16" height="16" fill="white" fill-opacity="0.01" style="mix-blend-mode:multiply"/>
<path d="M10.5 12H9.5V13H10.5V12Z" fill="currentColor"/>
<path d="M8.5 10.5H14.5C15.0523 10.5 15.5 10.9477 15.5 11.5V13.5C15.5 14.0523 15.0523 14.5 14.5 14.5H8.5C7.9477 14.5 7.5 14.0523 7.5 13.5V11.5C7.5 10.9477 7.9477 10.5 8.5 10.5ZM14.5 13.5V11.5H8.5V13.5H14.5Z" fill="currentColor"/>
<path d="M6 13.5H5C3.07005 13.5 1.5 11.9299 1.5 10V9H2.5V10C2.5 11.3784 3.6216 12.5 5 12.5H6V13.5Z" fill="currentColor"/>
<path d="M13.5 9V5.5C13.5 3.57005 11.9299 2 10 2H6.5V3H10C11.3784 3 12.5 4.1216 12.5 5.5V9H13.5Z" fill="currentColor"/>
<path d="M5 4V2C5 1.4477 4.5523 1 4 1H1V7.5H2V5H2.74L3.91 7.5H5L3.835 5H4C4.5523 5 5 4.5523 5 4ZM2 2H4V4H2V2Z" fill="currentColor"/>
</svg>
