<svg viewBox="0 0 16 16" fill="none" xmlns="http://www.w3.org/2000/svg">
<rect width="16" height="16" fill="white" fill-opacity="0.01" style="mix-blend-mode:multiply"/>
<path d="M6 11C6.27614 11 6.5 10.7761 6.5 10.5C6.5 10.2239 6.27614 10 6 10C5.72386 10 5.5 10.2239 5.5 10.5C5.5 10.7761 5.72386 11 6 11Z" fill="currentColor"/>
<path d="M11.5 12.5H4.5C3.9486 12.5 3.5 12.0514 3.5 11.5V9.5C3.5 8.9486 3.9486 8.5 4.5 8.5H11.5C12.0514 8.5 12.5 8.9486 12.5 9.5V11.5C12.5 12.0514 12.0514 12.5 11.5 12.5ZM4.5 9.5V11.5H11.5V9.5H4.5Z" fill="currentColor"/>
<path d="M6 6C6.27614 6 6.5 5.77614 6.5 5.5C6.5 5.22386 6.27614 5 6 5C5.72386 5 5.5 5.22386 5.5 5.5C5.5 5.77614 5.72386 6 6 6Z" fill="currentColor"/>
<path d="M11.5 7.5H4.5C3.9486 7.5 3.5 7.0514 3.5 6.5V4.5C3.5 3.9486 3.9486 3.5 4.5 3.5H11.5C12.0514 3.5 12.5 3.9486 12.5 4.5V6.5C12.5 7.0514 12.0514 7.5 11.5 7.5ZM4.5 4.5V6.5H11.5V4.5H4.5Z" fill="currentColor"/>
<path d="M14 15H2C1.4485 15 1 14.5515 1 14V8H2V14H14V2H8V1H14C14.5515 1 15 1.4485 15 2V14C15 14.5515 14.5515 15 14 15Z" fill="currentColor"/>
<path d="M6 2.5V0H5V2.5H6Z" fill="currentColor"/>
<path d="M3.47489 2.76776L1.70712 0.999995L1.00001 1.7071L2.76778 3.47487L3.47489 2.76776Z" fill="currentColor"/>
<path d="M2.5 5H0V6H2.5V5Z" fill="currentColor"/>
</svg>
