<svg viewBox="0 0 16 16" fill="none" xmlns="http://www.w3.org/2000/svg">
<rect width="16" height="16" fill="white" fill-opacity="0.01" style="mix-blend-mode:multiply"/>
<path d="M14.5 11.5V10.5C14.5 9.67505 13.8249 9 13 9C12.1751 9 11.5 9.67505 11.5 10.5V11.5C10.9499 11.5 10.5 11.9499 10.5 12.5V14.5C10.5 15.0501 10.9499 15.5 11.5 15.5H14.5C15.0501 15.5 15.5 15.0501 15.5 14.5V12.5C15.5 11.9499 15.0501 11.5 14.5 11.5ZM12.5 10.5C12.5 10.2251 12.725 10 13 10C13.275 10 13.5 10.2251 13.5 10.5V11.5H12.5V10.5ZM14.5 14.5H11.5V12.5H14.5V14.5Z" fill="currentColor"/>
<path d="M3.5 11.07V6.5H2.5V11.07C1.64 11.295 1 12.07 1 13C1 14.105 1.895 15 3 15C3.93 15 4.705 14.36 4.93 13.5H9V12.5H4.93C4.745 11.8 4.2 11.255 3.5 11.07ZM3 14C2.45 14 2 13.55 2 13C2 12.45 2.45 12 3 12C3.55 12 4 12.45 4 13C4 13.55 3.55 14 3 14Z" fill="currentColor"/>
<path d="M15 3C15 1.895 14.105 1 13 1C12.07 1 11.295 1.64 11.07 2.5H6.5V3.5H11.07C11.255 4.2 11.8 4.745 12.5 4.93V7.5H13.5V4.93C14.36 4.705 15 3.93 15 3ZM13 4C12.45 4 12 3.55 12 3C12 2.45 12.45 2 13 2C13.55 2 14 2.45 14 3C14 3.55 13.55 4 13 4Z" fill="currentColor"/>
<path d="M5 4.2949V1H1V5H4.29505L9.79295 10.5L10.5 9.79295L5 4.2949ZM4 4H2V2H4V4Z" fill="currentColor"/>
</svg>
