<svg viewBox="0 0 16 16" fill="none" xmlns="http://www.w3.org/2000/svg">
<rect width="16" height="16" fill="white" fill-opacity="0.01" style="mix-blend-mode:multiply"/>
<path d="M4.5 13.5C4.77614 13.5 5 13.2761 5 13C5 12.7239 4.77614 12.5 4.5 12.5C4.22386 12.5 4 12.7239 4 13C4 13.2761 4.22386 13.5 4.5 13.5Z" fill="currentColor"/>
<path d="M13 15H3C2.44795 14.9994 2.0006 14.552 2 14V12C2.0006 11.448 2.44795 11.0006 3 11H13C13.552 11.0006 13.9994 11.448 14 12V14C13.9994 14.552 13.552 14.9994 13 15ZM3 12V14H13V12H3Z" fill="currentColor"/>
<path d="M4.5 8.5C4.77614 8.5 5 8.27614 5 8C5 7.72386 4.77614 7.5 4.5 7.5C4.22386 7.5 4 7.72386 4 8C4 8.27614 4.22386 8.5 4.5 8.5Z" fill="currentColor"/>
<path d="M13 10H3C2.44795 9.9994 2.0006 9.55205 2 9V7C2.0006 6.44795 2.44795 6.0006 3 6H13C13.552 6.0006 13.9994 6.44795 14 7V9C13.9994 9.55205 13.552 9.9994 13 10ZM3 7V9H13V7H3Z" fill="currentColor"/>
<path d="M4.5 3.5C4.77614 3.5 5 3.27614 5 3C5 2.72386 4.77614 2.5 4.5 2.5C4.22386 2.5 4 2.72386 4 3C4 3.27614 4.22386 3.5 4.5 3.5Z" fill="currentColor"/>
<path d="M13 5H3C2.44795 4.9994 2.0006 4.55205 2 4V2C2.0006 1.44795 2.44795 1.0006 3 1H13C13.552 1.0006 13.9994 1.44795 14 2V4C13.9994 4.55205 13.552 4.9994 13 5ZM3 2V4H13V2H3Z" fill="currentColor"/>
</svg>
