<svg viewBox="0 0 16 16" fill="none" xmlns="http://www.w3.org/2000/svg">
<rect width="16" height="16" fill="white" fill-opacity="0.01" style="mix-blend-mode:multiply"/>
<path d="M5.5 11.5H3V12.5H5.5V11.5Z" fill="currentColor"/>
<path d="M5.5 9.5H3V10.5H5.5V9.5Z" fill="currentColor"/>
<path d="M6.5 15H2C1.45 15 1 14.55 1 14V8.5C1 7.95 1.45 7.5 2 7.5H6.5C7.05 7.5 7.5 7.95 7.5 8.5V14C7.5 14.55 7.05 15 6.5 15ZM2 8.5V14H6.5V8.5H2Z" fill="currentColor"/>
<path d="M13.5 1H9.5V2H13.5V1Z" fill="currentColor"/>
<path d="M15 3H11V4H15V3Z" fill="currentColor"/>
<path d="M15 5H11V6H15V5Z" fill="currentColor"/>
<path d="M13.5 7H9.5V8H13.5V7Z" fill="currentColor"/>
<path d="M15 9H11V10H15V9Z" fill="currentColor"/>
<path d="M6 0.5L5.3 1.2L6.6 2.5H2C1.45 2.5 1 2.95 1 3.5V6H2V3.5H6.6L5.3 4.8L6 5.5L8.5 3L6 0.5Z" fill="currentColor"/>
</svg>
