<svg viewBox="0 0 16 16" fill="none" xmlns="http://www.w3.org/2000/svg">
<rect width="16" height="16" fill="white" fill-opacity="0.01" style="mix-blend-mode:multiply"/>
<path d="M11 15H5C4.45 15 4 14.55 4 14V12.5H5V14H11V12.5H12V14C12 14.55 11.55 15 11 15Z" fill="currentColor"/>
<path d="M7.5 7.4V12.5H8.5V7.4L9.8 8.7L10.5 8L8 5.5L5.5 8L6.2 8.7L7.5 7.4Z" fill="currentColor"/>
<path d="M12.4 4.55C11.95 2.5 10.15 1 8 1C5.85 1 4.05 2.5 3.6 4.55C2.1 4.85 1 6.2 1 7.75C1 9.55 2.45 11 4.25 11H6V10H4.25C3 10 2 9 2 7.75C2 6.6 2.9 5.6 4.05 5.5H4.5L4.55 5.1C4.75 3.3 6.25 2 8 2C9.75 2 11.25 3.3 11.45 5.05L11.5 5.5L11.9 5.55C13.05 5.65 13.95 6.65 13.95 7.8C13.95 9.05 12.95 10.05 11.7 10.05H10V11.05H11.75C13.55 11.05 15 9.6 15 7.8C15 6.2 13.9 4.85 12.4 4.55Z" fill="currentColor"/>
</svg>
