<svg viewBox="0 0 16 16" fill="none" xmlns="http://www.w3.org/2000/svg">
<rect width="16" height="16" fill="white" fill-opacity="0.01" style="mix-blend-mode:multiply"/>
<path d="M11 12C10.9 12 10.85 12 10.75 12L9.1 9C9.35 8.75 9.5 8.4 9.5 8C9.5 7.15 8.85 6.5 8 6.5C7.15 6.5 6.5 7.15 6.5 8C6.5 8.4 6.65 8.75 6.9 9L5.25 12C5.15 12 5.1 12 5 12C4.15 12 3.5 12.65 3.5 13.5C3.5 14.35 4.15 15 5 15C5.85 15 6.5 14.35 6.5 13.5C6.5 13.1 6.35 12.75 6.1 12.5L7.75 9.45C7.85 9.45 7.9 9.45 8 9.45C8.1 9.45 8.15 9.45 8.25 9.45L9.9 12.5C9.65 12.75 9.5 13.1 9.5 13.5C9.5 14.35 10.15 15 11 15C11.85 15 12.5 14.35 12.5 13.5C12.5 12.65 11.85 12 11 12ZM8 7.5C8.3 7.5 8.5 7.7 8.5 8C8.5 8.3 8.3 8.5 8 8.5C7.7 8.5 7.5 8.3 7.5 8C7.5 7.7 7.7 7.5 8 7.5ZM5 14C4.7 14 4.5 13.8 4.5 13.5C4.5 13.2 4.7 13 5 13C5.3 13 5.5 13.2 5.5 13.5C5.5 13.8 5.3 14 5 14ZM11 14C10.7 14 10.5 13.8 10.5 13.5C10.5 13.2 10.7 13 11 13C11.3 13 11.5 13.2 11.5 13.5C11.5 13.8 11.3 14 11 14Z" fill="currentColor"/>
<path d="M12.4 4.55C11.95 2.5 10.15 1 8 1C5.85 1 4.05 2.5 3.6 4.55C2.1 4.85 1 6.2 1 7.75C1 9.55 2.45 11 4.25 11H4.5V10H4.25C3 10 2 9 2 7.75C2 6.6 2.9 5.6 4.05 5.5H4.5L4.55 5.1C4.75 3.3 6.25 2 8 2C9.75 2 11.25 3.3 11.45 5.05L11.5 5.5L11.9 5.55C13.05 5.65 13.95 6.65 13.95 7.8C13.95 9.05 12.95 10.05 11.7 10.05H11.5V11.05H11.75C13.55 11.05 15 9.6 15 7.8C15 6.2 13.9 4.85 12.4 4.55Z" fill="currentColor"/>
</svg>
