<svg viewBox="0 0 16 16" fill="none" xmlns="http://www.w3.org/2000/svg">
<g clip-path="url(#clip0_1961_6500)">
<rect width="16" height="16" fill="white" fill-opacity="0.01" style="mix-blend-mode:multiply"/>
<path d="M14.5 15.5C15.0523 15.5 15.5 15.0523 15.5 14.5C15.5 13.9477 15.0523 13.5 14.5 13.5C13.9477 13.5 13.5 13.9477 13.5 14.5C13.5 15.0523 13.9477 15.5 14.5 15.5Z" fill="currentColor"/>
<path d="M12.5 15H8.5C7.9486 15 7.5 14.5514 7.5 14V12H8.5V14H12.5V15Z" fill="currentColor"/>
<path d="M15 12.5H14V8.5H11.5V7.5H14C14.5514 7.5 15 7.9486 15 8.5V12.5Z" fill="currentColor"/>
<path d="M10.2071 7.29295L8.70705 5.79295C8.51835 5.604 8.2671 5.5 8 5.5C7.7329 5.5 7.4817 5.604 7.29285 5.79295L5.79295 7.29295C5.598 7.48775 5.5 7.7439 5.5 8C5.5 8.2561 5.598 8.5122 5.79295 8.70705L7.29285 10.2071C7.4817 10.396 7.7329 10.5 8 10.5C8.2671 10.5 8.5183 10.396 8.70705 10.2071L10.2071 8.70705C10.402 8.51225 10.5 8.2561 10.5 8C10.5 7.7439 10.402 7.4878 10.2071 7.29295ZM8 9.5L6.5 8L8 6.5L9.4999 8L8 9.5Z" fill="currentColor"/>
<path d="M4.5 8.5H2C1.4486 8.5 1 8.0514 1 7.5V3.5H2V7.5H4.5V8.5Z" fill="currentColor"/>
<path d="M8.5 4H7.5V2H3.5V1H7.5C8.0514 1 8.5 1.4486 8.5 2V4Z" fill="currentColor"/>
<path d="M1.5 2.5C2.05228 2.5 2.5 2.05228 2.5 1.5C2.5 0.947715 2.05228 0.5 1.5 0.5C0.947715 0.5 0.5 0.947715 0.5 1.5C0.5 2.05228 0.947715 2.5 1.5 2.5Z" fill="currentColor"/>
</g>
<defs>
<clipPath id="clip0_1961_6500">
<rect width="16" height="16" fill="white"/>
</clipPath>
</defs>
</svg>
