<svg viewBox="0 0 16 17" fill="none" xmlns="http://www.w3.org/2000/svg">
<rect width="16" height="16" transform="translate(0 0.513672)" fill="white" fill-opacity="0.01" style="mix-blend-mode:multiply"/>
<path d="M2 1.51367C1.73478 1.51367 1.48043 1.61903 1.29289 1.80657C1.10536 1.9941 1 2.24846 1 2.51367V10.5137L1.5 11.5137L2 10.5137V2.51367H4V7.51367L4.5 8.51367L5 7.51367V1.51367H2Z" fill="currentColor"/>
<path d="M14 1.51367H7V5.51367L7.5 6.51367L8 5.51367V2.51367H9V9.01367L9.5 10.0137L10 9.01367V2.51367H12V7.51367L12.5 8.51367L13 7.51367V2.51367H14V12.5137L14.5 13.5137L15 12.5137V2.51367C15 2.24846 14.8946 1.9941 14.7071 1.80657C14.5196 1.61903 14.2652 1.51367 14 1.51367Z" fill="currentColor"/>
<path d="M7 14.5137L6.5 15.5137L6 14.5137V8.51367H7V14.5137Z" fill="currentColor"/>
<path d="M12 13.5137L11.5 14.5137L11 13.5137V10.5137H12V13.5137Z" fill="currentColor"/>
<path d="M4 12.5137L3.5 13.5137L3 12.5137V9.51367H4V12.5137Z" fill="currentColor"/>
</svg>
