<svg viewBox="0 0 16 17" fill="none" xmlns="http://www.w3.org/2000/svg">
<rect width="16" height="16" transform="translate(0 0.513672)" fill="white" fill-opacity="0.01" style="mix-blend-mode:multiply"/>
<path d="M14 10.5137H13V11.5137H14V14.5137H2V11.5137H3V10.5137H2C1.73488 10.514 1.48071 10.6194 1.29324 10.8069C1.10578 10.9944 1.00032 11.2486 1 11.5137V14.5137C1.00032 14.7788 1.10578 15.033 1.29324 15.2204C1.48071 15.4079 1.73488 15.5134 2 15.5137H14C14.2651 15.5134 14.5193 15.4079 14.7068 15.2204C14.8942 15.033 14.9997 14.7788 15 14.5137V11.5137C14.9997 11.2486 14.8942 10.9944 14.7068 10.8069C14.5193 10.6194 14.2651 10.514 14 10.5137Z" fill="currentColor"/>
<path d="M3.5 13.5137C3.77614 13.5137 4 13.2898 4 13.0137C4 12.7375 3.77614 12.5137 3.5 12.5137C3.22386 12.5137 3 12.7375 3 13.0137C3 13.2898 3.22386 13.5137 3.5 13.5137Z" fill="currentColor"/>
<path d="M7.5 2.51367H6.5V6.51367H7.5V2.51367Z" fill="currentColor"/>
<path d="M5.5 2.51367H4.5V6.51367H5.5V2.51367Z" fill="currentColor"/>
<path d="M10.5 6.51367H9.5C9.23487 6.51339 8.98068 6.40795 8.7932 6.22047C8.60572 6.033 8.50028 5.7788 8.5 5.51367V3.51367C8.50028 3.24854 8.60572 2.99435 8.7932 2.80687C8.98068 2.6194 9.23487 2.51395 9.5 2.51367H10.5C10.7651 2.51395 11.0193 2.6194 11.2068 2.80687C11.3943 2.99435 11.4997 3.24854 11.5 3.51367V5.51367C11.4997 5.7788 11.3943 6.033 11.2068 6.22047C11.0193 6.40795 10.7651 6.51339 10.5 6.51367ZM9.5 3.51367V5.51367H10.5V3.51367H9.5Z" fill="currentColor"/>
<path d="M11.5 7.51367H10.5V11.5137H11.5V7.51367Z" fill="currentColor"/>
<path d="M5.5 7.51367H4.5V11.5137H5.5V7.51367Z" fill="currentColor"/>
<path d="M8.5 11.5137H7.5C7.23487 11.5134 6.98068 11.4079 6.7932 11.2205C6.60572 11.033 6.50028 10.7788 6.5 10.5137V8.51367C6.50028 8.24854 6.60572 7.99435 6.7932 7.80687C6.98068 7.6194 7.23487 7.51395 7.5 7.51367H8.5C8.76513 7.51395 9.01932 7.6194 9.2068 7.80687C9.39428 7.99435 9.49972 8.24854 9.5 8.51367V10.5137C9.49972 10.7788 9.39428 11.033 9.2068 11.2205C9.01932 11.4079 8.76513 11.5134 8.5 11.5137ZM7.5 8.51367V10.5137H8.5V8.51367H7.5Z" fill="currentColor"/>
</svg>
