<svg viewBox="0 0 16 17" fill="none" xmlns="http://www.w3.org/2000/svg">
<rect width="16" height="16" transform="translate(0 0.513672)" fill="white" fill-opacity="0.01" style="mix-blend-mode:multiply"/>
<path d="M12.5 1.51367V5.01367H16V1.51367H12.5ZM15 4.01367H13.5V2.51367H15V4.01367Z" fill="currentColor"/>
<path d="M11.5 3.51367H8V9.51367H14V6.01367H11.5V3.51367ZM10.5 8.51367H9V7.01367H10.5V8.51367ZM13 7.01367V8.51367H11.5V7.01367H13ZM9 6.01367V4.51367H10.5V6.01367H9Z" fill="currentColor"/>
<path d="M13 10.5137V11.5137H3V4.51367H7V3.51367H3C2.448 3.51422 2.0005 3.96162 2 4.51367V11.5137C2.0006 12.0657 2.448 12.513 3 12.5137H13C13.552 12.5129 13.9992 12.0656 14 11.5137V10.5137H13Z" fill="currentColor"/>
<path d="M15 13.5137H1V14.5137H15V13.5137Z" fill="currentColor"/>
</svg>
