<svg viewBox="0 0 16 16" fill="none" xmlns="http://www.w3.org/2000/svg">
<rect width="16" height="16" fill="white" fill-opacity="0.01" style="mix-blend-mode:multiply"/>
<path d="M15.0001 12.0001C15.0001 11.4068 14.8241 10.8267 14.4945 10.3334C14.1648 9.84005 13.6963 9.45554 13.1481 9.22847C12.5999 9.00141 11.9967 8.942 11.4148 9.05776C10.8328 9.17351 10.2983 9.45923 9.87874 9.87879C9.45918 10.2983 9.17346 10.8329 9.05771 11.4148C8.94195 11.9968 9.00136 12.6 9.22842 13.1482C9.45549 13.6963 9.84 14.1649 10.3334 14.4945C10.8267 14.8242 11.4067 15.0001 12.0001 15.0001C12.7954 14.9992 13.558 14.6829 14.1204 14.1205C14.6828 13.558 14.9992 12.7955 15.0001 12.0001ZM14.0001 12.0001C13.9982 12.356 13.9003 12.7048 13.7166 13.0096L10.9906 10.2836C11.2954 10.0999 11.6442 10.002 12.0001 10.0001C12.5303 10.0007 13.0387 10.2116 13.4136 10.5866C13.7886 10.9615 13.9995 11.4699 14.0001 12.0001ZM10.0001 12.0001C10.0019 11.6442 10.0998 11.2954 10.2835 10.9906L13.0096 13.7167C12.7047 13.9003 12.3559 13.9982 12.0001 14.0001C11.4698 13.9995 10.9614 13.7886 10.5865 13.4137C10.2116 13.0387 10.0007 12.5304 10.0001 12.0001Z" fill="currentColor"/>
<path d="M7.00006 1.00011C6.16674 0.995017 5.3415 1.16357 4.57692 1.49502C3.81234 1.82647 3.12518 2.31356 2.55925 2.92525C1.99331 3.53693 1.56099 4.2598 1.28985 5.04779C1.01871 5.83578 0.914693 6.67161 0.984419 7.50203C1.05414 8.33244 1.29609 9.13922 1.69483 9.87096C2.09358 10.6027 2.64038 11.2434 3.3004 11.7521C3.96042 12.2609 4.71917 12.6265 5.52832 12.8259C6.33747 13.0252 7.17926 13.0537 8.00006 12.9098V11.8993C7.31524 12.0389 6.60874 12.0335 5.92616 11.8832C5.24357 11.733 4.60006 11.4413 4.03716 11.0271C3.47426 10.6128 3.00446 10.0851 2.65809 9.47802C2.31172 8.87096 2.09646 8.19803 2.02622 7.50265C1.95597 6.80727 2.03229 6.10488 2.25026 5.44082C2.46822 4.77675 2.82299 4.16576 3.29166 3.64727C3.76034 3.12877 4.33251 2.7143 4.97126 2.43059C5.61001 2.14687 6.30114 2.00023 7.00006 2.00011V7.00011L9.17156 9.17176C9.54259 8.79975 9.98348 8.50474 10.4689 8.30366C10.9543 8.10259 11.4747 7.99943 12.0001 8.00011H12.9097C13.0614 7.13944 13.022 6.25595 12.7945 5.41215C12.567 4.56834 12.1569 3.78484 11.5931 3.11706C11.0294 2.44928 10.3257 1.91353 9.53205 1.54772C8.73836 1.18191 7.87398 0.994963 7.00006 1.00011Z" fill="currentColor"/>
</svg>
