<svg viewBox="0 0 16 17" fill="none" xmlns="http://www.w3.org/2000/svg">
<g clip-path="url(#clip0_1961_10563)">
<rect width="16" height="16" transform="translate(0 0.513672)" fill="white" fill-opacity="0.01" style="mix-blend-mode:multiply"/>
<path d="M11 3.01367H10L9 4.96217L8 3.01367H7L8.4525 5.51367L7 8.01367H8L9 6.11417L10 8.01367H11L9.549 5.51367L11 3.01367Z" fill="currentColor"/>
<path d="M5 1.51367L4.2425 3.70067L4 4.51367L3.7675 3.70067L3 1.51367H2V8.01367H3V4.20067L2.9205 3.20267L3.2105 4.20067L4 6.51367L4.7895 4.20067L5.0795 3.20067L5 4.20067V8.01367H6V1.51367H5Z" fill="currentColor"/>
<path d="M4.5 14.5137C4.77614 14.5137 5 14.2898 5 14.0137C5 13.7375 4.77614 13.5137 4.5 13.5137C4.22386 13.5137 4 13.7375 4 14.0137C4 14.2898 4.22386 14.5137 4.5 14.5137Z" fill="currentColor"/>
<path d="M3 9.51367H1V10.5137H3V9.51367Z" fill="currentColor"/>
<path d="M6 9.51367H4V10.5137H6V9.51367Z" fill="currentColor"/>
<path d="M9 9.51367H7V10.5137H9V9.51367Z" fill="currentColor"/>
<path d="M12 9.51367H10V10.5137H12V9.51367Z" fill="currentColor"/>
<path d="M15 9.51367H13V10.5137H15V9.51367Z" fill="currentColor"/>
<path d="M13 16.0137H3C2.73487 16.0134 2.48068 15.9079 2.2932 15.7205C2.10572 15.533 2.00028 15.2788 2 15.0137V13.0137C2.00028 12.7485 2.10572 12.4943 2.2932 12.3069C2.48068 12.1194 2.73487 12.0139 3 12.0137H13C13.2651 12.0139 13.5193 12.1194 13.7068 12.3069C13.8943 12.4943 13.9997 12.7485 14 13.0137V15.0137C13.9997 15.2788 13.8943 15.533 13.7068 15.7205C13.5193 15.9079 13.2651 16.0134 13 16.0137ZM3 13.0137V15.0137H13V13.0137H3Z" fill="currentColor"/>
</g>
<defs>
<clipPath id="clip0_1961_10563">
<rect width="16" height="16" fill="white" transform="translate(0 0.513672)"/>
</clipPath>
</defs>
</svg>
