<svg viewBox="0 0 16 17" fill="none" xmlns="http://www.w3.org/2000/svg">
<rect width="16" height="16" transform="translate(0 0.513672)" fill="white" fill-opacity="0.01" style="mix-blend-mode:multiply"/>
<path d="M15 12.5137H13V10.5137H12V12.5137H10V13.5137H12V15.5137H13V13.5137H15V12.5137Z" fill="currentColor"/>
<path d="M7.7 15.5137L2.5 12.4137C2.2 12.2137 2 11.9137 2 11.5637V5.46367C2 5.11367 2.2 4.76367 2.5 4.61367L7.5 1.66367C7.65 1.56367 7.8 1.51367 8 1.51367C8.2 1.51367 8.35 1.56367 8.5 1.66367L13.5 4.61367C13.8 4.81367 14 5.11367 14 5.46367V8.51367H13V5.46367L8 2.51367L3 5.46367V11.5637L8.25 14.6637L7.7 15.5137Z" fill="currentColor"/>
</svg>
