<svg viewBox="0 0 16 17" fill="none" xmlns="http://www.w3.org/2000/svg">
<rect width="16" height="16" transform="translate(0 0.513672)" fill="white" fill-opacity="0.01" style="mix-blend-mode:multiply"/>
<path d="M15 10.0137H13V8.01367H12V12.5137H4V4.51367L8.5 4.51322V3.51367H6.5V1.51367H5.5V3.51367H4C3.73486 3.51394 3.48066 3.61938 3.29319 3.80686C3.10571 3.99434 3.00026 4.24854 3 4.51367V6.01367H1V7.01367H3V10.0137H1V11.0137H3V12.5137C3.0003 12.7788 3.10576 13.033 3.29323 13.2204C3.4807 13.4079 3.73488 13.5134 4 13.5137H5.5V15.5137H6.5V13.5137H9.5V15.5137H10.5V13.5137H12C12.2651 13.5133 12.5193 13.4078 12.7067 13.2204C12.8942 13.0329 12.9996 12.7788 13 12.5137V11.0137H15V10.0137Z" fill="currentColor"/>
<path d="M10.5 11.0137H5.5V6.01367H10.5V11.0137ZM6.5 10.0137H9.5V7.01367H6.5V10.0137Z" fill="currentColor"/>
<path d="M15.5 7.01367H14.5C14.4985 5.68806 13.9712 4.41719 13.0338 3.47985C12.0965 2.5425 10.8256 2.01522 9.5 2.01367V1.01367C11.0908 1.01541 12.6159 1.6481 13.7407 2.77295C14.8656 3.89779 15.4983 5.4229 15.5 7.01367Z" fill="currentColor"/>
<path d="M13 7.01367H12C11.9992 6.35087 11.7356 5.71544 11.2669 5.24677C10.7982 4.7781 10.1628 4.51445 9.5 4.51367V3.51367C10.4279 3.5148 11.3175 3.88391 11.9736 4.54004C12.6298 5.19617 12.9989 6.08576 13 7.01367Z" fill="currentColor"/>
</svg>
