<svg viewBox="0 0 16 17" fill="none" xmlns="http://www.w3.org/2000/svg">
<rect width="16" height="16" transform="translate(0 0.513672)" fill="white" fill-opacity="0.01" style="mix-blend-mode:multiply"/>
<path d="M15 10.0137H13V8.01367H12V12.5137H4V4.51367L8.5 4.51322V3.51367H6.5V1.51367H5.5V3.51367H4C3.73486 3.51394 3.48066 3.61938 3.29319 3.80686C3.10571 3.99434 3.00026 4.24854 3 4.51367V6.01367H1V7.01367H3V10.0137H1V11.0137H3V12.5137C3.0003 12.7788 3.10576 13.033 3.29323 13.2204C3.4807 13.4079 3.73488 13.5134 4 13.5137H5.5V15.5137H6.5V13.5137H9.5V15.5137H10.5V13.5137H12C12.2651 13.5133 12.5193 13.4078 12.7067 13.2204C12.8942 13.0329 12.9996 12.7788 13 12.5137V11.0137H15V10.0137Z" fill="currentColor"/>
<path d="M13 1.51367C12.4697 1.51423 11.9614 1.72512 11.5864 2.10007C11.2114 2.47502 11.0006 2.98341 11 3.51367C11.0019 3.86957 11.0998 4.21837 11.2834 4.52327L9.79295 6.01367H5.5V11.0137H10.5V6.72072L11.9904 5.23032C12.2953 5.4139 12.6441 5.51179 13 5.51367C13.5304 5.51367 14.0391 5.30296 14.4142 4.92789C14.7893 4.55281 15 4.0441 15 3.51367C15 2.98324 14.7893 2.47453 14.4142 2.09946C14.0391 1.72439 13.5304 1.51367 13 1.51367ZM9.5 10.0137H6.5V7.01367H9.5V10.0137ZM13 4.51367C12.8022 4.51367 12.6089 4.45502 12.4444 4.34514C12.28 4.23526 12.1518 4.07908 12.0761 3.89636C12.0004 3.71363 11.9806 3.51256 12.0192 3.31858C12.0578 3.1246 12.153 2.94642 12.2929 2.80657C12.4327 2.66671 12.6109 2.57147 12.8049 2.53289C12.9989 2.4943 13.2 2.5141 13.3827 2.58979C13.5654 2.66548 13.7216 2.79365 13.8315 2.9581C13.9414 3.12255 14 3.31589 14 3.51367C13.9997 3.7788 13.8942 4.03297 13.7068 4.22044C13.5193 4.40791 13.2651 4.51337 13 4.51367Z" fill="currentColor"/>
</svg>
