<svg viewBox="0 0 16 16" fill="none" xmlns="http://www.w3.org/2000/svg">
<rect width="16" height="16" fill="white" fill-opacity="0.01" style="mix-blend-mode:multiply"/>
<path d="M9.9998 3C9.31117 3.00016 8.63009 3.1435 7.9998 3.4209C7.2389 3.08765 6.40696 2.94925 5.57915 3.0182C4.75134 3.08715 3.95376 3.36128 3.25847 3.81581C2.56319 4.27035 1.99212 4.89096 1.59686 5.62158C1.20161 6.35219 0.994629 7.16977 0.994629 8.00045C0.994629 8.83112 1.20161 9.64871 1.59686 10.3793C1.99212 11.1099 2.56319 11.7306 3.25847 12.1851C3.95376 12.6396 4.75134 12.9137 5.57915 12.9827C6.40696 13.0516 7.2389 12.9132 7.9998 12.58C8.68091 12.8775 9.41979 13.0194 10.1627 12.9954C10.9055 12.9713 11.6337 12.7819 12.2941 12.441C12.9546 12.1 13.5307 11.6161 13.9805 11.0244C14.4303 10.4327 14.7425 9.74818 14.8944 9.02061C15.0463 8.29304 15.034 7.54075 14.8585 6.81852C14.683 6.09628 14.3487 5.42227 13.8798 4.84556C13.4109 4.26884 12.8194 3.80393 12.1482 3.48467C11.477 3.16541 10.7431 2.99984 9.9998 3V3ZM5.9998 12C5.43605 12.0019 4.87825 11.8847 4.36298 11.6559C3.84772 11.4272 3.38662 11.0921 3.00994 10.6727C2.63326 10.2532 2.3495 9.75888 2.17726 9.22208C2.00503 8.68527 1.94821 8.11812 2.01053 7.55782C2.07286 6.99751 2.25292 6.45671 2.53891 5.97088C2.82489 5.48504 3.21035 5.06515 3.67 4.73873C4.12964 4.41231 4.6531 4.18674 5.20604 4.07681C5.75897 3.96688 6.3289 3.97507 6.87845 4.10085C6.29242 4.56792 5.81919 5.16107 5.49394 5.83621C5.16869 6.51134 4.99979 7.2511 4.99979 8.0005C4.99979 8.7499 5.16869 9.48966 5.49394 10.1648C5.81919 10.8399 6.29242 11.4331 6.87845 11.9001C6.59016 11.9658 6.29548 11.9993 5.9998 12V12ZM9.9998 12C9.70412 11.9993 9.40943 11.9657 9.12115 11.9C9.70719 11.4329 10.1804 10.8398 10.5057 10.1646C10.8309 9.48951 10.9998 8.74975 10.9998 8.00035C10.9998 7.25095 10.8309 6.51119 10.5057 5.83606C10.1804 5.16092 9.70719 4.56777 9.12115 4.1007C9.66985 3.977 10.2385 3.97045 10.7899 4.08148C11.3413 4.19251 11.863 4.41861 12.3211 4.74503C12.7791 5.07145 13.1632 5.49083 13.4481 5.97578C13.733 6.46073 13.9125 7.00034 13.9746 7.55936C14.0368 8.11837 13.9804 8.68422 13.809 9.21993C13.6376 9.75564 13.3551 10.2492 12.9799 10.6683C12.6048 11.0873 12.1455 11.4226 11.6319 11.6521C11.1184 11.8815 10.5623 12.0001 9.9998 12V12Z" fill="currentColor"/>
</svg>
