<svg viewBox="0 0 16 16" fill="none" xmlns="http://www.w3.org/2000/svg">
<rect width="16" height="16" fill="white" fill-opacity="0.01" style="mix-blend-mode:multiply"/>
<path d="M10.0002 3C9.31217 2.99989 8.63163 3.14281 8.00179 3.4197C8.40429 3.59593 8.78174 3.82458 9.12434 4.0997C9.71004 3.9665 10.3182 3.96691 10.9037 4.10091C11.4893 4.23491 12.0371 4.49905 12.5066 4.87374C12.976 5.24843 13.3551 5.72404 13.6156 6.26526C13.8761 6.80649 14.0114 7.39944 14.0114 8.0001C14.0114 8.60076 13.8761 9.19371 13.6156 9.73494C13.3551 10.2762 12.976 10.7518 12.5066 11.1265C12.0371 11.5011 11.4893 11.7653 10.9037 11.8993C10.3182 12.0333 9.71004 12.0337 9.12434 11.9005C8.78174 12.1756 8.40429 12.4043 8.00179 12.5805C8.6829 12.8777 9.42169 13.0192 10.1644 12.9949C10.9071 12.9706 11.6351 12.781 12.2953 12.4399C12.9555 12.0988 13.5313 11.6148 13.9809 11.0231C14.4305 10.4315 14.7425 9.74699 14.8943 9.01953C15.046 8.29208 15.0337 7.53994 14.8581 6.81787C14.6825 6.09579 14.3482 5.42194 13.8794 4.84535C13.4106 4.26876 12.8192 3.80394 12.1481 3.48472C11.4771 3.1655 10.7433 2.99991 10.0002 3Z" fill="currentColor"/>
<path d="M6.00019 8C6.00167 8.908 6.31165 9.78855 6.8793 10.4972C7.44695 11.2059 8.23857 11.7008 9.12434 11.9005C9.70962 11.4328 10.1821 10.8392 10.5069 10.164C10.8316 9.48883 11.0002 8.74922 11.0002 8C11.0002 7.25078 10.8316 6.51117 10.5069 5.83598C10.1821 5.16079 9.70962 4.56743 9.12434 4.0997C8.23857 4.2994 7.44695 4.79407 6.8793 5.50276C6.31165 6.21145 6.00167 7.092 6.00019 8Z" fill="currentColor"/>
<path d="M5.00019 8C5.00143 7.02747 5.28598 6.07637 5.81904 5.26295C6.3521 4.44952 7.11058 3.80901 8.00179 3.4197C7.24082 3.08656 6.40884 2.94826 5.58102 3.0173C4.75319 3.08634 3.95562 3.36055 3.26035 3.81515C2.56508 4.26974 1.99403 4.8904 1.59879 5.62105C1.20355 6.3517 0.996582 7.1693 0.996582 8C0.996582 8.8307 1.20355 9.64831 1.59879 10.379C1.99403 11.1096 2.56508 11.7303 3.26035 12.1849C3.95562 12.6395 4.75319 12.9137 5.58102 12.9827C6.40884 13.0517 7.24082 12.9136 8.00179 12.5805C7.11058 12.1912 6.3521 11.5505 5.81904 10.7371C5.28598 9.92363 5.00143 8.97253 5.00019 8Z" fill="currentColor"/>
</svg>
