<svg viewBox="0 0 16 17" fill="none" xmlns="http://www.w3.org/2000/svg">
<rect width="16" height="16" transform="translate(0 0.513672)" fill="white" fill-opacity="0.01" style="mix-blend-mode:multiply"/>
<path d="M9.5 11.0137H6.5C5.9486 11.0137 5.5 10.5651 5.5 10.0137V7.01367C5.5 6.46227 5.9486 6.01367 6.5 6.01367H9.5C10.0514 6.01367 10.5 6.46227 10.5 7.01367V10.0137C10.5 10.5651 10.0514 11.0137 9.5 11.0137ZM6.5 7.01367V10.0137H9.5V7.01367H6.5Z" fill="currentColor"/>
<path d="M15 8.51367C15 4.65382 11.8598 1.51367 8 1.51367C4.14015 1.51367 1 4.65382 1 8.51367C1 12.3735 4.14015 15.5137 8 15.5137C9.38865 15.5137 10.7085 15.1157 11.8506 14.3596C12.048 14.4553 12.2664 14.5137 12.5 14.5137C13.3271 14.5137 14 13.8408 14 13.0137C14 12.78 13.9417 12.5615 13.8461 12.3643C14.6022 11.2222 15 9.90237 15 8.51367ZM2 8.51367C2 5.20532 4.69165 2.51367 8 2.51367C11.3084 2.51367 14 5.20532 14 8.51367C14 9.63767 13.6924 10.7075 13.1128 11.6477C12.9253 11.5633 12.7188 11.5137 12.5 11.5137C11.6729 11.5137 11 12.1865 11 13.0137C11 13.2324 11.0496 13.439 11.1341 13.6265C10.194 14.2061 9.12415 14.5137 8 14.5137C4.69165 14.5137 2 11.822 2 8.51367ZM12.5 13.5137C12.2242 13.5137 12 13.2893 12 13.0137C12 12.738 12.2242 12.5137 12.5 12.5137C12.7758 12.5137 13 12.738 13 13.0137C13 13.2893 12.7758 13.5137 12.5 13.5137Z" fill="currentColor"/>
</svg>
