<svg viewBox="0 0 16 17" fill="none" xmlns="http://www.w3.org/2000/svg">
<rect width="16" height="16" transform="translate(0 0.513672)" fill="white" fill-opacity="0.01" style="mix-blend-mode:multiply"/>
<path d="M14.6114 9.49562L12.9597 9.11867C13.1096 7.95895 12.8391 6.7839 12.1973 5.80642L13.4673 4.79372L12.8438 4.01172L11.5741 5.02392C10.7561 4.18259 9.66755 3.65678 8.50002 3.53907V2.01367H7.50002V3.53907C6.33248 3.65682 5.2439 4.18268 4.42592 5.02407L3.15627 4.01172L2.53272 4.79367L3.80272 5.80637C3.16088 6.78387 2.89041 7.95894 3.04032 9.11867L1.38867 9.49587L1.61137 10.4705L3.26002 10.094C3.63525 11.2097 4.39076 12.158 5.39442 12.773L4.72942 14.1545L5.63032 14.5884L6.29502 13.2078C7.39524 13.6156 8.60521 13.6156 9.70542 13.2078L10.37 14.5884L11.2709 14.1543L10.6059 12.773C11.6096 12.158 12.3651 11.2097 12.7403 10.094L14.389 10.4702L14.6114 9.49562ZM12 8.51367C12 8.64232 11.9926 8.76927 11.9807 8.89502L9.48072 8.32422C9.46806 8.22309 9.445 8.12353 9.41192 8.02712L11.41 6.43367C11.7954 7.05906 11.9996 7.7791 12 8.51367V8.51367ZM7.50002 8.51367C7.50002 8.41478 7.52935 8.31811 7.58429 8.23589C7.63923 8.15366 7.71732 8.08958 7.80868 8.05173C7.90004 8.01389 8.00058 8.00399 8.09757 8.02328C8.19456 8.04257 8.28365 8.09019 8.35358 8.16012C8.4235 8.23004 8.47112 8.31914 8.49041 8.41613C8.50971 8.51312 8.49981 8.61365 8.46196 8.70501C8.42412 8.79638 8.36003 8.87447 8.27781 8.92941C8.19558 8.98435 8.09891 9.01367 8.00002 9.01367C7.86745 9.01355 7.74034 8.96084 7.6466 8.86709C7.55286 8.77335 7.50014 8.64624 7.50002 8.51367V8.51367ZM10.7879 5.65087L8.79002 7.24412C8.69858 7.18775 8.60136 7.14135 8.50002 7.10572V4.54832C9.36243 4.6567 10.1658 5.04386 10.7879 5.65087V5.65087ZM7.50002 4.54832V7.10572C7.39868 7.14135 7.30146 7.18775 7.21002 7.24412L5.21222 5.65087C5.8343 5.04388 6.63765 4.65672 7.50002 4.54832V4.54832ZM4.00002 8.51367C4.00045 7.7791 4.20469 7.05906 4.59002 6.43367L6.58812 8.02697C6.55504 8.12338 6.53199 8.22294 6.51932 8.32407L4.01932 8.89487C4.00742 8.76927 4.00002 8.64232 4.00002 8.51367ZM4.24177 9.86987L6.72937 9.30177C6.78816 9.39872 6.8577 9.48872 6.93667 9.57007L5.82972 11.8687C5.09707 11.3929 4.53957 10.6911 4.24177 9.86987V9.86987ZM8.00002 12.5137C7.5681 12.513 7.13917 12.4421 6.73002 12.3037L7.84032 9.99752C7.89323 10.0058 7.94654 10.0111 8.00002 10.0137C8.05344 10.0112 8.10668 10.0058 8.15952 9.99757L9.27002 12.3037C8.8609 12.4422 8.43195 12.5131 8.00002 12.5137V12.5137ZM10.1703 11.8687L9.06337 9.56987C9.14235 9.48852 9.21189 9.39852 9.27067 9.30157L11.7583 9.86967C11.4605 10.691 10.903 11.3928 10.1703 11.8687V11.8687Z" fill="currentColor"/>
</svg>
