<svg viewBox="0 0 16 17" fill="none" xmlns="http://www.w3.org/2000/svg">
<rect width="16" height="16" transform="translate(0 0.513672)" fill="white" fill-opacity="0.01" style="mix-blend-mode:multiply"/>
<path d="M11.5 9.51367V8.51367H10.45C10.4 8.21367 10.25 7.91367 10.1 7.61367L10.85 6.86367L10.15 6.16367L9.4 6.91367C9.15 6.76367 8.85 6.61367 8.5 6.56367V5.51367H7.5V6.56367C7.2 6.61367 6.9 6.76367 6.6 6.91367L5.85 6.16367L5.15 6.86367L5.9 7.61367C5.75 7.86367 5.6 8.16367 5.55 8.51367H4.5V9.51367H5.55C5.6 9.81367 5.75 10.1137 5.9 10.4137L5.15 11.1637L5.85 11.8637L6.6 11.1137C6.85 11.2637 7.15 11.4137 7.5 11.4637V12.5137H8.5V11.4637C8.8 11.4137 9.1 11.2637 9.4 11.1137L10.15 11.8637L10.85 11.1637L10.1 10.4137C10.25 10.1637 10.4 9.86367 10.45 9.51367H11.5ZM8 10.5137C7.15 10.5137 6.5 9.86367 6.5 9.01367C6.5 8.16367 7.15 7.51367 8 7.51367C8.85 7.51367 9.5 8.16367 9.5 9.01367C9.5 9.86367 8.85 10.5137 8 10.5137Z" fill="currentColor"/>
<path d="M14.9742 10.0085L13.6777 4.41527C13.6074 4.11157 13.3995 3.85812 13.1157 3.72972L8.41215 1.60252C8.28115 1.54317 8.14055 1.51367 8.00005 1.51367C7.85955 1.51367 7.7189 1.54322 7.58795 1.60252L2.88435 3.72972C2.60055 3.85812 2.39265 4.11157 2.32235 4.41527L1.02585 10.0085C0.956502 10.3076 1.0284 10.6221 1.2208 10.8613L4.6638 15.1406C4.8536 15.3765 5.1401 15.5137 5.44285 15.5137H10.5572C10.8599 15.5137 11.1464 15.3765 11.3362 15.1406L14.7792 10.8613C14.9716 10.6221 15.0435 10.3076 14.9742 10.0085ZM10.5572 14.5137H5.443L2 10.2344L3.2965 4.64087L8 2.51367L12.7035 4.64112L14 10.2344L10.5572 14.5137Z" fill="currentColor"/>
</svg>
