<svg viewBox="0 0 16 17" fill="none" xmlns="http://www.w3.org/2000/svg">
<rect width="16" height="16" transform="translate(0 0.513672)" fill="white" fill-opacity="0.01" style="mix-blend-mode:multiply"/>
<path d="M8.00023 12.5141C7.91868 12.5141 7.83713 12.4942 7.76318 12.4543L1.26318 8.95434L1.73728 8.07399L8.00023 11.4463L14.2632 8.07399L14.7373 8.95434L8.23728 12.4543C8.16333 12.4942 8.08178 12.5141 8.00023 12.5141Z" fill="currentColor"/>
<path d="M8.00023 15.5141C7.91868 15.5141 7.83713 15.4942 7.76318 15.4543L1.26318 11.9543L1.73728 11.074L8.00023 14.4463L14.2632 11.074L14.7373 11.9543L8.23728 15.4543C8.16333 15.4942 8.08178 15.5141 8.00023 15.5141Z" fill="currentColor"/>
<path d="M14.7373 5.07394L8.00024 1.44629V2.58204L13.4455 5.51419L8.00024 8.44634V9.58209L14.7373 5.95439C14.8993 5.86724 15.0002 5.69829 15.0002 5.51419C15.0002 5.33009 14.8993 5.16109 14.7373 5.07394Z" fill="currentColor"/>
<path d="M2.20729 5.22119L4.00024 3.42819V7.51414H5.00024V3.42819L6.79319 5.22114L7.50024 4.51414L4.50024 1.51414L1.50024 4.51414L2.20729 5.22119Z" fill="currentColor"/>
</svg>
