<svg viewBox="0 0 16 17" fill="none" xmlns="http://www.w3.org/2000/svg">
<rect width="16" height="16" transform="translate(0 0.513672)" fill="white" fill-opacity="0.01" style="mix-blend-mode:multiply"/>
<path d="M12.5 8.51367H8.50002V6.51367H7.50002V8.51367H3.50002C3.23489 8.51398 2.98072 8.61943 2.79325 8.8069C2.60577 8.99437 2.50032 9.24855 2.50002 9.51367V11.5137H3.50002V9.51367H7.50002V11.5137H8.50002V9.51367H12.5V11.5137H13.5V9.51367C13.4997 9.24855 13.3943 8.99437 13.2068 8.8069C13.0193 8.61943 12.7651 8.51398 12.5 8.51367Z" fill="currentColor"/>
<path d="M10 5.51367V1.51367H6.00002V5.51367H10ZM7.00002 4.51367V2.51367H9.00002V4.51367H7.00002Z" fill="currentColor"/>
<path d="M13 12.5137C12.6908 12.5146 12.3895 12.6112 12.1374 12.7903C11.8853 12.9693 11.6949 13.222 11.5922 13.5137H9.40787C9.30598 13.2215 9.11572 12.9683 8.86346 12.7891C8.6112 12.6099 8.30944 12.5136 8.00002 12.5136C7.69059 12.5136 7.38883 12.6099 7.13657 12.7891C6.88431 12.9683 6.69405 13.2215 6.59217 13.5137H4.40787C4.28992 13.1801 4.05783 12.8989 3.75263 12.7199C3.44742 12.5408 3.08875 12.4754 2.74 12.5353C2.39125 12.5951 2.07488 12.7763 1.84681 13.0468C1.61874 13.3174 1.49365 13.6598 1.49365 14.0137C1.49365 14.3675 1.61874 14.71 1.84681 14.9805C2.07488 15.251 2.39125 15.4322 2.74 15.4921C3.08875 15.5519 3.44742 15.4865 3.75263 15.3075C4.05783 15.1284 4.28992 14.8473 4.40787 14.5137H6.59217C6.69405 14.8058 6.88431 15.0591 7.13657 15.2383C7.38883 15.4174 7.69059 15.5137 8.00002 15.5137C8.30944 15.5137 8.6112 15.4174 8.86346 15.2383C9.11572 15.0591 9.30598 14.8058 9.40787 14.5137H11.5922C11.6843 14.7722 11.8457 15.0004 12.0588 15.1735C12.2719 15.3465 12.5284 15.4576 12.8003 15.4946C13.0723 15.5317 13.3492 15.4933 13.6008 15.3837C13.8524 15.274 14.0691 15.0974 14.227 14.8729C14.385 14.6485 14.4783 14.3849 14.4966 14.1111C14.515 13.8372 14.4577 13.5636 14.331 13.3201C14.2044 13.0766 14.0133 12.8726 13.7785 12.7304C13.5438 12.5882 13.2745 12.5132 13 12.5137ZM3.00002 14.5137C2.90113 14.5137 2.80446 14.4843 2.72223 14.4294C2.64001 14.3745 2.57592 14.2964 2.53808 14.205C2.50023 14.1137 2.49033 14.0131 2.50962 13.9161C2.52892 13.8191 2.57654 13.73 2.64646 13.6601C2.71639 13.5902 2.80548 13.5426 2.90247 13.5233C2.99946 13.504 3.09999 13.5139 3.19136 13.5517C3.28272 13.5896 3.36081 13.6537 3.41575 13.7359C3.47069 13.8181 3.50002 13.9148 3.50002 14.0137C3.4999 14.1462 3.44718 14.2734 3.35344 14.3671C3.2597 14.4608 3.13259 14.5136 3.00002 14.5137ZM8.00002 14.5137C7.90112 14.5137 7.80445 14.4843 7.72223 14.4294C7.64001 14.3745 7.57592 14.2964 7.53808 14.205C7.50023 14.1137 7.49033 14.0131 7.50962 13.9161C7.52892 13.8191 7.57654 13.73 7.64646 13.6601C7.71639 13.5902 7.80548 13.5426 7.90247 13.5233C7.99946 13.504 8.09999 13.5139 8.19136 13.5517C8.28272 13.5896 8.36081 13.6537 8.41575 13.7359C8.47069 13.8181 8.50002 13.9148 8.50002 14.0137C8.4999 14.1462 8.44718 14.2734 8.35344 14.3671C8.2597 14.4608 8.13259 14.5136 8.00002 14.5137ZM13 14.5137C12.9011 14.5137 12.8045 14.4843 12.7222 14.4294C12.64 14.3745 12.5759 14.2964 12.5381 14.205C12.5002 14.1137 12.4903 14.0131 12.5096 13.9161C12.5289 13.8191 12.5765 13.73 12.6465 13.6601C12.7164 13.5902 12.8055 13.5426 12.9025 13.5233C12.9995 13.504 13.1 13.5139 13.1914 13.5517C13.2827 13.5896 13.3608 13.6537 13.4158 13.7359C13.4707 13.8181 13.5 13.9148 13.5 14.0137C13.4999 14.1462 13.4472 14.2734 13.3534 14.3671C13.2597 14.4608 13.1326 14.5136 13 14.5137Z" fill="currentColor"/>
</svg>
