<svg viewBox="0 0 16 17" fill="none" xmlns="http://www.w3.org/2000/svg">
<rect width="16" height="16" transform="translate(0 0.513672)" fill="white" fill-opacity="0.01" style="mix-blend-mode:multiply"/>
<path d="M4 13.5137H2V15.5137H4V13.5137Z" fill="currentColor"/>
<path d="M9 13.5137H7V15.5137H9V13.5137Z" fill="currentColor"/>
<path d="M14 13.5137H12V15.5137H14V13.5137Z" fill="currentColor"/>
<path d="M12.5 8.51367H8.5V6.51367H7.5V8.51367H3.5C3.23488 8.51398 2.9807 8.61943 2.79323 8.8069C2.60576 8.99437 2.5003 9.24855 2.5 9.51367V12.5137H3.5V9.51367H7.5V12.5137H8.5V9.51367H12.5V12.5137H13.5V9.51367C13.4997 9.24855 13.3942 8.99437 13.2068 8.8069C13.0193 8.61943 12.7651 8.51398 12.5 8.51367Z" fill="currentColor"/>
<path d="M8 5.51367C7.60444 5.51367 7.21776 5.39637 6.88886 5.17661C6.55996 4.95685 6.30362 4.64449 6.15224 4.27904C6.00087 3.91359 5.96126 3.51145 6.03843 3.12349C6.1156 2.73553 6.30608 2.37916 6.58579 2.09946C6.86549 1.81975 7.22186 1.62927 7.60982 1.5521C7.99778 1.47493 8.39991 1.51454 8.76537 1.66591C9.13082 1.81729 9.44318 2.07363 9.66294 2.40253C9.8827 2.73143 10 3.11811 10 3.51367C9.9994 4.04392 9.7885 4.55228 9.41356 4.92723C9.03861 5.30217 8.53025 5.51308 8 5.51367ZM8 2.51367C7.80222 2.51367 7.60888 2.57232 7.44443 2.6822C7.27998 2.79208 7.15181 2.94826 7.07612 3.13099C7.00043 3.31372 6.98063 3.51478 7.01921 3.70876C7.0578 3.90274 7.15304 4.08093 7.29289 4.22078C7.43275 4.36063 7.61093 4.45587 7.80491 4.49446C7.99889 4.53304 8.19996 4.51324 8.38268 4.43755C8.56541 4.36186 8.72159 4.23369 8.83147 4.06924C8.94135 3.90479 9 3.71145 9 3.51367C8.99972 3.24854 8.89428 2.99435 8.7068 2.80687C8.51932 2.6194 8.26513 2.51395 8 2.51367Z" fill="currentColor"/>
</svg>
