<svg viewBox="0 0 16 17" fill="none" xmlns="http://www.w3.org/2000/svg">
<rect width="16" height="16" transform="translate(0 0.513672)" fill="white" fill-opacity="0.01" style="mix-blend-mode:multiply"/>
<path d="M8.00001 1.51367C6.54186 1.51544 5.14394 2.09548 4.11288 3.12654C3.08181 4.15761 2.50178 5.55553 2.50001 7.01367C2.49828 8.2053 2.88758 9.36459 3.60816 10.3137C3.60816 10.3137 3.75816 10.5109 3.78226 10.5395L8.00001 15.5137L12.2195 10.5374C12.2417 10.5107 12.3919 10.3135 12.3919 10.3135L12.3926 10.3123C13.1128 9.36355 13.5018 8.20476 13.5 7.01367C13.4982 5.55553 12.9182 4.15761 11.8871 3.12654C10.8561 2.09548 9.45815 1.51544 8.00001 1.51367V1.51367ZM8.50001 9.51367H7.50001V8.51367H8.50001V9.51367ZM8.50001 7.51367H7.50001V6.51367H8.50001V7.51367ZM10.5 9.51367H9.50001V5.51367H6.50001V9.51367H5.50001V5.51367C5.50031 5.24855 5.60576 4.99437 5.79324 4.8069C5.98071 4.61943 6.23488 4.51398 6.50001 4.51367H9.50001C9.76513 4.51398 10.0193 4.61943 10.2068 4.8069C10.3942 4.99437 10.4997 5.24855 10.5 5.51367V9.51367Z" fill="currentColor"/>
</svg>
