<svg viewBox="0 0 16 17" fill="none" xmlns="http://www.w3.org/2000/svg">
<rect width="16" height="16" transform="translate(0 0.513672)" fill="white" fill-opacity="0.01" style="mix-blend-mode:multiply"/>
<path d="M8.00001 1.51367C6.54186 1.51544 5.14394 2.09548 4.11288 3.12654C3.08181 4.15761 2.50178 5.55553 2.50001 7.01367C2.49828 8.2053 2.88758 9.36459 3.60816 10.3137C3.60816 10.3137 3.75816 10.5109 3.78226 10.5395L8.00001 15.5137L12.2195 10.5374C12.2417 10.5107 12.3919 10.3135 12.3919 10.3135L12.3926 10.3123C13.1128 9.36355 13.5018 8.20476 13.5 7.01367C13.4982 5.55553 12.9182 4.15761 11.8871 3.12654C10.8561 2.09548 9.45815 1.51544 8.00001 1.51367V1.51367ZM10.1055 7.36472L8.00101 9.51367L5.89456 7.36472C5.64147 7.10361 5.49995 6.75425 5.49995 6.39062C5.49995 6.02699 5.64147 5.67763 5.89456 5.41652C6.01858 5.28904 6.1669 5.1877 6.33076 5.11851C6.49461 5.04932 6.67067 5.01367 6.84853 5.01367C7.02639 5.01367 7.20245 5.04932 7.3663 5.11851C7.53016 5.1877 7.67848 5.28904 7.80251 5.41652L8.00101 5.61937L8.19751 5.41652C8.32153 5.28904 8.46985 5.1877 8.63371 5.11851C8.79756 5.04932 8.97362 5.01367 9.15148 5.01367C9.32934 5.01367 9.5054 5.04932 9.66926 5.11851C9.83311 5.1877 9.98143 5.28904 10.1055 5.41652C10.3585 5.67763 10.5001 6.02699 10.5001 6.39062C10.5001 6.75425 10.3585 7.10361 10.1055 7.36472Z" fill="currentColor"/>
</svg>
