<svg viewBox="0 0 16 17" fill="none" xmlns="http://www.w3.org/2000/svg">
<rect width="16" height="16" transform="translate(0 0.513672)" fill="white" fill-opacity="0.01" style="mix-blend-mode:multiply"/>
<path d="M10 10.0137H9.00001V9.01367H7.00001V10.0137H6.00001V9.01367C6.00028 8.74854 6.10573 8.49435 6.29321 8.30687C6.48068 8.1194 6.73487 8.01395 7.00001 8.01367H9.00001C9.26514 8.01395 9.51933 8.1194 9.7068 8.30687C9.89428 8.49435 9.99973 8.74854 10 9.01367V10.0137Z" fill="currentColor"/>
<path d="M8.00001 7.51367C7.70333 7.51367 7.41332 7.4257 7.16665 7.26088C6.91998 7.09605 6.72772 6.86179 6.61419 6.5877C6.50065 6.31361 6.47095 6.01201 6.52883 5.72104C6.58671 5.43006 6.72957 5.16279 6.93934 4.95301C7.14912 4.74323 7.4164 4.60037 7.70737 4.54249C7.99834 4.48462 8.29994 4.51432 8.57403 4.62785C8.84812 4.74138 9.08239 4.93364 9.24721 5.18032C9.41203 5.42699 9.50001 5.717 9.50001 6.01367C9.49957 6.41136 9.34139 6.79264 9.06018 7.07385C8.77897 7.35506 8.3977 7.51324 8.00001 7.51367ZM8.00001 5.51367C7.90111 5.51367 7.80444 5.543 7.72222 5.59794C7.64 5.65288 7.57591 5.73097 7.53807 5.82233C7.50022 5.91369 7.49032 6.01423 7.50961 6.11122C7.52891 6.20821 7.57653 6.2973 7.64645 6.36723C7.71638 6.43715 7.80547 6.48477 7.90246 6.50406C7.99945 6.52336 8.09998 6.51346 8.19135 6.47561C8.28271 6.43777 8.3608 6.37368 8.41574 6.29146C8.47068 6.20923 8.50001 6.11256 8.50001 6.01367C8.49986 5.88111 8.44713 5.75402 8.3534 5.66028C8.25966 5.56654 8.13257 5.51382 8.00001 5.51367Z" fill="currentColor"/>
<path d="M8.00001 15.5137L3.78226 10.5393C3.75831 10.5108 3.60816 10.3136 3.60816 10.3136C2.88761 9.36451 2.49832 8.20527 2.50001 7.01367C2.50001 5.55498 3.07947 4.15603 4.11092 3.12458C5.14237 2.09313 6.54131 1.51367 8.00001 1.51367C9.4587 1.51367 10.8576 2.09313 11.8891 3.12458C12.9205 4.15603 13.5 5.55498 13.5 7.01367C13.5018 8.20478 13.1128 9.36358 12.3926 10.3123L12.3919 10.3136C12.3919 10.3136 12.2419 10.5108 12.2195 10.5373L8.00001 15.5137ZM4.40626 9.71117C4.40626 9.71117 4.52296 9.86527 4.54956 9.89837L8.00001 13.9676L11.455 9.89262C11.477 9.86502 11.5944 9.70977 11.5944 9.70977C12.183 8.93431 12.5012 7.98723 12.5 7.01367C12.5 5.8202 12.0259 4.6756 11.182 3.83169C10.3381 2.98778 9.19348 2.51367 8.00001 2.51367C6.80653 2.51367 5.66194 2.98778 4.81802 3.83169C3.97411 4.6756 3.50001 5.8202 3.50001 7.01367C3.4989 7.98776 3.81725 8.93534 4.40626 9.71117Z" fill="currentColor"/>
</svg>
