<svg viewBox="0 0 16 17" fill="none" xmlns="http://www.w3.org/2000/svg">
<rect width="16" height="16" transform="translate(0 0.513672)" fill="white" fill-opacity="0.01" style="mix-blend-mode:multiply"/>
<path d="M8.49995 9.51373V6.01373H6.49995V7.01373H7.49995V9.51373H5.99995V10.5137H9.99995V9.51373H8.49995Z" fill="currentColor"/>
<path d="M7.74995 3.51373C7.33575 3.51373 6.99995 3.84953 6.99995 4.26373C6.99995 4.67793 7.33575 5.01373 7.74995 5.01373C8.16415 5.01373 8.49995 4.67793 8.49995 4.26373C8.49995 3.84953 8.16415 3.51373 7.74995 3.51373Z" fill="currentColor"/>
<path d="M7.99995 15.5137L3.7822 10.5394C3.75825 10.5108 3.60815 10.3136 3.60815 10.3136C2.8828 9.35017 2.5 8.21032 2.5 7.01367C2.5 3.98162 4.9673 1.51367 8 1.51367C11.0327 1.51367 13.5 3.98162 13.5 7.01367C13.5 8.21032 13.1172 9.35017 12.3926 10.3123L12.3918 10.3135C12.3918 10.3135 12.2417 10.5107 12.2195 10.5372L7.99995 15.5137ZM4.4062 9.71122C4.4062 9.71122 4.5229 9.86537 4.5495 9.89842L7.99995 13.9677L11.455 9.89277C11.477 9.86517 11.5944 9.70997 11.5944 9.70997C12.187 8.92267 12.5 7.99117 12.5 7.01372C12.5 4.53297 10.4811 2.51372 7.99995 2.51372C5.51875 2.51372 3.49995 4.53297 3.49995 7.01372C3.49995 7.99167 3.81345 8.92367 4.4062 9.71122Z" fill="currentColor"/>
</svg>
