<svg viewBox="0 0 16 17" fill="none" xmlns="http://www.w3.org/2000/svg">
<rect width="16" height="16" transform="translate(0 0.513672)" fill="white" fill-opacity="0.01" style="mix-blend-mode:multiply"/>
<path d="M4.5 4.51367C4.77614 4.51367 5 4.28981 5 4.01367C5 3.73753 4.77614 3.51367 4.5 3.51367C4.22386 3.51367 4 3.73753 4 4.01367C4 4.28981 4.22386 4.51367 4.5 4.51367Z" fill="currentColor"/>
<path d="M13.5 11.5137V9.51367C13.5 8.96137 13.0523 8.51367 12.5 8.51367H8.5V6.51367H13C13.5523 6.51367 14 6.06597 14 5.51367V2.51367C14 1.96137 13.5523 1.51367 13 1.51367H3C2.4477 1.51367 2 1.96137 2 2.51367V5.51367C2 6.06597 2.4477 6.51367 3 6.51367H7.5V8.51367H3.5C2.9477 8.51367 2.5 8.96137 2.5 9.51367V11.5137H2C1.4477 11.5137 1 11.9614 1 12.5137V14.5137C1 15.066 1.4477 15.5137 2 15.5137H4C4.5523 15.5137 5 15.066 5 14.5137V12.5137C5 11.9614 4.5523 11.5137 4 11.5137H3.5V9.51367H7.5V11.5137H7C6.4477 11.5137 6 11.9614 6 12.5137V14.5137C6 15.066 6.4477 15.5137 7 15.5137H9C9.5523 15.5137 10 15.066 10 14.5137V12.5137C10 11.9614 9.5523 11.5137 9 11.5137H8.5V9.51367H12.5V11.5137H12C11.4477 11.5137 11 11.9614 11 12.5137V14.5137C11 15.066 11.4477 15.5137 12 15.5137H14C14.5523 15.5137 15 15.066 15 14.5137V12.5137C15 11.9614 14.5523 11.5137 14 11.5137H13.5ZM4 14.5137H2V12.5137H4V14.5137ZM9 12.5137V14.5137H7V12.5137H9ZM3 5.51367V2.51367H13V5.51367H3ZM14 14.5137H12V12.5137H14V14.5137Z" fill="currentColor"/>
</svg>
