<svg viewBox="0 0 16 16" fill="none" xmlns="http://www.w3.org/2000/svg">
<rect width="16" height="16" fill="white" fill-opacity="0.01" style="mix-blend-mode:multiply"/>
<path d="M11.8001 5.8C12.3001 5.5 12.6501 5.05 12.8501 4.5C13.0501 3.95 13.0501 3.4 12.9001 2.85C12.7501 2.3 12.4001 1.85 11.9501 1.5C11.5001 1.15 10.9001 1 10.3501 1H5.75009C5.15009 1 4.60009 1.2 4.15009 1.5C3.60009 1.85 3.30009 2.35 3.10009 2.85C2.95009 3.4 2.95009 4 3.15009 4.5C3.35009 5.05 3.70009 5.5 4.20009 5.8C3.85009 6.05 3.50009 6.35 3.30009 6.75C3.10009 7.15 3.00009 7.55 3.00009 8C3.00009 8.45 3.10009 8.85 3.30009 9.25C3.50009 9.65 3.80009 9.95 4.20009 10.2C3.70009 10.5 3.35009 10.95 3.15009 11.5C2.95009 12.05 2.95009 12.6 3.10009 13.15C3.25009 13.7 3.60009 14.15 4.10009 14.5C4.55009 14.85 5.15009 15 5.70009 15C6.40009 15 7.10009 14.7 7.65009 14.25C8.15009 13.75 8.45009 13.1 8.45009 12.4V10C8.95009 10.45 9.60009 10.7 10.2501 10.7H10.3001C10.9001 10.7 11.4501 10.5 11.9001 10.2C12.3501 9.85 12.7001 9.4 12.8501 8.85C13.0001 8.3 13.0001 7.75 12.8001 7.2C12.6501 6.55 12.2501 6.1 11.8001 5.8ZM8.45009 1.85H10.3001C10.5501 1.85 10.8001 1.85 11.0001 1.95C11.2501 2.05 11.4501 2.15 11.6001 2.35C11.8001 2.5 11.9001 2.7 12.0001 2.95C12.1001 3.2 12.1501 3.4 12.1501 3.65C12.1501 3.9 12.1001 4.15 12.0001 4.35C11.9001 4.55 11.7501 4.75 11.6001 4.95C11.4001 5.1 11.2001 5.25 11.0001 5.35C10.7501 5.45 10.5001 5.45 10.3001 5.45H8.45009V1.85ZM5.70009 1.85H7.55009V5.35H5.70009C5.25009 5.35 4.80009 5.15 4.50009 4.8C4.15009 4.5 4.00009 4.05 4.00009 3.6C4.00009 3.15 4.20009 2.7 4.50009 2.4C4.80009 2.1 5.25009 1.9 5.70009 1.85ZM3.90009 8C3.90009 7.55 4.10009 7.1 4.45009 6.75C4.80009 6.4 5.25009 6.25 5.75009 6.25H7.60009V9.75H5.75009C5.25009 9.75 4.80009 9.55 4.45009 9.25C4.10009 8.9 3.90009 8.45 3.90009 8ZM7.55009 12.35C7.55009 12.85 7.35009 13.3 7.00009 13.6C6.65009 13.95 6.20009 14.1 5.70009 14.1C5.45009 14.1 5.20009 14.1 5.00009 14C4.75009 13.9 4.55009 13.8 4.40009 13.65C4.20009 13.5 4.10009 13.3 4.00009 13.05C3.90009 12.85 3.85009 12.6 3.85009 12.35C3.85009 12.1 3.90009 11.85 4.00009 11.65C4.10009 11.45 4.25009 11.25 4.40009 11.05C4.60009 10.9 4.80009 10.75 5.00009 10.65C5.25009 10.55 5.50009 10.55 5.70009 10.55H7.55009V12.35ZM10.3001 9.75H10.2501C9.80009 9.75 9.35009 9.55 9.05009 9.2C8.75009 8.85 8.55009 8.45 8.55009 8C8.55009 7.55 8.75009 7.1 9.05009 6.8C9.35009 6.45 9.80009 6.3 10.2501 6.25H10.3001C10.5501 6.25 10.8001 6.25 11.0001 6.35C11.2501 6.45 11.4501 6.55 11.6001 6.75C11.8001 6.9 11.9001 7.1 12.0001 7.35C12.1001 7.55 12.1501 7.8 12.1501 8.05C12.1501 8.3 12.1001 8.55 12.0001 8.75C11.9001 8.95 11.7501 9.15 11.6001 9.35C11.4001 9.5 11.2001 9.65 11.0001 9.75C10.8001 9.75 10.5501 9.75 10.3001 9.75Z" fill="currentColor"/>
</svg>
