<svg viewBox="0 0 16 16" fill="none" xmlns="http://www.w3.org/2000/svg">
<g clip-path="url(#clip0_1961_7557)">
<rect width="16" height="16" fill="white" fill-opacity="0.01" style="mix-blend-mode:multiply"/>
<path d="M11.2066 9.55497L10.2489 6.78722C10.2288 6.72202 10.1987 6.61172 10.1987 6.51647C10.1987 6.26077 10.4043 6.01007 10.7352 6.01007C11.011 6.01007 11.1965 6.18557 11.2767 6.44127L11.8784 8.43187L12.4952 6.44632C12.5754 6.18057 12.781 6.00007 13.0668 6.00007H13.132C13.4178 6.00007 13.6234 6.18557 13.7036 6.44632L14.3253 8.43692L14.9421 6.43127C15.0173 6.19562 15.1828 6.00507 15.4786 6.00507C15.7844 6.00507 16 6.24072 16 6.51652C16 6.59172 15.98 6.69202 15.9649 6.74217L14.9621 9.55507C14.8468 9.90102 14.6162 10.0515 14.3454 10.0515H14.3103C14.0395 10.0515 13.8139 9.89602 13.7086 9.57512L13.0868 7.59957L12.4551 9.57512C12.3548 9.89602 12.1241 10.0515 11.8534 10.0515H11.8183C11.5525 10.0515 11.3219 9.89592 11.2066 9.55497Z" fill="currentColor"/>
<path d="M1.04695 6.32252C0.923503 6.04592 0.612353 5.92247 0.320953 6.05087C0.0295531 6.17927 -0.0741469 6.50032 0.0542531 6.77687L1.2692 9.41917C1.4618 9.83402 1.6643 10.0514 2.03965 10.0514C2.44465 10.0514 2.62245 9.81432 2.8101 9.41917C2.8101 9.41917 3.87195 7.10777 3.88185 7.08307C3.89175 7.05837 3.9263 6.98427 4.03495 6.98427C4.1288 6.98427 4.20285 7.05837 4.20285 7.15712V9.41912C4.20285 9.76482 4.39545 10.0513 4.7659 10.0513C5.13635 10.0513 5.3388 9.76487 5.3388 9.41912V7.57197C5.3388 7.21637 5.5956 6.98422 5.94135 6.98422C6.2871 6.98422 6.5192 7.22127 6.5192 7.57197V9.41912C6.5192 9.76482 6.7118 10.0513 7.08225 10.0513C7.4527 10.0513 7.65515 9.76487 7.65515 9.41912V7.57197C7.65515 7.21637 7.91195 6.98422 8.2577 6.98422C8.60345 6.98422 8.83555 7.22127 8.83555 7.57197V9.41912C8.83555 9.76482 9.02815 10.0513 9.3986 10.0513C9.76905 10.0513 9.9715 9.76487 9.9715 9.41912V7.31517C9.9715 6.53977 9.3492 6.00142 8.60345 6.00142C7.8577 6.00142 7.3885 6.52002 7.3885 6.52002C7.14155 6.19897 6.79585 6.00142 6.218 6.00142C5.6056 6.00142 5.06725 6.52002 5.06725 6.52002C4.81535 6.19897 4.39555 6.00142 4.0449 6.00142C3.5016 6.00142 3.07195 6.23847 2.8102 6.84102L2.0348 8.67337L1.04695 6.32252Z" fill="currentColor"/>
</g>
<defs>
<clipPath id="clip0_1961_7557">
<rect width="16" height="16" fill="white"/>
</clipPath>
</defs>
</svg>
