<svg viewBox="0 0 16 17" fill="none" xmlns="http://www.w3.org/2000/svg">
<rect width="16" height="16" transform="translate(0 0.513672)" fill="white" fill-opacity="0.01" style="mix-blend-mode:multiply"/>
<path d="M3.24 4.31348V6.27348H1V11.0135H4.64V4.31348H3.24ZM3.24 9.91348H2.4V7.41348H3.24V9.91348Z" fill="currentColor"/>
<path d="M6.6 6.27348H5.2V11.0335H6.6V6.27348Z" fill="currentColor"/>
<path d="M6.6 4.31348H5.2V5.71348H6.6V4.31348Z" fill="currentColor"/>
<path d="M7.16 6.27348V11.0135H9.4V11.5735H7.16V12.7135H10.8V6.27348H7.16ZM9.4 9.91348H8.56V7.41348H9.4V9.91348Z" fill="currentColor"/>
<path d="M11.36 6.27348V11.0135H13.6V11.5735H11.36V12.7135H15V6.27348H11.36ZM13.6 9.91348H12.76V7.41348H13.6V9.91348Z" fill="currentColor"/>
</svg>
