<svg viewBox="0 0 16 17" fill="none" xmlns="http://www.w3.org/2000/svg">
<rect width="16" height="16" transform="translate(0 0.513672)" fill="white" fill-opacity="0.01" style="mix-blend-mode:multiply"/>
<path d="M13.335 2.51367H2.665C2.48904 2.51498 2.32065 2.58546 2.19622 2.70989C2.07179 2.83432 2.00131 3.00271 2 3.17867V13.8487C2.00131 14.0246 2.07179 14.193 2.19622 14.3175C2.32065 14.4419 2.48904 14.5124 2.665 14.5137H8.41V9.87367H6.85V8.05867H8.41V6.72367C8.41 5.17367 9.355 4.32867 10.745 4.32867C11.21 4.32867 11.675 4.32867 12.14 4.39867V6.01367H11.185C10.43 6.01367 10.285 6.37367 10.285 6.89867V8.05367H12.085L11.85 9.86867H10.285V14.5137H13.335C13.511 14.5124 13.6794 14.4419 13.8038 14.3175C13.9282 14.193 13.9987 14.0246 14 13.8487V3.17867C13.9987 3.00271 13.9282 2.83432 13.8038 2.70989C13.6794 2.58546 13.511 2.51498 13.335 2.51367V2.51367Z" fill="currentColor"/>
</svg>
