<svg viewBox="0 0 16 17" fill="none" xmlns="http://www.w3.org/2000/svg">
<rect width="16" height="16" transform="translate(0 0.513672)" fill="white" fill-opacity="0.01" style="mix-blend-mode:multiply"/>
<path d="M14.7049 5.14328C14.6252 4.8473 14.4692 4.57744 14.2525 4.3607C14.0357 4.14396 13.7659 3.98795 13.4699 3.90828C12.3799 3.61328 7.99989 3.61328 7.99989 3.61328C7.99989 3.61328 3.61989 3.61328 2.52989 3.90828C2.23391 3.98795 1.96404 4.14396 1.74731 4.3607C1.53057 4.57744 1.37456 4.8473 1.29489 5.14328C1.09136 6.25491 0.992594 7.38319 0.999888 8.51328C0.992594 9.64337 1.09136 10.7716 1.29489 11.8833C1.37456 12.1793 1.53057 12.4491 1.74731 12.6659C1.96404 12.8826 2.23391 13.0386 2.52989 13.1183C3.61989 13.4133 7.99989 13.4133 7.99989 13.4133C7.99989 13.4133 12.3799 13.4133 13.4699 13.1183C13.7659 13.0386 14.0357 12.8826 14.2525 12.6659C14.4692 12.4491 14.6252 12.1793 14.7049 11.8833C14.9084 10.7716 15.0072 9.64337 14.9999 8.51328C15.0072 7.38319 14.9084 6.25491 14.7049 5.14328V5.14328ZM6.59989 10.6133V6.41328L10.2349 8.51328L6.59989 10.6133Z" fill="currentColor"/>
</svg>
