<svg viewBox="0 0 16 17" fill="none" xmlns="http://www.w3.org/2000/svg">
<rect width="16" height="16" transform="translate(0 0.513672)" fill="white" fill-opacity="0.01" style="mix-blend-mode:multiply"/>
<path d="M14.5288 6.11012C14.5288 3.07302 12.539 2.18287 12.539 2.18287C11.5357 1.72217 9.81288 1.52832 8.02308 1.51367H7.97913C6.18923 1.52832 4.46763 1.72217 3.46433 2.18287C3.46433 2.18287 1.47433 3.07302 1.47433 6.11012C1.47433 6.80567 1.46078 7.63697 1.48288 8.51882C1.55513 11.489 2.02733 14.4161 4.77343 15.1429C6.03953 15.4781 7.12658 15.5481 8.00208 15.5001C9.58983 15.4122 10.4811 14.9334 10.4811 14.9334L10.4287 13.7816C10.4287 13.7816 9.29423 14.1392 8.01993 14.0958C6.75748 14.0523 5.42483 13.9595 5.22063 12.4095C5.20173 12.2735 5.19233 12.128 5.19233 11.9749C5.19233 11.9749 6.43158 12.2779 8.00213 12.3499C8.96248 12.3939 9.86308 12.2935 10.7779 12.1844C12.532 11.9749 14.0594 10.8941 14.2513 9.90652C14.5538 8.35087 14.5288 6.11012 14.5288 6.11012ZM12.1817 10.023H10.7248V6.45387C10.7248 5.70142 10.4082 5.31957 9.77493 5.31957C9.07483 5.31957 8.72403 5.77247 8.72403 6.66822V8.62207H7.27568V6.66822C7.27568 5.77247 6.92473 5.31957 6.22463 5.31957C5.59133 5.31957 5.27478 5.70142 5.27478 6.45387V10.023H3.81788V6.34572C3.81788 5.59427 4.00928 4.99682 4.39368 4.55517C4.79003 4.11327 5.30908 3.88672 5.95348 3.88672C6.69898 3.88672 7.26368 4.17332 7.63698 4.74632L7.99978 5.35472L8.36283 4.74632C8.73598 4.17332 9.30058 3.88672 10.0462 3.88672C10.6905 3.88672 11.2095 4.11327 11.606 4.55517C11.9903 4.99682 12.1817 5.59422 12.1817 6.34572V10.023Z" fill="currentColor"/>
</svg>
