<svg viewBox="0 0 16 17" fill="none" xmlns="http://www.w3.org/2000/svg">
<rect width="16" height="16" transform="translate(0 0.513672)" fill="white" fill-opacity="0.01" style="mix-blend-mode:multiply"/>
<path d="M13.9887 5.32803C13.988 5.1119 13.9681 4.89626 13.9294 4.68363C13.8862 4.42368 13.8041 4.17171 13.6858 3.93623C13.5563 3.68872 13.3877 3.46375 13.1864 3.27003C12.8824 2.97269 12.5069 2.7586 12.0962 2.64838C11.7189 2.55699 11.3312 2.51567 10.9432 2.52548L10.941 2.51953H5.05715L5.0568 2.52548C4.83608 2.52372 4.61543 2.53359 4.39575 2.55503C4.15503 2.58072 3.91808 2.63409 3.6896 2.71408C3.31321 2.85581 2.97555 3.08429 2.70403 3.38099C2.43251 3.67769 2.23478 4.03423 2.1269 4.42168C2.03613 4.79558 1.99479 5.17978 2.00395 5.56443L2 11.4673C2.00379 11.7346 2.02195 12.0016 2.0544 12.2669C2.09447 12.547 2.1773 12.8194 2.3 13.0743C2.47313 13.4147 2.71954 13.7125 3.0215 13.9463C3.23733 14.1182 3.48177 14.2505 3.7436 14.3374C4.12798 14.4561 4.52837 14.5149 4.93065 14.5116C5.18235 14.5132 5.4341 14.5195 5.68595 14.5185C7.51545 14.5108 9.34485 14.5317 11.1743 14.5072C11.416 14.5019 11.6569 14.4764 11.8943 14.4308C12.3431 14.3519 12.7608 14.1489 13.1 13.8447C13.4995 13.4979 13.7784 13.0331 13.8966 12.5174C13.9693 12.1723 14.0041 11.8202 14.0002 11.4674V11.3971C14 11.3697 13.9896 5.40683 13.9887 5.32803ZM12.3818 10.8804C12.305 11.0604 11.9168 11.2092 11.2601 11.3107C11.1985 11.3202 11.1725 11.4198 11.1369 11.5829C11.1223 11.6503 11.1074 11.7164 11.087 11.7858C11.0809 11.815 11.0643 11.8411 11.0403 11.859C11.0164 11.8769 10.9867 11.8854 10.957 11.8829H10.9467C10.8838 11.8807 10.8213 11.8728 10.7598 11.8593C10.5978 11.8254 10.4327 11.8079 10.2672 11.8071C10.1481 11.8074 10.0293 11.8175 9.9119 11.8371C9.66418 11.8999 9.43377 12.0176 9.23775 12.1815C8.90626 12.4645 8.48976 12.6286 8.05435 12.6479C8.02935 12.6479 8.0057 12.647 7.9876 12.6462C7.97325 12.6474 7.9584 12.6479 7.94355 12.6479C7.50842 12.6288 7.09219 12.4647 6.761 12.1818C6.56472 12.0177 6.33403 11.8998 6.086 11.8368C5.96868 11.8172 5.84995 11.8071 5.731 11.8068C5.56533 11.8086 5.40027 11.8272 5.2384 11.8626C5.17701 11.8769 5.11449 11.8859 5.05155 11.8894C5.01985 11.893 4.98793 11.8847 4.962 11.8661C4.93607 11.8475 4.91796 11.82 4.9112 11.7888C4.8905 11.7184 4.87565 11.6503 4.8612 11.5847C4.8254 11.4207 4.79935 11.3206 4.73795 11.3111C4.0813 11.2098 3.6933 11.0605 3.616 10.8798C3.60815 10.8617 3.60355 10.8424 3.6024 10.8228C3.60093 10.7968 3.60913 10.7712 3.62541 10.7509C3.6417 10.7306 3.66491 10.717 3.6906 10.7128C4.23367 10.6144 4.72302 10.3234 5.0688 9.89323C5.25917 9.67303 5.41741 9.42699 5.5388 9.16243L5.5412 9.15743C5.57701 9.09884 5.59959 9.03313 5.60737 8.96491C5.61514 8.89668 5.60792 8.82758 5.5862 8.76243C5.50155 8.56288 5.2212 8.47398 5.03585 8.41513C4.9898 8.40058 4.94615 8.38678 4.91145 8.37293C4.74705 8.30793 4.4768 8.17088 4.5128 7.98153C4.54037 7.91022 4.58954 7.84931 4.65344 7.80733C4.71733 7.76535 4.79275 7.74438 4.86915 7.74738C4.90626 7.74653 4.9431 7.75387 4.97705 7.76888C5.11543 7.83981 5.2675 7.87997 5.42285 7.88663C5.51518 7.89322 5.60667 7.86526 5.67955 7.80818C5.67472 7.72055 5.66942 7.63295 5.66365 7.54538C5.57925 6.95348 5.61534 6.35063 5.76975 5.77303C5.95139 5.35849 6.25112 5.00664 6.63151 4.7614C7.0119 4.51617 7.4561 4.38841 7.90865 4.39408C7.96765 4.39358 8.02663 4.39303 8.0856 4.39243C8.53883 4.38664 8.98373 4.51446 9.36478 4.75993C9.74583 5.0054 10.0461 5.35765 10.2282 5.77273C10.3827 6.35086 10.4187 6.95423 10.3342 7.54663L10.3323 7.57533C10.3273 7.65678 10.3223 7.73383 10.3184 7.80858C10.3846 7.86096 10.4669 7.88853 10.5513 7.88648C10.6976 7.87547 10.8403 7.83571 10.9712 7.76948C11.0146 7.75069 11.0615 7.7414 11.1088 7.74223C11.1625 7.74203 11.2157 7.75222 11.2654 7.77223L11.268 7.77318C11.3243 7.78659 11.3754 7.81649 11.4146 7.85908C11.4539 7.90166 11.4796 7.95498 11.4884 8.01223C11.4901 8.10398 11.4219 8.24113 11.0864 8.37353C11.0521 8.38713 11.0082 8.40108 10.962 8.41573C10.7764 8.47463 10.4964 8.56353 10.4117 8.76293C10.3901 8.82802 10.3829 8.89706 10.3906 8.96523C10.3984 9.0334 10.421 9.09904 10.4567 9.15758L10.4592 9.16258C10.627 9.54593 10.8811 9.88531 11.2017 10.1542C11.5224 10.4231 11.9008 10.6143 12.3075 10.7128C12.3332 10.7171 12.3564 10.7306 12.3727 10.7509C12.389 10.7712 12.3972 10.7968 12.3957 10.8228C12.3944 10.8427 12.3897 10.8622 12.3818 10.8804V10.8804Z" fill="currentColor"/>
</svg>
