<svg viewBox="0 0 16 16" fill="none" xmlns="http://www.w3.org/2000/svg">
<g clip-path="url(#clip0_1961_7556)">
<rect width="16" height="16" fill="white" fill-opacity="0.01" style="mix-blend-mode:multiply"/>
<path d="M1.70007 5.50012C1.50007 5.05012 1.00007 4.85012 0.50007 5.10012C6.97374e-05 5.35012 -0.14993 5.80012 0.0500698 6.25012L2.05007 10.5001C2.35007 11.1501 2.70007 11.5001 3.30007 11.5001C3.95007 11.5001 4.25007 11.1001 4.55007 10.5001C4.55007 10.5001 6.25007 6.80012 6.25007 6.75012C6.25007 6.70012 6.30007 6.60012 6.50007 6.60012C6.65007 6.60012 6.75007 6.70012 6.75007 6.90012V10.5001C6.75007 11.0501 7.05007 11.5001 7.65007 11.5001C8.25007 11.5001 8.55007 11.0501 8.55007 10.5001V7.50012C8.55007 6.95012 8.95007 6.55012 9.50007 6.55012C10.0501 6.55012 10.4501 6.95012 10.4501 7.50012V10.5001C10.4501 11.0501 10.7501 11.5001 11.3501 11.5001C11.9501 11.5001 12.2501 11.0501 12.2501 10.5001V7.50012C12.2501 6.95012 12.6501 6.55012 13.2001 6.55012C13.7501 6.55012 14.1501 6.95012 14.1501 7.50012V10.5001C14.1501 11.0501 14.4501 11.5001 15.0501 11.5001C15.6501 11.5001 15.9501 11.0501 15.9501 10.5001V7.10012C15.9501 5.85012 14.9501 5.00012 13.7501 5.00012C12.5501 5.00012 11.8001 5.85012 11.8001 5.85012C11.4001 5.35012 10.8501 5.00012 9.90007 5.00012C8.90007 5.00012 8.05007 5.85012 8.05007 5.85012C7.65007 5.35012 6.95007 5.00012 6.40007 5.00012C5.55007 5.00012 4.85007 5.40012 4.40007 6.35012L3.15007 9.30012L1.70007 5.50012Z" fill="currentColor"/>
</g>
<defs>
<clipPath id="clip0_1961_7556">
<rect width="16" height="16" fill="white"/>
</clipPath>
</defs>
</svg>
