<svg viewBox="0 0 16 17" fill="none" xmlns="http://www.w3.org/2000/svg">
<rect width="16" height="16" transform="translate(0 0.513672)" fill="white" fill-opacity="0.01" style="mix-blend-mode:multiply"/>
<path d="M4.52128 10.0968C4.52129 10.3462 4.44736 10.5899 4.30885 10.7972C4.17034 11.0045 3.97346 11.1661 3.74311 11.2615C3.51276 11.3569 3.2593 11.3819 3.01476 11.3333C2.77022 11.2846 2.5456 11.1646 2.3693 10.9883C2.193 10.812 2.07294 10.5874 2.0243 10.3428C1.97566 10.0983 2.00063 9.84481 2.09604 9.61446C2.19146 9.38412 2.35304 9.18724 2.56036 9.04873C2.76767 8.91021 3.0114 8.83629 3.26073 8.8363H4.52128V10.0968Z" fill="currentColor"/>
<path d="M5.15648 10.0968C5.15857 9.7639 5.29231 9.4453 5.52848 9.21061C5.76466 8.97591 6.0841 8.84419 6.41705 8.84419C6.75001 8.84419 7.06944 8.97591 7.30562 9.21061C7.5418 9.4453 7.67553 9.7639 7.67763 10.0968V13.2532C7.67867 13.4194 7.64684 13.5842 7.58396 13.738C7.52108 13.8919 7.42839 14.0318 7.31123 14.1497C7.19407 14.2676 7.05476 14.3612 6.9013 14.425C6.74784 14.4889 6.58326 14.5217 6.41705 14.5217C6.25084 14.5217 6.08627 14.4889 5.93281 14.425C5.77935 14.3612 5.64003 14.2676 5.52287 14.1497C5.40571 14.0318 5.31302 13.8919 5.25014 13.738C5.18726 13.5842 5.15543 13.4194 5.15648 13.2532V10.0968Z" fill="currentColor"/>
<path d="M6.41708 5.03495C6.16775 5.03496 5.92402 4.96103 5.71671 4.82252C5.50939 4.68401 5.34781 4.48713 5.25239 4.25678C5.15698 4.02644 5.13201 3.77297 5.18065 3.52843C5.22929 3.28389 5.34935 3.05927 5.52565 2.88297C5.70195 2.70667 5.92657 2.58661 6.17111 2.53797C6.41565 2.48933 6.66911 2.5143 6.89946 2.60972C7.12981 2.70513 7.32669 2.86672 7.4652 3.07403C7.60371 3.28134 7.67764 3.52507 7.67763 3.7744V5.03495H6.41708Z" fill="currentColor"/>
<path d="M6.41708 5.67015C6.75003 5.67225 7.06863 5.80598 7.30332 6.04216C7.53801 6.27833 7.66974 6.59777 7.66974 6.93072C7.66974 7.26368 7.53801 7.58312 7.30332 7.81929C7.06863 8.05547 6.75003 8.1892 6.41708 8.1913H3.26073C3.09452 8.19235 2.92974 8.16051 2.77588 8.09763C2.62202 8.03475 2.48212 7.94206 2.36422 7.8249C2.24632 7.70775 2.15275 7.56843 2.08891 7.41497C2.02506 7.26151 1.99219 7.09694 1.99219 6.93072C1.99219 6.76451 2.02506 6.59994 2.08891 6.44648C2.15275 6.29302 2.24632 6.1537 2.36422 6.03654C2.48212 5.91938 2.62202 5.8267 2.77588 5.76382C2.92974 5.70093 3.09452 5.6691 3.26073 5.67015H6.41708Z" fill="currentColor"/>
<path d="M11.479 6.93075C11.479 6.68142 11.5529 6.43769 11.6914 6.23038C11.8299 6.02307 12.0268 5.86148 12.2571 5.76607C12.4875 5.67065 12.741 5.64568 12.9855 5.69432C13.23 5.74296 13.4547 5.86302 13.631 6.03932C13.8073 6.21562 13.9273 6.44024 13.976 6.68478C14.0246 6.92932 13.9996 7.18279 13.9042 7.41313C13.8088 7.64348 13.6472 7.84036 13.4399 7.97887C13.2326 8.11738 12.9889 8.19131 12.7395 8.1913H11.479V6.93075Z" fill="currentColor"/>
<path d="M10.8438 6.93075C10.8417 7.2637 10.7079 7.5823 10.4718 7.81699C10.2356 8.05168 9.91616 8.18341 9.5832 8.18341C9.25024 8.18341 8.93081 8.05168 8.69463 7.81699C8.45846 7.5823 8.32472 7.2637 8.32263 6.93075V3.7744C8.32158 3.60819 8.35341 3.44341 8.41629 3.28956C8.47917 3.1357 8.57186 2.99579 8.68902 2.87789C8.80618 2.75999 8.9455 2.66643 9.09896 2.60258C9.25242 2.53873 9.41699 2.50586 9.5832 2.50586C9.74941 2.50586 9.91399 2.53873 10.0674 2.60258C10.2209 2.66643 10.3602 2.75999 10.4774 2.87789C10.5945 2.99579 10.6872 3.1357 10.7501 3.28956C10.813 3.44341 10.8448 3.60819 10.8438 3.7744V6.93075Z" fill="currentColor"/>
<path d="M9.58318 11.9926C9.8325 11.9926 10.0762 12.0666 10.2835 12.2051C10.4909 12.3436 10.6524 12.5405 10.7479 12.7708C10.8433 13.0012 10.8682 13.2546 10.8196 13.4992C10.771 13.7437 10.6509 13.9683 10.4746 14.1446C10.2983 14.3209 10.0737 14.441 9.82915 14.4896C9.58461 14.5383 9.33114 14.5133 9.10079 14.4179C8.87045 14.3225 8.67357 14.1609 8.53506 13.9536C8.39654 13.7463 8.32262 13.5025 8.32263 13.2532V11.9926H9.58318Z" fill="currentColor"/>
<path d="M9.58318 11.3574C9.25023 11.3554 8.93163 11.2216 8.69693 10.9854C8.46224 10.7493 8.33052 10.4298 8.33052 10.0969C8.33052 9.76392 8.46224 9.44448 8.69693 9.20831C8.93163 8.97213 9.25023 8.8384 9.58318 8.8363H12.7395C12.9057 8.83525 13.0705 8.86709 13.2244 8.92997C13.3782 8.99285 13.5181 9.08553 13.636 9.20269C13.7539 9.31985 13.8475 9.45917 13.9113 9.61263C13.9752 9.76609 14.0081 9.93066 14.0081 10.0969C14.0081 10.2631 13.9752 10.4277 13.9113 10.5811C13.8475 10.7346 13.7539 10.8739 13.636 10.9911C13.5181 11.1082 13.3782 11.2009 13.2244 11.2638C13.0705 11.3267 12.9057 11.3585 12.7395 11.3574H9.58318Z" fill="currentColor"/>
</svg>
