<svg viewBox="0 0 16 17" fill="none" xmlns="http://www.w3.org/2000/svg">
<rect width="16" height="16" transform="translate(0 0.513672)" fill="white" fill-opacity="0.01" style="mix-blend-mode:multiply"/>
<path d="M5.7739 13.3903C10.3022 13.3903 12.779 9.63856 12.779 6.38516C12.779 6.27861 12.779 6.17251 12.7718 6.06691C13.2537 5.71841 13.6696 5.28686 14.0001 4.79251C13.5508 4.99161 13.0741 5.12221 12.586 5.17986C13.0999 4.87216 13.4846 4.38821 13.6684 3.81811C13.1851 4.10491 12.6564 4.30701 12.1051 4.41571C11.1727 3.42426 9.61305 3.37641 8.6216 4.30881C7.9822 4.91011 7.7109 5.80616 7.90935 6.66116C5.9298 6.56191 4.0854 5.62691 2.83525 4.08886C2.1818 5.21381 2.51555 6.65296 3.5975 7.37541C3.2057 7.36381 2.82245 7.25811 2.48005 7.06726V7.09846C2.48035 8.27041 3.3065 9.27986 4.45525 9.51191C4.0928 9.61076 3.7125 9.62521 3.34355 9.55416C3.6661 10.5571 4.5904 11.2442 5.6437 11.2639C4.7719 11.9491 3.69495 12.321 2.5861 12.3199C2.3902 12.3195 2.1945 12.3077 2 12.2844C3.1259 13.007 4.43595 13.3902 5.77375 13.3884" fill="currentColor"/>
</svg>
