<svg viewBox="0 0 16 17" fill="none" xmlns="http://www.w3.org/2000/svg">
<rect width="16" height="16" transform="translate(0 0.513672)" fill="white" fill-opacity="0.01" style="mix-blend-mode:multiply"/>
<path d="M13.1 2.51367H2.9C2.4 2.51367 2 2.91367 2 3.36367V13.6137C2 14.0637 2.4 14.4637 2.9 14.4637H13.1C13.6 14.4637 14 14.0637 14 13.6137V3.36367C14 2.91367 13.6 2.51367 13.1 2.51367ZM5.55 12.7137H3.8V7.01367H5.55V12.7137ZM4.7 6.21367C4.15 6.21367 3.65 5.76367 3.65 5.16367C3.65 4.56367 4.1 4.11367 4.7 4.11367C5.25 4.11367 5.75 4.56367 5.75 5.16367C5.75 5.76367 5.25 6.21367 4.7 6.21367ZM12.25 12.6637H10.5V9.86367C10.5 9.21367 10.5 8.31367 9.55 8.31367C8.6 8.31367 8.5 9.06367 8.5 9.76367V12.6137H6.75V7.01367H8.4V7.76367H8.45C8.7 7.31367 9.3 6.81367 10.15 6.81367C11.95 6.81367 12.3 8.01367 12.3 9.56367V12.6637H12.25Z" fill="currentColor"/>
</svg>
