<svg viewBox="0 0 16 17" fill="none" xmlns="http://www.w3.org/2000/svg">
<rect width="16" height="16" transform="translate(0 0.513672)" fill="white" fill-opacity="0.01" style="mix-blend-mode:multiply"/>
<path d="M13.9551 9.45411C14.0055 9.14333 14.0306 8.82896 14.0301 8.51411C14.0301 6.91486 13.3948 5.3811 12.2639 4.25026C11.1331 3.11942 9.59935 2.48411 8.00009 2.48411C7.68524 2.48363 7.37088 2.50871 7.06009 2.55911C6.36313 2.14162 5.54666 1.96893 4.74034 2.06849C3.93402 2.16805 3.18408 2.53413 2.60959 3.10862C2.03511 3.6831 1.66902 4.43305 1.56947 5.23936C1.46991 6.04568 1.64259 6.86215 2.06009 7.55911C2.00384 7.87443 1.97374 8.19385 1.97009 8.51411C1.97009 10.1134 2.60539 11.6471 3.73624 12.778C4.86708 13.9088 6.40084 14.5441 8.00009 14.5441C8.31494 14.5446 8.6293 14.5195 8.94009 14.4691C9.63705 14.8866 10.4535 15.0593 11.2598 14.9597C12.0662 14.8602 12.8161 14.4941 13.3906 13.9196C13.9651 13.3451 14.3312 12.5952 14.4307 11.7889C14.5303 10.9825 14.3576 10.1661 13.9401 9.46911L13.9551 9.45411ZM10.8651 11.2541C10.5829 11.6443 10.1939 11.9447 9.74509 12.1191C9.19128 12.3365 8.59988 12.4418 8.00509 12.4291C7.31277 12.4581 6.62402 12.3155 6.00009 12.0141C5.63634 11.8186 5.32439 11.5392 5.09009 11.1991C4.87547 10.9086 4.75349 10.5601 4.74009 10.1991C4.73956 10.1055 4.75839 10.0127 4.79538 9.92667C4.83238 9.84063 4.88675 9.76316 4.95509 9.69911C5.10653 9.57023 5.30148 9.50405 5.50009 9.51411C5.66607 9.51098 5.82761 9.56778 5.95509 9.67411C6.09463 9.80465 6.20239 9.96543 6.27009 10.1441C6.35684 10.3529 6.46758 10.5509 6.60009 10.7341C6.73216 10.9032 6.90389 11.0372 7.10009 11.1241C7.36658 11.2384 7.65537 11.2914 7.94509 11.2791C8.35775 11.2991 8.76647 11.1908 9.11509 10.9691C9.24888 10.8907 9.36015 10.7791 9.43812 10.6451C9.51608 10.5111 9.5581 10.3592 9.56009 10.2041C9.56441 10.0955 9.54571 9.98729 9.50521 9.88646C9.4647 9.78564 9.40332 9.69452 9.32509 9.61911C9.14705 9.45509 8.93297 9.33521 8.70009 9.26911C8.44009 9.18411 8.09509 9.09911 7.66009 9.00411C7.1605 8.8878 6.67326 8.72372 6.20509 8.51411C5.8367 8.36313 5.51187 8.12251 5.26009 7.81411C5.02129 7.49623 4.89785 7.10651 4.91009 6.70911C4.90605 6.30512 5.03618 5.9112 5.28009 5.58911C5.55868 5.24299 5.92969 4.98293 6.35009 4.83911C6.88166 4.66256 7.44025 4.58131 8.00009 4.59911C8.43814 4.59137 8.87481 4.65038 9.29509 4.77411C9.62493 4.87205 9.93474 5.0278 10.2101 5.23411C10.4268 5.39687 10.6073 5.60289 10.7401 5.83911C10.8482 6.02993 10.9066 6.24483 10.9101 6.46411C10.9095 6.55759 10.8901 6.64999 10.8532 6.73587C10.8162 6.82174 10.7625 6.89935 10.6951 6.96411C10.627 7.03784 10.5442 7.09642 10.4521 7.13605C10.3599 7.17567 10.2604 7.19546 10.1601 7.19411C9.99925 7.20663 9.8398 7.15646 9.71509 7.05411C9.58389 6.9277 9.47412 6.78078 9.39009 6.61911C9.26626 6.36428 9.08686 6.14045 8.86509 5.96411C8.57407 5.78269 8.23151 5.70188 7.89009 5.73411C7.53963 5.71934 7.19237 5.80616 6.89009 5.98411C6.78029 6.04275 6.68756 6.12884 6.62096 6.234C6.55436 6.33916 6.51616 6.45979 6.51009 6.58411C6.50613 6.71996 6.55042 6.85281 6.63509 6.95911C6.73481 7.07466 6.85739 7.16829 6.99509 7.23411C7.14174 7.30997 7.29591 7.3703 7.45509 7.41411C7.61509 7.45911 7.87509 7.52411 8.24009 7.60911C8.70009 7.70911 9.11009 7.81911 9.48509 7.93911C9.82052 8.04131 10.1402 8.18937 10.4351 8.37911C10.6923 8.54178 10.9039 8.76718 11.0501 9.03411C11.1987 9.33857 11.2675 9.67578 11.2501 10.0141C11.2546 10.4575 11.12 10.8912 10.8651 11.2541V11.2541Z" fill="currentColor"/>
</svg>
