<svg viewBox="0 0 16 17" fill="none" xmlns="http://www.w3.org/2000/svg">
<rect width="16" height="16" transform="translate(0 0.513672)" fill="white" fill-opacity="0.01" style="mix-blend-mode:multiply"/>
<path d="M11.2028 6.03087C11.6004 6.03087 11.9228 5.70852 11.9228 5.31087C11.9228 4.91323 11.6004 4.59087 11.2028 4.59087C10.8052 4.59087 10.4828 4.91323 10.4828 5.31087C10.4828 5.70852 10.8052 6.03087 11.2028 6.03087Z" fill="currentColor"/>
<path d="M8 5.43257C7.39062 5.43257 6.79492 5.61328 6.28823 5.95183C5.78155 6.29039 5.38664 6.77159 5.15343 7.33459C4.92023 7.89758 4.85922 8.51709 4.9781 9.11476C5.09699 9.71244 5.39043 10.2614 5.82133 10.6923C6.25223 11.1232 6.80123 11.4167 7.39891 11.5356C7.99658 11.6545 8.61609 11.5934 9.17909 11.3602C9.74208 11.127 10.2233 10.7321 10.5618 10.2254C10.9004 9.71875 11.0811 9.12306 11.0811 8.51367C11.0811 7.69651 10.7565 6.91282 10.1787 6.33501C9.60085 5.75719 8.81716 5.43257 8 5.43257ZM8 10.5137C7.60444 10.5137 7.21776 10.3964 6.88886 10.1766C6.55996 9.95685 6.30362 9.64449 6.15224 9.27904C6.00087 8.91359 5.96126 8.51145 6.03843 8.12349C6.1156 7.73553 6.30608 7.37916 6.58579 7.09946C6.86549 6.81975 7.22186 6.62927 7.60982 6.5521C7.99778 6.47493 8.39991 6.51454 8.76537 6.66591C9.13082 6.81729 9.44318 7.07363 9.66294 7.40253C9.8827 7.73143 10 8.11811 10 8.51367C10 9.0441 9.78929 9.55281 9.41421 9.92789C9.03914 10.303 8.53043 10.5137 8 10.5137Z" fill="currentColor"/>
<path d="M8 3.59477C9.60205 3.59477 9.79185 3.60087 10.4245 3.62977C10.805 3.6343 11.1818 3.70419 11.5386 3.83637C11.7974 3.93621 12.0324 4.08911 12.2285 4.28522C12.4246 4.48133 12.5775 4.71632 12.6774 4.97507C12.8095 5.33188 12.8794 5.70875 12.884 6.08922C12.9128 6.72187 12.919 6.91167 12.919 8.51372C12.919 10.1158 12.9129 10.3056 12.884 10.9382C12.8794 11.3187 12.8095 11.6956 12.6774 12.0524C12.5775 12.3111 12.4246 12.5461 12.2285 12.7422C12.0324 12.9383 11.7974 13.0912 11.5386 13.1911C11.1818 13.3233 10.805 13.3931 10.4245 13.3977C9.7919 13.4265 9.6022 13.4327 8 13.4327C6.3978 13.4327 6.2081 13.4266 5.5755 13.3977C5.19502 13.3931 4.81815 13.3233 4.46135 13.1911C4.2026 13.0912 3.96761 12.9383 3.7715 12.7422C3.57539 12.5461 3.42249 12.3111 3.32265 12.0524C3.19046 11.6956 3.12058 11.3187 3.11605 10.9382C3.0872 10.3056 3.08105 10.1158 3.08105 8.51372C3.08105 6.91167 3.08715 6.72187 3.11605 6.08922C3.12058 5.70875 3.19046 5.33188 3.32265 4.97507C3.42249 4.71631 3.57538 4.48131 3.77149 4.28519C3.9676 4.08907 4.20259 3.93617 4.46135 3.83632C4.81815 3.70413 5.19502 3.63425 5.5755 3.62972C6.20815 3.60087 6.39795 3.59477 8 3.59477ZM8 2.51367C6.3705 2.51367 6.16615 2.52057 5.5262 2.54977C5.02853 2.55976 4.53615 2.65407 4.07 2.82867C3.67137 2.98283 3.30934 3.21857 3.00712 3.52079C2.7049 3.82301 2.46916 4.18504 2.315 4.58367C2.14037 5.0499 2.04606 5.54236 2.0361 6.04012C2.0069 6.67982 2 6.88417 2 8.51367C2 10.1432 2.0069 10.3475 2.0361 10.9875C2.04607 11.4852 2.14037 11.9777 2.315 12.4439C2.46916 12.8426 2.7049 13.2046 3.00712 13.5068C3.30934 13.809 3.67137 14.0448 4.07 14.1989C4.53623 14.3736 5.02869 14.4679 5.52645 14.4778C6.16615 14.5068 6.3705 14.5137 8 14.5137C9.6295 14.5137 9.83385 14.5068 10.4738 14.4776C10.9716 14.4676 11.464 14.3733 11.9303 14.1987C12.3289 14.0445 12.6909 13.8088 12.9931 13.5066C13.2954 13.2043 13.5311 12.8423 13.6853 12.4437C13.8599 11.9774 13.9542 11.485 13.9642 10.9872C13.9931 10.3475 14 10.1432 14 8.51367C14 6.88417 13.9931 6.67982 13.9639 6.03987C13.9539 5.5422 13.8596 5.04982 13.685 4.58367C13.5308 4.18508 13.2951 3.8231 12.9928 3.52093C12.6906 3.21876 12.3286 2.98305 11.93 2.82892C11.4638 2.65429 10.9713 2.55999 10.4735 2.55002C9.83385 2.52057 9.6295 2.51367 8 2.51367Z" fill="currentColor"/>
</svg>
