<svg viewBox="0 0 16 17" fill="none" xmlns="http://www.w3.org/2000/svg">
<rect width="16" height="16" transform="translate(0 0.513672)" fill="white" fill-opacity="0.01" style="mix-blend-mode:multiply"/>
<path fill-rule="evenodd" clip-rule="evenodd" d="M13.5428 12.9031C13.9797 12.6084 14.3399 12.2135 14.5933 11.7514C14.8468 11.2894 14.9862 10.7735 15 10.2466C15 8.30662 13.1118 6.73317 10.7831 6.73317C8.45445 6.73317 6.56615 8.30642 6.56615 10.2466C6.56615 12.1868 8.4544 13.7606 10.7831 13.7606C11.2487 13.7612 11.7121 13.6964 12.1597 13.5681L12.2834 13.5494C12.3625 13.5508 12.4398 13.5733 12.5074 13.6144L13.4309 14.1476L13.5119 14.1739C13.5492 14.1739 13.5849 14.159 13.6113 14.1327C13.6377 14.1063 13.6525 14.0705 13.6525 14.0333L13.6298 13.9306L13.4397 13.2219L13.4251 13.1319C13.4251 13.0871 13.4357 13.043 13.4562 13.0032C13.4767 12.9634 13.5064 12.9291 13.5428 12.9031V12.9031ZM6.0604 2.85352C3.26565 2.85352 1 4.74112 1 7.07037C1.01646 7.70248 1.1837 8.32151 1.4878 8.87592C1.79189 9.43032 2.22404 9.90406 2.74825 10.2577C2.7922 10.2888 2.82803 10.33 2.8527 10.3779C2.87737 10.4257 2.89016 10.4788 2.89 10.5327L2.8725 10.64L2.6444 11.4905L2.617 11.6135C2.61701 11.6583 2.63476 11.7012 2.66636 11.7329C2.69796 11.7646 2.74084 11.7825 2.7856 11.7827L2.8836 11.7512L3.99135 11.1112C4.07222 11.0617 4.16488 11.0349 4.25965 11.0336L4.4084 11.0557C4.94555 11.2097 5.50162 11.2876 6.0604 11.2873L6.3381 11.2803C6.22619 10.9474 6.16886 10.5985 6.16835 10.2472C6.16835 8.12332 8.2345 6.40132 10.7831 6.40132L11.0581 6.40832C10.6769 4.39402 8.5845 2.85352 6.0604 2.85352ZM9.37725 9.68496C9.26603 9.68496 9.1573 9.65198 9.06483 9.59019C8.97235 9.5284 8.90027 9.44057 8.85771 9.33782C8.81514 9.23506 8.80401 9.12199 8.82571 9.01291C8.8474 8.90382 8.90096 8.80362 8.97961 8.72497C9.05825 8.64633 9.15846 8.59277 9.26754 8.57107C9.37663 8.54937 9.4897 8.56051 9.59245 8.60307C9.69521 8.64563 9.78303 8.71771 9.84483 8.81019C9.90662 8.90267 9.9396 9.01139 9.9396 9.12262C9.93961 9.19646 9.92508 9.26959 9.89682 9.33782C9.86856 9.40605 9.82714 9.46804 9.77491 9.52025C9.72269 9.57246 9.66069 9.61388 9.59246 9.64212C9.52423 9.67037 9.4511 9.68489 9.37725 9.68486V9.68496ZM12.1889 9.68496C12.0777 9.68508 11.9689 9.6522 11.8763 9.59048C11.7838 9.52876 11.7116 9.44098 11.6689 9.33823C11.6263 9.23549 11.6151 9.1224 11.6367 9.01327C11.6583 8.90415 11.7118 8.80389 11.7904 8.72519C11.8691 8.64648 11.9693 8.59286 12.0784 8.57112C12.1875 8.54937 12.3006 8.56047 12.4034 8.60301C12.5062 8.64556 12.594 8.71764 12.6558 8.81013C12.7177 8.90262 12.7507 9.01137 12.7507 9.12262C12.7507 9.27165 12.6915 9.41458 12.5861 9.52001C12.4808 9.62544 12.3379 9.68473 12.1889 9.68486V9.68496ZM4.3734 6.39542C4.23997 6.39535 4.10955 6.35571 3.99864 6.28152C3.88774 6.20733 3.80132 6.10192 3.75032 5.97862C3.69932 5.85532 3.68603 5.71966 3.71213 5.5888C3.73823 5.45795 3.80255 5.33777 3.89695 5.24347C3.99135 5.14917 4.11159 5.08497 4.24248 5.05901C4.37336 5.03305 4.509 5.04648 4.63225 5.0976C4.7555 5.14873 4.86082 5.23526 4.9349 5.34624C5.00897 5.45723 5.04847 5.58768 5.0484 5.72112C5.04841 5.80973 5.03095 5.89747 4.99702 5.97933C4.96309 6.06119 4.91336 6.13555 4.85067 6.19818C4.78798 6.2608 4.71356 6.31046 4.63167 6.3443C4.54977 6.37814 4.46201 6.39551 4.3734 6.39542V6.39542ZM7.74685 6.39542C7.61342 6.39535 7.483 6.35571 7.37209 6.28152C7.26119 6.20733 7.17477 6.10192 7.12377 5.97862C7.07277 5.85532 7.05948 5.71966 7.08558 5.5888C7.11168 5.45795 7.176 5.33777 7.2704 5.24347C7.3648 5.14917 7.48504 5.08497 7.61593 5.05901C7.74681 5.03305 7.88245 5.04648 8.0057 5.0976C8.12895 5.14873 8.23427 5.23526 8.30835 5.34624C8.38242 5.45723 8.42192 5.58768 8.42185 5.72112C8.42185 5.80972 8.40439 5.89747 8.37045 5.97932C8.33652 6.06118 8.28679 6.13554 8.2241 6.19817C8.16142 6.26079 8.087 6.31044 8.00511 6.34429C7.92322 6.37813 7.83546 6.39551 7.74685 6.39542V6.39542Z" fill="currentColor"/>
</svg>
