<svg viewBox="0 0 16 16" fill="none" xmlns="http://www.w3.org/2000/svg">
<rect width="16" height="16" fill="white" fill-opacity="0.01" style="mix-blend-mode:multiply"/>
<path d="M13.2306 7.89792C13.1696 7.14813 12.9697 6.41622 12.641 5.73952L14.5 5.06452C14.3534 4.76088 14.1814 4.47014 13.9859 4.19542L13.1144 4.51292C12.353 3.44572 11.2628 2.65755 10.0107 2.26914C8.75863 1.88073 7.41373 1.91349 6.18205 2.36242C4.95037 2.81135 3.89981 3.65168 3.19132 4.75468C2.48283 5.85769 2.15547 7.16255 2.25939 8.46937L3.13324 8.14877C3.16096 8.48353 3.2163 8.81543 3.29869 9.14107L1.44189 9.81872C1.6256 10.5478 1.9431 11.2364 2.37824 11.8495L3.36139 11.4914L3.36269 11.4933C3.95925 12.3332 4.76389 13.0036 5.69769 13.4388C7.14001 14.1091 8.78931 14.18 10.2839 13.636C11.7784 13.0919 12.9961 11.9773 13.67 10.5367C14.1074 9.60192 14.2935 8.5693 14.21 7.54067L13.2306 7.89792ZM11.7706 9.64627C11.3336 10.5823 10.5431 11.3067 9.57257 11.6605C8.60206 12.0143 7.53082 11.9686 6.59394 11.5335C6.16961 11.3358 5.78478 11.0625 5.45824 10.7271L4.46594 11.0888C3.93289 10.5394 3.57236 9.84598 3.42884 9.09407L3.42929 9.09367L5.29139 8.41537C5.2252 8.0754 5.20449 7.72814 5.22979 7.38272L4.35394 7.70082C4.40038 7.07237 4.59893 6.46465 4.93248 5.93001C5.26604 5.39537 5.7246 4.94986 6.26864 4.63187C6.81268 4.31387 7.42588 4.13294 8.0554 4.10466C8.68492 4.07638 9.31188 4.20159 9.88224 4.46952H9.88559C10.3087 4.66814 10.6923 4.94172 11.0179 5.27702L11.89 4.96002C12.1306 5.20758 12.3372 5.48598 12.5045 5.78792L10.6495 6.46767C11.0234 7.13552 11.1932 7.89838 11.1378 8.66177L12.122 8.30422C12.0874 8.76922 11.9683 9.224 11.7705 9.64627H11.7706Z" fill="currentColor"/>
</svg>
