<svg viewBox="0 0 16 17" fill="none" xmlns="http://www.w3.org/2000/svg">
<rect width="16" height="16" transform="translate(0 0.513672)" fill="white" fill-opacity="0.01" style="mix-blend-mode:multiply"/>
<path d="M11.245 12.3685H10.865C9.735 12.3685 8.605 12.3685 7.475 12.3685C7.24996 12.3771 7.02573 12.3368 6.81772 12.2505C6.60971 12.1642 6.42286 12.0339 6.27 11.8685C5.75024 11.2996 5.32182 10.6536 5 9.95348C4.35 8.65348 3.73 7.34348 3.09 6.04348C2.895 5.64348 2.68 5.26348 2.45 4.88348C2.12141 4.23595 1.61942 3.69241 1 3.31348C1.62 3.31348 2.205 3.31348 2.785 3.31348C3.95777 3.32503 5.12791 3.427 6.285 3.61848C6.99099 3.72517 7.65616 4.01682 8.21293 4.46382C8.76971 4.91082 9.19824 5.49723 9.455 6.16348C9.91327 7.35957 10.2761 8.59008 10.54 9.84348C10.6893 10.7067 10.9255 11.5527 11.245 12.3685Z" fill="currentColor"/>
<path d="M14.05 13.7035C13.7019 13.6825 13.3727 13.5381 13.1216 13.2961C12.8705 13.0542 12.7139 12.7305 12.68 12.3835C12.6091 11.5689 12.5857 10.7508 12.61 9.93348C12.6087 8.66406 12.5067 7.39676 12.305 6.14348C12.268 5.77659 12.1237 5.42875 11.89 5.14348H13.215C13.485 5.14348 13.58 5.32848 13.66 5.53348C13.847 6.05535 13.9614 6.60045 14 7.15348C14.145 8.51348 14.155 9.87848 14.165 11.2435C14.1549 11.435 14.1549 11.6269 14.165 11.8185C14.21 12.2085 14.365 12.3685 14.75 12.3585C15 12.3585 15 12.3285 15 12.3285V13.6735C14.6854 13.7185 14.3668 13.7285 14.05 13.7035Z" fill="currentColor"/>
</svg>
