<svg viewBox="0 0 16 16" fill="none" xmlns="http://www.w3.org/2000/svg">
<rect width="16" height="16" fill="white" fill-opacity="0.01" style="mix-blend-mode:multiply"/>
<path d="M12.5 5.80048C12.35 5.75048 12.2 5.70048 12.05 5.65048C12.05 5.55048 12.1 5.45048 12.1 5.35048C12.45 3.70048 12.2 2.35048 11.45 1.90048C10.7 1.50048 9.5 1.90048 8.3 2.95048C8.2 3.05048 8.05 3.15048 7.95 3.25048C7.85 3.20048 7.8 3.10048 7.7 3.05048C6.5 1.95048 5.25 1.50048 4.5 1.95048C3.75 2.35048 3.55 3.65048 3.85 5.20048C3.9 5.35048 3.9 5.50048 3.95 5.65048C3.75 5.70048 3.6 5.75048 3.45 5.80048C1.95 6.30048 1 7.15048 1 7.95048C1 8.80048 2 9.70048 3.55 10.2005C3.65 10.2505 3.8 10.3005 3.95 10.3005C3.9 10.4505 3.85 10.6505 3.85 10.8005C3.55 12.3505 3.8 13.5505 4.5 14.0005C5.25 14.4505 6.5 14.0005 7.75 12.9005C7.85 12.8005 7.95 12.7005 8.05 12.6505C8.15 12.7505 8.3 12.9005 8.45 13.0005C9.65 14.0505 10.8 14.4505 11.55 14.0005C12.3 13.5505 12.55 12.2505 12.25 10.6505C12.25 10.5505 12.2 10.4005 12.15 10.2505C12.25 10.2005 12.35 10.2005 12.4 10.1505C14 9.60048 15.05 8.75048 15.05 7.90048C15 7.15048 14 6.35048 12.5 5.80048ZM8.75 3.45048C9.8 2.55048 10.75 2.20048 11.2 2.45048C11.65 2.70048 11.85 3.80048 11.55 5.25048C11.55 5.35048 11.5 5.45048 11.5 5.55048C10.9 5.40048 10.25 5.30048 9.65 5.25048C9.3 4.75048 8.9 4.25048 8.45 3.75048C8.55 3.65048 8.65 3.55048 8.75 3.45048ZM5.15 8.70048C5.3 8.95048 5.4 9.20048 5.55 9.45048C5.7 9.70048 5.85 9.95048 6 10.1505C5.55 10.1005 5.15 10.0505 4.7 9.95048C4.8 9.55048 4.95 9.15048 5.15 8.70048ZM5.15 7.30048C4.95 6.90048 4.85 6.50048 4.7 6.10048C5.1 6.00048 5.55 5.95048 5.95 5.90048C5.8 6.15048 5.65 6.35048 5.5 6.60048C5.4 6.80048 5.25 7.05048 5.15 7.30048ZM5.45 8.00048C5.65 7.60048 5.85 7.25048 6.05 6.85048C6.25 6.50048 6.5 6.10048 6.75 5.75048C7.15 5.70048 7.6 5.70048 8.05 5.70048C8.5 5.70048 8.9 5.70048 9.35 5.75048C9.6 6.10048 9.8 6.45048 10 6.85048C10.2 7.20048 10.4 7.60048 10.6 8.00048C10.4 8.40048 10.2 8.75048 10 9.15048C9.8 9.50048 9.55 9.90048 9.35 10.2505C8.95 10.3005 8.5 10.3005 8.05 10.3005C7.6 10.3005 7.2 10.3005 6.8 10.2505C6.55 9.90048 6.35 9.55048 6.1 9.15048C5.85 8.75048 5.65 8.40048 5.45 8.00048ZM10.45 9.45048C10.6 9.20048 10.75 8.95048 10.85 8.70048C11.05 9.10048 11.2 9.50048 11.3 9.95048C10.85 10.0505 10.45 10.1005 10 10.1505C10.2 9.90048 10.35 9.65048 10.45 9.45048ZM10.85 7.30048C10.7 7.05048 10.6 6.80048 10.45 6.55048C10.3 6.30048 10.15 6.10048 10.05 5.85048C10.5 5.90048 10.9 6.00048 11.35 6.05048C11.2 6.50048 11.05 6.90048 10.85 7.30048ZM8 4.15048C8.3 4.45048 8.55 4.80048 8.8 5.15048C8.25 5.10048 7.7 5.10048 7.15 5.15048C7.45 4.80048 7.75 4.45048 8 4.15048ZM4.8 2.45048C5.25 2.20048 6.3 2.55048 7.4 3.55048C7.45 3.60048 7.55 3.70048 7.6 3.75048C7.15 4.20048 6.75 4.70048 6.4 5.25048C5.75 5.30048 5.15 5.40048 4.55 5.55048C4.5 5.40048 4.5 5.25048 4.45 5.10048C4.15 3.75048 4.35 2.70048 4.8 2.45048ZM4.1 9.80048C4 9.75048 3.85 9.75048 3.75 9.70048C3.05 9.45048 2.5 9.15048 2.1 8.85048C1.75 8.55048 1.6 8.25048 1.6 8.00048C1.6 7.50048 2.35 6.85048 3.65 6.40048C3.8 6.35048 3.95 6.30048 4.15 6.25048C4.3 6.85048 4.5 7.45048 4.8 8.00048C4.5 8.60048 4.3 9.20048 4.1 9.80048ZM7.35 12.5505C6.8 13.0505 6.25 13.3505 5.8 13.5505C5.35 13.7005 5.05 13.7005 4.8 13.6005C4.35 13.3505 4.15 12.3505 4.4 11.0505C4.45 10.8505 4.5 10.7005 4.5 10.5005C5.1 10.6505 5.75 10.7505 6.4 10.7505C6.75 11.2505 7.15 11.7505 7.6 12.2505C7.5 12.3505 7.45 12.4505 7.35 12.5505ZM8 11.8505C7.7 11.5505 7.45 11.2005 7.15 10.8505C7.4 10.8505 7.7 10.8505 7.95 10.8505C8.25 10.8505 8.5 10.8505 8.8 10.8505C8.6 11.2005 8.3 11.5505 8 11.8505ZM11.65 12.7005C11.55 13.1505 11.4 13.4505 11.2 13.5505C10.75 13.8005 9.8 13.4505 8.8 12.6005C8.7 12.5005 8.55 12.4005 8.45 12.3005C8.85 11.8505 9.25 11.3505 9.6 10.8005C10.25 10.7505 10.85 10.6505 11.5 10.5005C11.55 10.6005 11.55 10.7505 11.6 10.8505C11.75 11.5505 11.75 12.2005 11.65 12.7005ZM12.15 9.70048C12.05 9.70048 12 9.75048 11.9 9.75048C11.7 9.15048 11.45 8.55048 11.2 7.95048C11.45 7.40048 11.7 6.80048 11.9 6.20048C12.05 6.25048 12.2 6.30048 12.3 6.35048C13.6 6.80048 14.4 7.45048 14.4 7.95048C14.4 8.55048 13.55 9.25048 12.15 9.70048Z" fill="currentColor"/>
<path d="M8 9.25048C8.25 9.25048 8.5 9.20048 8.7 9.05048C8.9 8.90048 9.05 8.70048 9.15 8.50048C9.25 8.25048 9.25 8.00048 9.2 7.75048C9.15 7.50048 9.05 7.30048 8.85 7.10048C8.7 6.90048 8.45 6.80048 8.2 6.75048C7.95 6.70048 7.7 6.75048 7.45 6.80048C7.2 6.90048 7 7.05048 6.9 7.25048C6.75 7.45048 6.7 7.70048 6.7 7.95048C6.7 8.10048 6.75 8.30048 6.8 8.45048C6.85 8.60048 6.95 8.75048 7.05 8.85048C7.15 8.95048 7.3 9.05048 7.45 9.10048C7.65 9.20048 7.85 9.25048 8 9.25048Z" fill="currentColor"/>
</svg>
