<svg viewBox="0 0 16 16" fill="none" xmlns="http://www.w3.org/2000/svg">
<rect width="16" height="16" fill="white" fill-opacity="0.01" style="mix-blend-mode:multiply"/>
<path d="M13.5 9.5C14.3271 9.5 15 8.82715 15 8C15 7.17285 14.3271 6.5 13.5 6.5C12.849 6.5 12.2992 6.9192 12.0921 7.5H9.207L12.8574 3.8496C13.0529 3.94335 13.2692 4 13.5 4C14.3271 4 15 3.32715 15 2.5C15 1.67285 14.3271 1 13.5 1C12.6729 1 12 1.67285 12 2.5C12 2.73095 12.0568 2.947 12.1503 3.1426L8 7.293V4.00005C8 3.4488 8.4485 3.00005 9 3.00005H10V2.00005H9C8.3999 2.00005 7.86695 2.2713 7.5 2.6912C7.13305 2.2713 6.6001 2.00005 6 2.00005H5.5C3.0188 2.00005 1 4.0186 1 6.50005V9.50005C1 11.9815 3.0188 14 5.5 14H6C6.6001 14 7.13305 13.7288 7.5 13.3089C7.86695 13.7288 8.3999 14 9 14H10V13H9C8.4485 13 8 12.5513 8 12V8.7071L12.1503 12.8575C12.0568 13.0531 12 13.2691 12 13.5001C12 14.3273 12.6729 15.0001 13.5 15.0001C14.3271 15.0001 15 14.3273 15 13.5001C15 12.673 14.3271 12.0001 13.5 12.0001C13.2692 12.0001 13.053 12.0568 12.8574 12.1505L9.207 8.5001H12.0921C12.2992 9.0809 12.849 9.5 13.5 9.5ZM13.5 7.5C13.7756 7.5 14 7.7241 14 8C14 8.2759 13.7756 8.5 13.5 8.5C13.2244 8.5 13 8.2759 13 8C13 7.7241 13.2244 7.5 13.5 7.5ZM13.5 2C13.7758 2 14 2.22435 14 2.5C14 2.77565 13.7758 3 13.5 3C13.2242 3 13 2.77565 13 2.5C13 2.22435 13.2242 2 13.5 2ZM7 6H6V7H7V9H6C5.17285 9 4.5 9.67285 4.5 10.5V11.5H5.5V10.5C5.5 10.2241 5.72435 10 6 10H7V12C7 12.5512 6.5515 13 6 13H5.5C3.74025 13 2.2838 11.6933 2.0399 10H3V9H2V7H3.5C4.32715 7 5 6.32715 5 5.5V4.5H4V5.5C4 5.7759 3.77565 6 3.5 6H2.0399C2.2838 4.30665 3.7402 3 5.5 3H6C6.5515 3 7 3.44875 7 4V6ZM14 13.5C14 13.7756 13.7758 14 13.5 14C13.2242 14 13 13.7756 13 13.5C13 13.2244 13.2242 13 13.5 13C13.7758 13 14 13.2244 14 13.5Z" fill="currentColor"/>
</svg>
