<svg viewBox="0 0 16 17" fill="none" xmlns="http://www.w3.org/2000/svg">
<rect width="16" height="16" transform="translate(0 0.513672)" fill="white" fill-opacity="0.01" style="mix-blend-mode:multiply"/>
<path d="M8 12.5137L4.955 8.21367C4.45659 7.62521 4.13562 6.90725 4.02948 6.14342C3.92333 5.37959 4.03638 4.60132 4.35545 3.89925C4.67453 3.19718 5.18649 2.60021 5.83173 2.17787C6.47697 1.75552 7.22891 1.52518 8 1.51367C9.06887 1.52423 10.09 1.95797 10.8397 2.71988C11.5894 3.48179 12.0067 4.50977 12 5.57867C12.0004 6.51114 11.683 7.41589 11.1 8.14367L8 12.5137ZM8 2.51367C7.19593 2.52291 6.42838 2.85086 5.86591 3.42552C5.30343 4.00019 4.992 4.77459 5 5.57867C5.00335 6.31258 5.26739 7.02142 5.745 7.57867L8 10.7737L10.315 7.51367C10.755 6.9644 10.9965 6.28247 11 5.57867C11.008 4.77459 10.6966 4.00019 10.1341 3.42552C9.57162 2.85086 8.80407 2.52291 8 2.51367Z" fill="currentColor"/>
<path d="M8 6.01367C8.55228 6.01367 9 5.56596 9 5.01367C9 4.46139 8.55228 4.01367 8 4.01367C7.44772 4.01367 7 4.46139 7 5.01367C7 5.56596 7.44772 6.01367 8 6.01367Z" fill="currentColor"/>
<path d="M14 6.51367H13V7.51367H14V14.5137H2V7.51367H3V6.51367H2C1.73478 6.51367 1.48043 6.61903 1.29289 6.80657C1.10536 6.9941 1 7.24846 1 7.51367V14.5137C1 14.7789 1.10536 15.0332 1.29289 15.2208C1.48043 15.4083 1.73478 15.5137 2 15.5137H14C14.2652 15.5137 14.5196 15.4083 14.7071 15.2208C14.8946 15.0332 15 14.7789 15 14.5137V7.51367C15 7.24846 14.8946 6.9941 14.7071 6.80657C14.5196 6.61903 14.2652 6.51367 14 6.51367Z" fill="currentColor"/>
</svg>
