<svg viewBox="0 0 16 16" fill="none" xmlns="http://www.w3.org/2000/svg">
<rect width="16" height="16" fill="white" fill-opacity="0.01" style="mix-blend-mode:multiply"/>
<path d="M12 6.5C11.0708 6.5 10.2947 7.1399 10.071 8H7C5.62145 8 4.5 6.8784 4.5 5.5V4.92895C5.3601 4.7053 6 3.9292 6 3C6 1.8972 5.1028 1 4 1C2.8972 1 2 1.8972 2 3C2 3.9292 2.6399 4.7053 3.5 4.92895V11.071C2.6399 11.2944 2 12.0708 2 13C2 14.103 2.8972 15 4 15C5.1028 15 6 14.103 6 13C6 12.0708 5.3601 11.2944 4.5 11.071V7.94485C5.13585 8.595 6.021 9.00005 7 9.00005H10.071C10.2947 9.86015 11.0708 10.5 12 10.5C13.1028 10.5 14 9.60285 14 8.50005C14 7.39725 13.1028 6.5 12 6.5ZM5 13C5 13.5512 4.5515 14 4 14C3.4485 14 3 13.5512 3 13C3 12.4488 3.4485 12 4 12C4.5515 12 5 12.4488 5 13ZM3 3C3 2.4485 3.4485 2 4 2C4.5515 2 5 2.4485 5 3C5 3.5515 4.5515 4 4 4C3.4485 4 3 3.5515 3 3ZM12 9.5C11.4486 9.5 11 9.05125 11 8.5C11 7.94875 11.4486 7.5 12 7.5C12.5514 7.5 13 7.94875 13 8.5C13 9.05125 12.5514 9.5 12 9.5Z" fill="currentColor"/>
</svg>
