<svg viewBox="0 0 16 17" fill="none" xmlns="http://www.w3.org/2000/svg">
<rect width="16" height="16" transform="translate(0 0.513672)" fill="white" fill-opacity="0.01" style="mix-blend-mode:multiply"/>
<path d="M5.5 11.0137L3.5 9.91367V7.66367L5.5 6.56367L7.5 7.66367V9.91367L5.5 11.0137ZM4.5 9.31367L5.5 9.86367L6.5 9.31367V8.21367L5.5 7.66367L4.5 8.21367V9.31367Z" fill="currentColor"/>
<path d="M3 15.5137L1 14.4137V12.1637L3 11.0137L5 12.1137V14.3637L3 15.5137ZM2 13.8137L3 14.3637L4 13.8137V12.7137L3 12.1637L2 12.7137V13.8137Z" fill="currentColor"/>
<path d="M8 15.5137L6 14.4137V12.1637L8 11.0637L10 12.1637V14.4137L8 15.5137ZM7 13.8137L8 14.3637L9 13.8137V12.7137L8 12.1637L7 12.7137V13.8137Z" fill="currentColor"/>
<path d="M13 15.5137L11 14.4137V12.1637L13 11.0637L15 12.1637V14.4137L13 15.5137ZM12 13.8137L13 14.3637L14 13.8137V12.7137L13 12.1637L12 12.7137V13.8137Z" fill="currentColor"/>
<path d="M12.3 6.31367L11 7.61367V5.21367L12.5 4.36367V2.11367L10.5 1.01367L8.5 2.11367V4.36367L10 5.21367V7.56367L8.7 6.26367L8 7.01367L10.5 9.51367L13 7.01367L12.3 6.31367ZM9.5 2.71367L10.5 2.16367L11.5 2.71367V3.81367L10.5 4.36367L9.5 3.81367V2.71367Z" fill="currentColor"/>
</svg>
