<svg viewBox="0 0 16 17" fill="none" xmlns="http://www.w3.org/2000/svg">
<rect width="16" height="16" transform="translate(0 0.513672)" fill="white" fill-opacity="0.01" style="mix-blend-mode:multiply"/>
<path d="M11.5 9.01367C11.498 9.6921 11.299 10.3553 10.927 10.9227C10.555 11.49 10.0261 11.9371 9.40474 12.2093C8.78335 12.4816 8.09622 12.5675 7.42695 12.4564C6.75768 12.3453 6.13511 12.0421 5.635 11.5837L6.345 10.8787C6.70516 11.1968 7.14937 11.4044 7.62446 11.4766C8.09954 11.5487 8.58536 11.4825 9.02376 11.2857C9.46216 11.0889 9.83455 10.77 10.0964 10.367C10.3582 9.96407 10.4983 9.4942 10.5 9.01367V6.72367L15 2.22367L14.295 1.51367L1 14.8087L1.705 15.5137L4.925 12.2937C5.63075 12.9603 6.53493 13.3782 7.5 13.4837V14.5137H5.5V15.5137H10.5V14.5137H8.5V13.4837C9.59968 13.3607 10.6155 12.8369 11.3534 12.0123C12.0913 11.1877 12.4995 10.1202 12.5 9.01367V7.51367H11.5V9.01367Z" fill="currentColor"/>
<path d="M4.5 9.17367C4.5 9.11867 4.5 9.06867 4.5 9.01367V7.51367H3.5V9.01367C3.50065 9.3657 3.5426 9.71643 3.625 10.0587L4.5 9.17367Z" fill="currentColor"/>
<path d="M10.38 3.30367C10.1994 2.74045 9.82489 2.25951 9.32313 1.94633C8.82136 1.63315 8.22481 1.50802 7.63949 1.59318C7.05417 1.67834 6.518 1.96827 6.12628 2.41145C5.73456 2.85462 5.51265 3.42233 5.5 4.01367V8.18367L10.38 3.30367Z" fill="currentColor"/>
</svg>
