<svg viewBox="0 0 16 17" fill="none" xmlns="http://www.w3.org/2000/svg">
<g clip-path="url(#clip0_1961_11595)">
<rect width="16" height="16" transform="translate(0 0.513672)" fill="white" fill-opacity="0.01" style="mix-blend-mode:multiply"/>
<path d="M12.2498 14.0137C12.664 14.0137 12.9998 13.6779 12.9998 13.2637C12.9998 12.8495 12.664 12.5137 12.2498 12.5137C11.8356 12.5137 11.4998 12.8495 11.4998 13.2637C11.4998 13.6779 11.8356 14.0137 12.2498 14.0137Z" fill="currentColor"/>
<path d="M10.7498 16.0137C11.164 16.0137 11.4998 15.6779 11.4998 15.2637C11.4998 14.8495 11.164 14.5137 10.7498 14.5137C10.3356 14.5137 9.99979 14.8495 9.99979 15.2637C9.99979 15.6779 10.3356 16.0137 10.7498 16.0137Z" fill="currentColor"/>
<path d="M7.93379 15.7617L7.06579 15.2657L8.63779 12.5137H5.63829L8.06579 8.26572L8.93379 8.76172L7.36129 11.5137H10.3618L7.93379 15.7617Z" fill="currentColor"/>
<path d="M4.49979 16.5137C4.41455 16.5137 4.33072 16.4919 4.25627 16.4504C4.18182 16.4089 4.11922 16.3491 4.07441 16.2766C4.0296 16.204 4.00408 16.1213 4.00026 16.0361C3.99644 15.951 4.01445 15.8663 4.05259 15.79L5.05259 13.7898C5.08196 13.731 5.12261 13.6787 5.17222 13.6357C5.22184 13.5926 5.27943 13.5598 5.34173 13.5391C5.40403 13.5183 5.4698 13.51 5.5353 13.5147C5.6008 13.5194 5.66473 13.5369 5.72346 13.5662C5.78219 13.5956 5.83456 13.6363 5.87757 13.6859C5.92059 13.7355 5.95341 13.7931 5.97417 13.8554C5.99492 13.9177 6.00321 13.9835 5.99854 14.049C5.99388 14.1145 5.97636 14.1784 5.94699 14.2371L4.94699 16.2371C4.90558 16.3203 4.84178 16.3902 4.76277 16.4391C4.68376 16.488 4.59269 16.5138 4.49979 16.5137Z" fill="currentColor"/>
<path d="M12.4002 5.08182C12.1871 4.07268 11.6337 3.16744 10.8326 2.51781C10.0315 1.86819 9.03143 1.51367 8.00004 1.51367C6.96865 1.51367 5.9686 1.86819 5.1675 2.51781C4.36641 3.16744 3.81295 4.07268 3.59989 5.08182C2.85628 5.23295 2.1891 5.63978 1.71424 6.23165C1.23939 6.82351 0.98686 7.56302 1.00053 8.32171C1.01419 9.0804 1.29319 9.81033 1.78905 10.3847C2.28492 10.9591 2.96632 11.3416 3.71489 11.4659L3.05279 12.7901C3.02221 12.8489 3.00364 12.9132 2.99816 12.9793C2.99268 13.0454 3.0004 13.1119 3.02087 13.175C3.04135 13.2381 3.07416 13.2965 3.11741 13.3467C3.16065 13.397 3.21347 13.4382 3.27277 13.4678C3.33208 13.4975 3.3967 13.5151 3.46286 13.5195C3.52902 13.524 3.59541 13.5152 3.65816 13.4938C3.7209 13.4723 3.77876 13.4386 3.82836 13.3946C3.87795 13.3506 3.91829 13.2971 3.94704 13.2374L4.94704 11.2374C4.97642 11.1786 4.99394 11.1147 4.99861 11.0492C5.00328 10.9837 4.995 10.9179 4.97425 10.8556C4.95349 10.7933 4.92067 10.7357 4.87765 10.6861C4.83464 10.6365 4.78227 10.5958 4.72354 10.5665C4.65378 10.5331 4.5771 10.5167 4.49979 10.5187V10.5137H4.24979C3.66868 10.5139 3.11006 10.2891 2.69104 9.88651C2.27201 9.48389 2.02511 8.93469 2.0021 8.35404C1.97908 7.77339 2.18173 7.20637 2.56758 6.77185C2.95342 6.33733 3.49249 6.06904 4.07179 6.02322L4.47954 5.99127L4.52909 5.58527C4.63291 4.73781 5.04319 3.95762 5.68257 3.39179C6.32195 2.82596 7.14624 2.5136 8.00004 2.5136C8.85383 2.5136 9.67813 2.82596 10.3175 3.39179C10.9569 3.95762 11.3672 4.73781 11.471 5.58527L11.5203 5.99127L11.928 6.02322C12.5073 6.06904 13.0464 6.33734 13.4322 6.77189C13.8181 7.20643 14.0207 7.77348 13.9977 8.35414C13.9746 8.93481 13.7277 9.48401 13.3086 9.88661C12.8896 10.2892 12.3309 10.514 11.7498 10.5137H11.4998V11.5137H11.7498C12.555 11.5141 13.3317 11.2153 13.9292 10.6754C14.5267 10.1356 14.9023 9.39303 14.9833 8.59187C15.0644 7.7907 14.8449 6.988 14.3676 6.33944C13.8904 5.69089 13.1892 5.24271 12.4002 5.08182Z" fill="currentColor"/>
</g>
<defs>
<clipPath id="clip0_1961_11595">
<rect width="16" height="16" fill="white" transform="translate(0 0.513672)"/>
</clipPath>
</defs>
</svg>
