<svg viewBox="0 0 16 17" fill="none" xmlns="http://www.w3.org/2000/svg">
<rect width="16" height="16" transform="translate(0 0.513672)" fill="white" fill-opacity="0.01" style="mix-blend-mode:multiply"/>
<path d="M14 6.51367H10V7.51367H14V14.5137H10V15.5137H14C14.5512 15.5137 15 15.0652 15 14.5137V7.51367C15 6.96242 14.5512 6.51367 14 6.51367Z" fill="currentColor"/>
<path d="M9.5 8.51367L8.79295 9.22072L10.0859 10.5137H7.99995C6.89715 10.5137 5.99995 9.61647 5.99995 8.51367V7.51367H4.99995V8.51367C4.99995 10.168 6.3458 11.5137 7.99995 11.5137H10.0859L8.79295 12.8066L9.5 13.5137L12 11.0137L9.5 8.51367Z" fill="currentColor"/>
<path d="M6 14.5137H3V4.51367H11V2.51367C11 1.96217 10.5512 1.51367 10 1.51367H3C2.4485 1.51367 2 1.96217 2 2.51367V14.5137C2 15.0649 2.4485 15.5137 3 15.5137H6V14.5137ZM3 2.51367H10V3.51367H3V2.51367Z" fill="currentColor"/>
</svg>
