<svg viewBox="0 0 16 17" fill="none" xmlns="http://www.w3.org/2000/svg">
<rect width="16" height="16" transform="translate(0 0.513672)" fill="white" fill-opacity="0.01" style="mix-blend-mode:multiply"/>
<path d="M14 12.5137H12V10.5137H11V12.5137H9V13.5137H11V15.5137H12V13.5137H14V12.5137Z" fill="currentColor"/>
<path d="M5 14.5137V5.51367H11V9.01367H12V3.51367C11.9997 3.24855 11.8942 2.99437 11.7068 2.8069C11.5193 2.61943 11.2651 2.51398 11 2.51367H5C4.73486 2.51394 4.48066 2.61938 4.29319 2.80686C4.10571 2.99434 4.00026 3.24854 4 3.51367V14.5137C4.0003 14.7788 4.10576 15.033 4.29323 15.2204C4.4807 15.4079 4.73488 15.5134 5 15.5137H8V14.5137H5ZM5 3.51367H11V4.51367H5V3.51367Z" fill="currentColor"/>
</svg>
