<svg viewBox="0 0 16 17" fill="none" xmlns="http://www.w3.org/2000/svg">
<rect width="16" height="16" transform="translate(0 0.513672)" fill="white" fill-opacity="0.01" style="mix-blend-mode:multiply"/>
<path d="M11.5 13.5137C12.0523 13.5137 12.5 13.066 12.5 12.5137C12.5 11.9614 12.0523 11.5137 11.5 11.5137C10.9477 11.5137 10.5 11.9614 10.5 12.5137C10.5 13.066 10.9477 13.5137 11.5 13.5137Z" fill="currentColor"/>
<path d="M15.3884 12.2529C14.677 10.5886 13.1504 9.51367 11.5 9.51367C9.8496 9.51367 8.3231 10.5886 7.61155 12.2529L7.5 12.5137L7.61155 12.7744C8.3231 14.4388 9.8496 15.5137 11.5 15.5137C13.1504 15.5137 14.677 14.4387 15.3884 12.7744L15.5 12.5137L15.3884 12.2529ZM11.5 14.5137C10.3972 14.5137 9.5 13.6165 9.5 12.5137C9.5 11.4109 10.3972 10.5137 11.5 10.5137C12.6028 10.5137 13.5 11.4109 13.5 12.5137C13.5 13.6165 12.6028 14.5137 11.5 14.5137Z" fill="currentColor"/>
<path d="M7 14.5137H4.5V4.51367H11.5V8.01367H12.5V2.51367C12.5 1.96217 12.0512 1.51367 11.5 1.51367H4.5C3.9485 1.51367 3.5 1.96217 3.5 2.51367V14.5137C3.5 15.0649 3.9485 15.5137 4.5 15.5137H7V14.5137ZM4.5 2.51367H11.5V3.51367H4.5V2.51367Z" fill="currentColor"/>
</svg>
