<svg viewBox="0 0 16 16" fill="none" xmlns="http://www.w3.org/2000/svg">
<rect width="16" height="16" fill="white" fill-opacity="0.01" style="mix-blend-mode:multiply"/>
<path d="M13.5 9.5C14.3272 9.5 15 8.82715 15 8C15 7.17285 14.3272 6.5 13.5 6.5C12.849 6.5 12.2992 6.91925 12.0922 7.5H9.20705L12.8573 3.8497C13.0528 3.94325 13.2692 4 13.5 4C14.3271 4 15 3.32715 15 2.5C15 1.67285 14.3271 1 13.5 1C12.849 1 12.2992 1.41925 12.0921 2H3.9079C3.70085 1.41925 3.15105 1 2.50005 1C1.6729 1 1.00005 1.67285 1.00005 2.5C1.00005 3.32715 1.6729 4 2.50005 4C2.7309 4 2.9472 3.94325 3.14275 3.8497L6.793 7.5H3.90785C3.7008 6.91925 3.151 6.5 2.5 6.5C1.67285 6.5 1 7.17285 1 8C1 8.82715 1.67285 9.5 2.5 9.5C3.151 9.5 3.7008 9.08075 3.90785 8.5H6.793L3.14275 12.1503C2.9472 12.0568 2.7309 12 2.50005 12C1.6729 12 1.00005 12.6729 1.00005 13.5C1.00005 14.3271 1.6729 15 2.50005 15C3.15105 15 3.70085 14.5807 3.9079 14H12.0922C12.2993 14.5807 12.8491 15 13.5001 15C14.3272 15 15.0001 14.3271 15.0001 13.5C15.0001 12.6729 14.3272 12 13.5001 12C13.2692 12 13.0529 12.0568 12.8574 12.1503L9.20715 8.5H12.0923C12.2993 9.08075 12.849 9.5 13.5 9.5ZM13.5 7.5C13.7759 7.5 14 7.72435 14 8C14 8.27565 13.7759 8.5 13.5 8.5C13.2241 8.5 13 8.27565 13 8C13 7.72435 13.2241 7.5 13.5 7.5ZM3.9079 3H12.0922C12.1097 3.0488 12.1282 3.09635 12.1503 3.14265L8.0001 7.29295L3.8498 3.14265C3.8719 3.0963 3.89055 3.0488 3.9079 3ZM13.5 2C13.7759 2 14 2.22435 14 2.5C14 2.77565 13.7759 3 13.5 3C13.2241 3 13 2.77565 13 2.5C13 2.22435 13.2241 2 13.5 2ZM2.00005 2.5C2.00005 2.22435 2.22415 2 2.50005 2C2.77595 2 3.00005 2.22435 3.00005 2.5C3.00005 2.77565 2.77595 3 2.50005 3C2.22415 3 2.00005 2.77565 2.00005 2.5ZM2.50005 8.5C2.22415 8.5 2.00005 8.27565 2.00005 8C2.00005 7.72435 2.22415 7.5 2.50005 7.5C2.77595 7.5 3.00005 7.72435 3.00005 8C3.00005 8.27565 2.77595 8.5 2.50005 8.5ZM12.0922 13H3.9079C3.89055 12.9512 3.8719 12.9037 3.8498 12.8574L8.00005 8.70705L12.1503 12.8574C12.1282 12.9037 12.1095 12.9512 12.0922 13ZM2.50005 14C2.22415 14 2.00005 13.7756 2.00005 13.5C2.00005 13.2244 2.22415 13 2.50005 13C2.77595 13 3.00005 13.2244 3.00005 13.5C3.00005 13.7756 2.77595 14 2.50005 14ZM14 13.5C14 13.7756 13.7759 14 13.5 14C13.2241 14 13 13.7756 13 13.5C13 13.2244 13.2241 13 13.5 13C13.7759 13 14 13.2244 14 13.5Z" fill="currentColor"/>
</svg>
