<svg viewBox="0 0 16 16" fill="none" xmlns="http://www.w3.org/2000/svg">
<rect width="16" height="16" fill="white" fill-opacity="0.01" style="mix-blend-mode:multiply"/>
<path d="M14 15.5V14.3614C13.7024 14.1882 13.5 13.8693 13.5 13.5C13.5 13.1308 13.7024 12.8119 14 12.6386V10H15V12.6386C15.2976 12.8118 15.5 13.1308 15.5 13.5C15.5 13.8692 15.2976 14.1881 15 14.3614V15.5H14Z" fill="currentColor"/>
<path d="M11 15.5V12.8614C10.7024 12.6882 10.5 12.3693 10.5 12C10.5 11.6308 10.7024 11.3119 11 11.1386V10H12V11.1386C12.2976 11.3118 12.5 11.6308 12.5 12C12.5 12.3692 12.2976 12.6881 12 12.8614V15.5H11Z" fill="currentColor"/>
<path d="M4.92895 8.5H6.79295L4.0095 11.2835C3.712 11.1077 3.36975 11 3 11C1.8972 11 1 11.8972 1 13C1 14.1028 1.8972 15 3 15C3.9292 15 4.7053 14.3601 4.92895 13.5H9V12.5H4.92895C4.88185 12.3184 4.8098 12.1482 4.71655 11.9905L8.20705 8.5H12V8C12 7.44875 12.4486 7 13 7C13.5514 7 14 7.44875 14 8V8.5H15V8C15 6.8972 14.1028 6 13 6C12.0708 6 11.2947 6.6399 11.071 7.5H9.20705L11.9905 4.71655C12.288 4.89235 12.6303 5 13 5C14.1028 5 15 4.1028 15 3C15 1.8972 14.1028 1 13 1C12.0708 1 11.2947 1.6399 11.071 2.5H4.92895C4.7053 1.6399 3.9292 1 3 1C1.8972 1 1 1.8972 1 3C1 4.1028 1.8972 5 3 5C3.36975 5 3.71205 4.89235 4.0095 4.71655L6.79295 7.5H4.92895C4.7053 6.6399 3.9292 6 3 6C1.8972 6 1 6.8972 1 8C1 9.1028 1.8972 10 3 10C3.9292 10 4.7053 9.3601 4.92895 8.5ZM4 8C4 8.55125 3.5514 9 3 9C2.4486 9 2 8.55125 2 8C2 7.44875 2.4486 7 3 7C3.5514 7 4 7.44875 4 8ZM3 12C3.5514 12 4 12.4488 4 13C4 13.5512 3.5514 14 3 14C2.4486 14 2 13.5512 2 13C2 12.4488 2.4486 12 3 12ZM4.92895 3.5H11.071C11.1181 3.68165 11.1902 3.8518 11.2835 4.0095L8 7.29295L4.71655 4.0095C4.8098 3.8518 4.88185 3.6816 4.92895 3.5ZM4 3C4 3.55125 3.5514 4 3 4C2.4486 4 2 3.55125 2 3C2 2.44875 2.4486 2 3 2C3.5514 2 4 2.44875 4 3ZM13 4C12.4486 4 12 3.55125 12 3C12 2.44875 12.4486 2 13 2C13.5514 2 14 2.44875 14 3C14 3.55125 13.5514 4 13 4Z" fill="currentColor"/>
</svg>
