<svg viewBox="0 0 16 17" fill="none" xmlns="http://www.w3.org/2000/svg">
<rect width="16" height="16" transform="translate(0 0.513672)" fill="white" fill-opacity="0.01" style="mix-blend-mode:multiply"/>
<path d="M13.8172 13.5136L8.8944 3.06638C8.81089 2.8994 8.68231 2.75914 8.52321 2.66146C8.36411 2.56379 8.18085 2.5126 7.99416 2.51369C7.80747 2.51478 7.62482 2.56811 7.46687 2.66765C7.30892 2.76718 7.182 2.90894 7.10045 3.07688L2.18285 13.5136H1V14.5136H15V13.5136H13.8172ZM7.995 3.50313L10.4736 8.76363L9.5 9.41258L8 8.41258L6.5 9.41258L5.52245 8.76093L7.995 3.50313ZM5.0923 9.67598L6.5 10.6147L8 9.61468L9.5 10.6147L10.9045 9.67818L12.7116 13.5136H3.2876L5.0923 9.67598Z" fill="currentColor"/>
</svg>
