<svg viewBox="0 0 16 17" fill="none" xmlns="http://www.w3.org/2000/svg">
<rect width="16" height="16" transform="translate(0 0.513672)" fill="white" fill-opacity="0.01" style="mix-blend-mode:multiply"/>
<path d="M8 10.5137C7.60444 10.5137 7.21776 10.3964 6.88886 10.1766C6.55996 9.95685 6.30362 9.64449 6.15224 9.27904C6.00087 8.91359 5.96126 8.51145 6.03843 8.12349C6.1156 7.73553 6.30608 7.37916 6.58579 7.09946C6.86549 6.81975 7.22186 6.62927 7.60982 6.5521C7.99778 6.47493 8.39991 6.51454 8.76537 6.66591C9.13082 6.81729 9.44318 7.07363 9.66294 7.40253C9.8827 7.73143 10 8.11811 10 8.51367C9.9994 9.04392 9.7885 9.55228 9.41356 9.92723C9.03861 10.3022 8.53025 10.5131 8 10.5137ZM8 7.51367C7.80222 7.51367 7.60888 7.57232 7.44443 7.6822C7.27998 7.79208 7.15181 7.94826 7.07612 8.13099C7.00043 8.31371 6.98063 8.51478 7.01921 8.70876C7.0578 8.90274 7.15304 9.08093 7.29289 9.22078C7.43275 9.36063 7.61093 9.45587 7.80491 9.49446C7.99889 9.53304 8.19996 9.51324 8.38268 9.43755C8.56541 9.36186 8.72159 9.23369 8.83147 9.06924C8.94135 8.90479 9 8.71145 9 8.51367C8.99972 8.24854 8.89428 7.99435 8.7068 7.80687C8.51932 7.6194 8.26513 7.51395 8 7.51367Z" fill="currentColor"/>
<path d="M12 12.5137H4C3.73487 12.5134 3.48068 12.4079 3.2932 12.2205C3.10572 12.033 3.00028 11.7788 3 11.5137V5.51367C3.00028 5.24854 3.10572 4.99435 3.2932 4.80687C3.48068 4.6194 3.73487 4.51395 4 4.51367H12C12.2651 4.51395 12.5193 4.6194 12.7068 4.80687C12.8943 4.99435 12.9997 5.24854 13 5.51367V11.5137C12.9997 11.7788 12.8943 12.033 12.7068 12.2205C12.5193 12.4079 12.2651 12.5134 12 12.5137ZM4 5.51367V11.5137H12V5.51367H4Z" fill="currentColor"/>
<path d="M14 14.5137H2C1.73487 14.5134 1.48068 14.4079 1.2932 14.2205C1.10572 14.033 1.00028 13.7788 1 13.5137V3.51367C1.00028 3.24854 1.10572 2.99435 1.2932 2.80687C1.48068 2.6194 1.73487 2.51395 2 2.51367H14C14.2651 2.51395 14.5193 2.6194 14.7068 2.80687C14.8943 2.99435 14.9997 3.24854 15 3.51367V13.5137C14.9997 13.7788 14.8943 14.033 14.7068 14.2205C14.5193 14.4079 14.2651 14.5134 14 14.5137ZM2 3.51367V13.5137H14V3.51367H2Z" fill="currentColor"/>
</svg>
