<svg viewBox="0 0 16 17" fill="none" xmlns="http://www.w3.org/2000/svg">
<rect width="16" height="16" transform="translate(0 0.513672)" fill="white" fill-opacity="0.01" style="mix-blend-mode:multiply"/>
<path d="M8 12.5137C7.20887 12.5137 6.43552 12.2791 5.77772 11.8396C5.11992 11.4 4.60723 10.7753 4.30448 10.0444C4.00173 9.3135 3.92252 8.50923 4.07686 7.73331C4.2312 6.95739 4.61216 6.24465 5.17157 5.68524C5.73098 5.12583 6.44371 4.74487 7.21964 4.59053C7.99556 4.43619 8.79983 4.5154 9.53073 4.81815C10.2616 5.1209 10.8864 5.63359 11.3259 6.29139C11.7654 6.94919 12 7.72255 12 8.51367C11.9988 9.57416 11.577 10.5909 10.8271 11.3408C10.0772 12.0906 9.06049 12.5125 8 12.5137ZM8 5.51367C7.40666 5.51367 6.82664 5.68962 6.33329 6.01926C5.83994 6.34891 5.45542 6.81744 5.22836 7.36562C5.0013 7.9138 4.94189 8.517 5.05764 9.09894C5.1734 9.68089 5.45912 10.2154 5.87868 10.635C6.29824 11.0546 6.83279 11.3403 7.41473 11.456C7.99667 11.5718 8.59987 11.5124 9.14805 11.2853C9.69623 11.0582 10.1648 10.6737 10.4944 10.1804C10.8241 9.68704 11 9.10702 11 8.51367C10.9991 7.71829 10.6828 6.95575 10.1203 6.39333C9.55792 5.83091 8.79538 5.51456 8 5.51367Z" fill="currentColor"/>
<path d="M15 7.51367H13.9096C13.7004 6.28767 13.1157 5.15687 12.2362 4.27742C11.3568 3.39797 10.226 2.81326 9 2.60402V1.51367H7V2.60402C5.774 2.81326 4.6432 3.39797 3.76375 4.27742C2.8843 5.15687 2.29959 6.28767 2.09035 7.51367H1V9.51367H2.09035C2.29959 10.7397 2.8843 11.8705 3.76375 12.7499C4.6432 13.6294 5.774 14.2141 7 14.4233V15.5137H9V14.4233C10.226 14.2141 11.3568 13.6294 12.2362 12.7499C13.1157 11.8705 13.7004 10.7397 13.9096 9.51367H15V7.51367ZM8 13.5137C7.01109 13.5137 6.04439 13.2204 5.22215 12.671C4.3999 12.1216 3.75904 11.3407 3.3806 10.4271C3.00216 9.51346 2.90315 8.50813 3.09607 7.53822C3.289 6.56832 3.7652 5.6774 4.46447 4.97814C5.16373 4.27888 6.05464 3.80267 7.02455 3.60975C7.99445 3.41682 8.99979 3.51584 9.91342 3.89427C10.827 4.27271 11.6079 4.91357 12.1573 5.73582C12.7068 6.55807 13 7.52477 13 8.51367C12.9985 9.83929 12.4712 11.1102 11.5339 12.0475C10.5965 12.9849 9.32562 13.5122 8 13.5137Z" fill="currentColor"/>
</svg>
