<svg viewBox="0 0 16 17" fill="none" xmlns="http://www.w3.org/2000/svg">
<rect width="16" height="16" transform="translate(0 0.513672)" fill="white" fill-opacity="0.01" style="mix-blend-mode:multiply"/>
<path d="M11.0001 14.5137H5.00008C4.91595 14.5137 4.83318 14.4925 4.75944 14.452C4.68569 14.4115 4.62334 14.3531 4.57818 14.2821L1.07818 8.78212C1.02712 8.70189 1 8.60877 1 8.51367C1 8.41857 1.02712 8.32545 1.07818 8.24522L4.57818 2.74522C4.62334 2.67425 4.68569 2.61582 4.75944 2.57535C4.83318 2.53487 4.91595 2.51366 5.00008 2.51367H11.0001C11.0842 2.51366 11.167 2.53487 11.2407 2.57535C11.3145 2.61582 11.3768 2.67425 11.422 2.74522L14.922 8.24522C14.973 8.32545 15.0002 8.41857 15.0002 8.51367C15.0002 8.60877 14.973 8.70189 14.922 8.78212L11.422 14.2821C11.3768 14.3531 11.3145 14.4115 11.2407 14.452C11.167 14.4925 11.0842 14.5137 11.0001 14.5137ZM5.27448 13.5137H10.7257L13.9073 8.51367L10.7257 3.51367H5.27448L2.09283 8.51367L5.27448 13.5137Z" fill="currentColor"/>
<path d="M9.75008 12.5137H6.25008C6.16635 12.5137 6.08396 12.4926 6.01047 12.4525C5.93698 12.4124 5.87473 12.3545 5.82943 12.2841L3.57943 8.78407C3.52767 8.70338 3.50015 8.60953 3.50015 8.51367C3.50015 8.41781 3.52767 8.32396 3.57943 8.24327L5.82943 4.74327C5.87473 4.67286 5.93698 4.61494 6.01047 4.57482C6.08396 4.53471 6.16635 4.51368 6.25008 4.51367H9.75008C9.83381 4.51368 9.91619 4.53471 9.98969 4.57482C10.0632 4.61494 10.1254 4.67286 10.1707 4.74327L12.4207 8.24327C12.4725 8.32396 12.5 8.41781 12.5 8.51367C12.5 8.60953 12.4725 8.70338 12.4207 8.78407L10.1707 12.2841C10.1254 12.3545 10.0632 12.4124 9.98969 12.4525C9.91619 12.4926 9.83381 12.5137 9.75008 12.5137ZM6.52303 11.5137H9.47713L11.4056 8.51367L9.47713 5.51367H6.52303L4.59458 8.51367L6.52303 11.5137Z" fill="currentColor"/>
</svg>
