<svg viewBox="0 0 16 17" fill="none" xmlns="http://www.w3.org/2000/svg">
<rect width="16" height="16" transform="translate(0 0.513672)" fill="white" fill-opacity="0.01" style="mix-blend-mode:multiply"/>
<path d="M8 15.5137C6.61553 15.5137 5.26216 15.1031 4.11101 14.334C2.95987 13.5648 2.06266 12.4715 1.53285 11.1925C1.00303 9.91338 0.86441 8.50591 1.13451 7.14804C1.4046 5.79018 2.07129 4.54289 3.05026 3.56393C4.02922 2.58496 5.2765 1.91827 6.63437 1.64818C7.99224 1.37808 9.3997 1.5167 10.6788 2.04652C11.9579 2.57633 13.0511 3.47354 13.8203 4.62468C14.5895 5.77583 15 7.12921 15 8.51368C14.9979 10.3695 14.2597 12.1488 12.9474 13.4611C11.6351 14.7734 9.85588 15.5116 8 15.5137ZM8 2.51368C6.81332 2.51368 5.65328 2.86557 4.66658 3.52486C3.67989 4.18415 2.91085 5.12122 2.45673 6.21757C2.0026 7.31393 1.88378 8.52033 2.11529 9.68422C2.3468 10.8481 2.91825 11.9172 3.75736 12.7563C4.59648 13.5954 5.66558 14.1669 6.82946 14.3984C7.99335 14.6299 9.19975 14.5111 10.2961 14.057C11.3925 13.6028 12.3295 12.8338 12.9888 11.8471C13.6481 10.8604 14 9.70036 14 8.51368C13.9982 6.92293 13.3655 5.39786 12.2406 4.27304C11.1158 3.14821 9.59075 2.51549 8 2.51368Z" fill="currentColor"/>
<path d="M8 12.5137C7.20888 12.5137 6.43552 12.2791 5.77772 11.8396C5.11993 11.4 4.60724 10.7753 4.30449 10.0444C4.00173 9.31351 3.92252 8.50924 4.07686 7.73331C4.2312 6.95739 4.61217 6.24466 5.17158 5.68525C5.73099 5.12584 6.44372 4.74487 7.21964 4.59053C7.99557 4.43619 8.79983 4.51541 9.53074 4.81816C10.2616 5.12091 10.8864 5.6336 11.3259 6.29139C11.7654 6.94919 12 7.72255 12 8.51368C11.9988 9.57417 11.577 10.5909 10.8271 11.3408C10.0772 12.0906 9.0605 12.5125 8 12.5137ZM8 5.51368C7.40666 5.51368 6.82664 5.68962 6.33329 6.01927C5.83995 6.34891 5.45543 6.81745 5.22836 7.36562C5.0013 7.9138 4.94189 8.517 5.05765 9.09895C5.1734 9.68089 5.45913 10.2154 5.87868 10.635C6.29824 11.0546 6.83279 11.3403 7.41473 11.456C7.99668 11.5718 8.59988 11.5124 9.14805 11.2853C9.69623 11.0583 10.1648 10.6737 10.4944 10.1804C10.8241 9.68704 11 9.10702 11 8.51368C10.9991 7.7183 10.6828 6.95575 10.1203 6.39333C9.55793 5.83092 8.79538 5.51456 8 5.51368Z" fill="currentColor"/>
<path d="M8 9.51367C8.55229 9.51367 9 9.06596 9 8.51368C9 7.96139 8.55229 7.51368 8 7.51368C7.44772 7.51368 7 7.96139 7 8.51368C7 9.06596 7.44772 9.51367 8 9.51367Z" fill="currentColor"/>
</svg>
