<svg viewBox="0 0 16 17" fill="none" xmlns="http://www.w3.org/2000/svg">
<rect width="16" height="16" transform="translate(0 0.513672)" fill="white" fill-opacity="0.01" style="mix-blend-mode:multiply"/>
<path d="M13.5 10.7212L12.793 10.0137L11.5 11.3072L10.207 10.0137L9.5 10.7212L10.793 12.0137L9.5 13.3067L10.207 14.0137L11.5 12.7207L12.793 14.0137L13.5 13.3067L12.207 12.0137L13.5 10.7212Z" fill="currentColor"/>
<path d="M12 2.51367C11.4698 2.51427 10.9614 2.72517 10.5864 3.10012C10.2115 3.47506 10.0006 3.98342 10 4.51367C10.0018 4.86956 10.0998 5.21835 10.2835 5.52317L5.0095 10.7971C4.70467 10.6135 4.35589 10.5155 4 10.5137C3.60444 10.5137 3.21776 10.631 2.88886 10.8507C2.55996 11.0705 2.30362 11.3829 2.15224 11.7483C2.00087 12.1138 1.96126 12.5159 2.03843 12.9039C2.1156 13.2918 2.30608 13.6482 2.58579 13.9279C2.86549 14.2076 3.22186 14.3981 3.60982 14.4752C3.99778 14.5524 4.39992 14.5128 4.76537 14.3614C5.13082 14.2101 5.44318 13.9537 5.66294 13.6248C5.8827 13.2959 6 12.9092 6 12.5137C5.99818 12.1578 5.90024 11.809 5.71655 11.5042L10.9905 6.23022C11.2953 6.41389 11.6441 6.51182 12 6.51367C12.5304 6.51367 13.0391 6.30296 13.4142 5.92789C13.7893 5.55281 14 5.0441 14 4.51367C14 3.98324 13.7893 3.47453 13.4142 3.09946C13.0391 2.72439 12.5304 2.51367 12 2.51367ZM4 13.5137C3.80222 13.5137 3.60888 13.455 3.44443 13.3451C3.27998 13.2353 3.15181 13.0791 3.07612 12.8964C3.00043 12.7136 2.98063 12.5126 3.01922 12.3186C3.0578 12.1246 3.15304 11.9464 3.29289 11.8066C3.43275 11.6667 3.61093 11.5715 3.80491 11.5329C3.99889 11.4943 4.19996 11.5141 4.38268 11.5898C4.56541 11.6655 4.72159 11.7937 4.83147 11.9581C4.94135 12.1226 5 12.3159 5 12.5137C4.9997 12.7788 4.89424 13.033 4.70677 13.2204C4.5193 13.4079 4.26512 13.5134 4 13.5137ZM12 5.51367C11.8022 5.51367 11.6089 5.45502 11.4444 5.34514C11.28 5.23526 11.1518 5.07908 11.0761 4.89636C11.0004 4.71363 10.9806 4.51256 11.0192 4.31858C11.0578 4.1246 11.153 3.94642 11.2929 3.80657C11.4327 3.66671 11.6109 3.57147 11.8049 3.53289C11.9989 3.4943 12.2 3.5141 12.3827 3.58979C12.5654 3.66548 12.7216 3.79365 12.8315 3.9581C12.9414 4.12255 13 4.31589 13 4.51367C12.9997 4.77879 12.8942 5.03297 12.7068 5.22044C12.5193 5.40791 12.2651 5.51337 12 5.51367Z" fill="currentColor"/>
<path d="M4 6.10375L2.705 4.80875L2 5.51375L4 7.51375L7.5 4.01375L6.795 3.30875L4 6.10375Z" fill="currentColor"/>
</svg>
