<svg viewBox="0 0 16 17" fill="none" xmlns="http://www.w3.org/2000/svg">
<g clip-path="url(#clip0_1961_10598)">
<rect width="16" height="16" transform="translate(0 0.513672)" fill="white" fill-opacity="0.01" style="mix-blend-mode:multiply"/>
<path d="M11 12.0137H6.91504L8.20504 10.7187L7.50004 10.0137L5.00004 12.5137L7.50004 15.0137L8.20504 14.3087L6.91504 13.0137H11V12.0137Z" fill="currentColor"/>
<path d="M5.50004 7.01369H9.58504L8.29504 5.71869L9.00004 5.01369L11.5 7.51369L9.00004 10.0137L8.29504 9.30869L9.58504 8.01369H5.50004V7.01369Z" fill="currentColor"/>
<path d="M12.25 13.0137H12V12.0137H12.25C12.9628 12.0142 13.6479 11.7376 14.1607 11.2425C14.6735 10.7473 14.9738 10.0723 14.9983 9.35994C15.0227 8.64755 14.7694 7.95353 14.2918 7.42438C13.8142 6.89523 13.1497 6.57237 12.4385 6.52394L12.0203 6.49564L11.9753 6.07864C11.8684 5.09898 11.4035 4.19329 10.6698 3.53534C9.93618 2.87739 8.98541 2.5135 7.99994 2.5135C7.01446 2.5135 6.06369 2.87739 5.33003 3.53534C4.59637 4.19329 4.13149 5.09898 4.02459 6.07864L3.97959 6.49564L3.56134 6.52394C2.85015 6.57237 2.18562 6.89525 1.70801 7.42442C1.23041 7.95359 0.977117 8.64764 1.00161 9.36004C1.02609 10.0725 1.32645 10.7475 1.83926 11.2426C2.35207 11.7377 3.03721 12.0142 3.75004 12.0137H4.00004V13.0137H3.75004C2.81306 13.0141 1.9099 12.6637 1.21851 12.0313C0.527117 11.3989 0.0976444 10.5305 0.0147169 9.59723C-0.0682105 8.66393 0.201422 7.73342 0.770483 6.98905C1.33954 6.24469 2.16676 5.74044 3.08914 5.57569C3.30729 4.43303 3.91707 3.40221 4.81347 2.66077C5.70986 1.91933 6.83674 1.51367 8.00004 1.51367C9.16333 1.51367 10.2902 1.91933 11.1866 2.66077C12.083 3.40221 12.6928 4.43303 12.9109 5.57569C13.8333 5.74044 14.6605 6.24469 15.2296 6.98905C15.7986 7.73342 16.0683 8.66393 15.9854 9.59723C15.9024 10.5305 15.473 11.3989 14.7816 12.0313C14.0902 12.6637 13.187 13.0141 12.25 13.0137Z" fill="currentColor"/>
</g>
<defs>
<clipPath id="clip0_1961_10598">
<rect width="16" height="16" fill="white" transform="translate(0 0.513672)"/>
</clipPath>
</defs>
</svg>
