<svg viewBox="0 0 16 17" fill="none" xmlns="http://www.w3.org/2000/svg">
<rect width="16" height="16" transform="translate(0 0.513672)" fill="white" fill-opacity="0.01" style="mix-blend-mode:multiply"/>
<path d="M11.25 7.01367C8.9 7.01367 7 8.91367 7 11.2637C7 13.6137 8.9 15.5137 11.25 15.5137C13.6 15.5137 15.5 13.6137 15.5 11.2637C15.5 8.91367 13.6 7.01367 11.25 7.01367ZM14.5 11.0137H13C13 10.0137 12.85 9.01367 12.55 8.26367C13.6 8.76367 14.4 9.76367 14.5 11.0137ZM11.25 14.5137C11.05 14.4137 10.6 13.6137 10.5 12.0137H11.95C11.85 13.6137 11.45 14.4137 11.25 14.5137ZM10.5 11.0137C10.55 9.11367 11.05 8.11367 11.2 8.01367C11.4 8.11367 11.9 9.11367 11.95 11.0137H10.5ZM9.95 8.26367C9.65 9.01367 9.55 10.0137 9.5 11.0137H8C8.1 9.76367 8.9 8.76367 9.95 8.26367ZM8.1 12.0137H9.5C9.55 12.8137 9.7 13.6137 9.95 14.2637C9.05 13.8637 8.35 13.0137 8.1 12.0137ZM12.55 14.2637C12.8 13.6137 12.95 12.8637 13 12.0137H14.45C14.15 13.0137 13.45 13.8637 12.55 14.2637Z" fill="currentColor"/>
<path d="M12.9 5.51367C12.45 3.21367 10.4 1.51367 8 1.51367C5.6 1.51367 3.55 3.21367 3.1 5.56367C1.35 5.91367 0 7.41367 0 9.26367C0 11.3137 1.7 13.0137 3.75 13.0137H5.5V12.0137H3.75C2.25 12.0137 1 10.7637 1 9.26367C1 7.81367 2.1 6.61367 3.55 6.51367H4V6.06367C4.25 4.06367 5.95 2.51367 8 2.51367C9.85 2.51367 11.4 3.81367 11.85 5.51367H12.9Z" fill="currentColor"/>
</svg>
