<svg viewBox="0 0 16 16" fill="none" xmlns="http://www.w3.org/2000/svg">
<rect width="16" height="16" fill="white" fill-opacity="0.01" style="mix-blend-mode:multiply"/>
<path d="M8.50022 8.5H11.0713C11.193 8.97133 11.4824 9.3821 11.8853 9.65531C12.2882 9.92851 12.7769 10.0454 13.2598 9.98406C13.7427 9.92273 14.1866 9.68737 14.5084 9.32212C14.8302 8.95687 15.0078 8.48679 15.0078 8C15.0078 7.51322 14.8302 7.04314 14.5084 6.67789C14.1866 6.31264 13.7427 6.07728 13.2598 6.01595C12.7769 5.95461 12.2882 6.0715 11.8853 6.3447C11.4824 6.61791 11.193 7.02868 11.0713 7.5H8.50022V3.5H11.0713C11.193 3.97133 11.4824 4.3821 11.8853 4.65531C12.2882 4.92851 12.7769 5.0454 13.2598 4.98406C13.7427 4.92273 14.1866 4.68737 14.5084 4.32212C14.8302 3.95687 15.0078 3.48679 15.0078 3C15.0078 2.51322 14.8302 2.04314 14.5084 1.67789C14.1866 1.31264 13.7427 1.07728 13.2598 1.01595C12.7769 0.954608 12.2882 1.0715 11.8853 1.3447C11.4824 1.61791 11.193 2.02868 11.0713 2.5H8.50022C8.23509 2.50031 7.98092 2.60576 7.79345 2.79323C7.60598 2.9807 7.50052 3.23488 7.50022 3.5V7.5H4.92917C4.80747 7.02868 4.51805 6.61791 4.11516 6.3447C3.71227 6.0715 3.22357 5.95461 2.74067 6.01595C2.25776 6.07728 1.8138 6.31264 1.49201 6.67789C1.17021 7.04314 0.992676 7.51322 0.992676 8C0.992676 8.48679 1.17021 8.95687 1.49201 9.32212C1.8138 9.68737 2.25776 9.92273 2.74067 9.98406C3.22357 10.0454 3.71227 9.92851 4.11516 9.65531C4.51805 9.3821 4.80747 8.97133 4.92917 8.5H7.50022V12.5C7.50052 12.7651 7.60598 13.0193 7.79345 13.2068C7.98092 13.3942 8.23509 13.4997 8.50022 13.5H11.0713C11.193 13.9713 11.4824 14.3821 11.8853 14.6553C12.2882 14.9285 12.7769 15.0454 13.2598 14.9841C13.7427 14.9227 14.1866 14.6874 14.5084 14.3221C14.8302 13.9569 15.0078 13.4868 15.0078 13C15.0078 12.5132 14.8302 12.0431 14.5084 11.6779C14.1866 11.3126 13.7427 11.0773 13.2598 11.0159C12.7769 10.9546 12.2882 11.0715 11.8853 11.3447C11.4824 11.6179 11.193 12.0287 11.0713 12.5H8.50022V8.5ZM13.0002 7C13.198 7 13.3913 7.05865 13.5558 7.16854C13.7202 7.27842 13.8484 7.4346 13.9241 7.61732C13.9998 7.80005 14.0196 8.00111 13.981 8.1951C13.9424 8.38908 13.8472 8.56726 13.7073 8.70711C13.5675 8.84696 13.3893 8.9422 13.1953 8.98079C13.0013 9.01938 12.8003 8.99957 12.6175 8.92388C12.4348 8.8482 12.2786 8.72002 12.1687 8.55558C12.0589 8.39113 12.0002 8.19779 12.0002 8C12.0005 7.73488 12.106 7.4807 12.2934 7.29323C12.4809 7.10576 12.7351 7.00031 13.0002 7V7ZM13.0002 2C13.198 2 13.3913 2.05865 13.5558 2.16854C13.7202 2.27842 13.8484 2.4346 13.9241 2.61732C13.9998 2.80005 14.0196 3.00111 13.981 3.1951C13.9424 3.38908 13.8472 3.56726 13.7073 3.70711C13.5675 3.84696 13.3893 3.9422 13.1953 3.98079C13.0013 4.01938 12.8003 3.99957 12.6175 3.92388C12.4348 3.8482 12.2786 3.72002 12.1687 3.55557C12.0589 3.39113 12.0002 3.19779 12.0002 3C12.0005 2.73488 12.106 2.4807 12.2934 2.29323C12.4809 2.10576 12.7351 2.00031 13.0002 2V2ZM3.00022 9C2.80244 9 2.6091 8.94136 2.44465 8.83147C2.2802 8.72159 2.15203 8.56541 2.07634 8.38269C2.00065 8.19996 1.98085 7.9989 2.01943 7.80491C2.05802 7.61093 2.15326 7.43275 2.29311 7.2929C2.43296 7.15305 2.61115 7.0578 2.80513 7.01922C2.99911 6.98063 3.20017 7.00044 3.3829 7.07613C3.56563 7.15181 3.72181 7.27999 3.83169 7.44443C3.94157 7.60888 4.00022 7.80222 4.00022 8C3.99991 8.26513 3.89446 8.51931 3.70699 8.70678C3.51952 8.89425 3.26534 8.9997 3.00022 9V9ZM13.0002 12C13.198 12 13.3913 12.0587 13.5558 12.1685C13.7202 12.2784 13.8484 12.4346 13.9241 12.6173C13.9998 12.8 14.0196 13.0011 13.981 13.1951C13.9424 13.3891 13.8472 13.5673 13.7073 13.7071C13.5675 13.847 13.3893 13.9422 13.1953 13.9808C13.0013 14.0194 12.8003 13.9996 12.6175 13.9239C12.4348 13.8482 12.2786 13.72 12.1687 13.5556C12.0589 13.3911 12.0002 13.1978 12.0002 13C12.0005 12.7349 12.106 12.4807 12.2934 12.2932C12.4809 12.1058 12.7351 12.0003 13.0002 12Z" fill="currentColor"/>
</svg>
