<svg viewBox="0 0 16 17" fill="none" xmlns="http://www.w3.org/2000/svg">
<rect width="16" height="16" transform="translate(0 0.513672)" fill="white" fill-opacity="0.01" style="mix-blend-mode:multiply"/>
<path d="M13 8.80662V7.01367C12.9996 6.23105 12.8139 5.45964 12.4584 4.76247L15 2.22072L14.2929 1.51367L1 14.8066L1.70705 15.5137L4.70705 12.5137H5.5V13.0137C5.5 13.6767 5.76339 14.3126 6.23223 14.7814C6.70107 15.2503 7.33696 15.5137 8 15.5137C8.66304 15.5137 9.29893 15.2503 9.76777 14.7814C10.2366 14.3126 10.5 13.6767 10.5 13.0137V12.5137H14C14.1326 12.5137 14.2598 12.461 14.3536 12.3672C14.4473 12.2735 14.5 12.1463 14.5 12.0137V10.5137C14.5 10.3811 14.4473 10.2539 14.3535 10.1602L13 8.80662ZM9.5 13.0137C9.5 13.4115 9.34196 13.793 9.06066 14.0743C8.77936 14.3556 8.39782 14.5137 8 14.5137C7.60218 14.5137 7.22064 14.3556 6.93934 14.0743C6.65804 13.793 6.5 13.4115 6.5 13.0137V12.5137H9.5V13.0137ZM13.5 11.5137H5.70705L11.7059 5.51487C11.8999 5.99076 11.9998 6.49976 12 7.01367V9.01367C12 9.14627 12.0527 9.27343 12.1465 9.36717L13.5 10.7207V11.5137Z" fill="currentColor"/>
<path d="M3.8535 9.36717C3.94727 9.27343 3.99997 9.14627 4 9.01367V7.01367C4.00122 5.95318 4.42304 4.93647 5.17292 4.18659C5.9228 3.43671 6.93951 3.01489 8 3.01367C8.90768 3.01415 9.78767 3.32623 10.4929 3.89772L11.206 3.18457C10.4402 2.53855 9.4969 2.13924 8.5 2.03907V1.01367H7.5V2.03907C6.26734 2.16449 5.12496 2.74251 4.29377 3.66137C3.46257 4.58023 3.0016 5.77465 3 7.01367V8.80662L1.5 10.3066L2.20705 11.0137L3.8535 9.36717Z" fill="currentColor"/>
</svg>
