<svg viewBox="0 0 16 17" fill="none" xmlns="http://www.w3.org/2000/svg">
<rect width="16" height="16" transform="translate(0 0.513672)" fill="white" fill-opacity="0.01" style="mix-blend-mode:multiply"/>
<path d="M13 8.80662V7.51367H12V9.01367C12 9.14627 12.0527 9.27343 12.1465 9.36717L13.5 10.7207V11.5137H2.5V10.7207L3.8535 9.36717C3.94727 9.27343 3.99997 9.14627 4 9.01367V7.01367C3.99871 6.31111 4.18283 5.62065 4.53375 5.01202C4.88468 4.40338 5.38999 3.89811 5.99866 3.54724C6.60733 3.19637 7.2978 3.01231 8.00036 3.01366C8.70292 3.01501 9.39268 3.20171 10 3.55492V2.43702C9.52404 2.2263 9.01782 2.092 8.5 2.03907V1.01367H7.5V2.03907C6.26734 2.16449 5.12496 2.74251 4.29377 3.66137C3.46257 4.58023 3.0016 5.77465 3 7.01367V8.80662L1.6465 10.1602C1.55273 10.2539 1.50003 10.3811 1.5 10.5137V12.0137C1.5 12.1463 1.55268 12.2735 1.64645 12.3672C1.74021 12.461 1.86739 12.5137 2 12.5137H5.5V13.0137C5.5 13.6767 5.76339 14.3126 6.23223 14.7814C6.70107 15.2503 7.33696 15.5137 8 15.5137C8.66304 15.5137 9.29893 15.2503 9.76777 14.7814C10.2366 14.3126 10.5 13.6767 10.5 13.0137V12.5137H14C14.1326 12.5137 14.2598 12.461 14.3536 12.3672C14.4473 12.2735 14.5 12.1463 14.5 12.0137V10.5137C14.5 10.3811 14.4473 10.2539 14.3535 10.1602L13 8.80662ZM9.5 13.0137C9.5 13.4115 9.34196 13.793 9.06066 14.0743C8.77936 14.3556 8.39782 14.5137 8 14.5137C7.60218 14.5137 7.22064 14.3556 6.93934 14.0743C6.65804 13.793 6.5 13.4115 6.5 13.0137V12.5137H9.5V13.0137Z" fill="currentColor"/>
<path d="M13 6.51367C14.1046 6.51367 15 5.61824 15 4.51367C15 3.4091 14.1046 2.51367 13 2.51367C11.8954 2.51367 11 3.4091 11 4.51367C11 5.61824 11.8954 6.51367 13 6.51367Z" fill="currentColor"/>
</svg>
