<svg viewBox="0 0 16 16" fill="none" xmlns="http://www.w3.org/2000/svg">
<rect width="16" height="16" fill="white" fill-opacity="0.01" style="mix-blend-mode:multiply"/>
<path d="M11 13.0002H8V10.0002H10V9.00018H8V8.00018H11V11.0002H9V12.0002H11V13.0002Z" fill="currentColor"/>
<path d="M12.85 4.65018L9.35 1.15018C9.30601 1.10132 9.25192 1.0626 9.19149 1.0367C9.13106 1.0108 9.06572 0.998339 9 1.00018H4C3.73502 1.00096 3.48112 1.10656 3.29375 1.29393C3.10638 1.4813 3.00078 1.7352 3 2.00018V14.0002C3.00078 14.2652 3.10638 14.5191 3.29375 14.7064C3.48112 14.8938 3.73502 14.9994 4 15.0002H12C12.265 14.9994 12.5189 14.8938 12.7062 14.7064C12.8936 14.5191 12.9992 14.2652 13 14.0002V5.00018C13.0018 4.93446 12.9894 4.86912 12.9635 4.80869C12.9376 4.74826 12.8989 4.69417 12.85 4.65018ZM9 2.20018L11.8 5.00018H9V2.20018ZM12 14.0002H4V2.00018H8V5.00018C8.00078 5.26515 8.10638 5.51906 8.29375 5.70642C8.48112 5.89379 8.73502 5.9994 9 6.00018H12V14.0002Z" fill="currentColor"/>
</svg>
