<svg viewBox="0 0 16 17" fill="none" xmlns="http://www.w3.org/2000/svg">
<rect width="16" height="16" transform="translate(0 0.513672)" fill="white" fill-opacity="0.01" style="mix-blend-mode:multiply"/>
<path d="M9.285 14.5137C8.9485 13.8762 8 11.6267 8 6.51367V6.44802L8.5586 6.82032C9.00239 7.11552 9.36625 7.51593 9.61775 7.98587C9.86925 8.45581 10.0006 8.98067 10 9.51367H11C11.0008 8.81601 10.8289 8.12899 10.4997 7.51387C10.1705 6.89876 9.69421 6.37465 9.1133 5.98827L8.40135 5.51367H9.16675C9.92381 5.51511 10.6602 5.76058 11.2668 6.21367L12.2 6.91367L12.8 6.11367L11.8667 5.41367C11.0868 4.8314 10.14 4.51582 9.1667 4.51367H8.5586C9.21171 3.87602 10.0872 3.5174 11 3.51367H12V2.51367H11C10.3282 2.51619 9.6655 2.66849 9.06003 2.95949C8.45457 3.25048 7.92162 3.67285 7.5 4.19582C7.07838 3.67285 6.54543 3.25048 5.93997 2.95949C5.3345 2.66849 4.67176 2.51619 4 2.51367H3V3.51367H4C4.91277 3.5174 5.78829 3.87602 6.4414 4.51367H5.83325C4.85993 4.51582 3.91319 4.8314 3.13325 5.41367L2.2 6.11367L2.8 6.91367L3.7334 6.21367C4.33991 5.76058 5.07634 5.51511 5.8334 5.51367H6.5988L5.88685 5.98827C5.30592 6.37463 4.82961 6.89873 4.50039 7.51385C4.17116 8.12897 3.99926 8.81599 4 9.51367H5C4.99943 8.98067 5.13075 8.45581 5.38225 7.98587C5.63375 7.51593 5.99761 7.11552 6.4414 6.82032L7 6.44802V6.51367C7 10.9856 7.7058 13.396 8.18055 14.5137H1V15.5137H15V14.5137H9.285Z" fill="currentColor"/>
</svg>
