<svg viewBox="0 0 16 16" fill="none" xmlns="http://www.w3.org/2000/svg">
<rect width="16" height="16" fill="white" fill-opacity="0.01" style="mix-blend-mode:multiply"/>
<path d="M13 9.5C11.8972 9.5 11 10.3972 11 11.5C11 11.8418 11.0941 12.1587 11.2458 12.4404C10.3077 13.1267 9.17285 13.5 8 13.5C4.9673 13.5 2.5 11.0327 2.5 8H1.5C1.5 11.584 4.4159 14.5 8 14.5C9.42275 14.5 10.7961 14.032 11.9216 13.1792C12.2334 13.3802 12.6023 13.5 13 13.5C14.1028 13.5 15 12.6028 15 11.5C15 10.3972 14.1028 9.5 13 9.5ZM13 12.5C12.4486 12.5 12 12.0512 12 11.5C12 10.9488 12.4486 10.5 13 10.5C13.5514 10.5 14 10.9488 14 11.5C14 12.0512 13.5514 12.5 13 12.5Z" fill="currentColor"/>
<path d="M8 1.5C6.57725 1.5 5.20385 1.968 4.07835 2.8208C3.7666 2.61985 3.3977 2.5 3 2.5C1.8972 2.5 1 3.3972 1 4.5C1 5.6028 1.8972 6.5 3 6.5C4.1028 6.5 5 5.6028 5 4.5C5 4.1582 4.9059 3.8413 4.75415 3.55955C5.69225 2.87325 6.82715 2.5 8 2.5C11.0327 2.5 13.5 4.9673 13.5 8H14.5C14.5 4.416 11.5841 1.5 8 1.5ZM3 5.5C2.4486 5.5 2 5.05125 2 4.5C2 3.94875 2.4486 3.5 3 3.5C3.5514 3.5 4 3.94875 4 4.5C4 5.05125 3.5514 5.5 3 5.5Z" fill="currentColor"/>
</svg>
