<svg viewBox="0 0 16 17" fill="none" xmlns="http://www.w3.org/2000/svg">
<rect width="16" height="16" transform="translate(0 0.513672)" fill="white" fill-opacity="0.01" style="mix-blend-mode:multiply"/>
<path d="M10.4168 8.91772C9.1964 8.91772 8.5 9.37342 8.5 10.2931C8.5 11.0924 9.01575 11.6169 9.927 11.6169C10.5974 11.6169 11.0875 11.316 11.2335 10.74H11.2852C11.3538 11.2042 11.646 11.5137 12.1189 11.5137H12.7291V10.637H12.2822V8.52237C12.2822 7.49942 11.6377 6.92342 10.4256 6.92342C9.52295 6.92342 8.9986 7.26737 8.6719 7.78312L9.3253 8.36757C9.5401 8.05812 9.8325 7.80037 10.348 7.80037C10.9327 7.80037 11.182 8.09257 11.182 8.59122V8.91777L10.4168 8.91772ZM11.182 10.1727C11.182 10.594 10.7866 10.8174 10.2968 10.8174C9.8667 10.8174 9.61745 10.637 9.61745 10.2757V10.1297C9.61745 9.77732 9.9014 9.57962 10.4771 9.57962H11.182L11.182 10.1727Z" fill="currentColor"/>
<path d="M4.636 9.22717H6.20035C7.30935 9.22717 7.97975 8.48792 7.97975 7.37052C7.97975 6.26147 7.30935 5.51367 6.20035 5.51367H3.5013V11.5137H4.636V9.22717ZM4.636 6.50212H6.09725C6.5356 6.50212 6.80215 6.73422 6.80215 7.17282V7.56822C6.80215 8.00657 6.5356 8.24722 6.09725 8.24722H4.636V6.50212Z" fill="currentColor"/>
<path d="M1 2.51367V14.5137C1 15.066 1.4477 15.5137 2 15.5137H14C14.5523 15.5137 15 15.066 15 14.5137V2.51367C15 1.96137 14.5523 1.51367 14 1.51367H2C1.4477 1.51367 1 1.96137 1 2.51367ZM14 14.5137H2V2.51367H14V14.5137Z" fill="currentColor"/>
</svg>
