<svg viewBox="0 0 16 17" fill="none" xmlns="http://www.w3.org/2000/svg">
<g clip-path="url(#clip0_1961_11352)">
<rect width="16" height="16" transform="translate(0 0.513672)" fill="white" fill-opacity="0.01" style="mix-blend-mode:multiply"/>
<path d="M15.0002 2.51367V1.51367H11.0002V2.51367C11.001 2.95604 11.1488 3.3856 11.4203 3.73483C11.6918 4.08406 12.0717 4.33316 12.5002 4.44297V6.01367H11.5002V7.01367H14.5002V6.01367H13.5002V4.44297C13.9288 4.33316 14.3086 4.08406 14.5802 3.73483C14.8517 3.3856 14.9995 2.95604 15.0002 2.51367Z" fill="currentColor"/>
<path d="M5.25024 5.01367C4.90412 5.01367 4.56578 4.91104 4.27799 4.71874C3.99021 4.52645 3.7659 4.25314 3.63345 3.93337C3.501 3.6136 3.46634 3.26173 3.53387 2.92226C3.60139 2.5828 3.76806 2.27098 4.0128 2.02624C4.25754 1.78149 4.56936 1.61482 4.90883 1.5473C5.2483 1.47977 5.60017 1.51443 5.91994 1.64688C6.23971 1.77934 6.51302 2.00364 6.70531 2.29142C6.8976 2.57921 7.00024 2.91756 7.00024 3.26367C6.99968 3.72763 6.81513 4.17243 6.48706 4.5005C6.15899 4.82856 5.7142 5.01312 5.25024 5.01367ZM5.25024 2.51367C5.1019 2.51367 4.9569 2.55766 4.83356 2.64007C4.71023 2.72248 4.6141 2.83962 4.55733 2.97666C4.50056 3.1137 4.48571 3.2645 4.51465 3.40999C4.54359 3.55548 4.61502 3.68911 4.71991 3.794C4.8248 3.89889 4.95844 3.97032 5.10392 3.99926C5.24941 4.0282 5.40021 4.01335 5.53725 3.95658C5.6743 3.89982 5.79143 3.80369 5.87384 3.68035C5.95625 3.55701 6.00024 3.41201 6.00024 3.26367C6.00001 3.06483 5.92093 2.87419 5.78032 2.73359C5.63972 2.59299 5.44908 2.5139 5.25024 2.51367Z" fill="currentColor"/>
<path d="M11.2375 16.1702L9.67064 12.5137H6.11989C5.67916 12.5132 5.2509 12.3674 4.90142 12.0988C4.55194 11.8303 4.30075 11.4541 4.18674 11.0283L3.36989 7.96532C3.23667 7.46578 3.30735 6.93378 3.56638 6.48635C3.82541 6.03892 4.25157 5.71272 4.75111 5.5795C5.25066 5.44628 5.78266 5.51696 6.23009 5.77599C6.67752 6.03502 7.00372 6.46118 7.13694 6.96072L7.55104 8.51367H10.5002V9.51367H6.78249L6.17114 7.21827C6.10218 6.97944 5.94235 6.77716 5.72595 6.65482C5.50955 6.53248 5.25382 6.49984 5.01363 6.5639C4.77343 6.62795 4.56792 6.78361 4.44118 6.99746C4.31443 7.21131 4.27656 7.46632 4.33569 7.70777L5.15259 10.7705C5.20965 10.9835 5.33535 11.1718 5.51022 11.3061C5.68509 11.4405 5.89937 11.5134 6.11989 11.5137H10.3299L12.157 15.7764L11.2375 16.1702Z" fill="currentColor"/>
<path d="M9.00024 14.5137H3.88439C3.66408 14.5135 3.44998 14.4406 3.27528 14.3064C3.10059 14.1721 2.97504 13.984 2.91809 13.7712L1.01709 6.64247L1.98339 6.38487L3.88439 13.5137H9.00024V14.5137Z" fill="currentColor"/>
</g>
<defs>
<clipPath id="clip0_1961_11352">
<rect width="16" height="16" fill="white" transform="translate(0 0.513672)"/>
</clipPath>
</defs>
</svg>
