<svg viewBox="0 0 16 17" fill="none" xmlns="http://www.w3.org/2000/svg">
<rect width="16" height="16" transform="translate(0 0.513672)" fill="white" fill-opacity="0.01" style="mix-blend-mode:multiply"/>
<path d="M10 15.5137H8.5C8.23487 15.5134 7.98068 15.4079 7.7932 15.2205C7.60572 15.033 7.50028 14.7788 7.5 14.5137V12.0137H8.5V14.5137H10V12.0137H11V10.0137C10.9999 9.88111 10.9471 9.75402 10.8534 9.66028C10.7597 9.56654 10.6326 9.51382 10.5 9.51367H6.13965L5.13965 6.51367H2C1.86744 6.51382 1.74034 6.56654 1.64661 6.66028C1.55287 6.75402 1.50015 6.88111 1.5 7.01367V10.0137H2.5V14.5137H4.5V11.0137H5.5V14.5137C5.49972 14.7788 5.39428 15.033 5.2068 15.2205C5.01932 15.4079 4.76513 15.5134 4.5 15.5137H2.5C2.23487 15.5134 1.98068 15.4079 1.7932 15.2205C1.60572 15.033 1.50028 14.7788 1.5 14.5137V11.0137C1.23487 11.0134 0.980676 10.9079 0.7932 10.7205C0.605724 10.533 0.500278 10.2788 0.5 10.0137V7.01367C0.500437 6.61598 0.658612 6.23471 0.939822 5.9535C1.22103 5.67229 1.60231 5.51411 2 5.51367H5.13965C5.34957 5.5135 5.55421 5.57946 5.72452 5.70219C5.89483 5.82492 6.02215 5.99818 6.0884 6.19737L6.86035 8.51367H10.5C10.8977 8.51411 11.279 8.67228 11.5602 8.95349C11.8414 9.2347 11.9996 9.61598 12 10.0137V12.0137C11.9997 12.2788 11.8943 12.533 11.7068 12.7205C11.5193 12.9079 11.2651 13.0134 11 13.0137V14.5137C10.9997 14.7788 10.8943 15.033 10.7068 15.2205C10.5193 15.4079 10.2651 15.5134 10 15.5137Z" fill="currentColor"/>
<path d="M14 15.5137H13V10.0137H14.5V7.01367C14.4999 6.88111 14.4471 6.75402 14.3534 6.66028C14.2597 6.56654 14.1326 6.51382 14 6.51367H12V5.51367H14C14.3977 5.51411 14.779 5.67229 15.0602 5.9535C15.3414 6.2347 15.4996 6.61598 15.5 7.01367V10.0137C15.4997 10.2788 15.3943 10.533 15.2068 10.7205C15.0193 10.9079 14.7651 11.0134 14.5 11.0137H14V15.5137Z" fill="currentColor"/>
<path d="M3.5 5.01367C3.10444 5.01367 2.71776 4.89637 2.38886 4.67661C2.05996 4.45685 1.80362 4.14449 1.65224 3.77904C1.50087 3.41359 1.46126 3.01145 1.53843 2.62349C1.6156 2.23553 1.80608 1.87916 2.08579 1.59946C2.36549 1.31975 2.72186 1.12927 3.10982 1.0521C3.49778 0.974932 3.89991 1.01454 4.26537 1.16591C4.63082 1.31729 4.94318 1.57363 5.16294 1.90253C5.3827 2.23143 5.5 2.61811 5.5 3.01367C5.4994 3.54392 5.2885 4.05228 4.91356 4.42723C4.53861 4.80217 4.03025 5.01308 3.5 5.01367ZM3.5 2.01367C3.30222 2.01367 3.10888 2.07232 2.94443 2.1822C2.77998 2.29208 2.65181 2.44826 2.57612 2.63099C2.50043 2.81372 2.48063 3.01478 2.51921 3.20876C2.5578 3.40274 2.65304 3.58093 2.79289 3.72078C2.93275 3.86063 3.11093 3.95587 3.30491 3.99446C3.49889 4.03304 3.69996 4.01324 3.88268 3.93755C4.06541 3.86186 4.22159 3.73369 4.33147 3.56924C4.44135 3.40479 4.5 3.21145 4.5 3.01367C4.49972 2.74854 4.39428 2.49435 4.2068 2.30687C4.01932 2.1194 3.76513 2.01395 3.5 2.01367Z" fill="currentColor"/>
<path d="M12.5 5.01367C12.1044 5.01367 11.7178 4.89637 11.3889 4.67661C11.06 4.45685 10.8036 4.14449 10.6522 3.77904C10.5009 3.41359 10.4613 3.01145 10.5384 2.62349C10.6156 2.23553 10.8061 1.87916 11.0858 1.59946C11.3655 1.31975 11.7219 1.12927 12.1098 1.0521C12.4978 0.974932 12.8999 1.01454 13.2654 1.16591C13.6308 1.31729 13.9432 1.57363 14.1629 1.90253C14.3827 2.23143 14.5 2.61811 14.5 3.01367C14.4994 3.54392 14.2885 4.05228 13.9136 4.42723C13.5386 4.80217 13.0303 5.01308 12.5 5.01367ZM12.5 2.01367C12.3022 2.01367 12.1089 2.07232 11.9444 2.1822C11.78 2.29208 11.6518 2.44826 11.5761 2.63099C11.5004 2.81372 11.4806 3.01478 11.5192 3.20876C11.5578 3.40274 11.653 3.58093 11.7929 3.72078C11.9327 3.86063 12.1109 3.95587 12.3049 3.99446C12.4989 4.03304 12.7 4.01324 12.8827 3.93755C13.0654 3.86186 13.2216 3.73369 13.3315 3.56924C13.4414 3.40479 13.5 3.21145 13.5 3.01367C13.4997 2.74854 13.3943 2.49435 13.2068 2.30687C13.0193 2.1194 12.7651 2.01395 12.5 2.01367Z" fill="currentColor"/>
<path d="M9.25 8.01367C8.90388 8.01367 8.56554 7.91104 8.27775 7.71874C7.98997 7.52645 7.76566 7.25314 7.63321 6.93337C7.50076 6.6136 7.4661 6.26173 7.53363 5.92226C7.60115 5.5828 7.76782 5.27098 8.01256 5.02624C8.2573 4.78149 8.56913 4.61482 8.90859 4.5473C9.24806 4.47977 9.59993 4.51443 9.9197 4.64688C10.2395 4.77934 10.5128 5.00364 10.7051 5.29142C10.8974 5.57921 11 5.91756 11 6.26367C10.9995 6.72764 10.8149 7.17244 10.4868 7.50051C10.1588 7.82858 9.71396 8.01313 9.25 8.01367ZM9.25 5.51367C9.10166 5.51367 8.95666 5.55766 8.83332 5.64007C8.70999 5.72248 8.61386 5.83962 8.55709 5.97666C8.50033 6.1137 8.48547 6.26451 8.51441 6.40999C8.54335 6.55548 8.61478 6.68911 8.71967 6.794C8.82456 6.89889 8.9582 6.97032 9.10368 6.99926C9.24917 7.0282 9.39997 7.01335 9.53701 6.95658C9.67406 6.89982 9.79119 6.80369 9.8736 6.68035C9.95601 6.55701 10 6.41201 10 6.26367C9.99977 6.06483 9.92069 5.87419 9.78008 5.73359C9.63948 5.59299 9.44884 5.5139 9.25 5.51367Z" fill="currentColor"/>
</svg>
