<svg viewBox="0 0 16 17" fill="none" xmlns="http://www.w3.org/2000/svg">
<rect width="16" height="16" transform="translate(0 0.513672)" fill="white" fill-opacity="0.01" style="mix-blend-mode:multiply"/>
<path d="M10.8386 7.51367L10.2158 5.95652C10.1052 5.67762 9.91323 5.4385 9.66479 5.27032C9.41635 5.10214 9.12301 5.0127 8.823 5.01367H6.7771C6.50516 5.01371 6.23834 5.08762 6.00515 5.22752L3.5 6.73047V9.51367H4.5V7.29687L6 6.39687V12.3623L4.26915 14.959L5.1012 15.5137L7 12.665V6.01367H8.823C8.923 6.01336 9.02077 6.0432 9.10356 6.0993C9.18635 6.15539 9.25031 6.23513 9.2871 6.32812L10.1614 8.51367H13V7.51367H10.8386Z" fill="currentColor"/>
<path d="M8.5255 9.67167L9.5 12.5947V15.5137H10.5V12.4327L9.4745 9.35567L8.5255 9.67167Z" fill="currentColor"/>
<path d="M8.25 4.51367C7.90388 4.51367 7.56554 4.41104 7.27775 4.21874C6.98997 4.02645 6.76566 3.75314 6.63321 3.43337C6.50076 3.1136 6.4661 2.76173 6.53363 2.42226C6.60115 2.0828 6.76782 1.77098 7.01256 1.52624C7.25731 1.28149 7.56912 1.11482 7.90859 1.0473C8.24806 0.979774 8.59993 1.01443 8.9197 1.14688C9.23947 1.27934 9.51278 1.50364 9.70507 1.79142C9.89736 2.07921 10 2.41756 10 2.76367C9.99944 3.22763 9.81489 3.67243 9.48682 4.0005C9.15875 4.32856 8.71396 4.51312 8.25 4.51367ZM8.25 2.01367C8.10166 2.01367 7.95666 2.05766 7.83332 2.14007C7.70999 2.22248 7.61386 2.33962 7.55709 2.47666C7.50032 2.6137 7.48547 2.7645 7.51441 2.90999C7.54335 3.05548 7.61478 3.18911 7.71967 3.294C7.82456 3.39889 7.9582 3.47032 8.10368 3.49926C8.24917 3.5282 8.39997 3.51335 8.53701 3.45658C8.67406 3.39982 8.79119 3.30369 8.8736 3.18035C8.95601 3.05701 9 2.91201 9 2.76367C8.99977 2.56483 8.92069 2.37419 8.78008 2.23359C8.63948 2.09299 8.44884 2.0139 8.25 2.01367Z" fill="currentColor"/>
</svg>
