<svg viewBox="0 0 16 16" fill="none" xmlns="http://www.w3.org/2000/svg">
<rect width="16" height="16" fill="white" fill-opacity="0.01" style="mix-blend-mode:multiply"/>
<path d="M8.00001 1C7.89611 1 7.79211 1.03225 7.70411 1.0969L1.20411 5.86915C1.07416 5.9645 1.00081 6.11435 1.00001 6.2696C0.999756 6.3214 1.00756 6.37385 1.02406 6.42505L3.50891 14.1531C3.57546 14.3599 3.76771 14.5 3.98486 14.5H12.0151C12.2323 14.5 12.4245 14.3599 12.4911 14.1531L14.9759 6.42505C14.9924 6.374 15.0002 6.3217 15 6.27005C14.9993 6.11465 14.9259 5.9646 14.7959 5.86915L8.29591 1.0969C8.20791 1.0322 8.10391 1 8.00001 1Z" fill="currentColor"/>
</svg>
