<svg viewBox="0 0 16 16" fill="none" xmlns="http://www.w3.org/2000/svg">
<rect width="16" height="16" fill="white" fill-opacity="0.01" style="mix-blend-mode:multiply"/>
<path d="M1 8C1 8.1039 1.03225 8.2079 1.0969 8.2959L5.8691 14.7959C5.96445 14.9259 6.1143 14.9992 6.26955 15C6.32135 15.0003 6.3738 14.9925 6.425 14.976L14.1531 12.4911C14.3599 12.4246 14.5 12.2323 14.5 12.0152V3.98485C14.5 3.7677 14.3598 3.57545 14.1531 3.5089L6.42505 1.02405C6.374 1.0076 6.3217 0.999804 6.27005 1C6.11465 1.00065 5.9646 1.07405 5.86915 1.2041L1.0969 7.7041C1.0322 7.7921 1 7.8961 1 8Z" fill="currentColor"/>
</svg>
