<svg viewBox="0 0 16 16" fill="none" xmlns="http://www.w3.org/2000/svg">
<rect width="16" height="16" fill="white" fill-opacity="0.01" style="mix-blend-mode:multiply"/>
<path d="M13.8797 8.00001L9.5381 13.9137L2.5 11.6507V4.34941L9.5381 2.08636L13.8797 8.00001ZM15 8.00006C15 7.89616 14.9678 7.79216 14.9031 7.70416L10.1308 1.20411C10.0355 1.07416 9.88565 1.00081 9.7304 1.00001C9.6786 0.999756 9.62615 1.00756 9.57495 1.02406L1.8469 3.50891C1.6401 3.57546 1.5 3.76771 1.5 3.98486V12.0151C1.5 12.2323 1.64015 12.4245 1.8469 12.4911L9.57495 14.9759C9.626 14.9924 9.6783 15.0002 9.72995 15C9.88535 14.9993 10.0354 14.9259 10.1308 14.7959L14.9031 8.29586C14.9678 8.20786 15 8.10396 15 8.00006Z" fill="currentColor"/>
</svg>
