<svg viewBox="0 0 16 17" fill="none" xmlns="http://www.w3.org/2000/svg">
<g clip-path="url(#clip0_1961_11731)">
<rect width="16" height="16" transform="translate(0 0.513672)" fill="white" fill-opacity="0.01" style="mix-blend-mode:multiply"/>
<path d="M4.99976 16.0137H2.99976C2.73478 16.0129 2.48088 15.9073 2.29351 15.7199C2.10614 15.5326 2.00054 15.2786 1.99976 15.0137V11.5137C1.73478 11.5129 1.48088 11.4073 1.29351 11.2199C1.10614 11.0326 1.00054 10.7786 0.999759 10.5137V7.51367C0.99613 7.31569 1.03245 7.11901 1.10655 6.93538C1.18064 6.75175 1.291 6.58495 1.43102 6.44493C1.57103 6.30491 1.73784 6.19456 1.92147 6.12046C2.1051 6.04636 2.30178 6.01004 2.49976 6.01367H5.49976C5.69774 6.01004 5.89442 6.04636 6.07805 6.12046C6.26168 6.19456 6.42848 6.30491 6.5685 6.44493C6.70852 6.58495 6.81887 6.75175 6.89297 6.93538C6.96707 7.11901 7.00339 7.31569 6.99976 7.51367V10.5137C6.99898 10.7786 6.89337 11.0326 6.70601 11.2199C6.51864 11.4073 6.26474 11.5129 5.99976 11.5137V15.0137C5.99898 15.2786 5.89337 15.5326 5.70601 15.7199C5.51864 15.9073 5.26474 16.0129 4.99976 16.0137ZM2.49976 7.01367C2.43305 7.00965 2.36624 7.01982 2.30376 7.04352C2.24127 7.06723 2.18452 7.10392 2.13726 7.15118C2.09001 7.19843 2.05331 7.25518 2.02961 7.31767C2.00591 7.38016 1.99573 7.44696 1.99976 7.51367V10.5137H2.99976V15.0137H4.99976V10.5137H5.99976V7.51367C6.00379 7.44696 5.99361 7.38016 5.96991 7.31767C5.9462 7.25518 5.90951 7.19843 5.86225 7.15118C5.815 7.10392 5.75825 7.06723 5.69576 7.04352C5.63328 7.01982 5.56647 7.00965 5.49976 7.01367H2.49976Z" fill="currentColor"/>
<path d="M3.99976 5.51367C3.6042 5.51367 3.21752 5.39637 2.88862 5.17661C2.55972 4.95685 2.30338 4.64449 2.152 4.27904C2.00062 3.91359 1.96102 3.51145 2.03819 3.12349C2.11536 2.73553 2.30584 2.37916 2.58555 2.09946C2.86525 1.81975 3.22162 1.62927 3.60958 1.5521C3.99754 1.47493 4.39967 1.51454 4.76513 1.66591C5.13058 1.81729 5.44294 2.07363 5.6627 2.40253C5.88246 2.73143 5.99976 3.11811 5.99976 3.51367C5.99916 4.04392 5.78826 4.55228 5.41331 4.92723C5.03837 5.30217 4.53001 5.51308 3.99976 5.51367ZM3.99976 2.51367C3.80198 2.51367 3.60864 2.57232 3.44419 2.6822C3.27974 2.79208 3.15157 2.94826 3.07588 3.13099C3.00019 3.31372 2.98039 3.51478 3.01897 3.70876C3.05756 3.90274 3.1528 4.08093 3.29265 4.22078C3.4325 4.36063 3.61069 4.45587 3.80467 4.49446C3.99865 4.53304 4.19972 4.51324 4.38244 4.43755C4.56517 4.36186 4.72135 4.23369 4.83123 4.06924C4.94111 3.90479 4.99976 3.71145 4.99976 3.51367C4.99949 3.24854 4.89405 2.99434 4.70657 2.80686C4.51909 2.61938 4.26489 2.51394 3.99976 2.51367Z" fill="currentColor"/>
<path d="M14.3829 2.64157C14.0069 2.25946 13.4992 2.03514 12.9635 2.01436C12.4278 1.99358 11.9043 2.17789 11.4998 2.52972C11.0952 2.17789 10.5717 1.99358 10.036 2.01436C9.5003 2.03514 8.99267 2.25946 8.61661 2.64157C8.22122 3.0452 7.99977 3.58772 7.99977 4.15275C7.99977 4.71777 8.22122 5.26029 8.61661 5.66392L11.4988 8.58367L11.4998 8.58247L11.5008 8.58342L14.3829 5.66392C14.7783 5.26029 14.9998 4.71777 14.9998 4.15275C14.9998 3.58772 14.7783 3.0452 14.3829 2.64157ZM13.6708 4.96107L11.5008 7.15972L11.4998 7.15867L11.4988 7.15967L9.32876 4.96102C9.11698 4.74522 8.99834 4.45493 8.99834 4.15257C8.99834 3.85021 9.11698 3.55993 9.32876 3.34412C9.54005 3.13872 9.82311 3.02381 10.1178 3.02381C10.4125 3.02381 10.6955 3.13872 10.9068 3.34412L11.4973 3.94782L11.4998 3.94537L11.5022 3.94787L12.0927 3.34417C12.304 3.13877 12.5871 3.02386 12.8817 3.02386C13.1764 3.02386 13.4595 3.13877 13.6708 3.34417C13.8825 3.55998 14.0012 3.85026 14.0012 4.15262C14.0012 4.45498 13.8825 4.74527 13.6708 4.96107Z" fill="currentColor"/>
</g>
<defs>
<clipPath id="clip0_1961_11731">
<rect width="16" height="16" fill="white" transform="translate(0 0.513672)"/>
</clipPath>
</defs>
</svg>
