<svg viewBox="0 0 16 17" fill="none" xmlns="http://www.w3.org/2000/svg">
<rect width="16" height="16" transform="translate(0 0.513672)" fill="white" fill-opacity="0.01" style="mix-blend-mode:multiply"/>
<path d="M3.75001 6.01367C4.16422 6.01367 4.50001 5.67789 4.50001 5.26367C4.50001 4.84946 4.16422 4.51367 3.75001 4.51367C3.33579 4.51367 3.00001 4.84946 3.00001 5.26367C3.00001 5.67789 3.33579 6.01367 3.75001 6.01367Z" fill="currentColor"/>
<path d="M6.50001 7.51367C6.77615 7.51367 7.00001 7.28981 7.00001 7.01367C7.00001 6.73753 6.77615 6.51367 6.50001 6.51367C6.22386 6.51367 6.00001 6.73753 6.00001 7.01367C6.00001 7.28981 6.22386 7.51367 6.50001 7.51367Z" fill="currentColor"/>
<path d="M11 11.5137C11.2761 11.5137 11.5 11.2898 11.5 11.0137C11.5 10.7375 11.2761 10.5137 11 10.5137C10.7239 10.5137 10.5 10.7375 10.5 11.0137C10.5 11.2898 10.7239 11.5137 11 11.5137Z" fill="currentColor"/>
<path d="M12.5 7.51367C11.8283 7.51386 11.1652 7.66468 10.5595 7.95503C9.95374 8.24539 9.42085 8.66788 9.00001 9.19142V7.01367C9.00019 6.22201 8.82798 5.43981 8.49536 4.72142L8.31691 4.33302L7.90551 4.44867C7.77402 4.48911 7.63754 4.51099 7.50001 4.51367C7.10232 4.51324 6.72104 4.35506 6.43983 4.07385C6.15862 3.79264 6.00044 3.41136 6.00001 3.01367C6.00263 2.87624 6.02441 2.73984 6.06471 2.60842L6.18091 2.19677L5.79226 2.01832C5.07384 1.68579 4.29165 1.51359 3.50001 1.51367H1.00001V5.01367C0.998108 6.2109 1.39065 7.37541 2.11696 8.32717L2.31131 8.54102L2.58131 8.52197C3.14057 8.48967 3.69644 8.62804 4.17529 8.91877C4.65414 9.20949 5.03336 9.63883 5.26271 10.1499L5.37306 10.3984L5.64186 10.4407C5.92556 10.4874 6.21249 10.5118 6.50001 10.5137H8.00001V15.5137H9.00001V13.5137H10.5C11.6931 13.5123 12.8369 13.0378 13.6805 12.1942C14.5242 11.3506 14.9987 10.2067 15 9.01367V7.51367H12.5ZM6.05081 9.48707C5.73075 8.89324 5.25663 8.3966 4.67829 8.04935C4.09995 7.70209 3.43874 7.51705 2.76416 7.51367C2.26474 6.77571 1.99852 5.90474 2.00001 5.01367V2.51367H3.50001C4.0159 2.51326 4.52791 2.60294 5.01296 2.77867C5.0043 2.85671 4.99997 2.93516 5.00001 3.01367C4.99766 3.3624 5.06879 3.70771 5.20879 4.02712C5.34878 4.34652 5.55449 4.63285 5.81251 4.86746C6.07053 5.10207 6.37509 5.27969 6.70633 5.38876C7.03757 5.49782 7.38807 5.53589 7.73501 5.50047C7.9106 5.98564 8.00028 6.4977 8.00001 7.01367V9.51367H6.50001C6.3499 9.51312 6.19993 9.50424 6.05081 9.48707ZM14 9.01367C13.999 9.94161 13.6299 10.8313 12.9737 11.4874C12.3176 12.1436 11.4279 12.5126 10.5 12.5137H9.00001V12.0137C9.0012 11.2586 9.24622 10.524 9.6986 9.91941C10.151 9.3148 10.7865 8.87245 11.5106 8.65822C11.4959 8.76006 11.5023 8.86383 11.5295 8.96307C11.5567 9.0623 11.604 9.15487 11.6686 9.23499C11.7332 9.3151 11.8135 9.38105 11.9047 9.42871C11.9959 9.47637 12.096 9.50471 12.1986 9.51198C12.3012 9.51925 12.4043 9.50528 12.5013 9.47094C12.5982 9.43661 12.6871 9.38264 12.7623 9.31242C12.8375 9.2422 12.8975 9.15723 12.9383 9.06281C12.9792 8.9684 13.0002 8.86656 13 8.76367C12.9992 8.67832 12.9837 8.59375 12.9541 8.51367H14V9.01367Z" fill="currentColor"/>
</svg>
