<svg viewBox="0 0 16 17" fill="none" xmlns="http://www.w3.org/2000/svg">
<rect width="16" height="16" transform="translate(0 0.513672)" fill="white" fill-opacity="0.01" style="mix-blend-mode:multiply"/>
<path d="M10.1669 11.2548L11.2869 10.1348C11.4368 9.98488 11.6274 9.88221 11.835 9.83955C12.0427 9.79689 12.2584 9.81611 12.4553 9.89483L13.8193 10.4405C14.0204 10.5209 14.1927 10.6598 14.3141 10.8391C14.4354 11.0185 14.5003 11.2301 14.5002 11.4466V13.9273C14.5005 14.0747 14.4708 14.2207 14.4128 14.3562C14.3547 14.4917 14.2697 14.614 14.1627 14.7155C14.0558 14.817 13.9293 14.8956 13.7909 14.9465C13.6526 14.9974 13.5053 15.0196 13.3581 15.0116C3.7971 14.4164 1.86625 6.31938 1.5075 3.21763C1.49015 3.066 1.50509 2.91242 1.55135 2.76699C1.59761 2.62156 1.67414 2.48757 1.77591 2.37384C1.87768 2.26011 2.00237 2.16921 2.14179 2.10714C2.28121 2.04506 2.43219 2.01321 2.5848 2.01368H5.0212C5.23772 2.01367 5.44927 2.07855 5.62856 2.19993C5.80785 2.32132 5.94665 2.49365 6.02705 2.69468L6.5727 4.05868C6.65142 4.25554 6.67064 4.47117 6.62798 4.67886C6.58532 4.88654 6.48265 5.07713 6.3327 5.22703L5.2127 6.34703C5.2127 6.34703 5.83355 10.7132 10.1669 11.2548Z" fill="currentColor"/>
<path d="M12.2052 5.01368L14.0002 3.21868L13.2952 2.51368L11.5002 4.30868L9.7052 2.51368L9.0002 3.21868L10.7952 5.01368L9.0002 6.80868L9.7052 7.51368L11.5002 5.71868L13.2952 7.51368L14.0002 6.80868L12.2052 5.01368Z" fill="currentColor"/>
</svg>
