<svg viewBox="0 0 16 17" fill="none" xmlns="http://www.w3.org/2000/svg">
<rect width="16" height="16" transform="translate(0 0.513672)" fill="white" fill-opacity="0.01" style="mix-blend-mode:multiply"/>
<path d="M13 15.0137H12.915C3.09002 14.4487 1.69502 6.15867 1.50002 3.62867C1.48492 3.43227 1.50865 3.23481 1.56985 3.04758C1.63106 2.86034 1.72855 2.687 1.85675 2.53744C1.98495 2.38788 2.14136 2.26504 2.31703 2.17592C2.49271 2.08681 2.68422 2.03317 2.88062 2.01807C2.92022 2.01514 2.96002 2.01367 3.00002 2.01367H5.63502C5.8353 2.01348 6.03102 2.07343 6.19684 2.18575C6.36265 2.29808 6.49092 2.45761 6.56502 2.64367L7.32502 4.51367C7.3982 4.69545 7.41636 4.89471 7.37724 5.08672C7.33813 5.27872 7.24347 5.45501 7.10502 5.59367L6.04002 6.66867C6.2057 7.61434 6.65821 8.48616 7.33619 9.16593C8.01416 9.84569 8.8848 10.3005 9.83002 10.4687L10.915 9.39367C11.0558 9.25675 11.2337 9.1643 11.4267 9.12784C11.6196 9.09139 11.819 9.11254 12 9.18867L13.885 9.94367C14.0683 10.0201 14.2246 10.1494 14.3342 10.315C14.4437 10.4806 14.5014 10.6751 14.5 10.8737V13.5137C14.5 13.9115 14.342 14.293 14.0607 14.5743C13.7794 14.8556 13.3978 15.0137 13 15.0137ZM3.00002 3.01367C2.93436 3.01346 2.8693 3.02619 2.80856 3.05112C2.74781 3.07605 2.69258 3.11271 2.646 3.15899C2.59942 3.20527 2.56241 3.26027 2.53709 3.32085C2.51177 3.38143 2.49863 3.44641 2.49842 3.51207C2.49842 3.52597 2.49895 3.53984 2.50002 3.55367C2.73002 6.51367 4.20502 13.5137 12.97 14.0137C13.0356 14.0176 13.1012 14.0086 13.1633 13.9872C13.2254 13.9657 13.2826 13.9323 13.3317 13.8887C13.3809 13.8451 13.4209 13.7923 13.4496 13.7333C13.4784 13.6742 13.4952 13.6101 13.4991 13.5446C13.4997 13.5343 13.5 13.524 13.5 13.5137V10.8737L11.615 10.1187L10.18 11.5437L9.94002 11.5137C5.59002 10.9687 5.00002 6.61867 5.00002 6.57367L4.97002 6.33367L6.39002 4.89867L5.64002 3.01367H3.00002Z" fill="currentColor"/>
<path d="M13.5 7.01367V6.01367H11.207L14.5 2.72067L13.793 2.01367L10.5 5.30667V3.01367H9.50002V7.01367H13.5Z" fill="currentColor"/>
</svg>
