<svg viewBox="0 0 16 17" fill="none" xmlns="http://www.w3.org/2000/svg">
<rect width="16" height="16" transform="translate(0 0.513672)" fill="white" fill-opacity="0.01" style="mix-blend-mode:multiply"/>
<path d="M15 1.51367H13V3.51367H15V1.51367Z" fill="currentColor"/>
<path d="M15 4.51367H13V6.51367H15V4.51367Z" fill="currentColor"/>
<path d="M12 1.51367H10V3.51367H12V1.51367Z" fill="currentColor"/>
<path d="M12 4.51367H10V6.51367H12V4.51367Z" fill="currentColor"/>
<path d="M12.5 15.5137H12.415C2.59002 14.9487 1.19503 6.65867 1.00003 4.12867C0.969521 3.73202 1.09783 3.3395 1.35674 3.03745C1.61564 2.73541 1.98392 2.54858 2.38057 2.51807C2.42021 2.51514 2.46003 2.51367 2.50003 2.51367H5.13503C5.3353 2.51348 5.53103 2.57343 5.69684 2.68575C5.86266 2.79808 5.99092 2.95761 6.06503 3.14367L6.82503 5.01367C6.8982 5.19545 6.91636 5.39471 6.87725 5.58672C6.83814 5.77872 6.74347 5.95501 6.60503 6.09367L5.54003 7.16867C5.70571 8.11434 6.15822 8.98616 6.83619 9.66593C7.51417 10.3457 8.3848 10.8005 9.33002 10.9687L10.415 9.89367C10.5558 9.75675 10.7337 9.6643 10.9267 9.62784C11.1196 9.59139 11.319 9.61254 11.5 9.68867L13.385 10.4437C13.5683 10.5201 13.7246 10.6494 13.8342 10.815C13.9437 10.9806 14.0014 11.1751 14 11.3737V14.0137C14 14.4115 13.842 14.793 13.5607 15.0743C13.2794 15.3556 12.8978 15.5137 12.5 15.5137ZM2.50003 3.51367C2.43436 3.51346 2.3693 3.52619 2.30856 3.55112C2.24782 3.57605 2.19258 3.61271 2.146 3.65899C2.09942 3.70527 2.06242 3.76027 2.0371 3.82085C2.01178 3.88143 1.99863 3.94641 1.99843 4.01207C1.99843 4.02597 1.99893 4.03982 2.00003 4.05367C2.23003 7.01367 3.70502 14.0137 12.47 14.5137C12.6024 14.5216 12.7325 14.4767 12.8317 14.3887C12.9309 14.3007 12.9911 14.1769 12.9991 14.0446C12.9997 14.0343 13 14.024 13 14.0137V11.3737L11.115 10.6187L9.68003 12.0437L9.44002 12.0137C5.09002 11.4687 4.50003 7.11867 4.50003 7.07367L4.47002 6.83367L5.89003 5.39867L5.14003 3.51367H2.50003Z" fill="currentColor"/>
</svg>
