<svg viewBox="0 0 16 17" fill="none" xmlns="http://www.w3.org/2000/svg">
<rect width="16" height="16" transform="translate(0 0.513672)" fill="white" fill-opacity="0.01" style="mix-blend-mode:multiply"/>
<path d="M13.37 10.2937L12.11 9.79367C11.9289 9.72156 11.7306 9.70397 11.5396 9.74306C11.3486 9.78215 11.1732 9.87621 11.035 10.0137L10 11.0437C9.01399 10.9377 8.08231 10.5389 7.325 9.89867L15 2.21867L14.295 1.51367L1 14.8087L1.705 15.5137L5.67 11.5537C7.29 13.1137 9.615 14.3037 12.945 14.5137C13.0809 14.5212 13.2168 14.5008 13.3446 14.4539C13.4723 14.407 13.5892 14.3346 13.6879 14.241C13.7867 14.1473 13.8653 14.0346 13.919 13.9095C13.9726 13.7844 14.0002 13.6498 14 13.5137V11.2187C13.9992 11.0192 13.9388 10.8246 13.8265 10.6598C13.7143 10.495 13.5553 10.3675 13.37 10.2937Z" fill="currentColor"/>
<path d="M4.075 9.60867L5.835 7.84867C5.64543 7.42167 5.50778 6.97347 5.425 6.51367L6.46 5.47867C6.59747 5.34044 6.69153 5.16503 6.73061 4.97404C6.7697 4.78305 6.75211 4.5848 6.68 4.40367L6.18 3.14367C6.1059 2.95761 5.97763 2.79808 5.81182 2.68575C5.646 2.57343 5.45028 2.51348 5.25 2.51367H3C2.85889 2.51282 2.71919 2.54183 2.59009 2.59882C2.461 2.65581 2.34542 2.73948 2.25097 2.84432C2.15651 2.94916 2.08532 3.07281 2.04207 3.20713C1.99881 3.34146 1.98447 3.48341 2 3.62367C2.24212 5.74722 2.95069 7.79098 4.075 9.60867Z" fill="currentColor"/>
</svg>
