<svg viewBox="0 0 16 17" fill="none" xmlns="http://www.w3.org/2000/svg">
<rect width="16" height="16" transform="translate(0 0.513672)" fill="white" fill-opacity="0.01" style="mix-blend-mode:multiply"/>
<path d="M12 6.51367C11.6044 6.51367 11.2178 6.39637 10.8889 6.17661C10.56 5.95685 10.3036 5.64449 10.1522 5.27904C10.0009 4.91359 9.96126 4.51145 10.0384 4.12349C10.1156 3.73553 10.3061 3.37916 10.5858 3.09946C10.8655 2.81975 11.2219 2.62927 11.6098 2.5521C11.9978 2.47493 12.3999 2.51454 12.7654 2.66591C13.1308 2.81729 13.4432 3.07363 13.6629 3.40253C13.8827 3.73143 14 4.11811 14 4.51367C13.9994 5.04392 13.7885 5.55228 13.4136 5.92723C13.0386 6.30217 12.5303 6.51308 12 6.51367ZM12 3.51367C11.8022 3.51367 11.6089 3.57232 11.4444 3.6822C11.28 3.79208 11.1518 3.94826 11.0761 4.13099C11.0004 4.31372 10.9806 4.51478 11.0192 4.70876C11.0578 4.90274 11.153 5.08093 11.2929 5.22078C11.4327 5.36063 11.6109 5.45587 11.8049 5.49446C11.9989 5.53304 12.2 5.51324 12.3827 5.43755C12.5654 5.36186 12.7216 5.23369 12.8315 5.06924C12.9414 4.90479 13 4.71145 13 4.51367C12.9997 4.24854 12.8943 3.99435 12.7068 3.80687C12.5193 3.6194 12.2651 3.51395 12 3.51367Z" fill="currentColor"/>
<path d="M13 11.5137H10.9236L10.59 9.51367H12V8.51367H4V9.51367H5.41L5.0766 11.5137H3V12.5137H4.91L4.5766 14.5137H5.59L5.9234 12.5137H10.0762L10.4096 14.5137H11.4234L11.09 12.5137H13V11.5137ZM6.09 11.5137L6.42325 9.51367H9.57635L9.9096 11.5137H6.09Z" fill="currentColor"/>
</svg>
