<svg viewBox="0 0 16 17" fill="none" xmlns="http://www.w3.org/2000/svg">
<rect width="16" height="16" transform="translate(0 0.513672)" fill="white" fill-opacity="0.01" style="mix-blend-mode:multiply"/>
<path d="M14.2922 7.80618L12.7323 6.87013C12.3438 6.63683 11.8992 6.51362 11.446 6.51368H3.8904L3.58 5.27123C3.52611 5.05471 3.40128 4.86246 3.2254 4.72516C3.04952 4.58786 2.83273 4.51341 2.6096 4.51368H2C1.73488 4.51398 1.4807 4.61944 1.29323 4.80691C1.10576 4.99438 1.0003 5.24855 1 5.51368V9.01368C1.00044 9.41137 1.15861 9.79265 1.43982 10.0739C1.72103 10.3551 2.10231 10.5132 2.5 10.5137H6V13.5137C6.0003 13.7788 6.10576 14.033 6.29323 14.2204C6.4807 14.4079 6.73488 14.5134 7 14.5137H7.65355C7.857 14.5131 8.05548 14.4507 8.2227 14.3348C8.38993 14.219 8.51801 14.055 8.59 13.8647L9.84645 10.5137H13.5422C13.861 10.5137 14.171 10.4092 14.4248 10.2162C14.6785 10.0232 14.862 9.7524 14.9471 9.44519C15.0322 9.13798 15.0142 8.81134 14.8959 8.51531C14.7777 8.21928 14.5656 7.97018 14.2922 7.80618ZM13.5422 9.51368H9.15355L7.65355 13.5137H7V9.51368H2.5C2.36743 9.51356 2.24032 9.46084 2.14658 9.3671C2.05284 9.27336 2.00012 9.14625 2 9.01368V5.51368H2.6096L3.1096 7.51368H5V8.51368H6V7.51368H7.5V8.51368H8.5V7.51368H10V8.51368H11V7.51368H11.446C11.7179 7.51365 11.9847 7.58758 12.2177 7.72753L13.7778 8.66358C13.8635 8.71512 13.93 8.79334 13.9671 8.88627C14.0042 8.9792 14.0098 9.08171 13.983 9.17813C13.9563 9.27455 13.8987 9.35955 13.8191 9.42014C13.7395 9.48072 13.6423 9.51364 13.5422 9.51368Z" fill="currentColor"/>
<path d="M7 2.51368H7.6614L8.8614 5.51368H9.93865L8.59 2.14233C8.51631 1.95636 8.3883 1.79692 8.22266 1.68478C8.05702 1.57264 7.86143 1.51302 7.6614 1.51368H7C6.73488 1.51398 6.4807 1.61944 6.29323 1.80691C6.10576 1.99438 6.0003 2.24855 6 2.51368V5.51368H7V2.51368Z" fill="currentColor"/>
</svg>
