<svg viewBox="0 0 16 17" fill="none" xmlns="http://www.w3.org/2000/svg">
<rect width="16" height="16" transform="translate(0 0.513672)" fill="white" fill-opacity="0.01" style="mix-blend-mode:multiply"/>
<path d="M14 14.5137H2C1.4486 14.5137 1 14.0651 1 13.5137V10.5137H2V13.5137H14V10.5137H15V13.5137C15 14.0651 14.5514 14.5137 14 14.5137Z" fill="currentColor"/>
<path d="M8.5 9.01367V11.0137C8.5 11.2898 8.72385 11.5137 9 11.5137H11C11.2761 11.5137 11.5 11.2898 11.5 11.0137V9.01367C11.5 8.73752 11.2761 8.51367 11 8.51367H9C8.72385 8.51367 8.5 8.73752 8.5 9.01367ZM9.5 9.51367H10.5V10.5137H9.5V9.51367Z" fill="currentColor"/>
<path d="M4.5 9.01367V11.0137C4.5 11.2898 4.72385 11.5137 5 11.5137H7C7.27615 11.5137 7.5 11.2898 7.5 11.0137V9.01367C7.5 8.73752 7.27615 8.51367 7 8.51367H5C4.72385 8.51367 4.5 8.73752 4.5 9.01367ZM5.5 9.51367H6.5V10.5137H5.5V9.51367Z" fill="currentColor"/>
<path d="M8.5 5.01367V7.01367C8.5 7.28977 8.72385 7.51367 9 7.51367H11C11.2761 7.51367 11.5 7.28977 11.5 7.01367V5.01367C11.5 4.73752 11.2761 4.51367 11 4.51367H9C8.72385 4.51367 8.5 4.73752 8.5 5.01367ZM9.5 5.51367H10.5V6.51367H9.5V5.51367Z" fill="currentColor"/>
<path d="M2.5 3.01367V7.01367C2.5 7.28977 2.72385 7.51367 3 7.51367H7C7.27615 7.51367 7.5 7.28977 7.5 7.01367V3.01367C7.5 2.73752 7.27615 2.51367 7 2.51367H3C2.72385 2.51367 2.5 2.73752 2.5 3.01367ZM3.5 3.51367H6.5V6.51367H3.5V3.51367Z" fill="currentColor"/>
</svg>
