<svg viewBox="0 0 16 17" fill="none" xmlns="http://www.w3.org/2000/svg">
<rect width="16" height="16" transform="translate(0 0.513672)" fill="white" fill-opacity="0.01" style="mix-blend-mode:multiply"/>
<path d="M14 15.5137H9C8.73487 15.5134 8.48068 15.4079 8.2932 15.2205C8.10572 15.033 8.00028 14.7788 8 14.5137V9.51367C8.00028 9.24854 8.10572 8.99435 8.2932 8.80687C8.48068 8.6194 8.73487 8.51395 9 8.51367H10V9.51367H9V14.5137H14V9.51367H13V8.51367H14C14.2651 8.51395 14.5193 8.6194 14.7068 8.80687C14.8943 8.99435 14.9997 9.24854 15 9.51367V14.5137C14.9997 14.7788 14.8943 15.033 14.7068 15.2205C14.5193 15.4079 14.2651 15.5134 14 15.5137Z" fill="currentColor"/>
<path d="M7 8.51367H2C1.73487 8.51339 1.48068 8.40795 1.2932 8.22047C1.10572 8.033 1.00028 7.7788 1 7.51367V2.51367C1.00028 2.24854 1.10572 1.99435 1.2932 1.80687C1.48068 1.6194 1.73487 1.51395 2 1.51367H7C7.26513 1.51395 7.51932 1.6194 7.7068 1.80687C7.89428 1.99435 7.99972 2.24854 8 2.51367V3.51367H7V2.51367H2V7.51367H7V6.51367H8V7.51367C7.99972 7.7788 7.89428 8.033 7.7068 8.22047C7.51932 8.40795 7.26513 8.51339 7 8.51367Z" fill="currentColor"/>
<path d="M13 5.01367C13.0008 4.66018 12.8765 4.3178 12.649 4.04722C12.4216 3.77664 12.1057 3.59533 11.7573 3.53543C11.4089 3.47553 11.0505 3.5409 10.7458 3.71996C10.441 3.89902 10.2094 4.1802 10.0921 4.51367H4.5V5.51367H10.0921C10.1667 5.72283 10.2868 5.91279 10.4438 6.06978C10.6009 6.22678 10.7908 6.34687 11 6.42137V12.0137H12V6.42162C12.2916 6.31885 12.5443 6.12835 12.7233 5.87626C12.9024 5.62418 12.999 5.32287 13 5.01367ZM11.5 5.51367C11.4011 5.51367 11.3044 5.48435 11.2222 5.42941C11.14 5.37447 11.0759 5.29638 11.0381 5.20501C11.0002 5.11365 10.9903 5.01312 11.0096 4.91613C11.0289 4.81914 11.0765 4.73004 11.1464 4.66012C11.2164 4.59019 11.3055 4.54257 11.4025 4.52328C11.4994 4.50399 11.6 4.51389 11.6913 4.55173C11.7827 4.58958 11.8608 4.65366 11.9157 4.73589C11.9707 4.81811 12 4.91478 12 5.01367C11.9999 5.14624 11.9472 5.27335 11.8534 5.36709C11.7597 5.46084 11.6326 5.51355 11.5 5.51367Z" fill="currentColor"/>
</svg>
