<svg viewBox="0 0 16 17" fill="none" xmlns="http://www.w3.org/2000/svg">
<rect width="16" height="16" transform="translate(0 0.513672)" fill="white" fill-opacity="0.01" style="mix-blend-mode:multiply"/>
<path d="M6 12.5136H5V15.5136H6V12.5136Z" fill="currentColor"/>
<path d="M10.5 10.5136H3.5C3.10231 10.5132 2.72103 10.355 2.43982 10.0738C2.15861 9.79259 2.00044 9.41131 2 9.01362V3.51362H1V9.01362C1.00078 9.67643 1.26442 10.3119 1.7331 10.7805C2.20177 11.2492 2.8372 11.5128 3.5 11.5136H10.5C10.8643 11.5152 11.2237 11.5974 11.5525 11.7541L8.5 14.8066L9.20705 15.5136L12.3606 12.3601C12.7702 12.8136 12.9979 13.4025 13 14.0136V15.5136H14V14.0136C13.999 13.0857 13.6299 12.196 12.9737 11.5399C12.3176 10.8837 11.4279 10.5147 10.5 10.5136Z" fill="currentColor"/>
<path d="M12.6373 2.53292L9.1373 1.53292C9.04743 1.50725 8.95217 1.50725 8.8623 1.53292L5.3623 2.53292C5.23764 2.56857 5.13173 2.65128 5.06692 2.76357C5.00211 2.87587 4.9835 3.00896 5.015 3.13472L5.5 5.07512V6.01362C5.5 6.47325 5.59053 6.92838 5.76642 7.35302C5.94231 7.77766 6.20012 8.16349 6.52513 8.4885C6.85013 8.8135 7.23597 9.07131 7.66061 9.2472C8.08525 9.42309 8.54037 9.51362 9 9.51362C9.45963 9.51362 9.91475 9.42309 10.3394 9.2472C10.764 9.07131 11.1499 8.8135 11.4749 8.4885C11.7999 8.16349 12.0577 7.77766 12.2336 7.35302C12.4095 6.92838 12.5 6.47325 12.5 6.01362V5.07512L12.985 3.13472C13.0165 3.0089 12.9978 2.87577 12.9329 2.76346C12.868 2.65116 12.762 2.56849 12.6373 2.53292ZM9 2.53362L11.8976 3.36152L11.6095 4.51362H9.5V3.51362H8.5V4.51362H6.3905L6.1024 3.36152L9 2.53362ZM9 8.51362C8.33719 8.51286 7.70176 8.24922 7.23308 7.78054C6.76441 7.31187 6.50077 6.67643 6.5 6.01362V5.51362H11.5V6.01362C11.4992 6.67643 11.2356 7.31187 10.7669 7.78054C10.2982 8.24922 9.66281 8.51286 9 8.51362Z" fill="currentColor"/>
</svg>
