<svg viewBox="0 0 16 17" fill="none" xmlns="http://www.w3.org/2000/svg">
<rect width="16" height="16" transform="translate(0 0.513672)" fill="white" fill-opacity="0.01" style="mix-blend-mode:multiply"/>
<path d="M10.5 4.01367H9.5V2.31372C9.5 1.86377 9.1499 1.51367 8.69995 1.51367H2V2.51367H8.5V4.01367H7.5C5.85 4.01367 4.5 5.36377 4.5 7.01367V10.0137C4.5 11.6636 5.85 13.0137 7.5 13.0137H8.5V14.5137H2V15.5137H8.69995C9.1499 15.5137 9.5 15.1636 9.5 14.7136V13.0137H10.5C12.15 13.0137 13.5 11.6636 13.5 10.0137V7.01367C13.5 5.36377 12.15 4.01367 10.5 4.01367ZM12.5 10.0137C12.5 11.1138 11.6 12.0137 10.5 12.0137H7.5C6.4 12.0137 5.5 11.1138 5.5 10.0137V7.01367C5.5 5.91357 6.4 5.01367 7.5 5.01367H10.5C11.6 5.01367 12.5 5.91357 12.5 7.01367V10.0137Z" fill="currentColor"/>
</svg>
