<svg viewBox="0 0 16 17" fill="none" xmlns="http://www.w3.org/2000/svg">
<rect width="16" height="16" transform="translate(0 0.513672)" fill="white" fill-opacity="0.01" style="mix-blend-mode:multiply"/>
<path d="M15 8.51367L11.5 5.01367L10.7929 5.72072L13.0859 8.01367H4.5V9.01367H13.0859L10.7929 11.3066L11.5 12.0137L15 8.51367Z" fill="currentColor"/>
<path d="M7 14.5137C3.69165 14.5137 1 11.8221 1 8.51367C1 5.20527 3.69165 2.51367 7 2.51367C8.1675 2.51367 9.2993 2.84937 10.2731 3.48437L9.7269 4.32202C8.91585 3.79322 7.973 3.51367 6.99995 3.51367C4.243 3.51367 1.99995 5.75667 1.99995 8.51367C1.99995 11.2707 4.243 13.5137 6.99995 13.5137C7.97295 13.5137 8.91585 13.2341 9.7269 12.7053L10.2731 13.543C9.2993 14.178 8.16745 14.5137 7 14.5137Z" fill="currentColor"/>
</svg>
