<svg viewBox="0 0 16 17" fill="none" xmlns="http://www.w3.org/2000/svg">
<rect width="16" height="16" transform="translate(0 0.513672)" fill="white" fill-opacity="0.01" style="mix-blend-mode:multiply"/>
<path d="M9 14.5138C7.2036 14.5138 5.5167 13.7186 4.3717 12.3322L5.1427 11.6953C6.09705 12.851 7.50305 13.5137 9 13.5137C11.7569 13.5137 14 11.2707 14 8.51372C14 5.75672 11.7569 3.51372 9 3.51372C7.50305 3.51372 6.09705 4.17652 5.1427 5.33212L4.3717 4.69527C5.5167 3.30887 7.2036 2.51367 9 2.51367C12.3084 2.51367 15 5.20527 15 8.51367C15 11.8221 12.3084 14.5138 9 14.5138Z" fill="currentColor"/>
<path d="M11.5 8.51377L8 5.01377L7.29295 5.72082L9.58595 8.01377H1V9.01377H9.58595L7.29295 11.3067L8 12.0138L11.5 8.51377Z" fill="currentColor"/>
</svg>
