<svg viewBox="0 0 16 16" fill="none" xmlns="http://www.w3.org/2000/svg">
<rect width="16" height="16" fill="white" fill-opacity="0.01" style="mix-blend-mode:multiply"/>
<path d="M7.99986 1V2C11.3149 2 13.9999 4.685 13.9999 8C13.9999 11.315 11.3149 14 7.99986 14V15C11.8649 15 14.9999 11.865 14.9999 8C14.9999 4.135 11.8649 1 7.99986 1Z" fill="currentColor"/>
<path d="M4.11986 12.57L3.47486 13.335C4.08986 13.855 4.79486 14.27 5.56486 14.555L5.90486 13.615C5.24486 13.37 4.63986 13.015 4.11486 12.57H4.11986Z" fill="currentColor"/>
<path d="M2.09486 9L1.10986 9.205C1.24986 10.02 1.52986 10.785 1.92986 11.475L2.79486 11C2.45486 10.41 2.21486 9.695 2.09486 9Z" fill="currentColor"/>
<path d="M2.79486 5L1.92986 4.5C1.53486 5.19 1.25486 5.98 1.10986 6.795L2.09486 6.97C2.21486 6.275 2.45486 5.595 2.79486 5.005V5Z" fill="currentColor"/>
<path d="M5.90987 2.38L5.56987 1.44C4.79987 1.725 4.09487 2.14 3.47987 2.66L4.12487 3.425C4.64987 2.98 5.25487 2.625 5.91487 2.38H5.90987Z" fill="currentColor"/>
<path d="M10.4999 6V5H8.49986V3.5H7.49986V5H6.49986C5.94836 5 5.49986 5.4485 5.49986 6V7.5C5.49986 8.0515 5.94836 8.5 6.49986 8.5H9.49986V10H5.49986V11H7.49986V12.5H8.49986V11H9.49986C10.0514 11 10.4999 10.5512 10.4999 10V8.5C10.4999 7.9485 10.0514 7.5 9.49986 7.5H6.49986V6H10.4999Z" fill="currentColor"/>
</svg>
