<svg viewBox="0 0 16 16" fill="none" xmlns="http://www.w3.org/2000/svg">
<rect width="16" height="16" fill="white" fill-opacity="0.01" style="mix-blend-mode:multiply"/>
<path d="M8.49989 7.53495V4.05815C9.34534 4.1978 10.0419 4.6092 10.6108 5.314L11.3889 4.68605C10.6292 3.7449 9.65799 3.19925 8.49989 3.0481V1.5H7.49989V3.011C5.69229 3.1206 4.49989 4.14115 4.49989 5.6211C4.49989 7.75805 6.06314 8.18065 7.49989 8.4004V11.9812C6.14029 11.8923 5.49059 11.4311 4.88894 10.686L4.11084 11.314C4.99599 12.4107 5.97744 12.898 7.49989 12.9824V14.5H8.49989V12.9776C10.3627 12.8255 11.4999 11.814 11.4999 10.2576C11.4999 8.15315 9.92849 7.7498 8.49989 7.53495ZM5.49989 5.62115C5.49989 4.5445 6.51454 4.0943 7.49989 4.01445V7.38775C6.21509 7.17585 5.49989 6.86625 5.49989 5.62115ZM8.49989 11.9761V8.54745C9.78334 8.7552 10.4999 9.04965 10.4999 10.2576C10.4999 11.5257 9.40479 11.8904 8.49989 11.9761Z" fill="currentColor"/>
</svg>
