<svg viewBox="0 0 16 16" fill="none" xmlns="http://www.w3.org/2000/svg">
<rect width="16" height="16" fill="white" fill-opacity="0.01" style="mix-blend-mode:multiply"/>
<path d="M13.5 10.5H12.5C12.5 9.08869 12.5 6.95594 7.45485 6.49789L7.5452 5.50204C13.5 6.04259 13.5 8.94219 13.5 10.5Z" fill="currentColor"/>
<path d="M8.45485 10.4979C2.5 9.95735 2.5 7.0578 2.5 5.5H3.5C3.5 6.9113 3.5 9.04405 8.54515 9.5021L8.45485 10.4979Z" fill="currentColor"/>
<path d="M11.5 10.26C11.5 7.95 9.61 7.69 8.09 7.48C6.435 7.25 5.5 7.05 5.5 5.625C5.5 4.43 6.755 4.005 7.825 4.005C8.985 4.005 9.895 4.435 10.61 5.32L11.39 4.69C10.63 3.75 9.66 3.205 8.5 3.05V1.5H7.5V3.01C5.69 3.12 4.5 4.14 4.5 5.62C4.5 7.985 6.415 8.25 7.955 8.465C9.58 8.69 10.5 8.885 10.5 10.255C10.5 11.77 8.935 11.995 8 11.995C6.285 11.995 5.56 11.515 4.89 10.68L4.11 11.31C4.995 12.405 5.975 12.895 7.5 12.98V14.5H8.5V12.98C10.365 12.83 11.5 11.815 11.5 10.26Z" fill="currentColor"/>
</svg>
