<svg viewBox="0 0 16 17" fill="none" xmlns="http://www.w3.org/2000/svg">
<rect width="16" height="16" transform="translate(0 0.513672)" fill="white" fill-opacity="0.01" style="mix-blend-mode:multiply"/>
<path d="M14 5.01367H12.5V2.01367H3.5V5.01367H2C1.73478 5.01367 1.48043 5.11903 1.29289 5.30657C1.10536 5.4941 1 5.74846 1 6.01367V11.0137C1 11.2789 1.10536 11.5332 1.29289 11.7208C1.48043 11.9083 1.73478 12.0137 2 12.0137H3.5V15.0137H12.5V12.0137H14C14.2652 12.0137 14.5196 11.9083 14.7071 11.7208C14.8946 11.5332 15 11.2789 15 11.0137V6.01367C15 5.74846 14.8946 5.4941 14.7071 5.30657C14.5196 5.11903 14.2652 5.01367 14 5.01367ZM4.5 3.01367H11.5V5.01367H4.5V3.01367ZM11.5 14.0137H4.5V9.01367H11.5V14.0137ZM14 11.0137H12.5V8.01367H3.5V11.0137H2V6.01367H14V11.0137Z" fill="currentColor"/>
</svg>
