<svg viewBox="0 0 16 16" fill="none" xmlns="http://www.w3.org/2000/svg">
<rect width="16" height="16" fill="white" fill-opacity="0.01" style="mix-blend-mode:multiply"/>
<path d="M13.5 12.7929L12.5 11.7929V10.5H11.5V12.2071L12.7929 13.5L13.5 12.7929Z" fill="currentColor"/>
<path d="M12 15.5C10.0701 15.5 8.5 13.9299 8.5 12C8.5 10.0701 10.0701 8.5 12 8.5C13.9299 8.5 15.5 10.0701 15.5 12C15.5 13.9299 13.9299 15.5 12 15.5ZM12 9.5C10.6214 9.5 9.5 10.6214 9.5 12C9.5 13.3786 10.6214 14.5 12 14.5C13.3786 14.5 14.5 13.3786 14.5 12C14.5 10.6214 13.3786 9.5 12 9.5Z" fill="currentColor"/>
<path d="M14 7.5H15V2.5C15 1.9485 14.5512 1.5 14 1.5H12.5V2.5H14V7.5Z" fill="currentColor"/>
<path d="M4.5 7.5C5.05228 7.5 5.5 7.05228 5.5 6.5C5.5 5.94772 5.05228 5.5 4.5 5.5C3.94772 5.5 3.5 5.94772 3.5 6.5C3.5 7.05228 3.94772 7.5 4.5 7.5Z" fill="currentColor"/>
<path d="M8 7.5C8.55228 7.5 9 7.05228 9 6.5C9 5.94772 8.55228 5.5 8 5.5C7.44772 5.5 7 5.94772 7 6.5C7 7.05228 7.44772 7.5 8 7.5Z" fill="currentColor"/>
<path d="M11.5 7.5C12.0523 7.5 12.5 7.05228 12.5 6.5C12.5 5.94772 12.0523 5.5 11.5 5.5C10.9477 5.5 10.5 5.94772 10.5 6.5C10.5 7.05228 10.9477 7.5 11.5 7.5Z" fill="currentColor"/>
<path d="M3.5 11.5H2C1.4485 11.5 1 11.0512 1 10.5V2.5C1 1.9485 1.4485 1.5 2 1.5H3.5V2.5H2V10.5H3.5V11.5Z" fill="currentColor"/>
</svg>
