<svg viewBox="0 0 16 16" fill="none" xmlns="http://www.w3.org/2000/svg">
<rect width="16" height="16" fill="white" fill-opacity="0.01" style="mix-blend-mode:multiply"/>
<path d="M15.75 11.5C15.3365 11.5 15 11.1635 15 10.75V10C15 9.44875 14.5514 9 14 9H13V10H14V10.75C14 11.24 14.2036 11.6822 14.529 12C14.2036 12.3178 14 12.76 14 13.25V14H13V15H14C14.5514 15 15 14.5512 15 14V13.25C15 12.8365 15.3365 12.5 15.75 12.5H16V11.5H15.75Z" fill="currentColor"/>
<path d="M8 10V10.75C8 11.1635 7.66355 11.5 7.25 11.5H7V12.5H7.25C7.66355 12.5 8 12.8365 8 13.25V14C8 14.5512 8.4486 15 9 15H10V14H9V13.25C9 12.76 8.7964 12.3178 8.47095 12C8.7964 11.6822 9 11.24 9 10.75V10H10V9H9C8.4486 9 8 9.44875 8 10Z" fill="currentColor"/>
<path d="M14 7.5H15V2.5C15 1.9485 14.5512 1.5 14 1.5H12.5V2.5H14V7.5Z" fill="currentColor"/>
<path d="M11.5 7.5C12.0523 7.5 12.5 7.05228 12.5 6.5C12.5 5.94772 12.0523 5.5 11.5 5.5C10.9477 5.5 10.5 5.94772 10.5 6.5C10.5 7.05228 10.9477 7.5 11.5 7.5Z" fill="currentColor"/>
<path d="M8 7.5C8.55228 7.5 9 7.05228 9 6.5C9 5.94772 8.55228 5.5 8 5.5C7.44772 5.5 7 5.94772 7 6.5C7 7.05228 7.44772 7.5 8 7.5Z" fill="currentColor"/>
<path d="M4.5 7.5C5.05228 7.5 5.5 7.05228 5.5 6.5C5.5 5.94772 5.05228 5.5 4.5 5.5C3.94772 5.5 3.5 5.94772 3.5 6.5C3.5 7.05228 3.94772 7.5 4.5 7.5Z" fill="currentColor"/>
<path d="M3.5 11.5H2C1.4485 11.5 1 11.0512 1 10.5V2.5C1 1.9485 1.4485 1.5 2 1.5H3.5V2.5H2V10.5H3.5V11.5Z" fill="currentColor"/>
</svg>
