<svg viewBox="0 0 16 16" fill="none" xmlns="http://www.w3.org/2000/svg">
<g clip-path="url(#clip0_1961_10262)">
<rect width="16" height="16" fill="white" fill-opacity="0.01" style="mix-blend-mode:multiply"/>
<path d="M8 0.5C3.8645 0.5 0.5 3.8645 0.5 8C0.5 12.1355 3.8645 15.5 8 15.5C12.1355 15.5 15.5 12.1355 15.5 8C15.5 3.8645 12.1355 0.5 8 0.5ZM11.2913 10.75C11.0311 10.3037 10.5527 10 10 10C9.90895 10 9.8207 10.0112 9.734 10.0268L8.8711 8.5166C12.2644 8.636 13.9319 9.4297 13.9997 9.75C13.9507 9.9812 13.0547 10.457 11.2913 10.75ZM10 11C10.2758 11 10.5 11.2244 10.5 11.5C10.5 11.7756 10.2758 12 10 12C9.72425 12 9.5 11.7756 9.5 11.5C9.5 11.2244 9.72425 11 10 11ZM1.5 8C1.5 7.72825 1.5221 7.4619 1.5547 7.19875C1.9823 7.53175 2.63245 7.7974 3.41665 8C2.63245 8.20265 1.9823 8.46825 1.5547 8.80125C1.5221 8.53805 1.5 8.2717 1.5 8ZM4.70875 5.25025C4.969 5.6963 5.4474 6 6 6C6.09105 6 6.1793 5.98875 6.266 5.97315L7.1289 7.4834C3.7268 7.36375 2.05955 6.56665 1.99985 6.25245C2.04295 6.022 2.9391 5.54445 4.70875 5.25025ZM6 5C5.72425 5 5.5 4.77565 5.5 4.5C5.5 4.22435 5.72425 4 6 4C6.27575 4 6.5 4.22435 6.5 4.5C6.5 4.77565 6.27575 5 6 5ZM12.5835 8C13.3675 7.79735 14.0177 7.53175 14.4453 7.19875C14.4779 7.46195 14.5 7.7283 14.5 8C14.5 8.2717 14.4779 8.5381 14.4453 8.80125C14.0177 8.46825 13.3675 8.2026 12.5835 8ZM8 1.5C10.4509 1.5 12.5879 2.86425 13.6951 4.87255C12.5505 4.3745 10.7954 4.0969 9 4.0227V5.0222C12.3054 5.15695 13.9328 5.9338 13.9997 6.25C13.9281 6.58815 12.073 7.4531 8.28785 7.49585L7.13195 5.47315C7.35815 5.21045 7.5 4.87305 7.5 4.5C7.5 3.67285 6.82715 3 6 3C5.2522 3 4.63575 3.55175 4.52345 4.26855C3.67065 4.4104 2.9053 4.6106 2.3059 4.8711C3.41345 2.8638 5.5498 1.5 8 1.5ZM8 14.5C5.54905 14.5 3.4121 13.1358 2.30495 11.1274C3.4495 11.6255 5.2046 11.9031 7 11.9773V10.9778C3.6859 10.8426 2.05885 10.0625 1.9999 9.75245C2.0629 9.416 3.91775 8.54715 7.7122 8.50415L8.8681 10.5268C8.6419 10.7895 8.50005 11.1269 8.50005 11.5C8.50005 12.3271 9.1729 13 10 13C10.7478 13 11.3643 12.4483 11.4766 11.7315C12.3294 11.5896 13.0947 11.3894 13.6941 11.1289C12.5866 13.1362 10.4502 14.5 8 14.5Z" fill="currentColor"/>
</g>
<defs>
<clipPath id="clip0_1961_10262">
<rect width="16" height="16" fill="white"/>
</clipPath>
</defs>
</svg>
