<svg viewBox="0 0 16 17" fill="none" xmlns="http://www.w3.org/2000/svg">
<rect width="16" height="16" transform="translate(0 0.513672)" fill="white" fill-opacity="0.01" style="mix-blend-mode:multiply"/>
<path d="M15.0001 2.22098L14.2928 1.51368L8.64668 7.15993C8.59909 7.2061 8.56116 7.26127 8.53509 7.32223C8.50903 7.38319 8.49534 7.44873 8.49484 7.51503C8.49434 7.58133 8.50703 7.64706 8.53217 7.70841C8.55731 7.76976 8.5944 7.8255 8.64129 7.87238C8.68817 7.91926 8.74391 7.95635 8.80526 7.98148C8.86661 8.00662 8.93235 8.0193 8.99865 8.0188C9.06495 8.01829 9.13048 8.0046 9.19144 7.97853C9.2524 7.95246 9.30757 7.91453 9.35373 7.86693L11.0809 6.13988C11.3251 6.50495 11.4682 6.9283 11.4953 7.3667C11.5225 7.80511 11.4329 8.24287 11.2355 8.63531C11.0382 9.02774 10.7403 9.3608 10.3722 9.60047C10.0041 9.84014 9.57904 9.97785 9.14033 9.99953C8.89628 9.49566 8.53569 9.05718 8.08843 8.72042C7.64118 8.38365 7.12013 8.15828 6.56843 8.06298C6.48048 7.69727 6.47716 7.31631 6.55872 6.94912C6.64029 6.58193 6.80459 6.2382 7.0391 5.94412C7.27362 5.65003 7.57216 5.41336 7.91199 5.25212C8.25182 5.09088 8.62396 5.00933 9.00008 5.01368V4.01368C8.49396 4.01041 7.99323 4.11764 7.53284 4.32791C7.07246 4.53818 6.66352 4.8464 6.33458 5.23107C6.00564 5.61573 5.76463 6.06756 5.62838 6.555C5.49213 7.04245 5.46392 7.55376 5.54573 8.05323C5.03692 8.12205 4.54976 8.30308 4.11948 8.58323C3.95673 7.85312 3.96038 7.09575 4.13016 6.36724C4.29994 5.63873 4.63149 4.95777 5.10024 4.37483C5.56899 3.79188 6.16292 3.32191 6.83802 2.99973C7.51311 2.67755 8.25205 2.51143 9.00008 2.51368V1.51368C8.05591 1.51176 7.12467 1.73313 6.28237 2.15974C5.44008 2.58635 4.7106 3.20609 4.1535 3.96839C3.59639 4.73068 3.22745 5.61391 3.07679 6.54598C2.92612 7.47805 2.99801 8.43254 3.28658 9.33153C2.96159 9.72655 2.7281 10.1886 2.60288 10.6846C2.05793 10.8936 1.60342 11.287 1.31829 11.7963C1.03315 12.3055 0.935406 12.8986 1.04202 13.4725C1.14864 14.0463 1.45288 14.5647 1.90192 14.9376C2.35095 15.3105 2.91641 15.5143 3.50008 15.5137H8.50008C9.1338 15.5118 9.7431 15.269 10.2044 14.8345C10.6656 14.3999 10.9444 13.8062 10.984 13.1737C12.1557 12.7601 13.1708 11.9941 13.8898 10.9807C14.6089 9.96733 14.9967 8.75625 15.0001 7.51368C15.0054 6.09438 14.5018 4.72018 13.5806 3.64038L15.0001 2.22098ZM8.50008 14.5137H3.50008C3.13287 14.5143 2.77822 14.38 2.50356 14.1363C2.22891 13.8925 2.0534 13.5564 2.01042 13.1917C1.96744 12.827 2.05998 12.4592 2.27045 12.1583C2.48091 11.8574 2.79462 11.6443 3.15193 11.5596L3.48128 11.481L3.53058 11.146C3.61787 10.5534 3.91535 10.0119 4.36871 9.62048C4.82207 9.229 5.40109 9.01361 6.00008 9.01361C6.59907 9.01361 7.17808 9.229 7.63145 9.62048C8.08481 10.0119 8.38229 10.5534 8.46958 11.146L8.51888 11.4807L8.84823 11.5593C9.20578 11.6438 9.51977 11.8569 9.73046 12.1579C9.94114 12.4588 10.0338 12.8268 9.9908 13.1917C9.9478 13.5565 9.77215 13.8929 9.49727 14.1366C9.22239 14.3804 8.86748 14.5146 8.50008 14.5137V14.5137ZM14.0001 7.51368C13.9973 8.51446 13.6954 9.49154 13.133 10.3194C12.5706 11.1472 11.7735 11.7879 10.8442 12.1592C10.6556 11.6419 10.3001 11.2021 9.83383 10.9092C10.3953 10.772 10.9139 10.4978 11.3434 10.111C11.7729 9.72427 12.0998 9.23708 12.2949 8.69304C12.49 8.14901 12.5471 7.56509 12.4613 6.99355C12.3754 6.42201 12.1492 5.88068 11.8028 5.41798L12.8688 4.35208C13.6032 5.24169 14.0034 6.36011 14.0001 7.51368V7.51368Z" fill="currentColor"/>
</svg>
