<svg viewBox="0 0 16 16" fill="none" xmlns="http://www.w3.org/2000/svg">
<rect width="16" height="16" fill="white" fill-opacity="0.01" style="mix-blend-mode:multiply"/>
<path d="M5.99995 14H4.99995C3.07 14 1.49995 12.4299 1.49995 10.5V9.5H2.49995V10.5C2.49995 11.8784 3.62155 13 4.99995 13H5.99995V14Z" fill="currentColor"/>
<path d="M14 9.5H9.49995C8.94795 9.5007 8.50065 9.948 8.49995 10.5V13C8.49995 13.5523 8.94765 14 9.49995 14H11V13H9.49995V10.5H14V13H12.7323L11.4355 14.9453L12.2675 15.5L13.2675 14H14C14.5523 14 15 13.5523 15 13V10.5C14.9993 9.948 14.552 9.5007 14 9.5Z" fill="currentColor"/>
<path d="M14.5 7.5V5.5C14.5 3.57005 12.9299 2 11 2H9.49995V3H11C12.3784 3 13.5 4.1216 13.5 5.5V7.5H14.5Z" fill="currentColor"/>
<path d="M4.49995 5H2.99995V6H4.49995V5Z" fill="currentColor"/>
<path d="M6.30295 3.21775L5.0404 1.375C4.84935 1.1367 4.5648 1 4.25965 1H2C1.4486 1 1 1.44875 1 2V7C1 7.55125 1.4486 8 2 8H5.5C6.0514 8 6.5 7.55125 6.5 7V3.8125C6.5 3.5862 6.42205 3.36425 6.30295 3.21775ZM1.99995 7V2H3.99995V3.5C3.99995 3.7761 4.22385 4 4.49995 4H5.49995V7H1.99995Z" fill="currentColor"/>
</svg>
