<svg viewBox="0 0 16 16" fill="none" xmlns="http://www.w3.org/2000/svg">
<rect width="16" height="16" fill="white" fill-opacity="0.01" style="mix-blend-mode:multiply"/>
<path d="M8.00012 1C7.09079 1.00205 6.20341 1.27954 5.4549 1.79591C4.7064 2.31229 4.1319 3.04331 3.8071 3.89266C3.4823 4.74202 3.42244 5.66984 3.63541 6.55389C3.84838 7.43794 4.32418 8.23673 5.00012 8.845V15L8.00012 13L11.0001 15V8.845C11.6761 8.23673 12.1519 7.43794 12.3648 6.55389C12.5778 5.66984 12.5179 4.74202 12.1931 3.89266C11.8683 3.04331 11.2938 2.31229 10.5453 1.79591C9.79684 1.27954 8.90946 1.00205 8.00012 1V1ZM10.0001 13.13L8.55512 12.17L8.00012 11.8L7.44512 12.17L6.00012 13.13V9.525C6.62037 9.83794 7.3054 10.001 8.00012 10.001C8.69484 10.001 9.37987 9.83794 10.0001 9.525V13.13ZM10.4451 8C9.86687 8.56454 9.11108 8.91158 8.30605 8.98221C7.50101 9.05285 6.69633 8.84272 6.02861 8.38751C5.36088 7.9323 4.87126 7.26005 4.64284 6.48487C4.41443 5.7097 4.4613 4.87936 4.77549 4.13481C5.08969 3.39026 5.65186 2.77738 6.36657 2.40021C7.08128 2.02303 7.90449 1.90479 8.69647 2.06558C9.48844 2.22636 10.2004 2.65624 10.7114 3.28227C11.2225 3.90829 11.5011 4.69187 11.5001 5.5C11.4995 5.96596 11.4059 6.4271 11.2248 6.8564C11.0436 7.2857 10.7785 7.6745 10.4451 8Z" fill="currentColor"/>
</svg>
