<svg viewBox="0 0 16 16" fill="none" xmlns="http://www.w3.org/2000/svg">
<rect width="16" height="16" fill="white" fill-opacity="0.01" style="mix-blend-mode:multiply"/>
<path d="M14.7539 11.1274L13.7149 9.25735L12.8406 9.7427L13.8797 11.6133C14.042 11.9053 14.0378 12.2517 13.8682 12.54C13.6987 12.8281 13.3979 13 13.0637 13H9.415L10.705 11.7051L9.99995 11L7.49995 13.5L9.99995 16L10.705 15.2949L9.415 14H13.0637C13.7561 14 14.379 13.6438 14.7301 13.0471C15.0813 12.4502 15.0901 11.7329 14.7539 11.1274Z" fill="currentColor"/>
<path d="M2.9362 13C2.60195 13 2.3012 12.8281 2.13165 12.54C1.9621 12.2517 1.9578 11.9053 2.1202 11.6133L4.17575 7.9131L4.6997 9.6731L5.65575 9.3899L4.6516 6L1.2617 7.00415L1.5449 7.9602L3.2916 7.4453L1.24595 11.1274C0.909748 11.7329 0.918698 12.4502 1.2699 13.0471C1.62095 13.6438 2.2439 14 2.9363 14H6V13L2.9362 13Z" fill="currentColor"/>
<path d="M12.7549 4.8269L12.2311 6.5864L9.67505 1.9856C9.33215 1.3684 8.70595 1 7.9999 1C7.29385 1 6.6676 1.3684 6.32475 1.9856L4.78495 4.75735L5.6592 5.2427L7.199 2.4712C7.3628 2.1763 7.66225 2 7.9999 2C8.33755 2 8.637 2.17625 8.8008 2.4712L11.347 7.0547L9.6001 6.5398L9.3169 7.49585L12.7069 8.5L13.711 5.1101L12.7549 4.8269Z" fill="currentColor"/>
</svg>
