<svg viewBox="0 0 16 17" fill="none" xmlns="http://www.w3.org/2000/svg">
<rect width="16" height="16" transform="translate(0 0.513672)" fill="white" fill-opacity="0.01" style="mix-blend-mode:multiply"/>
<path d="M13.5 6.51367V7.51367H14V9.51367C14 9.9115 13.842 10.293 13.5607 10.5743C13.2794 10.8556 12.8978 11.0137 12.5 11.0137C12.1022 11.0137 11.7206 10.8556 11.4393 10.5743C11.158 10.293 11 9.9115 11 9.51367V7.51367H11.5V6.51367H10V9.51367C10.0008 10.0897 10.2001 10.6478 10.5645 11.094C10.9288 11.5402 11.4358 11.8472 12 11.9631V12.5137C12 13.0441 11.7893 13.5528 11.4142 13.9279C11.0391 14.303 10.5304 14.5137 10 14.5137C9.46957 14.5137 8.96086 14.303 8.58579 13.9279C8.21071 13.5528 8 13.0441 8 12.5137V11.4215C8.33361 11.3036 8.61478 11.0715 8.79382 10.7663C8.97285 10.4611 9.03823 10.1024 8.9784 9.75366C8.91856 9.40491 8.73736 9.08854 8.46683 8.86047C8.1963 8.6324 7.85384 8.50731 7.5 8.50731C7.14616 8.50731 6.80371 8.6324 6.53317 8.86047C6.26264 9.08854 6.08144 9.40491 6.0216 9.75366C5.96177 10.1024 6.02715 10.4611 6.20618 10.7663C6.38522 11.0715 6.66639 11.3036 7 11.4215V12.5137C7 13.3093 7.31607 14.0724 7.87868 14.635C8.44129 15.1976 9.20435 15.5137 10 15.5137C10.7956 15.5137 11.5587 15.1976 12.1213 14.635C12.6839 14.0724 13 13.3093 13 12.5137V11.9631C13.5642 11.8472 14.0712 11.5402 14.4355 11.094C14.7999 10.6478 14.9992 10.0897 15 9.51367V6.51367H13.5ZM7.5 9.51367C7.59889 9.51367 7.69556 9.543 7.77779 9.59794C7.86001 9.65288 7.9241 9.73097 7.96194 9.82233C7.99978 9.91369 8.00969 10.0142 7.99039 10.1112C7.9711 10.2082 7.92348 10.2973 7.85355 10.3672C7.78363 10.4372 7.69454 10.4848 7.59755 10.5041C7.50056 10.5234 7.40002 10.5135 7.30866 10.4756C7.2173 10.4378 7.13921 10.3737 7.08427 10.2915C7.02933 10.2092 7 10.1126 7 10.0137C7.00012 9.8811 7.05284 9.75399 7.14658 9.66025C7.24032 9.56651 7.36743 9.51379 7.5 9.51367Z" fill="currentColor"/>
<path d="M13 2.51367H11V1.51367H10V2.51367H6V1.51367H5V2.51367H3C2.73478 2.51367 2.48043 2.61903 2.29289 2.80657C2.10536 2.9941 2 3.24846 2 3.51367V13.5137C2 13.7789 2.10536 14.0332 2.29289 14.2208C2.48043 14.4083 2.73478 14.5137 3 14.5137H5V13.5137H3V3.51367H5V4.51367H6V3.51367H10V4.51367H11V3.51367H13V5.51367H14V3.51367C14 3.24846 13.8946 2.9941 13.7071 2.80657C13.5196 2.61903 13.2652 2.51367 13 2.51367Z" fill="currentColor"/>
</svg>
