<svg viewBox="0 0 16 16" fill="none" xmlns="http://www.w3.org/2000/svg">
<rect width="16" height="16" fill="white" fill-opacity="0.01" style="mix-blend-mode:multiply"/>
<path d="M15 12V11H13.95C13.9 10.7 13.75 10.4 13.6 10.1L14.35 9.35L13.65 8.65L12.9 9.4C12.65 9.25 12.35 9.1 12 9.05V8H11V9.05C10.7 9.1 10.4 9.25 10.1 9.4L9.35 8.65L8.65 9.35L9.4 10.1C9.25 10.35 9.1 10.65 9.05 11H8V12H9.05C9.1 12.3 9.25 12.6 9.4 12.9L8.65 13.65L9.35 14.35L10.1 13.6C10.35 13.75 10.65 13.9 11 13.95V15H12V13.95C12.3 13.9 12.6 13.75 12.9 13.6L13.65 14.35L14.35 13.65L13.6 12.9C13.75 12.65 13.9 12.35 13.95 12H15ZM11.5 13C10.65 13 10 12.35 10 11.5C10 10.65 10.65 10 11.5 10C12.35 10 13 10.65 13 11.5C13 12.35 12.35 13 11.5 13Z" fill="currentColor"/>
<path d="M14 4H8L6.3 2.3C6.1 2.1 5.85 2 5.6 2H2C1.45 2 1 2.45 1 3V13C1 13.55 1.45 14 2 14H7V13H2V3H5.6L7.6 5H14V7.5H15V5C15 4.45 14.55 4 14 4Z" fill="currentColor"/>
</svg>
