<svg viewBox="0 0 16 17" fill="none" xmlns="http://www.w3.org/2000/svg">
<g clip-path="url(#clip0_1961_11365)">
<rect width="16" height="16" transform="translate(0 0.513672)" fill="white" fill-opacity="0.01" style="mix-blend-mode:multiply"/>
<path d="M8 16.0137H7V15.8997C6.99906 15.5945 6.90549 15.2969 6.73167 15.0461C6.55786 14.7953 6.31199 14.6031 6.0266 14.4951L4.26075 13.8329C3.89112 13.693 3.57268 13.4441 3.34756 13.1193C3.12243 12.7944 3.00124 12.4089 3 12.0137H4C4.0006 12.2055 4.05941 12.3926 4.16865 12.5502C4.27789 12.7079 4.43242 12.8287 4.6118 12.8966L6.3777 13.5587C6.85335 13.7387 7.26313 14.0589 7.55282 14.4769C7.84251 14.895 7.99844 15.3911 8 15.8997V16.0137Z" fill="currentColor"/>
<path d="M15 16.0137H14V15.8997C13.9991 15.5945 13.9055 15.2969 13.7317 15.0461C13.5579 14.7953 13.312 14.6031 13.0266 14.4951L11.2607 13.8329C10.8911 13.693 10.5727 13.4441 10.3476 13.1193C10.1224 12.7944 10.0012 12.4089 10 12.0137H11C11.0006 12.2055 11.0594 12.3926 11.1687 12.5502C11.2779 12.7079 11.4324 12.8287 11.6118 12.8966L13.3777 13.5587C13.8534 13.7387 14.2631 14.0589 14.5528 14.4769C14.8425 14.895 14.9984 15.3911 15 15.8997V16.0137Z" fill="currentColor"/>
<path d="M8.5 7.01367H5.5V8.01367H8.5V7.01367Z" fill="currentColor"/>
<path d="M11.7205 4.51367L11.0843 2.23867C11.0239 2.03015 10.8976 1.84681 10.7243 1.71611C10.5509 1.58541 10.3399 1.51438 10.1228 1.51367H3.8772C3.66006 1.5144 3.449 1.58547 3.27564 1.71624C3.10229 1.847 2.97599 2.03043 2.91565 2.23902L2.26575 4.51367H1V5.51367H2V9.01367C2.00033 9.27879 2.10579 9.53295 2.29326 9.72041C2.48072 9.90788 2.73488 10.0133 3 10.0137V11.0137H4V10.0137H10V11.0137H11V10.0137C11.2651 10.0133 11.5193 9.90788 11.7067 9.72041C11.8942 9.53295 11.9997 9.27879 12 9.01367V5.51367H13V4.51367H11.7205ZM3.8772 2.51367H10.1229L10.8371 5.01367H3.16285L3.8772 2.51367ZM11 7.01367H10V8.01367H11V9.01367H3V8.01367H4V7.01367H3V6.01367H11V7.01367Z" fill="currentColor"/>
</g>
<defs>
<clipPath id="clip0_1961_11365">
<rect width="16" height="16" fill="white" transform="translate(0 0.513672)"/>
</clipPath>
</defs>
</svg>
