<svg viewBox="0 0 16 16" fill="none" xmlns="http://www.w3.org/2000/svg">
<rect width="16" height="16" fill="white" fill-opacity="0.01" style="mix-blend-mode:multiply"/>
<path d="M7.04565 13.4119L6.8723 14.3959C6.12582 14.2655 5.40818 14.0045 4.7523 13.625L5.2523 12.7596C5.80711 13.0808 6.41418 13.3016 7.04565 13.4119Z" fill="currentColor"/>
<path d="M3.78835 11.5342L3.02245 12.1768C2.53616 11.5956 2.15541 10.9337 1.89745 10.2212L2.8362 9.8795C3.05451 10.4825 3.37677 11.0425 3.78835 11.5342Z" fill="currentColor"/>
<path d="M11.2476 13.6251C10.5917 14.0047 9.87403 14.2657 9.12755 14.396L8.9542 13.412C9.5857 13.3017 10.1928 13.0809 10.7477 12.7598L11.2476 13.6251Z" fill="currentColor"/>
<path d="M13.1636 9.8795L14.1023 10.2212C13.8444 10.9337 13.4637 11.5956 12.9776 12.1768L12.2118 11.5342C12.6233 11.0425 12.9453 10.4824 13.1636 9.8795Z" fill="currentColor"/>
<path d="M6.8308 2.6281C6.7512 2.6454 6.6736 2.6681 6.5952 2.68885C6.48865 2.71695 6.3823 2.74575 6.27845 2.77995C6.1963 2.8073 6.11595 2.8383 6.0355 2.86905C5.9392 2.90615 5.84375 2.9445 5.7505 2.9865C5.66995 3.02285 5.59085 3.0615 5.51235 3.1015C5.42312 3.14693 5.33542 3.19472 5.24925 3.24485C5.17275 3.2895 5.09695 3.33485 5.0227 3.38275C4.93875 3.4372 4.8573 3.49485 4.7766 3.5534C4.7063 3.6047 4.63575 3.65525 4.5681 3.70965C4.4873 3.77435 4.4103 3.84345 4.3331 3.9128C4.27185 3.9678 4.2092 4.0212 4.1505 4.0788C4.0671 4.1606 3.98935 4.24775 3.91125 4.33465C3.00341 5.33972 2.50057 6.64577 2.5 8.00015H1.5C1.4992 6.47203 2.03945 4.99298 3.025 3.82515L3.02265 3.8232C3.06855 3.7685 3.12115 3.72015 3.1689 3.66695C3.26095 3.5644 3.3525 3.46195 3.45065 3.36545C3.51975 3.29755 3.59345 3.2348 3.66565 3.1701C3.7572 3.08785 3.8485 3.0058 3.9447 2.9289C4.0243 2.86495 4.1069 2.8056 4.18945 2.74555C4.2855 2.67555 4.3822 2.60715 4.48215 2.54245C4.5693 2.48605 4.6583 2.43305 4.74825 2.38055C4.85095 2.32102 4.95517 2.26422 5.0609 2.21015C5.1532 2.16305 5.2459 2.11785 5.3409 2.07515C5.4521 2.02515 5.5654 1.97945 5.6799 1.9355C5.7746 1.89935 5.86875 1.86275 5.96555 1.831C6.0887 1.79025 6.21455 1.7563 6.3409 1.72285C6.4333 1.6982 6.5246 1.6716 6.6186 1.6513C6.7636 1.6196 6.91185 1.5976 7.06025 1.5759C7.13975 1.5644 7.2175 1.5483 7.29795 1.5395C8.36566 1.42095 9.44608 1.57026 10.4416 1.97395C11.4371 2.37764 12.3164 3.02299 13 3.8517V2.00015H14V6.00015H10V5.00015H12.5943C12.0975 4.23358 11.417 3.60333 10.6146 3.16672C9.81224 2.73011 8.91347 2.50097 8 2.50015C7.80138 2.50067 7.60293 2.51183 7.4055 2.5336C7.3374 2.5409 7.2715 2.5546 7.2042 2.56435C7.07875 2.58265 6.9535 2.60145 6.8308 2.6281Z" fill="currentColor"/>
</svg>
