<svg viewBox="0 0 16 16" fill="none" xmlns="http://www.w3.org/2000/svg">
<rect width="16" height="16" fill="white" fill-opacity="0.01" style="mix-blend-mode:multiply"/>
<path d="M8.9549 13.4102L9.1299 14.4102C9.87631 14.28 10.5939 14.0194 11.2499 13.6402L10.7499 12.7752C10.1936 13.0907 9.58591 13.3057 8.9549 13.4102Z" fill="currentColor"/>
<path d="M12.2099 11.5352L12.9999 12.1752C13.4842 11.5937 13.8632 10.9321 14.1199 10.2202L13.1849 9.8802C12.9595 10.4848 12.6295 11.045 12.2099 11.5352Z" fill="currentColor"/>
<path d="M4.7499 13.6252C5.40586 14.0044 6.1235 14.265 6.8699 14.3952L7.0449 13.3952C6.41293 13.286 5.80524 13.066 5.2499 12.7452L4.7499 13.6252Z" fill="currentColor"/>
<path d="M2.8349 9.8802L1.8999 10.2202C2.1505 10.9307 2.52271 11.5922 2.9999 12.1752L3.1599 12.0452L3.7699 11.5452C3.35745 11.0535 3.03424 10.4934 2.8149 9.8902L2.8349 9.8802Z" fill="currentColor"/>
<path d="M14.4999 8.0002C14.4985 7.2424 14.3631 6.49082 14.0999 5.7802L13.1649 6.1202C13.3836 6.72302 13.4969 7.35896 13.4999 8.0002H14.4999Z" fill="currentColor"/>
<path d="M12.9999 3.8252C12.3899 3.09089 11.6257 2.49995 10.7616 2.09436C9.8974 1.68878 8.95451 1.47852 7.9999 1.47852C7.0453 1.47852 6.10241 1.68878 5.23825 2.09436C4.37409 2.49995 3.60987 3.09089 2.9999 3.8252V2.0002H1.9999V6.0002H5.9999V5.0002H3.4049C3.87418 4.28329 4.50447 3.68594 5.24551 3.25578C5.98655 2.82561 6.81785 2.57454 7.67311 2.52257C8.52838 2.47061 9.38396 2.61918 10.1716 2.95646C10.9593 3.29374 11.6573 3.81038 12.2099 4.4652L12.9999 3.8252Z" fill="currentColor"/>
</svg>
