<svg viewBox="0 0 16 17" fill="none" xmlns="http://www.w3.org/2000/svg">
<rect width="16" height="16" transform="translate(0 0.513672)" fill="white" fill-opacity="0.01" style="mix-blend-mode:multiply"/>
<path d="M4 9.51367C2.35 9.51367 1 10.8637 1 12.5137C1 14.1637 2.35 15.5137 4 15.5137C5.65 15.5137 7 14.1637 7 12.5137C7 10.8637 5.65 9.51367 4 9.51367ZM4 14.5137C2.9 14.5137 2 13.6137 2 12.5137C2 11.4137 2.9 10.5137 4 10.5137C5.1 10.5137 6 11.4137 6 12.5137C6 13.6137 5.1 14.5137 4 14.5137Z" fill="currentColor"/>
<path d="M15 12.5137H14C14 7.01367 9.5 2.51367 4 2.51367V1.51367C10.05 1.51367 15 6.46367 15 12.5137Z" fill="currentColor"/>
<path d="M11 12.5137H10C10 9.21367 7.3 6.51367 4 6.51367V5.51367C7.85 5.51367 11 8.66367 11 12.5137Z" fill="currentColor"/>
</svg>
