<svg viewBox="0 0 16 16" fill="none" xmlns="http://www.w3.org/2000/svg">
<rect width="16" height="16" fill="white" fill-opacity="0.01" style="mix-blend-mode:multiply"/>
<path d="M14.7052 10.8354L5.17019 1.29036C5.07731 1.19738 4.96703 1.12362 4.84563 1.0733C4.72423 1.02297 4.5941 0.99707 4.46269 0.99707C4.33127 0.99707 4.20115 1.02297 4.07975 1.0733C3.95835 1.12362 3.84806 1.19738 3.75519 1.29036L1.29519 3.75536C1.10894 3.94272 1.00439 4.19617 1.00439 4.46036C1.00439 4.72454 1.10894 4.97799 1.29519 5.16536L10.8302 14.7104C10.9236 14.803 11.0344 14.8764 11.1563 14.9261C11.2781 14.9759 11.4086 15.0011 11.5402 15.0004C11.8043 15.0006 12.0577 14.8963 12.2452 14.7104L14.7052 12.2454C14.8914 12.058 14.996 11.8045 14.996 11.5404C14.996 11.2762 14.8914 11.0227 14.7052 10.8354ZM11.5402 14.0004L2.00019 4.46036L4.46019 2.00036L6.35519 3.89536L5.23019 5.00036L5.93519 5.70536L7.06019 4.60036L9.12519 6.66536L8.00019 7.79036L8.71019 8.50036L9.83519 7.37536L11.9002 9.44036L10.7752 10.5654L11.5002 11.2704L12.6252 10.1454L14.0002 11.5404L11.5402 14.0004Z" fill="currentColor"/>
</svg>
