<svg viewBox="0 0 16 17" fill="none" xmlns="http://www.w3.org/2000/svg">
<rect width="16" height="16" transform="translate(0 0.513672)" fill="white" fill-opacity="0.01" style="mix-blend-mode:multiply"/>
<path d="M12.3904 13.5137L12.985 11.1348C13.0034 11.0611 13.0048 10.9842 12.989 10.9099C12.9732 10.8356 12.9407 10.7659 12.894 10.706C12.8472 10.6461 12.7874 10.5977 12.7192 10.5644C12.6509 10.5311 12.576 10.5137 12.5 10.5137H10V9.01373H12.5C12.5839 9.01374 12.6665 8.99264 12.7401 8.95237C12.8137 8.9121 12.876 8.85395 12.9212 8.78328C12.9664 8.71261 12.9932 8.63169 12.9989 8.54799C13.0047 8.46428 12.9892 8.38047 12.9541 8.30428L9.9541 1.80428C9.918 1.72609 9.86234 1.65854 9.79248 1.60817C9.72263 1.5578 9.64096 1.52631 9.55537 1.51676C9.46978 1.50721 9.38317 1.51991 9.30393 1.55363C9.22469 1.58736 9.1555 1.64097 9.10305 1.70928L4.10375 8.20903C4.04687 8.28304 4.01184 8.37149 4.00262 8.46438C3.99341 8.55726 4.01038 8.65087 4.05162 8.73461C4.09285 8.81835 4.1567 8.88888 4.23595 8.9382C4.31519 8.98753 4.40666 9.0137 4.5 9.01373H9V10.5137H3.5C3.42404 10.5137 3.34908 10.5311 3.28082 10.5644C3.21256 10.5977 3.15278 10.6461 3.10603 10.706C3.05928 10.7659 3.02678 10.8356 3.01101 10.9099C2.99524 10.9842 2.9966 11.0611 3.015 11.1348L3.6096 13.5137H1V14.5137H15V13.5137H12.3904ZM10 4.29008L11.7185 8.01373H10V4.29008ZM5.5154 8.01373L9 3.48373V8.01373H5.5154ZM11.3596 13.5137H4.6404L4.1404 11.5137H11.8596L11.3596 13.5137Z" fill="currentColor"/>
</svg>
