<svg viewBox="0 0 16 17" fill="none" xmlns="http://www.w3.org/2000/svg">
<rect width="16" height="16" transform="translate(0 0.513672)" fill="white" fill-opacity="0.01" style="mix-blend-mode:multiply"/>
<path d="M13.25 6.5137H9.5C8.96957 6.5137 8.46086 6.30299 8.08579 5.92792C7.71071 5.55284 7.5 5.04414 7.5 4.5137C7.5 3.98327 7.71071 3.47456 8.08579 3.09949C8.46086 2.72442 8.96957 2.5137 9.5 2.5137H9.54175C9.76446 2.20263 10.0585 1.94949 10.3992 1.77549C10.74 1.6015 11.1174 1.51173 11.5 1.5137C12.0045 1.51361 12.4971 1.6667 12.9126 1.95271C13.3282 2.23872 13.6471 2.64417 13.8272 3.1154C14.1706 3.23276 14.4686 3.45498 14.679 3.75071C14.8894 4.04643 15.0017 4.40076 15 4.7637C14.9995 5.22767 14.8149 5.67247 14.4868 6.00054C14.1588 6.32861 13.714 6.51316 13.25 6.5137ZM9.5 3.5137C9.23478 3.5137 8.98043 3.61906 8.79289 3.8066C8.60536 3.99413 8.5 4.24849 8.5 4.5137C8.5 4.77892 8.60536 5.03327 8.79289 5.22081C8.98043 5.40835 9.23478 5.5137 9.5 5.5137H13.25C13.4488 5.51348 13.6395 5.43439 13.7801 5.29379C13.9207 5.15318 13.9998 4.96255 14 4.7637C14.0004 4.58445 13.9359 4.41111 13.8185 4.27567C13.701 4.14022 13.5386 4.05182 13.3611 4.02675L13.0305 3.9772L12.9497 3.65285C12.8807 3.36038 12.7243 3.09586 12.5012 2.89454C12.2781 2.69322 11.999 2.56466 11.701 2.52599C11.403 2.48732 11.1003 2.54037 10.8332 2.67808C10.5661 2.81579 10.3474 3.03162 10.206 3.2968L10.0571 3.5137H9.5Z" fill="currentColor"/>
<path d="M6.5 14.5137V12.9578C7.39089 12.8544 8.22047 12.4522 8.8535 11.8169C8.89994 11.7705 8.93679 11.7154 8.96192 11.6547C8.98706 11.5941 9 11.5291 9 11.4634C9 11.3977 8.98706 11.3327 8.96192 11.2721C8.93679 11.2114 8.89994 11.1563 8.8535 11.1099L6.7322 8.9887L8 7.72075L7.29295 7.0137L6.025 8.2815L3.9038 6.1602C3.85739 6.11375 3.80229 6.07691 3.74163 6.05177C3.68097 6.02663 3.61596 6.01369 3.5503 6.01369C3.48464 6.01369 3.41963 6.02663 3.35897 6.05177C3.29831 6.07691 3.24321 6.11375 3.1968 6.1602C2.82535 6.53161 2.53069 6.97255 2.32966 7.45784C2.12863 7.94313 2.02516 8.46327 2.02516 8.98855C2.02516 9.51384 2.12863 10.034 2.32966 10.5193C2.53069 11.0046 2.82535 11.4455 3.1968 11.8169C3.27785 11.898 3.36315 11.9732 3.4497 12.0464L2.21605 14.5137H1V15.5137H15V14.5137H6.5ZM5.5 14.5137H3.33425L4.295 12.5921C4.67495 12.7751 5.08178 12.896 5.5 12.9502V14.5137ZM3.9038 11.1099C3.40258 10.6084 3.09503 9.94575 3.03564 9.23924C2.97626 8.53273 3.16887 7.828 3.57935 7.2499L7.76365 11.434C7.18562 11.8446 6.48089 12.0373 5.77435 11.9779C5.06781 11.9186 4.40524 11.6112 3.9038 11.1099Z" fill="currentColor"/>
</svg>
