<svg viewBox="0 0 16 16" fill="none" xmlns="http://www.w3.org/2000/svg">
<rect width="16" height="16" fill="white" fill-opacity="0.01" style="mix-blend-mode:multiply"/>
<path d="M14.4143 3.58608C14.0334 3.22223 13.527 3.01919 13.0002 3.01919C12.4735 3.01919 11.967 3.22223 11.5862 3.58608L0.171875 15.0001H4.79467C5.12313 15.001 5.44849 14.9367 5.75193 14.811C6.05537 14.6853 6.33086 14.5006 6.56248 14.2677L14.4143 6.41418C14.6 6.22852 14.7474 6.00808 14.8479 5.76545C14.9485 5.52282 15.0002 5.26276 15.0002 5.00013C15.0002 4.73749 14.9485 4.47743 14.8479 4.23481C14.7474 3.99218 14.6 3.77174 14.4143 3.58608ZM6.14663 10.4395L7.18963 9.39653L8.60427 10.8112L7.56143 11.8543L6.14663 10.4395ZM5.85523 13.5607C5.71625 13.7004 5.55097 13.8111 5.36893 13.8865C5.1869 13.962 4.99172 14.0006 4.79467 14.0001H2.58593L5.43958 11.1465L6.85458 12.5615L5.85523 13.5607ZM13.7071 5.70718L9.31108 10.1041L7.89643 8.68953L12.293 4.29308C12.4834 4.11117 12.7367 4.00966 13 4.00966C13.2634 4.00966 13.5166 4.11117 13.7071 4.29308C13.7999 4.38592 13.8736 4.49615 13.9239 4.61746C13.9741 4.73878 14 4.86881 14 5.00013C14 5.13145 13.9741 5.26148 13.9239 5.38279C13.8736 5.50411 13.7999 5.61434 13.7071 5.70718Z" fill="currentColor"/>
<path d="M7.50023 1.00013C7.19103 1.00106 6.88971 1.09769 6.63763 1.27674C6.38555 1.45579 6.19508 1.70849 6.09238 2.00013H3.90802C3.82414 1.76145 3.68111 1.54795 3.4923 1.37956C3.30349 1.21118 3.07507 1.09342 2.82838 1.03729C2.5817 0.981161 2.32482 0.988497 2.08174 1.05861C1.83866 1.12873 1.61733 1.25933 1.43844 1.43821C1.25955 1.6171 1.12893 1.83842 1.0588 2.08149C0.988677 2.32457 0.981327 2.58145 1.03744 2.82814C1.09356 3.07482 1.21131 3.30325 1.37968 3.49207C1.54805 3.68089 1.76155 3.82393 2.00022 3.90783V6.09218C1.66662 6.21013 1.38545 6.44221 1.20641 6.74742C1.02737 7.05262 0.961991 7.4113 1.02183 7.76005C1.08166 8.10879 1.26286 8.42516 1.53339 8.65323C1.80393 8.8813 2.14638 9.00639 2.50023 9.00639C2.85407 9.00639 3.19652 8.8813 3.46705 8.65323C3.73759 8.42516 3.91879 8.10879 3.97862 7.76005C4.03846 7.4113 3.97308 7.05262 3.79404 6.74742C3.615 6.44221 3.33383 6.21013 3.00022 6.09218V3.90808C3.20938 3.83349 3.39933 3.71333 3.55633 3.5563C3.71334 3.39927 3.83347 3.20929 3.90802 3.00013H6.09233C6.18446 3.25866 6.34588 3.4869 6.55895 3.6599C6.77202 3.83291 7.02855 3.94402 7.30049 3.9811C7.57244 4.01818 7.84934 3.9798 8.10095 3.87016C8.35256 3.76051 8.5692 3.58382 8.72719 3.35939C8.88517 3.13496 8.97844 2.87143 8.99679 2.59758C9.01513 2.32373 8.95786 2.05011 8.83123 1.80661C8.70459 1.56311 8.51347 1.35909 8.27873 1.21687C8.044 1.07464 7.77469 0.999659 7.50023 1.00013ZM2.50023 8.00013C2.40133 8.00013 2.30466 7.9708 2.22244 7.91586C2.14022 7.86092 2.07613 7.78283 2.03829 7.69147C2.00044 7.60011 1.99054 7.49957 2.00983 7.40258C2.02912 7.30559 2.07675 7.2165 2.14667 7.14658C2.2166 7.07665 2.30569 7.02903 2.40268 7.00974C2.49967 6.99044 2.6002 7.00035 2.69157 7.03819C2.78293 7.07603 2.86102 7.14012 2.91596 7.22234C2.9709 7.30457 3.00022 7.40124 3.00022 7.50013C3.00012 7.6327 2.94741 7.75982 2.85366 7.85357C2.75992 7.94731 2.6328 8.00002 2.50023 8.00013ZM2.50023 3.00013C2.40133 3.00013 2.30466 2.9708 2.22244 2.91586C2.14022 2.86092 2.07613 2.78283 2.03829 2.69147C2.00044 2.60011 1.99054 2.49957 2.00983 2.40258C2.02912 2.30559 2.07675 2.2165 2.14667 2.14658C2.2166 2.07665 2.30569 2.02903 2.40268 2.00974C2.49967 1.99044 2.6002 2.00035 2.69157 2.03819C2.78293 2.07603 2.86102 2.14012 2.91596 2.22234C2.9709 2.30457 3.00022 2.40124 3.00022 2.50013C3.00012 2.6327 2.94741 2.75982 2.85366 2.85357C2.75992 2.94731 2.6328 3.00002 2.50023 3.00013ZM7.50023 3.00013C7.40133 3.00013 7.30466 2.9708 7.22244 2.91586C7.14022 2.86092 7.07613 2.78283 7.03829 2.69147C7.00044 2.60011 6.99054 2.49957 7.00983 2.40258C7.02913 2.30559 7.07675 2.2165 7.14667 2.14658C7.2166 2.07665 7.30569 2.02903 7.40268 2.00974C7.49967 1.99044 7.6002 2.00035 7.69157 2.03819C7.78293 2.07603 7.86102 2.14012 7.91596 2.22234C7.9709 2.30457 8.00023 2.40124 8.00023 2.50013C8.00012 2.6327 7.94741 2.75982 7.85366 2.85357C7.75992 2.94731 7.6328 3.00002 7.50023 3.00013Z" fill="currentColor"/>
</svg>
