<svg viewBox="0 0 16 17" fill="none" xmlns="http://www.w3.org/2000/svg">
<rect width="16" height="16" transform="translate(0 0.513672)" fill="white" fill-opacity="0.01" style="mix-blend-mode:multiply"/>
<path d="M14 2.51367H2C1.73478 2.51367 1.48043 2.61903 1.29289 2.80657C1.10536 2.9941 1 3.24846 1 3.51367V11.5137C1 11.7789 1.10536 12.0332 1.29289 12.2208C1.48043 12.4083 1.73478 12.5137 2 12.5137H6V14.5137H4V15.5137H12V14.5137H10V12.5137H14C14.2652 12.5137 14.5196 12.4083 14.7071 12.2208C14.8946 12.0332 15 11.7789 15 11.5137V3.51367C15 3.24846 14.8946 2.9941 14.7071 2.80657C14.5196 2.61903 14.2652 2.51367 14 2.51367V2.51367ZM9 14.5137H7V12.5137H9V14.5137ZM14 11.5137H2V3.51367H14V11.5137Z" fill="currentColor"/>
</svg>
