<svg viewBox="0 0 16 16" fill="none" xmlns="http://www.w3.org/2000/svg">
<rect width="16" height="16" fill="white" fill-opacity="0.01" style="mix-blend-mode:multiply"/>
<path d="M2 10.0002V11.0002H4.293L1 14.2932L1.707 15.0002L5 11.7072V14.0002H6V10.0002H2Z" fill="currentColor"/>
<path d="M13.585 13.0002L12.295 14.2902L13 15.0002L15 13.0002L13 11.0002L12.29 11.7052L13.585 13.0002Z" fill="currentColor"/>
<path d="M9.415 13.0002L10.705 11.7102L10 11.0002L8 13.0002L10 15.0002L10.71 14.2952L9.415 13.0002Z" fill="currentColor"/>
<path d="M12.85 4.65017L9.35 1.15017C9.30599 1.10134 9.2519 1.06263 9.19147 1.03674C9.13104 1.01084 9.06572 0.998364 9 1.00017H4C3.73502 1.00094 3.48111 1.10654 3.29374 1.29391C3.10637 1.48128 3.00077 1.73519 3 2.00017V8.00017H4V2.00017H8V5.00017C8.00077 5.26515 8.10637 5.51906 8.29374 5.70643C8.48111 5.8938 8.73502 5.99941 9 6.00017H12V9.00017H13V5.00017C13.0018 4.93446 12.9893 4.86913 12.9634 4.80871C12.9375 4.74828 12.8988 4.6942 12.85 4.65017ZM9 5.00017V2.20017L11.8 5.00017H9Z" fill="currentColor"/>
</svg>
