<svg viewBox="0 0 16 17" fill="none" xmlns="http://www.w3.org/2000/svg">
<rect width="16" height="16" transform="translate(0 0.513672)" fill="white" fill-opacity="0.01" style="mix-blend-mode:multiply"/>
<path d="M15 12.5137V11.5137H13.9495C13.885 11.2007 13.7607 10.9031 13.5835 10.6372L14.3285 9.89222L13.6215 9.18522L12.8765 9.93022C12.6106 9.75297 12.313 9.6287 12 9.56422V8.51367H11V9.56422C10.687 9.62869 10.3894 9.75295 10.1236 9.93017L9.37855 9.18517L8.67155 9.89217L9.41655 10.6372C9.23931 10.9031 9.11504 11.2007 9.05055 11.5137H8V12.5137H9.05055C9.11503 12.8266 9.23928 13.1242 9.4165 13.3901L8.6715 14.1351L9.3785 14.8421L10.1235 14.0971C10.3894 14.2744 10.687 14.3986 11 14.4631V15.5137H12V14.4631C12.313 14.3986 12.6106 14.2744 12.8765 14.0972L13.6215 14.8422L14.3285 14.1352L13.5835 13.3902C13.7607 13.1243 13.885 12.8267 13.9495 12.5137H15ZM11.5 13.5137C11.2033 13.5137 10.9133 13.4257 10.6666 13.2609C10.42 13.0961 10.2277 12.8618 10.1142 12.5877C10.0007 12.3136 9.97095 12.012 10.0288 11.721C10.0867 11.4301 10.2296 11.1628 10.4393 10.953C10.6491 10.7432 10.9164 10.6004 11.2074 10.5425C11.4983 10.4846 11.7999 10.5143 12.074 10.6279C12.3481 10.7414 12.5824 10.9336 12.7472 11.1803C12.912 11.427 13 11.717 13 12.0137C12.9996 12.4114 12.8414 12.7926 12.5602 13.0738C12.279 13.3551 11.8977 13.5132 11.5 13.5137Z" fill="currentColor"/>
<path d="M7 13.8472L5.3828 12.9849C4.66248 12.6017 4.0601 12.0296 3.64031 11.3299C3.22051 10.6303 2.99916 9.82958 3 9.01367V2.51367H13V7.51367H14V2.51367C13.9997 2.24855 13.8942 1.99437 13.7068 1.8069C13.5193 1.61943 13.2651 1.51398 13 1.51367H3C2.73488 1.51398 2.4807 1.61943 2.29323 1.8069C2.10576 1.99437 2.00031 2.24855 2 2.51367V9.01367C1.99892 10.0109 2.26942 10.9895 2.78246 11.8446C3.29551 12.6997 4.03173 13.3989 4.9121 13.8672L7 14.9805V13.8472Z" fill="currentColor"/>
</svg>
