<svg viewBox="0 0 16 16" fill="none" xmlns="http://www.w3.org/2000/svg">
<rect width="16" height="16" fill="white" fill-opacity="0.01" style="mix-blend-mode:multiply"/>
<path d="M13.855 2.14464C13.7875 2.07748 13.7023 2.03098 13.6093 2.0106C13.5163 1.99023 13.4194 1.99684 13.33 2.02964L2.33 6.02964C2.23513 6.06562 2.15346 6.12962 2.09583 6.21312C2.03819 6.29662 2.00732 6.39568 2.00732 6.49714C2.00732 6.5986 2.03819 6.69766 2.09583 6.78116C2.15346 6.86466 2.23513 6.92866 2.33 6.96464L7.13 8.88464L9.05 13.6846C9.08607 13.7753 9.14791 13.8535 9.22787 13.9095C9.30783 13.9654 9.40243 13.9968 9.5 13.9996C9.60104 13.9976 9.69909 13.9649 9.7812 13.906C9.86332 13.8471 9.92566 13.7647 9.96 13.6696L13.96 2.66964C13.9941 2.58118 14.0023 2.48486 13.9837 2.3919C13.9651 2.29895 13.9205 2.2132 13.855 2.14464ZM9.5 12.0996L8.105 8.59964L10.5 6.20464L9.795 5.49964L7.38 7.91464L3.9 6.49964L12.665 3.33464L9.5 12.0996Z" fill="currentColor"/>
</svg>
