<svg viewBox="0 0 16 17" fill="none" xmlns="http://www.w3.org/2000/svg">
<rect width="16" height="16" transform="translate(0 0.513672)" fill="white" fill-opacity="0.01" style="mix-blend-mode:multiply"/>
<path d="M3 15.5136H13C13.2652 15.5136 13.5196 15.4082 13.7071 15.2207C13.8946 15.0331 14 14.7788 14 14.5136V11.5136C14 11.2483 13.8946 10.994 13.7071 10.8064C13.5196 10.6189 13.2652 10.5136 13 10.5136H3C2.73478 10.5136 2.48043 10.6189 2.29289 10.8064C2.10536 10.994 2 11.2483 2 11.5136V14.5136C2 14.7788 2.10536 15.0331 2.29289 15.2207C2.48043 15.4082 2.73478 15.5136 3 15.5136ZM3 11.5136H13V14.5136H3V11.5136Z" fill="currentColor"/>
<path d="M4.5 13.5136C4.77614 13.5136 5 13.2897 5 13.0136C5 12.7374 4.77614 12.5136 4.5 12.5136C4.22386 12.5136 4 12.7374 4 13.0136C4 13.2897 4.22386 13.5136 4.5 13.5136Z" fill="currentColor"/>
<path d="M13 1.51355L12.295 2.21855L13.585 3.51355H11.1575C10.8029 2.75162 10.1854 2.14315 9.41832 1.79981C8.65125 1.45647 7.78609 1.4013 6.98162 1.64444C6.17715 1.88757 5.48737 2.41269 5.03886 3.12341C4.59036 3.83413 4.41324 4.68276 4.54 5.51355H2.415L3.705 4.21855L3 3.51355L0.5 6.01355L3 8.51355L3.705 7.80855L2.415 6.51355H4.8425C5.1971 7.27548 5.81461 7.88396 6.58168 8.2273C7.34875 8.57064 8.21391 8.6258 9.01838 8.38267C9.82285 8.13954 10.5126 7.61442 10.9611 6.9037C11.4096 6.19298 11.5868 5.34434 11.46 4.51355H13.585L12.295 5.80855L13 6.51355L15.5 4.01355L13 1.51355ZM10.5 5.01355C10.5018 5.53757 10.3383 6.0488 10.0328 6.47456C9.72734 6.90032 9.29539 7.21892 8.79841 7.38505C8.30143 7.55118 7.76471 7.55639 7.2646 7.39993C6.76449 7.24347 6.32644 6.9333 6.01275 6.51355H8V5.51355H5.55055C5.43509 4.95823 5.51248 4.38014 5.76994 3.87475C6.02739 3.36935 6.44952 2.96687 6.9666 2.73378C7.48369 2.50068 8.06481 2.45091 8.614 2.59269C9.16319 2.73446 9.6476 3.05929 9.98725 3.51355H8V4.51355H10.4494C10.483 4.6781 10.5 4.84561 10.5 5.01355Z" fill="currentColor"/>
</svg>
