<svg viewBox="0 0 16 16" fill="none" xmlns="http://www.w3.org/2000/svg">
<rect width="16" height="16" fill="white" fill-opacity="0.01" style="mix-blend-mode:multiply"/>
<path d="M3.5 10.0001C3.77614 10.0001 4 9.7762 4 9.50005C4 9.22391 3.77614 9.00005 3.5 9.00005C3.22386 9.00005 3 9.22391 3 9.50005C3 9.7762 3.22386 10.0001 3.5 10.0001Z" fill="currentColor"/>
<path d="M8 6.00005C8.27614 6.00005 8.5 5.7762 8.5 5.50005C8.5 5.22391 8.27614 5.00005 8 5.00005C7.72386 5.00005 7.5 5.22391 7.5 5.50005C7.5 5.7762 7.72386 6.00005 8 6.00005Z" fill="currentColor"/>
<path d="M12.5 10.0001C12.7761 10.0001 13 9.7762 13 9.50005C13 9.22391 12.7761 9.00005 12.5 9.00005C12.2239 9.00005 12 9.22391 12 9.50005C12 9.7762 12.2239 10.0001 12.5 10.0001Z" fill="currentColor"/>
<path d="M5 7.50005C5.27614 7.50005 5.5 7.2762 5.5 7.00005C5.5 6.72391 5.27614 6.50005 5 6.50005C4.72386 6.50005 4.5 6.72391 4.5 7.00005C4.5 7.2762 4.72386 7.50005 5 7.50005Z" fill="currentColor"/>
<path d="M15 10.0001H14C14 9.36926 13.9027 8.74796 13.7107 8.15361L14.6624 7.84631C14.8864 8.54011 15 9.26476 15 10.0001Z" fill="currentColor"/>
<path d="M14.9254 4.4888L13.707 5.70705C13.5259 5.8882 13.2757 6 12.9999 6C12.4484 6 11.9999 5.5515 11.9999 5C11.9999 4.7241 12.112 4.4741 12.2931 4.2932L13.5113 3.0747C13.3471 3.03075 13.1778 3 12.9999 3C11.8971 3 10.9999 3.8972 10.9999 5C10.9999 5.36965 11.1076 5.7119 11.2834 6.0095L9.00945 8.28345C8.71195 8.10765 8.3697 8 7.99995 8C6.89715 8 5.99995 8.8972 5.99995 10C5.99995 11.1028 6.89715 12 7.99995 12C9.10275 12 9.99995 11.1028 9.99995 10C9.99995 9.63015 9.8923 9.28785 9.7165 8.9905L11.9904 6.71655C12.2879 6.89235 12.6302 7 12.9999 7C14.1027 7 14.9999 6.1028 14.9999 5C14.9999 4.82225 14.9692 4.6529 14.9254 4.4888ZM8 11C7.4485 11 7 10.5513 7 10.0001C7 9.4488 7.4485 9.00005 8 9.00005C8.5515 9.00005 9 9.4488 9 10.0001C9 10.5513 8.5515 11 8 11Z" fill="currentColor"/>
<path d="M2 10.0001H1C1 6.14025 4.14015 3.00005 8 3.00005C8.73535 3.00005 9.45995 3.11365 10.1537 3.33775L9.84635 4.2893C9.2521 4.0974 8.6309 4.00005 8.00005 4.00005C4.6917 4.00005 2 6.69165 2 10.0001Z" fill="currentColor"/>
</svg>
