<svg viewBox="0 0 16 17" fill="none" xmlns="http://www.w3.org/2000/svg">
<rect width="16" height="16" transform="translate(0 0.513672)" fill="white" fill-opacity="0.01" style="mix-blend-mode:multiply"/>
<path d="M14 12.5166V11.5166C13.9977 10.013 13.4314 8.56489 12.413 7.45863C11.3947 6.35236 9.99831 5.6684 8.5 5.54195V4.5166H10V3.5166H6V4.5166H7.5V5.54195C6.00169 5.6684 4.60533 6.35236 3.58695 7.45863C2.56857 8.56489 2.00227 10.013 2 11.5166V12.5166H1V13.5166H15V12.5166H14ZM8 6.5166C9.1521 6.51812 10.2685 6.91679 11.1609 7.64543C12.0533 8.37406 12.6672 9.38809 12.8992 10.5166H3.10075C3.33269 9.38808 3.94663 8.37403 4.83907 7.64539C5.73151 6.91675 6.84789 6.51809 8 6.5166ZM3 11.5166H13V12.5166H3V11.5166Z" fill="currentColor"/>
</svg>
