<svg viewBox="0 0 16 16" fill="none" xmlns="http://www.w3.org/2000/svg">
<rect width="16" height="16" fill="white" fill-opacity="0.01" style="mix-blend-mode:multiply"/>
<path d="M15.8537 9.64645L14.3537 8.14645C14.1584 7.95115 13.842 7.95115 13.6467 8.14645L9.00017 12.7929V15H11.2072L15.8537 10.3535C16.049 10.1582 16.049 9.8418 15.8537 9.64645ZM10.7932 14H10.0002V13.207L12.5002 10.707L13.2932 11.5L10.7932 14ZM14.0002 10.7929L13.2073 9.99995L14.0002 9.207L14.7932 9.99995L14.0002 10.7929Z" fill="currentColor"/>
<path d="M8.00022 11C6.31807 11 5.00022 9.68215 5.00022 8C5.00022 6.31785 6.31807 5 8.00022 5C9.68237 5 11.0002 6.31785 11.0002 8C11.0002 9.68215 9.68237 11 8.00022 11ZM8.00022 6C6.86007 6 6.00022 6.85985 6.00022 8C6.00022 9.14015 6.86007 10 8.00022 10C9.14037 10 10.0002 9.14015 10.0002 8C10.0002 6.85985 9.14037 6 8.00022 6Z" fill="currentColor"/>
<path d="M13.7739 6.00025L14.64 5.50025L13.4723 3.47805C13.2897 3.16165 12.9556 2.9778 12.6062 2.9778C12.4995 2.9778 12.3915 2.9949 12.2859 3.0308L11.0689 3.4424C10.8599 3.3018 10.6409 3.1748 10.4129 3.06325L10.161 1.80395C10.0675 1.3364 9.65712 1 9.18042 1H6.82007C6.34337 1 5.93297 1.33645 5.83947 1.80395L5.58762 3.06325C5.35812 3.17555 5.13452 3.29785 4.92427 3.43995L3.71457 3.03075C3.60897 2.99485 3.50097 2.97775 3.39427 2.97775C3.04492 2.97775 2.71082 3.1616 2.52817 3.478L1.34787 5.52195C1.10957 5.9348 1.19577 6.45845 1.55382 6.77315L2.51927 7.62155C2.51072 7.7473 2.50022 7.8723 2.50022 7.99995C2.50022 8.12885 2.50537 8.2563 2.51412 8.38275L1.55377 9.22675C1.19572 9.54145 1.10957 10.0652 1.34782 10.478L2.52812 12.5219C2.71072 12.8383 3.04482 13.0222 3.39422 13.0222C3.50092 13.0222 3.60907 13.005 3.71452 12.9691L4.93157 12.5576C5.14057 12.6984 5.35957 12.8251 5.58757 12.9367L5.83942 14.196C5.93292 14.6636 6.34332 15 6.82002 15H8.00022V14H6.82002L6.46492 12.2246C5.97727 12.0466 5.51362 11.7714 5.11752 11.4389L3.39412 12.0219L2.21392 9.97795L3.57657 8.78045C3.48467 8.25895 3.48087 7.73895 3.57302 7.2165L2.21387 6.0219L3.39442 3.97795L5.10782 4.55755C5.50942 4.2194 5.97257 3.955 6.46487 3.7753L6.81997 1.9999H9.18032L9.53542 3.7753C10.0231 3.9533 10.4866 4.2284 10.8828 4.56095L12.6062 3.97795L13.7739 6.00025Z" fill="currentColor"/>
</svg>
