<svg viewBox="0 0 16 16" fill="none" xmlns="http://www.w3.org/2000/svg">
<rect width="16" height="16" fill="white" fill-opacity="0.01" style="mix-blend-mode:multiply"/>
<path d="M14.5001 12.5H13.5001V11.5H14.0001V9.5H12.0001V10H11.0001V9C11.0001 8.86739 11.0528 8.74021 11.1466 8.64645C11.2403 8.55268 11.3675 8.5 11.5001 8.5H14.5001C14.6327 8.5 14.7599 8.55268 14.8537 8.64645C14.9474 8.74021 15.0001 8.86739 15.0001 9V12C15.0001 12.1326 14.9474 12.2598 14.8537 12.3536C14.7599 12.4473 14.6327 12.5 14.5001 12.5Z" fill="currentColor"/>
<path d="M12.0001 15H9.00012C8.86751 15 8.74033 14.9473 8.64656 14.8536C8.5528 14.7598 8.50012 14.6326 8.50012 14.5V11.5C8.50012 11.3674 8.5528 11.2402 8.64656 11.1464C8.74033 11.0527 8.86751 11 9.00012 11H12.0001C12.1327 11 12.2599 11.0527 12.3537 11.1464C12.4474 11.2402 12.5001 11.3674 12.5001 11.5V14.5C12.5001 14.6326 12.4474 14.7598 12.3537 14.8536C12.2599 14.9473 12.1327 15 12.0001 15ZM9.50012 14H11.5001V12H9.50012V14Z" fill="currentColor"/>
<path d="M7.50012 9.92895C7.13877 9.83482 6.81105 9.64126 6.55419 9.37023C6.29732 9.09921 6.12161 8.76158 6.04699 8.39571C5.97238 8.02983 6.00185 7.65036 6.13207 7.30039C6.2623 6.95043 6.48804 6.64399 6.78368 6.41588C7.07932 6.18778 7.43299 6.04714 7.80455 6.00995C8.1761 5.97276 8.55063 6.0405 8.88562 6.20548C9.2206 6.37046 9.50261 6.62607 9.69962 6.94328C9.89662 7.26049 10.0007 7.62659 10.0001 8H11.0001C11.0007 7.4279 10.8377 6.86756 10.5303 6.38506C10.2229 5.90256 9.78397 5.51801 9.26523 5.27675C8.74649 5.0355 8.16958 4.9476 7.60253 5.02342C7.03547 5.09924 6.50193 5.33562 6.06479 5.70469C5.62766 6.07375 5.30517 6.56012 5.13534 7.10643C4.96552 7.65274 4.95545 8.23622 5.10631 8.78806C5.25717 9.33991 5.56268 9.83712 5.98682 10.2211C6.41095 10.605 6.93602 10.8596 7.50012 10.955V9.92895Z" fill="currentColor"/>
<path d="M14.4451 6.775L13.2901 7.79L12.5801 7.08L13.7851 6.02L12.6051 3.98L10.8851 4.56C10.4822 4.22464 10.0259 3.95928 9.53511 3.775L9.18011 2H6.82011L6.46511 3.775C5.97042 3.95414 5.51159 4.21995 5.11011 4.56L3.39511 3.98L2.21511 6.02L3.57511 7.215C3.48261 7.73257 3.48261 8.26243 3.57511 8.78L2.21511 9.98L3.39511 12.02L5.11511 11.44C5.51802 11.7754 5.97436 12.0407 6.46511 12.225L6.82011 14H7.50011V15H6.82011C6.5889 14.9997 6.36491 14.9194 6.18624 14.7726C6.00758 14.6259 5.88526 14.4218 5.84011 14.195L5.58511 12.935C5.35874 12.8246 5.13993 12.6993 4.93011 12.56L3.71511 12.97C3.61179 13.0036 3.50376 13.0205 3.39511 13.02C3.21947 13.0212 3.0467 12.9755 2.89463 12.8876C2.74257 12.7997 2.61673 12.6728 2.53011 12.52L1.35011 10.48C1.23341 10.2795 1.19004 10.0447 1.22744 9.81572C1.26484 9.58677 1.38067 9.37794 1.55511 9.225L2.51511 8.385C2.50511 8.255 2.50011 8.13 2.50011 8C2.50011 7.87 2.51011 7.745 2.52011 7.62L1.55511 6.775C1.38067 6.62206 1.26484 6.41324 1.22744 6.18428C1.19004 5.95533 1.23341 5.72049 1.35011 5.52L2.53011 3.48C2.61673 3.3272 2.74257 3.20029 2.89463 3.1124C3.0467 3.0245 3.21947 2.97879 3.39511 2.98C3.50376 2.9795 3.61179 2.99638 3.71511 3.03L4.92511 3.44C5.13664 3.30065 5.35712 3.17538 5.58511 3.065L5.84011 1.805C5.88526 1.57824 6.00758 1.37411 6.18624 1.22735C6.36491 1.08059 6.5889 1.00025 6.82011 1H9.18011C9.41133 1.00025 9.63532 1.08059 9.81398 1.22735C9.99265 1.37411 10.115 1.57824 10.1601 1.805L10.4151 3.065C10.6415 3.17541 10.8603 3.30068 11.0701 3.44L12.2851 3.03C12.3884 2.99638 12.4965 2.9795 12.6051 2.98C12.7808 2.97879 12.9535 3.0245 13.1056 3.1124C13.2577 3.20029 13.3835 3.3272 13.4701 3.48L14.6501 5.52C14.7668 5.72049 14.8102 5.95533 14.7728 6.18428C14.7354 6.41324 14.6196 6.62206 14.4451 6.775Z" fill="currentColor"/>
</svg>
