<svg viewBox="0 0 16 17" fill="none" xmlns="http://www.w3.org/2000/svg">
<rect width="16" height="16" transform="translate(0 0.513672)" fill="white" fill-opacity="0.01" style="mix-blend-mode:multiply"/>
<path d="M11.4998 10.5138C11.1256 10.5157 10.7565 10.6015 10.4199 10.7651C10.0833 10.9287 9.78764 11.1657 9.55485 11.4588L5.89985 9.17377C6.03306 8.74386 6.03306 8.28369 5.89985 7.85377L9.55485 5.56877C9.92582 6.02813 10.4474 6.34136 11.0272 6.45298C11.607 6.56459 12.2076 6.46739 12.7226 6.17859C13.2376 5.88978 13.6338 5.42802 13.8409 4.8751C14.048 4.32218 14.0528 3.71378 13.8543 3.15769C13.6558 2.6016 13.267 2.1337 12.7565 1.83689C12.2461 1.54007 11.6471 1.4335 11.0656 1.53604C10.4841 1.63859 9.95773 1.94363 9.57963 2.39713C9.20152 2.85064 8.99613 3.42334 8.99985 4.01377C9.00221 4.23736 9.03587 4.45952 9.09985 4.67377L5.44485 6.95877C5.12217 6.55257 4.68112 6.2568 4.18282 6.11247C3.68453 5.96814 3.15368 5.98241 2.66385 6.15328C2.17403 6.32415 1.74949 6.64318 1.44909 7.06613C1.14869 7.48907 0.987305 7.995 0.987305 8.51377C0.987305 9.03255 1.14869 9.53847 1.44909 9.96142C1.74949 10.3844 2.17403 10.7034 2.66385 10.8743C3.15368 11.0451 3.68453 11.0594 4.18282 10.9151C4.68112 10.7707 5.12217 10.475 5.44485 10.0688L9.09985 12.3538C9.03587 12.568 9.00221 12.7902 8.99985 13.0138C8.99985 13.5082 9.14647 13.9916 9.42117 14.4027C9.69588 14.8138 10.0863 15.1343 10.5431 15.3235C11 15.5127 11.5026 15.5622 11.9876 15.4657C12.4725 15.3693 12.918 15.1312 13.2676 14.7815C13.6172 14.4319 13.8553 13.9865 13.9518 13.5015C14.0483 13.0165 13.9988 12.5139 13.8095 12.0571C13.6203 11.6002 13.2999 11.2098 12.8888 10.9351C12.4776 10.6604 11.9943 10.5138 11.4998 10.5138ZM11.4998 2.51377C11.7965 2.51377 12.0865 2.60175 12.3332 2.76657C12.5799 2.93139 12.7721 3.16566 12.8857 3.43975C12.9992 3.71384 13.0289 4.01544 12.971 4.30641C12.9131 4.59738 12.7703 4.86466 12.5605 5.07443C12.3507 5.28421 12.0835 5.42707 11.7925 5.48495C11.5015 5.54283 11.1999 5.51312 10.9258 5.39959C10.6517 5.28606 10.4175 5.0938 10.2526 4.84713C10.0878 4.60046 9.99985 4.31045 9.99985 4.01377C9.99985 3.61595 10.1579 3.23442 10.4392 2.95311C10.7205 2.67181 11.102 2.51377 11.4998 2.51377ZM3.49985 10.0138C3.20318 10.0138 2.91317 9.9258 2.66649 9.76098C2.41982 9.59616 2.22756 9.36189 2.11403 9.0878C2.0005 8.81371 1.97079 8.51211 2.02867 8.22114C2.08655 7.93017 2.22941 7.66289 2.43919 7.45311C2.64897 7.24333 2.91624 7.10047 3.20721 7.0426C3.49818 6.98472 3.79978 7.01442 4.07387 7.12795C4.34796 7.24149 4.58223 7.43374 4.74705 7.68042C4.91187 7.92709 4.99985 8.2171 4.99985 8.51377C4.99985 8.9116 4.84181 9.29313 4.56051 9.57443C4.2792 9.85574 3.89767 10.0138 3.49985 10.0138ZM11.4998 14.5138C11.2032 14.5138 10.9132 14.4258 10.6665 14.261C10.4198 14.0962 10.2276 13.8619 10.114 13.5878C10.0005 13.3137 9.97079 13.0121 10.0287 12.7211C10.0865 12.4302 10.2294 12.1629 10.4392 11.9531C10.649 11.7433 10.9162 11.6005 11.2072 11.5426C11.4982 11.4847 11.7998 11.5144 12.0739 11.628C12.348 11.7415 12.5822 11.9337 12.7471 12.1804C12.9119 12.4271 12.9998 12.7171 12.9998 13.0138C12.9998 13.4116 12.8418 13.7931 12.5605 14.0744C12.2792 14.3557 11.8977 14.5138 11.4998 14.5138Z" fill="currentColor"/>
</svg>
