<svg viewBox="0 0 16 17" fill="none" xmlns="http://www.w3.org/2000/svg">
<rect width="16" height="16" transform="translate(0 0.513672)" fill="white" fill-opacity="0.01" style="mix-blend-mode:multiply"/>
<path d="M14 10.5137H13V11.5137H14V14.5137H2V11.5137H3V10.5137H2C1.73488 10.514 1.48071 10.6195 1.29324 10.8069C1.10578 10.9944 1.00032 11.2486 1 11.5137V14.5137C1.00032 14.7788 1.10578 15.033 1.29324 15.2204C1.48071 15.4079 1.73488 15.5134 2 15.5137H14C14.2651 15.5134 14.5193 15.4079 14.7068 15.2204C14.8942 15.033 14.9997 14.7788 15 14.5137V11.5137C14.9997 11.2486 14.8942 10.9944 14.7068 10.8069C14.5193 10.6195 14.2651 10.514 14 10.5137Z" fill="currentColor"/>
<path d="M3.5 13.5137C3.77614 13.5137 4 13.2898 4 13.0137C4 12.7375 3.77614 12.5137 3.5 12.5137C3.22386 12.5137 3 12.7375 3 13.0137C3 13.2898 3.22386 13.5137 3.5 13.5137Z" fill="currentColor"/>
<path d="M8 11.5137C7.92237 11.5137 7.8458 11.4956 7.77635 11.4609L2.77635 8.96093L3.22365 8.06643L8 10.4547L12.7764 8.06643L13.2236 8.96093L8.22365 11.4609C8.1542 11.4956 8.07763 11.5137 8 11.5137Z" fill="currentColor"/>
<path d="M8 8.51368C7.92237 8.51369 7.8458 8.49563 7.77635 8.46093L2.77635 5.96093C2.69328 5.91941 2.62341 5.85558 2.57458 5.77658C2.52575 5.69759 2.49988 5.60655 2.49988 5.51368C2.49988 5.42081 2.52575 5.32978 2.57458 5.25078C2.62341 5.17179 2.69328 5.10795 2.77635 5.06643L7.77635 2.56643C7.8458 2.53174 7.92237 2.51367 8 2.51367C8.07763 2.51367 8.1542 2.53174 8.22365 2.56643L13.2236 5.06643C13.3067 5.10795 13.3766 5.17179 13.4254 5.25078C13.4743 5.32978 13.5001 5.42081 13.5001 5.51368C13.5001 5.60655 13.4743 5.69759 13.4254 5.77658C13.3766 5.85558 13.3067 5.91941 13.2236 5.96093L8.22365 8.46093C8.1542 8.49563 8.07763 8.51369 8 8.51368ZM4.1179 5.51368L8 7.45473L11.8821 5.51368L8 3.57263L4.1179 5.51368Z" fill="currentColor"/>
</svg>
