<svg viewBox="0 0 16 16" fill="none" xmlns="http://www.w3.org/2000/svg">
<rect width="16" height="16" fill="white" fill-opacity="0.01" style="mix-blend-mode:multiply"/>
<path d="M14 4.5L13.25 7L13 8L12.75 7L12 4.5H11V11.5H12V7.5L11.9 6.5L12.2 7.5L13 9.8L13.8 7.5L14.1 6.5L14 7.5V11.5H15V4.5H14Z" fill="currentColor"/>
<path d="M7 10.5V4.5H6V11.5H10V10.5H7Z" fill="currentColor"/>
<path d="M4 11.5H1V10.5H4V8.5H2C1.45 8.5 1 8.05 1 7.5V5.5C1 4.95 1.45 4.5 2 4.5H5V5.5H2V7.5H4C4.55 7.5 5 7.95 5 8.5V10.5C5 11.05 4.55 11.5 4 11.5Z" fill="currentColor"/>
</svg>
