<svg viewBox="0 0 16 17" fill="none" xmlns="http://www.w3.org/2000/svg">
<rect width="16" height="16" transform="translate(0 0.513672)" fill="white" fill-opacity="0.01" style="mix-blend-mode:multiply"/>
<path d="M13.5005 14.5137C13.4228 14.5138 13.3461 14.4958 13.2766 14.4611C13.2071 14.4264 13.1467 14.3759 13.1001 14.3137L12.6929 13.7707C12.3067 13.256 12.0355 12.6645 11.8974 12.0361C11.7594 11.4077 11.7577 10.757 11.8926 10.1279L12.6294 6.68977C12.7344 6.20046 12.7332 5.69432 12.6258 5.20552C12.5185 4.71672 12.3075 4.25665 12.0071 3.85637L11.6 3.31367C11.5606 3.26115 11.5319 3.20137 11.5156 3.13776C11.4993 3.07416 11.4957 3.00796 11.505 2.94296C11.5143 2.87796 11.5363 2.81543 11.5698 2.75893C11.6032 2.70243 11.6475 2.65307 11.7 2.61367C11.7525 2.57428 11.8123 2.54561 11.8759 2.52932C11.9395 2.51302 12.0057 2.50941 12.0707 2.5187C12.1357 2.52799 12.1982 2.54998 12.2547 2.58344C12.3112 2.61689 12.3606 2.66115 12.4 2.71367L12.8073 3.25652C13.1934 3.77118 13.4646 4.36267 13.6027 4.99109C13.7407 5.6195 13.7424 6.27022 13.6075 6.89932L12.8707 10.3374C12.7657 10.8267 12.7669 11.3329 12.8743 11.8217C12.9816 12.3105 13.1926 12.7706 13.493 13.1708L13.9 13.7137C13.9557 13.7879 13.9896 13.8762 13.998 13.9686C14.0063 14.0611 13.9888 14.154 13.9473 14.2371C13.9059 14.3201 13.8421 14.3899 13.7632 14.4388C13.6843 14.4877 13.5933 14.5136 13.5005 14.5137Z" fill="currentColor"/>
<path d="M11.0005 14.5137C10.9228 14.5138 10.8461 14.4958 10.7766 14.4611C10.7071 14.4264 10.6467 14.3759 10.6001 14.3137L10.1929 13.7707C9.80673 13.256 9.5355 12.6645 9.39745 12.0361C9.2594 11.4077 9.25774 10.757 9.3926 10.1279L10.1294 6.68977C10.2344 6.20046 10.2332 5.69432 10.1258 5.20552C10.0185 4.71672 9.80749 4.25665 9.5071 3.85637L9.1 3.31367C9.0606 3.26115 9.03194 3.20137 9.01564 3.13776C8.99935 3.07416 8.99574 3.00796 9.00503 2.94296C9.01431 2.87796 9.03631 2.81543 9.06976 2.75893C9.10322 2.70243 9.14747 2.65307 9.2 2.61367C9.25253 2.57428 9.3123 2.54561 9.37591 2.52932C9.43952 2.51302 9.50571 2.50941 9.57071 2.5187C9.63571 2.52799 9.69825 2.54998 9.75475 2.58344C9.81125 2.61689 9.8606 2.66115 9.9 2.71367L10.3073 3.25652C10.6934 3.77118 10.9646 4.36267 11.1027 4.99109C11.2407 5.6195 11.2424 6.27022 11.1075 6.89932L10.3707 10.3374C10.2657 10.8267 10.2669 11.3329 10.3743 11.8217C10.4816 12.3105 10.6926 12.7706 10.993 13.1708L11.4 13.7137C11.4557 13.7879 11.4896 13.8762 11.498 13.9686C11.5063 14.0611 11.4888 14.154 11.4473 14.2371C11.4059 14.3201 11.3421 14.3899 11.2632 14.4388C11.1843 14.4877 11.0933 14.5136 11.0005 14.5137Z" fill="currentColor"/>
<path d="M8.5005 14.5137C8.4228 14.5138 8.34613 14.4958 8.27662 14.4611C8.2071 14.4264 8.14666 14.3759 8.1001 14.3137L7.69285 13.7707C7.30673 13.256 7.03549 12.6645 6.89744 12.0361C6.75939 11.4077 6.75774 10.757 6.8926 10.1279L7.6294 6.68977C7.73441 6.20046 7.73319 5.69432 7.62583 5.20552C7.51848 4.71672 7.30749 4.25665 7.0071 3.85637L6.6 3.31367C6.5606 3.26115 6.53194 3.20137 6.51564 3.13776C6.49935 3.07416 6.49574 3.00796 6.50503 2.94296C6.51431 2.87796 6.53631 2.81543 6.56976 2.75893C6.60322 2.70243 6.64747 2.65307 6.7 2.61367C6.75253 2.57428 6.8123 2.54561 6.87591 2.52932C6.93952 2.51302 7.00571 2.50941 7.07071 2.5187C7.13571 2.52799 7.19825 2.54998 7.25475 2.58344C7.31125 2.61689 7.3606 2.66115 7.4 2.71367L7.80725 3.25652C8.19337 3.77118 8.46461 4.36267 8.60266 4.99109C8.74071 5.6195 8.74236 6.27022 8.6075 6.89932L7.8707 10.3374C7.76569 10.8267 7.76691 11.3329 7.87427 11.8217C7.98162 12.3105 8.19262 12.7706 8.493 13.1708L8.9 13.7137C8.95569 13.7879 8.98961 13.8762 8.99797 13.9686C9.00633 14.0611 8.98879 14.154 8.94733 14.2371C8.90586 14.3201 8.8421 14.3899 8.76318 14.4388C8.68427 14.4877 8.59331 14.5136 8.5005 14.5137Z" fill="currentColor"/>
<path d="M6.0005 14.5137C5.9228 14.5138 5.84613 14.4958 5.77662 14.4611C5.7071 14.4264 5.64666 14.3759 5.6001 14.3137L5.19285 13.7707C4.80673 13.256 4.53549 12.6645 4.39744 12.0361C4.25939 11.4077 4.25774 10.757 4.3926 10.1279L5.1294 6.68977C5.2344 6.20047 5.23318 5.69434 5.12582 5.20555C5.01847 4.71675 4.80748 4.25669 4.5071 3.85642L4.1 3.31367C4.02043 3.20759 3.98627 3.07424 4.00503 2.94296C4.02378 2.81169 4.09391 2.69324 4.2 2.61367C4.30609 2.53411 4.43944 2.49995 4.57071 2.5187C4.70199 2.53745 4.82044 2.60759 4.9 2.71367L5.30725 3.25652C5.69337 3.77118 5.96461 4.36267 6.10266 4.99109C6.24071 5.6195 6.24236 6.27022 6.1075 6.89932L5.3707 10.3374C5.26569 10.8267 5.26691 11.3329 5.37427 11.8217C5.48162 12.3105 5.69262 12.7706 5.993 13.1708L6.4 13.7137C6.45569 13.7879 6.48961 13.8762 6.49797 13.9686C6.50633 14.0611 6.48879 14.154 6.44733 14.2371C6.40586 14.3201 6.3421 14.3899 6.26318 14.4388C6.18427 14.4877 6.09331 14.5136 6.0005 14.5137Z" fill="currentColor"/>
<path d="M3.5005 14.5137C3.42278 14.5138 3.3461 14.4958 3.27656 14.4611C3.20703 14.4264 3.14657 14.3759 3.1 14.3137L2.69275 13.7707C2.30667 13.256 2.03548 12.6645 1.89748 12.0361C1.75947 11.4077 1.75786 10.757 1.89275 10.1279L2.62955 6.68977C2.73453 6.20046 2.73328 5.69432 2.6259 5.20553C2.51852 4.71674 2.3075 4.25668 2.0071 3.85642L1.6 3.31367C1.5606 3.26115 1.53194 3.20137 1.51564 3.13776C1.49935 3.07416 1.49574 3.00796 1.50503 2.94296C1.51431 2.87796 1.53631 2.81543 1.56976 2.75893C1.60322 2.70243 1.64747 2.65307 1.7 2.61367C1.75253 2.57428 1.8123 2.54561 1.87591 2.52932C1.93952 2.51302 2.00571 2.50941 2.07071 2.5187C2.13571 2.52799 2.19825 2.54998 2.25475 2.58344C2.31125 2.61689 2.3606 2.66115 2.4 2.71367L2.80725 3.25652C3.19337 3.77118 3.46461 4.36267 3.60266 4.99109C3.74071 5.6195 3.74236 6.27022 3.6075 6.89932L2.8706 10.3374C2.76559 10.8267 2.76681 11.3328 2.87417 11.8216C2.98152 12.3104 3.19251 12.7705 3.4929 13.1708L3.9 13.7137C3.95569 13.7879 3.98961 13.8762 3.99797 13.9686C4.00633 14.0611 3.98879 14.154 3.94733 14.2371C3.90586 14.3201 3.8421 14.3899 3.76318 14.4388C3.68427 14.4877 3.59331 14.5136 3.5005 14.5137Z" fill="currentColor"/>
</svg>
