<svg viewBox="0 0 16 16" fill="none" xmlns="http://www.w3.org/2000/svg">
<rect width="16" height="16" fill="white" fill-opacity="0.01" style="mix-blend-mode:multiply"/>
<path d="M8.00009 10.4996C9.3808 10.4996 10.5001 9.38032 10.5001 7.9996C10.5001 6.61889 9.3808 5.4996 8.00009 5.4996C6.61938 5.4996 5.50009 6.61889 5.50009 7.9996C5.50009 9.38032 6.61938 10.4996 8.00009 10.4996Z" fill="currentColor"/>
<path d="M3.85009 2.3496C3.2766 2.78971 2.77116 3.312 2.35009 3.8996L3.15009 4.4996C3.51733 3.99033 3.95504 3.53579 4.45009 3.1496L3.85009 2.3496Z" fill="currentColor"/>
<path d="M2.30009 6.1496L1.35009 5.8496C1.10858 6.54029 0.990123 7.26798 1.00009 7.9996H2.00009C1.99802 7.37066 2.09938 6.74566 2.30009 6.1496Z" fill="currentColor"/>
<path d="M1.35009 10.1996C1.58199 10.8968 1.91923 11.5544 2.35009 12.1496L3.15009 11.5496C2.78861 11.0435 2.50231 10.4877 2.30009 9.8996L1.35009 10.1996Z" fill="currentColor"/>
<path d="M3.90009 13.6496C4.49527 14.0805 5.15288 14.4177 5.85009 14.6496L6.15009 13.6996C5.56195 13.4974 5.00619 13.2111 4.50009 12.8496L3.90009 13.6496Z" fill="currentColor"/>
<path d="M5.85009 1.3496L6.15009 2.2996C6.74615 2.09889 7.37115 1.99754 8.00009 1.9996V0.999604C7.26847 0.989634 6.54077 1.1081 5.85009 1.3496Z" fill="currentColor"/>
<path d="M12.1001 13.6496C12.689 13.2107 13.2111 12.6886 13.6501 12.0996L12.8501 11.4996C12.4783 12.0215 12.022 12.4778 11.5001 12.8496L12.1001 13.6496Z" fill="currentColor"/>
<path d="M13.7001 9.8496L14.6501 10.1496C14.8676 9.45303 14.9854 8.72919 15.0001 7.9996H14.0001C14.0022 8.62855 13.9008 9.25355 13.7001 9.8496Z" fill="currentColor"/>
<path d="M14.6001 5.7996C14.3682 5.1024 14.031 4.44478 13.6001 3.8496L12.8001 4.4496C13.1616 4.9557 13.4479 5.51146 13.6501 6.0996L14.6001 5.7996Z" fill="currentColor"/>
<path d="M12.0501 2.2996C11.4549 1.86874 10.7973 1.53151 10.1001 1.2996L9.80009 2.2496C10.3882 2.45182 10.944 2.73812 11.4501 3.0996L12.0501 2.2996Z" fill="currentColor"/>
<path d="M10.1501 14.6496L9.85009 13.6996C9.25404 13.9003 8.62903 14.0017 8.00009 13.9996V14.9996C8.72679 14.9563 9.44718 14.839 10.1501 14.6496Z" fill="currentColor"/>
</svg>
