<svg viewBox="0 0 16 17" fill="none" xmlns="http://www.w3.org/2000/svg">
<g clip-path="url(#clip0_1961_11629)">
<rect width="16" height="16" transform="translate(0 0.513672)" fill="white" fill-opacity="0.01" style="mix-blend-mode:multiply"/>
<path d="M2.0001 13.5137H1.0001V14.5137H2.0001V13.5137Z" fill="currentColor"/>
<path d="M3.0001 14.5137H2.0001V15.5137H3.0001V14.5137Z" fill="currentColor"/>
<path d="M4.0001 15.5137H3.0001V16.5137H4.0001V15.5137Z" fill="currentColor"/>
<path d="M4.0001 13.5137H3.0001V14.5137H4.0001V13.5137Z" fill="currentColor"/>
<path d="M2.0001 15.5137H1.0001V16.5137H2.0001V15.5137Z" fill="currentColor"/>
<path d="M11.0001 13.5137H10.0001V14.5137H11.0001V13.5137Z" fill="currentColor"/>
<path d="M12.0001 14.5137H11.0001V15.5137H12.0001V14.5137Z" fill="currentColor"/>
<path d="M13.0001 15.5137H12.0001V16.5137H13.0001V15.5137Z" fill="currentColor"/>
<path d="M13.0001 13.5137H12.0001V14.5137H13.0001V13.5137Z" fill="currentColor"/>
<path d="M11.0001 15.5137H10.0001V16.5137H11.0001V15.5137Z" fill="currentColor"/>
<path d="M6.5001 13.5137H5.5001V14.5137H6.5001V13.5137Z" fill="currentColor"/>
<path d="M7.5001 14.5137H6.5001V15.5137H7.5001V14.5137Z" fill="currentColor"/>
<path d="M8.5001 15.5137H7.5001V16.5137H8.5001V15.5137Z" fill="currentColor"/>
<path d="M8.5001 13.5137H7.5001V14.5137H8.5001V13.5137Z" fill="currentColor"/>
<path d="M6.5001 15.5137H5.5001V16.5137H6.5001V15.5137Z" fill="currentColor"/>
<path d="M14.922 7.03109C14.866 6.91169 14.7798 6.80897 14.672 6.73305C14.5641 6.65713 14.4383 6.61065 14.307 6.59819C13.6527 6.53131 13.0459 6.22593 12.6023 5.74029C12.2215 5.31228 11.9613 4.79076 11.8483 4.22914C11.7354 3.66751 11.7737 3.08595 11.9593 2.54399C12.003 2.41319 12.0122 2.27331 11.986 2.1379C11.9599 2.00248 11.8992 1.87612 11.8098 1.77104C11.7279 1.67419 11.622 1.60047 11.5027 1.55722C11.3834 1.51397 11.2549 1.50268 11.1298 1.52449L11.1203 1.52644C10.4209 1.67512 9.77602 2.01399 9.25686 2.50572C8.7377 2.99744 8.36435 3.62294 8.17795 4.31329C7.72671 4.11929 7.24125 4.01744 6.7501 4.01374C5.95389 4.01803 5.17941 4.27393 4.53738 4.74486C3.89536 5.21579 3.41865 5.87763 3.1754 6.63579C2.47987 6.83393 1.87948 7.27694 1.485 7.88308C1.09052 8.48922 0.928587 9.21758 1.02907 9.93376C1.12955 10.6499 1.48568 11.3056 2.03173 11.7798C2.57777 12.254 3.2769 12.5147 4.0001 12.5137H9.5001C10.2955 12.5129 11.058 12.1965 11.6205 11.6341C12.1829 11.0717 12.4992 10.3091 12.5001 9.51374C12.5001 9.48519 12.4939 9.45809 12.4931 9.42949C12.9785 9.32722 13.4388 9.12977 13.8474 8.84856C14.256 8.56734 14.6048 8.20792 14.8737 7.79109C14.9471 7.67953 14.9902 7.55077 14.9986 7.4175C15.0071 7.28423 14.9807 7.15105 14.922 7.03109ZM9.5001 11.5137H4.0001C3.49928 11.5146 3.01644 11.3272 2.64733 10.9887C2.27823 10.6502 2.04984 10.1854 2.00747 9.68635C1.96509 9.18733 2.11183 8.69062 2.41858 8.29473C2.72532 7.89885 3.16966 7.63272 3.66345 7.54914L3.99495 7.49274L4.06775 7.16464C4.20356 6.5545 4.54333 6.0089 5.03098 5.61786C5.51863 5.22682 6.12503 5.01372 6.7501 5.01372C7.37517 5.01372 7.98156 5.22682 8.46922 5.61786C8.95687 6.0089 9.29663 6.5545 9.43245 7.16464L9.50525 7.49274L9.83655 7.54914C10.3304 7.63259 10.7749 7.89865 11.0818 8.29454C11.3886 8.69042 11.5354 9.1872 11.4931 9.6863C11.4507 10.1854 11.2223 10.6503 10.8531 10.9888C10.4839 11.3274 10.001 11.5147 9.5001 11.5137ZM12.2988 8.44929C12.1341 8.01396 11.8697 7.62322 11.527 7.30833C11.1842 6.99343 10.7725 6.76311 10.3248 6.63579C10.0967 5.92891 9.66347 5.30584 9.0803 4.84579C9.16895 4.35087 9.38259 3.88682 9.70094 3.49765C10.0193 3.10848 10.4318 2.80712 10.8993 2.62214C10.7424 3.28654 10.7487 3.97906 10.9176 4.64051C11.0865 5.30196 11.4131 5.91268 11.8693 6.42049C12.3885 6.98491 13.0701 7.3741 13.8201 7.53424C13.4294 8.00056 12.8938 8.32269 12.2988 8.44929Z" fill="currentColor"/>
</g>
<defs>
<clipPath id="clip0_1961_11629">
<rect width="16" height="16" fill="white" transform="translate(0 0.513672)"/>
</clipPath>
</defs>
</svg>
