<svg viewBox="0 0 16 17" fill="none" xmlns="http://www.w3.org/2000/svg">
<g clip-path="url(#clip0_1961_11625)">
<rect width="16" height="16" transform="translate(0 0.513672)" fill="white" fill-opacity="0.01" style="mix-blend-mode:multiply"/>
<path d="M11.7499 11.5139H4.24993C3.44813 11.5089 2.67651 11.2076 2.08342 10.668C1.49033 10.1284 1.11764 9.38863 1.03699 8.59088C0.956351 7.79314 1.17345 6.99373 1.64656 6.34637C2.11966 5.69901 2.81537 5.24939 3.59993 5.08395C3.81578 4.07721 4.37035 3.17493 5.17109 2.52768C5.97183 1.88043 6.97031 1.52734 7.99993 1.52734C9.02955 1.52734 10.028 1.88043 10.8288 2.52768C11.6295 3.17493 12.1841 4.07721 12.3999 5.08395C13.1845 5.24939 13.8802 5.69901 14.3533 6.34637C14.8264 6.99373 15.0435 7.79314 14.9629 8.59088C14.8822 9.38863 14.5095 10.1284 13.9164 10.668C13.3233 11.2076 12.5517 11.5089 11.7499 11.5139ZM7.99993 2.51395C7.14674 2.5148 6.32324 2.82726 5.68424 3.3926C5.04524 3.95794 4.63475 4.73722 4.52993 5.58395L4.49993 6.01395H4.06993C3.47319 6.03782 2.91038 6.29776 2.5053 6.7366C2.10022 7.17543 1.88606 7.75721 1.90993 8.35395C1.9338 8.95068 2.19374 9.5135 2.63258 9.91858C3.07141 10.3237 3.65319 10.5378 4.24993 10.5139H11.7499C12.3467 10.5378 12.9284 10.3237 13.3673 9.91858C13.8061 9.5135 14.0661 8.95068 14.0899 8.35395C14.1138 7.75721 13.8996 7.17543 13.4946 6.7366C13.0895 6.29776 12.5267 6.03782 11.9299 6.01395H11.4999L11.4499 5.60395C11.3501 4.757 10.9444 3.97566 10.3091 3.40669C9.67386 2.83772 8.85272 2.52026 7.99993 2.51395Z" fill="currentColor"/>
<path d="M5.99993 13.0389L5.47493 12.5139L4.74993 13.2389L4.02493 12.5139L3.49993 13.0389L4.22493 13.7639L3.49993 14.4889L4.02493 15.0139L4.74993 14.2889L5.47493 15.0139L5.99993 14.4889L5.27493 13.7639L5.99993 13.0389Z" fill="currentColor"/>
<path d="M12.9999 13.0389L12.4749 12.5139L11.7499 13.2389L11.0249 12.5139L10.4999 13.0389L11.2249 13.7639L10.4999 14.4889L11.0249 15.0139L11.7499 14.2889L12.4749 15.0139L12.9999 14.4889L12.2749 13.7639L12.9999 13.0389Z" fill="currentColor"/>
<path d="M9.49993 14.0389L8.97493 13.5139L8.24993 14.2389L7.52493 13.5139L6.99993 14.0389L7.72493 14.7639L6.99993 15.4889L7.52493 16.0139L8.24993 15.2889L8.97493 16.0139L9.49993 15.4889L8.77493 14.7639L9.49993 14.0389Z" fill="currentColor"/>
</g>
<defs>
<clipPath id="clip0_1961_11625">
<rect width="16" height="16" fill="white" transform="translate(0 0.513672)"/>
</clipPath>
</defs>
</svg>
