<svg viewBox="0 0 16 17" fill="none" xmlns="http://www.w3.org/2000/svg">
<rect width="16" height="16" transform="translate(0 0.513672)" fill="white" fill-opacity="0.01" style="mix-blend-mode:multiply"/>
<path d="M12 11.0137C11.75 11.0137 11.5 10.9137 11.3 10.7137L9.8 9.21367C9.6 9.01367 9.5 8.76367 9.5 8.51367C9.5 8.26367 9.6 8.01367 9.8 7.81367L11.3 6.31367C11.5 6.11367 11.75 6.01367 12 6.01367C12.25 6.01367 12.5 6.11367 12.7 6.31367L14.2 7.81367C14.4 8.01367 14.5 8.26367 14.5 8.51367C14.5 8.76367 14.4 9.01367 14.2 9.21367L12.7 10.7137C12.5 10.9137 12.25 11.0137 12 11.0137ZM12 7.01367L10.5 8.51367L12 10.0137L13.5 8.51367L12 7.01367Z" fill="currentColor"/>
<path d="M8 7.01367C7.75 7.01367 7.5 6.91367 7.3 6.71367L5.8 5.21367C5.6 5.01367 5.5 4.76367 5.5 4.51367C5.5 4.26367 5.6 4.01367 5.8 3.81367L7.3 2.31367C7.5 2.11367 7.75 2.01367 8 2.01367C8.25 2.01367 8.5 2.11367 8.7 2.31367L10.2 3.81367C10.4 4.01367 10.5 4.26367 10.5 4.51367C10.5 4.76367 10.4 5.01367 10.2 5.21367L8.7 6.71367C8.5 6.91367 8.25 7.01367 8 7.01367ZM8 3.01367L6.5 4.51367L8 6.01367L9.5 4.51367L8 3.01367Z" fill="currentColor"/>
<path d="M8 15.0137C7.75 15.0137 7.5 14.9137 7.3 14.7137L5.8 13.2137C5.6 13.0137 5.5 12.7637 5.5 12.5137C5.5 12.2637 5.6 12.0137 5.8 11.8137L7.3 10.3137C7.5 10.1137 7.75 10.0137 8 10.0137C8.25 10.0137 8.5 10.1137 8.7 10.3137L10.2 11.8137C10.4 12.0137 10.5 12.2637 10.5 12.5137C10.5 12.7637 10.4 13.0137 10.2 13.2137L8.7 14.7137C8.5 14.9137 8.25 15.0137 8 15.0137ZM8 11.0137L6.5 12.5137L8 14.0137L9.5 12.5137L8 11.0137Z" fill="currentColor"/>
<path d="M4 11.0137C3.75 11.0137 3.5 10.9137 3.3 10.7137L1.8 9.21367C1.6 9.01367 1.5 8.76367 1.5 8.51367C1.5 8.26367 1.6 8.01367 1.8 7.81367L3.3 6.31367C3.5 6.11367 3.75 6.01367 4 6.01367C4.25 6.01367 4.5 6.11367 4.7 6.31367L6.2 7.81367C6.4 8.01367 6.5 8.26367 6.5 8.51367C6.5 8.76367 6.4 9.01367 6.2 9.21367L4.7 10.7137C4.5 10.9137 4.25 11.0137 4 11.0137ZM4 7.01367L2.5 8.51367L4 10.0137L5.5 8.51367L4 7.01367Z" fill="currentColor"/>
</svg>
