<svg viewBox="0 0 16 17" fill="none" xmlns="http://www.w3.org/2000/svg">
<rect width="16" height="16" transform="translate(0 0.513672)" fill="white" fill-opacity="0.01" style="mix-blend-mode:multiply"/>
<path d="M12.5 15.5137C12.0611 15.5383 11.624 15.4403 11.2377 15.2306C10.8514 15.0208 10.5311 14.7077 10.3127 14.3262C10.0943 13.9447 9.98642 13.5099 10.0012 13.0706C10.0159 12.6312 10.1527 12.2047 10.3962 11.8387L12.0806 9.24158C12.126 9.17163 12.1881 9.11414 12.2614 9.07433C12.3346 9.03453 12.4167 9.01368 12.5001 9.01368C12.5835 9.01368 12.6655 9.03453 12.7388 9.07433C12.812 9.11414 12.8742 9.17163 12.9195 9.24158L14.5772 11.7966C14.8419 12.1901 14.9886 12.6511 15 13.1252C14.9841 13.7731 14.7121 14.3883 14.2435 14.836C13.7749 15.2837 13.1479 15.5274 12.5 15.5137ZM12.5 10.4322L11.2461 12.3653C11.1434 12.5589 11.0855 12.773 11.0767 12.9919C11.0678 13.2108 11.1082 13.4289 11.195 13.6301C11.2817 13.8313 11.4125 14.0105 11.5777 14.1544C11.7429 14.2983 11.9383 14.4032 12.1495 14.4615C12.3607 14.5198 12.5823 14.5299 12.7979 14.4911C13.0135 14.4523 13.2177 14.3655 13.3953 14.2373C13.5729 14.109 13.7195 13.9425 13.8241 13.75C13.9288 13.5576 13.9889 13.344 14 13.1252C13.9892 12.8373 13.8946 12.5588 13.7278 12.3238L12.5 10.4322Z" fill="currentColor"/>
<path d="M5.5 12.5137H4.5C4.50254 10.2601 5.39889 8.09958 6.9924 6.50607C8.58591 4.91257 10.7464 4.01622 13 4.01368H15V5.01368H13C11.0116 5.01593 9.10522 5.80682 7.69918 7.21286C6.29315 8.6189 5.50225 10.5252 5.5 12.5137Z" fill="currentColor"/>
<path d="M8 12.5137H7C7.00181 10.9229 7.63454 9.39786 8.75936 8.27304C9.88419 7.14821 11.4093 6.51549 13 6.51368H15V7.51368H13C11.6744 7.51517 10.4035 8.04244 9.46612 8.97979C8.52876 9.91715 8.0015 11.1881 8 12.5137Z" fill="currentColor"/>
<path d="M13 1.51368C10.8683 1.51183 8.78266 2.13327 6.99965 3.30153C5.21692 2.13323 3.13144 1.51177 1 1.51368V2.51368C2.80745 2.51072 4.58148 3.00081 6.1311 3.93118C5.72033 4.26055 5.33356 4.61879 4.97375 5.00318C3.74959 4.35445 2.38543 4.01476 1 4.01368V5.01368C2.1474 5.01349 3.27958 5.27632 4.30955 5.78198C3.997 6.18467 3.71272 6.60854 3.45875 7.05053C2.68618 6.70023 1.84827 6.51728 1 6.51368V7.51368C1.68914 7.51442 2.37051 7.65929 3.00035 7.93898C2.34033 9.3737 1.99905 10.9344 2 12.5137H3C3.00299 9.86243 4.05752 7.32063 5.93224 5.44591C7.80695 3.5712 10.3488 2.51667 13 2.51368H15V1.51368H13Z" fill="currentColor"/>
</svg>
