<svg viewBox="0 0 16 17" fill="none" xmlns="http://www.w3.org/2000/svg">
<rect width="16" height="16" transform="translate(0 0.513672)" fill="white" fill-opacity="0.01" style="mix-blend-mode:multiply"/>
<path d="M15 13.5137V7.51367H6.5V13.5137H9V14.5137H1V15.5137H15V14.5137H12.5V13.5137H15ZM12.5 12.5137V11.0137H14V12.5137H12.5ZM11.5 11.0137V12.5137H10V11.0137H11.5ZM10 10.0137V8.51367H11.5V10.0137H10ZM14 10.0137H12.5V8.51367H14V10.0137ZM9 8.51367V10.0137H7.5V8.51367H9ZM7.5 12.5137V11.0137H9V12.5137H7.5ZM11.5 14.5137H10V13.5137H11.5V14.5137Z" fill="currentColor"/>
<path d="M4.6664 8.00417C4.41779 7.78173 4.22877 7.50063 4.11655 7.18648C4.00434 6.87232 3.97248 6.53509 4.02389 6.20548C4.0753 5.87587 4.20835 5.56435 4.41091 5.29929C4.61347 5.03423 4.87911 4.82405 5.18365 4.68789C5.4882 4.55172 5.82196 4.4939 6.15456 4.51968C6.48716 4.54546 6.80803 4.65403 7.08795 4.83549C7.36787 5.01696 7.59795 5.26557 7.75725 5.55867C7.91655 5.85178 8 6.18008 8 6.51367H7C7 6.34686 6.95828 6.1827 6.87863 6.03614C6.79897 5.88958 6.68392 5.76527 6.54395 5.67454C6.40398 5.5838 6.24354 5.52952 6.07723 5.51664C5.91092 5.50376 5.74403 5.53268 5.59175 5.60078C5.43948 5.66888 5.30666 5.77399 5.20539 5.90654C5.10411 6.03909 5.03761 6.19486 5.01192 6.35968C4.98624 6.5245 5.0022 6.69313 5.05834 6.8502C5.11447 7.00728 5.20902 7.14782 5.33335 7.25902L4.6664 8.00417Z" fill="currentColor"/>
<path d="M6.5 1.51367H5.5V3.51367H6.5V1.51367Z" fill="currentColor"/>
<path d="M3 6.01367H1V7.01367H3V6.01367Z" fill="currentColor"/>
<path d="M2.818 2.62456L2.11089 3.33167L3.5251 4.74588L4.23221 4.03877L2.818 2.62456Z" fill="currentColor"/>
<path d="M7.76776 4.03879L8.47486 4.7459L9.88908 3.33169L9.18197 2.62458L7.76776 4.03879Z" fill="currentColor"/>
</svg>
