<svg viewBox="0 0 16 17" fill="none" xmlns="http://www.w3.org/2000/svg">
<rect width="16" height="16" transform="translate(0 0.513672)" fill="white" fill-opacity="0.01" style="mix-blend-mode:multiply"/>
<path d="M10.2929 15.0137H5.70715C5.57577 15.014 5.44561 14.9883 5.32423 14.9381C5.20284 14.8878 5.09264 14.8139 5 14.7207L1.79295 11.5137C1.69978 11.421 1.62591 11.3108 1.57562 11.1895C1.52534 11.0681 1.49964 10.9379 1.5 10.8065V6.22083C1.49964 6.08944 1.52534 5.95928 1.57562 5.8379C1.62591 5.71651 1.69978 5.60631 1.79295 5.51368L5 2.30663C5.09264 2.21345 5.20284 2.13958 5.32423 2.0893C5.44561 2.03901 5.57577 2.01331 5.70715 2.01368H10.2929C10.4242 2.01331 10.5544 2.03901 10.6758 2.0893C10.7972 2.13958 10.9074 2.21345 11 2.30663L14.2071 5.51368C14.3002 5.60631 14.3741 5.71651 14.4244 5.8379C14.4747 5.95928 14.5004 6.08944 14.5 6.22083V10.8065C14.5004 10.9379 14.4747 11.0681 14.4244 11.1895C14.3741 11.3108 14.3002 11.421 14.2071 11.5137L11 14.7207C10.9074 14.8139 10.7972 14.8878 10.6758 14.9381C10.5544 14.9883 10.4242 15.014 10.2929 15.0137V15.0137Z" fill="currentColor"/>
</svg>
