<svg viewBox="0 0 16 17" fill="none" xmlns="http://www.w3.org/2000/svg">
<rect width="16" height="16" transform="translate(0 0.513672)" fill="white" fill-opacity="0.01" style="mix-blend-mode:multiply"/>
<path d="M7.99977 1.51367C7.88705 1.51365 7.77764 1.55172 7.68927 1.62169C7.60091 1.69167 7.53878 1.78945 7.51297 1.89917L6.65152 5.56032C5.6074 5.41702 4.54464 5.60513 3.61315 6.0981C2.68165 6.59108 1.92842 7.36405 1.4597 8.30798C0.990978 9.25192 0.830423 10.3192 1.00068 11.3593C1.17094 12.3993 1.66341 13.3597 2.40865 14.1049C3.15388 14.8501 4.11426 15.3426 5.15432 15.5128C6.19439 15.683 7.26165 15.5225 8.20558 15.0537C9.14951 14.585 9.92246 13.8317 10.4154 12.9002C10.9084 11.9687 11.0964 10.9059 10.9531 9.86182L14.6143 9.00047C14.724 8.97466 14.8218 8.91253 14.8917 8.82417C14.9617 8.7358 14.9998 8.62639 14.9998 8.51367C14.9977 6.6578 14.2595 4.87854 12.9472 3.56623C11.6349 2.25393 9.85564 1.51576 7.99977 1.51367V1.51367ZM5.64627 10.8672C5.74002 10.9609 5.86717 11.0136 5.99977 11.0137C6.03831 11.0136 6.07673 11.0092 6.11427 11.0005L7.99537 10.5579C7.98705 10.9493 7.86389 11.3297 7.6412 11.6518C7.4185 11.9738 7.10609 12.2234 6.74277 12.3694C6.37945 12.5153 5.98124 12.5514 5.59763 12.4729C5.21401 12.3945 4.86189 12.2051 4.58502 11.9282C4.30815 11.6514 4.11874 11.2992 4.04031 10.9156C3.96188 10.532 3.9979 10.1338 4.14389 9.77047C4.28988 9.40716 4.5394 9.09474 4.86146 8.87204C5.18352 8.64935 5.56391 8.52619 5.95537 8.51787L5.51277 10.399C5.49328 10.4819 5.49532 10.5685 5.51868 10.6504C5.54205 10.7324 5.58597 10.807 5.64627 10.8672V10.8672ZM6.67127 9.84177L7.80677 5.01677C8.78053 5.03246 9.71001 5.42626 10.3986 6.1149C11.0873 6.80354 11.4811 7.73302 11.4968 8.70677L6.67127 9.84177ZM9.99977 10.5137C9.99977 11.3048 9.76517 12.0782 9.32565 12.736C8.88612 13.3937 8.26141 13.9064 7.5305 14.2092C6.7996 14.5119 5.99533 14.5912 5.21941 14.4368C4.44348 14.2825 3.73075 13.9015 3.17134 13.3421C2.61193 12.7827 2.23097 12.07 2.07663 11.294C1.92229 10.5181 2.0015 9.71384 2.30425 8.98294C2.607 8.25203 3.11969 7.62732 3.77749 7.18779C4.43529 6.74827 5.20864 6.51367 5.99977 6.51367C6.14072 6.51414 6.28154 6.52197 6.42167 6.53712L6.18977 7.52317C6.12637 7.51902 6.06327 7.51367 5.99977 7.51367C5.40643 7.51367 4.82641 7.68962 4.33306 8.01926C3.83971 8.34891 3.45519 8.81744 3.22813 9.36562C3.00107 9.9138 2.94166 10.517 3.05741 11.0989C3.17317 11.6809 3.45889 12.2154 3.87845 12.635C4.29801 13.0546 4.83256 13.3403 5.4145 13.456C5.99644 13.5718 6.59964 13.5124 7.14782 13.2853C7.696 13.0582 8.16453 12.6737 8.49418 12.1804C8.82382 11.687 8.99977 11.107 8.99977 10.5137C8.99977 10.4502 8.99427 10.387 8.99027 10.3237L9.97632 10.0915C9.99148 10.2317 9.9993 10.3726 9.99977 10.5137V10.5137ZM12.4851 8.47412C12.4134 7.31852 11.922 6.22892 11.1033 5.4102C10.2846 4.59148 9.19502 4.10006 8.03942 4.02832L8.39282 2.52637C9.84448 2.62368 11.2116 3.24432 12.2403 4.2731C13.2691 5.30189 13.8898 6.66896 13.9871 8.12062L12.4851 8.47412Z" fill="currentColor"/>
</svg>
