<svg viewBox="0 0 16 17" fill="none" xmlns="http://www.w3.org/2000/svg">
<rect width="16" height="16" transform="translate(0 0.513672)" fill="white" fill-opacity="0.01" style="mix-blend-mode:multiply"/>
<path d="M6.49995 14.5137V9.51367H9.99995C10.1782 9.51367 10.343 9.41872 10.4323 9.26467C10.4774 9.18712 10.5 9.10042 10.5 9.01367C10.5 8.92812 10.4779 8.84247 10.4341 8.76562L6.43405 1.76567C6.3381 1.59772 6.169 1.51367 5.99995 1.51367C5.8309 1.51367 5.6618 1.59772 5.56585 1.76567L1.5659 8.76562C1.522 8.84247 1.5 8.92807 1.5 9.01367C1.5 9.10042 1.52255 9.18712 1.56765 9.26467C1.657 9.41872 1.8218 9.51367 2 9.51367H5.5V14.5137C5.5 15.066 5.9477 15.5137 6.5 15.5137H14V14.5137H6.49995ZM2.8615 8.51367L5.99995 3.02147L9.1384 8.51367H2.8615Z" fill="currentColor"/>
</svg>
