<svg viewBox="0 0 16 17" fill="none" xmlns="http://www.w3.org/2000/svg">
<rect width="16" height="16" transform="translate(0 0.513672)" fill="white" fill-opacity="0.01" style="mix-blend-mode:multiply"/>
<path d="M11.3875 10.7648H11.3443C11.1893 11.2127 10.8276 11.6176 10.0868 11.6176C9.16515 11.6176 8.6483 10.9801 8.6483 9.86037V7.01792H9.75085V9.74837C9.75085 10.3686 9.9834 10.7045 10.5089 10.7045C10.9481 10.7045 11.3875 10.4719 11.3875 9.98957V7.01787H12.49V11.5142H11.3875V10.7648Z" fill="currentColor"/>
<path d="M3.30975 10.6184L4.07635 9.87758C4.4898 10.3599 4.998 10.6184 5.6182 10.6184C6.31585 10.6184 6.67765 10.2824 6.67765 9.77428C6.67765 9.36943 6.4882 9.11963 5.8593 9.00768L5.2908 8.92148C4.0763 8.73203 3.49065 8.15488 3.49065 7.17293C3.49065 6.09623 4.3261 5.39853 5.66985 5.39853C6.57425 5.39853 7.24615 5.70863 7.72845 6.28573L6.9533 7.01793C6.66045 6.64753 6.247 6.39773 5.60955 6.39773C4.96355 6.39773 4.6276 6.65613 4.6276 7.10403C4.6276 7.56058 4.886 7.75003 5.46315 7.85343L6.02295 7.95678C7.23745 8.17218 7.80605 8.71478 7.80605 9.70538C7.80605 10.8423 6.9877 11.6176 5.5492 11.6176C4.5242 11.6176 3.81795 11.2127 3.30975 10.6184Z" fill="currentColor"/>
<path d="M14 15.5137H2C1.4477 15.5137 1 15.066 1 14.5137V2.51367C1 1.96137 1.4477 1.51367 2 1.51367H14C14.5523 1.51367 15 1.96137 15 2.51367V14.5137C15 15.066 14.5523 15.5137 14 15.5137ZM2 14.5137H14V2.51367H2V14.5137Z" fill="currentColor"/>
</svg>
