<svg viewBox="0 0 16 17" fill="none" xmlns="http://www.w3.org/2000/svg">
<rect width="16" height="16" transform="translate(0 0.513672)" fill="white" fill-opacity="0.01" style="mix-blend-mode:multiply"/>
<path d="M15 7.5134H9V8.5134H15V7.5134Z" fill="currentColor"/>
<path d="M13 10.0134H9V11.0134H13V10.0134Z" fill="currentColor"/>
<path d="M15 5.0134H9V6.0134H15V5.0134Z" fill="currentColor"/>
<path d="M11 12.5134V14.5134H3V8.5134H7V7.5134H5V4.5134C5.00006 4.05386 5.15834 3.60835 5.44823 3.25178C5.73811 2.89521 6.14192 2.64931 6.59177 2.55544C7.04162 2.46157 7.51008 2.52545 7.91837 2.73633C8.32667 2.94721 8.64991 3.29223 8.83375 3.7134L9.75025 3.3134C9.47443 2.68178 8.98958 2.16437 8.37719 1.84814C7.7648 1.53192 7.06222 1.43616 6.38754 1.57695C5.71286 1.71775 5.10722 2.08652 4.67242 2.62128C4.23762 3.15604 4.00018 3.82418 4 4.5134V7.5134H3C2.73488 7.5137 2.4807 7.61915 2.29323 7.80662C2.10576 7.9941 2.0003 8.24827 2 8.5134V14.5134C2.0003 14.7785 2.10576 15.0327 2.29323 15.2202C2.4807 15.4076 2.73488 15.5131 3 15.5134H11C11.2651 15.5131 11.5193 15.4076 11.7068 15.2202C11.8942 15.0327 11.9997 14.7785 12 14.5134V12.5134H11Z" fill="currentColor"/>
</svg>
