<svg viewBox="0 0 16 17" fill="none" xmlns="http://www.w3.org/2000/svg">
<rect width="16" height="16" transform="translate(0 0.513672)" fill="white" fill-opacity="0.01" style="mix-blend-mode:multiply"/>
<path d="M8 6.5166C8.39556 6.5166 8.78224 6.6339 9.11114 6.85366C9.44004 7.07343 9.69638 7.38578 9.84776 7.75123C9.99913 8.11669 10.0387 8.51882 9.96157 8.90678C9.8844 9.29474 9.69392 9.65111 9.41421 9.93081C9.13451 10.2105 8.77814 10.401 8.39018 10.4782C8.00222 10.5553 7.60009 10.5157 7.23463 10.3644C6.86918 10.213 6.55682 9.95664 6.33706 9.62774C6.1173 9.29884 6 8.91216 6 8.5166C6.0006 7.98635 6.2115 7.47799 6.58644 7.10305C6.96139 6.7281 7.46975 6.5172 8 6.5166ZM8 5.5166C7.40666 5.5166 6.82664 5.69255 6.33329 6.02219C5.83994 6.35184 5.45542 6.82037 5.22836 7.36855C5.0013 7.91673 4.94189 8.51993 5.05764 9.10187C5.1734 9.68382 5.45912 10.2184 5.87868 10.6379C6.29824 11.0575 6.83279 11.3432 7.41473 11.459C7.99667 11.5747 8.59987 11.5153 9.14805 11.2882C9.69623 11.0612 10.1648 10.6767 10.4944 10.1833C10.8241 9.68996 11 9.10995 11 8.5166C11 7.72095 10.6839 6.95789 10.1213 6.39528C9.55871 5.83267 8.79565 5.5166 8 5.5166Z" fill="currentColor"/>
<path d="M3.40382 3.21337L2.69679 3.92041L4.4497 5.67333L5.15674 4.96629L3.40382 3.21337Z" fill="currentColor"/>
<path d="M3.5 8.0166H1V9.0166H3.5V8.0166Z" fill="currentColor"/>
<path d="M4.4497 11.3599L2.69678 13.1128L3.40382 13.8198L5.15674 12.0669L4.4497 11.3599Z" fill="currentColor"/>
<path d="M8.5 13.0166H7.5V15.5166H8.5V13.0166Z" fill="currentColor"/>
<path d="M11.5503 11.3599L10.8433 12.0669L12.5962 13.8198L13.3032 13.1128L11.5503 11.3599Z" fill="currentColor"/>
<path d="M15 8.0166H12.5V9.0166H15V8.0166Z" fill="currentColor"/>
<path d="M12.5962 3.21338L10.8433 4.9663L11.5503 5.67333L13.3032 3.92042L12.5962 3.21338Z" fill="currentColor"/>
<path d="M8.5 1.5166H7.5V4.0166H8.5V1.5166Z" fill="currentColor"/>
</svg>
