<svg viewBox="0 0 16 16" fill="none" xmlns="http://www.w3.org/2000/svg">
<rect width="16" height="16" fill="white" fill-opacity="0.01" style="mix-blend-mode:multiply"/>
<path d="M13 11C14.1046 11 15 10.1046 15 9C15 7.89543 14.1046 7 13 7C11.8954 7 11 7.89543 11 9C11 10.1046 11.8954 11 13 11Z" fill="currentColor"/>
<path d="M9 15C10.1046 15 11 14.1046 11 13C11 11.8954 10.1046 11 9 11C7.89543 11 7 11.8954 7 13C7 14.1046 7.89543 15 9 15Z" fill="currentColor"/>
<path d="M14.293 1L1.00001 14.293L1.70704 15L15 1.70704L14.293 1Z" fill="currentColor"/>
<path d="M7 5C5.8972 5 5 4.1028 5 3C5 1.8972 5.8972 1 7 1C8.1028 1 9 1.8972 9 3C9 4.1028 8.1028 5 7 5ZM7 2C6.4486 2 6 2.4486 6 3C6 3.5514 6.4486 4 7 4C7.5514 4 8 3.5514 8 3C8 2.4486 7.5514 2 7 2Z" fill="currentColor"/>
<path d="M3 9C1.8972 9 1 8.1028 1 7C1 5.8972 1.8972 5 3 5C4.1028 5 5 5.8972 5 7C5 8.1028 4.1028 9 3 9ZM3 6C2.4486 6 2 6.4486 2 7C2 7.5514 2.4486 8 3 8C3.5514 8 4 7.5514 4 7C4 6.4486 3.5514 6 3 6Z" fill="currentColor"/>
</svg>
