<svg viewBox="0 0 16 17" fill="none" xmlns="http://www.w3.org/2000/svg">
<rect width="16" height="16" transform="translate(0 0.513672)" fill="white" fill-opacity="0.01" style="mix-blend-mode:multiply"/>
<path d="M9.5 13.5137V12.5137H6.5V13.5137H9.5Z" fill="currentColor"/>
<path d="M12.5 15.5137H3.5C3.23488 15.5134 2.9807 15.4079 2.79323 15.2204C2.60576 15.033 2.5003 14.7788 2.5 14.5137V2.51367C2.50026 2.24854 2.60571 1.99434 2.79319 1.80686C2.98066 1.61938 3.23486 1.51394 3.5 1.51367H12.5C12.7651 1.51398 13.0193 1.61943 13.2068 1.8069C13.3942 1.99437 13.4997 2.24855 13.5 2.51367V14.5137C13.4996 14.7788 13.3942 15.0329 13.2067 15.2204C13.0193 15.4078 12.7651 15.5133 12.5 15.5137ZM3.5 2.51367V14.5137H12.5V2.51367H3.5Z" fill="currentColor"/>
</svg>
