<svg viewBox="0 0 16 17" fill="none" xmlns="http://www.w3.org/2000/svg">
<rect width="16" height="16" transform="translate(0 0.513672)" fill="white" fill-opacity="0.01" style="mix-blend-mode:multiply"/>
<path d="M15 7.01367V6.01367H9.3091L8.94725 5.29002C8.90572 5.20697 8.84187 5.13713 8.76288 5.08832C8.68388 5.03951 8.59286 5.01366 8.5 5.01367H4.5C4.36739 5.01367 4.24021 5.06635 4.14645 5.16012C4.05268 5.25389 4 5.38106 4 5.51367V8.01367H2V9.01367H11.3189L13.1189 10.5137H1.5C1.36739 10.5137 1.24021 10.5663 1.14645 10.6601C1.05268 10.7539 1 10.8811 1 11.0137V12.0137C1.00075 12.6765 1.26439 13.3119 1.73307 13.7806C2.20174 14.2493 2.83719 14.5129 3.5 14.5137H12.5C13.1628 14.5129 13.7983 14.2493 14.2669 13.7806C14.7356 13.3119 14.9992 12.6765 15 12.0137V11.0137C15 10.9403 14.9838 10.8679 14.9527 10.8015C14.9216 10.7351 14.8763 10.6763 14.82 10.6294L11.82 8.12937C11.7301 8.05463 11.6169 8.0137 11.5 8.01367H10.3091L9.8091 7.01367H15ZM14 12.0137C13.9996 12.4114 13.8414 12.7926 13.5602 13.0738C13.279 13.3551 12.8977 13.5132 12.5 13.5137H3.5C3.10231 13.5132 2.72103 13.3551 2.43982 13.0738C2.15861 12.7926 2.00044 12.4114 2 12.0137V11.5137H14V12.0137ZM5 8.01367V6.01367H8.19105L9.19105 8.01367H5Z" fill="currentColor"/>
</svg>
