<svg viewBox="0 0 16 17" fill="none" xmlns="http://www.w3.org/2000/svg">
<rect width="16" height="16" transform="translate(0 0.513672)" fill="white" fill-opacity="0.01" style="mix-blend-mode:multiply"/>
<path d="M13.5001 2.51367H10.0001V3.51367H13.5001V2.51367Z" fill="currentColor"/>
<path d="M15.0001 5.51367H10.0001V6.51367H15.0001V5.51367Z" fill="currentColor"/>
<path d="M13.5001 8.51367H10.0001V9.51367H13.5001V8.51367Z" fill="currentColor"/>
<path d="M6.00006 12.0137C6.00006 12.4115 5.84203 12.793 5.56072 13.0743C5.27942 13.3556 4.89789 13.5137 4.50006 13.5137C4.10224 13.5137 3.72071 13.3556 3.4394 13.0743C3.1581 12.793 3.00006 12.4115 3.00006 12.0137H6.00006Z" fill="currentColor"/>
<path d="M15.0001 11.5137H7.95966C7.85337 10.7803 7.51742 10.0996 7.00006 9.56907V4.01367C7.00006 3.35063 6.73667 2.71475 6.26783 2.2459C5.79899 1.77706 5.1631 1.51367 4.50006 1.51367C3.83702 1.51367 3.20114 1.77706 2.73229 2.2459C2.26345 2.71475 2.00006 3.35063 2.00006 4.01367V9.56907C1.6134 9.96376 1.32575 10.4444 1.16068 10.9717C0.995621 11.499 0.957842 12.0579 1.05044 12.6027C1.14304 13.1474 1.36339 13.6624 1.69342 14.1055C2.02345 14.5486 2.45379 14.9073 2.94915 15.152C3.44452 15.3968 3.99083 15.5206 4.54331 15.5135C5.09579 15.5064 5.63873 15.3685 6.12763 15.1111C6.61653 14.8537 7.03748 14.4841 7.356 14.0326C7.67451 13.5811 7.88152 13.0606 7.96006 12.5137H15.0001V11.5137ZM4.50006 14.5137C3.99393 14.5144 3.49955 14.3612 3.08246 14.0745C2.66536 13.7878 2.34525 13.3811 2.16456 12.9083C1.98387 12.4356 1.95114 11.919 2.07071 11.4272C2.19028 10.9354 2.45649 10.4916 2.83406 10.1545L3.00006 10.0054V4.01367C3.00006 3.61585 3.1581 3.23432 3.4394 2.95301C3.72071 2.67171 4.10224 2.51367 4.50006 2.51367C4.89789 2.51367 5.27942 2.67171 5.56072 2.95301C5.84203 3.23432 6.00006 3.61585 6.00006 4.01367V10.0054L6.16606 10.1545C6.54363 10.4916 6.80985 10.9354 6.92941 11.4272C7.04898 11.919 7.01625 12.4356 6.83556 12.9083C6.65487 13.3811 6.33476 13.7878 5.91767 14.0745C5.50057 14.3612 5.00619 14.5144 4.50006 14.5137Z" fill="currentColor"/>
</svg>
