<svg viewBox="0 0 16 17" fill="none" xmlns="http://www.w3.org/2000/svg">
<rect width="16" height="16" transform="translate(0 0.513672)" fill="white" fill-opacity="0.01" style="mix-blend-mode:multiply"/>
<path d="M13 15.5137H11C10.735 15.5129 10.4811 15.4073 10.2937 15.2199C10.1064 15.0326 10.0008 14.7786 9.99997 14.5137V11.0137C9.735 11.0129 9.48109 10.9073 9.29373 10.7199C9.10636 10.5326 9.00075 10.2786 8.99997 10.0137V7.01367C8.99634 6.81569 9.03266 6.61901 9.10676 6.43538C9.18086 6.25175 9.29121 6.08495 9.43123 5.94493C9.57125 5.80491 9.73806 5.69456 9.92168 5.62046C10.1053 5.54636 10.302 5.51004 10.5 5.51367H13.5C13.698 5.51004 13.8946 5.54636 14.0783 5.62046C14.2619 5.69456 14.4287 5.80491 14.5687 5.94493C14.7087 6.08495 14.8191 6.25175 14.8932 6.43538C14.9673 6.61901 15.0036 6.81569 15 7.01367V10.0137C14.9992 10.2786 14.8936 10.5326 14.7062 10.7199C14.5189 10.9073 14.265 11.0129 14 11.0137V14.5137C13.9992 14.7786 13.8936 15.0326 13.7062 15.2199C13.5189 15.4073 13.265 15.5129 13 15.5137ZM10.5 6.51367C10.4333 6.50965 10.3665 6.51982 10.304 6.54352C10.2415 6.56723 10.1847 6.60392 10.1375 6.65118C10.0902 6.69843 10.0535 6.75518 10.0298 6.81767C10.0061 6.88016 9.99595 6.94696 9.99997 7.01367V10.0137H11V14.5137H13V10.0137H14V7.01367C14.004 6.94696 13.9938 6.88016 13.9701 6.81767C13.9464 6.75518 13.9097 6.69843 13.8625 6.65118C13.8152 6.60392 13.7585 6.56723 13.696 6.54352C13.6335 6.51982 13.5667 6.50965 13.5 6.51367H10.5Z" fill="currentColor"/>
<path d="M12 5.01367C11.6044 5.01367 11.2177 4.89637 10.8888 4.67661C10.5599 4.45685 10.3036 4.14449 10.1522 3.77904C10.0008 3.41359 9.96123 3.01145 10.0384 2.62349C10.1156 2.23553 10.3061 1.87916 10.5858 1.59946C10.8655 1.31975 11.2218 1.12927 11.6098 1.0521C11.9978 0.974932 12.3999 1.01454 12.7653 1.16591C13.1308 1.31729 13.4431 1.57363 13.6629 1.90253C13.8827 2.23143 14 2.61811 14 3.01367C13.9984 3.54363 13.7872 4.05143 13.4125 4.42617C13.0377 4.8009 12.5299 5.01212 12 5.01367ZM12 2.01367C11.8022 2.01367 11.6089 2.07232 11.4444 2.1822C11.28 2.29208 11.1518 2.44826 11.0761 2.63099C11.0004 2.81372 10.9806 3.01478 11.0192 3.20876C11.0578 3.40274 11.153 3.58093 11.2929 3.72078C11.4327 3.86063 11.6109 3.95587 11.8049 3.99446C11.9989 4.03304 12.1999 4.01324 12.3827 3.93755C12.5654 3.86186 12.7216 3.73369 12.8314 3.56924C12.9413 3.40479 13 3.21145 13 3.01367C12.9992 2.7487 12.8936 2.49479 12.7062 2.30743C12.5189 2.12006 12.265 2.01445 12 2.01367Z" fill="currentColor"/>
<path d="M4.99997 10.6056V6.51367H3.99997V10.6056C3.66637 10.7236 3.3852 10.9557 3.20616 11.2609C3.02712 11.5661 2.96174 11.9247 3.02158 12.2735C3.08141 12.6222 3.26261 12.9386 3.53314 13.1667C3.80368 13.3947 4.14613 13.5198 4.49997 13.5198C4.85382 13.5198 5.19627 13.3947 5.4668 13.1667C5.73734 12.9386 5.91853 12.6222 5.97837 12.2735C6.03821 11.9247 5.97283 11.5661 5.79379 11.2609C5.61475 10.9557 5.33358 10.7236 4.99997 10.6056Z" fill="currentColor"/>
<path d="M4.49997 15.5137C3.81105 15.5143 3.13728 15.3115 2.56325 14.9306C1.98921 14.5497 1.5405 14.0077 1.27343 13.3726C1.00636 12.7376 0.932839 12.0378 1.0621 11.3611C1.19136 10.6844 1.51764 10.061 1.99997 9.56907V4.01367C1.99997 3.35063 2.26337 2.71475 2.73221 2.24591C3.20105 1.77706 3.83693 1.51367 4.49997 1.51367C5.16301 1.51367 5.7989 1.77706 6.26774 2.24591C6.73658 2.71475 6.99997 3.35063 6.99997 4.01367V9.56907C7.48231 10.061 7.80859 10.6844 7.93785 11.3611C8.06711 12.0378 7.99359 12.7376 7.72652 13.3726C7.45945 14.0077 7.01073 14.5497 6.4367 14.9306C5.86266 15.3115 5.18889 15.5143 4.49997 15.5137ZM4.49997 2.51367C4.10228 2.51411 3.72101 2.67229 3.4398 2.9535C3.15859 3.2347 3.00041 3.61598 2.99997 4.01367V10.0054L2.83397 10.1545C2.45641 10.492 2.19023 10.9361 2.07066 11.4282C1.95109 11.9203 1.98378 12.4371 2.16438 12.9101C2.34499 13.3832 2.665 13.7903 3.08207 14.0775C3.49913 14.3647 3.99358 14.5185 4.49997 14.5185C5.00636 14.5185 5.50081 14.3647 5.91788 14.0775C6.33494 13.7903 6.65496 13.3832 6.83556 12.9101C7.01617 12.4371 7.04885 11.9203 6.92928 11.4282C6.80971 10.9361 6.54353 10.492 6.16597 10.1545L5.99997 10.0054V4.01367C5.99954 3.61598 5.84136 3.2347 5.56015 2.9535C5.27894 2.67229 4.89766 2.51411 4.49997 2.51367Z" fill="currentColor"/>
</svg>
