<svg viewBox="0 0 16 17" fill="none" xmlns="http://www.w3.org/2000/svg">
<rect width="16" height="16" transform="translate(0 0.513672)" fill="white" fill-opacity="0.01" style="mix-blend-mode:multiply"/>
<path d="M6.5 9.14367V3.51367C6.5 2.98324 6.28929 2.47453 5.91421 2.09946C5.53914 1.72439 5.03043 1.51367 4.5 1.51367C3.96957 1.51367 3.46086 1.72439 3.08579 2.09946C2.71071 2.47453 2.5 2.98324 2.5 3.51367V9.14367C1.88851 9.56946 1.42886 10.1793 1.18796 10.8844C0.947061 11.5895 0.937481 12.3531 1.16062 13.0641C1.38375 13.775 1.82795 14.3962 2.42857 14.8372C3.02919 15.2781 3.75487 15.516 4.5 15.516C5.24513 15.516 5.97081 15.2781 6.57143 14.8372C7.17205 14.3962 7.61625 13.775 7.83939 13.0641C8.06252 12.3531 8.05294 11.5895 7.81204 10.8844C7.57114 10.1793 7.11149 9.56946 6.5 9.14367ZM4.5 2.51367C4.76522 2.51367 5.01957 2.61903 5.20711 2.80657C5.39464 2.9941 5.5 3.24846 5.5 3.51367V7.01367H3.5V3.51367C3.5 3.24846 3.60536 2.9941 3.79289 2.80657C3.98043 2.61903 4.23478 2.51367 4.5 2.51367ZM4.5 14.5137C3.94968 14.5136 3.41475 14.332 2.97817 13.997C2.54158 13.662 2.22773 13.1923 2.0853 12.6607C1.94286 12.1292 1.9798 11.5655 2.19039 11.057C2.40097 10.5486 2.77343 10.1239 3.25 9.84867L3.5 9.70867V8.01367H5.5V9.70867L5.75 9.84867C6.22657 10.1239 6.59903 10.5486 6.80961 11.057C7.0202 11.5655 7.05714 12.1292 6.9147 12.6607C6.77227 13.1923 6.45842 13.662 6.02183 13.997C5.58525 14.332 5.05032 14.5136 4.5 14.5137Z" fill="currentColor"/>
<path d="M15 2.51367H10V3.51367H15V2.51367Z" fill="currentColor"/>
<path d="M13.5 5.51367H10V6.51367H13.5V5.51367Z" fill="currentColor"/>
<path d="M15 8.51367H10V9.51367H15V8.51367Z" fill="currentColor"/>
<path d="M13.5 11.5137H10V12.5137H13.5V11.5137Z" fill="currentColor"/>
</svg>
