<svg viewBox="0 0 16 16" fill="none" xmlns="http://www.w3.org/2000/svg">
<rect width="16" height="16" fill="white" fill-opacity="0.01" style="mix-blend-mode:multiply"/>
<path d="M14 7.50015H8.97815C8.75205 7.4383 8.5263 7.38395 8.3091 7.33255C6.90525 7.0005 6.1111 6.75725 6.1111 5.621C6.09969 5.42482 6.12871 5.2284 6.19636 5.0439C6.26402 4.85941 6.36887 4.69079 6.5044 4.5485C6.92919 4.19917 7.46128 4.00672 8.01125 4.0035C9.4258 3.9685 10.0786 4.4482 10.6118 5.1785L11.4194 4.5889C11.0415 4.04601 10.5262 3.61319 9.92623 3.33466C9.32623 3.05614 8.66305 2.94189 8.00445 3.0036C7.19545 3.00876 6.41503 3.30339 5.80445 3.83415C5.57305 4.06887 5.39217 4.34849 5.27297 4.65579C5.15376 4.96308 5.09876 5.29153 5.11135 5.6209C5.08943 5.98141 5.15717 6.34173 5.30852 6.66966C5.45986 6.9976 5.6901 7.28293 5.97865 7.50015H2V8.50015H8.82595C9.80935 8.78515 10.3975 9.1563 10.4126 10.1791C10.4288 10.3976 10.3988 10.6172 10.3245 10.8233C10.2503 11.0295 10.1334 11.2177 9.98145 11.3756C9.4524 11.7927 8.79512 12.0134 8.1216 12.0001C7.61884 11.9856 7.12598 11.8568 6.6803 11.6237C6.23462 11.3906 5.84778 11.0592 5.54905 10.6545L4.78245 11.2966C5.17082 11.8142 5.67191 12.2366 6.24773 12.5317C6.82356 12.8268 7.45902 12.987 8.10595 13.0001C8.11035 12.9995 8.12695 13.0001 8.15595 13.0001C9.07935 13.0108 9.97558 12.6879 10.68 12.0907C10.93 11.8387 11.1243 11.537 11.2505 11.2051C11.3766 10.8733 11.4318 10.5187 11.4124 10.1642C11.4311 9.55784 11.2266 8.96569 10.8377 8.50015H14V7.50015Z" fill="currentColor"/>
</svg>
