<svg viewBox="0 0 16 17" fill="none" xmlns="http://www.w3.org/2000/svg">
<rect width="16" height="16" transform="translate(0 0.513672)" fill="white" fill-opacity="0.01" style="mix-blend-mode:multiply"/>
<path d="M3.5 1.51367H1V8.51367H3.5V1.51367Z" fill="currentColor"/>
<path d="M11.5 1.51367H4.5V8.91502L6.0211 11.1968L6.44375 14.155C6.4787 14.3929 6.5978 14.6104 6.77943 14.7679C6.96106 14.9255 7.19316 15.0127 7.4336 15.0137H7.5C7.89769 15.0132 8.27897 14.8551 8.56018 14.5738C8.84139 14.2926 8.99956 13.9114 9 13.5137V10.5137H13C13.5303 10.5131 14.0386 10.3022 14.4136 9.92723C14.7885 9.55228 14.9994 9.04392 15 8.51367V5.01367C14.999 4.08573 14.6299 3.19609 13.9737 2.53994C13.3176 1.88378 12.4279 1.5147 11.5 1.51367Z" fill="currentColor"/>
</svg>
