<svg viewBox="0 0 16 17" fill="none" xmlns="http://www.w3.org/2000/svg">
<rect width="16" height="16" transform="translate(0 0.513672)" fill="white" fill-opacity="0.01" style="mix-blend-mode:multiply"/>
<path d="M3.5 8.51367H1V15.5137H3.5V8.51367Z" fill="currentColor"/>
<path d="M11.5 15.5137H4.5V8.11232L6.0211 5.83057L6.44375 2.87232C6.4787 2.63444 6.5978 2.41697 6.77943 2.25942C6.96106 2.10187 7.19316 2.01467 7.4336 2.01367H7.5C7.89769 2.01411 8.27897 2.17228 8.56018 2.45349C8.84139 2.7347 8.99956 3.11598 9 3.51367V6.51367H13C13.5303 6.51427 14.0386 6.72517 14.4136 7.10012C14.7885 7.47506 14.9994 7.98342 15 8.51367V12.0137C14.999 12.9416 14.6299 13.8313 13.9737 14.4874C13.3176 15.1436 12.4279 15.5126 11.5 15.5137Z" fill="currentColor"/>
</svg>
