<svg viewBox="0 0 16 17" fill="none" xmlns="http://www.w3.org/2000/svg">
<rect width="16" height="16" transform="translate(0 0.513672)" fill="white" fill-opacity="0.01" style="mix-blend-mode:multiply"/>
<path d="M15 8.51367V5.01367C14.999 4.08573 14.6299 3.19609 13.9737 2.53994C13.3176 1.88378 12.4279 1.5147 11.5 1.51367H1V8.51367H4.2324L6.0211 11.1968L6.44375 14.155C6.4787 14.3929 6.5978 14.6104 6.77943 14.7679C6.96106 14.9255 7.19316 15.0127 7.4336 15.0137H8.5C8.89769 15.0132 9.27897 14.8551 9.56018 14.5738C9.84139 14.2926 9.99956 13.9114 10 13.5137V10.5137H13C13.5303 10.5131 14.0386 10.3022 14.4136 9.92723C14.7885 9.55228 14.9994 9.04392 15 8.51367ZM4 7.51367H2V2.51367H4V7.51367ZM14 8.51367C13.9997 8.77879 13.8942 9.03295 13.7067 9.22041C13.5193 9.40788 13.2651 9.51334 13 9.51367H9V13.5137C8.99989 13.6462 8.94718 13.7734 8.85344 13.8671C8.75969 13.9609 8.63258 14.0136 8.5 14.0137H7.4336L6.9789 10.8306L5 7.86232V2.51367H11.5C12.1628 2.51443 12.7983 2.77806 13.2669 3.24674C13.7356 3.71542 13.9992 4.35086 14 5.01367V8.51367Z" fill="currentColor"/>
</svg>
