<svg viewBox="0 0 16 17" fill="none" xmlns="http://www.w3.org/2000/svg">
<rect width="16" height="16" transform="translate(0 0.513672)" fill="white" fill-opacity="0.01" style="mix-blend-mode:multiply"/>
<path d="M6.6691 15.5135L5.8011 15.0135L6.9446 13.0135H5.0001L6.9966 9.51351L7.8651 10.0135L6.7231 12.0135H8.6686L6.6691 15.5135Z" fill="currentColor"/>
<path d="M14.9221 7.03087C14.8659 6.91149 14.7796 6.8088 14.6717 6.73289C14.5638 6.65699 14.4379 6.61049 14.3066 6.59796C13.6523 6.53103 13.0455 6.22566 12.6019 5.74007C12.2212 5.31198 11.961 4.79039 11.8481 4.22872C11.7353 3.66705 11.7737 3.08546 11.9594 2.54351C12.003 2.41265 12.0121 2.27276 11.9858 2.13736C11.9596 2.00196 11.8988 1.87563 11.8094 1.77056C11.7274 1.67388 11.6216 1.60031 11.5024 1.55714C11.3832 1.51397 11.2548 1.50271 11.1299 1.52446L11.1203 1.52641C10.3434 1.69411 9.63565 2.09361 9.09059 2.67211C8.54553 3.25061 8.18884 3.98088 8.06765 4.76642C7.64763 4.60223 7.20105 4.51651 6.7501 4.51351C5.95389 4.51781 5.17941 4.7737 4.53738 5.24463C3.89536 5.71556 3.41865 6.37741 3.1754 7.13556C2.47987 7.3337 1.87948 7.77671 1.485 8.38285C1.09052 8.98899 0.928587 9.71735 1.02907 10.4335C1.12955 11.1497 1.48568 11.8054 2.03173 12.2796C2.57777 12.7537 3.2769 13.0144 4.0001 13.0135V12.0135C3.49928 12.0144 3.01644 11.827 2.64733 11.4885C2.27823 11.15 2.04984 10.6851 2.00747 10.1861C1.96509 9.68711 2.11183 9.19039 2.41858 8.79451C2.72532 8.39862 3.16966 8.1325 3.66345 8.04891L3.99495 7.99252L4.06775 7.66441C4.20356 7.05428 4.54333 6.50867 5.03098 6.11763C5.51863 5.72659 6.12503 5.51349 6.7501 5.51349C7.37517 5.51349 7.98156 5.72659 8.46922 6.11763C8.95687 6.50867 9.29663 7.05428 9.43245 7.66441L9.50525 7.99252L9.83655 8.04891C10.3304 8.13236 10.7749 8.39842 11.0818 8.79431C11.3886 9.1902 11.5354 9.68698 11.4931 10.1861C11.4507 10.6852 11.2223 11.1501 10.8531 11.4886C10.4839 11.8271 10.001 12.0145 9.5001 12.0135V13.0135C9.9435 13.0169 10.3821 12.9212 10.7838 12.7334C11.1854 12.5456 11.5401 12.2705 11.8219 11.9281C12.1036 11.5857 12.3054 11.1847 12.4123 10.7543C12.5193 10.324 12.5288 9.87523 12.4401 9.44076C12.9359 9.34379 13.4071 9.14766 13.8252 8.86412C14.2434 8.58059 14.6 8.2155 14.8735 7.79076C14.947 7.67923 14.99 7.5505 14.9986 7.41725C15.0071 7.284 14.9807 7.15083 14.9221 7.03087ZM12.0758 8.48981C11.6874 7.83052 11.0606 7.34569 10.3248 7.13556C10.0886 6.39968 9.63097 5.75465 9.0145 5.28852C9.03807 4.70957 9.22856 4.1498 9.56301 3.67665C9.89746 3.20349 10.3616 2.83715 10.8995 2.62176C10.7426 3.28613 10.7488 3.97862 10.9176 4.64007C11.0865 5.30152 11.4129 5.91226 11.8691 6.42011C12.3883 6.98455 13.0701 7.37378 13.8201 7.53402C13.3801 8.06133 12.757 8.40276 12.0758 8.48981Z" fill="currentColor"/>
</svg>
