<svg viewBox="0 0 16 17" fill="none" xmlns="http://www.w3.org/2000/svg">
<rect width="16" height="16" transform="translate(0 0.513672)" fill="white" fill-opacity="0.01" style="mix-blend-mode:multiply"/>
<path d="M7 4.01367L4.5 1.51367L2 4.01367L2.7065 4.72167L4 3.43017V7.51367H5V3.43017L6.293 4.72067L7 4.01367Z" fill="currentColor"/>
<path d="M13.293 4.30667L12 5.59717V1.51367H11V5.59717L9.7065 4.30567L9 5.01367L11.5 7.51367L14 5.01367L13.293 4.30667Z" fill="currentColor"/>
<path d="M10 10.5137C9.65948 10.4938 9.33257 10.373 9.06088 10.1668C8.7892 9.96055 8.58502 9.67812 8.47435 9.35547C8.44069 9.25622 8.3769 9.16994 8.29187 9.10867C8.20684 9.0474 8.10481 9.01419 8 9.01367C7.89534 9.01288 7.79313 9.04531 7.70806 9.10629C7.623 9.16727 7.55946 9.25365 7.5266 9.35302C7.41612 9.67619 7.21194 9.95914 6.94007 10.1658C6.66819 10.3725 6.34094 10.4936 6 10.5137C5.65948 10.4938 5.33257 10.373 5.06088 10.1668C4.7892 9.96055 4.58502 9.67812 4.47435 9.35547C4.44069 9.25622 4.3769 9.16994 4.29187 9.10867C4.20684 9.0474 4.10481 9.01419 4 9.01367C3.895 9.01143 3.79211 9.04328 3.70676 9.10447C3.6214 9.16565 3.55819 9.25287 3.5266 9.35302C3.41612 9.67619 3.21194 9.95914 2.94007 10.1658C2.66819 10.3725 2.34094 10.4936 2 10.5137H1V11.5137H2C2.38804 11.5171 2.77141 11.4289 3.11894 11.2562C3.46647 11.0836 3.76834 10.8313 4 10.52C4.23404 10.8288 4.5364 11.0792 4.88338 11.2516C5.23036 11.424 5.61255 11.5137 6 11.5137C6.38745 11.5137 6.76964 11.424 7.11662 11.2516C7.4636 11.0792 7.76596 10.8288 8 10.52C8.23166 10.8313 8.53353 11.0836 8.88106 11.2562C9.22859 11.4289 9.61196 11.5171 10 11.5137H15V10.5137H10Z" fill="currentColor"/>
<path d="M14 14.5137C13.6595 14.4938 13.3326 14.373 13.0609 14.1668C12.7892 13.9605 12.585 13.6781 12.4743 13.3555C12.4407 13.2562 12.3769 13.1699 12.2919 13.1087C12.2068 13.0474 12.1048 13.0142 12 13.0137C11.8953 13.0129 11.7931 13.0453 11.7081 13.1063C11.623 13.1673 11.5595 13.2537 11.5266 13.353C11.4161 13.6762 11.2119 13.9591 10.9401 14.1658C10.6682 14.3725 10.3409 14.4936 10 14.5137C9.65948 14.4938 9.33257 14.373 9.06088 14.1668C8.7892 13.9605 8.58502 13.6781 8.47435 13.3555C8.44069 13.2562 8.3769 13.1699 8.29187 13.1087C8.20684 13.0474 8.10481 13.0142 8 13.0137C7.89501 13.0114 7.79211 13.0433 7.70676 13.1045C7.6214 13.1657 7.55819 13.2529 7.5266 13.353C7.41612 13.6762 7.21194 13.9591 6.94007 14.1658C6.66819 14.3725 6.34094 14.4936 6 14.5137H1V15.5137H6C6.38804 15.5171 6.77141 15.4289 7.11894 15.2562C7.46647 15.0836 7.76834 14.8313 8 14.52C8.23404 14.8288 8.5364 15.0792 8.88338 15.2516C9.23037 15.424 9.61255 15.5137 10 15.5137C10.3874 15.5137 10.7696 15.424 11.1166 15.2516C11.4636 15.0792 11.766 14.8288 12 14.52C12.2317 14.8313 12.5335 15.0836 12.8811 15.2562C13.2286 15.4289 13.612 15.5171 14 15.5137H15V14.5137H14Z" fill="currentColor"/>
</svg>
