<svg viewBox="0 0 16 17" fill="none" xmlns="http://www.w3.org/2000/svg">
<rect width="16" height="16" transform="translate(0 0.513672)" fill="white" fill-opacity="0.01" style="mix-blend-mode:multiply"/>
<path d="M8.50021 6.01367H7.50021V10.5137H8.50021V6.01367Z" fill="currentColor"/>
<path d="M9.50021 1.51367H6.50021V2.51367H9.50021V1.51367Z" fill="currentColor"/>
<path d="M14.0002 5.01367L13.2902 4.30867L12.1652 5.43367C11.2443 4.37019 9.94908 3.70239 8.54863 3.56903C7.14818 3.43566 5.75018 3.84699 4.64511 4.71754C3.54004 5.5881 2.81285 6.85094 2.61464 8.2437C2.41643 9.63646 2.76244 11.052 3.58078 12.1963C4.39911 13.3406 5.62685 14.1256 7.00891 14.3882C8.39097 14.6509 9.82108 14.3709 11.0021 13.6066C12.1831 12.8422 13.0243 11.6522 13.3507 10.2838C13.6772 8.91545 13.4639 7.47389 12.7552 6.25867L14.0002 5.01367ZM8.00021 13.5137C7.1102 13.5137 6.24017 13.2498 5.50015 12.7553C4.76013 12.2608 4.18335 11.558 3.84276 10.7357C3.50216 9.91348 3.41305 9.00868 3.58668 8.13577C3.76031 7.26285 4.1889 6.46103 4.81823 5.83169C5.44757 5.20235 6.24939 4.77377 7.12231 4.60014C7.99522 4.4265 8.90002 4.51562 9.72229 4.85621C10.5446 5.19681 11.2474 5.77358 11.7418 6.51361C12.2363 7.25363 12.5002 8.12366 12.5002 9.01367C12.5002 10.2071 12.0261 11.3517 11.1822 12.1957C10.3383 13.0396 9.19369 13.5137 8.00021 13.5137Z" fill="currentColor"/>
</svg>
