<svg viewBox="0 0 16 16" fill="none" xmlns="http://www.w3.org/2000/svg">
<rect width="16" height="16" fill="white" fill-opacity="0.01" style="mix-blend-mode:multiply"/>
<path d="M6.05024 1.00003C5.09135 0.996765 4.15258 1.27492 3.35024 1.80003L6.55024 5.00003C6.65681 5.09096 6.74411 5.20229 6.80699 5.32748C6.86988 5.45267 6.90707 5.58917 6.91639 5.72895C6.92571 5.86873 6.90697 6.00897 6.86126 6.14139C6.81555 6.27382 6.7438 6.39576 6.65024 6.50003C6.54597 6.59359 6.42403 6.66534 6.2916 6.71104C6.15918 6.75675 6.01894 6.7755 5.87916 6.76618C5.73938 6.75686 5.60288 6.71967 5.47769 6.65678C5.3525 6.5939 5.24117 6.5066 5.15024 6.40003L1.85024 3.20003C1.27969 4.0396 0.982784 5.03509 1.00024 6.05003C1.00551 7.38775 1.53925 8.66918 2.48517 9.6151C3.43109 10.561 4.71252 11.0948 6.05024 11.1C6.48802 11.1024 6.9245 11.0521 7.35024 10.95L10.7002 14.3C11.171 14.7708 11.8095 15.0353 12.4752 15.0353C13.141 15.0353 13.7795 14.7708 14.2502 14.3C14.721 13.8293 14.9855 13.1908 14.9855 12.525C14.9855 11.8593 14.721 11.2208 14.2502 10.75L10.9002 7.40003C11.0023 6.97429 11.0526 6.53781 11.0502 6.10003C11.0635 5.43505 10.944 4.7741 10.6987 4.15589C10.4534 3.53767 10.0872 2.97461 9.6216 2.49967C9.15598 2.02473 8.60028 1.64747 7.98704 1.38997C7.3738 1.13246 6.71535 0.999895 6.05024 1.00003V1.00003ZM10.0502 6.05003C10.0495 6.40532 9.99902 6.75875 9.90024 7.10003L9.75024 7.65003L10.1502 8.05003L13.5002 11.4C13.6429 11.5351 13.7564 11.6979 13.8338 11.8785C13.9112 12.0591 13.9508 12.2536 13.9502 12.45C13.9559 12.6472 13.9185 12.8433 13.8408 13.0246C13.7631 13.2059 13.6469 13.3681 13.5002 13.5C13.3648 13.6422 13.2019 13.7554 13.0214 13.8328C12.8409 13.9101 12.6466 13.95 12.4502 13.95C12.2539 13.95 12.0595 13.9101 11.8791 13.8328C11.6986 13.7554 11.5357 13.6422 11.4002 13.5L8.05024 10.15L7.65024 9.75003L7.10024 9.90003C6.75896 9.9988 6.40553 10.0493 6.05024 10.05C4.98778 10.0471 3.96722 9.63527 3.20024 8.90003C2.81236 8.53506 2.5052 8.09292 2.29853 7.60206C2.09185 7.11121 1.99024 6.58252 2.00024 6.05003C2.00093 5.67831 2.05138 5.30836 2.15024 4.95003L4.35024 7.15003C4.53614 7.35232 4.76044 7.51559 5.01009 7.6303C5.25973 7.74502 5.52971 7.80889 5.80428 7.8182C6.07886 7.82751 6.35255 7.78206 6.60939 7.68452C6.86622 7.58697 7.10107 7.43927 7.30024 7.25003C7.48948 7.05086 7.63718 6.81601 7.73473 6.55917C7.83227 6.30234 7.87772 6.02865 7.86841 5.75407C7.8591 5.47949 7.79523 5.20951 7.68051 4.95987C7.5658 4.71023 7.40253 4.48593 7.20024 4.30003L5.00024 2.10003C5.32361 1.99776 5.66109 1.94713 6.00024 1.95003C7.0627 1.95298 8.08326 2.36478 8.85024 3.10003C9.61792 3.89037 10.0482 4.94823 10.0502 6.05003V6.05003Z" fill="currentColor"/>
</svg>
