<svg viewBox="0 0 16 16" fill="none" xmlns="http://www.w3.org/2000/svg">
<rect width="16" height="16" fill="white" fill-opacity="0.01" style="mix-blend-mode:multiply"/>
<path d="M11.55 8L14.7 4.85C15.1 4.45 15.1 3.85 14.7 3.45L12.6 1.35C12.2 0.95 11.6 0.95 11.2 1.35L8 4.45L4.85 1.3C4.45 0.9 3.85 0.9 3.45 1.3L1.3 3.4C0.9 3.8 0.9 4.4 1.3 4.8L4.45 8L1 11.45V15H4.55L8 11.55L11.15 14.7C11.55 15.1 12.15 15.1 12.55 14.7L14.65 12.6C15.05 12.2 15.05 11.6 14.65 11.2L11.55 8ZM11.9 2L14 4.1L10.85 7.25L8.75 5.15L11.9 2ZM4.1 14H2V11.9L5.15 8.75L7.25 10.85L4.1 14ZM11.9 14L2 4.1L4.1 2L5.85 3.75L4.8 4.8L5.5 5.5L6.55 4.45L8.65 6.55L7.6 7.6L8.3 8.3L9.35 7.25L11.45 9.35L10.5 10.45L11.2 11.15L12.25 10.1L14 11.85L11.9 14Z" fill="currentColor"/>
</svg>
