<svg viewBox="0 0 16 16" fill="none" xmlns="http://www.w3.org/2000/svg">
<rect width="16" height="16" fill="white" fill-opacity="0.01" style="mix-blend-mode:multiply"/>
<path d="M12 9L9.6106 5.79905C9.21165 5.27095 9 4.64805 9 4C9 2.34585 10.3457 1 12 1C13.6543 1 15 2.34585 15 4C15 4.64805 14.7884 5.271 14.3877 5.8014L12 9ZM12 2C10.8972 2 10 2.8972 10 4C10 4.42885 10.1418 4.84325 10.4101 5.1986L12 7.32835L13.5882 5.2009C13.8582 4.84325 14 4.4288 14 3.99995C14 2.89715 13.1028 2 12 2Z" fill="currentColor"/>
<path d="M12 5C12.5523 5 13 4.55228 13 4C13 3.44772 12.5523 3 12 3C11.4477 3 11 3.44772 11 4C11 4.55228 11.4477 5 12 5Z" fill="currentColor"/>
<path d="M14 9V11H2V3H7V2H2C1.44775 2 1 2.44775 1 3V11C1 11.5523 1.44775 12 2 12H6V14H4V15H12V14H10V12H14C14.5523 12 15 11.5523 15 11V9H14ZM9 14H7V12H9V14Z" fill="currentColor"/>
</svg>
