<svg viewBox="0 0 16 17" fill="none" xmlns="http://www.w3.org/2000/svg">
<rect width="16" height="16" transform="translate(0 0.513672)" fill="white" fill-opacity="0.01" style="mix-blend-mode:multiply"/>
<path d="M12 1.01367C11.4067 1.01367 10.8266 1.18962 10.3333 1.51926C9.83994 1.84891 9.45542 2.31744 9.22836 2.86562C9.0013 3.4138 8.94189 4.017 9.05764 4.59894C9.1734 5.18089 9.45912 5.71543 9.87868 6.13499C10.2982 6.55455 10.8328 6.84027 11.4147 6.95603C11.9967 7.07178 12.5999 7.01237 13.1481 6.78531C13.6962 6.55825 14.1648 6.17373 14.4944 5.68038C14.8241 5.18704 15 4.60702 15 4.01367C14.9991 3.21829 14.6828 2.45574 14.1204 1.89332C13.5579 1.3309 12.7954 1.01455 12 1.01367ZM12.7486 5.55787L11.4375 4.24657V2.01367H12.5625V3.78077L13.5444 4.76247L12.7486 5.55787Z" fill="currentColor"/>
<path d="M3 8.51367V5.51367H7.5V4.51367H3.09215C3.19486 4.22203 3.38533 3.96934 3.6374 3.79029C3.88948 3.61123 4.1908 3.51461 4.5 3.51367H7.5V2.51367H4.5C3.83719 2.51443 3.20174 2.77806 2.73307 3.24674C2.26439 3.71542 2.00075 4.35086 2 5.01367V11.0137C2.00186 11.5511 2.17718 12.0735 2.49989 12.5033C2.82259 12.933 3.27543 13.247 3.791 13.3987L2.88465 15.5137H3.97255L4.8297 13.5137H9.1703L10.0274 15.5137H11.1153L10.209 13.3987C10.7246 13.247 11.1774 12.933 11.5001 12.5033C11.8228 12.0735 11.9981 11.5511 12 11.0137V8.51367H3ZM11 10.5137H9.5V11.5137H10.9079C10.8051 11.8053 10.6147 12.058 10.3626 12.2371C10.1105 12.4161 9.8092 12.5127 9.5 12.5137H4.5C4.1908 12.5127 3.88948 12.4161 3.6374 12.2371C3.38533 12.058 3.19486 11.8053 3.09215 11.5137H4.5V10.5137H3V9.51367H11V10.5137Z" fill="currentColor"/>
</svg>
