<svg viewBox="0 0 16 17" fill="none" xmlns="http://www.w3.org/2000/svg">
<rect width="16" height="16" transform="translate(0 0.513672)" fill="white" fill-opacity="0.01" style="mix-blend-mode:multiply"/>
<path d="M15 13.0137H1V14.0137H2V15.0137H3V14.0137H5.5V15.0137H6.5V14.0137H9V15.0137H10V14.0137H12.5V15.0137H13.5V14.0137H15V13.0137Z" fill="currentColor"/>
<path d="M14.8572 8.80868L9.0747 4.83368C7.8255 3.97214 6.34343 3.51169 4.82595 3.51368H1V4.51368H4.82595C6.14107 4.51194 7.42552 4.91082 8.5083 5.65723L9.0266 6.01368H4.5V7.01368H10.4812L14.2906 9.63258C14.3755 9.69095 14.4396 9.77497 14.4734 9.87236C14.5071 9.96975 14.5089 10.0754 14.4783 10.1738C14.4478 10.2723 14.3865 10.3584 14.3035 10.4195C14.2206 10.4807 14.1202 10.5137 14.0171 10.5137H1V11.5137H14.0171C14.3335 11.5136 14.6416 11.4123 14.8964 11.2246C15.1511 11.0369 15.3392 10.7726 15.433 10.4705C15.5269 10.1683 15.5216 9.84396 15.418 9.54498C15.3144 9.246 15.1179 8.98799 14.8572 8.80868Z" fill="currentColor"/>
</svg>
