<svg viewBox="0 0 16 17" fill="none" xmlns="http://www.w3.org/2000/svg">
<rect width="16" height="16" transform="translate(0 0.513672)" fill="white" fill-opacity="0.01" style="mix-blend-mode:multiply"/>
<path d="M15 13.0137H1V14.0137H2V15.0137H3V14.0137H5.5V15.0137H6.5V14.0137H9V15.0137H10V14.0137H12.5V15.0137H13.5V14.0137H15V13.0137Z" fill="currentColor"/>
<path d="M4 8.51367H1V7.51367H4V6.51367H1V5.51367H4C4.26513 5.51395 4.51932 5.6194 4.7068 5.80687C4.89428 5.99435 4.99972 6.24854 5 6.51367V7.51367C4.99972 7.77881 4.89428 8.033 4.7068 8.22047C4.51932 8.40795 4.26513 8.5134 4 8.51367Z" fill="currentColor"/>
<path d="M14.275 7.62892L9.985 3.69652C9.15563 2.93475 8.07022 2.51255 6.9441 2.51367H1V3.51367H6V5.51367C6.0003 5.7788 6.10576 6.03297 6.29323 6.22044C6.4807 6.40791 6.73488 6.51337 7 6.51367H11.5782L13.5991 8.36622C13.7827 8.53453 13.9112 8.75438 13.9678 8.99697C14.0243 9.23956 14.0062 9.49357 13.9159 9.72572C13.8256 9.95786 13.6673 10.1573 13.4616 10.2979C13.256 10.4385 13.0127 10.5137 12.7636 10.5137H1V11.5137H12.7636C13.2143 11.5137 13.6544 11.3777 14.0264 11.1233C14.3984 10.8689 14.6848 10.5081 14.8482 10.0881C15.0115 9.66813 15.0442 9.2086 14.9419 8.76973C14.8396 8.33086 14.6072 7.93338 14.275 7.62892ZM7 5.51367V3.51637C7.85619 3.5284 8.67805 3.85489 9.3091 4.43367L10.4873 5.51367H7Z" fill="currentColor"/>
</svg>
