<svg viewBox="0 0 16 17" fill="none" xmlns="http://www.w3.org/2000/svg">
<rect width="16" height="16" transform="translate(0 0.513672)" fill="white" fill-opacity="0.01" style="mix-blend-mode:multiply"/>
<path d="M10.5 3.51367H8.5V2.51367H11.5V1.51367H4.5V2.51367H7.5V3.51367H5.5C4.83719 3.51443 4.20174 3.77806 3.73307 4.24674C3.26439 4.71542 3.00075 5.35086 3 6.01367V11.5137C3.00186 12.0511 3.17718 12.5735 3.49989 13.0033C3.82259 13.433 4.27543 13.747 4.791 13.8987L4.0989 15.5137H5.18675L5.8297 14.0137H10.1703L10.8132 15.5137H11.9011L11.209 13.8987C11.7246 13.747 12.1774 13.433 12.5001 13.0033C12.8228 12.5735 12.9981 12.0511 13 11.5137V6.01367C12.9992 5.35086 12.7356 4.71542 12.2669 4.24674C11.7983 3.77806 11.1628 3.51443 10.5 3.51367V3.51367ZM5.5 4.51367H10.5C10.8092 4.51461 11.1105 4.61123 11.3626 4.79029C11.6147 4.96934 11.8051 5.22203 11.9079 5.51367H4.09215C4.19486 5.22203 4.38532 4.96934 4.6374 4.79029C4.88948 4.61123 5.1908 4.51461 5.5 4.51367V4.51367ZM12 11.0137H10.5V12.0137H11.9079C11.8051 12.3053 11.6147 12.558 11.3626 12.7371C11.1105 12.9161 10.8092 13.0127 10.5 13.0137H5.5C5.1908 13.0127 4.88948 12.9161 4.6374 12.7371C4.38532 12.558 4.19486 12.3053 4.09215 12.0137H5.5V11.0137H4V10.0137H12V11.0137ZM12 9.01367H4V6.51367H12V9.01367Z" fill="currentColor"/>
</svg>
