<svg viewBox="0 0 16 17" fill="none" xmlns="http://www.w3.org/2000/svg">
<rect width="16" height="16" transform="translate(0 0.513672)" fill="white" fill-opacity="0.01" style="mix-blend-mode:multiply"/>
<path d="M5.28501 15.5135L5.75166 14.5135H10.2481L10.7147 15.5135H11.8183L8.50001 8.40244V6.01354H7.50001V8.40244L4.18156 15.5135H5.28501ZM8.00001 9.69589L8.84826 11.5135H7.15176L8.00001 9.69589ZM6.68501 12.5135H9.31501L9.78166 13.5135H6.21846L6.68501 12.5135Z" fill="currentColor"/>
<path d="M5.39161 5.17979C5.71993 4.81287 6.12196 4.51934 6.57145 4.31838C7.02094 4.11742 7.50777 4.01354 8.00013 4.01354C8.4925 4.01354 8.97933 4.11742 9.42882 4.31838C9.8783 4.51934 10.2803 4.81287 10.6087 5.17979L9.86366 5.84679C9.62916 5.5846 9.34198 5.37485 9.02088 5.23125C8.69978 5.08764 8.35199 5.01342 8.00023 5.01342C7.64848 5.01342 7.30069 5.08764 6.97959 5.23125C6.65849 5.37485 6.3713 5.5846 6.13681 5.84679L5.39161 5.17979Z" fill="currentColor"/>
<path d="M3.59961 3.71324C4.11203 3.03027 4.7764 2.47597 5.54011 2.0942C6.30383 1.71242 7.14594 1.51367 7.99976 1.51367C8.85358 1.51367 9.69569 1.71242 10.4594 2.0942C11.2231 2.47597 11.8875 3.03027 12.3999 3.71324L11.6 4.31354C11.1808 3.7546 10.6372 3.30095 10.0123 2.98849C9.3874 2.67604 8.69833 2.51337 7.99966 2.51337C7.30099 2.51337 6.61191 2.67604 5.987 2.98849C5.36209 3.30095 4.81851 3.7546 4.39931 4.31354L3.59961 3.71324Z" fill="currentColor"/>
</svg>
