<svg viewBox="0 0 16 17" fill="none" xmlns="http://www.w3.org/2000/svg">
<rect width="16" height="16" transform="translate(0 0.513672)" fill="white" fill-opacity="0.01" style="mix-blend-mode:multiply"/>
<path d="M11 1.51367V2.51367H13.2929L10.0921 5.71437C9.48945 5.25965 8.755 5.01367 8 5.01367C7.245 5.01367 6.51055 5.25965 5.90785 5.71437L5.20715 5.01367L6.5 3.72072L5.79285 3.01367L4.5 4.30662L2.70705 2.51367H5V1.51367H1V5.51367H2V3.22072L3.79295 5.01367L2.5 6.30637L3.20715 7.01367L4.5 5.72072L5.2007 6.42137C4.83595 6.90628 4.60395 7.47792 4.52761 8.07987C4.45127 8.68182 4.53322 9.29328 4.76537 9.85389C4.99753 10.4145 5.37187 10.9049 5.85143 11.2766C6.331 11.6484 6.89922 11.8886 7.5 11.9737V13.0137H5.5V14.0137H7.5V15.5137H8.5V14.0137H10.5V13.0137H8.5V11.9737C9.10077 11.8886 9.66896 11.6483 10.1485 11.2766C10.6281 10.9048 11.0024 10.4145 11.2345 9.85387C11.4667 9.29327 11.5486 8.68183 11.4723 8.07989C11.3959 7.47795 11.1639 6.90632 10.7992 6.42142L14 3.22072V5.51367H15V1.51367H11ZM8 11.0137C7.50555 11.0137 7.0222 10.867 6.61107 10.5923C6.19995 10.3176 5.87952 9.9272 5.6903 9.47038C5.50108 9.01357 5.45157 8.5109 5.54804 8.02595C5.6445 7.54099 5.8826 7.09554 6.23223 6.7459C6.58186 6.39627 7.02732 6.15817 7.51227 6.06171C7.99723 5.96525 8.49989 6.01475 8.95671 6.20397C9.41352 6.39319 9.80397 6.71362 10.0787 7.12475C10.3534 7.53587 10.5 8.01922 10.5 8.51367C10.4992 9.17647 10.2356 9.8119 9.7669 10.2806C9.29823 10.7492 8.6628 11.0129 8 11.0137V11.0137Z" fill="currentColor"/>
</svg>
