<svg viewBox="0 0 16 17" fill="none" xmlns="http://www.w3.org/2000/svg">
<rect width="16" height="16" transform="translate(0 0.513672)" fill="white" fill-opacity="0.01" style="mix-blend-mode:multiply"/>
<path d="M14.9558 7.48162L11.8142 1.69917C11.7832 1.64304 11.7376 1.59625 11.6824 1.56366C11.6271 1.53108 11.5641 1.51389 11.5 1.51389C11.4359 1.51389 11.3729 1.53108 11.3176 1.56366C11.2624 1.59625 11.2168 1.64304 11.1858 1.69917L8.04425 7.48162C8.01439 7.53643 7.99929 7.59805 8.00043 7.66045C8.00157 7.72284 8.01891 7.78388 8.05075 7.83755C8.08259 7.89122 8.12784 7.9357 8.18206 7.96661C8.23627 7.99752 8.29759 8.01381 8.36 8.01387H14.64C14.7024 8.01381 14.7637 7.99752 14.8179 7.96661C14.8722 7.9357 14.9174 7.89122 14.9493 7.83755C14.9811 7.78388 14.9984 7.72284 14.9996 7.66045C15.0007 7.59805 14.9856 7.53643 14.9558 7.48162ZM11.125 3.51387H11.875V5.51387H11.125V3.51387ZM11.5 7.01387C11.4011 7.01387 11.3044 6.98455 11.2222 6.92961C11.14 6.87467 11.0759 6.79658 11.0381 6.70522C11.0002 6.61385 10.9903 6.51332 11.0096 6.41633C11.0289 6.31934 11.0765 6.23025 11.1464 6.16032C11.2164 6.09039 11.3055 6.04277 11.4025 6.02348C11.4994 6.00419 11.6 6.01409 11.6913 6.05193C11.7827 6.08978 11.8608 6.15386 11.9157 6.23609C11.9707 6.31831 12 6.41498 12 6.51387C12 6.64648 11.9473 6.77366 11.8536 6.86743C11.7598 6.9612 11.6326 7.01387 11.5 7.01387Z" fill="currentColor"/>
<path d="M13 10.0139V9.01387H8.5V14.5139C8.50036 14.779 8.60583 15.0331 8.79329 15.2206C8.98075 15.408 9.23489 15.5135 9.5 15.5139H11V14.5139H9.5V10.0139H13Z" fill="currentColor"/>
<path d="M6 15.5139H4.5V14.5139H6V8.29707L4.2427 7.24262L4.7573 6.38522L6.51465 7.43942C6.66234 7.52872 6.78456 7.65453 6.86956 7.80473C6.95457 7.95494 6.99948 8.12449 7 8.29707V14.5139C6.99968 14.779 6.89422 15.0332 6.70676 15.2206C6.51929 15.4081 6.26512 15.5136 6 15.5139Z" fill="currentColor"/>
<path d="M9.3319 3.01682L9.8119 2.13327C9.11197 1.72031 8.31263 1.50616 7.5 1.51387C6.79866 1.51591 6.11009 1.70167 5.5029 2.05267C4.89571 2.40366 4.39108 2.90764 4.0393 3.51437C4.02625 3.51387 4.0132 3.51387 4 3.51387C3.20435 3.51387 2.44129 3.82994 1.87868 4.39255C1.31607 4.95516 1 5.71822 1 6.51387C1 7.30952 1.31607 8.07258 1.87868 8.63519C2.44129 9.1978 3.20435 9.51387 4 9.51387V8.51387C3.46957 8.51387 2.96086 8.30316 2.58579 7.92809C2.21071 7.55301 2 7.04431 2 6.51387C2 5.98344 2.21071 5.47473 2.58579 5.09966C2.96086 4.72459 3.46957 4.51387 4 4.51387C4.06489 4.51573 4.12955 4.52226 4.1935 4.53342L4.625 4.59052L4.7793 4.25677C5.02016 3.73765 5.40404 3.29796 5.88593 2.98926C6.36781 2.68056 6.92772 2.51565 7.5 2.51387C8.1457 2.50656 8.78045 2.68084 9.3319 3.01682Z" fill="currentColor"/>
</svg>
