<svg viewBox="0 0 16 17" fill="none" xmlns="http://www.w3.org/2000/svg">
<rect width="16" height="16" transform="translate(0 0.513672)" fill="white" fill-opacity="0.01" style="mix-blend-mode:multiply"/>
<path d="M5.00001 9.01367C4.60445 9.01367 4.21777 8.89637 3.88887 8.67661C3.55997 8.45685 3.30363 8.14449 3.15225 7.77904C3.00088 7.41359 2.96127 7.01145 3.03844 6.62349C3.11561 6.23553 3.30609 5.87916 3.5858 5.59946C3.8655 5.31975 4.22187 5.12927 4.60983 5.0521C4.99779 4.97493 5.39992 5.01454 5.76538 5.16591C6.13083 5.31729 6.44319 5.57363 6.66295 5.90253C6.88271 6.23143 7.00001 6.61811 7.00001 7.01367C6.99941 7.54392 6.78851 8.05228 6.41357 8.42723C6.03862 8.80217 5.53026 9.01308 5.00001 9.01367ZM5.00001 6.01367C4.80223 6.01367 4.60889 6.07232 4.44444 6.1822C4.27999 6.29208 4.15182 6.44826 4.07613 6.63099C4.00044 6.81371 3.98064 7.01478 4.01922 7.20876C4.05781 7.40274 4.15305 7.58093 4.2929 7.72078C4.43276 7.86063 4.61094 7.95587 4.80492 7.99446C4.9989 8.03304 5.19997 8.01324 5.38269 7.93755C5.56542 7.86186 5.7216 7.73369 5.83148 7.56924C5.94136 7.40479 6.00001 7.21145 6.00001 7.01367C5.99973 6.74854 5.89429 6.49435 5.70681 6.30687C5.51933 6.1194 5.26514 6.01395 5.00001 6.01367Z" fill="currentColor"/>
<path d="M7.40941 3.83867C7.46756 3.77812 8.34156 2.87917 8.85351 2.36697C8.92335 2.29704 8.97089 2.20797 8.99013 2.11103C9.00938 2.01409 8.99946 1.91362 8.96163 1.82231C8.92381 1.731 8.85977 1.65295 8.77761 1.59801C8.69544 1.54308 8.59884 1.51373 8.50001 1.51367C5.90601 1.51367 1.00001 2.66307 1.00001 7.01367C0.998661 7.63036 1.14184 8.23879 1.41806 8.79016C1.69429 9.34153 2.09587 9.82051 2.59061 10.1887C2.51001 10.2724 1.61526 11.1914 1.14651 11.6601C1.07659 11.73 1.02897 11.8191 1.00968 11.9161C0.990382 12.0131 1.00028 12.1136 1.03812 12.205C1.07595 12.2963 1.14003 12.3744 1.22225 12.4294C1.30446 12.4843 1.40112 12.5137 1.50001 12.5137C4.09401 12.5137 9.00001 11.3643 9.00001 7.01367C9.0014 6.39697 8.85824 5.78853 8.58201 5.23715C8.30579 4.68577 7.90418 4.20681 7.40941 3.83867ZM4.85326 10.9102C4.18934 11.1427 3.50368 11.3078 2.80666 11.4028C2.88771 11.3198 4.19091 9.95017 4.19091 9.95017L3.60376 9.64647C3.11989 9.3979 2.71408 9.02052 2.43108 8.55594C2.14809 8.09137 1.99892 7.55765 2.00001 7.01367C2.00001 5.18017 3.05886 3.86937 5.14676 3.11717C5.81068 2.88462 6.49634 2.71957 7.19336 2.62452C7.07986 2.74072 5.80886 4.07737 5.80886 4.07737L6.39626 4.38087C6.88009 4.62949 7.28587 5.00689 7.56885 5.47145C7.85184 5.93602 8.00104 6.4697 8.00001 7.01367C8.00001 8.84717 6.94116 10.158 4.85326 10.9102Z" fill="currentColor"/>
<path d="M15 9.01367L12.5 6.51367L10 9.01367L10.7063 9.72142L12 8.42992V10.0137C11.9987 11.2067 11.5242 12.3506 10.6805 13.1942C9.8369 14.0378 8.69308 14.5123 7.50001 14.5137H6.00001V15.5137H7.50001C8.95819 15.512 10.3562 14.932 11.3873 13.9009C12.4184 12.8698 12.9984 11.4719 13 10.0137V8.42992L14.293 9.72072L15 9.01367Z" fill="currentColor"/>
</svg>
