<svg viewBox="0 0 16 17" fill="none" xmlns="http://www.w3.org/2000/svg">
<rect width="16" height="16" transform="translate(0 0.513672)" fill="white" fill-opacity="0.01" style="mix-blend-mode:multiply"/>
<path d="M15 13.5138H12C11.0011 13.5103 10.026 13.2088 9.19956 12.6478C8.37309 12.0868 7.73287 11.2919 7.36088 10.3649C6.98889 9.43788 6.90207 8.42092 7.11152 7.44426C7.32098 6.46759 7.81719 5.57566 8.5366 4.8827C7.88333 4.64196 7.19305 4.51712 6.49685 4.5138C5.88807 4.50755 5.28847 4.66244 4.75889 4.96276C4.22931 5.26308 3.78859 5.69814 3.48145 6.2238C2.4983 7.7312 2 10.1838 2 13.5138H1C1 9.9867 1.553 7.3501 2.64355 5.6775C3.04199 5.0127 3.60705 4.4634 4.28285 4.08392C4.95866 3.70444 5.72181 3.50792 6.49685 3.5138H6.50025C7.62378 3.52974 8.72885 3.80199 9.7312 4.3098C9.80845 4.35009 9.87382 4.40987 9.92085 4.48321C9.96788 4.55655 9.99493 4.6409 9.99932 4.72792C10.0037 4.81493 9.98529 4.90158 9.94588 4.97928C9.90648 5.05698 9.84745 5.12304 9.77465 5.1709C9.06176 5.6499 8.52139 6.345 8.23298 7.154C7.94458 7.96299 7.92337 8.84317 8.17247 9.66512C8.42157 10.4871 8.92783 11.2074 9.61682 11.7202C10.3058 12.233 11.1411 12.5111 12 12.5138H15V13.5138Z" fill="currentColor"/>
</svg>
