<svg viewBox="0 0 16 17" fill="none" xmlns="http://www.w3.org/2000/svg">
<rect width="16" height="16" transform="translate(0 0.513672)" fill="white" fill-opacity="0.01" style="mix-blend-mode:multiply"/>
<path d="M5.5 12.1037L4.5 11.1032L3.7945 11.8082L5.5 13.5137L8.5 10.5137L7.795 9.80867L5.5 12.1037Z" fill="currentColor"/>
<path d="M14 15.5137H12V14.5137H14V8.51367H12V4.51367C11.9994 3.98342 11.7885 3.47506 11.4136 3.10012C11.0386 2.72517 10.5303 2.51427 10 2.51367V1.51367C10.7954 1.51456 11.5579 1.83091 12.1203 2.39333C12.6828 2.95575 12.9991 3.71829 13 4.51367V7.51367H14C14.2651 7.51395 14.5193 7.6194 14.7068 7.80687C14.8943 7.99435 14.9997 8.24854 15 8.51367V14.5137C14.9997 14.7788 14.8943 15.033 14.7068 15.2205C14.5193 15.4079 14.2651 15.5134 14 15.5137Z" fill="currentColor"/>
<path d="M10 7.51367H9V4.51367C9 3.71802 8.68393 2.95496 8.12132 2.39235C7.55871 1.82974 6.79565 1.51367 6 1.51367C5.20435 1.51367 4.44129 1.82974 3.87868 2.39235C3.31607 2.95496 3 3.71802 3 4.51367V7.51367H2C1.73478 7.51367 1.48043 7.61903 1.29289 7.80657C1.10536 7.9941 1 8.24846 1 8.51367V14.5137C1 14.7789 1.10536 15.0332 1.29289 15.2208C1.48043 15.4083 1.73478 15.5137 2 15.5137H10C10.2652 15.5137 10.5196 15.4083 10.7071 15.2208C10.8946 15.0332 11 14.7789 11 14.5137V8.51367C11 8.24846 10.8946 7.9941 10.7071 7.80657C10.5196 7.61903 10.2652 7.51367 10 7.51367ZM4 4.51367C4 3.98324 4.21071 3.47453 4.58579 3.09946C4.96086 2.72439 5.46957 2.51367 6 2.51367C6.53043 2.51367 7.03914 2.72439 7.41421 3.09946C7.78929 3.47453 8 3.98324 8 4.51367V7.51367H4V4.51367ZM10 14.5137H2V8.51367H10V14.5137Z" fill="currentColor"/>
</svg>
