<svg viewBox="0 0 16 17" fill="none" xmlns="http://www.w3.org/2000/svg">
<rect width="16" height="16" transform="translate(0 0.513672)" fill="white" fill-opacity="0.01" style="mix-blend-mode:multiply"/>
<path d="M11.0367 11.5098C11.8901 11.5098 12.5071 11.1211 12.7943 10.3435L11.9663 9.94642C11.8057 10.3435 11.5522 10.6394 11.0367 10.6394C10.4366 10.6394 10.1325 10.2252 10.1325 9.60842V8.80557C10.1325 8.18852 10.4366 7.76622 11.0367 7.76622C11.5014 7.76622 11.7803 8.03667 11.8817 8.40847L12.7691 8.01112C12.5071 7.31812 11.9239 6.89577 11.0367 6.89577C9.73525 6.89577 9 7.78297 9 9.19422C9 10.6139 9.73525 11.5098 11.0367 11.5098Z" fill="currentColor"/>
<path d="M5.7563 11.5098C7.41275 11.5098 8.0297 10.7238 8.0297 8.99132V5.50977H6.93105V9.13512C6.93105 10.0562 6.6099 10.5211 5.76485 10.5211C4.9198 10.5211 4.59865 10.0562 4.59865 9.13512V5.50977H3.5V8.99132C3.5 10.7237 4.1 11.5098 5.7563 11.5098Z" fill="currentColor"/>
<path d="M10.5 15.5137H5.5C3.0187 15.5137 1 13.495 1 11.0137V6.01367C1 3.53237 3.0187 1.51367 5.5 1.51367H10.5C12.9813 1.51367 15 3.53237 15 6.01367V11.0137C15 13.495 12.9813 15.5137 10.5 15.5137ZM5.5 2.51367C3.57005 2.51367 2 4.08372 2 6.01367V11.0137C2 12.9436 3.57005 14.5137 5.5 14.5137H10.5C12.4299 14.5137 14 12.9436 14 11.0137V6.01367C14 4.08372 12.4299 2.51367 10.5 2.51367H5.5Z" fill="currentColor"/>
</svg>
