<svg viewBox="0 0 16 17" fill="none" xmlns="http://www.w3.org/2000/svg">
<rect width="16" height="16" transform="translate(0 0.513672)" fill="white" fill-opacity="0.01" style="mix-blend-mode:multiply"/>
<path d="M11.5095 5.73022C11.212 5.90592 10.8697 6.01362 10.5 6.01362C9.3972 6.01362 8.5 5.11642 8.5 4.01362C8.5 3.83577 8.53075 3.66647 8.5746 3.50222L9.793 4.72062C9.97405 4.90167 10.2243 5.01362 10.5 5.01362C11.0515 5.01362 11.5 4.56512 11.5 4.01362C11.5 3.73787 11.388 3.48787 11.2069 3.30682L9.9887 2.08822C10.1529 2.04447 10.3222 2.01367 10.5 2.01367C11.6028 2.01367 12.5 2.91087 12.5 4.01367C12.5 4.38347 12.3923 4.72572 12.2166 5.02322L15 7.80662L14.293 8.51367L11.5095 5.73022Z" fill="currentColor"/>
<path d="M8 15.5136H7V13.0136C6.9991 12.1856 6.32805 11.5145 5.5 11.5136H3.5C2.67195 11.5145 2.0009 12.1856 2 13.0136V15.5136H1V13.0136C1.00165 11.6336 2.11995 10.5153 3.5 10.5136H5.5C6.88005 10.5153 7.99835 11.6336 8 13.0136V15.5136Z" fill="currentColor"/>
<path d="M4.5 5.51363C5.32845 5.51363 6 6.18518 6 7.01363C6 7.84208 5.32845 8.51363 4.5 8.51363C3.67155 8.51363 3 7.84208 3 7.01363C3.00095 6.18558 3.67195 5.51458 4.5 5.51363ZM4.5 4.51363C3.1193 4.51363 2 5.63293 2 7.01363C2 8.39433 3.1193 9.51363 4.5 9.51363C5.8807 9.51363 7 8.39433 7 7.01363C7 5.63293 5.8807 4.51363 4.5 4.51363Z" fill="currentColor"/>
</svg>
