<svg viewBox="0 0 16 17" fill="none" xmlns="http://www.w3.org/2000/svg">
<rect width="16" height="16" transform="translate(0 0.513672)" fill="white" fill-opacity="0.01" style="mix-blend-mode:multiply"/>
<path d="M15 15.5137H14V13.0137C13.9992 12.3509 13.7356 11.7154 13.2669 11.2467C12.7983 10.7781 12.1628 10.5144 11.5 10.5137V9.51367C12.4279 9.5147 13.3176 9.88378 13.9737 10.5399C14.6299 11.1961 14.999 12.0857 15 13.0137V15.5137Z" fill="currentColor"/>
<path d="M11 15.5137H10V13.0137C9.99922 12.3509 9.73558 11.7154 9.2669 11.2468C8.79823 10.7781 8.1628 10.5145 7.5 10.5137H4.5C3.8372 10.5145 3.20177 10.7781 2.7331 11.2468C2.26442 11.7154 2.00078 12.3509 2 13.0137V15.5137H1V13.0137C1.00109 12.0857 1.37018 11.1961 2.02632 10.54C2.68247 9.88385 3.57208 9.51476 4.5 9.51367H7.5C8.42792 9.51476 9.31753 9.88385 9.97368 10.54C10.6298 11.1961 10.9989 12.0857 11 13.0137V15.5137Z" fill="currentColor"/>
<path d="M10 1.51367V2.51367C10.663 2.51367 11.2989 2.77706 11.7678 3.2459C12.2366 3.71475 12.5 4.35063 12.5 5.01367C12.5 5.67671 12.2366 6.3126 11.7678 6.78144C11.2989 7.25028 10.663 7.51367 10 7.51367V8.51367C10.9283 8.51367 11.8185 8.14492 12.4749 7.48855C13.1313 6.83217 13.5 5.94193 13.5 5.01367C13.5 4.08541 13.1313 3.19518 12.4749 2.5388C11.8185 1.88242 10.9283 1.51367 10 1.51367Z" fill="currentColor"/>
<path d="M6 2.51367C6.49445 2.51367 6.9778 2.66029 7.38893 2.935C7.80005 3.2097 8.12048 3.60015 8.3097 4.05696C8.49892 4.51378 8.54843 5.01645 8.45196 5.5014C8.3555 5.98635 8.1174 6.43181 7.76777 6.78144C7.41814 7.13107 6.97268 7.36917 6.48773 7.46564C6.00277 7.5621 5.50011 7.51259 5.04329 7.32337C4.58648 7.13415 4.19603 6.81372 3.92133 6.4026C3.64662 5.99147 3.5 5.50813 3.5 5.01367C3.5 4.35063 3.76339 3.71475 4.23223 3.2459C4.70107 2.77706 5.33696 2.51367 6 2.51367ZM6 1.51367C5.30777 1.51367 4.63108 1.71894 4.0555 2.10353C3.47993 2.48811 3.03133 3.03474 2.76642 3.67428C2.50151 4.31382 2.4322 5.01755 2.56725 5.69649C2.7023 6.37542 3.03564 6.99906 3.52513 7.48855C4.01461 7.97803 4.63825 8.31137 5.31718 8.44642C5.99612 8.58147 6.69985 8.51216 7.33939 8.24725C7.97893 7.98234 8.52556 7.53374 8.91014 6.95817C9.29473 6.3826 9.5 5.70591 9.5 5.01367C9.5 4.08541 9.13125 3.19518 8.47487 2.5388C7.8185 1.88242 6.92826 1.51367 6 1.51367Z" fill="currentColor"/>
</svg>
