<svg viewBox="0 0 16 17" fill="none" xmlns="http://www.w3.org/2000/svg">
<rect width="16" height="16" transform="translate(0 0.513672)" fill="white" fill-opacity="0.01" style="mix-blend-mode:multiply"/>
<path d="M13.3745 12.9785C14.0923 12.1146 14.5916 11.0905 14.83 9.99282C15.0683 8.89514 15.0389 7.7562 14.744 6.67232C14.4492 5.58845 13.8977 4.59152 13.1361 3.76587C12.3745 2.94021 11.4253 2.31012 10.3687 1.92887C9.31209 1.54763 8.17923 1.42646 7.06591 1.57561C5.95259 1.72475 4.89157 2.13983 3.97259 2.78573C3.0536 3.43162 2.30369 4.28935 1.78627 5.28634C1.26886 6.28334 0.999164 7.39028 1 8.51354C1.00039 10.1466 1.57591 11.7274 2.62555 12.9785L2.61555 12.9868C2.65055 13.0291 2.69055 13.0652 2.72665 13.1064C2.77165 13.1582 2.81985 13.2064 2.86665 13.2568C3.00665 13.4085 3.15035 13.5544 3.30165 13.6918C3.3474 13.7334 3.39485 13.7724 3.44165 13.8127C3.60165 13.9506 3.76585 14.0813 3.93665 14.2033C3.9587 14.2189 3.97825 14.238 4.00045 14.2536V14.2473C5.17151 15.0714 6.56851 15.5136 8.00045 15.5136C9.4324 15.5136 10.8294 15.0714 12.0005 14.2473V14.2535C12.0227 14.2379 12.0422 14.2188 12.0643 14.2032C12.2349 14.0812 12.3993 13.9505 12.5593 13.8126C12.6061 13.7726 12.6535 13.7333 12.6993 13.6917C12.8505 13.5543 12.9943 13.4083 13.1343 13.2567C13.1809 13.2064 13.229 13.1581 13.2743 13.1063C13.3102 13.0651 13.3504 13.029 13.3854 12.9867L13.3745 12.9785ZM8 4.51354C8.44501 4.51354 8.88002 4.6455 9.25004 4.89274C9.62005 5.13997 9.90843 5.49137 10.0787 5.9025C10.249 6.31364 10.2936 6.76604 10.2068 7.2025C10.12 7.63895 9.90566 8.03986 9.59099 8.35453C9.27632 8.6692 8.87541 8.88349 8.43896 8.97031C8.0025 9.05713 7.5501 9.01257 7.13896 8.84227C6.72783 8.67197 6.37643 8.38359 6.1292 8.01357C5.88196 7.64356 5.75 7.20855 5.75 6.76354C5.75 6.1668 5.98706 5.59451 6.40901 5.17255C6.83097 4.7506 7.40326 4.51354 8 4.51354V4.51354ZM4.00355 12.9785C4.01219 12.322 4.27897 11.6953 4.74617 11.234C5.21337 10.7727 5.84343 10.5139 6.5 10.5135H9.5C10.1566 10.5139 10.7866 10.7727 11.2538 11.234C11.721 11.6953 11.9878 12.322 11.9965 12.9785C10.8999 13.9667 9.47611 14.5135 8 14.5135C6.5239 14.5135 5.10013 13.9667 4.00355 12.9785Z" fill="currentColor"/>
</svg>
