<svg viewBox="0 0 16 17" fill="none" xmlns="http://www.w3.org/2000/svg">
<rect width="16" height="16" transform="translate(0 0.513672)" fill="white" fill-opacity="0.01" style="mix-blend-mode:multiply"/>
<path d="M15 4.51367H14V8.51367H15V4.51367Z" fill="currentColor"/>
<path d="M12.5 3.01367H11.5V8.51367H12.5V3.01367Z" fill="currentColor"/>
<path d="M10 5.51367H9V8.51367H10V5.51367Z" fill="currentColor"/>
<path d="M8 15.5137H7V12.5137C6.99956 12.116 6.84139 11.7347 6.56018 11.4535C6.27897 11.1723 5.89769 11.0141 5.5 11.0137H3.5C3.10231 11.0141 2.72103 11.1723 2.43982 11.4535C2.15861 11.7347 2.00044 12.116 2 12.5137V15.5137H1V12.5137C1.00078 11.8509 1.26442 11.2154 1.7331 10.7468C2.20177 10.2781 2.8372 10.0145 3.5 10.0137H5.5C6.1628 10.0145 6.79823 10.2781 7.2669 10.7468C7.73558 11.2154 7.99922 11.8509 8 12.5137V15.5137Z" fill="currentColor"/>
<path d="M4.5 5.01367C4.79667 5.01367 5.08668 5.10165 5.33336 5.26647C5.58003 5.43129 5.77229 5.66556 5.88582 5.93965C5.99935 6.21374 6.02906 6.51534 5.97118 6.80631C5.9133 7.09728 5.77044 7.36455 5.56066 7.57433C5.35088 7.78411 5.08361 7.92697 4.79264 7.98485C4.50166 8.04273 4.20006 8.01302 3.92597 7.89949C3.65189 7.78596 3.41762 7.5937 3.2528 7.34703C3.08797 7.10035 3 6.81034 3 6.51367C3 6.11585 3.15804 5.73432 3.43934 5.45301C3.72064 5.17171 4.10218 5.01367 4.5 5.01367ZM4.5 4.01367C4.00555 4.01367 3.5222 4.16029 3.11107 4.435C2.69995 4.7097 2.37952 5.10015 2.1903 5.55696C2.00108 6.01378 1.95157 6.51645 2.04804 7.0014C2.1445 7.48635 2.3826 7.93181 2.73223 8.28144C3.08186 8.63107 3.52732 8.86917 4.01227 8.96564C4.49723 9.0621 4.99989 9.01259 5.45671 8.82337C5.91352 8.63415 6.30397 8.31372 6.57867 7.9026C6.85338 7.49147 7 7.00813 7 6.51367C7 6.18537 6.93534 5.86028 6.8097 5.55696C6.68406 5.25365 6.49991 4.97805 6.26777 4.7459C6.03562 4.51376 5.76002 4.32961 5.45671 4.20397C5.15339 4.07834 4.8283 4.01367 4.5 4.01367Z" fill="currentColor"/>
</svg>
