<svg viewBox="0 0 16 17" fill="none" xmlns="http://www.w3.org/2000/svg">
<rect width="16" height="16" transform="translate(0 0.513672)" fill="white" fill-opacity="0.01" style="mix-blend-mode:multiply"/>
<path d="M8 2.51367C8.49445 2.51367 8.9778 2.66029 9.38893 2.935C9.80005 3.2097 10.1205 3.60015 10.3097 4.05696C10.4989 4.51378 10.5484 5.01645 10.452 5.5014C10.3555 5.98635 10.1174 6.43181 9.76777 6.78144C9.41814 7.13107 8.97268 7.36917 8.48773 7.46564C8.00277 7.5621 7.50011 7.51259 7.04329 7.32337C6.58648 7.13415 6.19603 6.81372 5.92133 6.4026C5.64662 5.99147 5.5 5.50813 5.5 5.01367C5.5 4.35063 5.76339 3.71475 6.23223 3.2459C6.70107 2.77706 7.33696 2.51367 8 2.51367ZM8 1.51367C7.30777 1.51367 6.63108 1.71894 6.0555 2.10353C5.47993 2.48811 5.03133 3.03474 4.76642 3.67428C4.50152 4.31382 4.4322 5.01755 4.56725 5.69649C4.7023 6.37542 5.03564 6.99906 5.52513 7.48855C6.01461 7.97803 6.63825 8.31137 7.31718 8.44642C7.99612 8.58147 8.69985 8.51216 9.33939 8.24725C9.97893 7.98234 10.5256 7.53374 10.9101 6.95817C11.2947 6.3826 11.5 5.70591 11.5 5.01367C11.5 4.08541 11.1313 3.19518 10.4749 2.5388C9.8185 1.88242 8.92826 1.51367 8 1.51367Z" fill="currentColor"/>
<path d="M13 15.5137H12V13.0137C12 12.6854 11.9353 12.3603 11.8097 12.057C11.6841 11.7536 11.4999 11.4781 11.2678 11.2459C11.0356 11.0138 10.76 10.8296 10.4567 10.704C10.1534 10.5783 9.8283 10.5137 9.5 10.5137H6.5C5.83696 10.5137 5.20107 10.7771 4.73223 11.2459C4.26339 11.7147 4 12.3506 4 13.0137V15.5137H3V13.0137C3 12.0854 3.36875 11.1952 4.02513 10.5388C4.6815 9.88242 5.57174 9.51367 6.5 9.51367H9.5C10.4283 9.51367 11.3185 9.88242 11.9749 10.5388C12.6313 11.1952 13 12.0854 13 13.0137V15.5137Z" fill="currentColor"/>
</svg>
