<svg viewBox="0 0 16 17" fill="none" xmlns="http://www.w3.org/2000/svg">
<rect width="16" height="16" transform="translate(0 0.513672)" fill="white" fill-opacity="0.01" style="mix-blend-mode:multiply"/>
<path d="M12.667 6.48868L13.2697 5.88568C13.3509 5.80546 13.4536 5.75055 13.5654 5.72761C13.6772 5.70468 13.7932 5.71471 13.8994 5.75648L14.6341 6.04988C14.7414 6.09346 14.8334 6.16783 14.8985 6.26361C14.9636 6.3594 14.9989 6.47231 15 6.58813V7.93413C14.9994 8.01083 14.9837 8.08666 14.9538 8.15729C14.9239 8.22793 14.8804 8.29198 14.8258 8.3458C14.7711 8.39962 14.7064 8.44214 14.6353 8.47094C14.5642 8.49975 14.4881 8.51427 14.4114 8.51368L14.3864 8.51293C9.23875 8.19258 8.2 3.83153 8.00365 2.16248C7.98653 2.00856 8.03125 1.85414 8.12797 1.73318C8.22469 1.61223 8.36548 1.53464 8.5194 1.51748C8.54202 1.51486 8.56478 1.51359 8.58755 1.51368H9.88725C10.0032 1.51404 10.1165 1.54909 10.2124 1.61433C10.3083 1.67957 10.3825 1.77202 10.4254 1.87978L10.7188 2.61478C10.7619 2.7206 10.7729 2.83678 10.7504 2.94882C10.7279 3.06086 10.6729 3.16379 10.5923 3.24478L9.98955 3.84768C9.98955 3.84768 10.3366 6.19778 12.667 6.48868Z" fill="currentColor"/>
<path d="M8 15.5137H7V13.0137C6.99956 12.616 6.84139 12.2347 6.56018 11.9535C6.27897 11.6723 5.89769 11.5141 5.5 11.5137H3.5C3.10231 11.5141 2.72103 11.6723 2.43982 11.9535C2.15861 12.2347 2.00044 12.616 2 13.0137V15.5137H1V13.0137C1.00078 12.3509 1.26442 11.7154 1.7331 11.2468C2.20177 10.7781 2.8372 10.5145 3.5 10.5137H5.5C6.1628 10.5145 6.79823 10.7781 7.2669 11.2468C7.73558 11.7154 7.99922 12.3509 8 13.0137V15.5137Z" fill="currentColor"/>
<path d="M4.5 5.51368C4.79667 5.51368 5.08668 5.60165 5.33336 5.76647C5.58003 5.93129 5.77229 6.16556 5.88582 6.43965C5.99935 6.71374 6.02906 7.01534 5.97118 7.30631C5.9133 7.59728 5.77044 7.86456 5.56066 8.07434C5.35088 8.28411 5.08361 8.42698 4.79264 8.48485C4.50166 8.54273 4.20006 8.51303 3.92597 8.3995C3.65189 8.28596 3.41762 8.0937 3.2528 7.84703C3.08797 7.60036 3 7.31035 3 7.01368C3 6.61585 3.15804 6.23432 3.43934 5.95302C3.72064 5.67171 4.10218 5.51368 4.5 5.51368ZM4.5 4.51368C4.00555 4.51368 3.5222 4.6603 3.11107 4.935C2.69995 5.20971 2.37952 5.60015 2.1903 6.05697C2.00108 6.51378 1.95157 7.01645 2.04804 7.5014C2.1445 7.98635 2.3826 8.43181 2.73223 8.78144C3.08186 9.13107 3.52732 9.36918 4.01227 9.46564C4.49723 9.5621 4.99989 9.51259 5.45671 9.32337C5.91352 9.13416 6.30397 8.81372 6.57867 8.4026C6.85338 7.99148 7 7.50813 7 7.01368C7 6.68537 6.93534 6.36028 6.8097 6.05697C6.68406 5.75365 6.49991 5.47806 6.26777 5.24591C6.03562 5.01376 5.76002 4.82961 5.45671 4.70398C5.15339 4.57834 4.8283 4.51368 4.5 4.51368Z" fill="currentColor"/>
</svg>
