<svg viewBox="0 0 16 17" fill="none" xmlns="http://www.w3.org/2000/svg">
<rect width="16" height="16" transform="translate(0 0.513672)" fill="white" fill-opacity="0.01" style="mix-blend-mode:multiply"/>
<path d="M15 5.51367V4.51367H13.9494C13.885 4.2007 13.7607 3.90311 13.5835 3.63722L14.3285 2.89222L13.6215 2.18522L12.8765 2.93022C12.6106 2.75298 12.313 2.6287 12 2.56422V1.51367H11V2.56422C10.687 2.62869 10.3894 2.75295 10.1236 2.93017L9.37855 2.18517L8.67155 2.89217L9.41655 3.63717C9.2393 3.90307 9.11503 4.20068 9.05055 4.51367H8V5.51367H9.05055C9.11502 5.82664 9.23928 6.12423 9.4165 6.39012L8.6715 7.13512L9.3785 7.84212L10.1235 7.09712C10.3894 7.27437 10.687 7.39864 11 7.46312V8.51367H12V7.46312C12.313 7.39865 12.6106 7.27439 12.8764 7.09717L13.6215 7.84217L14.3285 7.13517L13.5835 6.39017C13.7607 6.12427 13.885 5.82666 13.9494 5.51367H15ZM11.5 6.51367C11.2033 6.51367 10.9133 6.4257 10.6666 6.26088C10.42 6.09605 10.2277 5.86179 10.1142 5.5877C10.0006 5.31361 9.97094 5.01201 10.0288 4.72104C10.0867 4.43006 10.2296 4.16279 10.4393 3.95301C10.6491 3.74323 10.9164 3.60037 11.2074 3.54249C11.4983 3.48462 11.7999 3.51432 12.074 3.62785C12.3481 3.74138 12.5824 3.93364 12.7472 4.18032C12.912 4.42699 13 4.717 13 5.01367C12.9996 5.41136 12.8414 5.79264 12.5602 6.07385C12.279 6.35506 11.8977 6.51324 11.5 6.51367Z" fill="currentColor"/>
<path d="M8 15.5137H7V13.0137C6.99956 12.616 6.84139 12.2347 6.56018 11.9535C6.27897 11.6723 5.89769 11.5141 5.5 11.5137H3.5C3.10231 11.5141 2.72103 11.6723 2.43982 11.9535C2.15861 12.2347 2.00044 12.616 2 13.0137V15.5137H1V13.0137C1.00078 12.3509 1.26442 11.7154 1.7331 11.2468C2.20177 10.7781 2.8372 10.5145 3.5 10.5137H5.5C6.1628 10.5145 6.79823 10.7781 7.2669 11.2468C7.73558 11.7154 7.99922 12.3509 8 13.0137V15.5137Z" fill="currentColor"/>
<path d="M4.5 5.51367C4.79667 5.51367 5.08668 5.60165 5.33336 5.76647C5.58003 5.93129 5.77229 6.16556 5.88582 6.43965C5.99935 6.71374 6.02906 7.01534 5.97118 7.30631C5.9133 7.59728 5.77044 7.86455 5.56066 8.07433C5.35088 8.28411 5.08361 8.42697 4.79264 8.48485C4.50166 8.54273 4.20006 8.51302 3.92597 8.39949C3.65189 8.28596 3.41762 8.0937 3.2528 7.84703C3.08797 7.60035 3 7.31034 3 7.01367C3 6.61585 3.15804 6.23432 3.43934 5.95301C3.72064 5.67171 4.10218 5.51367 4.5 5.51367ZM4.5 4.51367C4.00555 4.51367 3.5222 4.66029 3.11107 4.935C2.69995 5.2097 2.37952 5.60015 2.1903 6.05696C2.00108 6.51378 1.95157 7.01645 2.04804 7.5014C2.1445 7.98635 2.3826 8.43181 2.73223 8.78144C3.08186 9.13107 3.52732 9.36917 4.01227 9.46564C4.49723 9.5621 4.99989 9.51259 5.45671 9.32337C5.91352 9.13415 6.30397 8.81372 6.57867 8.4026C6.85338 7.99147 7 7.50813 7 7.01367C7 6.68537 6.93534 6.36028 6.8097 6.05696C6.68406 5.75365 6.49991 5.47805 6.26777 5.2459C6.03562 5.01376 5.76002 4.82961 5.45671 4.70397C5.15339 4.57834 4.8283 4.51367 4.5 4.51367Z" fill="currentColor"/>
</svg>
