<svg viewBox="0 0 16 17" fill="none" xmlns="http://www.w3.org/2000/svg">
<rect width="16" height="16" transform="translate(0 0.513672)" fill="white" fill-opacity="0.01" style="mix-blend-mode:multiply"/>
<path d="M6.5 15.5137H4.5C4.23489 15.5133 3.98075 15.4078 3.79329 15.2204C3.60583 15.0329 3.50036 14.7788 3.5 14.5137V10.5137H4.5V14.5137H6.5V10.5137H7.5V14.5137C7.49964 14.7788 7.39417 15.0329 7.20671 15.2204C7.01925 15.4078 6.76511 15.5133 6.5 15.5137Z" fill="currentColor"/>
<path d="M12.5 10.5137H11.625L10.5 15.0292L9.396 10.5137H8.5L9.75 15.5137H11.25L12.5 10.5137Z" fill="currentColor"/>
<path d="M8.5 1.51367H7.5V4.01367H8.5V1.51367Z" fill="currentColor"/>
<path d="M12.5962 3.21045L10.8433 4.96337L11.5503 5.6704L13.3032 3.91749L12.5962 3.21045Z" fill="currentColor"/>
<path d="M15 8.01367H12.5V9.01367H15V8.01367Z" fill="currentColor"/>
<path d="M3.5 8.01367H1V9.01367H3.5V8.01367Z" fill="currentColor"/>
<path d="M3.40382 3.21044L2.69679 3.91748L4.4497 5.6704L5.15674 4.96336L3.40382 3.21044Z" fill="currentColor"/>
<path d="M11 9.01367H10V8.51367C10 7.98324 9.78929 7.47453 9.41421 7.09946C9.03914 6.72439 8.53043 6.51367 8 6.51367C7.46957 6.51367 6.96086 6.72439 6.58579 7.09946C6.21071 7.47453 6 7.98324 6 8.51367V9.01367H5V8.51367C5 7.71802 5.31607 6.95496 5.87868 6.39235C6.44129 5.82974 7.20435 5.51367 8 5.51367C8.79565 5.51367 9.55871 5.82974 10.1213 6.39235C10.6839 6.95496 11 7.71802 11 8.51367V9.01367Z" fill="currentColor"/>
</svg>
