<svg viewBox="0 0 16 17" fill="none" xmlns="http://www.w3.org/2000/svg">
<rect width="16" height="16" transform="translate(0 0.513672)" fill="white" fill-opacity="0.01" style="mix-blend-mode:multiply"/>
<path d="M8 3.46972L8.8722 4.93602L9.2633 5.59352L10.0002 5.38817L11.5605 4.95317L11.1256 6.51367L10.92 7.25022L11.5775 7.64137L13.0438 8.51367L11.5777 9.38572L10.9201 9.77662L11.1256 10.5137L11.5606 12.0742L10.0002 11.6392L9.2633 11.4337L8.8722 12.0912L8 13.5576L7.1278 12.0913L6.7367 11.4338L6 11.6392L4.4396 12.0742L4.8744 10.5137L5.07985 9.77662L4.42235 9.38572L2.9562 8.51367L4.42235 7.64137L5.07985 7.25022L4.8744 6.51367L4.4394 4.95337L6 5.38817L6.73695 5.59352L7.12805 4.93602L8 3.46972ZM8 1.51367L6.2683 4.42482L3 3.51367L3.91115 6.78197L1 8.51367L3.91115 10.2451L3 13.5137L6.2683 12.6025L8 15.5137L9.7317 12.6025L13 13.5137L12.0889 10.2451L15 8.51367L12.0889 6.78197L13 3.51367L9.7317 4.42482L8 1.51367Z" fill="currentColor"/>
</svg>
