<svg viewBox="0 0 16 17" fill="none" xmlns="http://www.w3.org/2000/svg">
<rect width="16" height="16" transform="translate(0 0.513672)" fill="white" fill-opacity="0.01" style="mix-blend-mode:multiply"/>
<path d="M9.5 10.5137H13V9.51367H8.5V14.5137C8.50075 15.0657 8.948 15.5129 9.5 15.5137H11V14.5137H9.5V10.5137Z" fill="currentColor"/>
<path d="M6 15.5137H4.5V14.5137H6V8.29687L4.2427 7.24242L4.7573 6.38502L6.51465 7.43922C6.815 7.62082 6.99895 7.94587 7 8.29687V14.5137C6.99935 15.0657 6.552 15.513 6 15.5137Z" fill="currentColor"/>
<path d="M15 3.71877L14.295 3.01367L12.5 4.80857L10.705 3.01367L10 3.71877L11.795 5.51367L10 7.30857L10.705 8.01367L12.5 6.21877L14.295 8.01367L15 7.30857L13.205 5.51367L15 3.71877Z" fill="currentColor"/>
<path d="M8.65395 1.65627C8.2898 1.56522 7.9042 1.51367 7.5 1.51367C6.07275 1.51782 4.75515 2.27952 4.0393 3.51417C4.02625 3.51367 4.0132 3.51367 4 3.51367C2.34315 3.51367 1 4.85692 1 6.51367C1 8.17042 2.34315 9.51367 4 9.51367V8.51367C2.8955 8.51367 2 7.61817 2 6.51367C2 5.40917 2.8955 4.51367 4 4.51367C4.06495 4.51562 4.1295 4.52197 4.1935 4.53322L4.625 4.59037L4.7793 4.25662C5.271 3.19682 6.33165 2.51737 7.5 2.51372C7.80395 2.51372 8.09095 2.55642 8.3655 2.62112L8.65395 1.65627Z" fill="currentColor"/>
</svg>
