<svg viewBox="0 0 16 17" fill="none" xmlns="http://www.w3.org/2000/svg">
<rect width="16" height="16" transform="translate(0 0.513672)" fill="white" fill-opacity="0.01" style="mix-blend-mode:multiply"/>
<path d="M6.5 4.51367L4 7.01367L4.7051 7.71877L6 6.42872V14.5137H4.5V15.5137H6C6.552 15.5129 6.9994 15.0657 7 14.5137V6.42872L8.2949 7.71877L9 7.01367L6.5 4.51367Z" fill="currentColor"/>
<path d="M11 15.5137H9.5C8.948 15.513 8.50065 15.0657 8.5 14.5137V9.01367H11.5C12.6048 9.01362 13.5004 8.11792 13.5003 7.01317C13.5003 6.94722 13.4971 6.88132 13.4905 6.81567C13.352 5.76852 12.4487 4.99262 11.3926 5.01367H10.6008L10.5125 4.62417C10.226 3.36172 9.0154 2.51367 7.5 2.51367C6.3317 2.51737 5.27105 3.19687 4.77925 4.25662L4.625 4.59022L4.1935 4.53307C4.12955 4.52207 4.06485 4.51562 4 4.51367C2.89545 4.51367 2 5.40912 2 6.51367C2 7.61822 2.89545 8.51367 4 8.51367V9.51367C2.34315 9.51367 1 8.17052 1 6.51367C1 4.85682 2.34315 3.51367 4 3.51367C4.0132 3.51367 4.02625 3.51367 4.0393 3.51417C4.75515 2.27947 6.0728 1.51777 7.5 1.51367C9.3394 1.51367 10.8462 2.50247 11.3758 4.01367H11.3926C12.9629 3.99612 14.2953 5.16202 14.4862 6.72072C14.6477 8.36997 13.4417 9.83792 11.7924 9.99937C11.6953 10.0089 11.5976 10.0137 11.5 10.0137H9.5V14.5137H11V15.5137Z" fill="currentColor"/>
</svg>
