<svg viewBox="0 0 16 17" fill="none" xmlns="http://www.w3.org/2000/svg">
<rect width="16" height="16" transform="translate(0 0.513672)" fill="white" fill-opacity="0.01" style="mix-blend-mode:multiply"/>
<path d="M14 6.01379C13.8576 6.0143 13.717 6.04535 13.5877 6.10484L12.4169 5.26879C12.4695 5.10553 12.4975 4.93532 12.5 4.76379C12.4975 4.59226 12.4695 4.42205 12.4169 4.25879L13.5877 3.42264C13.7842 3.51141 14.0042 3.53418 14.2148 3.48753C14.4253 3.44088 14.6152 3.32732 14.7558 3.16384C14.8965 3.00035 14.9805 2.79573 14.9952 2.58056C15.0099 2.36539 14.9546 2.15124 14.8375 1.97013C14.7203 1.78902 14.5478 1.65068 14.3455 1.5758C14.1433 1.50092 13.9222 1.49352 13.7154 1.55471C13.5086 1.6159 13.3271 1.74239 13.1982 1.91527C13.0692 2.08815 12.9997 2.29812 13 2.51379C13 2.54579 13.0065 2.57579 13.0094 2.60704L11.8637 3.42539C11.5525 3.16131 11.1581 3.01555 10.75 3.01379C10.2859 3.01379 9.84075 3.19817 9.51256 3.52635C9.18438 3.85454 9 4.29966 9 4.76379C9 5.22792 9.18438 5.67304 9.51256 6.00123C9.84075 6.32942 10.2859 6.51379 10.75 6.51379C11.1581 6.51203 11.5525 6.36627 11.8637 6.10219L13.0094 6.92054C13.0065 6.95179 13 6.98179 13 7.01379C13 7.21157 13.0587 7.40491 13.1685 7.56936C13.2784 7.73381 13.4346 7.86198 13.6173 7.93767C13.8 8.01336 14.0011 8.03316 14.1951 7.99458C14.3891 7.95599 14.5673 7.86075 14.7071 7.7209C14.847 7.58105 14.9422 7.40286 14.9808 7.20888C15.0194 7.0149 14.9996 6.81383 14.9239 6.63111C14.8482 6.44838 14.72 6.2922 14.5556 6.18232C14.3911 6.07244 14.1978 6.01379 14 6.01379ZM10.75 5.51379C10.6017 5.51379 10.4567 5.4698 10.3333 5.38739C10.21 5.30498 10.1139 5.18785 10.0571 5.0508C10.0003 4.91376 9.98547 4.76296 10.0144 4.61747C10.0434 4.47199 10.1148 4.33835 10.2197 4.23346C10.3246 4.12857 10.4582 4.05714 10.6037 4.0282C10.7492 3.99926 10.9 4.01412 11.037 4.07088C11.1741 4.12765 11.2912 4.22378 11.3736 4.34711C11.456 4.47045 11.5 4.61546 11.5 4.76379C11.4998 4.96263 11.4207 5.15327 11.2801 5.29387C11.1395 5.43448 10.9488 5.51357 10.75 5.51379Z" fill="currentColor"/>
<path d="M14.669 10.4806L10.8028 9.09144L9.187 7.06214C9.04646 6.89035 8.86942 6.75201 8.66875 6.65716C8.46808 6.56231 8.24881 6.51334 8.02685 6.51379H4.0288C3.78431 6.51369 3.5435 6.57339 3.32737 6.68769C3.11124 6.80198 2.92634 6.96741 2.7888 7.16954L1.4331 9.16124C1.15061 9.57577 0.999669 10.0659 1 10.5675V13.5138C1 13.6464 1.05268 13.7736 1.14645 13.8673C1.24022 13.9611 1.36739 14.0138 1.5 14.0138H2.57105C2.68007 14.4427 2.92892 14.823 3.27825 15.0946C3.62758 15.3663 4.05748 15.5137 4.5 15.5137C4.94252 15.5137 5.37242 15.3663 5.72175 15.0946C6.07108 14.823 6.31993 14.4427 6.42895 14.0138H9.57105C9.68007 14.4427 9.92892 14.823 10.2783 15.0946C10.6276 15.3663 11.0575 15.5137 11.5 15.5137C11.9425 15.5137 12.3724 15.3663 12.7218 15.0946C13.0711 14.823 13.3199 14.4427 13.429 14.0138H14.5C14.6326 14.0138 14.7598 13.9611 14.8536 13.8673C14.9473 13.7736 15 13.6464 15 13.5138V10.9513C15 10.8483 14.9682 10.7478 14.909 10.6635C14.8497 10.5793 14.7659 10.5154 14.669 10.4806ZM4.5 14.5138C4.30222 14.5138 4.10888 14.4551 3.94443 14.3453C3.77998 14.2354 3.65181 14.0792 3.57612 13.8965C3.50043 13.7137 3.48063 13.5127 3.51922 13.3187C3.5578 13.1247 3.65304 12.9465 3.79289 12.8067C3.93275 12.6668 4.11093 12.5716 4.30491 12.533C4.49889 12.4944 4.69996 12.5142 4.88268 12.5899C5.06541 12.6656 5.22159 12.7938 5.33147 12.9582C5.44135 13.1227 5.5 13.316 5.5 13.5138C5.49964 13.7789 5.39417 14.033 5.20671 14.2205C5.01925 14.408 4.76511 14.5134 4.5 14.5138ZM11.5 14.5138C11.3022 14.5138 11.1089 14.4551 10.9444 14.3453C10.78 14.2354 10.6518 14.0792 10.5761 13.8965C10.5004 13.7137 10.4806 13.5127 10.5192 13.3187C10.5578 13.1247 10.653 12.9465 10.7929 12.8067C10.9327 12.6668 11.1109 12.5716 11.3049 12.533C11.4989 12.4944 11.7 12.5142 11.8827 12.5899C12.0654 12.6656 12.2216 12.7938 12.3315 12.9582C12.4414 13.1227 12.5 13.316 12.5 13.5138C12.4997 13.7789 12.3942 14.0331 12.2067 14.2205C12.0193 14.408 11.7651 14.5135 11.5 14.5138ZM14 13.0138H13.429C13.3199 12.5849 13.0711 12.2046 12.7218 11.933C12.3724 11.6613 11.9425 11.5138 11.5 11.5138C11.0575 11.5138 10.6276 11.6613 10.2783 11.933C9.92892 12.2046 9.68007 12.5849 9.57105 13.0138H6.42895C6.31993 12.5849 6.07108 12.2046 5.72175 11.933C5.37242 11.6613 4.94252 11.5138 4.5 11.5138C4.05748 11.5138 3.62758 11.6613 3.27825 11.933C2.92892 12.2046 2.68007 12.5849 2.57105 13.0138H2V10.5675C1.99989 10.2663 2.09049 9.97215 2.26 9.72324L3.6155 7.73254C3.66132 7.66513 3.72294 7.60996 3.79498 7.57183C3.86702 7.5337 3.94729 7.51377 4.0288 7.51379H8.02685C8.09968 7.51348 8.17169 7.52919 8.23777 7.55983C8.30385 7.59046 8.36237 7.63526 8.4092 7.69104L10.1089 9.82529C10.1667 9.89794 10.2437 9.95307 10.3311 9.98449L14 11.3028V13.0138Z" fill="currentColor"/>
</svg>
