<svg viewBox="0 0 16 17" fill="none" xmlns="http://www.w3.org/2000/svg">
<rect width="16" height="16" transform="translate(0 0.513672)" fill="white" fill-opacity="0.01" style="mix-blend-mode:multiply"/>
<path d="M14.669 9.48046L10.8028 8.09131L9.187 6.06201C9.04646 5.89022 8.86942 5.75188 8.66875 5.65703C8.46808 5.56218 8.24881 5.51321 8.02685 5.51366H4.0288C3.78431 5.51356 3.5435 5.57326 3.32737 5.68755C3.11124 5.80185 2.92634 5.96728 2.7888 6.16941L1.4331 8.16111C1.15061 8.57564 0.999669 9.06572 1 9.56736V13.5137C1 13.6463 1.05268 13.7734 1.14645 13.8672C1.24022 13.961 1.36739 14.0137 1.5 14.0137H2.57105C2.68007 14.4425 2.92892 14.8229 3.27825 15.0945C3.62758 15.3661 4.05748 15.5136 4.5 15.5136C4.94252 15.5136 5.37242 15.3661 5.72175 15.0945C6.07108 14.8229 6.31993 14.4425 6.42895 14.0137H9.57105C9.68007 14.4425 9.92892 14.8229 10.2783 15.0945C10.6276 15.3661 11.0575 15.5136 11.5 15.5136C11.9425 15.5136 12.3724 15.3661 12.7218 15.0945C13.0711 14.8229 13.3199 14.4425 13.429 14.0137H14.5C14.6326 14.0137 14.7598 13.961 14.8536 13.8672C14.9473 13.7734 15 13.6463 15 13.5137V9.95116C15 9.84816 14.9682 9.74766 14.909 9.66341C14.8497 9.57916 14.7659 9.51526 14.669 9.48046ZM4.5 14.5137C4.30222 14.5137 4.10888 14.455 3.94443 14.3451C3.77998 14.2352 3.65181 14.0791 3.57612 13.8963C3.50043 13.7136 3.48063 13.5126 3.51922 13.3186C3.5578 13.1246 3.65304 12.9464 3.79289 12.8066C3.93275 12.6667 4.11093 12.5715 4.30491 12.5329C4.49889 12.4943 4.69996 12.5141 4.88268 12.5898C5.06541 12.6655 5.22159 12.7936 5.33147 12.9581C5.44135 13.1225 5.5 13.3159 5.5 13.5137C5.49964 13.7788 5.39417 14.0329 5.20671 14.2204C5.01925 14.4078 4.76511 14.5133 4.5 14.5137ZM11.5 14.5137C11.3022 14.5137 11.1089 14.455 10.9444 14.3451C10.78 14.2352 10.6518 14.0791 10.5761 13.8963C10.5004 13.7136 10.4806 13.5126 10.5192 13.3186C10.5578 13.1246 10.653 12.9464 10.7929 12.8066C10.9327 12.6667 11.1109 12.5715 11.3049 12.5329C11.4989 12.4943 11.7 12.5141 11.8827 12.5898C12.0654 12.6655 12.2216 12.7936 12.3315 12.9581C12.4414 13.1225 12.5 13.3159 12.5 13.5137C12.4997 13.7788 12.3942 14.0329 12.2067 14.2204C12.0193 14.4079 11.7651 14.5133 11.5 14.5137ZM14 13.0137H13.429C13.3199 12.5848 13.0711 12.2045 12.7218 11.9328C12.3724 11.6612 11.9425 11.5137 11.5 11.5137C11.0575 11.5137 10.6276 11.6612 10.2783 11.9328C9.92892 12.2045 9.68007 12.5848 9.57105 13.0137H6.42895C6.31993 12.5848 6.07108 12.2045 5.72175 11.9328C5.37242 11.6612 4.94252 11.5137 4.5 11.5137C4.05748 11.5137 3.62758 11.6612 3.27825 11.9328C2.92892 12.2045 2.68007 12.5848 2.57105 13.0137H2V9.56736C1.99989 9.26621 2.09049 8.97202 2.26 8.72311L3.6155 6.73241C3.66132 6.665 3.72294 6.60982 3.79498 6.57169C3.86702 6.53357 3.94729 6.51364 4.0288 6.51366H8.02685C8.09968 6.51335 8.17169 6.52906 8.23777 6.55969C8.30385 6.59033 8.36237 6.63512 8.4092 6.69091L10.1089 8.82516C10.1667 8.89781 10.2437 8.95294 10.3311 8.98436L14 10.3027V13.0137Z" fill="currentColor"/>
<path d="M12.2774 3.51366C12.2774 3.24844 12.3827 2.99409 12.5702 2.80655C12.7578 2.61902 13.0121 2.51366 13.2774 2.51366H15C14.8032 2.16993 14.5081 1.89285 14.1527 1.71795C13.7974 1.54305 13.3978 1.47832 13.0054 1.53205C12.6129 1.58577 12.2455 1.75552 11.9502 2.0195C11.6549 2.28349 11.4452 2.62968 11.348 3.01366H8V4.01366H11.348C11.4452 4.39764 11.6549 4.74383 11.9502 5.00782C12.2455 5.2718 12.6129 5.44155 13.0054 5.49527C13.3978 5.549 13.7974 5.48427 14.1527 5.30937C14.5081 5.13447 14.8032 4.85739 15 4.51366H13.2774C13.0121 4.51366 12.7578 4.4083 12.5702 4.22077C12.3827 4.03323 12.2774 3.77888 12.2774 3.51366Z" fill="currentColor"/>
</svg>
