<svg viewBox="0 0 16 17" fill="none" xmlns="http://www.w3.org/2000/svg">
<rect width="16" height="16" transform="translate(0 0.513672)" fill="white" fill-opacity="0.01" style="mix-blend-mode:multiply"/>
<path d="M14.669 9.48047L10.8028 8.09132L9.187 6.06202C9.04646 5.89023 8.86942 5.75189 8.66875 5.65704C8.46808 5.56219 8.24881 5.51322 8.02685 5.51367H4.0288C3.78431 5.51357 3.5435 5.57327 3.32737 5.68757C3.11124 5.80186 2.92634 5.96729 2.7888 6.16942L1.4331 8.16112C1.15061 8.57565 0.999669 9.06573 1 9.56737V13.5137C1 13.6463 1.05268 13.7735 1.14645 13.8672C1.24022 13.961 1.36739 14.0137 1.5 14.0137H2.57105C2.68007 14.4425 2.92892 14.8229 3.27825 15.0945C3.62758 15.3661 4.05748 15.5136 4.5 15.5136C4.94252 15.5136 5.37242 15.3661 5.72175 15.0945C6.07108 14.8229 6.31993 14.4425 6.42895 14.0137H9.57105C9.68007 14.4425 9.92892 14.8229 10.2783 15.0945C10.6276 15.3661 11.0575 15.5136 11.5 15.5136C11.9425 15.5136 12.3724 15.3661 12.7218 15.0945C13.0711 14.8229 13.3199 14.4425 13.429 14.0137H14.5C14.6326 14.0137 14.7598 13.961 14.8536 13.8672C14.9473 13.7735 15 13.6463 15 13.5137V9.95117C15 9.84817 14.9682 9.74767 14.909 9.66342C14.8497 9.57917 14.7659 9.51528 14.669 9.48047ZM4.5 14.5137C4.30222 14.5137 4.10888 14.455 3.94443 14.3451C3.77998 14.2353 3.65181 14.0791 3.57612 13.8964C3.50043 13.7136 3.48063 13.5126 3.51922 13.3186C3.5578 13.1246 3.65304 12.9464 3.79289 12.8066C3.93275 12.6667 4.11093 12.5715 4.30491 12.5329C4.49889 12.4943 4.69996 12.5141 4.88268 12.5898C5.06541 12.6655 5.22159 12.7937 5.33147 12.9581C5.44135 13.1226 5.5 13.3159 5.5 13.5137C5.49964 13.7788 5.39417 14.0329 5.20671 14.2204C5.01925 14.4078 4.76511 14.5133 4.5 14.5137ZM11.5 14.5137C11.3022 14.5137 11.1089 14.455 10.9444 14.3451C10.78 14.2353 10.6518 14.0791 10.5761 13.8964C10.5004 13.7136 10.4806 13.5126 10.5192 13.3186C10.5578 13.1246 10.653 12.9464 10.7929 12.8066C10.9327 12.6667 11.1109 12.5715 11.3049 12.5329C11.4989 12.4943 11.7 12.5141 11.8827 12.5898C12.0654 12.6655 12.2216 12.7937 12.3315 12.9581C12.4414 13.1226 12.5 13.3159 12.5 13.5137C12.4997 13.7788 12.3942 14.0329 12.2067 14.2204C12.0193 14.4079 11.7651 14.5133 11.5 14.5137ZM14 13.0137H13.429C13.3199 12.5848 13.0711 12.2045 12.7218 11.9328C12.3724 11.6612 11.9425 11.5137 11.5 11.5137C11.0575 11.5137 10.6276 11.6612 10.2783 11.9328C9.92892 12.2045 9.68007 12.5848 9.57105 13.0137H6.42895C6.31993 12.5848 6.07108 12.2045 5.72175 11.9328C5.37242 11.6612 4.94252 11.5137 4.5 11.5137C4.05748 11.5137 3.62758 11.6612 3.27825 11.9328C2.92892 12.2045 2.68007 12.5848 2.57105 13.0137H2V9.56737C1.99989 9.26623 2.09049 8.97203 2.26 8.72312L3.6155 6.73242C3.66132 6.66501 3.72294 6.60984 3.79498 6.57171C3.86702 6.53358 3.94729 6.51365 4.0288 6.51367H8.02685C8.09968 6.51336 8.17169 6.52907 8.23777 6.55971C8.30385 6.59034 8.36237 6.63514 8.4092 6.69092L10.1089 8.82517C10.1667 8.89783 10.2437 8.95295 10.3311 8.98437L14 10.3027V13.0137Z" fill="currentColor"/>
<path d="M12.5 6.01367H11.5C11.4997 5.74854 11.3943 5.49435 11.2068 5.30687C11.0193 5.1194 10.7651 5.01395 10.5 5.01367V4.01367C11.0303 4.01427 11.5386 4.22517 11.9136 4.60012C12.2885 4.97506 12.4994 5.48342 12.5 6.01367Z" fill="currentColor"/>
<path d="M14.5 6.01367H13.5C13.4991 5.21829 13.1828 4.45575 12.6203 3.89333C12.0579 3.33091 11.2954 3.01456 10.5 3.01367V2.01367C11.5605 2.01489 12.5772 2.43671 13.3271 3.18659C14.077 3.93647 14.4988 4.95318 14.5 6.01367Z" fill="currentColor"/>
</svg>
