<svg viewBox="0 0 16 17" fill="none" xmlns="http://www.w3.org/2000/svg">
<rect width="16" height="16" transform="translate(0 0.513672)" fill="white" fill-opacity="0.01" style="mix-blend-mode:multiply"/>
<path d="M15.4698 8.34367C14.8987 6.84908 13.9027 5.55424 12.6048 4.61867L14.9998 2.21867L14.2948 1.51367L0.999787 14.8087L1.70479 15.5137L4.25479 12.9687C5.393 13.632 6.68255 13.9919 7.99979 14.0137C9.62953 13.9524 11.2056 13.4149 12.5332 12.4676C13.8608 11.5204 14.8817 10.2048 15.4698 8.68367C15.5095 8.57382 15.5095 8.45353 15.4698 8.34367ZM7.99979 11.7637C7.31059 11.7634 6.63956 11.5426 6.08479 11.1337L6.99979 10.2287C7.37919 10.4365 7.81576 10.5158 8.24402 10.4545C8.67227 10.3933 9.06912 10.1948 9.37502 9.88891C9.68093 9.583 9.8794 9.18616 9.94066 8.7579C10.0019 8.32964 9.92266 7.89307 9.71479 7.51367L10.6198 6.60867C10.972 7.09247 11.1836 7.66425 11.2312 8.2608C11.2787 8.85735 11.1604 9.45544 10.8893 9.98893C10.6181 10.5224 10.2047 10.9705 9.69479 11.2838C9.18485 11.597 8.59823 11.7631 7.99979 11.7637Z" fill="currentColor"/>
<path d="M2.26479 11.4187L4.76479 8.91867C4.75179 8.78409 4.74678 8.64885 4.74979 8.51367C4.75111 7.65212 5.09394 6.82624 5.70315 6.21704C6.31236 5.60783 7.13824 5.26499 7.99979 5.26367C8.13183 5.26437 8.26371 5.27272 8.39479 5.28867L10.2848 3.40367C9.54921 3.15103 8.77753 3.01932 7.99979 3.01367C6.37005 3.07496 4.79398 3.61245 3.46639 4.55971C2.1388 5.50698 1.11787 6.8225 0.529787 8.34367C0.490071 8.45353 0.490071 8.57382 0.529787 8.68367C0.9138 9.70499 1.50445 10.6361 2.26479 11.4187Z" fill="currentColor"/>
</svg>
