<svg viewBox="0 0 16 17" fill="none" xmlns="http://www.w3.org/2000/svg">
<rect width="16" height="16" transform="translate(0 0.513672)" fill="white" fill-opacity="0.01" style="mix-blend-mode:multiply"/>
<path d="M10.4999 8.51369H5.49986C5.23474 8.51399 4.98056 8.61945 4.79309 8.80692C4.60562 8.99439 4.50017 9.24857 4.49986 9.51369V12.5137C4.50017 12.7788 4.60562 13.033 4.79309 13.2205C4.98056 13.4079 5.23474 13.5134 5.49986 13.5137H7.49986V14.5137H5.99986V15.5137H9.99986V14.5137H8.49986V13.5137H10.4999C10.765 13.5134 11.0192 13.4079 11.2066 13.2205C11.3941 13.033 11.4996 12.7788 11.4999 12.5137V9.51369C11.4996 9.24857 11.3941 8.99439 11.2066 8.80692C11.0192 8.61945 10.765 8.51399 10.4999 8.51369ZM5.49986 12.5137V9.51369H10.4999L10.5006 12.5137H5.49986Z" fill="currentColor"/>
<path d="M12.9108 5.57569C12.6926 4.43303 12.0828 3.40221 11.1864 2.66077C10.29 1.91933 9.16316 1.51367 7.99986 1.51367C6.83657 1.51367 5.70968 1.91933 4.81329 2.66077C3.9169 3.40221 3.30712 4.43303 3.08896 5.57569C2.18799 5.73614 1.37693 6.22089 0.808896 6.93841C0.240863 7.65593 -0.0448392 8.55658 0.00572578 9.47033C0.0562908 10.3841 0.439624 11.2477 1.08336 11.8982C1.72709 12.5486 2.58669 12.9409 3.49986 13.001V12.001C2.81155 11.9388 2.17197 11.6194 1.70867 11.1066C1.24536 10.5937 0.992366 9.92513 1.00013 9.23405C1.00789 8.54297 1.27583 7.88021 1.75054 7.37791C2.22524 6.87562 2.87182 6.57069 3.56136 6.52394L3.97961 6.49564L4.02461 6.07864C4.13152 5.09898 4.59639 4.19329 5.33005 3.53534C6.06371 2.87739 7.01449 2.5135 7.99996 2.5135C8.98544 2.5135 9.93621 2.87739 10.6699 3.53534C11.4035 4.19329 11.8684 5.09898 11.9753 6.07864L12.0203 6.49564L12.4386 6.52394C13.1281 6.57072 13.7747 6.87567 14.2493 7.37798C14.724 7.8803 14.9919 8.54307 14.9997 9.23414C15.0074 9.92522 14.7544 10.5938 14.2911 11.1066C13.8278 11.6194 13.1882 11.9388 12.4999 12.001V13.001C13.413 12.9409 14.2726 12.5486 14.9164 11.8982C15.5601 11.2477 15.9434 10.3841 15.994 9.47033C16.0446 8.55658 15.7589 7.65593 15.1908 6.93841C14.6228 6.22089 13.8117 5.73614 12.9108 5.57569Z" fill="currentColor"/>
</svg>
