<svg viewBox="0 0 16 16" fill="none" xmlns="http://www.w3.org/2000/svg">
<rect width="16" height="16" fill="white" fill-opacity="0.01" style="mix-blend-mode:multiply"/>
<path d="M7.99987 11.0001C7.6043 11.0001 7.21762 11.1174 6.88872 11.3372C6.55983 11.557 6.30348 11.8693 6.15211 12.2348C6.00073 12.6002 5.96112 13.0024 6.03829 13.3903C6.11546 13.7783 6.30595 14.1347 6.58565 14.4144C6.86536 14.6941 7.22172 14.8845 7.60968 14.9617C7.99765 15.0389 8.39978 14.9993 8.76523 14.8479C9.13068 14.6965 9.44304 14.4402 9.6628 14.1113C9.88257 13.7824 9.99986 13.3957 9.99986 13.0001C9.99927 12.4699 9.78836 11.9615 9.41342 11.5866C9.03848 11.2116 8.53012 11.0007 7.99987 11.0001ZM7.99987 14.0001C7.80208 14.0001 7.60874 13.9415 7.44429 13.8316C7.27985 13.7217 7.15167 13.5656 7.07599 13.3828C7.0003 13.2001 6.98049 12.999 7.01908 12.8051C7.05766 12.6111 7.15291 12.4329 7.29276 12.293C7.43261 12.1532 7.61079 12.0579 7.80477 12.0194C7.99876 11.9808 8.19982 12.0006 8.38255 12.0763C8.56527 12.152 8.72145 12.2801 8.83133 12.4446C8.94122 12.609 8.99986 12.8024 8.99986 13.0001C8.9996 13.2653 8.89416 13.5195 8.70668 13.707C8.5192 13.8944 8.265 13.9999 7.99987 14.0001Z" fill="currentColor"/>
<path d="M14.9999 2.50015C15.0011 2.22488 14.9265 1.95459 14.7843 1.71887C14.6421 1.48316 14.4378 1.29112 14.1938 1.16378C13.9497 1.03644 13.6753 0.978717 13.4007 0.996925C13.126 1.01513 12.8616 1.10857 12.6365 1.26702C12.4114 1.42546 12.2342 1.64278 12.1244 1.8952C12.0146 2.14762 11.9764 2.42539 12.0139 2.6981C12.0514 2.9708 12.1632 3.22792 12.3371 3.4413C12.5111 3.65468 12.7403 3.81609 12.9999 3.90785V7.50015H8.49986V4.50015H7.49986V7.50015H2.99986V3.9081C3.33357 3.79015 3.61483 3.55802 3.79394 3.25274C3.97304 2.94747 4.03846 2.5887 3.97862 2.23986C3.91878 1.89102 3.73755 1.57456 3.46694 1.34643C3.19634 1.11829 2.8538 0.993164 2.49986 0.993164C2.14593 0.993164 1.80339 1.11829 1.53279 1.34643C1.26218 1.57456 1.08095 1.89102 1.02111 2.23986C0.961275 2.5887 1.02669 2.94747 1.20579 3.25274C1.3849 3.55802 1.66616 3.79015 1.99986 3.9081V7.50015C2.00013 7.76528 2.10557 8.01948 2.29305 8.20696C2.48053 8.39444 2.73473 8.49988 2.99986 8.50015H7.49986V10.0001H8.49986V8.50015H12.9999C13.265 8.49988 13.5192 8.39444 13.7067 8.20696C13.8942 8.01948 13.9996 7.76528 13.9999 7.50015V3.9081C14.2915 3.80532 14.5441 3.61482 14.7232 3.36274C14.9022 3.11066 14.9989 2.80934 14.9999 2.50015ZM2.49986 2.00015C2.59876 2.00015 2.69543 2.02947 2.77765 2.08441C2.85987 2.13935 2.92396 2.21744 2.9618 2.30881C2.99965 2.40017 3.00955 2.5007 2.99026 2.59769C2.97096 2.69468 2.92334 2.78378 2.85342 2.8537C2.78349 2.92363 2.6944 2.97125 2.59741 2.99054C2.50042 3.00983 2.39989 2.99993 2.30852 2.96209C2.21716 2.92424 2.13907 2.86016 2.08413 2.77793C2.02919 2.69571 1.99986 2.59904 1.99986 2.50015C2.00004 2.36759 2.05277 2.24052 2.1465 2.14679C2.24023 2.05305 2.36731 2.00032 2.49986 2.00015ZM13.4999 3.00015C13.401 3.00015 13.3043 2.97082 13.2221 2.91588C13.1399 2.86094 13.0758 2.78285 13.0379 2.69149C13.0001 2.60013 12.9902 2.49959 13.0095 2.4026C13.0288 2.30561 13.0764 2.21652 13.1463 2.1466C13.2162 2.07667 13.3053 2.02905 13.4023 2.00976C13.4993 1.99046 13.5998 2.00037 13.6912 2.03821C13.7826 2.07605 13.8607 2.14014 13.9156 2.22236C13.9705 2.30459 13.9999 2.40126 13.9999 2.50015C13.9997 2.6327 13.947 2.75978 13.8532 2.85351C13.7595 2.94724 13.6324 2.99998 13.4999 3.00015Z" fill="currentColor"/>
<path d="M7.99986 3.50015C8.55215 3.50015 8.99986 3.05243 8.99986 2.50015C8.99986 1.94786 8.55215 1.50015 7.99986 1.50015C7.44758 1.50015 6.99986 1.94786 6.99986 2.50015C6.99986 3.05243 7.44758 3.50015 7.99986 3.50015Z" fill="currentColor"/>
</svg>
