<svg viewBox="0 0 16 17" fill="none" xmlns="http://www.w3.org/2000/svg">
<rect width="16" height="16" transform="translate(0 0.513672)" fill="white" fill-opacity="0.01" style="mix-blend-mode:multiply"/>
<path d="M12.9999 15.5137H11.9999V14.0137H9.99987C9.33705 14.0129 8.70159 13.7493 8.2329 13.2806C7.76422 12.812 7.50059 12.1765 7.49987 11.5137V10.874L6.34177 10.488C6.27074 10.4643 6.20595 10.425 6.15216 10.3729C6.09836 10.3209 6.05695 10.2574 6.03098 10.1872C6.00501 10.1169 5.99513 10.0418 6.00209 9.96725C6.00905 9.8927 6.03265 9.82067 6.07117 9.75647L7.49987 7.37512V6.01367C7.50119 4.8206 7.97572 3.67678 8.81935 2.83315C9.66297 1.98953 10.8068 1.515 11.9999 1.51367H14.4999V2.51367H11.9999C11.0719 2.5147 10.1823 2.88378 9.52613 3.53994C8.86998 4.19609 8.5009 5.08573 8.49987 6.01367V7.51367C8.49987 7.60429 8.47522 7.69319 8.42857 7.77087L7.24927 9.73647L8.15797 10.0393C8.25753 10.0725 8.34412 10.1362 8.40548 10.2213C8.46685 10.3064 8.49987 10.4087 8.49987 10.5137V11.5137C8.5003 11.9114 8.65848 12.2926 8.93969 12.5738C9.2209 12.8551 9.60218 13.0132 9.99987 13.0137H12.4999C12.6325 13.0137 12.7597 13.0663 12.8534 13.1601C12.9472 13.2539 12.9999 13.3811 12.9999 13.5137V15.5137Z" fill="currentColor"/>
<path d="M11.4999 6.51367H9.49987V7.51367H11.4999V6.51367Z" fill="currentColor"/>
<path d="M4.66612 13.1221C4.2992 12.7938 4.00567 12.3917 3.80471 11.9422C3.60375 11.4927 3.49987 11.0059 3.49987 10.5135C3.49987 10.0212 3.60375 9.53435 3.80471 9.08486C4.00567 8.63538 4.2992 8.23334 4.66612 7.90502L5.33312 8.65002C5.07093 8.88452 4.86118 9.1717 4.71758 9.4928C4.57397 9.8139 4.49974 10.1617 4.49974 10.5134C4.49974 10.8652 4.57397 11.213 4.71758 11.5341C4.86118 11.8552 5.07093 12.1424 5.33312 12.3769L4.66612 13.1221Z" fill="currentColor"/>
<path d="M3.19957 14.9141C2.5166 14.4017 1.96229 13.7373 1.58052 12.9736C1.19875 12.2098 1 11.3677 1 10.5139C1 9.6601 1.19875 8.818 1.58052 8.05428C1.96229 7.29056 2.5166 6.62619 3.19957 6.11377L3.79987 6.91367C3.24093 7.33288 2.78728 7.87646 2.47482 8.50137C2.16237 9.12628 1.9997 9.81535 1.9997 10.514C1.9997 11.2127 2.16237 11.9018 2.47482 12.5267C2.78728 13.1516 3.24093 13.6952 3.79987 14.1144L3.19957 14.9141Z" fill="currentColor"/>
</svg>
