<svg viewBox="0 0 16 16" fill="none" xmlns="http://www.w3.org/2000/svg">
<rect width="16" height="16" fill="white" fill-opacity="0.01" style="mix-blend-mode:multiply"/>
<path d="M12.55 5.33028L11.79 6.00028C12.2614 6.55929 12.5124 7.27124 12.4959 8.0023C12.4793 8.73337 12.1963 9.43321 11.7 9.97028L12.435 10.6503C13.0964 9.93346 13.4732 8.99967 13.4944 8.02454C13.5155 7.04941 13.1797 6.10014 12.55 5.35528V5.33028Z" fill="currentColor"/>
<path d="M10 15.0003C9.93385 15 9.86841 14.9866 9.80747 14.9609C9.74653 14.9351 9.69131 14.8975 9.645 14.8503L5.835 11.0003H2.5C2.36739 11.0003 2.24021 10.9476 2.14645 10.8538C2.05268 10.7601 2 10.6329 2 10.5003V5.50028C2 5.36767 2.05268 5.24049 2.14645 5.14673C2.24021 5.05296 2.36739 5.00028 2.5 5.00028H5.835L9.645 1.15028C9.73868 1.05715 9.86541 1.00488 9.9975 1.00488C10.1296 1.00488 10.2563 1.05715 10.35 1.15028C10.4442 1.24259 10.4981 1.36839 10.5 1.50028V14.5003C10.5 14.6329 10.4473 14.7601 10.3536 14.8538C10.2598 14.9476 10.1326 15.0003 10 15.0003Z" fill="currentColor"/>
</svg>
