<svg viewBox="0 0 16 17" fill="none" xmlns="http://www.w3.org/2000/svg">
<rect width="16" height="16" transform="translate(0 0.513672)" fill="white" fill-opacity="0.01" style="mix-blend-mode:multiply"/>
<path d="M12.8535 9.16018L10.3535 6.66018C10.2598 6.5664 10.1326 6.51371 10 6.51368H7C6.73478 6.51368 6.48043 6.61904 6.29289 6.80657C6.10536 6.99411 6 7.24846 6 7.51368V14.5137C6 14.7789 6.10536 15.0332 6.29289 15.2208C6.48043 15.4083 6.73478 15.5137 7 15.5137H12C12.2652 15.5137 12.5196 15.4083 12.7071 15.2208C12.8946 15.0332 13 14.7789 13 14.5137V9.51368C13 9.38108 12.9473 9.25393 12.8535 9.16018ZM11.7928 9.51368H10V7.72073L11.7928 9.51368ZM7 14.5137V7.51368H9V9.51368C9 9.7789 9.10536 10.0332 9.29289 10.2208C9.48043 10.4083 9.73478 10.5137 10 10.5137H12V14.5137H7Z" fill="currentColor"/>
<path d="M4 14.0137H2C1.73488 14.0134 1.4807 13.9079 1.29323 13.7204C1.10576 13.533 1.0003 13.2788 1 13.0137V3.01368C1.0003 2.74855 1.10576 2.49438 1.29323 2.30691C1.4807 2.11943 1.73488 2.01398 2 2.01368H5.79285C5.92424 2.01331 6.05439 2.03901 6.17578 2.0893C6.29716 2.13958 6.40736 2.21345 6.5 2.30663L8.20715 4.01368H14C14.2651 4.01398 14.5193 4.11943 14.7068 4.30691C14.8942 4.49438 14.9997 4.74855 15 5.01368V9.01368H14V5.01368H7.79285L5.79285 3.01368H2V13.0137H4V14.0137Z" fill="currentColor"/>
</svg>
