<svg viewBox="0 0 16 17" fill="none" xmlns="http://www.w3.org/2000/svg">
<rect width="16" height="16" transform="translate(0 0.513672)" fill="white" fill-opacity="0.01" style="mix-blend-mode:multiply"/>
<path d="M11.5 12.5138C11.1212 12.5146 10.7569 12.6597 10.4812 12.9195L8.47935 11.7184C8.50688 11.5834 8.50688 11.4442 8.47935 11.3092L10.4812 10.108C10.7562 10.3797 11.119 10.5443 11.5046 10.5723C11.8901 10.6003 12.273 10.4897 12.5842 10.2606C12.8955 10.0314 13.1148 9.69873 13.2027 9.32231C13.2906 8.94588 13.2412 8.55046 13.0635 8.20719C12.8858 7.86392 12.5914 7.59534 12.2333 7.44976C11.8753 7.30419 11.477 7.29118 11.1102 7.41307C10.7433 7.53497 10.4321 7.78377 10.2323 8.11471C10.0326 8.44565 9.95755 8.83701 10.0206 9.21836L8.0188 10.4195C7.80538 10.2194 7.5381 10.0861 7.24986 10.0359C6.96163 9.98582 6.66503 10.0211 6.39657 10.1374C6.12812 10.2537 5.89953 10.4459 5.73896 10.6905C5.57838 10.935 5.49283 11.2212 5.49283 11.5138C5.49283 11.8063 5.57838 12.0925 5.73896 12.3371C5.89953 12.5816 6.12812 12.7739 6.39657 12.8902C6.66503 13.0065 6.96163 13.0417 7.24986 12.9916C7.5381 12.9414 7.80538 12.8081 8.0188 12.608L10.0206 13.8092C10.0091 13.8768 10.0022 13.9452 10 14.0138C10 14.3104 10.088 14.6004 10.2528 14.8471C10.4176 15.0938 10.6519 15.286 10.926 15.3996C11.2001 15.5131 11.5017 15.5428 11.7926 15.4849C12.0836 15.4271 12.3509 15.2842 12.5607 15.0744C12.7704 14.8646 12.9133 14.5974 12.9712 14.3064C13.0291 14.0154 12.9994 13.7138 12.8858 13.4397C12.7723 13.1656 12.58 12.9314 12.3334 12.7666C12.0867 12.6017 11.7967 12.5138 11.5 12.5138ZM11.5 8.51376C11.5989 8.51376 11.6956 8.54309 11.7778 8.59803C11.86 8.65297 11.9241 8.73106 11.9619 8.82242C11.9998 8.91378 12.0097 9.01432 11.9904 9.11131C11.9711 9.2083 11.9235 9.29739 11.8536 9.36732C11.7836 9.43724 11.6945 9.48486 11.5975 9.50415C11.5006 9.52345 11.4 9.51355 11.3087 9.4757C11.2173 9.43786 11.1392 9.37377 11.0843 9.29155C11.0293 9.20932 11 9.11265 11 9.01376C11.0001 8.88119 11.0528 8.75407 11.1466 8.66033C11.2403 8.56658 11.3674 8.51387 11.5 8.51376ZM7 12.0138C6.90111 12.0138 6.80444 11.9844 6.72222 11.9295C6.63999 11.8746 6.5759 11.7965 6.53806 11.7051C6.50022 11.6137 6.49032 11.5132 6.50961 11.4162C6.5289 11.3192 6.57652 11.2301 6.64645 11.1602C6.71637 11.0903 6.80546 11.0427 6.90246 11.0234C6.99945 11.0041 7.09998 11.014 7.19134 11.0518C7.28271 11.0897 7.36079 11.1538 7.41574 11.236C7.47068 11.3182 7.5 11.4149 7.5 11.5138C7.49989 11.6463 7.44718 11.7735 7.35344 11.8672C7.25969 11.9609 7.13258 12.0137 7 12.0138ZM11.5 14.5138C11.4011 14.5138 11.3044 14.4844 11.2222 14.4295C11.14 14.3746 11.0759 14.2965 11.0381 14.2051C11.0002 14.1137 10.9903 14.0132 11.0096 13.9162C11.0289 13.8192 11.0765 13.7301 11.1464 13.6602C11.2164 13.5903 11.3055 13.5427 11.4025 13.5234C11.4994 13.5041 11.6 13.514 11.6913 13.5518C11.7827 13.5897 11.8608 13.6538 11.9157 13.736C11.9707 13.8182 12 13.9149 12 14.0138C11.9999 14.1463 11.9472 14.2735 11.8534 14.3672C11.7597 14.4609 11.6326 14.5137 11.5 14.5138Z" fill="currentColor"/>
<path d="M4 14.5137H2C1.73488 14.5134 1.4807 14.4079 1.29323 14.2204C1.10576 14.033 1.0003 13.7788 1 13.5137V3.51368C1.0003 3.24855 1.10576 2.99438 1.29323 2.80691C1.4807 2.61943 1.73488 2.51398 2 2.51368H5.79285C5.92424 2.51331 6.05439 2.53901 6.17578 2.5893C6.29716 2.63958 6.40736 2.71345 6.5 2.80663L8.20715 4.51368H14C14.2651 4.51398 14.5193 4.61943 14.7068 4.80691C14.8942 4.99438 14.9997 5.24855 15 5.51368V9.51368H14V5.51368H7.79285L5.79285 3.51368H2V13.5137H4V14.5137Z" fill="currentColor"/>
</svg>
