<svg viewBox="0 0 16 17" fill="none" xmlns="http://www.w3.org/2000/svg">
<rect width="16" height="16" transform="translate(0 0.513672)" fill="white" fill-opacity="0.01" style="mix-blend-mode:multiply"/>
<path d="M8.5 11.0137H5V7.51368H8.5V11.0137ZM6 10.0137H7.5V8.51368H6V10.0137Z" fill="currentColor"/>
<path d="M8.5 15.5137H5V12.0137H8.5V15.5137ZM6 14.5137H7.5V13.0137H6V14.5137Z" fill="currentColor"/>
<path d="M13 11.0137H9.5V7.51368H13V11.0137ZM10.5 10.0137H12V8.51368H10.5V10.0137Z" fill="currentColor"/>
<path d="M13 15.5137H9.5V12.0137H13V15.5137ZM10.5 14.5137H12V13.0137H10.5V14.5137Z" fill="currentColor"/>
<path d="M4 14.5137H2C1.73488 14.5134 1.4807 14.4079 1.29323 14.2204C1.10576 14.033 1.0003 13.7788 1 13.5137V3.51368C1.0003 3.24855 1.10576 2.99438 1.29323 2.80691C1.4807 2.61943 1.73488 2.51398 2 2.51368H5.79285C5.92424 2.51331 6.05439 2.53901 6.17578 2.5893C6.29716 2.63958 6.40736 2.71345 6.5 2.80663L8.20715 4.51368H14C14.2651 4.51398 14.5193 4.61943 14.7068 4.80691C14.8942 4.99438 14.9997 5.24855 15 5.51368V9.51368H14V5.51368H7.79285L5.79285 3.51368H2V13.5137H4V14.5137Z" fill="currentColor"/>
</svg>
