<svg viewBox="0 0 16 17" fill="none" xmlns="http://www.w3.org/2000/svg">
<rect width="16" height="16" transform="translate(0 0.513672)" fill="white" fill-opacity="0.01" style="mix-blend-mode:multiply"/>
<path d="M13.9998 4.01367C13.825 4.01408 13.6533 4.0605 13.5021 4.14827C13.3509 4.23604 13.2255 4.36206 13.1384 4.51367H10.9998C10.9998 3.71802 10.6837 2.95496 10.1211 2.39235C9.5585 1.82974 8.79544 1.51367 7.99979 1.51367C7.20414 1.51367 6.44108 1.82974 5.87847 2.39235C5.31586 2.95496 4.99979 3.71802 4.99979 4.51367H2.86114C2.75108 4.32303 2.58118 4.17403 2.3778 4.08979C2.17442 4.00555 1.94893 3.99077 1.7363 4.04775C1.52366 4.10472 1.33577 4.23027 1.20176 4.40491C1.06775 4.57955 0.995117 4.79354 0.995117 5.01367C0.995117 5.23381 1.06775 5.44779 1.20176 5.62243C1.33577 5.79708 1.52366 5.92262 1.7363 5.9796C1.94893 6.03657 2.17442 6.02179 2.3778 5.93755C2.58118 5.85331 2.75108 5.70431 2.86114 5.51367H4.99979V7.51367H3.99979C3.73458 7.51367 3.48022 7.61903 3.29269 7.80657C3.10515 7.9941 2.99979 8.24846 2.99979 8.51367V14.5137C2.99979 14.7789 3.10515 15.0332 3.29269 15.2208C3.48022 15.4083 3.73458 15.5137 3.99979 15.5137H11.9998C12.265 15.5137 12.5194 15.4083 12.7069 15.2208C12.8944 15.0332 12.9998 14.7789 12.9998 14.5137V8.51367C12.9998 8.24846 12.8944 7.9941 12.7069 7.80657C12.5194 7.61903 12.265 7.51367 11.9998 7.51367H10.9998V5.51367H13.1384C13.2265 5.66513 13.3528 5.79075 13.5048 5.87792C13.6568 5.96509 13.829 6.01073 14.0042 6.01027C14.1793 6.0098 14.3513 5.96325 14.5028 5.87528C14.6543 5.7873 14.78 5.66102 14.8672 5.5091C14.9545 5.35717 15.0002 5.18497 14.9998 5.00979C14.9994 4.8346 14.953 4.6626 14.8651 4.51106C14.7772 4.35953 14.6509 4.23379 14.499 4.14648C14.3472 4.05917 14.175 4.01337 13.9998 4.01367V4.01367ZM5.99979 4.51367C5.99979 3.98324 6.21051 3.47453 6.58558 3.09946C6.96065 2.72439 7.46936 2.51367 7.99979 2.51367C8.53023 2.51367 9.03893 2.72439 9.41401 3.09946C9.78908 3.47453 9.99979 3.98324 9.99979 4.51367V7.51367H5.99979V5.51367H8.49979V4.51367H5.99979ZM11.9998 8.51367V14.5137H3.99979V8.51367H11.9998Z" fill="currentColor"/>
</svg>
