<svg viewBox="0 0 16 16" fill="none" xmlns="http://www.w3.org/2000/svg">
<rect width="16" height="16" fill="white" fill-opacity="0.01" style="mix-blend-mode:multiply"/>
<path d="M14.5 11.5H12.5V10.5H13.691L9.74997 2.618L9.19722 3.7236L8.30267 3.27635L9.30267 1.27635C9.38737 1.107 9.56867 1 9.74992 1C9.93117 1 10.1125 1.107 10.1972 1.27635L14.9472 10.7764C15.0246 10.9314 15.0164 11.1155 14.9252 11.2629C14.8342 11.4103 14.6733 11.5 14.5 11.5Z" fill="currentColor"/>
<path d="M6.99997 13.1249C7.34515 13.1249 7.62497 12.8451 7.62497 12.4999C7.62497 12.1548 7.34515 11.8749 6.99997 11.8749C6.65479 11.8749 6.37497 12.1548 6.37497 12.4999C6.37497 12.8451 6.65479 13.1249 6.99997 13.1249Z" fill="currentColor"/>
<path d="M7.49997 7.49995H6.49997V10.9999H7.49997V7.49995Z" fill="currentColor"/>
<path d="M12.5 14.9999H1.49997C1.32502 14.9999 1.16282 14.9085 1.07222 14.7588C0.981618 14.6091 0.975919 14.4229 1.05707 14.2679L6.55712 3.76795C6.64342 3.60315 6.82172 3.49995 6.99997 3.49995C7.17822 3.49995 7.35652 3.60315 7.44282 3.76795L12.9428 14.2679C13.024 14.4229 13.0183 14.6091 12.9277 14.7588C12.8371 14.9085 12.6749 14.9999 12.5 14.9999ZM2.32627 13.9999H11.6737L6.99997 5.07755L2.32627 13.9999Z" fill="currentColor"/>
</svg>
