<svg viewBox="0 0 16 17" fill="none" xmlns="http://www.w3.org/2000/svg">
<rect width="16" height="16" transform="translate(0 0.513672)" fill="white" fill-opacity="0.01" style="mix-blend-mode:multiply"/>
<path d="M11 4.51367H10.5V1.51367H9.5V4.51367H6.5V1.51367H5.5V4.51367H5C4.73478 4.51367 4.48043 4.61903 4.29289 4.80657C4.10536 4.9941 4 5.24846 4 5.51367V11.5137C4 11.7789 4.10536 12.0332 4.29289 12.2208C4.48043 12.4083 4.73478 12.5137 5 12.5137H5.5V15.5137H6.5V12.5137H9.5V15.5137H10.5V12.5137H11C11.2652 12.5137 11.5196 12.4083 11.7071 12.2208C11.8946 12.0332 12 11.7789 12 11.5137V5.51367C12 5.24846 11.8946 4.9941 11.7071 4.80657C11.5196 4.61903 11.2652 4.51367 11 4.51367ZM5 11.5137V5.51367H11V11.5137H5Z" fill="currentColor"/>
<path d="M13.5 7.51367H12.5V9.51367H13.5V7.51367Z" fill="currentColor"/>
</svg>
