<svg viewBox="0 0 16 16" fill="none" xmlns="http://www.w3.org/2000/svg">
<g clip-path="url(#clip0_1961_9734)">
<rect width="16" height="16" fill="white" fill-opacity="0.01" style="mix-blend-mode:multiply"/>
<path d="M14.656 11.4594C15.2081 10.3994 15.5 9.2031 15.5 8C15.5 3.8645 12.1356 0.5 8.00005 0.5C6.31315 0.5 4.7093 1.05955 3.39775 2.08325C3.2757 2.03025 3.1415 2 3.00005 2C2.4478 2 2.00005 2.44775 2.00005 3C2.00005 3.55225 2.4478 4 3.00005 4C3.5523 4 4.00005 3.55225 4.00005 3C4.00005 2.9619 3.99295 2.92555 3.9888 2.88865C5.1294 1.99045 6.52845 1.5 8.00005 1.5C8.4864 1.5 8.95865 1.55785 9.4147 1.65965C7.7178 2.12255 6.465 3.6733 6.465 5.5151C6.465 5.90965 6.52335 6.29025 6.631 6.6501C6.28175 6.54905 5.91675 6.4848 5.53505 6.4848C3.6831 6.4848 2.1255 7.7519 1.67225 9.4633C1.56325 8.9921 1.5 8.50385 1.5 7.9999C1.5 6.9418 1.74595 5.9335 2.23095 5.00235L1.344 4.54045C0.7919 5.6005 0.5 6.7968 0.5 7.9999C0.5 12.1354 3.8645 15.4999 8 15.4999C9.6869 15.4999 11.2907 14.9403 12.6023 13.9166C12.7243 13.9696 12.8585 13.9999 13 13.9999C13.5523 13.9999 14 13.5521 14 12.9999C14 12.4476 13.5523 11.9999 13 11.9999C12.4477 11.9999 12 12.4476 12 12.9999C12 13.038 12.0071 13.0744 12.0112 13.1115C11.4714 13.5363 10.8724 13.8664 10.2366 14.1C10.4023 13.768 10.5 13.3964 10.5 12.9999C10.5 12.1847 10.1021 11.4665 9.49665 11.0097C9.5195 10.8361 9.5351 10.6607 9.5351 10.4847C9.5351 10.0919 9.47225 9.71475 9.36605 9.3561C9.7158 9.4567 10.0833 9.51505 10.465 9.51505C12.317 9.51505 13.8746 8.24795 14.3278 6.53655C14.4368 7.00775 14.5001 7.496 14.5001 7.99995C14.5001 9.05805 14.2541 10.0664 13.7691 10.9975L14.656 11.4594ZM5.7593 14.0918C4.83985 13.7514 4.0143 13.2153 3.34305 12.5248C2.82475 11.9677 2.53505 11.2485 2.53505 10.4848C2.53505 8.83075 3.8809 7.4848 5.53505 7.4848C7.1892 7.4848 8.53505 8.83075 8.53505 10.4848C8.53505 10.5097 8.5288 10.5336 8.52835 10.5585C8.3577 10.5217 8.18155 10.5 8.00005 10.5C6.6215 10.5 5.50005 11.6216 5.50005 13C5.50005 13.393 5.5962 13.7617 5.7593 14.0918ZM9.5 13C9.5 13.8271 8.82715 14.5 8 14.5C7.17285 14.5 6.5 13.8271 6.5 13C6.5 12.1728 7.17285 11.5 8 11.5C8.82715 11.5 9.5 12.1728 9.5 13ZM10.4649 8.5151C8.8108 8.5151 7.46495 7.16915 7.46495 5.5151C7.46495 3.86105 8.8108 2.5151 10.4649 2.5151C11.1796 2.5151 11.836 2.76705 12.352 3.186C12.5034 3.32295 12.6479 3.4665 12.7859 3.6169C13.2098 4.1345 13.465 4.79535 13.465 5.5151C13.465 7.16915 12.1191 8.5151 10.4649 8.5151Z" fill="currentColor"/>
</g>
<defs>
<clipPath id="clip0_1961_9734">
<rect width="16" height="16" fill="white"/>
</clipPath>
</defs>
</svg>
