<svg viewBox="0 0 16 16" fill="none" xmlns="http://www.w3.org/2000/svg">
<g clip-path="url(#clip0_1961_7509)">
<rect width="16" height="16" fill="white" fill-opacity="0.01" style="mix-blend-mode:multiply"/>
<path d="M13 12C12.4477 12 12 12.4477 12 13C12 13.0382 12.0071 13.0744 12.0112 13.1115C10.8708 14.0096 9.47165 14.5 8 14.5C6.6127 14.5 5.3284 14.0595 4.2717 13.3162C4.4005 13.3293 4.5302 13.3384 4.6616 13.3384C6.77805 13.3384 8.5 11.6165 8.5 9.5H7.5C7.5 11.0652 6.2268 12.3384 4.6616 12.3384C3.55605 12.3384 2.56275 11.6976 2.0957 10.7022C2.02745 10.5536 1.96595 10.4018 1.9088 10.2474C2.2389 10.4084 2.6087 10.5 3 10.5C4.3784 10.5 5.5 9.3784 5.5 8V7H4.5V8C4.5 8.82715 3.82715 9.5 3 9.5C2.17285 9.5 1.5 8.82715 1.5 8C1.5 6.9424 1.74585 5.9336 2.23095 5.0022L1.34375 4.5403C0.79175 5.60085 0.5 6.79715 0.5 8C0.5 12.1355 3.8645 15.5 8 15.5C9.6872 15.5 11.2909 14.9404 12.6024 13.9169C12.7244 13.9699 12.8585 14 13 14C13.5523 14 14 13.5523 14 13C14 12.4477 13.5523 12 13 12Z" fill="currentColor"/>
<path d="M11.5 11.5V10.5H10.5V11.5H11.5Z" fill="currentColor"/>
<path d="M8.5 8.5V7.5H7.5V8.5H8.5Z" fill="currentColor"/>
<path d="M4.5 4.5V5.5H5.5V4.5H4.5Z" fill="currentColor"/>
<path d="M8 0.5C6.3128 0.5 4.7091 1.05965 3.3976 2.0831C3.2756 2.0301 3.14145 2 3 2C2.4477 2 2 2.4477 2 3C2 3.5523 2.4477 4 3 4C3.5523 4 4 3.5523 4 3C4 2.9618 3.9929 2.9256 3.98875 2.88855C5.12915 1.9904 6.52835 1.5 8 1.5C9.3854 1.5 10.6681 1.9392 11.724 2.68065C11.5995 2.66855 11.4738 2.66165 11.3467 2.66165C9.23025 2.66165 7.5083 4.38355 7.5083 6.50005H8.5083C8.5083 4.93485 9.7815 3.66165 11.3467 3.66165C12.3744 3.66165 13.3001 4.2093 13.806 5.0942C13.9136 5.30835 14.0087 5.52925 14.0925 5.75605C13.7617 5.59435 13.3922 5.5 13 5.5C11.6216 5.5 10.5 6.6216 10.5 8V9H11.5V8C11.5 7.17285 12.1729 6.5 13 6.5C13.8271 6.5 14.5 7.17285 14.5 8C14.5 9.0576 14.2541 10.0664 13.769 10.9978L14.6562 11.4597C15.2082 10.3991 15.5 9.20285 15.5 8C15.5 3.8645 12.1355 0.5 8 0.5Z" fill="currentColor"/>
</g>
<defs>
<clipPath id="clip0_1961_7509">
<rect width="16" height="16" fill="white"/>
</clipPath>
</defs>
</svg>
