<svg viewBox="0 0 16 16" fill="none" xmlns="http://www.w3.org/2000/svg">
<g clip-path="url(#clip0_1961_7510)">
<rect width="16" height="16" fill="white" fill-opacity="0.01" style="mix-blend-mode:multiply"/>
<path d="M13 12C12.4477 12 12 12.4477 12 13C12 13.0382 12.0071 13.0744 12.0112 13.1115C10.8708 14.0096 9.47165 14.5 8 14.5C4.41575 14.5 1.5 11.5842 1.5 8C1.5 6.9424 1.74585 5.9336 2.23095 5.0022L1.34375 4.5403C0.79175 5.60085 0.5 6.79715 0.5 8C0.5 12.1355 3.8645 15.5 8 15.5C9.6872 15.5 11.2909 14.9404 12.6024 13.9169C12.7244 13.9699 12.8585 14 13 14C13.5523 14 14 13.5523 14 13C14 12.4477 13.5523 12 13 12Z" fill="currentColor"/>
<path d="M6.5 12.5V11.5H5.5V12.5H6.5Z" fill="currentColor"/>
<path d="M6.5 5.5V4.5H5.5V5.5H6.5Z" fill="currentColor"/>
<path d="M6.5 9V8H5.5V9H6.5Z" fill="currentColor"/>
<path d="M8 0.5C6.3128 0.5 4.7091 1.05965 3.3976 2.0831C3.2756 2.0301 3.14145 2 3 2C2.4477 2 2 2.4477 2 3C2 3.5523 2.4477 4 3 4C3.5523 4 4 3.5523 4 3C4 2.9618 3.9929 2.9256 3.98875 2.88855C5.12915 1.9904 6.52835 1.5 8 1.5C8.82715 1.5 9.5 2.17285 9.5 3C9.5 3.82715 8.82715 4.5 8 4.5H7.5V5.5H8C9.3784 5.5 10.5 4.3784 10.5 3C10.5 2.88005 10.4898 2.7626 10.4734 2.64715C10.9566 3.21455 11.25 3.9482 11.25 4.75C11.25 6.542 9.792 8 8 8H7.5V9H8C10.3435 9 12.25 7.0935 12.25 4.75C12.25 4.3673 12.1944 3.9982 12.0991 3.6452C12.6652 4.4555 13 5.4387 13 6.5C13 9.2571 10.7571 11.5 8 11.5H7.5V12.5H8C11.3084 12.5 14 9.80835 14 6.5C14 6.05025 13.9471 5.613 13.8528 5.1912C14.2632 6.04275 14.5 6.9931 14.5 8C14.5 9.0576 14.2541 10.0664 13.769 10.9978L14.6562 11.4597C15.2082 10.3991 15.5 9.20285 15.5 8C15.5 3.8645 12.1355 0.5 8 0.5Z" fill="currentColor"/>
</g>
<defs>
<clipPath id="clip0_1961_7510">
<rect width="16" height="16" fill="white"/>
</clipPath>
</defs>
</svg>
