<svg viewBox="0 0 16 16" fill="none" xmlns="http://www.w3.org/2000/svg">
<g clip-path="url(#clip0_1961_7508)">
<rect width="16" height="16" fill="white" fill-opacity="0.01" style="mix-blend-mode:multiply"/>
<path d="M13 12C12.4477 12 12 12.4477 12 13C12 13.0382 12.0071 13.0744 12.0112 13.1115C10.8708 14.0096 9.47165 14.5 8 14.5C5.86915 14.5 4 12.5139 4 10.25C4 7.9065 5.9065 6 8.25 6H8.5V5H8.25C5.3552 5 3 7.3552 3 10.25C3 11.192 3.2652 12.0948 3.71855 12.8783C2.3619 11.6861 1.5 9.94375 1.5 8C1.5 6.9424 1.74585 5.9336 2.23095 5.0022L1.34375 4.5403C0.79175 5.60085 0.5 6.79715 0.5 8C0.5 12.1355 3.8645 15.5 8 15.5C9.6872 15.5 11.2909 14.9404 12.6024 13.9169C12.7244 13.9699 12.8585 14 13 14C13.5523 14 14 13.5523 14 13C14 12.4477 13.5523 12 13 12Z" fill="currentColor"/>
<path d="M6.5 11V10H5.5V11H6.5Z" fill="currentColor"/>
<path d="M10.5 6V5H9.5V6H10.5Z" fill="currentColor"/>
<path d="M8 0.5C6.3128 0.5 4.7091 1.05965 3.3976 2.0831C3.2756 2.0301 3.14145 2 3 2C2.4477 2 2 2.4477 2 3C2 3.5523 2.4477 4 3 4C3.5523 4 4 3.5523 4 3C4 2.9618 3.9929 2.9256 3.98875 2.88855C5.12915 1.9904 6.52835 1.5 8 1.5C10.1309 1.5 12 3.4861 12 5.75C12 8.0935 10.0935 10 7.75 10H7.5V11H7.75C10.6448 11 13 8.6448 13 5.75C13 4.80735 12.7339 3.90415 12.28 3.12035C13.6375 4.3125 14.5 6.05555 14.5 8C14.5 9.0576 14.2541 10.0664 13.769 10.9978L14.6562 11.4597C15.2082 10.3991 15.5 9.20285 15.5 8C15.5 3.8645 12.1355 0.5 8 0.5Z" fill="currentColor"/>
</g>
<defs>
<clipPath id="clip0_1961_7508">
<rect width="16" height="16" fill="white"/>
</clipPath>
</defs>
</svg>
