<svg viewBox="0 0 16 17" fill="none" xmlns="http://www.w3.org/2000/svg">
<rect width="16" height="16" transform="translate(0 0.513672)" fill="white" fill-opacity="0.01" style="mix-blend-mode:multiply"/>
<path d="M11 15.5137H8.5C7.57206 15.5126 6.68242 15.1436 6.02627 14.4874C5.37011 13.8313 5.00103 12.9416 5 12.0137C5.01269 11.1276 5.37678 10.2829 6.0122 9.66532C5.68602 9.56379 5.34626 9.51265 5.00465 9.51367C2.52125 9.53697 2 12.7893 2 15.5137H1C1 9.75902 3.1726 8.53077 4.99535 8.51367C5.77488 8.52443 6.54132 8.7156 7.2346 9.07217C7.31201 9.11336 7.37723 9.17418 7.42371 9.24854C7.4702 9.32289 7.49631 9.40816 7.49943 9.49579C7.50255 9.58342 7.48257 9.67034 7.44149 9.74781C7.40042 9.82528 7.33969 9.89059 7.2654 9.93717C6.7858 10.2 6.40844 10.6163 6.19396 11.1194C5.97947 11.6224 5.9403 12.183 6.08274 12.711C6.22518 13.239 6.54096 13.7038 6.97935 14.0307C7.41774 14.3577 7.9533 14.5278 8.5 14.5137H11V15.5137Z" fill="currentColor"/>
<path d="M9 12.5137V11.5137C9.79113 11.5137 10.5645 11.2791 11.2223 10.8396C11.8801 10.4 12.3928 9.77531 12.6955 9.04441C12.9983 8.3135 13.0775 7.50924 12.9231 6.73331C12.7688 5.95739 12.3878 5.24466 11.8284 4.68525C11.269 4.12584 10.5563 3.74487 9.78036 3.59053C9.00444 3.43619 8.20017 3.51541 7.46927 3.81816C6.73836 4.12091 6.11365 4.6336 5.67412 5.29139C5.2346 5.94919 5 6.72255 5 7.51367H4C4 6.52477 4.29324 5.55807 4.84265 4.73582C5.39206 3.91358 6.17295 3.27271 7.08658 2.89428C8.00021 2.51584 9.00555 2.41682 9.97545 2.60975C10.9454 2.80267 11.8363 3.27888 12.5355 3.97814C13.2348 4.6774 13.711 5.56832 13.9039 6.53822C14.0969 7.50813 13.9978 8.51346 13.6194 9.42709C13.241 10.3407 12.6001 11.1216 11.7779 11.671C10.9556 12.2204 9.98891 12.5137 9 12.5137Z" fill="currentColor"/>
<path d="M9 5.01367C9.27614 5.01367 9.5 4.78982 9.5 4.51367C9.5 4.23753 9.27614 4.01367 9 4.01367C8.72386 4.01367 8.5 4.23753 8.5 4.51367C8.5 4.78982 8.72386 5.01367 9 5.01367Z" fill="currentColor"/>
<path d="M11.5 9.30662L10.35 8.15627C10.4476 7.95605 10.4989 7.73642 10.5 7.51367C10.4996 7.11598 10.3414 6.73471 10.0602 6.4535C9.77897 6.17229 9.39769 6.01411 9 6.01367C8.77718 6.0148 8.55748 6.06621 8.3573 6.16407L7.20705 5.01367L6.5 5.72072L7.65 6.87107C7.55238 7.07129 7.50111 7.29093 7.5 7.51367C7.50044 7.91137 7.65861 8.29264 7.93982 8.57385C8.22103 8.85506 8.60231 9.01324 9 9.01367C9.22282 9.01255 9.44252 8.96114 9.6427 8.86327L10.7929 10.0137L11.5 9.30662ZM8.5 7.51367C8.5 7.41478 8.52932 7.31811 8.58426 7.23589C8.63921 7.15366 8.7173 7.08958 8.80866 7.05173C8.90002 7.01389 9.00056 7.00399 9.09755 7.02328C9.19454 7.04257 9.28363 7.09019 9.35355 7.16012C9.42348 7.23005 9.4711 7.31914 9.49039 7.41613C9.50969 7.51312 9.49978 7.61365 9.46194 7.70502C9.4241 7.79638 9.36001 7.87447 9.27779 7.92941C9.19556 7.98435 9.09889 8.01367 9 8.01367C8.86743 8.01356 8.74032 7.96084 8.64658 7.8671C8.55284 7.77335 8.50012 7.64625 8.5 7.51367Z" fill="currentColor"/>
</svg>
