<svg viewBox="0 0 16 17" fill="none" xmlns="http://www.w3.org/2000/svg">
<g clip-path="url(#clip0_1961_11049)">
<rect width="16" height="16" transform="translate(0 0.513672)" fill="white" fill-opacity="0.01" style="mix-blend-mode:multiply"/>
<path d="M8 13.5137C7.87205 13.5137 7.744 13.4648 7.6465 13.3673L6.1465 11.8673C6.04885 11.7696 6 11.6417 6 11.5137C6 11.3858 6.04885 11.2578 6.1465 11.1601L7.6465 9.66012C7.74405 9.56252 7.872 9.51372 8 9.51372C8.128 9.51372 8.256 9.56257 8.3535 9.66012L9.8535 11.1601C9.95115 11.2578 10 11.3857 10 11.5137C10 11.6416 9.95115 11.7696 9.8535 11.8673L8.3535 13.3673C8.25595 13.4649 8.1279 13.5137 8 13.5137ZM7.20715 11.5137L8 12.3066L8.79285 11.5137L8 10.7208L7.20715 11.5137Z" fill="currentColor"/>
<path d="M11 10.5137C10.8721 10.5137 10.744 10.4648 10.6465 10.3673L9.1465 8.86727C9.04885 8.76962 9 8.64167 9 8.51372C9 8.38577 9.04885 8.25783 9.1465 8.16013L10.6465 6.66013C10.744 6.56253 10.872 6.51373 11 6.51373C11.128 6.51373 11.256 6.56258 11.3535 6.66013L12.8535 8.16013C12.9512 8.25778 13 8.38573 13 8.51368C13 8.64163 12.9512 8.76957 12.8535 8.86727L11.3535 10.3673C11.256 10.4649 11.1279 10.5137 11 10.5137ZM10.2072 8.51368L11 9.30658L11.7928 8.51368L11 7.72078L10.2072 8.51368Z" fill="currentColor"/>
<path d="M8 7.51368C7.87205 7.51368 7.744 7.46483 7.6465 7.36728L6.1465 5.86728C6.04885 5.76963 6 5.64168 6 5.51373C6 5.38578 6.04885 5.25783 6.1465 5.16013L7.6465 3.66013C7.74405 3.56253 7.872 3.51373 8 3.51373C8.128 3.51373 8.256 3.56258 8.3535 3.66013L9.8535 5.16013C9.95115 5.25778 10 5.38573 10 5.51368C10 5.64163 9.95115 5.76958 9.8535 5.86728L8.3535 7.36728C8.25595 7.46488 8.1279 7.51368 8 7.51368ZM7.20715 5.51368L8 6.30658L8.79285 5.51368L8 4.72078L7.20715 5.51368Z" fill="currentColor"/>
<path d="M5 10.5137C4.87205 10.5137 4.744 10.4648 4.6465 10.3673L3.1465 8.86727C3.04885 8.76962 3 8.64167 3 8.51372C3 8.38577 3.04885 8.25783 3.1465 8.16013L4.6465 6.66013C4.74405 6.56253 4.872 6.51373 5 6.51373C5.128 6.51373 5.256 6.56258 5.3535 6.66013L6.8535 8.16013C6.95115 8.25778 7 8.38573 7 8.51368C7 8.64163 6.95115 8.76957 6.8535 8.86727L5.3535 10.3673C5.25595 10.4649 5.1279 10.5137 5 10.5137ZM4.20715 8.51368L5 9.30658L5.79285 8.51368L5 7.72078L4.20715 8.51368Z" fill="currentColor"/>
<path d="M8 1.01367C7.91295 1.01367 7.82595 1.03637 7.74805 1.08177L1.74805 4.58177C1.5945 4.67137 1.5 4.83582 1.5 5.01367V12.0137C1.5 12.1915 1.5945 12.356 1.74805 12.4456L7.74805 15.9456C7.82595 15.991 7.91295 16.0137 8 16.0137C8.08705 16.0137 8.17405 15.991 8.25195 15.9456L13.752 12.7373L13.248 11.8735L8 14.9349L2.5 11.7266V5.30092L8 2.09252L13.5 5.30082V9.01367H14.5V5.01367C14.5 4.83582 14.4055 4.67137 14.252 4.58177L8.25195 1.08177C8.17405 1.03637 8.08705 1.01367 8 1.01367Z" fill="currentColor"/>
</g>
<defs>
<clipPath id="clip0_1961_11049">
<rect width="16" height="16" fill="white" transform="translate(0 0.513672)"/>
</clipPath>
</defs>
</svg>
