<svg viewBox="0 0 16 17" fill="none" xmlns="http://www.w3.org/2000/svg">
<rect width="16" height="16" transform="translate(0 0.513672)" fill="white" fill-opacity="0.01" style="mix-blend-mode:multiply"/>
<path d="M8 14.0137C8.55228 14.0137 9 13.566 9 13.0137C9 12.4614 8.55228 12.0137 8 12.0137C7.44772 12.0137 7 12.4614 7 13.0137C7 13.566 7.44772 14.0137 8 14.0137Z" fill="currentColor"/>
<path d="M5.235 10.1304L5.9418 10.837C6.49588 10.3093 7.23146 10.0146 7.9966 10.0137C8.76174 10.0129 9.49798 10.3059 10.0533 10.8323L10.76 10.1255C10.0174 9.4113 9.02682 9.01278 7.99649 9.01371C6.96616 9.01464 5.97632 9.41486 5.235 10.1304Z" fill="currentColor"/>
<path d="M3.1145 8.01006L3.8213 8.71681C4.93727 7.62584 6.43566 7.01458 7.99631 7.01365C9.55695 7.01271 11.0561 7.62218 12.1734 8.71181L12.88 8.00516C11.5754 6.72779 9.82198 6.01284 7.99615 6.01377C6.17033 6.01471 4.41779 6.73136 3.1145 8.01006Z" fill="currentColor"/>
<path d="M15 5.88431C13.1345 4.04489 10.6199 3.01367 8 3.01367C5.38013 3.01367 2.86554 4.04489 1 5.88431V5.89556L1.70215 6.59771C3.37928 4.94293 5.64033 4.01472 7.9964 4.01379C10.3525 4.01285 12.6143 4.93926 14.2927 6.59271L15 5.88531V5.88431Z" fill="currentColor"/>
</svg>
