<svg viewBox="0 0 16 17" fill="none" xmlns="http://www.w3.org/2000/svg">
<g clip-path="url(#clip0_1961_11688)">
<rect width="16" height="16" transform="translate(0 0.513672)" fill="white" fill-opacity="0.01" style="mix-blend-mode:multiply"/>
<path d="M12.5 14.5137C11.8372 14.5129 11.2017 14.2493 10.7331 13.7806C10.2644 13.3119 10.0008 12.6765 10 12.0137H11C11 12.3103 11.088 12.6004 11.2528 12.847C11.4176 13.0937 11.6519 13.286 11.926 13.3995C12.2001 13.513 12.5017 13.5427 12.7926 13.4848C13.0836 13.427 13.3509 13.2841 13.5607 13.0743C13.7704 12.8646 13.9133 12.5973 13.9712 12.3063C14.0291 12.0153 13.9994 11.7137 13.8858 11.4396C13.7723 11.1656 13.58 10.9313 13.3334 10.7665C13.0867 10.6016 12.7967 10.5137 12.5 10.5137H3V9.51367H12.5C13.163 9.51367 13.7989 9.77706 14.2678 10.2459C14.7366 10.7147 15 11.3506 15 12.0137C15 12.6767 14.7366 13.3126 14.2678 13.7814C13.7989 14.2503 13.163 14.5137 12.5 14.5137Z" fill="currentColor"/>
<path d="M11.5 8.01367H5V7.01367H11.5C11.7967 7.01367 12.0867 6.9257 12.3334 6.76088C12.58 6.59605 12.7723 6.36179 12.8858 6.0877C12.9994 5.81361 13.0291 5.51201 12.9712 5.22104C12.9133 4.93006 12.7704 4.66279 12.5607 4.45301C12.3509 4.24323 12.0836 4.10037 11.7926 4.04249C11.5017 3.98462 11.2001 4.01432 10.926 4.12785C10.6519 4.24138 10.4176 4.43364 10.2528 4.68032C10.088 4.92699 10 5.217 10 5.51367H9C9 5.01922 9.14662 4.53587 9.42133 4.12475C9.69603 3.71362 10.0865 3.39319 10.5433 3.20397C11.0001 3.01475 11.5028 2.96525 11.9877 3.06171C12.4727 3.15817 12.9181 3.39627 13.2678 3.7459C13.6174 4.09554 13.8555 4.54099 13.952 5.02595C14.0484 5.5109 13.9989 6.01357 13.8097 6.47038C13.6205 6.9272 13.3 7.31764 12.8889 7.59235C12.4778 7.86705 11.9945 8.01367 11.5 8.01367Z" fill="currentColor"/>
<path d="M6.5 12.0137H5.5V13.0137H6.5V12.0137Z" fill="currentColor"/>
<path d="M7.5 13.0137H6.5V14.0137H7.5V13.0137Z" fill="currentColor"/>
<path d="M8.5 14.0137H7.5V15.0137H8.5V14.0137Z" fill="currentColor"/>
<path d="M8.5 12.0137H7.5V13.0137H8.5V12.0137Z" fill="currentColor"/>
<path d="M6.5 14.0137H5.5V15.0137H6.5V14.0137Z" fill="currentColor"/>
<path d="M4 2.51367H3V3.51367H4V2.51367Z" fill="currentColor"/>
<path d="M5 3.51367H4V4.51367H5V3.51367Z" fill="currentColor"/>
<path d="M6 4.51367H5V5.51367H6V4.51367Z" fill="currentColor"/>
<path d="M6 2.51367H5V3.51367H6V2.51367Z" fill="currentColor"/>
<path d="M4 4.51367H3V5.51367H4V4.51367Z" fill="currentColor"/>
<path d="M2 13.5137H1V14.5137H2V13.5137Z" fill="currentColor"/>
<path d="M3 14.5137H2V15.5137H3V14.5137Z" fill="currentColor"/>
<path d="M4 15.5137H3V16.5137H4V15.5137Z" fill="currentColor"/>
<path d="M4 13.5137H3V14.5137H4V13.5137Z" fill="currentColor"/>
<path d="M2 15.5137H1V16.5137H2V15.5137Z" fill="currentColor"/>
</g>
<defs>
<clipPath id="clip0_1961_11688">
<rect width="16" height="16" fill="white" transform="translate(0 0.513672)"/>
</clipPath>
</defs>
</svg>
