<svg viewBox="0 0 16 17" fill="none" xmlns="http://www.w3.org/2000/svg">
<rect width="16" height="16" transform="translate(0 0.513672)" fill="white" fill-opacity="0.01" style="mix-blend-mode:multiply"/>
<path d="M8.5 14.5137V8.42162C8.79763 8.31696 9.05478 8.12128 9.235 7.86232L13.5315 9.01367L13.7903 8.04762L9.48805 6.89502C9.46057 6.55064 9.31447 6.22645 9.07466 5.97776C8.83486 5.72906 8.51621 5.57126 8.17305 5.53127L7.0969 1.51367L6.1311 1.77297L7.197 5.75097C6.88618 5.94465 6.65825 6.24673 6.55729 6.59876C6.45634 6.95079 6.48955 7.32776 6.6505 7.65672L3.5 10.8066L4.2075 11.5137L7.3575 8.36367C7.40394 8.38542 7.45151 8.40468 7.5 8.42137V14.5137H1V15.5137H15V14.5137H8.5ZM8.5 7.01367C8.5 7.11256 8.47068 7.20923 8.41574 7.29146C8.36079 7.37368 8.2827 7.43777 8.19134 7.47561C8.09998 7.51346 7.99945 7.52336 7.90245 7.50406C7.80546 7.48477 7.71637 7.43715 7.64645 7.36723C7.57652 7.2973 7.5289 7.20821 7.50961 7.11122C7.49031 7.01423 7.50022 6.91369 7.53806 6.82233C7.5759 6.73097 7.63999 6.65288 7.72221 6.59794C7.80444 6.543 7.90111 6.51367 8 6.51367C8.13258 6.51378 8.25969 6.56649 8.35344 6.66024C8.44718 6.75398 8.49989 6.8811 8.5 7.01367V7.01367Z" fill="currentColor"/>
</svg>
