<svg viewBox="0 0 16 17" fill="none" xmlns="http://www.w3.org/2000/svg">
<rect width="16" height="16" transform="translate(0 0.513672)" fill="white" fill-opacity="0.01" style="mix-blend-mode:multiply"/>
<path d="M12.5 1.51367L11.7929 2.22072L13.0859 3.51367H10.5409C9.45946 3.51278 8.38782 3.71913 7.384 4.12157L5.24465 4.97727C4.359 5.33245 3.41347 5.51454 2.45925 5.51367H1V6.51367H2.45925C3.54074 6.51456 4.61238 6.30821 5.6162 5.90577L7.75535 5.05007C8.641 4.69489 9.58653 4.51281 10.5407 4.51367H13.0857L11.7928 5.80662L12.5 6.51367L15 4.01367L12.5 1.51367Z" fill="currentColor"/>
<path d="M10.5 6.01367L9.79295 6.72072L11.0859 8.01367H9.4507C8.43135 8.01304 7.42027 8.1964 6.46605 8.55492L5.18285 9.03612C4.34089 9.3525 3.44874 9.51427 2.5493 9.51367H1V10.5137H2.5493C3.56865 10.5143 4.57973 10.3309 5.53395 9.97242L6.81715 9.49122C7.65911 9.17485 8.55126 9.01307 9.4507 9.01367H11.0859L9.79295 10.3066L10.5 11.0137L13 8.51367L10.5 6.01367Z" fill="currentColor"/>
<path d="M8.5 10.5137L7.79295 11.2207L9.08595 12.5137H8.29835C7.38465 12.5135 6.4769 12.6607 5.6101 12.9497L5.07375 13.1289C4.3089 13.384 3.5079 13.5139 2.70165 13.5137H1V14.5137H2.70165C3.61535 14.5139 4.5231 14.3666 5.3899 14.0776L5.92625 13.8984C6.6911 13.6434 7.4921 13.5135 8.29835 13.5137H9.08595L7.79295 14.8066L8.5 15.5137L11 13.0137L8.5 10.5137Z" fill="currentColor"/>
</svg>
