<svg viewBox="0 0 16 17" fill="none" xmlns="http://www.w3.org/2000/svg">
<rect width="16" height="16" transform="translate(0 0.513672)" fill="white" fill-opacity="0.01" style="mix-blend-mode:multiply"/>
<path d="M11.5 14.5137C10.8372 14.5129 10.2017 14.2493 9.73307 13.7806C9.26439 13.3119 9.00075 12.6765 9 12.0137H10C10 12.3103 10.088 12.6004 10.2528 12.847C10.4176 13.0937 10.6519 13.286 10.926 13.3995C11.2001 13.513 11.5017 13.5427 11.7926 13.4849C12.0836 13.427 12.3509 13.2841 12.5607 13.0743C12.7704 12.8646 12.9133 12.5973 12.9712 12.3063C13.0291 12.0153 12.9994 11.7137 12.8858 11.4396C12.7723 11.1656 12.58 10.9313 12.3334 10.7665C12.0867 10.6016 11.7967 10.5137 11.5 10.5137H11V9.51367H11.5C12.163 9.51367 12.7989 9.77706 13.2678 10.2459C13.7366 10.7147 14 11.3506 14 12.0137C14 12.6767 13.7366 13.3126 13.2678 13.7814C12.7989 14.2503 12.163 14.5137 11.5 14.5137Z" fill="currentColor"/>
<path d="M10 9.51367H8V10.5137H10V9.51367Z" fill="currentColor"/>
<path d="M7 9.51367H5V10.5137H7V9.51367Z" fill="currentColor"/>
<path d="M4 9.51367H2V10.5137H4V9.51367Z" fill="currentColor"/>
<path d="M10.5 8.01367H10V7.01367H10.5C10.7967 7.01367 11.0867 6.9257 11.3334 6.76088C11.58 6.59606 11.7723 6.36179 11.8858 6.0877C11.9994 5.81361 12.0291 5.51201 11.9712 5.22104C11.9133 4.93007 11.7704 4.66279 11.5607 4.45301C11.3509 4.24323 11.0836 4.10037 10.7926 4.0425C10.5017 3.98462 10.2001 4.01432 9.92597 4.12785C9.65189 4.24139 9.41762 4.43364 9.2528 4.68032C9.08797 4.92699 9 5.217 9 5.51367H8C8 5.01922 8.14662 4.53587 8.42133 4.12475C8.69603 3.71362 9.08648 3.39319 9.54329 3.20397C10.0001 3.01476 10.5028 2.96525 10.9877 3.06171C11.4727 3.15817 11.9181 3.39627 12.2678 3.74591C12.6174 4.09554 12.8555 4.54099 12.952 5.02595C13.0484 5.5109 12.9989 6.01357 12.8097 6.47038C12.6205 6.9272 12.3 7.31764 11.8889 7.59235C11.4778 7.86705 10.9945 8.01367 10.5 8.01367Z" fill="currentColor"/>
<path d="M9 7.01367H7V8.01367H9V7.01367Z" fill="currentColor"/>
<path d="M6 7.01367H4V8.01367H6V7.01367Z" fill="currentColor"/>
</svg>
