<svg viewBox="0 0 16 17" fill="none" xmlns="http://www.w3.org/2000/svg">
<rect width="16" height="16" transform="translate(0 0.513672)" fill="white" fill-opacity="0.01" style="mix-blend-mode:multiply"/>
<path d="M8 14.0137C6.2 14.0137 4.45 13.1137 3.4 11.5137H6V10.5137H2V14.5137H3V12.6637C4.25 14.1637 6.05 15.0137 8 15.0137V14.0137Z" fill="currentColor"/>
<path d="M15.5 12.0137V11.0137H14.45C14.4 10.7137 14.25 10.4137 14.1 10.1137L14.85 9.36367L14.15 8.66367L13.4 9.41367C13.15 9.26367 12.85 9.11367 12.5 9.06367V8.01367H11.5V9.06367C11.2 9.11367 10.9 9.26367 10.6 9.41367L9.85 8.66367L9.15 9.36367L9.9 10.1137C9.75 10.3637 9.6 10.6637 9.55 11.0137H8.5V12.0137H9.55C9.6 12.3137 9.75 12.6137 9.9 12.9137L9.15 13.6637L9.85 14.3637L10.6 13.6137C10.85 13.7637 11.15 13.9137 11.5 13.9637V15.0137H12.5V13.9637C12.8 13.9137 13.1 13.7637 13.4 13.6137L14.15 14.3637L14.85 13.6637L14.1 12.9137C14.25 12.6637 14.4 12.3637 14.45 12.0137H15.5ZM12 13.0137C11.15 13.0137 10.5 12.3637 10.5 11.5137C10.5 10.6637 11.15 10.0137 12 10.0137C12.85 10.0137 13.5 10.6637 13.5 11.5137C13.5 12.3637 12.85 13.0137 12 13.0137Z" fill="currentColor"/>
<path d="M10 5.51367H12.6C10.95 2.96367 7.55 2.26367 5 3.91367C3.45 4.91367 2.5 6.66367 2.5 8.51367H1.5C1.5 4.91367 4.4 2.01367 8 2.01367C9.95 2.01367 11.75 2.86367 13 4.36367V2.51367H14V6.51367H10V5.51367Z" fill="currentColor"/>
</svg>
