<svg viewBox="0 0 16 17" fill="none" xmlns="http://www.w3.org/2000/svg">
<rect width="16" height="16" transform="translate(0 0.513672)" fill="white" fill-opacity="0.01" style="mix-blend-mode:multiply"/>
<path d="M8.5 15.5137H7.5C7.23487 15.5134 6.98068 15.4079 6.7932 15.2205C6.60572 15.033 6.50028 14.7788 6.5 14.5137V7.51367H4C3.73487 7.51339 3.48068 7.40795 3.2932 7.22047C3.10572 7.033 3.00028 6.7788 3 6.51367V5.51367C3.00028 5.24854 3.10572 4.99435 3.2932 4.80687C3.48068 4.6194 3.73487 4.51395 4 4.51367H6.5V2.51367C6.50028 2.24854 6.60572 1.99435 6.7932 1.80687C6.98068 1.6194 7.23487 1.51395 7.5 1.51367H8.5C8.76513 1.51395 9.01932 1.6194 9.2068 1.80687C9.39428 1.99435 9.49972 2.24854 9.5 2.51367V4.51367H12C12.2651 4.51395 12.5193 4.6194 12.7068 4.80687C12.8943 4.99435 12.9997 5.24854 13 5.51367V6.51367C12.9997 6.7788 12.8943 7.033 12.7068 7.22047C12.5193 7.40795 12.2651 7.51339 12 7.51367H9.5V14.5137C9.49972 14.7788 9.39428 15.033 9.2068 15.2205C9.01932 15.4079 8.76513 15.5134 8.5 15.5137ZM4 5.51367V6.51367H7.5V14.5137H8.5V6.51367H12V5.51367H8.5V2.51367H7.5V5.51367H4Z" fill="currentColor"/>
</svg>
