<svg viewBox="0 0 16 17" fill="none" xmlns="http://www.w3.org/2000/svg">
<rect width="16" height="16" transform="translate(0 0.513672)" fill="white" fill-opacity="0.01" style="mix-blend-mode:multiply"/>
<path d="M13.2929 9.01345L11 11.3064L8.5 8.8064C8.31233 8.61908 8.05801 8.51388 7.79285 8.51388C7.52769 8.51388 7.27337 8.61908 7.0857 8.8064L4.7925 11.0989C4.60524 11.2866 4.50008 11.541 4.50008 11.8062C4.50008 12.0713 4.60524 12.3257 4.7925 12.5134L6.79295 14.5134H3V15.5134H8C8.09888 15.5134 8.19552 15.4841 8.27773 15.4291C8.35993 15.3742 8.424 15.2961 8.46184 15.2048C8.49967 15.1134 8.50958 15.0129 8.49029 14.9159C8.47101 14.819 8.42341 14.7299 8.3535 14.6599L5.5 11.8059L7.7926 9.51345L10.6465 12.3669C10.6929 12.4134 10.748 12.4502 10.8087 12.4754C10.8693 12.5005 10.9343 12.5134 11 12.5134C11.0657 12.5134 11.1307 12.5005 11.1913 12.4754C11.252 12.4502 11.3071 12.4134 11.3535 12.3669L14 9.7205L13.2929 9.01345Z" fill="currentColor"/>
<path d="M10.75 9.01345C10.4039 9.01345 10.0655 8.91081 9.77775 8.71852C9.48997 8.52623 9.26566 8.25292 9.13321 7.93314C9.00076 7.61337 8.9661 7.26151 9.03363 6.92204C9.10115 6.58257 9.26782 6.27075 9.51256 6.02601C9.7573 5.78127 10.0691 5.6146 10.4086 5.54707C10.7481 5.47955 11.0999 5.51421 11.4197 5.64666C11.7395 5.77911 12.0128 6.00341 12.2051 6.2912C12.3974 6.57899 12.5 6.91733 12.5 7.26345C12.4994 7.72741 12.3149 8.1722 11.9868 8.50027C11.6588 8.82834 11.214 9.01289 10.75 9.01345ZM10.75 6.51345C10.6017 6.51345 10.4567 6.55744 10.3333 6.63985C10.21 6.72226 10.1139 6.83939 10.0571 6.97644C10.0003 7.11348 9.98547 7.26428 10.0144 7.40977C10.0433 7.55525 10.1148 7.68889 10.2197 7.79378C10.3246 7.89867 10.4582 7.9701 10.6037 7.99904C10.7492 8.02798 10.9 8.01312 11.037 7.95636C11.1741 7.89959 11.2912 7.80346 11.3736 7.68013C11.456 7.55679 11.5 7.41178 11.5 7.26345C11.4998 7.06461 11.4207 6.87397 11.2801 6.73337C11.1395 6.59276 10.9488 6.51367 10.75 6.51345Z" fill="currentColor"/>
<path d="M2 5.8123L8 2.5813L14.2632 5.9539L14.7368 5.073L8.2368 1.573C8.16395 1.53405 8.08261 1.51367 8 1.51367C7.91739 1.51367 7.83605 1.53405 7.7632 1.573L1.2632 5.073C1.18363 5.11579 1.11714 5.17933 1.07079 5.25689C1.02445 5.33444 0.999986 5.4231 1 5.51345V15.5134H2V5.8123Z" fill="currentColor"/>
</svg>
