<svg viewBox="0 0 16 17" fill="none" xmlns="http://www.w3.org/2000/svg">
<rect width="16" height="16" transform="translate(0 0.513672)" fill="white" fill-opacity="0.01" style="mix-blend-mode:multiply"/>
<path d="M12.1454 8.51347L13.9379 5.25442C13.9798 5.17829 14.0011 5.09257 13.9997 5.0057C13.9984 4.91884 13.9744 4.83382 13.9302 4.75903C13.886 4.68424 13.8231 4.62226 13.7476 4.5792C13.6721 4.53614 13.5868 4.51349 13.4999 4.51347H9.94544L8.43789 1.77252C8.39472 1.69412 8.33131 1.62875 8.25427 1.58322C8.17723 1.53769 8.08938 1.51367 7.99989 1.51367C7.9104 1.51367 7.82255 1.53769 7.7455 1.58322C7.66846 1.62875 7.60505 1.69412 7.56189 1.77252L6.05434 4.51347H2.49989C2.41301 4.51349 2.32763 4.53614 2.25218 4.5792C2.17672 4.62226 2.11379 4.68424 2.06958 4.75903C2.02537 4.83382 2.00141 4.91884 2.00006 5.0057C1.99871 5.09257 2.02002 5.17829 2.06189 5.25442L3.85439 8.51347L2.06189 11.7725C2.02002 11.8486 1.99871 11.9344 2.00006 12.0212C2.00141 12.1081 2.02537 12.1931 2.06958 12.2679C2.11379 12.3427 2.17672 12.4047 2.25218 12.4477C2.32763 12.4908 2.41301 12.5134 2.49989 12.5135H6.05434L7.56189 15.2544C7.60505 15.3328 7.66846 15.3982 7.7455 15.4437C7.82255 15.4892 7.9104 15.5133 7.99989 15.5133C8.08938 15.5133 8.17723 15.4892 8.25427 15.4437C8.33131 15.3982 8.39472 15.3328 8.43789 15.2544L9.94544 12.5135H13.4999C13.5868 12.5134 13.6721 12.4908 13.7476 12.4477C13.8231 12.4047 13.886 12.3427 13.9302 12.2679C13.9744 12.1931 13.9984 12.1081 13.9997 12.0212C14.0011 11.9344 13.9798 11.8486 13.9379 11.7725L12.1454 8.51347ZM9.35424 11.5135L7.99989 13.9759L6.64554 11.5135H3.34554L4.99554 8.51347L3.34554 5.51347H6.64554L7.99989 3.05107L9.35424 5.51347H12.6542L11.0042 8.51347L12.6542 11.5135H9.35424Z" fill="currentColor"/>
</svg>
