<svg viewBox="0 0 16 17" fill="none" xmlns="http://www.w3.org/2000/svg">
<rect width="16" height="16" transform="translate(0 0.513672)" fill="white" fill-opacity="0.01" style="mix-blend-mode:multiply"/>
<path d="M13.5 9.51367C13.4039 9.5137 13.3099 9.48602 13.2292 9.43397L11 7.99807L8.77071 9.43397C8.686 9.48857 8.58677 9.51629 8.48603 9.5135C8.38529 9.51071 8.28774 9.47755 8.20618 9.41835C8.12461 9.35916 8.06284 9.2767 8.02896 9.18179C7.99508 9.08687 7.99067 8.98394 8.01631 8.88647L8.69131 6.32057L7.15521 4.85867C7.08712 4.79385 7.03868 4.71114 7.01546 4.62003C6.99224 4.52893 6.99518 4.43313 7.02393 4.34361C7.05269 4.2541 7.1061 4.17451 7.17803 4.11398C7.24996 4.05344 7.33751 4.01441 7.43061 4.00137L9.61786 3.69497L10.551 1.79337C10.5918 1.71039 10.6547 1.64033 10.7329 1.59095C10.8111 1.54158 10.9014 1.51483 10.9939 1.51367C11.0861 1.51351 11.1767 1.53845 11.2559 1.58581C11.335 1.63318 11.3998 1.7012 11.4433 1.78257L12.44 3.69492L14.5711 4.00157C14.664 4.01488 14.7513 4.05408 14.823 4.1147C14.8947 4.17531 14.9479 4.25489 14.9765 4.34433C15.0051 4.43376 15.0079 4.52944 14.9846 4.6204C14.9614 4.71136 14.913 4.79394 14.845 4.85867L13.3088 6.32062L13.9838 8.88652C14.0033 8.96053 14.0055 9.03801 13.9903 9.11301C13.9751 9.188 13.9429 9.25851 13.8961 9.31909C13.8494 9.37968 13.7894 9.42873 13.7207 9.46246C13.652 9.4962 13.5765 9.51372 13.5 9.51367ZM11 6.90332C11.096 6.90331 11.19 6.93098 11.2707 6.98302L12.6892 7.89662L12.2663 6.28917C12.2436 6.20264 12.2445 6.11159 12.2689 6.02553C12.2934 5.93946 12.3404 5.86152 12.4052 5.79982L13.4089 4.84482L12.0439 4.64837C11.9654 4.63709 11.8907 4.60728 11.826 4.56142C11.7614 4.51555 11.7085 4.45495 11.6719 4.38462L11.0134 3.12122L10.3989 4.37367C10.3629 4.44703 10.3095 4.51044 10.2433 4.55838C10.1771 4.60632 10.1002 4.63732 10.0193 4.64867L8.59496 4.84802L9.59496 5.79982C9.65975 5.86152 9.70682 5.93946 9.73125 6.02553C9.75568 6.11159 9.75658 6.20264 9.73386 6.28917L9.31101 7.89662L10.7295 6.98302C10.8101 6.93103 10.904 6.90336 11 6.90332Z" fill="currentColor"/>
<path d="M7.90841 15.5137C6.37956 15.514 4.8938 15.0071 3.68399 14.0724C2.47418 13.1376 1.6087 11.8279 1.22319 10.3484C0.837678 8.86898 0.953931 7.30343 1.55373 5.89714C2.15352 4.49086 3.20296 3.32333 4.53756 2.57752C4.63262 2.52425 4.74248 2.50349 4.85042 2.5184C4.95836 2.53331 5.05847 2.58308 5.13553 2.66012C5.21258 2.73717 5.26236 2.83727 5.27729 2.94521C5.29221 3.05315 5.27147 3.16301 5.21821 3.25807C4.58924 4.38063 4.34419 5.67793 4.52035 6.95258C4.6965 8.22722 5.28423 9.40943 6.19409 10.3193C7.10395 11.2292 8.28614 11.817 9.56078 11.9932C10.8354 12.1694 12.1327 11.9244 13.2553 11.2954C13.3504 11.242 13.4603 11.2212 13.5683 11.236C13.6763 11.2509 13.7765 11.3006 13.8536 11.3777C13.9308 11.4548 13.9806 11.5549 13.9955 11.663C14.0104 11.771 13.9896 11.8809 13.9363 11.976C13.3359 13.0475 12.4611 13.94 11.4017 14.5617C10.3424 15.1834 9.13671 15.512 7.90841 15.5137ZM3.66351 4.50002C2.58341 5.61288 1.98445 7.10597 1.99603 8.65676C2.00761 10.2076 2.62879 11.6915 3.7254 12.7881C4.822 13.8847 6.30599 14.5059 7.85677 14.5175C9.40756 14.5291 10.9007 13.9301 12.0135 12.85C10.8607 13.1327 9.6544 13.1134 8.51118 12.794C7.36796 12.4746 6.3264 11.8658 5.48706 11.0265C4.64772 10.1871 4.03895 9.14558 3.71952 8.00236C3.4001 6.85914 3.38081 5.65287 3.66351 4.50002Z" fill="currentColor"/>
</svg>
