<svg viewBox="0 0 16 17" fill="none" xmlns="http://www.w3.org/2000/svg">
<rect width="16" height="16" transform="translate(0 0.513672)" fill="white" fill-opacity="0.01" style="mix-blend-mode:multiply"/>
<path d="M12 5.51367H14C14.5523 5.51367 15 5.06597 15 4.51367V2.51367C15 1.96137 14.5523 1.51367 14 1.51367H12C11.4477 1.51367 11 1.96137 11 2.51367V3.01367H9.5C8.9477 3.01367 8.5 3.46137 8.5 4.01367V8.01367H7V3.01367C7 2.46137 6.5523 2.01367 6 2.01367H2C1.4477 2.01367 1 2.46137 1 3.01367V14.0137C1 14.566 1.4477 15.0137 2 15.0137H6C6.5523 15.0137 7 14.566 7 14.0137V9.01367H8.5V13.0137C8.5 13.566 8.9477 14.0137 9.5 14.0137H11V14.5137C11 15.066 11.4477 15.5137 12 15.5137H14C14.5523 15.5137 15 15.066 15 14.5137V12.5137C15 11.9614 14.5523 11.5137 14 11.5137H12C11.4477 11.5137 11 11.9614 11 12.5137V13.0137H9.5V9.01367H11V9.51367C11 10.066 11.4477 10.5137 12 10.5137H14C14.5523 10.5137 15 10.066 15 9.51367V7.51367C15 6.96137 14.5523 6.51367 14 6.51367H12C11.4477 6.51367 11 6.96137 11 7.51367V8.01367H9.5V4.01367H11V4.51367C11 5.06597 11.4477 5.51367 12 5.51367ZM12 2.51367H14V4.51367H12V2.51367ZM5.6996 6.51367L2 9.47337V3.55397L5.6996 6.51367ZM6.00025 7.55372L6.0006 13.4739L2.3004 10.5137L6.00025 7.55372ZM6.00015 5.47342L2.9254 3.01367H6L6.0001 5.47337L6.00015 5.47342ZM2 11.554L5.0746 14.0137H2V11.554ZM12 12.5137H14V14.5137H12V12.5137ZM12 7.51367H14V9.51367H12V7.51367Z" fill="currentColor"/>
</svg>
