<svg viewBox="0 0 16 17" fill="none" xmlns="http://www.w3.org/2000/svg">
<rect width="16" height="16" transform="translate(0 0.513672)" fill="white" fill-opacity="0.01" style="mix-blend-mode:multiply"/>
<path d="M13.5 2.01367H9.5C8.9486 2.01367 8.5 2.46242 8.5 3.01367V14.0137C8.5 14.5649 8.9486 15.0137 9.5 15.0137H13.5C14.0514 15.0137 14.5 14.5649 14.5 14.0137V3.01367C14.5 2.46242 14.0514 2.01367 13.5 2.01367ZM13.5001 5.47337L10.4254 3.01367H13.5L13.5001 5.47337ZM13.1995 6.51367L9.49995 9.47337V3.55397L13.1995 6.51367ZM13.5002 7.55372L13.5006 13.4739L9.80035 10.5137L13.5002 7.55372ZM9.49995 11.554L12.5745 14.0137H9.49995V11.554Z" fill="currentColor"/>
<path d="M6.5 2.01367H2.5C1.9486 2.01367 1.5 2.46242 1.5 3.01367V14.0137C1.5 14.5649 1.9486 15.0137 2.5 15.0137H6.5C7.0514 15.0137 7.5 14.5649 7.5 14.0137V3.01367C7.5 2.46242 7.0514 2.01367 6.5 2.01367ZM6.5001 5.47337L3.4254 3.01367H6.5L6.5001 5.47337ZM6.19955 6.51367L2.49995 9.47337V3.55397L6.19955 6.51367ZM6.5002 7.55372L6.50055 13.4739L2.80035 10.5137L6.5002 7.55372ZM2.5 11.554L5.5746 14.0137H2.5V11.554Z" fill="currentColor"/>
</svg>
