<svg viewBox="0 0 16 17" fill="none" xmlns="http://www.w3.org/2000/svg">
<rect width="16" height="16" transform="translate(0 0.513672)" fill="white" fill-opacity="0.01" style="mix-blend-mode:multiply"/>
<path d="M10 7.51367H14C14.5514 7.51367 15 7.06492 15 6.51367V2.51367C15 1.96242 14.5514 1.51367 14 1.51367H10C9.4486 1.51367 9 1.96242 9 2.51367V3.01367H4.5C3.9486 3.01367 3.5 3.46242 3.5 4.01367V5.51367H2C1.4486 5.51367 1 5.96242 1 6.51367V10.5137C1 11.0649 1.4486 11.5137 2 11.5137H3.5V13.0137C3.5 13.5649 3.9486 14.0137 4.5 14.0137H9V14.5137C9 15.0649 9.4486 15.5137 10 15.5137H14C14.5514 15.5137 15 15.0649 15 14.5137V10.5137C15 9.96242 14.5514 9.51367 14 9.51367H10C9.4486 9.51367 9 9.96242 9 10.5137V13.0137H4.5V11.5137H6C6.5514 11.5137 7 11.0649 7 10.5137V6.51367C7 5.96242 6.5514 5.51367 6 5.51367H4.5V4.01367H9V6.51367C9 7.06492 9.4486 7.51367 10 7.51367ZM10.7071 14.5137L14.0001 11.2207L14 14.5137H10.7071H10.7071ZM13.293 10.5137L10 13.8066V10.5137H13.293ZM5.2761 6.51367L2 9.78977V6.51367H5.2761ZM2.69015 10.5137L6.0001 7.20387L6.0006 10.5137H2.6902H2.69015ZM10.7071 6.51367L14.0001 3.22072L14 6.51367H10.7071H10.7071ZM13.293 2.51367L10 5.80662V2.51367H13.293Z" fill="currentColor"/>
</svg>
