<svg viewBox="0 0 16 17" fill="none" xmlns="http://www.w3.org/2000/svg">
<rect width="16" height="16" transform="translate(0 0.513672)" fill="white" fill-opacity="0.01" style="mix-blend-mode:multiply"/>
<path d="M15 11.5137H12.5V10.5137H15V9.01367H13.5C12.9486 9.01367 12.5 8.56507 12.5 8.01367V6.51367C12.5 5.96227 12.9486 5.51367 13.5 5.51367H16V6.51367H13.5V8.01367H15C15.5514 8.01367 16 8.46227 16 9.01367V10.5137C16 11.0651 15.5514 11.5137 15 11.5137Z" fill="currentColor"/>
<path d="M10.5 11.5137H9C8.4486 11.5137 8 11.0651 8 10.5137V6.51367C8 5.96227 8.4486 5.51367 9 5.51367H10.5C11.0514 5.51367 11.5 5.96227 11.5 6.51367V10.5137C11.5 11.0651 11.0514 11.5137 10.5 11.5137ZM9 6.51367V10.5137H10.5V6.51367H9Z" fill="currentColor"/>
<path d="M5.9729 5.51367L3.9729 11.5137H5.0271L7.0271 5.51367H5.9729Z" fill="currentColor"/>
<path d="M3 11.5137H0V10.3623L1.89905 7.51367H0V6.51367H3V7.66502L1.10095 10.5137H3V11.5137Z" fill="currentColor"/>
</svg>
