<svg viewBox="0 0 16 16" fill="none" xmlns="http://www.w3.org/2000/svg">
<rect width="16" height="16" fill="white" fill-opacity="0.01" style="mix-blend-mode:multiply"/>
<path d="M7.49998 10.5C7.49998 10.8978 7.34194 11.2794 7.06064 11.5607C6.77933 11.842 6.3978 12 5.99998 12H5.94998C5.82607 11.393 5.48118 10.8536 4.98218 10.4864C4.48318 10.1192 3.86562 9.95039 3.24922 10.0127C2.63281 10.0749 2.06149 10.3639 1.64601 10.8234C1.23053 11.283 1.00049 11.8805 1.00049 12.5C1.00049 13.1195 1.23053 13.717 1.64601 14.1766C2.06149 14.6361 2.63281 14.9251 3.24922 14.9873C3.86562 15.0496 4.48318 14.8808 4.98218 14.5136C5.48118 14.1464 5.82607 13.607 5.94998 13H5.99998C6.66302 13 7.2989 12.7366 7.76775 12.2678C8.23659 11.7989 8.49998 11.163 8.49998 10.5H7.49998ZM3.49998 14C3.20331 14 2.9133 13.912 2.66662 13.7472C2.41995 13.5824 2.22769 13.3481 2.11416 13.074C2.00063 12.7999 1.97092 12.4983 2.0288 12.2074C2.08668 11.9164 2.22954 11.6491 2.43932 11.4393C2.6491 11.2296 2.91637 11.0867 3.20734 11.0288C3.49831 10.9709 3.79991 11.0007 4.074 11.1142C4.34809 11.2277 4.58236 11.42 4.74718 11.6666C4.912 11.9133 4.99998 12.2033 4.99998 12.5C4.99998 12.8978 4.84194 13.2794 4.56064 13.5607C4.27933 13.842 3.8978 14 3.49998 14Z" fill="currentColor"/>
<path d="M8.49998 6.5H7.49998V9.5H8.49998V6.5Z" fill="currentColor"/>
<path d="M12.5 1C11.9237 0.999882 11.365 1.19889 10.9185 1.56335C10.4721 1.9278 10.1652 2.43532 10.05 3H9.99998C9.33694 3 8.70105 3.26339 8.23221 3.73223C7.76337 4.20107 7.49998 4.83696 7.49998 5.5H8.49998C8.49998 5.10218 8.65801 4.72064 8.93932 4.43934C9.22062 4.15804 9.60215 4 9.99998 4H10.05C10.1446 4.46346 10.3687 4.89057 10.6964 5.23172C11.024 5.57288 11.4417 5.81408 11.901 5.92731C12.3603 6.04054 12.8422 6.02116 13.2909 5.87141C13.7396 5.72167 14.1366 5.4477 14.4358 5.08134C14.735 4.71497 14.9241 4.27124 14.9812 3.80168C15.0383 3.33212 14.961 2.85601 14.7583 2.42863C14.5556 2.00125 14.2358 1.64015 13.836 1.38727C13.4363 1.13438 12.973 1.0001 12.5 1ZM12.5 5C12.2033 5 11.9133 4.91203 11.6666 4.7472C11.4199 4.58238 11.2277 4.34811 11.1142 4.07403C11.0006 3.79994 10.9709 3.49834 11.0288 3.20736C11.0867 2.91639 11.2295 2.64912 11.4393 2.43934C11.6491 2.22956 11.9164 2.0867 12.2073 2.02882C12.4983 1.97094 12.7999 2.00065 13.074 2.11418C13.3481 2.22771 13.5824 2.41997 13.7472 2.66664C13.912 2.91332 14 3.20333 14 3.5C14 3.89782 13.8419 4.27936 13.5606 4.56066C13.2793 4.84196 12.8978 5 12.5 5Z" fill="currentColor"/>
</svg>
