<svg viewBox="0 0 16 16" fill="none" xmlns="http://www.w3.org/2000/svg">
<rect width="16" height="16" fill="white" fill-opacity="0.01" style="mix-blend-mode:multiply"/>
<path d="M8.49998 5.50001C8.49998 5.10218 8.65801 4.72065 8.93932 4.43935C9.22062 4.15804 9.60215 4.00001 9.99998 4.00001H10.05C10.1739 4.60703 10.5188 5.14642 11.0178 5.5136C11.5168 5.88079 12.1343 6.04962 12.7507 5.98735C13.3671 5.92508 13.9385 5.63615 14.3539 5.17658C14.7694 4.71701 14.9995 4.11954 14.9995 3.50001C14.9995 2.88047 14.7694 2.283 14.3539 1.82343C13.9385 1.36386 13.3671 1.07493 12.7507 1.01267C12.1343 0.950396 11.5168 1.11922 11.0178 1.48641C10.5188 1.85359 10.1739 2.39298 10.05 3.00001H9.99998C9.33694 3.00001 8.70105 3.2634 8.23221 3.73224C7.76337 4.20108 7.49998 4.83696 7.49998 5.50001V6.00001H6.49998C6.10215 6.00001 5.72062 5.84197 5.43932 5.56067C5.15801 5.27936 4.99998 4.89783 4.99998 4.50001V3.50001C4.99998 2.83696 4.73659 2.20108 4.26775 1.73224C3.7989 1.2634 3.16302 1.00001 2.49998 1.00001H1.99998V2.00001H2.49998C2.8978 2.00001 3.27933 2.15804 3.56064 2.43935C3.84194 2.72065 3.99998 3.10218 3.99998 3.50001V4.50001C3.99998 5.16305 4.26337 5.79893 4.73221 6.26777C5.20105 6.73661 5.83694 7.00001 6.49998 7.00001H7.49998V10.5C7.49998 10.8978 7.34194 11.2794 7.06064 11.5607C6.77933 11.842 6.3978 12 5.99998 12H5.94998C5.82607 11.393 5.48118 10.8536 4.98218 10.4864C4.48318 10.1192 3.86562 9.9504 3.24922 10.0127C2.63281 10.0749 2.06149 10.3639 1.64601 10.8234C1.23053 11.283 1.00049 11.8805 1.00049 12.5C1.00049 13.1195 1.23053 13.717 1.64601 14.1766C2.06149 14.6362 2.63281 14.9251 3.24922 14.9873C3.86562 15.0496 4.48318 14.8808 4.98218 14.5136C5.48118 14.1464 5.82607 13.607 5.94998 13H5.99998C6.66302 13 7.2989 12.7366 7.76775 12.2678C8.23659 11.7989 8.49998 11.163 8.49998 10.5H9.74998C10.0815 10.5 10.3994 10.6317 10.6339 10.8661C10.8683 11.1005 11 11.4185 11 11.75C11.0013 12.3463 11.2388 12.9179 11.6604 13.3395C12.0821 13.7612 12.6536 13.9987 13.25 14H14V13H13.25C12.9185 13 12.6005 12.8683 12.3661 12.6339C12.1317 12.3995 12 12.0815 12 11.75C11.9987 11.1537 11.7612 10.5821 11.3395 10.1605C10.9178 9.7388 10.3463 9.50133 9.74998 9.50001H8.49998V5.50001ZM12.5 2.00001C12.7966 2.00001 13.0867 2.08798 13.3333 2.2528C13.58 2.41762 13.7723 2.65189 13.8858 2.92598C13.9993 3.20007 14.029 3.50167 13.9712 3.79264C13.9133 4.08361 13.7704 4.35089 13.5606 4.56067C13.3509 4.77044 13.0836 4.91331 12.7926 4.97118C12.5016 5.02906 12.2 4.99936 11.926 4.88582C11.6519 4.77229 11.4176 4.58003 11.2528 4.33336C11.088 4.08669 11 3.79668 11 3.50001C11 3.10218 11.158 2.72065 11.4393 2.43935C11.7206 2.15804 12.1022 2.00001 12.5 2.00001ZM3.49998 14C3.20331 14 2.9133 13.912 2.66662 13.7472C2.41995 13.5824 2.22769 13.3481 2.11416 13.074C2.00063 12.7999 1.97092 12.4983 2.0288 12.2074C2.08668 11.9164 2.22954 11.6491 2.43932 11.4393C2.6491 11.2296 2.91637 11.0867 3.20734 11.0288C3.49831 10.971 3.79991 11.0007 4.074 11.1142C4.34809 11.2277 4.58236 11.42 4.74718 11.6667C4.912 11.9133 4.99998 12.2033 4.99998 12.5C4.99998 12.8978 4.84194 13.2794 4.56064 13.5607C4.27933 13.842 3.8978 14 3.49998 14Z" fill="currentColor"/>
</svg>
