<svg viewBox="0 0 16 16" fill="none" xmlns="http://www.w3.org/2000/svg">
<rect width="16" height="16" fill="white" fill-opacity="0.01" style="mix-blend-mode:multiply"/>
<path d="M4.74998 4.00001H10.05C10.1739 4.60703 10.5188 5.14642 11.0178 5.5136C11.5168 5.88079 12.1343 6.04962 12.7507 5.98735C13.3671 5.92508 13.9385 5.63615 14.3539 5.17658C14.7694 4.71701 14.9995 4.11954 14.9995 3.50001C14.9995 2.88047 14.7694 2.283 14.3539 1.82343C13.9385 1.36386 13.3671 1.07493 12.7507 1.01267C12.1343 0.950396 11.5168 1.11922 11.0178 1.48641C10.5188 1.85359 10.1739 2.39298 10.05 3.00001H4.74998C4.02063 3.00001 3.32116 3.28974 2.80543 3.80546C2.28971 4.32119 1.99998 5.02066 1.99998 5.75001C1.99998 6.47935 2.28971 7.17882 2.80543 7.69455C3.32116 8.21027 4.02063 8.50001 4.74998 8.50001H10.25C10.7141 8.50001 11.1592 8.68438 11.4874 9.01257C11.8156 9.34076 12 9.78588 12 10.25C12 10.7141 11.8156 11.1593 11.4874 11.4874C11.1592 11.8156 10.7141 12 10.25 12H5.94998C5.82607 11.393 5.48118 10.8536 4.98218 10.4864C4.48318 10.1192 3.86562 9.9504 3.24922 10.0127C2.63281 10.0749 2.06149 10.3639 1.64601 10.8234C1.23053 11.283 1.00049 11.8805 1.00049 12.5C1.00049 13.1195 1.23053 13.717 1.64601 14.1766C2.06149 14.6362 2.63281 14.9251 3.24922 14.9873C3.86562 15.0496 4.48318 14.8808 4.98218 14.5136C5.48118 14.1464 5.82607 13.607 5.94998 13H10.25C10.9793 13 11.6788 12.7103 12.1945 12.1945C12.7102 11.6788 13 10.9794 13 10.25C13 9.52066 12.7102 8.82119 12.1945 8.30546C11.6788 7.78974 10.9793 7.50001 10.25 7.50001H4.74998C4.28585 7.50001 3.84073 7.31563 3.51254 6.98744C3.18435 6.65925 2.99998 6.21413 2.99998 5.75001C2.99998 5.28588 3.18435 4.84076 3.51254 4.51257C3.84073 4.18438 4.28585 4.00001 4.74998 4.00001ZM12.5 2.00001C12.7966 2.00001 13.0867 2.08798 13.3333 2.2528C13.58 2.41762 13.7723 2.65189 13.8858 2.92598C13.9993 3.20007 14.029 3.50167 13.9712 3.79264C13.9133 4.08361 13.7704 4.35089 13.5606 4.56067C13.3509 4.77044 13.0836 4.91331 12.7926 4.97118C12.5016 5.02906 12.2 4.99936 11.926 4.88582C11.6519 4.77229 11.4176 4.58003 11.2528 4.33336C11.088 4.08669 11 3.79668 11 3.50001C11 3.10218 11.158 2.72065 11.4393 2.43935C11.7206 2.15804 12.1022 2.00001 12.5 2.00001ZM3.49998 14C3.20331 14 2.9133 13.912 2.66662 13.7472C2.41995 13.5824 2.22769 13.3481 2.11416 13.074C2.00063 12.7999 1.97092 12.4983 2.0288 12.2074C2.08668 11.9164 2.22954 11.6491 2.43932 11.4393C2.6491 11.2296 2.91637 11.0867 3.20734 11.0288C3.49831 10.971 3.79991 11.0007 4.074 11.1142C4.34809 11.2277 4.58236 11.42 4.74718 11.6667C4.912 11.9133 4.99998 12.2033 4.99998 12.5C4.99998 12.8978 4.84194 13.2794 4.56064 13.5607C4.27933 13.842 3.8978 14 3.49998 14Z" fill="currentColor"/>
</svg>
