<svg viewBox="0 0 16 17" fill="none" xmlns="http://www.w3.org/2000/svg">
<rect width="16" height="16" transform="translate(0 0.513672)" fill="white" fill-opacity="0.01" style="mix-blend-mode:multiply"/>
<path d="M7.99998 5.51367C7.10671 5.53778 6.24315 5.83966 5.52941 6.37733C4.81567 6.915 4.28723 7.66173 4.01758 8.51367C4.28723 9.36561 4.81567 10.1123 5.52941 10.65C6.24315 11.1877 7.10671 11.4896 7.99998 11.5137C8.89325 11.4896 9.75681 11.1877 10.4705 10.65C11.1843 10.1123 11.7127 9.36561 11.9824 8.51367C11.7127 7.66173 11.1843 6.915 10.4705 6.37733C9.75681 5.83966 8.89325 5.53778 7.99998 5.51367ZM7.99998 10.5137C7.60442 10.5137 7.21774 10.3964 6.88884 10.1766C6.55994 9.95685 6.30359 9.64449 6.15222 9.27904C6.00084 8.91359 5.96124 8.51145 6.03841 8.12349C6.11558 7.73553 6.30606 7.37916 6.58576 7.09946C6.86547 6.81975 7.22184 6.62927 7.6098 6.5521C7.99776 6.47493 8.39989 6.51454 8.76534 6.66591C9.1308 6.81729 9.44315 7.07363 9.66292 7.40253C9.88268 7.73143 9.99998 8.11811 9.99998 8.51367C9.99938 9.04392 9.78848 9.55228 9.41353 9.92723C9.03859 10.3022 8.53023 10.5131 7.99998 10.5137Z" fill="currentColor"/>
<path d="M8 1.51367C6.61553 1.51367 5.26216 1.92421 4.11101 2.69338C2.95987 3.46255 2.06266 4.55581 1.53285 5.83489C1.00303 7.11397 0.86441 8.52144 1.13451 9.8793C1.4046 11.2372 2.07129 12.4845 3.05026 13.4634C4.02922 14.4424 5.2765 15.1091 6.63437 15.3792C7.99224 15.6493 9.3997 15.5106 10.6788 14.9808C11.9579 14.451 13.0511 13.5538 13.8203 12.4027C14.5895 11.2515 15 9.89814 15 8.51367C15 6.65716 14.2625 4.87668 12.9497 3.56392C11.637 2.25117 9.85652 1.51367 8 1.51367ZM8 12.5137C6.86401 12.4834 5.76748 12.0906 4.87061 11.3927C3.97374 10.6949 3.32354 9.72848 3.015 8.63477L2.9846 8.51367L3.0149 8.39257C3.32345 7.29885 3.97366 6.33245 4.87055 5.63459C5.76744 4.93672 6.864 4.54395 8 4.51367C9.13599 4.54397 10.2325 4.93675 11.1294 5.63462C12.0263 6.33248 12.6765 7.29886 12.985 8.39257L13.0154 8.51367L12.9851 8.63477C12.6766 9.7285 12.0263 10.6949 11.1295 11.3928C10.2326 12.0906 9.13601 12.4834 8 12.5137Z" fill="currentColor"/>
<path d="M8 9.51367C8.55228 9.51367 9 9.06596 9 8.51367C9 7.96139 8.55228 7.51367 8 7.51367C7.44772 7.51367 7 7.96139 7 8.51367C7 9.06596 7.44772 9.51367 8 9.51367Z" fill="currentColor"/>
</svg>
