<svg viewBox="0 0 16 17" fill="none" xmlns="http://www.w3.org/2000/svg">
<rect width="16" height="16" transform="translate(0 0.513672)" fill="white" fill-opacity="0.01" style="mix-blend-mode:multiply"/>
<path d="M11 4.51367V8.51367L11.5 9.51367L12 8.51367V4.51367H11Z" fill="currentColor"/>
<path d="M9 4.51367V9.51367L9.5 10.5137L10 9.51367V4.51367H9Z" fill="currentColor"/>
<path d="M14 2.51367C13.7349 2.51398 13.4807 2.61943 13.2932 2.8069C13.1058 2.99437 13.0003 3.24855 13 3.51367V13.5137H3V11.5137H5V10.5137H3V8.51367H5V7.51367H3V5.51367H7V7.51367L7.5 8.51367L8 7.51367V4.51367H3V3.51367C2.9997 3.24855 2.89424 2.99437 2.70677 2.8069C2.5193 2.61943 2.26512 2.51398 2 2.51367H1V3.51367H2V13.5137C2.0003 13.7788 2.10576 14.033 2.29323 14.2204C2.4807 14.4079 2.73488 14.5134 3 14.5137H13C13.2651 14.5134 13.5193 14.4079 13.7068 14.2204C13.8942 14.033 13.9997 13.7788 14 13.5137V3.51367H15V2.51367H14Z" fill="currentColor"/>
</svg>
