<svg viewBox="0 0 16 16" fill="none" xmlns="http://www.w3.org/2000/svg">
<rect width="16" height="16" fill="white" fill-opacity="0.01" style="mix-blend-mode:multiply"/>
<path d="M8.99 8.7461C8.99 7.3094 9.73855 6.4061 11.0633 6.4061C11.9666 6.4061 12.5602 6.83625 12.8269 7.5417L11.9235 7.94605C11.8203 7.5675 11.5364 7.29225 11.0632 7.29225C10.4525 7.29225 10.1427 7.72235 10.1427 8.35035V9.1676C10.1427 9.79565 10.4524 10.2172 11.0632 10.2172C11.588 10.2172 11.8461 9.91605 12.0096 9.5117L12.8526 9.91605C12.5601 10.7075 11.9321 11.1032 11.0632 11.1032C9.7384 11.1032 8.99 10.1914 8.99 8.7461Z" fill="currentColor"/>
<path d="M7.3115 11L6.82975 9.46875H4.69625L4.223 11H3.07025L5.08325 4.99525H6.4941L8.48995 11H7.3115ZM5.78015 6.0276H5.7371L4.97155 8.49665H6.5545L5.78015 6.0276Z" fill="currentColor"/>
<path d="M14 15H2C1.4477 15 1 14.5523 1 14V2C1 1.4477 1.4477 1 2 1H14C14.5523 1 15 1.4477 15 2V14C15 14.5523 14.5523 15 14 15ZM2 14H14V2H2V14Z" fill="currentColor"/>
</svg>
