<svg viewBox="0 0 16 17" fill="none" xmlns="http://www.w3.org/2000/svg">
<rect width="16" height="16" transform="translate(0 0.513672)" fill="white" fill-opacity="0.01" style="mix-blend-mode:multiply"/>
<path d="M12.1255 11.1982L13.2226 11.9297C13.329 12.0006 13.4584 12.0281 13.5844 12.0065C13.7104 11.9849 13.8233 11.9159 13.9 11.8137L15.4 9.81367L14.6 9.21367L13.3837 10.8355L12.2774 10.0977C12.1693 10.0256 12.0375 9.99843 11.9098 10.0218C11.7821 10.0453 11.6685 10.1174 11.593 10.2231L10 12.4531V8.51367H9V13.5137C9.0003 13.7788 9.10576 14.033 9.29323 14.2204C9.4807 14.4079 9.73488 14.5134 10 14.5137H15V13.5137H10.4717L12.1255 11.1982Z" fill="currentColor"/>
<path d="M8 11.0137H1V12.0137H8V11.0137Z" fill="currentColor"/>
<path d="M8 13.5137H1V14.5137H8V13.5137Z" fill="currentColor"/>
<path d="M5.5 8.51367V6.01367H6C6.53025 6.01306 7.0386 5.80215 7.41354 5.42721C7.78848 5.05227 7.99939 4.54392 8 4.01367V2.51367H6.5C5.98806 2.51449 5.49614 2.71267 5.1266 3.06697C4.86764 2.59689 4.48737 2.20484 4.02541 1.93165C3.56345 1.65846 3.03669 1.51412 2.5 1.51367H1V3.01367C1.00087 3.80905 1.31722 4.57161 1.87964 5.13403C2.44206 5.69645 3.20462 6.0128 4 6.01367H4.5V8.51367H1V9.51367H8V8.51367H5.5ZM6.5 3.51367H7V4.01367C6.99974 4.27881 6.89429 4.53301 6.70681 4.72049C6.51934 4.90797 6.26514 5.01341 6 5.01367H5.5V4.51367C5.50025 4.24853 5.60569 3.99432 5.79317 3.80684C5.98065 3.61936 6.23486 3.51392 6.5 3.51367ZM4 5.01367C3.46975 5.01306 2.9614 4.80215 2.58646 4.42721C2.21152 4.05227 2.00061 3.54392 2 3.01367V2.51367H2.5C3.03025 2.51427 3.53861 2.72517 3.91356 3.10012C4.2885 3.47506 4.4994 3.98342 4.5 4.51367V5.01367H4Z" fill="currentColor"/>
</svg>
