<svg viewBox="0 0 16 16" fill="none" xmlns="http://www.w3.org/2000/svg">
<rect width="16" height="16" fill="white" fill-opacity="0.01" style="mix-blend-mode:multiply"/>
<path d="M8.00005 11.7072L5.64655 9.35365L6.35355 8.64645L8.00005 10.293L13.6466 4.64645L14.3536 5.35365L8.00005 11.7072Z" fill="currentColor"/>
<path d="M6.35355 4.35371L5.6465 3.64666L3.5001 5.79306L2.20705 4.49991L4.35355 2.35366L3.6465 1.64661L1.1465 4.14636C1.05275 4.24011 1 4.36731 1 4.49986C1 4.63241 1.05275 4.75961 1.1465 4.85336L4.6465 8.35361L5.35355 7.64656L4.2071 6.50006L6.35355 4.35371Z" fill="currentColor"/>
<path d="M8.00005 15.0001C4.1402 15.0001 1.00005 11.8599 1.00005 8.00005H2.00005C2.00005 11.3085 4.6917 14.0001 8.00005 14.0001C11.3084 14.0001 14.0001 11.3085 14.0001 8.00005H15.0001C15.0001 11.8599 11.8599 15.0001 8.00005 15.0001Z" fill="currentColor"/>
<path d="M12.1539 3.6704C11.0316 2.59325 9.55646 2.00005 8.00006 2.00005C7.53181 2.00005 7.06596 2.05405 6.61506 2.16055L6.38506 1.1874C6.91116 1.06305 7.45441 1 8.00006 1C9.81571 1 11.5369 1.69215 12.8463 2.9489L12.1539 3.6704Z" fill="currentColor"/>
</svg>
