<svg viewBox="0 0 16 16" fill="none" xmlns="http://www.w3.org/2000/svg">
<rect width="16" height="16" fill="white" fill-opacity="0.01" style="mix-blend-mode:multiply"/>
<path d="M10.5001 12.0002H5.50012V13.0002H10.5001V12.0002Z" fill="currentColor"/>
<path d="M9.50012 14.0002H6.50012V15.0002H9.50012V14.0002Z" fill="currentColor"/>
<path d="M11.5245 8.00015C11.2675 8.40167 10.9522 8.76272 10.589 9.07145C10.0536 9.56755 9.50012 10.0807 9.50012 11.0002H10.5001C10.5001 10.5405 10.7633 10.2752 11.2677 9.8073C11.8581 9.31828 12.3279 8.69993 12.6409 8.00015H11.5245Z" fill="currentColor"/>
<path d="M8.00012 2.00015C8.64294 2.00007 9.27613 2.15633 9.84512 2.45545L10.293 1.55995C9.53124 1.16526 8.68064 0.97343 7.82319 1.00296C6.96574 1.03249 6.13036 1.28238 5.39754 1.72855C4.66472 2.17472 4.05917 2.80212 3.63927 3.5503C3.21936 4.29847 2.99924 5.14219 3.00012 6.00015C2.96618 6.72656 3.10533 7.45064 3.40611 8.11273C3.70689 8.77481 4.16069 9.35595 4.73012 9.80825C5.23597 10.2756 5.50012 10.5409 5.50012 11.0002H6.50012C6.50012 10.0802 5.94472 9.56705 5.40737 9.07045C4.9391 8.71324 4.56584 8.24638 4.32044 7.71098C4.07505 7.17558 3.96504 6.58806 4.00012 6.00015C4.00134 4.93966 4.42316 3.92295 5.17304 3.17307C5.92292 2.42319 6.93963 2.00137 8.00012 2.00015Z" fill="currentColor"/>
<path d="M14.5001 7.00015H9.50012C9.41488 7.00016 9.33106 6.97838 9.25661 6.93688C9.18216 6.89537 9.11955 6.83553 9.07474 6.76302C9.02993 6.69051 9.00439 6.60775 9.00057 6.5226C8.99674 6.43745 9.01474 6.35274 9.05287 6.2765L11.5529 1.2765C11.5944 1.19345 11.6582 1.12361 11.7372 1.0748C11.8162 1.02599 11.9072 1.00013 12.0001 1.00013C12.0929 1.00013 12.1839 1.02599 12.2629 1.0748C12.3419 1.12361 12.4057 1.19345 12.4473 1.2765L14.9473 6.2765C14.9854 6.35273 15.0034 6.43744 14.9996 6.52258C14.9958 6.60772 14.9702 6.69047 14.9254 6.76298C14.8806 6.83548 14.818 6.89533 14.7436 6.93684C14.6692 6.97835 14.5853 7.00014 14.5001 7.00015ZM10.3092 6.00015H13.691L12.0001 2.6182L10.3092 6.00015Z" fill="currentColor"/>
</svg>
