<svg viewBox="0 0 16 17" fill="none" xmlns="http://www.w3.org/2000/svg">
<rect width="16" height="16" transform="translate(0 0.513672)" fill="white" fill-opacity="0.01" style="mix-blend-mode:multiply"/>
<path d="M9 12.0137H8V11.0137C7.99956 10.616 7.84139 10.2347 7.56018 9.95349C7.27897 9.67228 6.89769 9.51411 6.5 9.51367H4.5C4.10231 9.51411 3.72103 9.67228 3.43982 9.95349C3.15861 10.2347 3.00044 10.616 3 11.0137V12.0137H2V11.0137C2.00078 10.3509 2.26442 9.71544 2.7331 9.24677C3.20177 8.7781 3.8372 8.51445 4.5 8.51367H6.5C7.1628 8.51445 7.79823 8.7781 8.2669 9.24677C8.73558 9.71544 8.99922 10.3509 9 11.0137V12.0137Z" fill="currentColor"/>
<path d="M5.5 3.51367C5.79667 3.51367 6.08668 3.60165 6.33336 3.76647C6.58003 3.93129 6.77229 4.16556 6.88582 4.43965C6.99935 4.71374 7.02906 5.01534 6.97118 5.30631C6.9133 5.59728 6.77044 5.86455 6.56066 6.07433C6.35088 6.28411 6.08361 6.42697 5.79264 6.48485C5.50166 6.54273 5.20006 6.51302 4.92597 6.39949C4.65189 6.28596 4.41762 6.0937 4.2528 5.84703C4.08797 5.60035 4 5.31034 4 5.01367C4 4.61585 4.15804 4.23432 4.43934 3.95301C4.72064 3.67171 5.10218 3.51367 5.5 3.51367ZM5.5 2.51367C5.00555 2.51367 4.5222 2.66029 4.11107 2.935C3.69995 3.2097 3.37952 3.60015 3.1903 4.05696C3.00108 4.51378 2.95157 5.01645 3.04804 5.5014C3.1445 5.98635 3.3826 6.43181 3.73223 6.78144C4.08186 7.13107 4.52732 7.36917 5.01227 7.46564C5.49723 7.5621 5.99989 7.51259 6.45671 7.32337C6.91352 7.13415 7.30397 6.81372 7.57867 6.4026C7.85338 5.99147 8 5.50813 8 5.01367C8 4.35063 7.73661 3.71475 7.26777 3.2459C6.79893 2.77706 6.16304 2.51367 5.5 2.51367Z" fill="currentColor"/>
<path d="M15 13.5137H1V14.5137H15V13.5137Z" fill="currentColor"/>
<path d="M15 4.51367H14V3.51367H13V2.51367H15V4.51367Z" fill="currentColor"/>
<path d="M9.5 2.51367H11.5V3.51367H10.5V4.51367H9.5V2.51367Z" fill="currentColor"/>
<path d="M15 7.01372H14V8.01372H15V7.01372Z" fill="currentColor"/>
<path d="M14 6.01372H13V7.01372H14V6.01372Z" fill="currentColor"/>
<path d="M9.5 6.01367H10.5V7.01367H11.5V8.01367H9.5V6.01367Z" fill="currentColor"/>
</svg>
