<svg viewBox="0 0 16 17" fill="none" xmlns="http://www.w3.org/2000/svg">
<rect width="16" height="16" transform="translate(0 0.513672)" fill="white" fill-opacity="0.01" style="mix-blend-mode:multiply"/>
<path d="M11.498 15.5136H4.50195C4.41029 15.5136 4.32038 15.4884 4.24202 15.4409C4.16365 15.3933 4.09983 15.3252 4.05751 15.2439C4.01518 15.1626 3.99596 15.0712 4.00194 14.9798C4.00793 14.8883 4.03889 14.8002 4.09145 14.7251L7.5903 9.72688C7.63639 9.66099 7.6977 9.60719 7.76903 9.57004C7.84035 9.53289 7.91958 9.51349 8 9.51349C8.08041 9.51349 8.15965 9.53289 8.23097 9.57004C8.30229 9.60719 8.3636 9.66099 8.4097 9.72688L11.9085 14.7251C11.9611 14.8002 11.9921 14.8883 11.9981 14.9798C12.004 15.0712 11.9848 15.1626 11.9425 15.2439C11.9002 15.3252 11.8363 15.3933 11.758 15.4409C11.6796 15.4884 11.5897 15.5136 11.498 15.5136Z" fill="currentColor"/>
<path d="M14 12.5137H12V11.5137H14V3.51367H2V11.5137H4V12.5137H2C1.73487 12.5134 1.48068 12.4079 1.2932 12.2205C1.10572 12.033 1.00028 11.7788 1 11.5137V3.51367C1.00028 3.24854 1.10572 2.99435 1.2932 2.80687C1.48068 2.6194 1.73487 2.51395 2 2.51367H14C14.2651 2.51395 14.5193 2.6194 14.7068 2.80687C14.8943 2.99435 14.9997 3.24854 15 3.51367V11.5137C14.9997 11.7788 14.8943 12.033 14.7068 12.2205C14.5193 12.4079 14.2651 12.5134 14 12.5137Z" fill="currentColor"/>
</svg>
