<svg viewBox="0 0 16 17" fill="none" xmlns="http://www.w3.org/2000/svg">
<rect width="16" height="16" transform="translate(0 0.513672)" fill="white" fill-opacity="0.01" style="mix-blend-mode:multiply"/>
<path d="M15 8.01367H11.965C11.8528 7.13384 11.4517 6.31616 10.8246 5.68896C10.1975 5.06177 9.37982 4.66056 8.5 4.54832V1.51367H7.5V4.54832C6.62018 4.66056 5.80254 5.06177 5.17541 5.68896C4.54827 6.31616 4.14715 7.13384 4.035 8.01367H1V9.01367H4.035C4.14715 9.8935 4.54827 10.7112 5.17541 11.3384C5.80254 11.9656 6.62018 12.3668 7.5 12.479V15.5137H8.5V12.479C9.37986 12.3668 10.1976 11.9657 10.8247 11.3385C11.4519 10.7112 11.8531 9.89354 11.9653 9.01367H15V8.01367ZM8 11.5137C7.40666 11.5137 6.82664 11.3377 6.33329 11.0081C5.83994 10.6784 5.45542 10.2099 5.22836 9.66172C5.0013 9.11354 4.94189 8.51034 5.05764 7.9284C5.1734 7.34646 5.45912 6.81191 5.87868 6.39235C6.29824 5.97279 6.83279 5.68707 7.41473 5.57132C7.99667 5.45556 8.59987 5.51497 9.14805 5.74203C9.69623 5.9691 10.1648 6.35361 10.4944 6.84696C10.8241 7.34031 11 7.92033 11 8.51367C10.9991 9.30905 10.6828 10.0716 10.1204 10.634C9.55794 11.1964 8.79538 11.5128 8 11.5137Z" fill="currentColor"/>
</svg>
