<svg viewBox="0 0 16 16" fill="none" xmlns="http://www.w3.org/2000/svg">
<rect width="16" height="16" fill="white" fill-opacity="0.01" style="mix-blend-mode:multiply"/>
<path d="M14 13C13.911 13 13.8264 13.0154 13.7443 13.0371L13.2165 12.5095C13.3923 12.2121 13.5 11.8696 13.5 11.5C13.5 11.1304 13.3923 10.7879 13.2165 10.4905L13.7443 9.9629C13.8264 9.98465 13.911 10 14 10C14.5523 10 15 9.55225 15 9C15 8.44775 14.5523 8 14 8C13.4477 8 13 8.44775 13 9C13 9.08885 13.0154 9.1736 13.0371 9.25585L12.5095 9.78345C12.212 9.60765 11.8697 9.5 11.5 9.5C11.1303 9.5 10.788 9.60765 10.4905 9.78345L9.9629 9.25585C9.98465 9.17355 10 9.08885 10 9C10 8.44775 9.55225 8 9 8C8.44775 8 8 8.44775 8 9C8 9.55225 8.44775 10 9 10C9.089 10 9.1736 9.9846 9.25575 9.9629L9.78345 10.4905C9.60765 10.7879 9.5 11.1304 9.5 11.5C9.5 11.8696 9.60765 12.2121 9.78345 12.5095L9.25575 13.0371C9.1736 13.0153 9.089 13 9 13C8.44775 13 8 13.4477 8 14C8 14.5523 8.44775 15 9 15C9.55225 15 10 14.5523 10 14C10 13.9112 9.9846 13.8264 9.9629 13.7442L10.4905 13.2165C10.788 13.3923 11.1303 13.5 11.5 13.5C11.8697 13.5 12.212 13.3923 12.5095 13.2165L13.0371 13.7442C13.0153 13.8265 13 13.9112 13 14C13 14.5523 13.4477 15 14 15C14.5523 15 15 14.5523 15 14C15 13.4477 14.5523 13 14 13ZM10.5 11.5C10.5 10.9488 10.9486 10.5 11.5 10.5C12.0514 10.5 12.5 10.9488 12.5 11.5C12.5 12.0512 12.0514 12.5 11.5 12.5C10.9486 12.5 10.5 12.0512 10.5 11.5Z" fill="currentColor"/>
<path d="M11 6C11.5523 6 12 5.55228 12 5C12 4.44772 11.5523 4 11 4C10.4477 4 10 4.44772 10 5C10 5.55228 10.4477 6 11 6Z" fill="currentColor"/>
<path d="M10.5 1C8.0187 1 6 3.01855 6 5.5C6 5.8894 6.04945 6.27345 6.1472 6.6455L1 11.7929V15H4.20715L7.70715 11.5L6.3535 10.1465L5.64645 10.8535L6.2928 11.5L5.498 12.2949L4.85455 11.6475L4.1453 12.3526L4.79095 13.002L3.7928 14H1.99995V12.2071L6.85605 7.35115L7.2838 6.9173L7.1847 6.62505C7.06215 6.2642 7 5.8858 7 5.50005C7 3.5701 8.57005 2.00005 10.5 2.00005C12.4299 2.00005 14 3.5701 14 5.50005H15C15 3.0186 12.9813 1 10.5 1Z" fill="currentColor"/>
</svg>
