<svg viewBox="0 0 16 16" fill="none" xmlns="http://www.w3.org/2000/svg">
<rect width="16" height="16" fill="white" fill-opacity="0.01" style="mix-blend-mode:multiply"/>
<path d="M3.54149 5.8357L2.70409 5.2893C2.25099 5.98365 2.00769 6.90455 2.00049 7.95265L3.00049 7.9595C3.00634 7.10355 3.19334 6.36915 3.54149 5.8357Z" fill="currentColor"/>
<path d="M3.04284 8.9082L2.04749 9.0049C2.14184 9.9739 2.37709 10.8418 2.74659 11.5845L3.64184 11.139C3.32679 10.5059 3.12524 9.7551 3.04284 8.9082Z" fill="currentColor"/>
<path d="M4.11914 11.8982L3.33474 12.5183C4.00124 13.3616 4.88334 13.897 5.75454 13.9871L5.85759 12.9924C5.26199 12.9307 4.61204 12.5218 4.11914 11.8982Z" fill="currentColor"/>
<path d="M8.00024 12.5C7.63354 12.5 7.26109 12.6355 6.90089 12.7666C6.81044 12.7993 6.71914 12.8325 6.62744 12.8638L6.94874 13.8108C7.04724 13.7773 7.14554 13.7417 7.24269 13.7063C7.52149 13.605 7.80969 13.5 8.00024 13.5C8.19069 13.5 8.47899 13.605 8.75769 13.706C8.84814 13.739 8.93944 13.7721 9.03099 13.8036L9.35494 12.8574C9.26939 12.8281 9.18404 12.7971 9.09944 12.7663C8.73919 12.6355 8.36684 12.5 8.00024 12.5Z" fill="currentColor"/>
<path d="M10.1275 12.9939L10.2203 13.9897C11.0931 13.9082 11.9792 13.3784 12.6513 12.5361L11.8697 11.9123C11.3735 12.5342 10.7223 12.9385 10.1275 12.9939Z" fill="currentColor"/>
<path d="M12.3504 11.1558L13.244 11.6045C13.6164 10.8628 13.8542 9.9956 13.9509 9.0266L12.9558 8.92725C12.8713 9.77415 12.6677 10.524 12.3504 11.1558Z" fill="currentColor"/>
<path d="M14.0002 7.9746C13.9964 6.9277 13.7575 6.00635 13.3093 5.30905L12.4683 5.85005C12.8131 6.38645 12.9971 7.12225 13.0003 7.978L14.0002 7.9746Z" fill="currentColor"/>
<path d="M10.0002 2H9.50024C8.94794 2 8.50024 2.4477 8.50024 3V3.5H9.00024C9.55254 3.5 10.0002 3.0523 10.0002 2.5V2Z" fill="currentColor"/>
<path d="M11.9065 5.2654L12.4582 4.4314C12.0255 4.145 11.5349 4 11.0002 4C10.2925 4 9.79149 4.14405 9.34959 4.271C9.06139 4.35375 8.78149 4.43115 8.45064 4.4712C8.19964 3.06885 6.97359 2 5.50019 2V3C6.41134 3 7.17339 3.61595 7.41389 4.4507C7.14179 4.4075 6.89839 4.34205 6.65084 4.271C6.20894 4.14405 5.70799 4 5.00019 4C4.46554 4 3.97494 4.145 3.54219 4.4314L4.09394 5.2654C4.36019 5.08935 4.66509 5 5.00019 5C5.56719 5 5.95944 5.1128 6.37459 5.23195C6.83309 5.3638 7.30719 5.5 8.00019 5.5C8.69319 5.5 9.16729 5.36375 9.62579 5.23195C10.0409 5.1128 10.4331 5 11.0002 5C11.3353 5 11.6402 5.08935 11.9065 5.2654Z" fill="currentColor"/>
</svg>
