<svg viewBox="0 0 16 16" fill="none" xmlns="http://www.w3.org/2000/svg">
<rect width="16" height="16" fill="white" fill-opacity="0.01" style="mix-blend-mode:multiply"/>
<path d="M12.0001 4.50005H11.0001L8.00013 8.7857L5.00013 4.50005H4.00013L7.50013 9.50005L4.00013 14.5H5.00013L8.00013 10.2144L11.0001 14.5H12.0001L8.50013 9.50005L12.0001 4.50005Z" fill="currentColor"/>
<path d="M10.0001 3.50005C9.11158 3.50005 8.38443 3.06375 7.74293 2.6788C7.16113 2.32975 6.61158 2.00005 6.00013 2.00005C5.30128 2.00005 4.77563 2.4315 4.35378 2.85355L3.64648 2.1465C4.18018 1.61275 4.92993 1 6.00013 1C6.88868 1 7.61583 1.4363 8.25733 1.82125C8.83913 2.1703 9.38868 2.5 10.0001 2.5C10.6989 2.5 11.2245 2.06855 11.6466 1.6464L12.3537 2.35355C11.82 2.8873 11.0701 3.50005 10.0001 3.50005Z" fill="currentColor"/>
</svg>
