<svg viewBox="0 0 16 17" fill="none" xmlns="http://www.w3.org/2000/svg">
<rect width="16" height="16" transform="translate(0 0.513672)" fill="white" fill-opacity="0.01" style="mix-blend-mode:multiply"/>
<path d="M7.49013 2.01367C7.46086 2.01372 7.43165 2.01633 7.40283 2.02147C5.81071 2.30427 4.37954 3.16618 3.38498 4.4412C2.39042 5.71622 1.90282 7.31415 2.0161 8.92722C2.12938 10.5403 2.83552 12.0544 3.99852 13.1779C5.16152 14.3014 6.69911 14.9548 8.31513 15.0123C8.39718 15.0153 8.47923 15.0123 8.56058 15.0123C9.60999 15.0129 10.6441 14.7607 11.5755 14.2772C12.5069 13.7937 13.3082 13.0931 13.9116 12.2345C13.9605 12.1605 13.9891 12.075 13.9944 11.9864C13.9997 11.8979 13.9816 11.8095 13.9419 11.7302C13.9022 11.6509 13.8423 11.5835 13.7682 11.5347C13.6941 11.4859 13.6085 11.4575 13.5199 11.4523C12.521 11.3647 11.5556 11.0485 10.6984 10.5283C9.84118 10.0081 9.11506 9.29767 8.57617 8.45204C8.03728 7.60641 7.70006 6.64819 7.59057 5.65144C7.48108 4.65469 7.60226 3.64612 7.94473 2.70367C7.97387 2.62827 7.98457 2.547 7.97594 2.46662C7.96731 2.38625 7.93961 2.3091 7.89514 2.24159C7.85066 2.17409 7.79071 2.11819 7.72026 2.07854C7.64981 2.0389 7.57091 2.01666 7.49013 2.01367V2.01367Z" fill="currentColor"/>
</svg>
