<svg viewBox="0 0 16 17" fill="none" xmlns="http://www.w3.org/2000/svg">
<rect width="16" height="16" transform="translate(0 0.513672)" fill="white" fill-opacity="0.01" style="mix-blend-mode:multiply"/>
<path d="M12.5002 5.01348C13.0525 5.01348 13.5002 4.56576 13.5002 4.01348C13.5002 3.46119 13.0525 3.01348 12.5002 3.01348C11.9479 3.01348 11.5002 3.46119 11.5002 4.01348C11.5002 4.56576 11.9479 5.01348 12.5002 5.01348Z" fill="currentColor"/>
<path d="M6.00022 12.0135C5.70355 12.0135 5.41354 11.9255 5.16686 11.7607C4.92019 11.5959 4.72793 11.3616 4.6144 11.0875C4.50087 10.8134 4.47116 10.5118 4.52904 10.2208C4.58692 9.92987 4.72978 9.6626 4.93956 9.45282C5.14934 9.24304 5.41661 9.10018 5.70758 9.0423C5.99855 8.98442 6.30015 9.01413 6.57424 9.12766C6.84833 9.24119 7.0826 9.43345 7.24742 9.68012C7.41224 9.9268 7.50022 10.2168 7.50022 10.5135C7.49978 10.9112 7.34161 11.2924 7.0604 11.5737C6.77919 11.8549 6.39791 12.013 6.00022 12.0135ZM6.00022 10.0135C5.90133 10.0135 5.80466 10.0428 5.72243 10.0977C5.64021 10.1527 5.57612 10.2308 5.53828 10.3221C5.50043 10.4135 5.49053 10.514 5.50983 10.611C5.52912 10.708 5.57674 10.7971 5.64666 10.867C5.71659 10.937 5.80568 10.9846 5.90267 11.0039C5.99966 11.0232 6.1002 11.0133 6.19156 10.9754C6.28292 10.9376 6.36101 10.8735 6.41595 10.7913C6.47089 10.709 6.50022 10.6124 6.50022 10.5135C6.50009 10.3809 6.44736 10.2538 6.35363 10.1601C6.25989 10.0663 6.13279 10.0136 6.00022 10.0135Z" fill="currentColor"/>
<path d="M6.00022 8.01348C6.27636 8.01348 6.50022 7.78962 6.50022 7.51348C6.50022 7.23734 6.27636 7.01348 6.00022 7.01348C5.72408 7.01348 5.50022 7.23734 5.50022 7.51348C5.50022 7.78962 5.72408 8.01348 6.00022 8.01348Z" fill="currentColor"/>
<path d="M8.95461 3.86578C9.23076 3.86578 9.45461 3.64193 9.45461 3.36578C9.45461 3.08964 9.23076 2.86578 8.95461 2.86578C8.67847 2.86578 8.45461 3.08964 8.45461 3.36578C8.45461 3.64193 8.67847 3.86578 8.95461 3.86578Z" fill="currentColor"/>
<path d="M4.89397 5.96691C5.17011 5.96691 5.39397 5.74305 5.39397 5.46691C5.39397 5.19077 5.17011 4.96691 4.89397 4.96691C4.61782 4.96691 4.39397 5.19077 4.39397 5.46691C4.39397 5.74305 4.61782 5.96691 4.89397 5.96691Z" fill="currentColor"/>
<path d="M6.24757 5.26665C6.52372 5.26665 6.74757 5.04279 6.74757 4.76665C6.74757 4.49051 6.52372 4.26665 6.24757 4.26665C5.97143 4.26665 5.74757 4.49051 5.74757 4.76665C5.74757 5.04279 5.97143 5.26665 6.24757 5.26665Z" fill="currentColor"/>
<path d="M7.60093 4.56609C7.87707 4.56609 8.10093 4.34223 8.10093 4.06609C8.10093 3.78995 7.87707 3.56609 7.60093 3.56609C7.32478 3.56609 7.10093 3.78995 7.10093 4.06609C7.10093 4.34223 7.32478 4.56609 7.60093 4.56609Z" fill="currentColor"/>
<path d="M2.34832 7.60707C2.62446 7.60707 2.84832 7.38322 2.84832 7.10707C2.84832 6.83093 2.62446 6.60707 2.34832 6.60707C2.07218 6.60707 1.84832 6.83093 1.84832 7.10707C1.84832 7.38322 2.07218 7.60707 2.34832 7.60707Z" fill="currentColor"/>
<path d="M1.06657 11.829C1.34272 11.829 1.56657 11.6052 1.56657 11.329C1.56657 11.0529 1.34272 10.829 1.06657 10.829C0.790432 10.829 0.566574 11.0529 0.566574 11.329C0.566574 11.6052 0.790432 11.829 1.06657 11.829Z" fill="currentColor"/>
<path d="M1.53957 13.2713C1.81571 13.2713 2.03957 13.0475 2.03957 12.7713C2.03957 12.4952 1.81571 12.2713 1.53957 12.2713C1.26342 12.2713 1.03957 12.4952 1.03957 12.7713C1.03957 13.0475 1.26342 13.2713 1.53957 13.2713Z" fill="currentColor"/>
<path d="M2.42446 14.5047C2.70061 14.5047 2.92446 14.2808 2.92446 14.0047C2.92446 13.7285 2.70061 13.5047 2.42446 13.5047C2.14832 13.5047 1.92446 13.7285 1.92446 14.0047C1.92446 14.2808 2.14832 14.5047 2.42446 14.5047Z" fill="currentColor"/>
<path d="M3.63633 15.4185C3.91247 15.4185 4.13633 15.1946 4.13633 14.9185C4.13633 14.6423 3.91247 14.4185 3.63633 14.4185C3.36018 14.4185 3.13633 14.6423 3.13633 14.9185C3.13633 15.1946 3.36018 15.4185 3.63633 15.4185Z" fill="currentColor"/>
<path d="M1.04932 10.3116C1.32546 10.3116 1.54932 10.0877 1.54932 9.81158C1.54932 9.53544 1.32546 9.31158 1.04932 9.31158C0.773174 9.31158 0.549316 9.53544 0.549316 9.81158C0.549316 10.0877 0.773174 10.3116 1.04932 10.3116Z" fill="currentColor"/>
<path d="M1.48992 8.85902C1.76606 8.85902 1.98992 8.63516 1.98992 8.35902C1.98992 8.08288 1.76606 7.85902 1.48992 7.85902C1.21378 7.85902 0.989919 8.08288 0.989919 8.35902C0.989919 8.63516 1.21378 8.85902 1.48992 8.85902Z" fill="currentColor"/>
<path d="M3.54072 6.66753C3.81686 6.66753 4.04072 6.44367 4.04072 6.16753C4.04072 5.89138 3.81686 5.66753 3.54072 5.66753C3.26458 5.66753 3.04072 5.89138 3.04072 6.16753C3.04072 6.44367 3.26458 6.66753 3.54072 6.66753Z" fill="currentColor"/>
<path d="M10.3083 3.16542C10.5845 3.16542 10.8083 2.94157 10.8083 2.66542C10.8083 2.38928 10.5845 2.16542 10.3083 2.16542C10.0322 2.16542 9.80831 2.38928 9.80831 2.66542C9.80831 2.94157 10.0322 3.16542 10.3083 3.16542Z" fill="currentColor"/>
<path d="M11.6618 2.46476C11.938 2.46476 12.1618 2.2409 12.1618 1.96476C12.1618 1.68862 11.938 1.46476 11.6618 1.46476C11.3857 1.46476 11.1618 1.68862 11.1618 1.96476C11.1618 2.2409 11.3857 2.46476 11.6618 2.46476Z" fill="currentColor"/>
<path d="M14.4943 5.45845C14.7705 5.45845 14.9943 5.2346 14.9943 4.95845C14.9943 4.68231 14.7705 4.45845 14.4943 4.45845C14.2182 4.45845 13.9943 4.68231 13.9943 4.95845C13.9943 5.2346 14.2182 5.45845 14.4943 5.45845Z" fill="currentColor"/>
<path d="M13.7936 6.81168C14.0698 6.81168 14.2936 6.58783 14.2936 6.31168C14.2936 6.03554 14.0698 5.81168 13.7936 5.81168C13.5175 5.81168 13.2936 6.03554 13.2936 6.31168C13.2936 6.58783 13.5175 6.81168 13.7936 6.81168Z" fill="currentColor"/>
<path d="M13.093 8.16497C13.3692 8.16497 13.593 7.94111 13.593 7.66497C13.593 7.38882 13.3692 7.16497 13.093 7.16497C12.8169 7.16497 12.593 7.38882 12.593 7.66497C12.593 7.94111 12.8169 8.16497 13.093 8.16497Z" fill="currentColor"/>
<path d="M12.3923 9.51845C12.6685 9.51845 12.8923 9.29459 12.8923 9.01845C12.8923 8.74231 12.6685 8.51845 12.3923 8.51845C12.1162 8.51845 11.8923 8.74231 11.8923 9.01845C11.8923 9.29459 12.1162 9.51845 12.3923 9.51845Z" fill="currentColor"/>
<path d="M11.6917 10.8717C11.9679 10.8717 12.1917 10.6478 12.1917 10.3717C12.1917 10.0955 11.9679 9.87168 11.6917 9.87168C11.4156 9.87168 11.1917 10.0955 11.1917 10.3717C11.1917 10.6478 11.4156 10.8717 11.6917 10.8717Z" fill="currentColor"/>
<path d="M10.9912 12.2255C11.2674 12.2255 11.4912 12.0016 11.4912 11.7255C11.4912 11.4493 11.2674 11.2255 10.9912 11.2255C10.7151 11.2255 10.4912 11.4493 10.4912 11.7255C10.4912 12.0016 10.7151 12.2255 10.9912 12.2255Z" fill="currentColor"/>
<path d="M9.31847 14.7456C9.59461 14.7456 9.81847 14.5217 9.81847 14.2456C9.81847 13.9695 9.59461 13.7456 9.31847 13.7456C9.04232 13.7456 8.81847 13.9695 8.81847 14.2456C8.81847 14.5217 9.04232 14.7456 9.31847 14.7456Z" fill="currentColor"/>
<path d="M8.04618 15.5742C8.32232 15.5742 8.54618 15.3503 8.54618 15.0742C8.54618 14.798 8.32232 14.5742 8.04618 14.5742C7.77003 14.5742 7.54618 14.798 7.54618 15.0742C7.54618 15.3503 7.77003 15.5742 8.04618 15.5742Z" fill="currentColor"/>
<path d="M6.58327 15.9796C6.85941 15.9796 7.08327 15.7558 7.08327 15.4796C7.08327 15.2035 6.85941 14.9796 6.58327 14.9796C6.30712 14.9796 6.08327 15.2035 6.08327 15.4796C6.08327 15.7558 6.30712 15.9796 6.58327 15.9796Z" fill="currentColor"/>
<path d="M5.06657 15.926C5.34272 15.926 5.56657 15.7022 5.56657 15.426C5.56657 15.1499 5.34272 14.926 5.06657 14.926C4.79043 14.926 4.56657 15.1499 4.56657 15.426C4.56657 15.7022 4.79043 15.926 5.06657 15.926Z" fill="currentColor"/>
<path d="M10.286 13.576C10.5621 13.576 10.786 13.3521 10.786 13.076C10.786 12.7998 10.5621 12.576 10.286 12.576C10.0098 12.576 9.78597 12.7998 9.78597 13.076C9.78597 13.3521 10.0098 13.576 10.286 13.576Z" fill="currentColor"/>
<path d="M14.4466 2.63346C14.7227 2.63346 14.9466 2.4096 14.9466 2.13346C14.9466 1.85732 14.7227 1.63346 14.4466 1.63346C14.1704 1.63346 13.9466 1.85732 13.9466 2.13346C13.9466 2.4096 14.1704 2.63346 14.4466 2.63346Z" fill="currentColor"/>
<path d="M13.0943 2.01562C13.3705 2.01562 13.5943 1.79177 13.5943 1.51563C13.5943 1.23948 13.3705 1.01562 13.0943 1.01562C12.8182 1.01562 12.5943 1.23948 12.5943 1.51563C12.5943 1.79177 12.8182 2.01562 13.0943 2.01562Z" fill="currentColor"/>
<path d="M6.00022 14.0135C6.27636 14.0135 6.50022 13.7896 6.50022 13.5135C6.50022 13.2373 6.27636 13.0135 6.00022 13.0135C5.72408 13.0135 5.50022 13.2373 5.50022 13.5135C5.50022 13.7896 5.72408 14.0135 6.00022 14.0135Z" fill="currentColor"/>
<path d="M3.00022 11.0135C3.27636 11.0135 3.50022 10.7896 3.50022 10.5135C3.50022 10.2373 3.27636 10.0135 3.00022 10.0135C2.72408 10.0135 2.50022 10.2373 2.50022 10.5135C2.50022 10.7896 2.72408 11.0135 3.00022 11.0135Z" fill="currentColor"/>
<path d="M9.00022 11.0135C9.27636 11.0135 9.50022 10.7896 9.50022 10.5135C9.50022 10.2373 9.27636 10.0135 9.00022 10.0135C8.72408 10.0135 8.50022 10.2373 8.50022 10.5135C8.50022 10.7896 8.72408 11.0135 9.00022 11.0135Z" fill="currentColor"/>
<path d="M3.40212 9.51348C3.67826 9.51348 3.90212 9.28962 3.90212 9.01348C3.90212 8.73734 3.67826 8.51348 3.40212 8.51348C3.12598 8.51348 2.90212 8.73734 2.90212 9.01348C2.90212 9.28962 3.12598 9.51348 3.40212 9.51348Z" fill="currentColor"/>
<path d="M8.59832 12.5135C8.87446 12.5135 9.09832 12.2896 9.09832 12.0135C9.09832 11.7373 8.87446 11.5135 8.59832 11.5135C8.32218 11.5135 8.09832 11.7373 8.09832 12.0135C8.09832 12.2896 8.32218 12.5135 8.59832 12.5135Z" fill="currentColor"/>
<path d="M4.50022 13.6115C4.77636 13.6115 5.00022 13.3877 5.00022 13.1115C5.00022 12.8354 4.77636 12.6115 4.50022 12.6115C4.22408 12.6115 4.00022 12.8354 4.00022 13.1115C4.00022 13.3877 4.22408 13.6115 4.50022 13.6115Z" fill="currentColor"/>
<path d="M7.50022 8.41542C7.77636 8.41542 8.00022 8.19156 8.00022 7.91542C8.00022 7.63928 7.77636 7.41542 7.50022 7.41542C7.22408 7.41542 7.00022 7.63928 7.00022 7.91542C7.00022 8.19156 7.22408 8.41542 7.50022 8.41542Z" fill="currentColor"/>
<path d="M4.50022 8.41542C4.77636 8.41542 5.00022 8.19156 5.00022 7.91542C5.00022 7.63928 4.77636 7.41542 4.50022 7.41542C4.22408 7.41542 4.00022 7.63928 4.00022 7.91542C4.00022 8.19156 4.22408 8.41542 4.50022 8.41542Z" fill="currentColor"/>
<path d="M7.50022 13.6115C7.77636 13.6115 8.00022 13.3877 8.00022 13.1115C8.00022 12.8354 7.77636 12.6115 7.50022 12.6115C7.22408 12.6115 7.00022 12.8354 7.00022 13.1115C7.00022 13.3877 7.22408 13.6115 7.50022 13.6115Z" fill="currentColor"/>
<path d="M3.40212 12.5135C3.67826 12.5135 3.90212 12.2896 3.90212 12.0135C3.90212 11.7373 3.67826 11.5135 3.40212 11.5135C3.12598 11.5135 2.90212 11.7373 2.90212 12.0135C2.90212 12.2896 3.12598 12.5135 3.40212 12.5135Z" fill="currentColor"/>
<path d="M8.59832 9.51348C8.87446 9.51348 9.09832 9.28962 9.09832 9.01348C9.09832 8.73734 8.87446 8.51348 8.59832 8.51348C8.32218 8.51348 8.09832 8.73734 8.09832 9.01348C8.09832 9.28962 8.32218 9.51348 8.59832 9.51348Z" fill="currentColor"/>
<path d="M15.0003 4.02638C15.2765 4.02638 15.5003 3.80253 15.5003 3.52638C15.5003 3.25024 15.2765 3.02638 15.0003 3.02638C14.7242 3.02638 14.5003 3.25024 14.5003 3.52638C14.5003 3.80253 14.7242 4.02638 15.0003 4.02638Z" fill="currentColor"/>
</svg>
