<svg viewBox="0 0 16 17" fill="none" xmlns="http://www.w3.org/2000/svg">
<rect width="16" height="16" transform="translate(0 0.513672)" fill="white" fill-opacity="0.01" style="mix-blend-mode:multiply"/>
<path d="M10.5002 14.1038L9.20523 12.8088L8.50023 13.5138L10.5002 15.5138L14.0002 12.0138L13.2952 11.3088L10.5002 14.1038Z" fill="currentColor"/>
<path d="M6.00023 12.5138C5.60466 12.5138 5.21798 12.3965 4.88909 12.1767C4.56019 11.9569 4.30384 11.6446 4.15247 11.2791C4.00109 10.9137 3.96149 10.5115 4.03866 10.1236C4.11583 9.73562 4.30631 9.37926 4.58601 9.09955C4.86572 8.81985 5.22208 8.62937 5.61005 8.55219C5.99801 8.47502 6.40014 8.51463 6.76559 8.66601C7.13105 8.81738 7.4434 9.07373 7.66317 9.40263C7.88293 9.73152 8.00023 10.1182 8.00023 10.5138C7.99967 11.044 7.78878 11.5524 7.41383 11.9274C7.03887 12.3023 6.53049 12.5132 6.00023 12.5138ZM6.00023 9.51377C5.80245 9.51377 5.60911 9.57241 5.44466 9.6823C5.28021 9.79218 5.15203 9.94836 5.07635 10.1311C5.00066 10.3138 4.98086 10.5149 5.01944 10.7089C5.05803 10.9028 5.15327 11.081 5.29312 11.2209C5.43297 11.3607 5.61116 11.456 5.80514 11.4946C5.99912 11.5331 6.20018 11.5133 6.38291 11.4376C6.56564 11.362 6.72182 11.2338 6.8317 11.0693C6.94158 10.9049 7.00023 10.7115 7.00023 10.5138C6.99992 10.2486 6.89447 9.99446 6.707 9.80699C6.51953 9.61952 6.26535 9.51407 6.00023 9.51377Z" fill="currentColor"/>
<path d="M13.0002 1.51372C12.6766 1.51491 12.3586 1.59744 12.0752 1.75372L3.88022 5.99372C2.85028 6.47518 2.0154 7.29359 1.51352 8.31374C1.01164 9.33389 0.872796 10.4947 1.11992 11.6045C1.36705 12.7142 1.98536 13.7064 2.8727 14.4172C3.76003 15.128 4.8633 15.5148 6.00022 15.5137C6.33636 15.5148 6.67164 15.4796 7.00022 15.4087V14.3887C6.67327 14.4712 6.33742 14.5132 6.00022 14.5137C5.2091 14.5137 4.43574 14.2791 3.77794 13.8396C3.12014 13.4001 2.60745 12.7754 2.3047 12.0445C2.00195 11.3135 1.92274 10.5093 2.07708 9.73336C2.23142 8.95743 2.61238 8.2447 3.17179 7.68529C3.7312 7.12588 4.44394 6.74492 5.21986 6.59058C5.99578 6.43624 6.80005 6.51545 7.53095 6.8182C8.26186 7.12095 8.88657 7.63364 9.3261 8.29144C9.76563 8.94923 10.0002 9.72259 10.0002 10.5137C10.0003 10.6808 9.99032 10.8478 9.97022 11.0137H11.3602L14.7802 4.40872C14.9365 4.10489 15.0118 3.76587 14.9988 3.42444C14.9858 3.08301 14.885 2.7507 14.706 2.45963C14.527 2.16857 14.276 1.92859 13.9772 1.76289C13.6784 1.59719 13.3419 1.51136 13.0002 1.51372ZM10.9302 9.68372C10.7548 8.65906 10.2648 7.71438 9.52841 6.98064C8.79198 6.24689 7.84551 5.76044 6.82022 5.58872L11.0102 3.41872C11.0102 3.44872 11.0002 3.47872 11.0002 3.51372C11.0001 3.77638 11.0518 4.03649 11.1523 4.27917C11.2528 4.52186 11.4001 4.74236 11.5858 4.92809C11.7716 5.11383 11.9921 5.26114 12.2348 5.36163C12.4775 5.46211 12.7376 5.51379 13.0002 5.51372C13.0302 5.51372 13.0602 5.50372 13.0952 5.50372L10.9302 9.68372ZM13.0002 4.51372C12.8024 4.51372 12.6091 4.45507 12.4447 4.34519C12.2802 4.23531 12.152 4.07913 12.0763 3.8964C12.0007 3.71368 11.9809 3.51261 12.0194 3.31863C12.058 3.12465 12.1533 2.94646 12.2931 2.80661C12.433 2.66676 12.6111 2.57152 12.8051 2.53293C12.9991 2.49435 13.2002 2.51415 13.3829 2.58984C13.5656 2.66553 13.7218 2.7937 13.8317 2.95815C13.9416 3.1226 14.0002 3.31594 14.0002 3.51372C13.9995 3.7787 13.8939 4.03261 13.7065 4.21998C13.5191 4.40735 13.2652 4.51295 13.0002 4.51372Z" fill="currentColor"/>
</svg>
