<svg viewBox="0 0 16 17" fill="none" xmlns="http://www.w3.org/2000/svg">
<rect width="16" height="16" transform="translate(0 0.513672)" fill="white" fill-opacity="0.01" style="mix-blend-mode:multiply"/>
<path d="M6.0374 12.5137C5.64183 12.5137 5.25515 12.3964 4.92626 12.1766C4.59736 11.9568 4.34101 11.6445 4.18964 11.279C4.03826 10.9136 3.99866 10.5115 4.07583 10.1235C4.153 9.73553 4.34348 9.37916 4.62318 9.09946C4.90289 8.81975 5.25925 8.62927 5.64722 8.5521C6.03518 8.47493 6.43731 8.51454 6.80276 8.66591C7.16822 8.81729 7.48057 9.07363 7.70034 9.40253C7.9201 9.73143 8.0374 10.1181 8.0374 10.5137C8.03684 11.0439 7.82595 11.5523 7.451 11.9273C7.07604 12.3022 6.56766 12.5131 6.0374 12.5137ZM6.0374 9.51367C5.83962 9.51367 5.64628 9.57232 5.48183 9.6822C5.31738 9.79208 5.1892 9.94826 5.11352 10.131C5.03783 10.3137 5.01803 10.5148 5.05661 10.7088C5.0952 10.9027 5.19044 11.0809 5.33029 11.2208C5.47014 11.3606 5.64833 11.4559 5.84231 11.4945C6.03629 11.533 6.23735 11.5132 6.42008 11.4376C6.60281 11.3619 6.75898 11.2337 6.86887 11.0692C6.97875 10.9048 7.0374 10.7115 7.0374 10.5137C7.03709 10.2485 6.93164 9.99437 6.74417 9.8069C6.5567 9.61943 6.30252 9.51398 6.0374 9.51367Z" fill="currentColor"/>
<path d="M14.9998 3.51367C14.9992 2.98341 14.7883 2.47502 14.4134 2.10007C14.0384 1.72512 13.5301 1.51423 12.9998 1.51367C12.676 1.51593 12.3577 1.5978 12.0729 1.75207L3.87835 5.99262C3.15037 6.33332 2.51533 6.84462 2.02714 7.48313C1.53895 8.12165 1.21202 8.86852 1.0741 9.66036C0.936183 10.4522 0.991345 11.2656 1.23491 12.0316C1.47847 12.7976 1.90324 13.4934 2.47316 14.0602C3.04308 14.627 3.74133 15.0479 4.50865 15.2871C5.27596 15.5264 6.08968 15.5771 6.88073 15.4347C7.67179 15.2924 8.41683 14.9613 9.05262 14.4696C9.6884 13.9779 10.1962 13.34 10.5328 12.6101L14.7778 4.41042C14.9217 4.13327 14.9977 3.82594 14.9998 3.51367ZM12.9998 2.51367C13.1976 2.51367 13.3909 2.57232 13.5554 2.6822C13.7198 2.79208 13.848 2.94826 13.9237 3.13099C13.9994 3.31371 14.0192 3.51478 13.9806 3.70876C13.942 3.90274 13.8468 4.08093 13.7069 4.22078C13.567 4.36063 13.3889 4.45587 13.1949 4.49446C13.0009 4.53304 12.7998 4.51324 12.6171 4.43755C12.4344 4.36186 12.2782 4.23369 12.1683 4.06924C12.0584 3.90479 11.9998 3.71145 11.9998 3.51367C12.0001 3.24855 12.1056 2.99437 12.293 2.8069C12.4805 2.61943 12.7347 2.51398 12.9998 2.51367ZM11.0095 3.41782C11.0079 3.45027 10.9998 3.48082 10.9998 3.51367C11.0004 4.04393 11.2112 4.55232 11.5862 4.92727C11.9611 5.30222 12.4695 5.51312 12.9998 5.51367C13.032 5.51367 13.062 5.50567 13.0939 5.50417L10.928 9.68502C10.7534 8.66004 10.2641 7.71481 9.52798 6.98048C8.79188 6.24614 7.84549 5.7591 6.8201 5.58692L11.0095 3.41782ZM5.9998 14.5137C5.20867 14.5137 4.43531 14.2791 3.77752 13.8396C3.11972 13.4 2.60703 12.7753 2.30428 12.0444C2.00153 11.3135 1.92231 10.5092 2.07666 9.73331C2.231 8.95739 2.61196 8.24465 3.17137 7.68524C3.73078 7.12583 4.44351 6.74487 5.21943 6.59053C5.99536 6.43619 6.79962 6.5154 7.53053 6.81815C8.26143 7.1209 8.88615 7.63359 9.32567 8.29139C9.7652 8.94919 9.9998 9.72255 9.9998 10.5137C9.99858 11.5742 9.57676 12.5909 8.82688 13.3408C8.077 14.0906 7.06029 14.5125 5.9998 14.5137Z" fill="currentColor"/>
</svg>
