<svg viewBox="0 0 16 17" fill="none" xmlns="http://www.w3.org/2000/svg">
<rect width="16" height="16" transform="translate(0 0.513672)" fill="white" fill-opacity="0.01" style="mix-blend-mode:multiply"/>
<path d="M8.00012 2.01329C7.14505 2.00798 6.29743 2.17249 5.50641 2.49726C4.7154 2.82203 3.99673 3.30062 3.39209 3.90526C2.78745 4.5099 2.30886 5.22857 1.98409 6.01958C1.65931 6.8106 1.49481 7.65822 1.50012 8.51329V9.01329C1.50012 10.7372 2.18494 12.3905 3.40393 13.6095C4.62292 14.8285 6.27622 15.5133 8.00012 15.5133H11.5001V14.5133H8.00012C6.54143 14.5133 5.14249 13.9338 4.11104 12.9024C3.07959 11.8709 2.50012 10.472 2.50012 9.01329V8.51329C2.49615 7.78991 2.63569 7.07293 2.91068 6.40384C3.18568 5.73475 3.59065 5.12685 4.10217 4.61534C4.61368 4.10382 5.22158 3.69885 5.89067 3.42385C6.55976 3.14886 7.27674 3.00932 8.00012 3.01329C8.72917 2.98818 9.45558 3.11327 10.1342 3.38078C10.8129 3.64829 11.4293 4.05252 11.9451 4.56833C12.4609 5.08415 12.8651 5.70053 13.1326 6.37919C13.4002 7.05784 13.5252 7.78425 13.5001 8.51329C13.5001 10.3083 12.8001 11.0133 11.6701 11.0133C10.8801 11.0133 10.5001 10.3683 10.5001 9.51329V5.51329H9.50012V6.48329C9.32578 6.17637 9.0702 5.92344 8.76147 5.75232C8.45273 5.58119 8.1028 5.49849 7.75012 5.51329C7.02515 5.51063 6.32867 5.79539 5.81323 6.30521C5.29779 6.81502 5.00541 7.50834 5.00012 8.23329V9.29329C5.00541 10.0183 5.29779 10.7116 5.81323 11.2214C6.32867 11.7312 7.02515 12.016 7.75012 12.0133C8.16709 12.0255 8.57855 11.9156 8.93387 11.6971C9.2892 11.4785 9.57292 11.1609 9.75012 10.7833C9.92761 11.1512 10.2051 11.4617 10.5509 11.6792C10.8966 11.8968 11.2966 12.0125 11.7051 12.0133C13.2401 12.0133 14.5001 11.0133 14.5001 8.51329C14.5192 7.65447 14.3642 6.80067 14.0443 6.00341C13.7244 5.20615 13.2463 4.48195 12.6389 3.87452C12.0315 3.26709 11.3073 2.789 10.51 2.46912C9.71275 2.14923 8.85895 1.99417 8.00012 2.01329V2.01329ZM9.50012 9.29329C9.50012 9.75742 9.31575 10.2025 8.98756 10.5307C8.65937 10.8589 8.21425 11.0433 7.75012 11.0433C7.286 11.0433 6.84088 10.8589 6.51269 10.5307C6.1845 10.2025 6.00012 9.75742 6.00012 9.29329V8.23329C6.00012 7.76917 6.1845 7.32405 6.51269 6.99586C6.84088 6.66767 7.286 6.48329 7.75012 6.48329C8.21425 6.48329 8.65937 6.66767 8.98756 6.99586C9.31575 7.32405 9.50012 7.76917 9.50012 8.23329V9.29329Z" fill="currentColor"/>
</svg>
