<svg viewBox="0 0 16 17" fill="none" xmlns="http://www.w3.org/2000/svg">
<rect width="16" height="16" transform="translate(0 0.513672)" fill="white" fill-opacity="0.01" style="mix-blend-mode:multiply"/>
<path d="M14 7.5166H13.5V1.5166H12.5V7.5166H12C11.7349 7.51685 11.4807 7.62229 11.2932 7.80977C11.1057 7.99725 11.0003 8.25146 11 8.5166V9.5166C11.0003 9.78172 11.1058 10.0359 11.2932 10.2234C11.4807 10.4108 11.7349 10.5163 12 10.5166H12.5V15.5166H13.5V10.5166H14C14.2651 10.5162 14.5193 10.4108 14.7067 10.2233C14.8942 10.0359 14.9996 9.78171 15 9.5166V8.5166C14.9997 8.25148 14.8942 7.9973 14.7068 7.80983C14.5193 7.62236 14.2651 7.51691 14 7.5166ZM14 9.5166H12V8.5166H14V9.5166Z" fill="currentColor"/>
<path d="M9 3.5166H8.5V1.5166H7.5V3.5166H7C6.73486 3.51685 6.48065 3.62229 6.29317 3.80977C6.10569 3.99725 6.00025 4.25146 6 4.5166V5.5166C6.00025 5.78174 6.10569 6.03595 6.29317 6.22343C6.48065 6.41091 6.73486 6.51635 7 6.5166H7.5V15.5166H8.5V6.5166H9C9.26514 6.51634 9.51934 6.41089 9.70681 6.22342C9.89429 6.03594 9.99974 5.78174 10 5.5166V4.5166C9.99974 4.25147 9.89429 3.99727 9.70681 3.80979C9.51934 3.62231 9.26514 3.51687 9 3.5166ZM9 5.5166H7V4.5166H9V5.5166Z" fill="currentColor"/>
<path d="M4 10.5166H3.5V1.5166H2.5V10.5166H2C1.73488 10.5169 1.4807 10.6224 1.29323 10.8098C1.10576 10.9973 1.0003 11.2515 1 11.5166V12.5166C1.0003 12.7817 1.10576 13.0359 1.29323 13.2234C1.4807 13.4108 1.73488 13.5163 2 13.5166H2.5V15.5166H3.5V13.5166H4C4.26512 13.5163 4.5193 13.4108 4.70677 13.2234C4.89424 13.0359 4.9997 12.7817 5 12.5166V11.5166C4.9997 11.2515 4.89424 10.9973 4.70677 10.8098C4.5193 10.6224 4.26512 10.5169 4 10.5166ZM4 12.5166H2V11.5166H4V12.5166Z" fill="currentColor"/>
</svg>
