<svg viewBox="0 0 16 17" fill="none" xmlns="http://www.w3.org/2000/svg">
<rect width="16" height="16" transform="translate(0 0.513672)" fill="white" fill-opacity="0.01" style="mix-blend-mode:multiply"/>
<path d="M13.7236 5.06642L10.7236 3.56642C10.6542 3.53172 10.5776 3.51366 10.5 3.51366C10.4224 3.51366 10.3458 3.53172 10.2764 3.56642L7.27635 5.06642C7.1933 5.10796 7.12346 5.1718 7.07465 5.25079C7.02584 5.32979 6.99999 5.42081 7 5.51367V9.01367C6.99999 9.10653 7.02584 9.19756 7.07465 9.27655C7.12346 9.35555 7.1933 9.41939 7.27635 9.46092L10.2764 10.9609C10.3458 10.9956 10.4224 11.0137 10.5 11.0137C10.5776 11.0137 10.6542 10.9956 10.7236 10.9609L13.7236 9.46092C13.8067 9.41939 13.8765 9.35555 13.9254 9.27655C13.9742 9.19756 14 9.10653 14 9.01367V5.51367C14 5.42081 13.9742 5.32979 13.9254 5.25079C13.8765 5.1718 13.8067 5.10796 13.7236 5.06642ZM10.5 4.57277L12.3819 5.51367L10.5 6.45457L8.61815 5.51367L10.5 4.57277ZM8 6.32277L10 7.32277V9.70457L8 8.70457V6.32277ZM11 9.70457V7.32277L13 6.32277V8.70457L11 9.70457Z" fill="currentColor"/>
<path d="M6.75 13.5137C7.16421 13.5137 7.5 13.1779 7.5 12.7637C7.5 12.3495 7.16421 12.0137 6.75 12.0137C6.33579 12.0137 6 12.3495 6 12.7637C6 13.1779 6.33579 13.5137 6.75 13.5137Z" fill="currentColor"/>
<path d="M10 15.5137H3.5C3.23488 15.5134 2.9807 15.4079 2.79323 15.2204C2.60576 15.033 2.5003 14.7788 2.5 14.5137V2.51367C2.5003 2.24855 2.60576 1.99437 2.79323 1.8069C2.9807 1.61943 3.23488 1.51398 3.5 1.51367H10V2.51367H3.5V14.5137H10V12.5137H11V14.5137C10.9997 14.7788 10.8942 15.033 10.7068 15.2204C10.5193 15.4079 10.2651 15.5134 10 15.5137Z" fill="currentColor"/>
</svg>
