<svg viewBox="0 0 16 17" fill="none" xmlns="http://www.w3.org/2000/svg">
<rect width="16" height="16" transform="translate(0 0.513672)" fill="white" fill-opacity="0.01" style="mix-blend-mode:multiply"/>
<path d="M8.5 1.51367H7.5V3.99367H8.5V1.51367Z" fill="currentColor"/>
<path d="M12.597 3.20539L10.8433 4.95901L11.5504 5.66612L13.3041 3.91249L12.597 3.20539Z" fill="currentColor"/>
<path d="M15 8.01367H12.52V9.01367H15V8.01367Z" fill="currentColor"/>
<path d="M11.5534 11.3583L10.8463 12.0654L12.5999 13.819L13.307 13.1119L11.5534 11.3583Z" fill="currentColor"/>
<path d="M8.5 13.0337H7.5V15.5137H8.5V13.0337Z" fill="currentColor"/>
<path d="M4.45197 11.3612L2.69834 13.1149L3.40545 13.822L5.15907 12.0683L4.45197 11.3612Z" fill="currentColor"/>
<path d="M3.48 8.01367H1V9.01367H3.48V8.01367Z" fill="currentColor"/>
<path d="M3.40253 3.20831L2.69542 3.91541L4.44905 5.66904L5.15615 4.96193L3.40253 3.20831Z" fill="currentColor"/>
<path d="M8 6.51367C8.39556 6.51367 8.78224 6.63097 9.11114 6.85073C9.44004 7.0705 9.69638 7.38285 9.84776 7.7483C9.99913 8.11376 10.0387 8.51589 9.96157 8.90385C9.8844 9.29181 9.69392 9.64818 9.41421 9.92789C9.13451 10.2076 8.77814 10.3981 8.39018 10.4752C8.00222 10.5524 7.60009 10.5128 7.23463 10.3614C6.86918 10.2101 6.55682 9.95371 6.33706 9.62481C6.1173 9.29591 6 8.90923 6 8.51367C6 7.98324 6.21071 7.47453 6.58579 7.09946C6.96086 6.72439 7.46957 6.51367 8 6.51367ZM8 5.51367C7.40666 5.51367 6.82664 5.68962 6.33329 6.01926C5.83994 6.34891 5.45542 6.81744 5.22836 7.36562C5.0013 7.9138 4.94189 8.517 5.05764 9.09894C5.1734 9.68089 5.45912 10.2154 5.87868 10.635C6.29824 11.0546 6.83279 11.3403 7.41473 11.456C7.99667 11.5718 8.59987 11.5124 9.14805 11.2853C9.69623 11.0582 10.1648 10.6737 10.4944 10.1804C10.8241 9.68704 11 9.10702 11 8.51367C11 7.71802 10.6839 6.95496 10.1213 6.39235C9.55871 5.82974 8.79565 5.51367 8 5.51367Z" fill="currentColor"/>
</svg>
