<svg viewBox="0 0 16 17" fill="none" xmlns="http://www.w3.org/2000/svg">
<rect width="16" height="16" transform="translate(0 0.513672)" fill="white" fill-opacity="0.01" style="mix-blend-mode:multiply"/>
<path d="M3 14.5137C3.55228 14.5137 4 14.066 4 13.5137C4 12.9614 3.55228 12.5137 3 12.5137C2.44772 12.5137 2 12.9614 2 13.5137C2 14.066 2.44772 14.5137 3 14.5137Z" fill="currentColor"/>
<path d="M14 9.51367H12.5V8.51367C12.4997 8.24855 12.3942 7.99437 12.2068 7.8069C12.0193 7.61943 11.7651 7.51398 11.5 7.51367H9.5C9.23488 7.51398 8.9807 7.61943 8.79323 7.8069C8.60576 7.99437 8.5003 8.24855 8.5 8.51367V9.51367H7C6.73488 9.51398 6.4807 9.61943 6.29323 9.8069C6.10576 9.99437 6.0003 10.2485 6 10.5137V14.5137C6.0003 14.7788 6.10576 15.033 6.29323 15.2204C6.4807 15.4079 6.73488 15.5134 7 15.5137H14C14.2651 15.5134 14.5193 15.4079 14.7068 15.2204C14.8942 15.033 14.9997 14.7788 15 14.5137V10.5137C14.9997 10.2485 14.8942 9.99437 14.7068 9.8069C14.5193 9.61943 14.2651 9.51398 14 9.51367ZM9.5 8.51367H11.5V9.51367H9.5V8.51367ZM14 14.5137H7V10.5137H14V14.5137Z" fill="currentColor"/>
<path d="M5 3.51367H7V6.51367H8V3.51367H10V6.51367H11V3.51367H13V6.51367H14V3.51612C14 3.38447 13.9741 3.25411 13.9237 3.13249C13.8733 3.01086 13.7995 2.90034 13.7064 2.80725C13.6133 2.71416 13.5028 2.64033 13.3812 2.58995C13.2596 2.53958 13.1292 2.51366 12.9976 2.51367H2.00245C1.8708 2.51366 1.74044 2.53958 1.61881 2.58995C1.49718 2.64033 1.38667 2.71416 1.29358 2.80725C1.20049 2.90034 1.12665 3.01086 1.07628 3.13249C1.02591 3.25411 0.999987 3.38447 1 3.51612V10.5111C0.999974 10.6428 1.02588 10.7731 1.07625 10.8948C1.12662 11.0164 1.20046 11.127 1.29355 11.2201C1.38664 11.3132 1.49716 11.387 1.61879 11.4374C1.74043 11.4878 1.87079 11.5137 2.00245 11.5137H5V3.51367ZM4 10.5137H2V3.51367H4V10.5137Z" fill="currentColor"/>
</svg>
