<svg viewBox="0 0 16 17" fill="none" xmlns="http://www.w3.org/2000/svg">
<rect width="16" height="16" transform="translate(0 0.513672)" fill="white" fill-opacity="0.01" style="mix-blend-mode:multiply"/>
<path d="M12.4999 6.01367H7.49991C7.3673 6.01367 7.24013 6.06635 7.14636 6.16012C7.05259 6.25389 6.99991 6.38106 6.99991 6.51367V8.51367C7.00109 9.22199 7.25266 9.90707 7.71015 10.4478C8.16764 10.9886 8.80158 11.3502 9.49991 11.4687V14.5137H7.99991V15.5137H11.9999V14.5137H10.4999V11.4687C11.1982 11.3502 11.8322 10.9886 12.2897 10.4478C12.7472 9.90707 12.9987 9.22199 12.9999 8.51367V6.51367C12.9999 6.38106 12.9472 6.25389 12.8535 6.16012C12.7597 6.06635 12.6325 6.01367 12.4999 6.01367ZM11.9999 8.51367C11.9999 9.0441 11.7892 9.55281 11.4141 9.92789C11.0391 10.303 10.5303 10.5137 9.99991 10.5137C9.46948 10.5137 8.96077 10.303 8.5857 9.92789C8.21063 9.55281 7.99991 9.0441 7.99991 8.51367V7.01367H11.9999V8.51367Z" fill="currentColor"/>
<path d="M7.49991 1.01367H4.99991C4.8673 1.01367 4.74013 1.06635 4.64636 1.16012C4.55259 1.25389 4.49991 1.38106 4.49991 1.51367V5.19897C4.0141 5.48359 3.61671 5.89733 3.35191 6.39422C3.08711 6.89111 2.96526 7.45169 2.99991 8.01367V15.0137C2.99991 15.1463 3.05259 15.2735 3.14636 15.3672C3.24013 15.461 3.3673 15.5137 3.49991 15.5137H5.99991V14.5137H3.99991V8.01367C3.99991 6.41992 5.11541 6.00367 5.15811 5.98802L5.49991 5.87402V2.01367H6.99991V4.51367H7.99991V1.51367C7.99991 1.38106 7.94723 1.25389 7.85347 1.16012C7.7597 1.06635 7.63252 1.01367 7.49991 1.01367Z" fill="currentColor"/>
</svg>
