<svg viewBox="0 0 16 16" fill="none" xmlns="http://www.w3.org/2000/svg">
<rect width="16" height="16" fill="white" fill-opacity="0.01" style="mix-blend-mode:multiply"/>
<path d="M16 13V12H14.9494C14.8845 11.6814 14.7573 11.3858 14.5835 11.1236L15.3284 10.3787L14.6213 9.67165L13.8764 10.4165C13.6142 10.2427 13.3186 10.1155 13 10.0506V9H12V10.0506C11.6814 10.1155 11.3858 10.2427 11.1236 10.4165L10.3787 9.67165L9.67165 10.3787L10.4165 11.1236C10.2427 11.3858 10.1155 11.6814 10.0506 12H9V13H10.0506C10.1155 13.3186 10.2427 13.6142 10.4165 13.8764L9.67165 14.6213L10.3787 15.3284L11.1236 14.5835C11.3858 14.7573 11.6814 14.8845 12 14.9494V16H13V14.9494C13.3186 14.8845 13.6142 14.7573 13.8764 14.5835L14.6213 15.3284L15.3284 14.6213L14.5835 13.8764C14.7573 13.6142 14.8845 13.3186 14.9494 13H16ZM12.5 14C11.6729 14 11 13.3271 11 12.5C11 11.6729 11.6729 11 12.5 11C13.3271 11 14 11.6729 14 12.5C14 13.3271 13.3271 14 12.5 14Z" fill="currentColor"/>
<path d="M10 8.5H6C5.4477 8.5 5 8.0523 5 7.5V2C5 1.4477 5.4477 1 6 1H10C10.5523 1 11 1.4477 11 2V7.5C11 8.0523 10.5523 8.5 10 8.5ZM6 7.5H10V2H6V7.5Z" fill="currentColor"/>
<path d="M8.5 10.5H4C3.4477 10.5 3 10.0523 3 9.5V3.5H4V9.5H8.5V10.5Z" fill="currentColor"/>
<path d="M6.5 12.5H2C1.4486 12.5 1 12.0514 1 11.5V5.5H2V11.5H6.5V12.5Z" fill="currentColor"/>
</svg>
