<svg viewBox="0 0 16 17" fill="none" xmlns="http://www.w3.org/2000/svg">
<rect width="16" height="16" transform="translate(0 0.513672)" fill="white" fill-opacity="0.01" style="mix-blend-mode:multiply"/>
<path d="M12 12.5137H3C2.73478 12.5137 2.48043 12.4083 2.29289 12.2208C2.10536 12.0332 2 11.7789 2 11.5137V5.51367C2 5.24846 2.10536 4.9941 2.29289 4.80657C2.48043 4.61903 2.73478 4.51367 3 4.51367H12C12.2652 4.51367 12.5196 4.61903 12.7071 4.80657C12.8946 4.9941 13 5.24846 13 5.51367V6.01367H13.5C13.7652 6.01367 14.0196 6.11903 14.2071 6.30657C14.3946 6.4941 14.5 6.74846 14.5 7.01367V10.0137C14.5 10.2789 14.3946 10.5332 14.2071 10.7208C14.0196 10.9083 13.7652 11.0137 13.5 11.0137H13V11.5137C13 11.7789 12.8946 12.0332 12.7071 12.2208C12.5196 12.4083 12.2652 12.5137 12 12.5137ZM3 5.51367V11.5137H12V10.0137H13.5V7.01367H12V5.51367H3Z" fill="currentColor"/>
<path d="M11 10.5137V6.51367H4V10.5137H11Z" fill="currentColor"/>
</svg>
