<svg viewBox="0 0 16 17" fill="none" xmlns="http://www.w3.org/2000/svg">
<rect width="16" height="16" transform="translate(0 0.513672)" fill="white" fill-opacity="0.01" style="mix-blend-mode:multiply"/>
<path d="M8 15.5135C7.92766 15.513 7.8562 15.4977 7.79 15.4685C7.70321 15.4283 7.62976 15.3641 7.57836 15.2835C7.52696 15.2028 7.49976 15.1091 7.5 15.0135V9.71851L4.205 13.0135L3.5 12.3085L7.295 8.51351L3.5 4.71851L4.205 4.01351L7.5 7.30851V2.01351C7.49976 1.91788 7.52696 1.82418 7.57836 1.74354C7.62976 1.66289 7.70321 1.59868 7.79 1.55851C7.87699 1.51846 7.97366 1.50424 8.0685 1.51754C8.16334 1.53083 8.25237 1.57109 8.325 1.63351L11.825 4.63351C11.8799 4.68045 11.9239 4.73873 11.9542 4.80433C11.9844 4.86993 12 4.94129 12 5.01351C12.0031 5.08265 11.9918 5.15168 11.9669 5.21623C11.9419 5.28078 11.9038 5.33944 11.855 5.38851L8.705 8.51351L11.855 11.6585C11.9013 11.7052 11.938 11.7606 11.9629 11.8216C11.9878 11.8825 12.0004 11.9477 12 12.0135C11.9972 12.0823 11.9802 12.1498 11.9501 12.2118C11.92 12.2737 11.8774 12.3288 11.825 12.3735L8.325 15.3735C8.23735 15.4582 8.12178 15.508 8 15.5135ZM8.5 9.71851V13.9285L10.765 11.9835L8.5 9.71851ZM8.5 3.09851V7.30851L10.765 5.04351L8.5 3.09851Z" fill="currentColor"/>
</svg>
