<svg viewBox="0 0 16 17" fill="none" xmlns="http://www.w3.org/2000/svg">
<rect width="16" height="16" transform="translate(0 0.513672)" fill="white" fill-opacity="0.01" style="mix-blend-mode:multiply"/>
<path d="M10 5.51367H9V6.51367H10V5.51367Z" fill="currentColor"/>
<path d="M7 5.51367H6V6.51367H7V5.51367Z" fill="currentColor"/>
<path d="M13 10.5137H10.5V9.51367H11C11.2651 9.51337 11.5193 9.40791 11.7068 9.22044C11.8942 9.03297 11.9997 8.77879 12 8.51367V6.51367H13V5.51367H12V4.51367C11.9997 4.24855 11.8942 3.99437 11.7068 3.8069C11.5193 3.61943 11.2651 3.51398 11 3.51367H10V1.51367H9V3.51367H7V1.51367H6V3.51367H5C4.73488 3.51398 4.4807 3.61943 4.29323 3.8069C4.10576 3.99437 4.0003 4.24855 4 4.51367V5.51367H3V6.51367H4V8.51367C4.0003 8.77879 4.10576 9.03297 4.29323 9.22044C4.4807 9.40791 4.73488 9.51337 5 9.51367H5.5V10.5137H3C2.73488 10.514 2.4807 10.6194 2.29323 10.8069C2.10576 10.9944 2.0003 11.2485 2 11.5137V15.5137H3V11.5137H13V15.5137H14V11.5137C13.9997 11.2485 13.8942 10.9944 13.7068 10.8069C13.5193 10.6194 13.2651 10.514 13 10.5137ZM5 4.51367H11V8.51367H5V4.51367ZM6.5 9.51367H9.5V10.5137H6.5V9.51367Z" fill="currentColor"/>
</svg>
