<svg viewBox="0 0 16 17" fill="none" xmlns="http://www.w3.org/2000/svg">
<rect width="16" height="16" transform="translate(0 0.513672)" fill="white" fill-opacity="0.01" style="mix-blend-mode:multiply"/>
<path d="M13 14.5137H3C2.73487 14.5134 2.48068 14.4079 2.2932 14.2205C2.10572 14.033 2.00028 13.7788 2 13.5137V5.01367H3V13.5137H13V5.01367H14V13.5137C13.9997 13.7788 13.8943 14.033 13.7068 14.2205C13.5193 14.4079 13.2651 14.5134 13 14.5137Z" fill="currentColor"/>
<path d="M9 12.0137H6V11.0137H9V9.01367H7C6.73486 9.01341 6.48066 8.90797 6.29319 8.72049C6.10571 8.53301 6.00026 8.27881 6 8.01367V6.01367C6.00026 5.74854 6.10571 5.49434 6.29319 5.30686C6.48066 5.11938 6.73486 5.01394 7 5.01367H10V6.01367H7V8.01367H9C9.26514 8.01394 9.51934 8.11938 9.70681 8.30686C9.89429 8.49434 9.99974 8.74854 10 9.01367V11.0137C9.9997 11.2788 9.89424 11.533 9.70677 11.7204C9.5193 11.9079 9.26512 12.0134 9 12.0137Z" fill="currentColor"/>
<path d="M14 2.51367H2V3.51367H14V2.51367Z" fill="currentColor"/>
</svg>
