<svg viewBox="0 0 16 17" fill="none" xmlns="http://www.w3.org/2000/svg">
<rect width="16" height="16" transform="translate(0 0.513672)" fill="white" fill-opacity="0.01" style="mix-blend-mode:multiply"/>
<path d="M14 1.51367H8C7.73486 1.51394 7.48066 1.61938 7.29319 1.80686C7.10571 1.99434 7.00026 2.24854 7 2.51367V7.51367H2C1.73486 7.51394 1.48066 7.61938 1.29319 7.80686C1.10571 7.99434 1.00026 8.24854 1 8.51367V15.5137H15V2.51367C14.9997 2.24855 14.8942 1.99437 14.7068 1.8069C14.5193 1.61943 14.2651 1.51398 14 1.51367ZM4.5 14.5137V11.0137H6.5V14.5137H4.5ZM14 14.5137H7.5V10.5137C7.5 10.3811 7.44732 10.2539 7.35355 10.1601C7.25979 10.0663 7.13261 10.0137 7 10.0137H4C3.86739 10.0137 3.74021 10.0663 3.64645 10.1601C3.55268 10.2539 3.5 10.3811 3.5 10.5137V14.5137H2V8.51367H8V2.51367H14V14.5137Z" fill="currentColor"/>
<path d="M10 4.51367H9V5.51367H10V4.51367Z" fill="currentColor"/>
<path d="M13 4.51367H12V5.51367H13V4.51367Z" fill="currentColor"/>
<path d="M10 7.51367H9V8.51367H10V7.51367Z" fill="currentColor"/>
<path d="M13 7.51367H12V8.51367H13V7.51367Z" fill="currentColor"/>
<path d="M10 10.5135H9V11.5135H10V10.5135Z" fill="currentColor"/>
<path d="M13 10.5135H12V11.5135H13V10.5135Z" fill="currentColor"/>
<path d="M3.5 5.51377H1V6.51352H3.5V5.51377Z" fill="currentColor"/>
<path d="M6 1.51367H5V4.01367H6V1.51367Z" fill="currentColor"/>
<path d="M2.70704 2.51368L2.00001 3.22072L3.79298 5.0137L4.50002 4.30666L2.70704 2.51368Z" fill="currentColor"/>
</svg>
