<svg viewBox="0 0 16 17" fill="none" xmlns="http://www.w3.org/2000/svg">
<rect width="16" height="16" transform="translate(0 0.513672)" fill="white" fill-opacity="0.01" style="mix-blend-mode:multiply"/>
<path d="M14.5 6.01367H13.5V8.01367H14.5V6.01367Z" fill="currentColor"/>
<path d="M2.5 6.01367H1.5V8.01367H2.5V6.01367Z" fill="currentColor"/>
<path d="M11 10.5137H10V11.5137H11V10.5137Z" fill="currentColor"/>
<path d="M6 10.5137H5V11.5137H6V10.5137Z" fill="currentColor"/>
<path d="M10.5 2.51367H5.5C4.8372 2.51445 4.20177 2.7781 3.7331 3.24677C3.26442 3.71544 3.00078 4.35087 3 5.01367V12.0137C3.0003 12.2788 3.10576 12.533 3.29323 12.7204C3.4807 12.9079 3.73488 13.0134 4 13.0137V14.5137H5V13.0137H11V14.5137H12V13.0137C12.2651 13.0133 12.5193 12.9078 12.7067 12.7204C12.8942 12.5329 12.9996 12.2788 13 12.0137V5.01367C12.9992 4.35087 12.7356 3.71544 12.2669 3.24677C11.7982 2.7781 11.1628 2.51445 10.5 2.51367ZM12 5.51367L12.0005 8.51367H4V5.51367H12ZM5.5 3.51367H10.5C10.8092 3.51462 11.1105 3.61125 11.3626 3.7903C11.6147 3.96935 11.8051 4.22204 11.9079 4.51367H4.09215C4.19487 4.22204 4.38534 3.96935 4.63742 3.7903C4.88949 3.61125 5.19081 3.51462 5.5 3.51367ZM4 12.0137V9.51367H12.0006L12.001 12.0137H4Z" fill="currentColor"/>
</svg>
