<svg viewBox="0 0 16 17" fill="none" xmlns="http://www.w3.org/2000/svg">
<rect width="16" height="16" transform="translate(0 0.513672)" fill="white" fill-opacity="0.01" style="mix-blend-mode:multiply"/>
<path d="M13 1.51367H12V5.01367H13V1.51367Z" fill="currentColor"/>
<path d="M13.25 6.76367C13.25 6.34946 12.9142 6.01367 12.5 6.01367C12.0858 6.01367 11.75 6.34946 11.75 6.76367C11.75 7.17789 12.0858 7.51367 12.5 7.51367C12.9142 7.51367 13.25 7.17789 13.25 6.76367Z" fill="currentColor"/>
<path d="M11.9109 9.51367H7.5415L5.93215 3.49632C5.7949 2.98395 5.45973 2.54709 5.00038 2.28183C4.54103 2.01658 3.99512 1.94467 3.48275 2.08192C2.97038 2.21917 2.53351 2.55434 2.26826 3.01369C2.00301 3.47304 1.9311 4.01895 2.06835 4.53132L4.2727 12.7721C4.3296 12.9848 4.45513 13.1728 4.62981 13.3069C4.80449 13.441 5.01854 13.5137 5.23875 13.5137H9.5V14.5137H2V15.5137H9.5C9.76522 15.5137 10.0196 15.4083 10.2071 15.2208C10.3946 15.0332 10.5 14.7789 10.5 14.5137V13.5137H12C12.2794 13.5133 12.5556 13.4545 12.811 13.341C13.0663 13.2275 13.295 13.0618 13.4824 12.8546C13.6699 12.6474 13.8118 12.4032 13.8993 12.1378C13.9867 11.8724 14.0176 11.5917 13.99 11.3137C13.9259 10.8103 13.6783 10.3483 13.2946 10.0161C12.911 9.684 12.4183 9.50508 11.9109 9.51367ZM12 12.5137H5.23875L3.0343 4.27272C2.96566 4.01654 3.0016 3.74358 3.13422 3.51389C3.26684 3.28421 3.48526 3.11661 3.74145 3.04797C3.99764 2.97933 4.2706 3.01528 4.50028 3.14789C4.72997 3.28051 4.89756 3.49894 4.9662 3.75512L6.7733 10.5137H12C12.2652 10.5137 12.5196 10.619 12.7071 10.8066C12.8946 10.9941 13 11.2485 13 11.5137C13 11.7789 12.8946 12.0332 12.7071 12.2208C12.5196 12.4083 12.2652 12.5137 12 12.5137Z" fill="currentColor"/>
</svg>
