<svg viewBox="0 0 16 17" fill="none" xmlns="http://www.w3.org/2000/svg">
<rect width="16" height="16" transform="translate(0 0.513672)" fill="white" fill-opacity="0.01" style="mix-blend-mode:multiply"/>
<path d="M13 11.0137H11.5V9.51367H10.5V11.0137H9V12.0137H10.5V13.5137H11.5V12.0137H13V11.0137Z" fill="currentColor"/>
<path d="M11 15.5137C8.8 15.5137 7 13.7137 7 11.5137C7 9.31367 8.8 7.51367 11 7.51367C13.2 7.51367 15 9.31367 15 11.5137C15 13.7137 13.2 15.5137 11 15.5137ZM11 8.51367C9.35 8.51367 8 9.86367 8 11.5137C8 13.1637 9.35 14.5137 11 14.5137C12.65 14.5137 14 13.1637 14 11.5137C14 9.86367 12.65 8.51367 11 8.51367Z" fill="currentColor"/>
<path d="M14 3.51367C14 2.96367 13.55 2.51367 13 2.51367H11V1.51367H10V2.51367H6V1.51367H5V2.51367H3C2.45 2.51367 2 2.96367 2 3.51367V13.5137C2 14.0637 2.45 14.5137 3 14.5137H6V13.5137H3V3.51367H5V4.51367H6V3.51367H10V4.51367H11V3.51367H13V6.51367H14V3.51367Z" fill="currentColor"/>
</svg>
