<svg viewBox="0 0 16 16" fill="none" xmlns="http://www.w3.org/2000/svg">
<rect width="16" height="16" fill="white" fill-opacity="0.01" style="mix-blend-mode:multiply"/>
<path d="M14.415 10.5854L12.5 8.6854L12.835 8.3504C12.9281 8.25672 12.9804 8.12999 12.9804 7.9979C12.9804 7.8658 12.9281 7.73908 12.835 7.6454L9.83498 4.6454C9.7413 4.55227 9.61457 4.5 9.48248 4.5C9.35039 4.5 9.22366 4.55227 9.12998 4.6454L8.73498 5.0404L5.35498 1.6454C5.2613 1.55227 5.13457 1.5 5.00248 1.5C4.87039 1.5 4.74366 1.55227 4.64998 1.6454L2.64998 3.6454L2.58998 3.7204L0.589979 6.7204C0.525784 6.81622 0.496689 6.93128 0.507624 7.0461C0.518559 7.16091 0.568851 7.26842 0.649979 7.3504L2.14998 8.8504C2.19646 8.89726 2.25176 8.93446 2.31269 8.95984C2.37362 8.98523 2.43897 8.9983 2.50498 8.9983C2.57099 8.9983 2.63634 8.98523 2.69727 8.95984C2.7582 8.93446 2.8135 8.89726 2.85998 8.8504L4.99998 6.7054L6.04498 7.7504L3.64498 10.1454C3.55185 10.2391 3.49958 10.3658 3.49958 10.4979C3.49958 10.63 3.55185 10.7567 3.64498 10.8504L4.64498 11.8504C4.69129 11.8976 4.74651 11.9352 4.80745 11.961C4.86838 11.9867 4.93383 12.0001 4.99998 12.0004C5.09189 11.9998 5.18185 11.9738 5.25998 11.9254L7.42498 10.6254L8.64498 11.8504C8.73866 11.9435 8.86539 11.9958 8.99748 11.9958C9.12957 11.9958 9.2563 11.9435 9.34998 11.8504L9.68498 11.5004L11.58 13.4154C11.9553 13.7907 12.4643 14.0015 12.995 14.0015C13.5257 14.0015 14.0347 13.7907 14.41 13.4154C14.7853 13.0401 14.9961 12.5311 14.9961 12.0004C14.9961 11.4697 14.7853 10.9607 14.41 10.5854H14.415ZM4.99998 5.2904L2.49998 7.7904L1.64498 6.9354L3.38998 4.3154L4.99998 2.7054L8.04498 5.7504L6.74998 7.0404L4.99998 5.2904ZM8.99998 10.7904L7.57998 9.3704L5.07998 10.8704L4.70998 10.5004L9.49998 5.7054L11.795 8.0004L8.99998 10.7904ZM13.71 12.7054C13.6171 12.7984 13.5068 12.8721 13.3854 12.9225C13.264 12.9728 13.1339 12.9987 13.0025 12.9987C12.8711 12.9987 12.7409 12.9728 12.6195 12.9225C12.4981 12.8721 12.3879 12.7984 12.295 12.7054L10.395 10.8104L11.81 9.3954L13.71 11.2904C13.803 11.3833 13.8767 11.4936 13.927 11.615C13.9774 11.7364 14.0033 11.8665 14.0033 11.9979C14.0033 12.1293 13.9774 12.2594 13.927 12.3808C13.8767 12.5022 13.803 12.6125 13.71 12.7054Z" fill="currentColor"/>
</svg>
