<svg viewBox="0 0 16 16" fill="none" xmlns="http://www.w3.org/2000/svg">
<rect width="16" height="16" fill="white" fill-opacity="0.01" style="mix-blend-mode:multiply"/>
<path d="M13 7C13.5514 7 14 7.4486 14 8C14 8.5514 13.5514 9 13 9C12.4486 9 12 8.5514 12 8C12 7.4486 12.4486 7 13 7ZM13 6C11.8954 6 11 6.89545 11 8C11 9.10455 11.8954 10 13 10C14.1046 10 15 9.10455 15 8C15 6.89545 14.1046 6 13 6Z" fill="currentColor"/>
<path d="M7.5 5.5L6.79285 6.20705L8.0858 7.5H3.90785C3.7008 6.91945 3.151 6.5 2.5 6.5C1.67285 6.5 1 7.17285 1 8C1 8.82715 1.67285 9.5 2.5 9.5C3.151 9.5 3.7008 9.08055 3.90785 8.5H8.08585L6.7929 9.79295L7.50005 10.5L10 8L7.5 5.5ZM2.5 8.5C2.22425 8.5 2 8.27565 2 8C2 7.72435 2.22425 7.5 2.5 7.5C2.77575 7.5 3 7.72435 3 8C3 8.27565 2.77575 8.5 2.5 8.5Z" fill="currentColor"/>
</svg>
