<svg viewBox="0 0 16 16" fill="none" xmlns="http://www.w3.org/2000/svg">
<rect width="16" height="16" fill="white" fill-opacity="0.01" style="mix-blend-mode:multiply"/>
<path d="M13.0001 6.00005C11.8955 6.00005 11.0001 6.89545 11.0001 8.00005C11.0001 9.10465 11.8955 10 13.0001 10C14.1046 10 15.0001 9.1046 15.0001 8.00005C15.0001 6.8955 14.1047 6.00005 13.0001 6.00005ZM13.0001 9.00005C12.4487 9.00005 12.0001 8.55145 12.0001 8.00005C12.0001 7.44865 12.4487 7.00005 13.0001 7.00005C13.5515 7.00005 14.0001 7.44865 14.0001 8.00005C14.0001 8.55145 13.5515 9.00005 13.0001 9.00005Z" fill="currentColor"/>
<path d="M7.50005 10.5V11.5H8.793L7.6426 12.6504C7.44705 12.5567 7.23085 12.5 7 12.5C6.17285 12.5 5.5 13.1729 5.5 14C5.5 14.8272 6.17285 15.5 7 15.5C7.82715 15.5 8.5 14.8272 8.5 14C8.5 13.7691 8.44325 13.553 8.34975 13.3574L9.5 12.207V13.5H10.5V10.5L7.50005 10.5ZM7.00005 14.5C6.7243 14.5 6.50005 14.2757 6.50005 14C6.50005 13.7244 6.7243 13.5 7.00005 13.5C7.2758 13.5 7.50005 13.7244 7.50005 14C7.50005 14.2757 7.2758 14.5 7.00005 14.5Z" fill="currentColor"/>
<path d="M5.7072 5.70709L5.00005 6.41439L6.08585 7.50009H3.90785C3.7008 6.91954 3.151 6.50009 2.5 6.50009C1.67285 6.50009 1 7.17294 1 8.00009C1 8.82724 1.67285 9.50009 2.5 9.50009C3.151 9.50009 3.7008 9.08064 3.90785 8.50009H6.08585L5.00005 9.58579L5.7072 10.2931L8.00005 8.00014L5.7072 5.70709ZM2.50005 8.50004C2.2243 8.50004 2.00005 8.27569 2.00005 8.00004C2.00005 7.72439 2.2243 7.50004 2.50005 7.50004C2.7758 7.50004 3.00005 7.72439 3.00005 8.00004C3.00005 8.27569 2.7758 8.50004 2.50005 8.50004Z" fill="currentColor"/>
<path d="M9.50005 2.50005V3.793L8.3498 2.6426C8.4433 2.44705 8.50005 2.231 8.50005 2C8.50005 1.17285 7.8272 0.5 7.00005 0.5C6.1729 0.5 5.50005 1.17285 5.50005 2C5.50005 2.82715 6.1729 3.5 7.00005 3.5C7.2309 3.5 7.44705 3.44335 7.64265 3.3496L8.79305 4.5H7.5001V5.5H10.5001V2.5L9.50005 2.50005ZM6.50005 2.00005C6.50005 1.7244 6.7243 1.50005 7.00005 1.50005C7.2758 1.50005 7.50005 1.7244 7.50005 2.00005C7.50005 2.2757 7.2758 2.50005 7.00005 2.50005C6.7243 2.50005 6.50005 2.2757 6.50005 2.00005Z" fill="currentColor"/>
</svg>
