<svg viewBox="0 0 16 17" fill="none" xmlns="http://www.w3.org/2000/svg">
<rect width="16" height="16" transform="translate(0 0.513672)" fill="white" fill-opacity="0.01" style="mix-blend-mode:multiply"/>
<path d="M14.5 13.5137H1.5C1.36739 13.5137 1.24021 13.461 1.14645 13.3672C1.05268 13.2735 1 13.1463 1 13.0137V4.51367C1 4.38106 1.05268 4.25389 1.14645 4.16012C1.24021 4.06635 1.36739 4.01367 1.5 4.01367H4.73L5.585 2.73867C5.63029 2.66989 5.69188 2.61336 5.76427 2.57411C5.83667 2.53486 5.91765 2.5141 6 2.51367H10C10.0824 2.5141 10.1633 2.53486 10.2357 2.57411C10.3081 2.61336 10.3697 2.66989 10.415 2.73867L11.27 4.01367H14.5C14.6326 4.01367 14.7598 4.06635 14.8536 4.16012C14.9473 4.25389 15 4.38106 15 4.51367V13.0137C15 13.1463 14.9473 13.2735 14.8536 13.3672C14.7598 13.461 14.6326 13.5137 14.5 13.5137ZM2 12.5137H14V5.01367H11C10.9176 5.01325 10.8367 4.99248 10.7643 4.95323C10.6919 4.91398 10.6303 4.85745 10.585 4.78867L9.73 3.51367H6.27L5.415 4.78867C5.36971 4.85745 5.30812 4.91398 5.23573 4.95323C5.16333 4.99248 5.08235 5.01325 5 5.01367H2V12.5137Z" fill="currentColor"/>
<path d="M8 11.5137C7.40666 11.5137 6.82664 11.3377 6.33329 11.0081C5.83994 10.6784 5.45542 10.2099 5.22836 9.66172C5.0013 9.11354 4.94189 8.51034 5.05764 7.9284C5.1734 7.34646 5.45912 6.81191 5.87868 6.39235C6.29824 5.97279 6.83279 5.68707 7.41473 5.57132C7.99667 5.45556 8.59987 5.51497 9.14805 5.74203C9.69623 5.9691 10.1648 6.35361 10.4944 6.84696C10.8241 7.34031 11 7.92033 11 8.51367C11 9.30932 10.6839 10.0724 10.1213 10.635C9.55871 11.1976 8.79565 11.5137 8 11.5137ZM8 6.51367C7.60444 6.51367 7.21776 6.63097 6.88886 6.85073C6.55996 7.0705 6.30362 7.38285 6.15224 7.74831C6.00087 8.11376 5.96126 8.51589 6.03843 8.90385C6.1156 9.29181 6.30608 9.64818 6.58579 9.92789C6.86549 10.2076 7.22186 10.3981 7.60982 10.4752C7.99778 10.5524 8.39991 10.5128 8.76537 10.3614C9.13082 10.2101 9.44318 9.95371 9.66294 9.62481C9.8827 9.29591 10 8.90923 10 8.51367C10 7.98324 9.78929 7.47453 9.41421 7.09946C9.03914 6.72439 8.53043 6.51367 8 6.51367Z" fill="currentColor"/>
</svg>
