<svg viewBox="0 0 16 17" fill="none" xmlns="http://www.w3.org/2000/svg">
<rect width="16" height="16" transform="translate(0 0.513672)" fill="white" fill-opacity="0.01" style="mix-blend-mode:multiply"/>
<path d="M9.5 10.0137H6.5V11.0137H9.5V10.0137Z" fill="currentColor"/>
<path d="M12.7205 7.51367L12.0843 5.23867C12.0239 5.03015 11.8976 4.84681 11.7243 4.71611C11.5509 4.58541 11.3399 4.51438 11.1228 4.51367H4.8772C4.66006 4.5144 4.449 4.58547 4.27564 4.71624C4.10229 4.847 3.97599 5.03043 3.91565 5.23902L3.26575 7.51367H2V8.51367H3V12.0137C3.00033 12.2788 3.10579 12.5329 3.29326 12.7204C3.48072 12.9079 3.73488 13.0133 4 13.0137V14.5137H5V13.0137H11V14.5137H12V13.0137C12.2651 13.0133 12.5193 12.9079 12.7067 12.7204C12.8942 12.5329 12.9997 12.2788 13 12.0137V8.51367H14V7.51367H12.7205ZM4.8772 5.51367H11.1229L11.8371 8.01367H4.16285L4.8772 5.51367ZM12 11.0137V12.0137H4V11.0137H5V10.0137H4V9.01367H12V10.0137H11V11.0137H12Z" fill="currentColor"/>
</svg>
