<svg viewBox="0 0 16 17" fill="none" xmlns="http://www.w3.org/2000/svg">
<rect width="16" height="16" transform="translate(0 0.513672)" fill="white" fill-opacity="0.01" style="mix-blend-mode:multiply"/>
<path d="M14.669 8.48048L10.8028 7.09133L9.187 5.06202C9.04646 4.89023 8.86942 4.75189 8.66875 4.65705C8.46808 4.5622 8.24881 4.51322 8.02685 4.51367H4.0288C3.78431 4.51357 3.5435 4.57327 3.32737 4.68757C3.11124 4.80187 2.92634 4.96729 2.7888 5.16942L1.4331 7.16112C1.15061 7.57566 0.999669 8.06574 1 8.56738V12.5137C1 12.6463 1.05268 12.7735 1.14645 12.8672C1.24022 12.961 1.36739 13.0137 1.5 13.0137H2.57105C2.68007 13.4426 2.92892 13.8229 3.27825 14.0945C3.62758 14.3661 4.05748 14.5136 4.5 14.5136C4.94252 14.5136 5.37242 14.3661 5.72175 14.0945C6.07108 13.8229 6.31993 13.4426 6.42895 13.0137H9.57105C9.68007 13.4426 9.92892 13.8229 10.2783 14.0945C10.6276 14.3661 11.0575 14.5136 11.5 14.5136C11.9425 14.5136 12.3724 14.3661 12.7218 14.0945C13.0711 13.8229 13.3199 13.4426 13.429 13.0137H14.5C14.6326 13.0137 14.7598 12.961 14.8536 12.8672C14.9473 12.7735 15 12.6463 15 12.5137V8.95118C15 8.84817 14.9682 8.74768 14.909 8.66343C14.8497 8.57917 14.7659 8.51528 14.669 8.48048ZM4.5 13.5137C4.30222 13.5137 4.10888 13.455 3.94443 13.3451C3.77998 13.2353 3.65181 13.0791 3.57612 12.8964C3.50043 12.7136 3.48063 12.5126 3.51922 12.3186C3.5578 12.1246 3.65304 11.9464 3.79289 11.8066C3.93275 11.6667 4.11093 11.5715 4.30491 11.5329C4.49889 11.4943 4.69996 11.5141 4.88268 11.5898C5.06541 11.6655 5.22159 11.7937 5.33147 11.9581C5.44135 12.1226 5.5 12.3159 5.5 12.5137C5.49964 12.7788 5.39417 13.0329 5.20671 13.2204C5.01925 13.4078 4.76511 13.5133 4.5 13.5137ZM11.5 13.5137C11.3022 13.5137 11.1089 13.455 10.9444 13.3451C10.78 13.2353 10.6518 13.0791 10.5761 12.8964C10.5004 12.7136 10.4806 12.5126 10.5192 12.3186C10.5578 12.1246 10.653 11.9464 10.7929 11.8066C10.9327 11.6667 11.1109 11.5715 11.3049 11.5329C11.4989 11.4943 11.7 11.5141 11.8827 11.5898C12.0654 11.6655 12.2216 11.7937 12.3315 11.9581C12.4414 12.1226 12.5 12.3159 12.5 12.5137C12.4997 12.7788 12.3942 13.033 12.2067 13.2204C12.0193 13.4079 11.7651 13.5133 11.5 13.5137ZM14 12.0137H13.429C13.3199 11.5848 13.0711 11.2045 12.7218 10.9328C12.3724 10.6612 11.9425 10.5137 11.5 10.5137C11.0575 10.5137 10.6276 10.6612 10.2783 10.9328C9.92892 11.2045 9.68007 11.5848 9.57105 12.0137H6.42895C6.31993 11.5848 6.07108 11.2045 5.72175 10.9328C5.37242 10.6612 4.94252 10.5137 4.5 10.5137C4.05748 10.5137 3.62758 10.6612 3.27825 10.9328C2.92892 11.2045 2.68007 11.5848 2.57105 12.0137H2V8.56738C1.99989 8.26623 2.09049 7.97203 2.26 7.72312L3.6155 5.73242C3.66132 5.66501 3.72294 5.60984 3.79498 5.57171C3.86702 5.53358 3.94729 5.51366 4.0288 5.51367H8.02685C8.09968 5.51336 8.17169 5.52908 8.23777 5.55971C8.30385 5.59034 8.36237 5.63514 8.4092 5.69092L10.1089 7.82518C10.1667 7.89783 10.2437 7.95295 10.3311 7.98437L14 9.30273V12.0137Z" fill="currentColor"/>
</svg>
