<svg viewBox="0 0 16 17" fill="none" xmlns="http://www.w3.org/2000/svg">
<rect width="16" height="16" transform="translate(0 0.513672)" fill="white" fill-opacity="0.01" style="mix-blend-mode:multiply"/>
<path d="M14.5 13.5137H11.5V11.5137C11.5003 11.2485 11.6057 10.9943 11.7932 10.8069C11.9807 10.6194 12.2349 10.5139 12.5 10.5137H13.5V9.51367H11.5V8.51367H13.5C13.7651 8.51398 14.0193 8.61943 14.2068 8.8069C14.3942 8.99437 14.4997 9.24855 14.5 9.51367V10.5137C14.4997 10.7788 14.3942 11.033 14.2068 11.2204C14.0193 11.4079 13.7651 11.5134 13.5 11.5137H12.5V12.5137H14.5V13.5137Z" fill="currentColor"/>
<path d="M9.5 11.5137H7.5C7.23488 11.5134 6.9807 11.4079 6.79323 11.2204C6.60576 11.033 6.5003 10.7788 6.5 10.5137V5.51367C6.50026 5.24854 6.60571 4.99434 6.79319 4.80686C6.98066 4.61938 7.23486 4.51394 7.5 4.51367H9.5C9.76514 4.51394 10.0193 4.61938 10.2068 4.80686C10.3943 4.99434 10.4997 5.24854 10.5 5.51367V10.5137C10.4997 10.7788 10.3942 11.033 10.2068 11.2204C10.0193 11.4079 9.76512 11.5134 9.5 11.5137ZM7.5 5.51367V10.5137H9.5V5.51367H7.5Z" fill="currentColor"/>
<path d="M5.5 11.5137H2.5C2.23488 11.5134 1.9807 11.4079 1.79323 11.2204C1.60576 11.033 1.5003 10.7788 1.5 10.5137V5.51367C1.50026 5.24854 1.60571 4.99434 1.79319 4.80686C1.98066 4.61938 2.23486 4.51394 2.5 4.51367H5.5V5.51367H2.5V10.5137H5.5V11.5137Z" fill="currentColor"/>
</svg>
