<svg viewBox="0 0 16 16" fill="none" xmlns="http://www.w3.org/2000/svg">
<rect width="16" height="16" fill="white" fill-opacity="0.01" style="mix-blend-mode:multiply"/>
<path d="M16 7H15V4.0371L12.248 2.4319L12.752 1.56815L15.752 3.31815C15.9055 3.40775 16 3.5723 16 3.75005V7Z" fill="currentColor"/>
<path d="M10 11C9.91285 11 9.82595 10.9773 9.74805 10.9319L6.74805 9.1819C6.5945 9.0923 6.5 8.92775 6.5 8.75V5.25C6.5 5.07225 6.5945 4.9077 6.74805 4.8181L9.74805 3.0681C9.9038 2.9773 10.0962 2.9773 10.252 3.0681L13.252 4.8181C13.4055 4.9077 13.5 5.07225 13.5 5.25V8.75C13.5 8.92775 13.4055 9.0923 13.252 9.1819L10.252 10.9319C10.1741 10.9773 10.0872 11 10 11ZM7.5 8.4629L10 9.92115L12.5 8.4629V5.5371L10 4.07885L7.5 5.5371V8.4629Z" fill="currentColor"/>
<path d="M6.25 13C6.66421 13 7 12.6642 7 12.25C7 11.8358 6.66421 11.5 6.25 11.5C5.83579 11.5 5.5 11.8358 5.5 12.25C5.5 12.6642 5.83579 13 6.25 13Z" fill="currentColor"/>
<path d="M9.5 15H3C2.4486 15 2 14.5514 2 14V2C2 1.4486 2.4486 1 3 1H9.5V2H3V14H9.5V12H10.5V14C10.5 14.5514 10.0514 15 9.5 15Z" fill="currentColor"/>
</svg>
