<svg viewBox="0 0 16 16" fill="none" xmlns="http://www.w3.org/2000/svg">
<rect width="16" height="16" fill="white" fill-opacity="0.01" style="mix-blend-mode:multiply"/>
<path d="M14.7549 8.845L11.7549 7.07C11.6749 7.025 11.5899 7 11.4999 7C11.4099 7 11.3249 7.025 11.2449 7.07L8.24493 8.845C8.09493 8.935 7.99993 9.1 7.99993 9.275V12.725C7.99993 12.9 8.09493 13.065 8.24493 13.155L11.2449 14.93C11.3249 14.975 11.4099 15 11.4999 15C11.5899 15 11.6749 14.975 11.7549 14.93L14.7549 13.155C14.9049 13.065 14.9999 12.9 14.9999 12.725V9.275C14.9999 9.1 14.9049 8.935 14.7549 8.845ZM13.9999 12.44L11.4999 13.92L8.99993 12.44V9.56L11.4999 8.08L13.9999 9.56V12.44Z" fill="currentColor"/>
<path d="M11.6999 2.235C11.3749 2.235 11.0599 2.28 10.7599 2.37C10.2299 1.69 9.41993 1.285 8.55993 1.285C7.97493 1.285 7.41993 1.465 6.94993 1.8C6.39493 1.29 5.66493 1 4.90493 1H4.89993C4.08993 1 3.32993 1.315 2.75493 1.89C2.18493 2.46 1.87493 3.215 1.87493 4.015C1.87493 4.295 1.91493 4.565 1.98993 4.83C1.36993 5.34 0.999933 6.105 1.00493 6.92C1.00493 8.405 2.19993 9.615 3.67493 9.615H3.81493C4.30493 10.52 5.25993 11.105 6.30993 11.105C6.54493 11.105 6.77993 11.075 6.99993 11.02V9.965C6.78493 10.055 6.54993 10.105 6.30993 10.105C5.54493 10.105 4.84993 9.62 4.58993 8.905L4.43993 8.5L4.01993 8.585C3.90493 8.61 3.78993 8.62 3.67493 8.62C2.75493 8.62 2.00493 7.855 2.00493 6.92C2.00493 6.32 2.32493 5.755 2.84493 5.45L3.22993 5.225L3.04993 4.815C2.93493 4.56 2.87993 4.29 2.87993 4.01C2.87993 3.475 3.08493 2.975 3.46493 2.595C3.84993 2.21 4.35993 2 4.89993 2C5.52493 2 6.12993 2.3 6.50993 2.795L6.80993 3.19L7.40993 2.71C7.73493 2.435 8.13993 2.285 8.55993 2.285C9.20493 2.285 9.80493 2.645 10.1299 3.22L10.3549 3.62L10.7699 3.43C11.0599 3.3 11.3749 3.235 11.6999 3.235C12.9699 3.235 13.9999 4.28 13.9999 5.56C13.9999 6.095 13.8149 6.58 13.5099 6.975L14.3849 7.48C14.7699 6.935 14.9949 6.275 14.9949 5.56C14.9949 3.725 13.5149 2.235 11.6949 2.235H11.6999Z" fill="currentColor"/>
</svg>
