<svg viewBox="0 0 16 16" fill="none" xmlns="http://www.w3.org/2000/svg">
<rect width="16" height="16" fill="white" fill-opacity="0.01" style="mix-blend-mode:multiply"/>
<path d="M15 14.0002H12V15.0002H15V14.0002Z" fill="currentColor"/>
<path d="M10.5 15.0002C10.7761 15.0002 11 14.7763 11 14.5002C11 14.224 10.7761 14.0002 10.5 14.0002C10.2239 14.0002 10 14.224 10 14.5002C10 14.7763 10.2239 15.0002 10.5 15.0002Z" fill="currentColor"/>
<path d="M14.5 13.0002C14.7761 13.0002 15 12.7763 15 12.5002C15 12.224 14.7761 12.0002 14.5 12.0002C14.2239 12.0002 14 12.224 14 12.5002C14 12.7763 14.2239 13.0002 14.5 13.0002Z" fill="currentColor"/>
<path d="M10 13.0002H13V12.0002H10V13.0002Z" fill="currentColor"/>
<path d="M15 10.0002H12V11.0002H15V10.0002Z" fill="currentColor"/>
<path d="M10.5 11.0002C10.7761 11.0002 11 10.7763 11 10.5002C11 10.224 10.7761 10.0002 10.5 10.0002C10.2239 10.0002 10 10.224 10 10.5002C10 10.7763 10.2239 11.0002 10.5 11.0002Z" fill="currentColor"/>
<path d="M10.7464 7.06511L6.49635 4.65766C6.3435 4.57121 6.1565 4.57121 6.00365 4.65766L1.75365 7.06511C1.5969 7.15396 1.5 7.32001 1.5 7.50016V12.5002C1.5 12.6804 1.5969 12.8464 1.75365 12.9352L6.00365 15.3427L6.49635 14.4726L2.5 12.2087V7.79166L6.25 5.66741L10 7.79166V9.00016H11V7.50016C11 7.31996 10.9031 7.15396 10.7464 7.06511Z" fill="currentColor"/>
<path d="M12.5 7.50016H13.5V3.50016C13.5 3.31996 13.4031 3.15396 13.2464 3.06511L8.99635 0.657611C8.8435 0.571161 8.6565 0.571161 8.50365 0.657611L4.2537 3.06511L4.7464 3.93521L8.75 1.66741L12.5 3.79166V7.50016Z" fill="currentColor"/>
</svg>
