<svg viewBox="0 0 16 17" fill="none" xmlns="http://www.w3.org/2000/svg">
<g clip-path="url(#clip0_1961_11981)">
<rect width="16" height="16" transform="translate(0 0.513672)" fill="white" fill-opacity="0.01" style="mix-blend-mode:multiply"/>
<path d="M13 5.51367V11.5137C13 11.7789 12.8946 12.0332 12.7071 12.2208C12.5196 12.4083 12.2652 12.5137 12 12.5137H4C3.73478 12.5137 3.48043 12.4083 3.29289 12.2208C3.10536 12.0332 3 11.7789 3 11.5137V5.51367C3 5.24846 3.10536 4.9941 3.29289 4.80657C3.48043 4.61903 3.73478 4.51367 4 4.51367H12C12.2652 4.51367 12.5196 4.61903 12.7071 4.80657C12.8946 4.9941 13 5.24846 13 5.51367ZM4 11.5137H12V5.51367H4V11.5137Z" fill="currentColor"/>
<path d="M12 14.5137V16.5137H11V14.5137H5V16.5137H4V14.5137C4 14.2485 4.10536 13.9941 4.29289 13.8066C4.48043 13.619 4.73478 13.5137 5 13.5137H11C11.2652 13.5137 11.5196 13.619 11.7071 13.8066C11.8946 13.9941 12 14.2485 12 14.5137Z" fill="currentColor"/>
<path d="M12 0.513672V2.51367C12 2.77889 11.8946 3.03324 11.7071 3.22078C11.5196 3.40832 11.2652 3.51367 11 3.51367H5C4.73478 3.51367 4.48043 3.40832 4.29289 3.22078C4.10536 3.03324 4 2.77889 4 2.51367V0.513672H5V2.51367H11V0.513672H12Z" fill="currentColor"/>
</g>
<defs>
<clipPath id="clip0_1961_11981">
<rect width="16" height="16" fill="white" transform="translate(0 0.513672)"/>
</clipPath>
</defs>
</svg>
