<svg viewBox="0 0 16 16" fill="none" xmlns="http://www.w3.org/2000/svg">
<rect width="16" height="16" fill="white" fill-opacity="0.01" style="mix-blend-mode:multiply"/>
<path d="M2 14.9997V12.9997H7.5V14.9997H8.5V12.9997H14V14.9997H15V12.9997C15 12.7345 14.8946 12.4801 14.7071 12.2926C14.5196 12.105 14.2652 11.9997 14 11.9997H8.5V9.49969H7.5V11.9997H2C1.73478 11.9997 1.48043 12.105 1.29289 12.2926C1.10536 12.4801 1 12.7345 1 12.9997V14.9997H2Z" fill="currentColor"/>
<path d="M10.3476 6.99259C10.693 6.37925 10.9061 5.70038 10.9732 4.99969H11.5V3.99969H10V4.49969C9.98923 5.06038 9.87672 5.61445 9.66795 6.13494L8.32555 4.44049C8.79991 4.16986 9.17542 3.75479 9.39735 3.25579C9.47966 3.03704 9.51385 2.80311 9.49759 2.56996C9.48132 2.3368 9.41499 2.10989 9.3031 1.90469C9.18872 1.69044 9.02952 1.50337 8.83632 1.3562C8.64312 1.20904 8.42048 1.10524 8.18355 1.05189C7.76293 0.929123 7.31142 0.970116 6.91979 1.16663C6.52815 1.36313 6.22541 1.7006 6.0724 2.11119C5.8202 2.88709 6.2927 3.66909 6.703 4.16504C6.28568 4.40091 5.94998 4.75815 5.74047 5.18932C5.53096 5.62048 5.45755 6.10517 5.53 6.57904C5.60326 7.10775 5.86403 7.59255 6.2648 7.94509C6.66557 8.29763 7.17966 8.49445 7.7134 8.49969H7.7163C8.44424 8.52095 9.1534 8.26681 9.70215 7.78804L10.266 8.49969H11.542L10.3476 6.99259ZM7.0235 2.42034C7.07553 2.28496 7.17063 2.17044 7.29415 2.09443C7.41767 2.01842 7.56275 1.98513 7.70705 1.99969C7.79475 1.99985 7.88217 2.0096 7.96775 2.02874C8.06419 2.05171 8.15467 2.09488 8.2332 2.15541C8.31172 2.21593 8.37652 2.29242 8.4233 2.37984C8.46712 2.45867 8.49334 2.54607 8.50017 2.636C8.50699 2.72594 8.49426 2.81629 8.46285 2.90084C8.2754 3.24971 7.98058 3.52894 7.62205 3.69719C7.29155 3.34049 6.90435 2.78629 7.0235 2.42034ZM7.7158 7.49969H7.71385C7.41811 7.49556 7.13392 7.38428 6.91401 7.1865C6.6941 6.98873 6.55341 6.71788 6.51805 6.42424C6.4752 6.10689 6.54142 5.78441 6.70584 5.50962C6.87026 5.23483 7.12315 5.02404 7.42305 4.91179L9.0788 7.00114C8.70594 7.33716 8.21748 7.51583 7.7158 7.49969Z" fill="currentColor"/>
</svg>
