<svg viewBox="0 0 16 16" fill="none" xmlns="http://www.w3.org/2000/svg">
<rect width="16" height="16" fill="white" fill-opacity="0.01" style="mix-blend-mode:multiply"/>
<path d="M14.5 4C14.5 3.7239 14.2761 3.5 14 3.5H12C11.7239 3.5 11.5 3.7239 11.5 4V7.5H10.5V1.5C10.5 1.2239 10.2761 1 10 1H8C7.7239 1 7.5 1.2239 7.5 1.5V7.5H6.5V2.5C6.5 2.2239 6.2761 2 6 2H4C3.7239 2 3.5 2.2239 3.5 2.5V7.5H1.5V13.5C1.5 13.7761 1.7239 14 2 14H4C4.2761 14 4.5 13.7761 4.5 13.5V8.5H5.5V11C5.5 11.2761 5.7239 11.5 6 11.5H8C8.2761 11.5 8.5 11.2761 8.5 11V8.5H9.5V14.5C9.5 14.7761 9.7239 15 10 15H12C12.2761 15 12.5 14.7761 12.5 14.5V8.5H14.5V4ZM3.5 13H2.5V8.5H3.5V13ZM7.5 10.5H6.5V8.5H7.5V10.5ZM8.5 7.5V2H9.5V7.5H8.5ZM13.5 7.5H12.5V4.5H13.5V7.5Z" fill="currentColor"/>
</svg>
