<svg viewBox="0 0 16 16" fill="none" xmlns="http://www.w3.org/2000/svg">
<rect width="16" height="16" fill="white" fill-opacity="0.01" style="mix-blend-mode:multiply"/>
<path d="M13 12C13.5523 12 14 11.5523 14 11C14 10.4477 13.5523 10 13 10C12.4477 10 12 10.4477 12 11C12 11.5523 12.4477 12 13 12Z" fill="currentColor"/>
<path d="M10 12C10.5523 12 11 11.5523 11 11C11 10.4477 10.5523 10 10 10C9.44772 10 9 10.4477 9 11C9 11.5523 9.44772 12 10 12Z" fill="currentColor"/>
<path d="M7 4C7.55228 4 8 3.55228 8 3C8 2.44772 7.55228 2 7 2C6.44772 2 6 2.44772 6 3C6 3.55228 6.44772 4 7 4Z" fill="currentColor"/>
<path d="M4 4C4.55228 4 5 3.55228 5 3C5 2.44772 4.55228 2 4 2C3.44772 2 3 2.44772 3 3C3 3.55228 3.44772 4 4 4Z" fill="currentColor"/>
<path d="M4.11695 12C6.0569 12 7.77245 10.7634 8.3861 8.92285L9.5626 5.3933C10.0398 3.9619 11.3742 3 12.883 3H15V2H12.883C10.9431 2 9.22755 3.23655 8.6139 5.07715L7.4374 8.6067C6.96025 10.0381 5.62575 11 4.11695 11H2V1H1V14C1 14.5512 1.4485 15 2 15H15V14H2V12H4.11695Z" fill="currentColor"/>
</svg>
