<svg viewBox="0 0 16 16" fill="none" xmlns="http://www.w3.org/2000/svg">
<rect width="16" height="16" fill="white" fill-opacity="0.01" style="mix-blend-mode:multiply"/>
<path d="M8.00013 1C6.42424 0.99976 4.89492 1.53437 3.66238 2.51635C3.60884 2.50643 3.55457 2.50097 3.50013 2.5C3.23492 2.5 2.98056 2.60536 2.79302 2.7929C2.60549 2.98043 2.50013 3.23479 2.50013 3.5C2.50109 3.55448 2.50656 3.60878 2.51648 3.66235C1.53622 4.9052 1.00661 6.44385 1.01424 8.02673C1.02188 9.60962 1.56631 11.1431 2.55852 12.3764C3.55072 13.6097 4.93201 14.47 6.47653 14.8164C8.02105 15.1629 9.63742 14.9751 11.0614 14.2838C12.4853 13.5924 13.6326 12.4385 14.3156 11.0105C14.9987 9.58254 15.177 7.9651 14.8216 6.42262C14.4661 4.88015 13.5978 3.5039 12.3587 2.5189C11.1196 1.53389 9.58303 0.998413 8.00013 1ZM8.00013 14C6.88961 14.0021 5.80037 13.6954 4.85412 13.1142C3.90787 12.5329 3.14189 11.7 2.64176 10.7084C2.14164 9.71689 1.92708 8.60582 2.02205 7.49936C2.11703 6.39291 2.5178 5.33465 3.17958 4.44285C3.36454 4.51144 3.56671 4.51846 3.75598 4.46285L4.48768 5.19455C3.82139 6.02473 3.47148 7.06451 3.50031 8.12861C3.52915 9.19272 3.93485 10.212 4.64512 11.0049C5.3554 11.7978 6.32411 12.3127 7.37865 12.458C8.43319 12.6032 9.50504 12.3694 10.4032 11.7981C10.595 11.9432 10.8327 12.0141 11.0726 11.9976C11.3125 11.981 11.5384 11.8783 11.7084 11.7082C11.8785 11.5382 11.9812 11.3124 11.9977 11.0725C12.0142 10.8326 11.9434 10.5948 11.7982 10.4031C12.2566 9.68535 12.5001 8.85153 12.5001 7.99995C12.5001 7.14837 12.2566 6.31456 11.7982 5.59685C11.9434 5.40512 12.0142 5.16735 11.9977 4.92744C11.9812 4.68754 11.8785 4.46171 11.7084 4.29167C11.5384 4.12163 11.3125 4.01886 11.0726 4.00235C10.8327 3.98584 10.595 4.05671 10.4032 4.20185C9.61432 3.69856 8.6874 3.45542 7.75302 3.50666C6.81864 3.55791 5.92388 3.90096 5.19473 4.4875L4.46303 3.75585C4.5187 3.56659 4.51168 3.3644 4.44303 3.17945C5.20603 2.61625 6.09174 2.24205 7.02743 2.08758C7.96311 1.93311 8.9221 2.00278 9.82563 2.29087C10.7292 2.57897 11.5515 3.07726 12.2251 3.74484C12.8986 4.41242 13.4043 5.23024 13.7004 6.13116C13.9966 7.03208 14.0749 7.9904 13.9288 8.92744C13.7827 9.86447 13.4164 10.7535 12.8601 11.5215C12.3037 12.2895 11.5731 12.9146 10.7283 13.3455C9.88346 13.7763 8.94848 14.0006 8.00013 14ZM8.00013 7C8.19791 7 8.39125 7.05865 8.5557 7.16853C8.72015 7.27842 8.84832 7.43459 8.92401 7.61732C8.9997 7.80005 9.0195 8.00111 8.98092 8.19509C8.94233 8.38907 8.84709 8.56726 8.70724 8.70711C8.56739 8.84696 8.3892 8.9422 8.19522 8.98079C8.00124 9.01937 7.80017 8.99957 7.61745 8.92388C7.43472 8.8482 7.27854 8.72002 7.16866 8.55557C7.05878 8.39112 7.00013 8.19778 7.00013 8C7.00046 7.73489 7.10593 7.48073 7.29339 7.29326C7.48085 7.1058 7.73502 7.00033 8.00013 7ZM9.71668 6.9905L10.7443 5.9629C10.7816 5.9726 10.8194 5.98018 10.8575 5.9856C11.2756 6.57413 11.5001 7.27813 11.5001 8C11.5001 8.72188 11.2756 9.42588 10.8575 10.0144C10.8194 10.0198 10.7816 10.0274 10.7443 10.0371L9.71668 9.0095C9.90206 8.70541 10.0001 8.35615 10.0001 8C10.0001 7.64386 9.90206 7.29459 9.71668 6.9905ZM10.0145 5.1426C10.0199 5.18076 10.0275 5.21857 10.0372 5.25585L9.00963 6.28345C8.70554 6.09807 8.35627 6.00001 8.00013 6.00001C7.64399 6.00001 7.29472 6.09807 6.99063 6.28345L5.90798 5.2007C6.49756 4.7561 7.2134 4.51079 7.95176 4.50035C8.69011 4.4899 9.41261 4.71485 10.0145 5.1426ZM6.28358 6.9905C6.09989 7.29533 6.00196 7.64411 6.00013 8C6.00073 8.53025 6.21163 9.03862 6.58658 9.41356C6.96152 9.7885 7.46988 9.99941 8.00013 10C8.35602 9.99815 8.7048 9.90022 9.00963 9.71655L10.0372 10.7442C10.0275 10.7814 10.0199 10.8192 10.0145 10.8574C9.33471 11.3392 8.50507 11.5623 7.67529 11.4862C6.8455 11.4102 6.07021 11.0401 5.48927 10.4428C4.90834 9.8454 4.56001 9.06009 4.50714 8.22851C4.45427 7.39693 4.70033 6.57383 5.20093 5.9077L6.28358 6.9905Z" fill="currentColor"/>
</svg>
