<svg viewBox="0 0 16 16" fill="none" xmlns="http://www.w3.org/2000/svg">
<rect width="16" height="16" fill="white" fill-opacity="0.01" style="mix-blend-mode:multiply"/>
<path d="M14.6214 2.01483L10.6214 1.01483C10.5193 0.989495 10.4119 0.996752 10.3142 1.03558L5.4642 2.97558L1.62135 2.01483C1.54764 1.99639 1.47069 1.99499 1.39635 2.01074C1.32201 2.0265 1.25225 2.05898 1.19235 2.10574C1.13245 2.15249 1.08399 2.21229 1.05066 2.28057C1.01733 2.34886 1.00001 2.42385 1 2.49983V13.4998C1.00001 13.6113 1.03728 13.7196 1.10589 13.8075C1.17449 13.8953 1.2705 13.9578 1.37865 13.9848L5.37865 14.9848C5.41836 14.9947 5.4591 14.9997 5.5 14.9998C5.56366 14.9999 5.62673 14.9877 5.6858 14.9639L10.5358 13.0239L14.3788 13.9849C14.4525 14.0033 14.5294 14.0047 14.6038 13.9889C14.6781 13.9731 14.7478 13.9406 14.8077 13.8939C14.8676 13.8471 14.916 13.7873 14.9494 13.7191C14.9827 13.6508 15 13.5758 15 13.4998V2.49983C15 2.38835 14.9627 2.28007 14.8941 2.19219C14.8255 2.10432 14.7295 2.04189 14.6214 2.01483ZM14 5.49983H11V2.14013L14 2.89013V5.49983ZM5 9.49983H2V6.49983H5V9.49983ZM6 5.49983V3.83838L10 2.23838V5.49983H6ZM10 6.49983V9.49983H6V6.49983H10ZM6 10.4998H10V12.1612L6 13.7612V10.4998ZM11 6.49983H14V9.49983H11V6.49983ZM5 3.89013V5.49983H2V3.14013L5 3.89013ZM2 10.4998H5V13.8594L2 13.1094V10.4998ZM11 12.1092V10.4998H14V12.8594L11 12.1092Z" fill="currentColor"/>
</svg>
