<svg viewBox="0 0 16 17" fill="none" xmlns="http://www.w3.org/2000/svg">
<g clip-path="url(#clip0_1961_10488)">
<rect width="16" height="16" transform="translate(0 0.513672)" fill="white" fill-opacity="0.01" style="mix-blend-mode:multiply"/>
<path d="M15.8535 10.6602L14.3535 9.16017C14.1585 8.96487 13.8416 8.96487 13.6465 9.16017L8.99995 13.8067V16.0137H11.2071L15.8534 11.3672C16.0487 11.1719 16.0488 10.8555 15.8535 10.6602ZM10.7928 15.0137H9.99995V14.2207L12.5 11.7207L13.2929 12.5137L10.7928 15.0137ZM14 11.8067L13.207 11.0137L14 10.2208L14.7928 11.0137L14 11.8067Z" fill="currentColor"/>
<path d="M10 10.5137V9.51367H8V6.01367H13V7.01367H14V3.51367C14 2.68652 13.3271 2.01367 12.5 2.01367H2.5C1.67285 2.01367 1 2.68652 1 3.51367V13.5137C1 14.3408 1.67285 15.0137 2.5 15.0137H8V10.5137H10ZM7 9.51367H2V6.01367H7V9.51367ZM2.5 3.01367H12.5C12.7758 3.01367 13 3.23777 13 3.51367V5.01367H2V3.51367C2 3.23777 2.22425 3.01367 2.5 3.01367ZM7 14.0137H2.5C2.22425 14.0137 2 13.7896 2 13.5137V10.5137H7V14.0137Z" fill="currentColor"/>
</g>
<defs>
<clipPath id="clip0_1961_10488">
<rect width="16" height="16" fill="white" transform="translate(0 0.513672)"/>
</clipPath>
</defs>
</svg>
