<svg viewBox="0 0 16 17" fill="none" xmlns="http://www.w3.org/2000/svg">
<g clip-path="url(#clip0_1961_10481)">
<rect width="16" height="16" transform="translate(0 0.513672)" fill="white" fill-opacity="0.01" style="mix-blend-mode:multiply"/>
<path d="M11.25 15.5137C10.285 15.5137 9.5 14.7286 9.5 13.7637C9.5 13.2964 9.6819 12.857 10.0122 12.5266L10.7195 13.2335C10.578 13.3751 10.5 13.5634 10.5 13.7637C10.5 14.1772 10.8365 14.5137 11.25 14.5137C11.4505 14.5137 11.6388 14.4356 11.7805 14.2939L14.2804 11.794C14.422 11.6523 14.5 11.464 14.5 11.2636C14.5 10.8501 14.1635 10.5136 13.75 10.5136C13.5494 10.5136 13.3608 10.5918 13.2191 10.7338L12.5113 10.0273C12.8421 9.69602 13.282 9.51362 13.75 9.51362C14.715 9.51362 15.5 10.2987 15.5 11.2636C15.5 11.731 15.318 12.1705 14.9875 12.5011L12.4876 15.0009C12.1572 15.3315 11.7176 15.5137 11.25 15.5137Z" fill="currentColor"/>
<path d="M8.25 16.0137C7.28505 16.0137 6.5 15.2286 6.5 14.2637C6.5 13.7963 6.682 13.3568 7.01245 13.0262L9.51235 10.5264C9.8428 10.1958 10.2824 10.0137 10.75 10.0137C11.715 10.0137 12.5 10.7987 12.5 11.7637C12.5 12.231 12.3181 12.6704 11.9878 13.0008L11.2805 12.2939C11.422 12.1523 11.5 11.964 11.5 11.7637C11.5 11.3501 11.1635 11.0137 10.75 11.0137C10.5495 11.0137 10.3612 11.0917 10.2195 11.2335L7.7196 13.7334C7.578 13.875 7.5 14.0634 7.5 14.2637C7.5 14.6773 7.83645 15.0137 8.25 15.0137C8.45055 15.0137 8.63915 14.9355 8.7809 14.7935L9.48865 15.5001C9.15785 15.8313 8.718 16.0137 8.25 16.0137Z" fill="currentColor"/>
<path d="M8 1.51367C5.35105 1.51367 2.5 2.13967 2.5 3.51367V12.5137C2.5 13.3535 3.567 13.9126 5 14.2212V13.1982C4.00305 12.9619 3.52735 12.6267 3.5 12.5137V10.7275C4.24685 11.102 5.3369 11.3352 6.5 11.4426V10.4438C4.56105 10.2551 3.5613 9.73287 3.5 9.51362V7.72747C4.56395 8.26117 6.3213 8.51362 8 8.51362C10.649 8.51362 13.5 7.88762 13.5 6.51362V3.51342C13.4997 2.13942 10.6488 1.51367 8 1.51367ZM3.49925 3.52122C3.5754 3.24362 5.07495 2.51367 8 2.51367C10.8988 2.51367 12.3974 3.23072 12.4984 3.51367C12.3974 3.79662 10.8988 4.51367 8 4.51367C5.07495 4.51367 3.57545 3.78367 3.49925 3.52122ZM12.5 6.50732C12.4197 6.78587 10.9207 7.51367 8 7.51367C5.07495 7.51367 3.57545 6.78367 3.5 6.51367V4.72752C4.56395 5.26122 6.3213 5.51367 8 5.51367C9.6787 5.51367 11.4361 5.26122 12.5 4.72752V6.50732Z" fill="currentColor"/>
</g>
<defs>
<clipPath id="clip0_1961_10481">
<rect width="16" height="16" fill="white" transform="translate(0 0.513672)"/>
</clipPath>
</defs>
</svg>
