<svg viewBox="0 0 16 17" fill="none" xmlns="http://www.w3.org/2000/svg">
<rect width="16" height="16" transform="translate(0 0.513672)" fill="white" fill-opacity="0.01" style="mix-blend-mode:multiply"/>
<path d="M14 1.51367H11.5V2.51367H14V14.5137H11.5V15.5137H14C14.265 15.5129 14.5189 15.4073 14.7062 15.2199C14.8936 15.0326 14.9992 14.7786 15 14.5137V2.51367C14.9992 2.24869 14.8936 1.99479 14.7062 1.80742C14.5189 1.62006 14.265 1.51445 14 1.51367Z" fill="currentColor"/>
<path d="M7 9.01367H4C3.93329 9.00965 3.86648 9.01982 3.804 9.04352C3.74151 9.06723 3.68476 9.10392 3.6375 9.15118C3.59025 9.19843 3.55356 9.25518 3.52985 9.31767C3.50615 9.38015 3.49597 9.44696 3.5 9.51367V12.5137C3.49597 12.5804 3.50615 12.6472 3.52985 12.7097C3.55356 12.7722 3.59025 12.8289 3.6375 12.8762C3.68476 12.9234 3.74151 12.9601 3.804 12.9838C3.86648 13.0075 3.93329 13.0177 4 13.0137H7C7.06671 13.0177 7.13352 13.0075 7.196 12.9838C7.25849 12.9601 7.31524 12.9234 7.36249 12.8762C7.40975 12.8289 7.44644 12.7722 7.47015 12.7097C7.49385 12.6472 7.50403 12.5804 7.5 12.5137V9.51367C7.50403 9.44696 7.49385 9.38015 7.47015 9.31767C7.44644 9.25518 7.40975 9.19843 7.36249 9.15118C7.31524 9.10392 7.25849 9.06723 7.196 9.04352C7.13352 9.01982 7.06671 9.00965 7 9.01367ZM6.5 12.0137H4.5V10.0137H6.5V12.0137Z" fill="currentColor"/>
<path d="M12.5 12.5137V9.51367C12.504 9.44696 12.4939 9.38015 12.4701 9.31767C12.4464 9.25518 12.4098 9.19843 12.3625 9.15118C12.3152 9.10392 12.2585 9.06723 12.196 9.04352C12.1335 9.01982 12.0667 9.00965 12 9.01367H9C8.93329 9.00965 8.86648 9.01982 8.804 9.04352C8.74151 9.06723 8.68476 9.10392 8.6375 9.15118C8.59025 9.19843 8.55355 9.25518 8.52985 9.31767C8.50615 9.38015 8.49597 9.44696 8.5 9.51367V12.5137C8.49597 12.5804 8.50615 12.6472 8.52985 12.7097C8.55355 12.7722 8.59025 12.8289 8.6375 12.8762C8.68476 12.9234 8.74151 12.9601 8.804 12.9838C8.86648 13.0075 8.93329 13.0177 9 13.0137H12C12.1325 13.0134 12.2595 12.9606 12.3532 12.8669C12.447 12.7732 12.4997 12.6462 12.5 12.5137ZM11.5 12.0137H9.5V10.0137H11.5V12.0137Z" fill="currentColor"/>
<path d="M7 4.01367H4C3.93329 4.00965 3.86648 4.01982 3.804 4.04352C3.74151 4.06723 3.68476 4.10392 3.6375 4.15118C3.59025 4.19843 3.55356 4.25518 3.52985 4.31767C3.50615 4.38016 3.49597 4.44696 3.5 4.51367V7.51367C3.49597 7.58038 3.50615 7.64719 3.52985 7.70967C3.55356 7.77216 3.59025 7.82891 3.6375 7.87617C3.68476 7.92342 3.74151 7.96012 3.804 7.98382C3.86648 8.00752 3.93329 8.0177 4 8.01367H7C7.06671 8.0177 7.13352 8.00752 7.196 7.98382C7.25849 7.96012 7.31524 7.92342 7.36249 7.87617C7.40975 7.82891 7.44644 7.77216 7.47015 7.70967C7.49385 7.64719 7.50403 7.58038 7.5 7.51367V4.51367C7.50403 4.44696 7.49385 4.38016 7.47015 4.31767C7.44644 4.25518 7.40975 4.19843 7.36249 4.15118C7.31524 4.10392 7.25849 4.06723 7.196 4.04352C7.13352 4.01982 7.06671 4.00965 7 4.01367ZM6.5 7.01367H4.5V5.01367H6.5V7.01367Z" fill="currentColor"/>
<path d="M9 8.01367H12C12.0667 8.0177 12.1335 8.00752 12.196 7.98382C12.2585 7.96012 12.3152 7.92342 12.3625 7.87617C12.4098 7.82891 12.4464 7.77216 12.4701 7.70967C12.4939 7.64719 12.504 7.58038 12.5 7.51367V4.51367C12.504 4.44696 12.4939 4.38016 12.4701 4.31767C12.4464 4.25518 12.4098 4.19843 12.3625 4.15118C12.3152 4.10392 12.2585 4.06723 12.196 4.04352C12.1335 4.01982 12.0667 4.00965 12 4.01367H9C8.93329 4.00965 8.86648 4.01982 8.804 4.04352C8.74151 4.06723 8.68476 4.10392 8.6375 4.15118C8.59025 4.19843 8.55355 4.25518 8.52985 4.31767C8.50615 4.38016 8.49597 4.44696 8.5 4.51367V7.51367C8.50028 7.64619 8.55304 7.77321 8.64675 7.86692C8.74046 7.96063 8.86748 8.01339 9 8.01367ZM9.5 5.01367H11.5V7.01367H9.5V5.01367Z" fill="currentColor"/>
<path d="M2 2.51367H4.5V1.51367H2C1.73502 1.51445 1.48112 1.62006 1.29375 1.80742C1.10638 1.99479 1.00078 2.24869 1 2.51367V14.5137C1.00078 14.7786 1.10638 15.0326 1.29375 15.2199C1.48112 15.4073 1.73502 15.5129 2 15.5137H4.5V14.5137H2V2.51367Z" fill="currentColor"/>
</svg>
