<svg viewBox="0 0 16 17" fill="none" xmlns="http://www.w3.org/2000/svg">
<rect width="16" height="16" transform="translate(0 0.513672)" fill="white" fill-opacity="0.01" style="mix-blend-mode:multiply"/>
<path d="M15.5 7.01367V6.01367H13.5C12.9486 6.01367 12.5 6.46242 12.5 7.01367V8.01367C12.5 8.56492 12.9486 9.01367 13.5 9.01367H14.5V10.0137H12.5V11.0137H14.5C15.0514 11.0137 15.5 10.5649 15.5 10.0137V9.01367C15.5 8.46242 15.0514 8.01367 14.5 8.01367H13.5V7.01367H15.5Z" fill="currentColor"/>
<path d="M8.5 7.01367V10.0137C8.5 10.5649 8.9486 11.0137 9.5 11.0137H11.5V10.0137H9.5V7.01367H11.5V6.01367H9.5C8.9486 6.01367 8.5 6.46242 8.5 7.01367Z" fill="currentColor"/>
<path d="M4.5 7.01367H5.5V10.0137H4.5V11.0137H7.5V10.0137H6.5V7.01367H7.5V6.01367H4.5V7.01367Z" fill="currentColor"/>
<path d="M0.5 7.01367V10.0137C0.5 10.5649 0.9486 11.0137 1.5 11.0137H3.5V10.0137H1.5V7.01367H3.5V6.01367H1.5C0.9486 6.01367 0.5 6.46242 0.5 7.01367Z" fill="currentColor"/>
</svg>
