<svg viewBox="0 0 16 17" fill="none" xmlns="http://www.w3.org/2000/svg">
<rect width="16" height="16" transform="translate(0 0.513672)" fill="white" fill-opacity="0.01" style="mix-blend-mode:multiply"/>
<path d="M11.75 9.51367L10.5 9.86367V8.51367H9.5V9.86367L8.25 9.51367L8 10.4637L9.2 10.8137L8.5 12.0137L9.35 12.5137L10 11.4137L10.65 12.5137L11.5 12.0137L10.8 10.8137L12 10.4637L11.75 9.51367Z" fill="currentColor"/>
<path d="M8 7.01367V6.01367H6.5V4.51367H5.5V6.01367H4V7.01367H5.5V8.51367H6.5V7.01367H8Z" fill="currentColor"/>
<path d="M13 2.51367H3C2.73502 2.51445 2.48112 2.62006 2.29375 2.80742C2.10638 2.99479 2.00078 3.24869 2 3.51367V13.5137C2.00078 13.7786 2.10638 14.0326 2.29375 14.2199C2.48112 14.4073 2.73502 14.5129 3 14.5137H13C13.265 14.5129 13.5189 14.4073 13.7062 14.2199C13.8936 14.0326 13.9992 13.7786 14 13.5137V3.51367C13.9992 3.24869 13.8936 2.99479 13.7062 2.80742C13.5189 2.62006 13.265 2.51445 13 2.51367ZM3 13.5137V3.51367H13V13.5137H3Z" fill="currentColor"/>
</svg>
