<svg viewBox="0 0 16 17" fill="none" xmlns="http://www.w3.org/2000/svg">
<rect width="16" height="16" transform="translate(0 0.513672)" fill="white" fill-opacity="0.01" style="mix-blend-mode:multiply"/>
<path d="M14 6.51367C14.5523 6.51367 15 6.06596 15 5.51367C15 4.96139 14.5523 4.51367 14 4.51367C13.4477 4.51367 13 4.96139 13 5.51367C13 6.06596 13.4477 6.51367 14 6.51367Z" fill="currentColor"/>
<path d="M9 15.0137H5.5V14.0137H9C11.4813 14.0137 13.5 11.995 13.5 9.51367V7.51367H14.5V9.51367C14.5 12.5464 12.0327 15.0137 9 15.0137Z" fill="currentColor"/>
<path d="M8 11.0137C6.62145 11.0137 5.5 9.89222 5.5 8.51367C5.5 7.13512 6.62145 6.01367 8 6.01367C9.37855 6.01367 10.5 7.13512 10.5 8.51367C10.5 9.89222 9.37855 11.0137 8 11.0137ZM8 7.01367C7.17285 7.01367 6.5 7.68652 6.5 8.51367C6.5 9.34082 7.17285 10.0137 8 10.0137C8.82715 10.0137 9.5 9.34082 9.5 8.51367C9.5 7.68652 8.82715 7.01367 8 7.01367Z" fill="currentColor"/>
<path d="M2 12.5137C2.55228 12.5137 3 12.066 3 11.5137C3 10.9614 2.55228 10.5137 2 10.5137C1.44772 10.5137 1 10.9614 1 11.5137C1 12.066 1.44772 12.5137 2 12.5137Z" fill="currentColor"/>
<path d="M2.5 9.51367H1.5V7.51367C1.5 4.48097 3.9673 2.01367 7 2.01367H10.5V3.01367H7C4.5187 3.01367 2.5 5.03237 2.5 7.51367V9.51367Z" fill="currentColor"/>
</svg>
