<svg viewBox="0 0 16 16" fill="none" xmlns="http://www.w3.org/2000/svg">
<rect width="16" height="16" fill="white" fill-opacity="0.01" style="mix-blend-mode:multiply"/>
<path d="M3.85009 2.34961C3.27659 2.7897 2.77115 3.31198 2.35009 3.89961L3.15009 4.49961C3.51732 3.99032 3.95502 3.53578 4.45009 3.14961L3.85009 2.34961Z" fill="currentColor"/>
<path d="M2.30009 6.14961L1.35009 5.84961C1.10858 6.54029 0.990112 7.26798 1.00009 7.99961H2.00009C1.99806 7.37067 2.09942 6.74567 2.30009 6.14961Z" fill="currentColor"/>
<path d="M1.35009 10.1996C1.58197 10.8968 1.91921 11.5544 2.35009 12.1496L3.15009 11.5496C2.78863 11.0435 2.50233 10.4877 2.30009 9.8996L1.35009 10.1996Z" fill="currentColor"/>
<path d="M3.90009 13.6496C4.49526 14.0805 5.15288 14.4177 5.85009 14.6496L6.15009 13.6996C5.56196 13.4974 5.0062 13.2111 4.50009 12.8496L3.90009 13.6496Z" fill="currentColor"/>
<path d="M5.85009 1.34961L6.15009 2.29961C6.74616 2.09893 7.37116 1.99758 8.00009 1.99961V0.999605C7.26847 0.989624 6.54077 1.10809 5.85009 1.34961Z" fill="currentColor"/>
<path d="M12.1001 13.6496C12.689 13.2107 13.2111 12.6886 13.6501 12.0996L12.8501 11.4996C12.4783 12.0215 12.022 12.4778 11.5001 12.8496L12.1001 13.6496Z" fill="currentColor"/>
<path d="M13.7001 9.84961L14.6501 10.1496C14.8676 9.45304 14.9854 8.72919 15.0001 7.99961H14.0001C14.0021 8.62854 13.9008 9.25354 13.7001 9.84961Z" fill="currentColor"/>
<path d="M14.6001 5.79961C14.3682 5.10239 14.031 4.44477 13.6001 3.84961L12.8001 4.44961C13.1616 4.95571 13.4479 5.51147 13.6501 6.09961L14.6001 5.79961Z" fill="currentColor"/>
<path d="M12.0501 2.29961C11.4549 1.86873 10.7973 1.53149 10.1001 1.29961L9.80009 2.24961C10.3882 2.45184 10.944 2.73815 11.4501 3.09961L12.0501 2.29961Z" fill="currentColor"/>
<path d="M10.1501 14.6496L9.85009 13.6996C9.25403 13.9003 8.62903 14.0016 8.00009 13.9996V14.9996C8.72679 14.9563 9.44718 14.839 10.1501 14.6496Z" fill="currentColor"/>
</svg>
