<svg viewBox="0 0 16 16" fill="none" xmlns="http://www.w3.org/2000/svg">
<rect width="16" height="16" fill="white" fill-opacity="0.01" style="mix-blend-mode:multiply"/>
<path d="M7.5 10.0002C7.77614 10.0002 8 9.77631 8 9.50017C8 9.22403 7.77614 9.00017 7.5 9.00017C7.22386 9.00017 7 9.22403 7 9.50017C7 9.77631 7.22386 10.0002 7.5 10.0002Z" fill="currentColor"/>
<path d="M13.85 4.65017L10.35 1.15017C10.306 1.10134 10.2519 1.06263 10.1915 1.03674C10.131 1.01084 10.0657 0.998364 10 1.00017H5C4.73502 1.00094 4.48111 1.10654 4.29374 1.29391C4.10637 1.48128 4.00077 1.73519 4 2.00017V7.00017H3C2.73488 7.00048 2.4807 7.10593 2.29323 7.2934C2.10576 7.48087 2.0003 7.73505 2 8.00017V11.0002C2.0003 11.2653 2.10576 11.5195 2.29323 11.7069C2.4807 11.8944 2.73488 11.9999 3 12.0002H4V14.0002C4.00077 14.2652 4.10637 14.5191 4.29374 14.7064C4.48111 14.8938 4.73502 14.9994 5 15.0002H13C13.265 14.9994 13.5189 14.8938 13.7063 14.7064C13.8936 14.5191 13.9992 14.2652 14 14.0002V5.00017C14.0018 4.93446 13.9893 4.86913 13.9634 4.80871C13.9375 4.74828 13.8988 4.6942 13.85 4.65017ZM10 2.20017L12.8 5.00017H10V2.20017ZM3 8.00017H7.7986L9.5 9.50017L7.8037 11.0002H3V8.00017ZM13 14.0002H5V12.0002H7.80445C8.04587 11.9997 8.27903 11.9122 8.4612 11.7538L10.1529 10.258C10.2614 10.1644 10.3485 10.0486 10.4084 9.91841C10.4683 9.78822 10.4996 9.64669 10.5001 9.50339C10.5005 9.36008 10.4702 9.21835 10.4112 9.08777C10.3522 8.95719 10.2658 8.84082 10.1579 8.74652L8.4562 7.24237C8.275 7.08613 8.04371 7.00017 7.80445 7.00017H5V2.00017H9V5.00017C9.00077 5.26515 9.10637 5.51906 9.29374 5.70643C9.48111 5.8938 9.73502 5.99941 10 6.00017H13V14.0002Z" fill="currentColor"/>
</svg>
