<svg viewBox="0 0 16 17" fill="none" xmlns="http://www.w3.org/2000/svg">
<rect width="16" height="16" transform="translate(0 0.513672)" fill="white" fill-opacity="0.01" style="mix-blend-mode:multiply"/>
<path d="M5.5 14.5139H1V15.5139H5.5V14.5139Z" fill="currentColor"/>
<path d="M15 14.5139H10.5V15.5139H15V14.5139Z" fill="currentColor"/>
<path d="M8.5 13.5974V9.42988L9.793 10.7209L10.5 10.0139L8 7.51388L5.5 10.0139L6.2065 10.7214L7.5 9.42988V13.5974L6.2065 12.3059L5.5 13.0139L8 15.5139L10.5 13.0139L9.793 12.3069L8.5 13.5974Z" fill="currentColor"/>
<path d="M11.5 8.51388H10.5V7.51388H11.5C11.8978 7.51388 12.2794 7.35585 12.5607 7.07454C12.842 6.79324 13 6.41171 13 6.01388C13 5.61606 12.842 5.23453 12.5607 4.95322C12.2794 4.67192 11.8978 4.51388 11.5 4.51388C11.4531 4.52108 11.4231 4.52483 11.3923 4.52703L10.9905 4.55563L10.8772 4.16888C10.7064 3.58497 10.3619 3.06689 9.88954 2.68351C9.41715 2.30014 8.83926 2.06964 8.23271 2.02266C7.62615 1.97569 7.01966 2.11446 6.49388 2.42054C5.96811 2.72661 5.54796 3.18548 5.2893 3.73613L5.1477 4.03583L4.72655 4.01308C4.26232 4.01619 3.81833 4.20359 3.49226 4.53405C3.1662 4.86452 2.98477 5.31097 2.98787 5.77521C2.99098 6.23944 3.17838 6.68343 3.50885 7.00949C3.83931 7.33556 4.28577 7.51699 4.75 7.51388H5.5V8.51388H4.75C4.03902 8.51427 3.35552 8.23929 2.84291 7.74662C2.33029 7.25395 2.02841 6.5819 2.0006 5.87146C1.97278 5.16103 2.2212 4.46743 2.69373 3.9362C3.16626 3.40496 3.82617 3.07738 4.535 3.02218C4.90832 2.3709 5.45757 1.83796 6.11981 1.48444C6.78205 1.13092 7.5305 0.971124 8.27937 1.02336C9.02824 1.07559 9.74725 1.33774 10.354 1.77977C10.9608 2.2218 11.4307 2.82583 11.71 3.52263C12.3528 3.57655 12.9498 3.87682 13.3764 4.36067C13.8029 4.84453 14.0259 5.47452 13.9988 6.11897C13.9717 6.76343 13.6965 7.37246 13.2309 7.81878C12.7652 8.26509 12.145 8.51415 11.5 8.51388Z" fill="currentColor"/>
</svg>
