<svg viewBox="0 0 16 16" fill="none" xmlns="http://www.w3.org/2000/svg">
<g clip-path="url(#clip0_1961_6410)">
<rect width="16" height="16" fill="white" fill-opacity="0.01" style="mix-blend-mode:multiply"/>
<path d="M15.4881 12.4874L12.9874 14.9882C12.6586 15.3137 12.2142 15.4959 11.7514 15.4947C11.2887 15.4936 10.8452 15.3092 10.518 14.982C10.1908 14.6548 10.0065 14.2113 10.0053 13.7486C10.0042 13.2858 10.1863 12.8415 10.5119 12.5126L11.2191 13.22C11.0785 13.3607 10.9994 13.5515 10.9994 13.7504C10.9994 13.9494 11.0785 14.1402 11.2191 14.2809C11.3598 14.4215 11.5506 14.5006 11.7496 14.5006C11.9485 14.5006 12.1393 14.4215 12.28 14.2809L14.7808 11.78C14.9215 11.6393 15.0006 11.4485 15.0006 11.2496C15.0006 11.0506 14.9215 10.8598 14.7808 10.7192C14.6402 10.5785 14.4494 10.4995 14.2504 10.4995C14.0515 10.4995 13.8607 10.5785 13.72 10.7192L13.0127 10.0119C13.3415 9.68629 13.7859 9.50417 14.2487 9.50533C14.7114 9.50648 15.1549 9.69082 15.4821 10.018C15.8093 10.3452 15.9936 10.7887 15.9948 11.2515C15.9959 11.7142 15.8137 12.1586 15.4881 12.4874Z" fill="currentColor"/>
<path d="M10.0126 10.5119L7.51185 13.0126C7.18628 13.3415 7.00415 13.7858 7.00531 14.2486C7.00646 14.7113 7.1908 15.1548 7.51801 15.482C7.84523 15.8092 8.28869 15.9936 8.75143 15.9947C9.21418 15.9959 9.65856 15.8137 9.9874 15.4882L9.28 14.7809C9.13932 14.9215 8.94852 15.0006 8.74957 15.0006C8.55063 15.0006 8.35983 14.9215 8.21915 14.7809C8.07847 14.6402 7.99944 14.4494 7.99944 14.2504C7.99944 14.0515 8.07847 13.8607 8.21915 13.72L10.72 11.2192C10.8607 11.0785 11.0515 10.9995 11.2504 10.9995C11.4494 10.9995 11.6402 11.0785 11.7809 11.2192C11.9215 11.3598 12.0006 11.5506 12.0006 11.7496C12.0006 11.9485 11.9215 12.1393 11.7809 12.28L12.4881 12.9873C12.8137 12.6585 12.9958 12.2141 12.9947 11.7514C12.9935 11.2886 12.8092 10.8451 12.482 10.5179C12.1548 10.1907 11.7113 10.0064 11.2486 10.0052C10.7858 10.0041 10.3414 10.1863 10.0126 10.5119Z" fill="currentColor"/>
<path d="M3.5 11C4.05228 11 4.5 10.5523 4.5 10C4.5 9.44773 4.05228 9.00002 3.5 9.00002C2.94772 9.00002 2.5 9.44773 2.5 10C2.5 10.5523 2.94772 11 3.5 11Z" fill="currentColor"/>
<path d="M7 10C6.60444 10 6.21776 9.88272 5.88886 9.66296C5.55996 9.4432 5.30362 9.13084 5.15224 8.76539C5.00087 8.39993 4.96126 7.9978 5.03843 7.60984C5.1156 7.22188 5.30608 6.86551 5.58579 6.58581C5.86549 6.3061 6.22186 6.11562 6.60982 6.03845C6.99778 5.96128 7.39992 6.00088 7.76537 6.15226C8.13082 6.30364 8.44318 6.55998 8.66294 6.88888C8.8827 7.21778 9 7.60446 9 8.00002C8.99844 8.52997 8.78723 9.03778 8.41249 9.41251C8.03776 9.78725 7.52995 9.99846 7 10ZM7 7.00002C6.80222 7.00002 6.60888 7.05867 6.44443 7.16855C6.27998 7.27843 6.15181 7.43461 6.07612 7.61734C6.00043 7.80006 5.98063 8.00113 6.01921 8.19511C6.0578 8.38909 6.15304 8.56727 6.29289 8.70713C6.43275 8.84698 6.61093 8.94222 6.80491 8.9808C6.99889 9.01939 7.19996 8.99959 7.38268 8.9239C7.56541 8.84821 7.72159 8.72004 7.83147 8.55559C7.94135 8.39114 8 8.1978 8 8.00002C7.99922 7.73504 7.89362 7.48114 7.70625 7.29377C7.51888 7.1064 7.26498 7.0008 7 7.00002Z" fill="currentColor"/>
<path d="M10.5 7.00002C11.0523 7.00002 11.5 6.5523 11.5 6.00002C11.5 5.44773 11.0523 5.00002 10.5 5.00002C9.94772 5.00002 9.5 5.44773 9.5 6.00002C9.5 6.5523 9.94772 7.00002 10.5 7.00002Z" fill="currentColor"/>
<path d="M5.6538 13.6363L1.5 11.2129V4.78712L7 1.57887L12.748 4.93192L13.252 4.06812L7.25195 0.568119C7.17548 0.523507 7.08853 0.5 7 0.5C6.91147 0.5 6.82452 0.523507 6.74805 0.568119L0.74805 4.06812C0.672546 4.11213 0.609906 4.17518 0.56638 4.25096C0.522855 4.32675 0.499967 4.41262 0.5 4.50002V11.5C0.499993 11.5874 0.52289 11.6733 0.566411 11.7492C0.609932 11.825 0.672557 11.8881 0.74805 11.9322L5.15 14.5L5.6538 13.6363Z" fill="currentColor"/>
</g>
<defs>
<clipPath id="clip0_1961_6410">
<rect width="16" height="16" fill="white"/>
</clipPath>
</defs>
</svg>
