<svg viewBox="0 0 16 16" fill="none" xmlns="http://www.w3.org/2000/svg">
<rect width="16" height="16" fill="white" fill-opacity="0.01" style="mix-blend-mode:multiply"/>
<path d="M12.9144 6.5575C12.6934 5.41598 12.0822 4.38688 11.1855 3.64661C10.2889 2.90633 9.16273 2.50097 8 2.5V3.49975C8.93025 3.50105 9.83113 3.8256 10.5485 4.41785C11.2658 5.01011 11.7551 5.83327 11.9325 6.74645L12.062 7.41945L12.7364 7.5415C13.4122 7.66334 14.018 8.03353 14.4348 8.57933C14.8515 9.12512 15.0491 9.80705 14.9886 10.4911C14.9281 11.1751 14.614 11.8118 14.1079 12.276C13.6019 12.7402 12.9405 12.9984 12.2538 12.9998H8V13.9998H12.2538C13.1902 13.9984 14.0923 13.6467 14.7826 13.014C15.4729 12.3813 15.9016 11.5132 15.9845 10.5805C16.0673 9.64771 15.7982 8.71771 15.2301 7.97328C14.662 7.22885 13.836 6.72383 12.9144 6.5575Z" fill="currentColor"/>
<path d="M7 11.9998H4V12.9998H7V11.9998Z" fill="currentColor"/>
<path d="M3 11.9998H2V12.9998H3V11.9998Z" fill="currentColor"/>
<path d="M7 9.99975H3V10.9998H7V9.99975Z" fill="currentColor"/>
<path d="M2 9.99975H1V10.9998H2V9.99975Z" fill="currentColor"/>
<path d="M7 7.99975H4V8.99975H7V7.99975Z" fill="currentColor"/>
<path d="M3 7.99975H2V8.99975H3V7.99975Z" fill="currentColor"/>
<path d="M7 5.99975H5V6.99975H7V5.99975Z" fill="currentColor"/>
<path d="M4 5.99975H3V6.99975H4V5.99975Z" fill="currentColor"/>
<path d="M7 3.99975H6V4.99975H7V3.99975Z" fill="currentColor"/>
</svg>
