<svg viewBox="0 0 16 17" fill="none" xmlns="http://www.w3.org/2000/svg">
<rect width="16" height="16" transform="translate(0 0.513672)" fill="white" fill-opacity="0.01" style="mix-blend-mode:multiply"/>
<path d="M11.7499 11.5139H11.4999V10.5139H11.7499C12.3467 10.5378 12.9284 10.3237 13.3673 9.91858C13.8061 9.5135 14.0661 8.95068 14.0899 8.35395C14.1138 7.75721 13.8996 7.17543 13.4946 6.7366C13.0895 6.29776 12.5267 6.03782 11.9299 6.01395H11.4999L11.4499 5.60395C11.339 4.76217 10.9259 3.98942 10.2875 3.42964C9.64909 2.86986 8.82898 2.56122 7.97993 2.56122C7.13088 2.56122 6.31077 2.86986 5.67238 3.42964C5.034 3.98942 4.62086 4.76217 4.50993 5.60395L4.49993 6.01395H4.06993C3.47319 6.03782 2.91038 6.29776 2.5053 6.7366C2.10022 7.17543 1.88606 7.75721 1.90993 8.35395C1.9338 8.95068 2.19374 9.5135 2.63258 9.91858C3.07141 10.3237 3.65319 10.5378 4.24993 10.5139H4.49993V11.5139H4.24993C3.44813 11.5089 2.67651 11.2076 2.08342 10.668C1.49033 10.1284 1.11764 9.38863 1.03699 8.59088C0.956351 7.79314 1.17345 6.99373 1.64656 6.34637C2.11966 5.69901 2.81537 5.24939 3.59993 5.08395C3.81578 4.07721 4.37035 3.17493 5.17109 2.52768C5.97183 1.88043 6.97031 1.52734 7.99993 1.52734C9.02955 1.52734 10.028 1.88043 10.8288 2.52768C11.6295 3.17493 12.1841 4.07721 12.3999 5.08395C13.1845 5.24939 13.8802 5.69901 14.3533 6.34637C14.8264 6.99373 15.0435 7.79314 14.9629 8.59088C14.8822 9.38863 14.5095 10.1284 13.9164 10.668C13.3233 11.2076 12.5517 11.5089 11.7499 11.5139Z" fill="currentColor"/>
<path d="M8.49993 13.5989V7.51395H7.49993V13.5989L6.20493 12.3089L5.49993 13.0139L7.99993 15.5139L10.4999 13.0139L9.79493 12.3089L8.49993 13.5989Z" fill="currentColor"/>
</svg>
