<svg viewBox="0 0 16 17" fill="none" xmlns="http://www.w3.org/2000/svg">
<rect width="16" height="16" transform="translate(0 0.513672)" fill="white" fill-opacity="0.01" style="mix-blend-mode:multiply"/>
<path d="M12.4004 6.58177C12.3036 6.13517 12.1384 5.70621 11.9107 5.31007L15 2.22077L14.2936 1.51367L1 14.8073L1.7071 15.5137L4.2071 13.0137H11.75C12.5553 13.014 13.3319 12.7153 13.9294 12.1754C14.5269 11.6355 14.9025 10.893 14.9836 10.0918C15.0646 9.29065 14.8451 8.48795 14.3679 7.83939C13.8906 7.19084 13.1894 6.74266 12.4004 6.58177ZM11.75 12.0137H5.20705L11.1709 6.04982C11.3246 6.3771 11.4259 6.72649 11.4712 7.08522L11.5205 7.49122L11.9282 7.52317C12.5075 7.56899 13.0466 7.83729 13.4324 8.27184C13.8183 8.70638 14.0209 9.27342 13.9979 9.85409C13.9748 10.4348 13.7279 10.984 13.3088 11.3866C12.8898 11.7892 12.3311 12.0139 11.75 12.0137Z" fill="currentColor"/>
<path d="M2.1482 12.238L2.86385 11.5225C2.50694 11.2447 2.24251 10.8654 2.10538 10.4345C1.96825 10.0035 1.96485 9.54118 2.09563 9.10826C2.22641 8.67535 2.48523 8.29219 2.83802 8.00925C3.19081 7.72631 3.62102 7.55684 4.072 7.52317L4.47975 7.49122L4.5293 7.08522C4.60021 6.50219 4.81697 5.94645 5.15955 5.46939C5.50212 4.99232 5.95945 4.60933 6.48925 4.35582C7.01904 4.10231 7.6042 3.98647 8.19063 4.019C8.77705 4.05154 9.3458 4.23141 9.8443 4.54197L10.5659 3.82057C9.95698 3.39619 9.25246 3.12925 8.51524 3.0436C7.77802 2.95795 7.03106 3.05627 6.34111 3.32976C5.65116 3.60325 5.03971 4.0434 4.56138 4.61087C4.08306 5.17835 3.75276 5.85549 3.6 6.58177C3.00275 6.70283 2.45167 6.98965 2.00986 7.40937C1.56805 7.82909 1.25338 8.36476 1.10188 8.95502C0.950372 9.54528 0.968163 10.1663 1.15321 10.7469C1.33826 11.3275 1.68309 11.8443 2.1482 12.238Z" fill="currentColor"/>
</svg>
