<svg viewBox="0 0 16 17" fill="none" xmlns="http://www.w3.org/2000/svg">
<rect width="16" height="16" transform="translate(0 0.513672)" fill="white" fill-opacity="0.01" style="mix-blend-mode:multiply"/>
<path d="M7.99985 4.01367C8.25338 4.01362 8.50629 4.03875 8.75485 4.08867C9.54033 4.23911 10.2627 4.62155 10.8286 5.18662C11.3946 5.75168 11.7782 6.47343 11.9299 7.25867L12.0599 7.93367L12.7349 8.05367C13.4166 8.17093 14.0292 8.54083 14.4503 9.08962C14.8715 9.63841 15.0704 10.3258 15.0073 11.0147C14.9442 11.7036 14.6238 12.3434 14.1099 12.8065C13.5961 13.2697 12.9266 13.5222 12.2349 13.5137H3.74985C3.05813 13.5222 2.3886 13.2697 1.87476 12.8065C1.36092 12.3434 1.04052 11.7036 0.977434 11.0147C0.914348 10.3258 1.11321 9.63841 1.53439 9.08962C1.95556 8.54083 2.56809 8.17093 3.24985 8.05367L3.91985 7.93367L4.04985 7.25867C4.22606 6.34182 4.71743 5.5155 5.43884 4.92285C6.16025 4.3302 7.06624 4.00856 7.99985 4.01367ZM7.99985 3.01367C6.83616 3.01271 5.70858 3.41767 4.81139 4.15878C3.91421 4.89989 3.30363 5.93073 3.08485 7.07367C2.16402 7.24039 1.3388 7.74538 0.771265 8.48945C0.203736 9.23352 -0.0650842 10.1629 0.017606 11.095C0.100296 12.0272 0.52852 12.8947 1.21817 13.5273C1.90782 14.1598 2.80905 14.5117 3.74485 14.5137H12.2449C13.1807 14.5117 14.0819 14.1598 14.7715 13.5273C15.4612 12.8947 15.8894 12.0272 15.9721 11.095C16.0548 10.1629 15.786 9.23352 15.2184 8.48945C14.6509 7.74538 13.8257 7.24039 12.9049 7.07367C12.7165 6.09058 12.2375 5.18664 11.5297 4.47885C10.8219 3.77106 9.91795 3.292 8.93485 3.10367C8.62659 3.04517 8.31362 3.01504 7.99985 3.01367Z" fill="currentColor"/>
</svg>
