<svg viewBox="0 0 16 17" fill="none" xmlns="http://www.w3.org/2000/svg">
<rect width="16" height="16" transform="translate(0 0.513672)" fill="white" fill-opacity="0.01" style="mix-blend-mode:multiply"/>
<path d="M12.5 11.0137C12.7761 11.0137 13 10.7898 13 10.5137C13 10.2375 12.7761 10.0137 12.5 10.0137C12.2239 10.0137 12 10.2375 12 10.5137C12 10.7898 12.2239 11.0137 12.5 11.0137Z" fill="currentColor"/>
<path d="M9.70705 15.5137H7.5V13.3065L10.0169 10.7897C10.0057 10.6981 10.0001 10.6059 10 10.5137C9.99968 10.0074 10.1531 9.51289 10.44 9.09569C10.7268 8.67849 11.1336 8.35821 11.6065 8.17725C12.0793 7.99629 12.596 7.96317 13.0881 8.08227C13.5802 8.20137 14.0245 8.46708 14.3623 8.84424C14.7001 9.2214 14.9154 9.69223 14.9797 10.1944C15.0441 10.6966 14.9544 11.2065 14.7226 11.6567C14.4908 12.1068 14.1278 12.4759 13.6816 12.7152C13.2354 12.9545 12.7271 13.0527 12.2239 12.9968L9.70705 15.5137ZM8.5 14.5137H9.29295L11.896 11.9105L12.1657 11.9724C12.4872 12.049 12.8249 12.0186 13.1274 11.8857C13.43 11.7529 13.681 11.525 13.8422 11.2365C14.0034 10.9481 14.066 10.6149 14.0206 10.2876C13.9752 9.96026 13.8241 9.65672 13.5905 9.42307C13.3568 9.18942 13.0533 9.03843 12.7259 8.99303C12.3986 8.94763 12.0654 9.01031 11.777 9.17154C11.4886 9.33277 11.2606 9.58374 11.1278 9.88633C10.995 10.1889 10.9646 10.5266 11.0413 10.848L11.1031 11.1177L8.5 13.7208V14.5137Z" fill="currentColor"/>
<path d="M4 4.51367H3V8.51367H4V4.51367Z" fill="currentColor"/>
<path d="M2 4.51367H1V8.51367H2V4.51367Z" fill="currentColor"/>
<path d="M10 4.51367H9V7.51367H10V4.51367Z" fill="currentColor"/>
<path d="M7 8.51367H6C5.73478 8.51367 5.48043 8.40831 5.29289 8.22078C5.10536 8.03324 5 7.77889 5 7.51367V5.51367C5 5.24846 5.10536 4.9941 5.29289 4.80657C5.48043 4.61903 5.73478 4.51367 6 4.51367H7C7.26522 4.51367 7.51957 4.61903 7.70711 4.80657C7.89464 4.9941 8 5.24846 8 5.51367V7.51367C8 7.77889 7.89464 8.03324 7.70711 8.22078C7.51957 8.40831 7.26522 8.51367 7 8.51367ZM6 7.51367H7V5.51367H6V7.51367Z" fill="currentColor"/>
<path d="M2 9.51367H1V13.5137H2V9.51367Z" fill="currentColor"/>
<path d="M8 9.51367H7V11.5137H8V9.51367Z" fill="currentColor"/>
<path d="M5 13.5137H4C3.73478 13.5137 3.48043 13.4083 3.29289 13.2208C3.10536 13.0332 3 12.7789 3 12.5137V10.5137C3 10.2485 3.10536 9.9941 3.29289 9.80657C3.48043 9.61903 3.73478 9.51367 4 9.51367H5C5.26522 9.51367 5.51957 9.61903 5.70711 9.80657C5.89464 9.9941 6 10.2485 6 10.5137V12.5137C6 12.7789 5.89464 13.0332 5.70711 13.2208C5.51957 13.4083 5.26522 13.5137 5 13.5137ZM4 12.5137H5V10.5137H4V12.5137Z" fill="currentColor"/>
<path d="M2 1.51367H1V3.51367H2V1.51367Z" fill="currentColor"/>
<path d="M8 1.51367H7V3.51367H8V1.51367Z" fill="currentColor"/>
<path d="M10 1.51367H9V3.51367H10V1.51367Z" fill="currentColor"/>
<path d="M5 3.51367H4C3.73478 3.51367 3.48043 3.40832 3.29289 3.22078C3.10536 3.03324 3 2.77889 3 2.51367V1.51367H4V2.51367H5V1.51367H6V2.51367C6 2.77889 5.89464 3.03324 5.70711 3.22078C5.51957 3.40832 5.26522 3.51367 5 3.51367Z" fill="currentColor"/>
</svg>
