<svg viewBox="0 0 16 17" fill="none" xmlns="http://www.w3.org/2000/svg">
<rect width="16" height="16" transform="translate(0 0.513672)" fill="white" fill-opacity="0.01" style="mix-blend-mode:multiply"/>
<path d="M3 11.0137V10.5137H2V11.0137C2 11.9419 2.36875 12.8322 3.02513 13.4885C3.6815 14.1449 4.57174 14.5137 5.5 14.5137H7V13.5137H5.5C4.83696 13.5137 4.20107 13.2503 3.73223 12.7814C3.26339 12.3126 3 11.6767 3 11.0137Z" fill="currentColor"/>
<path d="M12 6.01367V6.51367H13V6.01367C13 5.08542 12.6313 4.19518 11.9749 3.5388C11.3185 2.88242 10.4283 2.51367 9.5 2.51367H8V3.51367H9.5C9.8283 3.51367 10.1534 3.57834 10.4567 3.70397C10.76 3.82961 11.0356 4.01376 11.2678 4.24591C11.4999 4.47805 11.6841 4.75365 11.8097 5.05696C11.9353 5.36028 12 5.68537 12 6.01367Z" fill="currentColor"/>
<path d="M5.5 6.01367H2.5C2.10218 6.01367 1.72064 6.17171 1.43934 6.45301C1.15804 6.73432 1 7.11585 1 7.51367V8.51367H2V7.51367C2 7.38106 2.05268 7.25389 2.14645 7.16012C2.24021 7.06635 2.36739 7.01367 2.5 7.01367H5.5C5.63261 7.01367 5.75979 7.06635 5.85355 7.16012C5.94732 7.25389 6 7.38106 6 7.51367V8.51367H7V7.51367C7 7.11585 6.84196 6.73432 6.56066 6.45301C6.27936 6.17171 5.89782 6.01367 5.5 6.01367Z" fill="currentColor"/>
<path d="M4 5.51367C4.39556 5.51367 4.78224 5.39637 5.11114 5.17661C5.44004 4.95685 5.69638 4.64449 5.84776 4.27904C5.99913 3.91359 6.03874 3.51145 5.96157 3.12349C5.8844 2.73553 5.69392 2.37916 5.41421 2.09946C5.13451 1.81975 4.77814 1.62927 4.39018 1.5521C4.00222 1.47493 3.60009 1.51454 3.23463 1.66591C2.86918 1.81729 2.55682 2.07363 2.33706 2.40253C2.1173 2.73143 2 3.11811 2 3.51367C2 4.04411 2.21071 4.55281 2.58579 4.92789C2.96086 5.30296 3.46957 5.51367 4 5.51367ZM4 2.51367C4.19778 2.51367 4.39112 2.57232 4.55557 2.6822C4.72002 2.79208 4.84819 2.94826 4.92388 3.13099C4.99957 3.31372 5.01937 3.51478 4.98079 3.70876C4.9422 3.90274 4.84696 4.08093 4.70711 4.22078C4.56725 4.36063 4.38907 4.45587 4.19509 4.49446C4.00111 4.53304 3.80004 4.51324 3.61732 4.43755C3.43459 4.36186 3.27841 4.23369 3.16853 4.06924C3.05865 3.90479 3 3.71145 3 3.51367C3 3.24846 3.10536 2.9941 3.29289 2.80657C3.48043 2.61903 3.73478 2.51367 4 2.51367Z" fill="currentColor"/>
<path d="M13.5 13.0137H10.5C10.1022 13.0137 9.72064 13.1717 9.43934 13.453C9.15804 13.7343 9 14.1158 9 14.5137V15.5137H10V14.5137C10 14.3811 10.0527 14.2539 10.1464 14.1601C10.2402 14.0664 10.3674 14.0137 10.5 14.0137H13.5C13.6326 14.0137 13.7598 14.0664 13.8536 14.1601C13.9473 14.2539 14 14.3811 14 14.5137V15.5137H15V14.5137C15 14.1158 14.842 13.7343 14.5607 13.453C14.2794 13.1717 13.8978 13.0137 13.5 13.0137Z" fill="currentColor"/>
<path d="M10 10.5137C10 10.9092 10.1173 11.2959 10.3371 11.6248C10.5568 11.9537 10.8692 12.2101 11.2346 12.3614C11.6001 12.5128 12.0022 12.5524 12.3902 12.4752C12.7781 12.3981 13.1345 12.2076 13.4142 11.9279C13.6939 11.6482 13.8844 11.2918 13.9616 10.9039C14.0387 10.5159 13.9991 10.1138 13.8478 9.74831C13.6964 9.38285 13.44 9.0705 13.1111 8.85073C12.7822 8.63097 12.3956 8.51367 12 8.51367C11.4696 8.51367 10.9609 8.72439 10.5858 9.09946C10.2107 9.47453 10 9.98324 10 10.5137ZM13 10.5137C13 10.7115 12.9414 10.9048 12.8315 11.0692C12.7216 11.2337 12.5654 11.3619 12.3827 11.4376C12.2 11.5132 11.9989 11.533 11.8049 11.4945C11.6109 11.4559 11.4327 11.3606 11.2929 11.2208C11.153 11.0809 11.0578 10.9027 11.0192 10.7088C10.9806 10.5148 11.0004 10.3137 11.0761 10.131C11.1518 9.94826 11.28 9.79208 11.4444 9.6822C11.6089 9.57232 11.8022 9.51367 12 9.51367C12.2652 9.51367 12.5196 9.61903 12.7071 9.80657C12.8946 9.9941 13 10.2485 13 10.5137Z" fill="currentColor"/>
</svg>
