<svg viewBox="0 0 16 17" fill="none" xmlns="http://www.w3.org/2000/svg">
<rect width="16" height="16" transform="translate(0 0.513672)" fill="white" fill-opacity="0.01" style="mix-blend-mode:multiply"/>
<path d="M13 2.51367H12V14.5137H13V2.51367Z" fill="currentColor"/>
<path d="M9 3.51367V13.5137H7V3.51367H9ZM9 2.51367H7C6.73478 2.51367 6.48043 2.61903 6.29289 2.80657C6.10536 2.9941 6 3.24846 6 3.51367V13.5137C6 13.7789 6.10536 14.0332 6.29289 14.2208C6.48043 14.4083 6.73478 14.5137 7 14.5137H9C9.26522 14.5137 9.51957 14.4083 9.70711 14.2208C9.89464 14.0332 10 13.7789 10 13.5137V3.51367C10 3.24846 9.89464 2.9941 9.70711 2.80657C9.51957 2.61903 9.26522 2.51367 9 2.51367Z" fill="currentColor"/>
<path d="M4 2.51367H3V14.5137H4V2.51367Z" fill="currentColor"/>
</svg>
