<svg viewBox="0 0 16 17" fill="none" xmlns="http://www.w3.org/2000/svg">
<rect width="16" height="16" transform="translate(0 0.513672)" fill="white" fill-opacity="0.01" style="mix-blend-mode:multiply"/>
<path d="M14 9.01367H9C8.73489 9.014 8.48072 9.11947 8.29326 9.30693C8.10579 9.4944 8.00033 9.74856 8 10.0137V13.0137C8.00033 13.2788 8.10579 13.5329 8.29326 13.7204C8.48072 13.9079 8.73489 14.0133 9 14.0137H11V13.0137H9V10.0137H14V13.0137H12.7324L11.4355 14.959L12.2676 15.5137L13.2676 14.0137H14C14.2651 14.0133 14.5193 13.9079 14.7067 13.7204C14.8942 13.5329 14.9997 13.2788 15 13.0137V10.0137C14.9997 9.74856 14.8942 9.4944 14.7067 9.30693C14.5193 9.11947 14.2651 9.014 14 9.01367Z" fill="currentColor"/>
<path d="M4.33336 12.568L4.76406 12.1372C4.82173 12.0796 4.89505 12.0401 4.97493 12.0237C5.05482 12.0073 5.13775 12.0147 5.21346 12.045L5.73811 12.255C5.8154 12.2859 5.88165 12.3393 5.92833 12.4082C5.97501 12.4772 5.99998 12.5585 6.00001 12.6417V13.5958C6.00015 13.6525 5.9887 13.7087 5.96638 13.7608C5.94406 13.8129 5.91134 13.8599 5.87021 13.899C5.82909 13.938 5.78043 13.9683 5.72721 13.9879C5.67399 14.0074 5.61734 14.0159 5.56071 14.0129C1.88341 13.784 1.14071 10.6697 1.00281 9.47672C0.996145 9.4184 1.0019 9.35934 1.01969 9.3034C1.03749 9.24747 1.06692 9.19594 1.10606 9.1522C1.1452 9.10846 1.19316 9.0735 1.24678 9.04962C1.3004 9.02575 1.35847 9.01349 1.41716 9.01367H2.35426C2.43753 9.01368 2.51889 9.03864 2.58784 9.08532C2.65679 9.132 2.71018 9.19826 2.74111 9.27557L2.95111 9.80022C2.98141 9.87593 2.98882 9.95888 2.97242 10.0388C2.95602 10.1186 2.91654 10.192 2.85886 10.2496L2.42816 10.6803C2.50307 11.1569 2.72833 11.5972 3.07106 11.9367C3.41379 12.2763 3.85607 12.4975 4.33336 12.568Z" fill="currentColor"/>
<path d="M14 5.01367H10.5V6.01367H14V5.01367Z" fill="currentColor"/>
<path d="M15 3.01367H10.5V4.01367H15V3.01367Z" fill="currentColor"/>
<path d="M8.5 3.51367L7 4.61367V3.51367C6.99968 3.24855 6.89422 2.99438 6.70676 2.80692C6.51929 2.61945 6.26512 2.51399 6 2.51367H2C1.73488 2.51399 1.48071 2.61945 1.29324 2.80692C1.10578 2.99438 1.00032 3.24855 1 3.51367V6.51367C1.00032 6.77879 1.10578 7.03296 1.29324 7.22043C1.48071 7.4079 1.73488 7.51335 2 7.51367H6C6.26512 7.51335 6.51929 7.4079 6.70676 7.22043C6.89422 7.03296 6.99968 6.77879 7 6.51367V5.41367L8.5 6.51367V3.51367ZM2 6.51367V3.51367H6V6.51367H2Z" fill="currentColor"/>
</svg>
