<svg viewBox="0 0 16 17" fill="none" xmlns="http://www.w3.org/2000/svg">
<rect width="16" height="16" transform="translate(0 0.513672)" fill="white" fill-opacity="0.01" style="mix-blend-mode:multiply"/>
<path d="M13 7.01367C13.0026 8.1777 12.5495 9.2965 11.7375 10.1306L12.4442 10.8372C12.9887 10.2777 13.4076 9.60862 13.673 8.87446C13.9383 8.1403 14.0441 7.35798 13.9832 6.57971C13.9222 5.80144 13.696 5.04512 13.3196 4.36121C12.9432 3.6773 12.4252 3.08154 11.8003 2.61367L11.1997 3.41367C11.7606 3.83095 12.2157 4.37408 12.5284 4.99936C12.8411 5.62463 13.0026 6.31458 13 7.01367Z" fill="currentColor"/>
<path d="M10.5 7.01367C10.499 7.52465 10.3416 8.02307 10.0489 8.44187L10.7627 9.15577C11.307 8.45713 11.5655 7.57775 11.4858 6.69568C11.4061 5.81361 10.9942 4.99479 10.3335 4.40502L9.6665 5.15002C9.92855 5.38469 10.1382 5.67193 10.2818 5.99304C10.4254 6.31415 10.4998 6.66191 10.5 7.01367Z" fill="currentColor"/>
<path d="M15 14.8066L1.70715 1.51367L1 2.22072L2.855 4.07572C2.11376 5.24344 1.84048 6.64786 2.08977 8.00832C2.33907 9.36878 3.09257 10.5851 4.1997 11.4141L4.8003 10.6141C3.92506 9.96018 3.31867 9.00924 3.09503 7.93985C2.87138 6.87046 3.04586 5.75621 3.5857 4.80637L4.68385 5.90452C4.46464 6.5522 4.4409 7.25007 4.6156 7.91114C4.79029 8.57221 5.15569 9.16725 5.66625 9.62207L6.33325 8.87707C6.07127 8.64242 5.86166 8.35521 5.7181 8.03415C5.57453 7.71308 5.50021 7.36537 5.5 7.01367C5.50144 6.92231 5.508 6.8311 5.51965 6.74047L7.5 8.72072V15.5137H8.5V9.72072L14.2928 15.5137L15 14.8066Z" fill="currentColor"/>
</svg>
