<svg viewBox="0 0 16 17" fill="none" xmlns="http://www.w3.org/2000/svg">
<rect width="16" height="16" transform="translate(0 0.513672)" fill="white" fill-opacity="0.01" style="mix-blend-mode:multiply"/>
<path d="M8.5 6.51328H7.5V15.5133H8.5V6.51328Z" fill="currentColor"/>
<path d="M5.665 9.62328C5.29754 9.29497 5.00355 8.89278 4.80227 8.44301C4.60098 7.99324 4.49693 7.50604 4.49693 7.01328C4.49693 6.52053 4.60098 6.03332 4.80227 5.58355C5.00355 5.13378 5.29754 4.73159 5.665 4.40328L6.335 5.14828C6.0723 5.38279 5.8621 5.67016 5.71818 5.99156C5.57426 6.31296 5.49987 6.66113 5.49987 7.01328C5.49987 7.36543 5.57426 7.71361 5.71818 8.035C5.8621 8.3564 6.0723 8.64377 6.335 8.87828L5.665 9.62328Z" fill="currentColor"/>
<path d="M10.335 9.62328L9.665 8.87828C9.9277 8.64377 10.1379 8.3564 10.2818 8.035C10.4257 7.71361 10.5001 7.36543 10.5001 7.01328C10.5001 6.66113 10.4257 6.31296 10.2818 5.99156C10.1379 5.67016 9.9277 5.38279 9.665 5.14828L10.335 4.40328C10.7025 4.73159 10.9964 5.13378 11.1977 5.58355C11.399 6.03332 11.5031 6.52053 11.5031 7.01328C11.5031 7.50604 11.399 7.99324 11.1977 8.44301C10.9964 8.89278 10.7025 9.29497 10.335 9.62328Z" fill="currentColor"/>
<path d="M4.2 11.4133C3.51692 10.901 2.9625 10.2367 2.58065 9.47296C2.1988 8.70925 2 7.86713 2 7.01328C2 6.15943 2.1988 5.31731 2.58065 4.55361C2.9625 3.7899 3.51692 3.12559 4.2 2.61328L4.8 3.41328C4.24112 3.83244 3.7875 4.37597 3.47508 5.00082C3.16265 5.62567 3 6.31468 3 7.01328C3 7.71188 3.16265 8.40089 3.47508 9.02574C3.7875 9.65059 4.24112 10.1941 4.8 10.6133L4.2 11.4133Z" fill="currentColor"/>
<path d="M11.8 11.4133L11.2 10.6133C11.7589 10.1941 12.2125 9.65059 12.5249 9.02574C12.8373 8.40089 13 7.71188 13 7.01328C13 6.31468 12.8373 5.62567 12.5249 5.00082C12.2125 4.37597 11.7589 3.83244 11.2 3.41328L11.8 2.61328C12.4831 3.12559 13.0375 3.7899 13.4193 4.55361C13.8012 5.31731 14 6.15943 14 7.01328C14 7.86713 13.8012 8.70925 13.4193 9.47296C13.0375 10.2367 12.4831 10.901 11.8 11.4133Z" fill="currentColor"/>
</svg>
