<svg viewBox="0 0 16 16" fill="none" xmlns="http://www.w3.org/2000/svg">
<rect width="16" height="16" fill="white" fill-opacity="0.01" style="mix-blend-mode:multiply"/>
<path d="M2 10V11H4.293L1 14.293L1.707 15L5 11.707V14H6V10H2Z" fill="currentColor"/>
<path d="M11.5 8C10.7152 8 9.9938 8.25795 9.40935 8.69595L7.3007 6.58725C7.7387 6.0028 8 5.28485 8 4.5C8 2.57005 6.4297 1 4.5 1C2.5703 1 1 2.57005 1 4.5C1 6.42995 2.5703 8 4.5 8C5.2848 8 6.0092 7.73225 6.59365 7.2943L8.7023 9.403C8.26435 9.98745 8 10.7151 8 11.5C8 13.4299 9.5703 15 11.5 15C13.4297 15 15 13.4299 15 11.5C15 9.57005 13.4297 8 11.5 8ZM2 4.5C2 3.1216 3.1216 2 4.5 2C5.8784 2 7 3.1216 7 4.5C7 5.8784 5.8784 7 4.5 7C3.1216 7 2 5.8784 2 4.5Z" fill="currentColor"/>
</svg>
