<svg viewBox="0 0 16 17" fill="none" xmlns="http://www.w3.org/2000/svg">
<rect width="16" height="16" transform="translate(0 0.513672)" fill="white" fill-opacity="0.01" style="mix-blend-mode:multiply"/>
<path d="M13.5 7.01367V3.01367H11.5V2.01367H13.5C14.0514 2.01367 14.5 2.46242 14.5 3.01367V7.01367C14.5 7.77537 14.9399 8.01367 15.5 8.01367V9.01367C14.9399 9.01367 14.5 9.23877 14.5 10.0137V14.0137C14.5 14.5649 14.0514 15.0137 13.5 15.0137H11.5V14.0137H13.5V10.0137C13.5 9.17162 13.9399 8.73142 14.5 8.58447V8.45067C13.9399 8.30372 13.5 7.85572 13.5 7.01367Z" fill="currentColor"/>
<path d="M10 6.51367H6V10.5137H10V6.51367Z" fill="currentColor"/>
<path d="M2.5 7.01367V3.01367H4.5V2.01367H2.5C1.9486 2.01367 1.5 2.46242 1.5 3.01367V7.01367C1.5 7.77537 1.06005 8.01367 0.5 8.01367V9.01367C1.06005 9.01367 1.5 9.23877 1.5 10.0137V14.0137C1.5 14.5649 1.9486 15.0137 2.5 15.0137H4.5V14.0137H2.5V10.0137C2.5 9.17162 2.06005 8.73142 1.5 8.58447V8.45067C2.06005 8.30372 2.5 7.85572 2.5 7.01367Z" fill="currentColor"/>
</svg>
