<svg viewBox="0 0 16 17" fill="none" xmlns="http://www.w3.org/2000/svg">
<rect width="16" height="16" transform="translate(0 0.513672)" fill="white" fill-opacity="0.01" style="mix-blend-mode:multiply"/>
<path d="M11.5 12.5137C11.7761 12.5137 12 12.2898 12 12.0137C12 11.7375 11.7761 11.5137 11.5 11.5137C11.2239 11.5137 11 11.7375 11 12.0137C11 12.2898 11.2239 12.5137 11.5 12.5137Z" fill="currentColor"/>
<path d="M12.8951 9.94042L8.4003 6.82152C8.14885 6.63107 7.83915 6.51367 7.50005 6.51367C6.6729 6.51367 6.00005 7.18652 6.00005 8.01367C6.00005 8.34132 6.1087 8.64232 6.28765 8.88942L9.45805 13.4473C9.9108 14.0903 10.6555 14.5137 11.5 14.5137C12.8786 14.5137 14 13.3921 14 12.0137C14 11.1514 13.5611 10.3899 12.8951 9.94042ZM9.135 11.2397L7.89355 9.45457C8.4026 9.31517 8.8008 8.91697 8.94065 8.40817L10.7255 9.64887C9.9725 9.89642 9.38245 10.4868 9.135 11.2397ZM7.5 7.51367C7.77575 7.51367 8 7.73802 8 8.01367C8 8.28932 7.77575 8.51367 7.5 8.51367C7.22425 8.51367 7 8.28932 7 8.01367C7 7.73802 7.22425 7.51367 7.5 7.51367ZM11.5 13.5137C10.6728 13.5137 10 12.8408 10 12.0137C10 11.1865 10.6728 10.5137 11.5 10.5137C12.3271 10.5137 13 11.1865 13 12.0137C13 12.8408 12.3271 13.5137 11.5 13.5137Z" fill="currentColor"/>
<path d="M8 14.5137H3C2.4486 14.5137 2 14.0651 2 13.5137V3.51367C2 2.96227 2.4486 2.51367 3 2.51367H13C13.5514 2.51367 14 2.96227 14 3.51367V8.51367H13V3.51367H3V13.5137H8V14.5137Z" fill="currentColor"/>
</svg>
