<svg viewBox="0 0 16 16" fill="none" xmlns="http://www.w3.org/2000/svg">
<rect width="16" height="16" fill="white" fill-opacity="0.01" style="mix-blend-mode:multiply"/>
<path d="M8.00009 14.9996V13.9996C9.42951 13.9993 10.8119 13.4888 11.8984 12.56C12.9849 11.6312 13.7042 10.345 13.9268 8.93306C14.1494 7.52107 13.8607 6.07601 13.1127 4.85796C12.3646 3.63992 11.2063 2.72889 9.84629 2.28888L10.1539 1.33723C11.7406 1.85051 13.092 2.91333 13.9648 4.33438C14.8376 5.75543 15.1745 7.44137 14.9148 9.0887C14.6551 10.736 13.8159 12.2366 12.5482 13.3202C11.2806 14.4038 9.66777 14.9993 8.00009 14.9996Z" fill="currentColor"/>
<path d="M3.85009 2.3496C3.2766 2.7897 2.77116 3.31199 2.35009 3.8996L3.15009 4.4996C3.51733 3.99033 3.95503 3.53579 4.45009 3.1496L3.85009 2.3496Z" fill="currentColor"/>
<path d="M2.30009 6.1496L1.35009 5.8496C1.10858 6.54028 0.990123 7.26798 1.00009 7.9996H2.00009C1.99802 7.37066 2.09938 6.74566 2.30009 6.1496Z" fill="currentColor"/>
<path d="M5.85009 1.3496L6.15009 2.2996C6.74614 2.09889 7.37115 1.99754 8.00009 1.9996V0.999604C7.26847 0.989634 6.54077 1.1081 5.85009 1.3496Z" fill="currentColor"/>
<path d="M7.70125 12.1236C7.50449 11.5259 7.21455 10.9631 6.84215 10.4559L7.6488 9.86458C8.08326 10.4566 8.42149 11.1135 8.651 11.8111L7.70125 12.1236Z" fill="currentColor"/>
<path d="M5.5101 9.13297C5.00052 8.76405 4.43575 8.47813 3.83675 8.28582L4.14245 7.33367C4.84174 7.55822 5.5011 7.89202 6.09605 8.32267L5.5101 9.13297Z" fill="currentColor"/>
</svg>
