<svg viewBox="0 0 16 16" fill="none" xmlns="http://www.w3.org/2000/svg">
<rect width="16" height="16" fill="white" fill-opacity="0.01" style="mix-blend-mode:multiply"/>
<path d="M10.5 11.4997C11.0523 11.4997 11.5 11.052 11.5 10.4997C11.5 9.9474 11.0523 9.49969 10.5 9.49969C9.94772 9.49969 9.5 9.9474 9.5 10.4997C9.5 11.052 9.94772 11.4997 10.5 11.4997Z" fill="currentColor"/>
<path d="M3.5 4.49969C4.05228 4.49969 4.5 4.05197 4.5 3.49969C4.5 2.9474 4.05228 2.49969 3.5 2.49969C2.94772 2.49969 2.5 2.9474 2.5 3.49969C2.5 4.05197 2.94772 4.49969 3.5 4.49969Z" fill="currentColor"/>
<path d="M13.5 15.4997C13.1044 15.4997 12.7178 15.3824 12.3889 15.1626C12.06 14.9429 11.8036 14.6305 11.6522 14.2651C11.5009 13.8996 11.4613 13.4975 11.5384 13.1095C11.6156 12.7215 11.8061 12.3652 12.0858 12.0855C12.3655 11.8058 12.7219 11.6153 13.1098 11.5381C13.4978 11.4609 13.8999 11.5006 14.2654 11.6519C14.6308 11.8033 14.9432 12.0596 15.1629 12.3885C15.3827 12.7174 15.5 13.1041 15.5 13.4997C15.4984 14.0296 15.2872 14.5374 14.9125 14.9122C14.5378 15.2869 14.03 15.4981 13.5 15.4997ZM13.5 12.4997C13.3022 12.4997 13.1089 12.5583 12.9444 12.6682C12.78 12.7781 12.6518 12.9343 12.5761 13.117C12.5004 13.2997 12.4806 13.5008 12.5192 13.6948C12.5578 13.8888 12.653 14.0669 12.7929 14.2068C12.9327 14.3466 13.1109 14.4419 13.3049 14.4805C13.4989 14.5191 13.7 14.4993 13.8827 14.4236C14.0654 14.3479 14.2216 14.2197 14.3315 14.0553C14.4414 13.8908 14.5 13.6975 14.5 13.4997C14.4992 13.2347 14.3936 12.9808 14.2062 12.7934C14.0189 12.6061 13.765 12.5005 13.5 12.4997Z" fill="currentColor"/>
<path d="M15 7.99969C14.9946 6.14484 14.2553 4.36752 12.9437 3.05594C11.6322 1.74437 9.85484 1.00512 8 0.999688C6.80563 0.982641 5.62952 1.29396 4.6 1.89969L5.15 2.74969C5.54084 2.56183 5.94141 2.39493 6.35 2.24969C5.52345 3.88064 5.06273 5.67232 5 7.49969H2C2.05602 6.67411 2.29514 5.87136 2.7 5.14969L1.95 4.49969C1.32785 5.56117 0.999929 6.76932 1 7.99969C0.999888 8.91897 1.18087 9.82927 1.53262 10.6786C1.88436 11.5279 2.39997 12.2997 3.05 12.9497C3.70004 13.5997 4.47175 14.1153 5.32108 14.4671C6.17041 14.8188 7.08072 14.9998 8 14.9997C8.89134 15.0081 9.77535 14.8381 10.6 14.4997L10.3 13.5497C9.48024 13.9002 8.58989 14.0543 7.7 13.9997C6.63374 12.3597 6.04509 10.4553 6 8.49969H14.95C14.9913 8.33642 15.0082 8.16791 15 7.99969ZM6.4 13.7997C5.40573 13.5017 4.49713 12.9702 3.75 12.2497C2.75794 11.2346 2.14079 9.91209 2 8.49969H5C5.0688 10.3482 5.54696 12.1584 6.4 13.7997ZM6 7.49969C6.03977 5.55045 6.61023 3.64893 7.65 1.99969H8.35C9.38977 3.64893 9.96023 5.55045 10 7.49969H6ZM11 7.49969C10.962 5.64675 10.482 3.82969 9.6 2.19969C10.7764 2.53877 11.8222 3.22703 12.599 4.17342C13.3757 5.1198 13.8468 6.27971 13.95 7.49969H11Z" fill="currentColor"/>
</svg>
