<svg viewBox="0 0 16 17" fill="none" xmlns="http://www.w3.org/2000/svg">
<rect width="16" height="16" transform="translate(0 0.513672)" fill="white" fill-opacity="0.01" style="mix-blend-mode:multiply"/>
<path d="M15 11.7444V10.8214H13.95C13.9 10.5444 13.75 10.2675 13.6 9.9906L14.35 9.29829L13.65 8.65213L12.9 9.34444C12.65 9.20598 12.35 9.06752 12 9.02136V8.05213H11V9.02136C10.7 9.06752 10.4 9.20598 10.1 9.34444L9.35 8.65213L8.65 9.29829L9.4 9.9906C9.25 10.2214 9.1 10.4983 9.05 10.8214H8V11.7444H9.05C9.1 12.0214 9.25 12.2983 9.4 12.5752L8.65 13.2675L9.35 13.9137L10.1 13.2214C10.35 13.3598 10.65 13.4983 11 13.5444V14.5137H12V13.5444C12.3 13.4983 12.6 13.3598 12.9 13.2214L13.65 13.9137L14.35 13.2675L13.6 12.5752C13.75 12.3444 13.9 12.0675 13.95 11.7444H15ZM11.5 12.6675C10.65 12.6675 10 12.0675 10 11.2829C10 10.4983 10.65 9.89829 11.5 9.89829C12.35 9.89829 13 10.4983 13 11.2829C13 12.0675 12.35 12.6675 11.5 12.6675Z" fill="currentColor"/>
<path d="M7 13.5906H3C2.4486 13.5906 2 13.1765 2 12.6675V3.43675C2 2.92776 2.4486 2.51367 3 2.51367H13C13.5514 2.51367 14 2.92776 14 3.43675V7.12906H13V3.43675H3V12.6675H7V13.5906Z" fill="currentColor"/>
</svg>
