<svg viewBox="0 0 16 17" fill="none" xmlns="http://www.w3.org/2000/svg">
<rect width="16" height="16" transform="translate(0 0.513672)" fill="white" fill-opacity="0.01" style="mix-blend-mode:multiply"/>
<path d="M15 12.0137H10C9.4486 12.0137 9 11.5651 9 11.0137V6.01367C9 5.46227 9.4486 5.01367 10 5.01367H15C15.5514 5.01367 16 5.46227 16 6.01367V11.0137C16 11.5651 15.5514 12.0137 15 12.0137ZM10 6.01367V11.0137H15V6.01367H10Z" fill="currentColor"/>
<path d="M4.5 3.01367L7 5.51367L4.5 8.01367L3.7905 7.30917L5.0765 6.01367H0V5.01367H5.103L3.7905 3.71817L4.5 3.01367Z" fill="currentColor"/>
<path d="M2.5 14.0137L0 11.5137L2.5 9.01367L3.2095 9.71817L1.9235 11.0137H7V12.0137H1.897L3.2095 13.3092L2.5 14.0137Z" fill="currentColor"/>
</svg>
