<svg viewBox="0 0 16 17" fill="none" xmlns="http://www.w3.org/2000/svg">
<rect width="16" height="16" transform="translate(0 0.513672)" fill="white" fill-opacity="0.01" style="mix-blend-mode:multiply"/>
<path d="M5 12.0137C5.55228 12.0137 6 11.566 6 11.0137C6 10.4614 5.55228 10.0137 5 10.0137C4.44772 10.0137 4 10.4614 4 11.0137C4 11.566 4.44772 12.0137 5 12.0137Z" fill="currentColor"/>
<path d="M11.5 11.5137C12.0523 11.5137 12.5 11.066 12.5 10.5137C12.5 9.96139 12.0523 9.51367 11.5 9.51367C10.9477 9.51367 10.5 9.96139 10.5 10.5137C10.5 11.066 10.9477 11.5137 11.5 11.5137Z" fill="currentColor"/>
<path d="M6.5 6.51367C7.05228 6.51367 7.5 6.06596 7.5 5.51367C7.5 4.96139 7.05228 4.51367 6.5 4.51367C5.94772 4.51367 5.5 4.96139 5.5 5.51367C5.5 6.06596 5.94772 6.51367 6.5 6.51367Z" fill="currentColor"/>
<path d="M7 8.51367C7.27614 8.51367 7.5 8.28981 7.5 8.01367C7.5 7.73753 7.27614 7.51367 7 7.51367C6.72386 7.51367 6.5 7.73753 6.5 8.01367C6.5 8.28981 6.72386 8.51367 7 8.51367Z" fill="currentColor"/>
<path d="M11.5 4.01367C12.0523 4.01367 12.5 3.56596 12.5 3.01367C12.5 2.46139 12.0523 2.01367 11.5 2.01367C10.9477 2.01367 10.5 2.46139 10.5 3.01367C10.5 3.56596 10.9477 4.01367 11.5 4.01367Z" fill="currentColor"/>
<path d="M14.5 2.51367C14.7761 2.51367 15 2.28981 15 2.01367C15 1.73753 14.7761 1.51367 14.5 1.51367C14.2239 1.51367 14 1.73753 14 2.01367C14 2.28981 14.2239 2.51367 14.5 2.51367Z" fill="currentColor"/>
<path d="M8 12.5137C8.27614 12.5137 8.5 12.2898 8.5 12.0137C8.5 11.7375 8.27614 11.5137 8 11.5137C7.72386 11.5137 7.5 11.7375 7.5 12.0137C7.5 12.2898 7.72386 12.5137 8 12.5137Z" fill="currentColor"/>
<path d="M8 15.5137C4.15 15.5137 1 12.3637 1 8.51367C1 4.66367 4.15 1.51367 8 1.51367C8.05 1.51367 8.1 1.51367 8.15 1.51367L8.85 1.56367L8.7 2.16367C8.65 2.36367 8.6 2.61367 8.6 2.81367C8.6 4.21367 9.7 5.31367 11.1 5.31367C11.6 5.31367 12.1 5.16367 12.55 4.86367L13.2 5.61367C13 5.81367 12.9 6.06367 12.9 6.31367C12.9 6.96367 13.55 7.51367 14.25 7.26367L14.85 7.01367L14.95 7.66367C15 7.96367 15 8.26367 15 8.51367C15 12.3637 11.85 15.5137 8 15.5137ZM7.65 2.51367C4.5 2.71367 2 5.31367 2 8.51367C2 11.8137 4.7 14.5137 8 14.5137C11.3 14.5137 14 11.8137 14 8.51367C14 8.46367 14 8.36367 14 8.31367C12.85 8.36367 11.9 7.46367 11.9 6.31367C11.9 6.26367 11.9 6.26367 11.9 6.21367C11.65 6.26367 11.4 6.31367 11.1 6.31367C9.15 6.31367 7.6 4.76367 7.6 2.81367C7.6 2.71367 7.6 2.61367 7.65 2.51367Z" fill="currentColor"/>
</svg>
