<svg viewBox="0 0 16 16" fill="none" xmlns="http://www.w3.org/2000/svg">
<rect width="16" height="16" fill="white" fill-opacity="0.01" style="mix-blend-mode:multiply"/>
<path d="M5.9737 9.49957C5.48436 9.49967 5.00598 9.35464 4.59907 9.08283C4.19217 8.81102 3.87501 8.42463 3.68773 7.97255C3.50045 7.52047 3.45145 7.02299 3.54693 6.54306C3.64242 6.06313 3.87809 5.62229 4.22415 5.27632L6.7768 2.72417C7.24077 2.26016 7.87006 1.99947 8.52624 1.99945C9.18241 1.99943 9.81172 2.26007 10.2757 2.72404C10.7397 3.18801 11.0004 3.8173 11.0004 4.47348C11.0005 5.12965 10.7398 5.75896 10.2759 6.22297L9.9997 6.49926L9.2918 5.79282L9.57065 5.51386C9.84599 5.23713 10.0004 4.86252 10 4.47214C9.99967 4.08175 9.84456 3.70744 9.5687 3.43121C9.28782 3.16316 8.91447 3.01359 8.5262 3.01359C8.13793 3.01359 7.76458 3.16316 7.4837 3.43121L4.93135 5.98322C4.79443 6.12007 4.68582 6.28256 4.61172 6.4614C4.53762 6.64024 4.49948 6.83193 4.49948 7.02551C4.49948 7.2191 4.53762 7.41079 4.61172 7.58963C4.68582 7.76847 4.79443 7.93096 4.93135 8.06781C5.21223 8.33587 5.58558 8.48544 5.97385 8.48544C6.36212 8.48544 6.73547 8.33587 7.01635 8.06781L7.7235 8.77507C7.49421 9.0055 7.2215 9.18818 6.92115 9.31254C6.6208 9.4369 6.29878 9.50047 5.9737 9.49957Z" fill="currentColor"/>
<path d="M9.9737 8.49957C9.48436 8.49967 9.00598 8.35464 8.59907 8.08283C8.19217 7.81102 7.87501 7.42463 7.68773 6.97255C7.50045 6.52047 7.45145 6.02299 7.54693 5.54306C7.64242 5.06313 7.87809 4.62229 8.22415 4.27632L8.50045 4.00002L9.2076 4.70731L8.9313 4.98347C8.79442 5.12032 8.68584 5.28281 8.61175 5.46163C8.53767 5.64046 8.49954 5.83213 8.49954 6.02569C8.49954 6.21925 8.53767 6.41092 8.61175 6.58975C8.68584 6.76857 8.79442 6.93106 8.9313 7.06791C9.21218 7.33597 9.58553 7.48554 9.9738 7.48554C10.3621 7.48554 10.7354 7.33597 11.0163 7.06791C11.1463 6.93791 13.3809 4.70326 13.5689 4.51567C13.845 4.23905 14 3.86425 14 3.47349C14 3.08273 13.845 2.70793 13.5689 2.43132C13.2881 2.16326 12.9147 2.01369 12.5265 2.01369C12.1382 2.01369 11.7648 2.16326 11.4839 2.43132L10.7768 1.72406C11.2409 1.26077 11.87 1.00069 12.5258 1.00098C13.1816 1.00126 13.8104 1.2619 14.2742 1.7256C14.7379 2.1893 14.9985 2.81814 14.9989 3.47393C14.9992 4.12972 14.7391 4.75881 14.2759 5.22297C14.0876 5.41097 11.8539 7.64436 11.724 7.77471C11.4946 8.00523 11.2218 8.18798 10.9214 8.3124C10.621 8.43682 10.2989 8.50044 9.9737 8.49957Z" fill="currentColor"/>
<path d="M12 14.9996H2C1.73487 14.9993 1.48068 14.8938 1.2932 14.7064C1.10572 14.5189 1.00028 14.2647 1 13.9996V3.99957C1.00028 3.73443 1.10572 3.48024 1.2932 3.29277C1.48068 3.10529 1.73487 2.99984 2 2.99957H4V3.99957H2V13.9996H12V8.99957H13V13.9996C12.9997 14.2647 12.8943 14.5189 12.7068 14.7064C12.5193 14.8938 12.2651 14.9993 12 14.9996Z" fill="currentColor"/>
</svg>
