<svg viewBox="0 0 16 17" fill="none" xmlns="http://www.w3.org/2000/svg">
<rect width="16" height="16" transform="translate(0 0.513672)" fill="white" fill-opacity="0.01" style="mix-blend-mode:multiply"/>
<path d="M5 14.5137H1V15.5137H5V14.5137Z" fill="currentColor"/>
<path d="M8.5 15.0137C8.42502 15.0137 8.35101 14.9968 8.28343 14.9643C8.21585 14.9319 8.15644 14.8846 8.1096 14.8261L6.26 12.5137H1V11.5137H6.5C6.57498 11.5137 6.64899 11.5305 6.71657 11.563C6.78415 11.5955 6.84356 11.6427 6.8904 11.7013L8.4634 13.6674L11.084 9.73632C11.1284 9.66979 11.188 9.61487 11.258 9.57616C11.328 9.53746 11.4062 9.5161 11.4861 9.51388C11.5661 9.51166 11.6454 9.52865 11.7174 9.56341C11.7894 9.59818 11.852 9.6497 11.9 9.71367L13.25 11.5137H15V12.5137H13C12.9224 12.5137 12.8458 12.4956 12.7764 12.4609C12.7069 12.4262 12.6465 12.3758 12.6 12.3137L11.5239 10.879L8.9159 14.791C8.87232 14.8564 8.8139 14.9107 8.74539 14.9493C8.67688 14.9879 8.60022 15.0098 8.52165 15.0131L8.5 15.0137Z" fill="currentColor"/>
<path d="M5.5 8.51367V6.01367H6C6.53025 6.01308 7.03861 5.80217 7.41356 5.42723C7.7885 5.05228 7.9994 4.54392 8 4.01367V2.51367H6.5C5.98805 2.51449 5.49612 2.71269 5.1266 3.06702C4.86764 2.59693 4.48738 2.20487 4.02542 1.93167C3.56346 1.65847 3.0367 1.51413 2.5 1.51367H1V3.01367C1.00087 3.80905 1.31722 4.57161 1.87964 5.13403C2.44206 5.69645 3.20462 6.0128 4 6.01367H4.5V8.51367H1V9.51367H8V8.51367H5.5ZM6.5 3.51367H7V4.01367C6.99974 4.27881 6.89429 4.53301 6.70681 4.72049C6.51934 4.90797 6.26514 5.01341 6 5.01367H5.5V4.51367C5.50026 4.24854 5.60571 3.99434 5.79319 3.80686C5.98066 3.61938 6.23486 3.51394 6.5 3.51367ZM4 5.01367C3.46975 5.01308 2.96139 4.80217 2.58644 4.42723C2.2115 4.05228 2.0006 3.54392 2 3.01367V2.51367H2.5C3.03025 2.51427 3.53861 2.72517 3.91356 3.10012C4.2885 3.47506 4.4994 3.98342 4.5 4.51367V5.01367H4Z" fill="currentColor"/>
</svg>
