<svg viewBox="0 0 16 17" fill="none" xmlns="http://www.w3.org/2000/svg">
<rect width="16" height="16" transform="translate(0 0.513672)" fill="white" fill-opacity="0.01" style="mix-blend-mode:multiply"/>
<path d="M13.2929 3.80662C13.2003 3.71346 13.0902 3.6396 12.9688 3.58931C12.8474 3.53902 12.7173 3.51332 12.5859 3.51367H8.5V1.51367H7.5V6.51367H3.41405C3.28269 6.51332 3.15256 6.53902 3.0312 6.58931C2.90984 6.6396 2.79966 6.71346 2.70705 6.80662L1 8.51367L2.70705 10.2207C2.79966 10.3139 2.90984 10.3877 3.0312 10.438C3.15256 10.4883 3.28269 10.514 3.41405 10.5137H7.5V15.5137H8.5V7.51367H12.5859C12.7173 7.51403 12.8474 7.48832 12.9688 7.43803C13.0902 7.38775 13.2003 7.31388 13.2929 7.22072L15 5.51367L13.2929 3.80662ZM3.41405 9.51367L2.41405 8.51367L3.41405 7.51367H7.5V9.51367H3.41405ZM12.5859 6.51367H8.5V4.51367H12.5859L13.5859 5.51367L12.5859 6.51367Z" fill="currentColor"/>
</svg>
