<svg viewBox="0 0 16 16" fill="none" xmlns="http://www.w3.org/2000/svg">
<rect width="16" height="16" fill="white" fill-opacity="0.01" style="mix-blend-mode:multiply"/>
<path d="M6.22655 12.4999C6.7326 11.7646 7.00241 10.8925 7 9.99993C7.00171 9.6645 6.97158 9.32966 6.91 8.99993H11V7.99993H6.60875C6.56665 7.89448 6.52375 7.79023 6.48095 7.68793C6.15483 7.00517 5.99026 6.25651 6 5.49993C5.98524 5.16769 6.0398 4.83602 6.16021 4.52603C6.28063 4.21603 6.46425 3.93449 6.69941 3.69934C6.93457 3.46418 7.2161 3.28055 7.5261 3.16014C7.8361 3.03972 8.16777 2.98516 8.5 2.99993C9.01027 2.98388 9.51645 3.09569 9.97248 3.32517C10.4285 3.55466 10.8199 3.89453 11.1111 4.31388L11.8889 3.68598C11.5038 3.15051 10.9938 2.71708 10.4032 2.42327C9.81271 2.12946 9.15941 1.98415 8.5 1.99993C8.0362 1.98448 7.57417 2.06444 7.14255 2.23487C6.71092 2.40529 6.31889 2.66254 5.99075 2.99068C5.66261 3.31881 5.40536 3.71084 5.23494 4.14247C5.06452 4.5741 4.98455 5.03613 5 5.49993C4.98879 6.36206 5.16911 7.21594 5.52795 7.99993H4V8.99993H5.88645C5.96518 9.32734 6.00331 9.6632 6 9.99993C6 11.2616 5.2571 12.4999 4.5 12.4999V13.4999H12V12.4999H6.22655Z" fill="currentColor"/>
</svg>
