<svg viewBox="0 0 16 17" fill="none" xmlns="http://www.w3.org/2000/svg">
<rect width="16" height="16" transform="translate(0 0.513672)" fill="white" fill-opacity="0.01" style="mix-blend-mode:multiply"/>
<path d="M14.8776 11.186C14.7827 11.0766 14.6449 11.0137 14.5 11.0137H13.5V10.0137C13.5 9.46242 13.0514 9.01367 12.5 9.01367H10.5C9.94855 9.01367 9.49995 9.46242 9.49995 10.0137V11.0137H8.49995C8.35505 11.0137 8.21725 11.0767 8.12225 11.186C8.0273 11.2956 7.98445 11.4409 8.00495 11.5845L8.50495 15.0845C8.5401 15.3306 8.75115 15.5137 8.99995 15.5137H14C14.2488 15.5137 14.4598 15.3306 14.4949 15.0845L14.9949 11.5845C15.0154 11.4409 14.9726 11.2957 14.8776 11.186ZM10.5 10.0137H12.5V11.0137H10.5V10.0137ZM13.5663 14.5137H9.43355L9.0765 12.0137H13.9234L13.5663 14.5137Z" fill="currentColor"/>
<path d="M5.99995 10.5137H4.99995V15.5137H5.99995V10.5137Z" fill="currentColor"/>
<path d="M8.39035 9.45117L7.43675 8.25927L6.7158 6.45652C6.48655 5.88377 5.9399 5.51367 5.323 5.51367H2.5C1.67285 5.51367 1 6.18652 1 7.01367V10.5137C1 11.0649 1.4485 11.5137 2 11.5137H2.5V15.5137H3.5V10.5137H2V7.01367C2 6.73777 2.22435 6.51367 2.5 6.51367H5.323C5.52855 6.51367 5.71095 6.63722 5.7871 6.82812L6.6096 8.82617L7.6096 10.0762L8.39035 9.45117Z" fill="currentColor"/>
<path d="M1.99995 3.01367C1.99995 1.91087 2.89715 1.01367 3.99995 1.01367C5.10275 1.01367 5.99995 1.91087 5.99995 3.01367C5.99995 4.11647 5.10275 5.01367 3.99995 5.01367C2.89715 5.01367 1.99995 4.11647 1.99995 3.01367ZM2.99995 3.01367C2.99995 3.56507 3.44845 4.01367 3.99995 4.01367C4.55145 4.01367 4.99995 3.56507 4.99995 3.01367C4.99995 2.46227 4.55145 2.01367 3.99995 2.01367C3.44845 2.01367 2.99995 2.46227 2.99995 3.01367Z" fill="currentColor"/>
</svg>
