<svg viewBox="0 0 16 17" fill="none" xmlns="http://www.w3.org/2000/svg">
<rect width="16" height="16" transform="translate(0 0.513672)" fill="white" fill-opacity="0.01" style="mix-blend-mode:multiply"/>
<path d="M13 15.5137H12V13.0137C11.9984 11.6336 10.88 10.5153 9.5 10.5137H6.5C5.11995 10.5153 4.00165 11.6336 4 13.0137V15.5137H3V13.0137C3.00225 11.0816 4.56795 9.51592 6.5 9.51367H9.5C11.432 9.51592 12.9978 11.0816 13 13.0137V15.5137Z" fill="currentColor"/>
<path d="M11 3.51367V5.51367C11 6.06492 10.5514 6.51367 10 6.51367H9.5C9.2239 6.51367 9 6.73757 9 7.01367C9 7.28977 9.2239 7.51367 9.5 7.51367H10C11.1028 7.51367 12 6.61647 12 5.51367V3.51367H11Z" fill="currentColor"/>
<path d="M8 8.51367C6.07005 8.51367 4.5 6.94362 4.5 5.01367C4.5 3.08372 6.07005 1.51367 8 1.51367C8.99425 1.51367 9.94505 1.93882 10.6087 2.68012L9.86355 3.34712C9.38945 2.81747 8.71025 2.51367 8 2.51367C6.62145 2.51367 5.5 3.63517 5.5 5.01367C5.5 6.39217 6.62145 7.51367 8 7.51367V8.51367Z" fill="currentColor"/>
</svg>
