<svg viewBox="0 0 16 17" fill="none" xmlns="http://www.w3.org/2000/svg">
<rect width="16" height="16" transform="translate(0 0.513672)" fill="white" fill-opacity="0.01" style="mix-blend-mode:multiply"/>
<path d="M14 10.5137H13V11.5137H14V14.5137H2V11.5137H3V10.5137H2C1.73488 10.514 1.48071 10.6195 1.29324 10.8069C1.10578 10.9944 1.00032 11.2486 1 11.5137V14.5137C1.00032 14.7788 1.10578 15.033 1.29324 15.2204C1.48071 15.4079 1.73488 15.5134 2 15.5137H14C14.2651 15.5134 14.5193 15.4079 14.7068 15.2204C14.8942 15.033 14.9997 14.7788 15 14.5137V11.5137C14.9997 11.2486 14.8942 10.9944 14.7068 10.8069C14.5193 10.6195 14.2651 10.514 14 10.5137Z" fill="currentColor"/>
<path d="M3.5 13.5137C3.77614 13.5137 4 13.2898 4 13.0137C4 12.7375 3.77614 12.5137 3.5 12.5137C3.22386 12.5137 3 12.7375 3 13.0137C3 13.2898 3.22386 13.5137 3.5 13.5137Z" fill="currentColor"/>
<path d="M10.5 7.01367C10.2772 7.0148 10.0575 7.06621 9.8573 7.16407L8.70705 6.01367L9.85705 4.86327C10.0573 4.96117 10.2771 5.01258 10.5 5.01367C10.7967 5.01367 11.0867 4.9257 11.3334 4.76088C11.58 4.59606 11.7723 4.36179 11.8858 4.0877C11.9994 3.81361 12.0291 3.51201 11.9712 3.22104C11.9133 2.93007 11.7704 2.66279 11.5607 2.45301C11.3509 2.24323 11.0836 2.10037 10.7926 2.04249C10.5017 1.98462 10.2001 2.01432 9.92597 2.12785C9.65189 2.24138 9.41762 2.43364 9.2528 2.68032C9.08797 2.92699 9 3.217 9 3.51367C9.00111 3.73642 9.05238 3.95605 9.15 4.15627L8 5.30662L6.85 4.15627C6.94762 3.95605 6.99889 3.73642 7 3.51367C7 3.217 6.91203 2.92699 6.7472 2.68032C6.58238 2.43364 6.34811 2.24138 6.07403 2.12785C5.79994 2.01432 5.49834 1.98462 5.20736 2.04249C4.91639 2.10037 4.64912 2.24323 4.43934 2.45301C4.22956 2.66279 4.0867 2.93007 4.02882 3.22104C3.97094 3.51201 4.00065 3.81361 4.11418 4.0877C4.22771 4.36179 4.41997 4.59606 4.66664 4.76088C4.91332 4.9257 5.20333 5.01367 5.5 5.01367C5.72282 5.01255 5.94252 4.96113 6.1427 4.86327L7.29295 6.01367L6.1427 7.16407C5.94252 7.06621 5.72282 7.0148 5.5 7.01367C5.20333 7.01367 4.91332 7.10165 4.66664 7.26647C4.41997 7.43129 4.22771 7.66556 4.11418 7.93965C4.00065 8.21374 3.97094 8.51534 4.02882 8.80631C4.0867 9.09728 4.22956 9.36455 4.43934 9.57433C4.64912 9.78411 4.91639 9.92697 5.20736 9.98485C5.49834 10.0427 5.79994 10.013 6.07403 9.89949C6.34811 9.78596 6.58238 9.5937 6.7472 9.34703C6.91203 9.10035 7 8.81035 7 8.51367C6.99889 8.29093 6.94762 8.07129 6.85 7.87107L8 6.72072L9.15 7.87107C9.05238 8.07129 9.00111 8.29093 9 8.51367C9 8.81035 9.08797 9.10035 9.2528 9.34703C9.41762 9.5937 9.65189 9.78596 9.92597 9.89949C10.2001 10.013 10.5017 10.0427 10.7926 9.98485C11.0836 9.92697 11.3509 9.78411 11.5607 9.57433C11.7704 9.36455 11.9133 9.09728 11.9712 8.80631C12.0291 8.51534 11.9994 8.21374 11.8858 7.93965C11.7723 7.66556 11.58 7.43129 11.3334 7.26647C11.0867 7.10165 10.7967 7.01367 10.5 7.01367ZM10.5 3.01367C10.5989 3.01367 10.6956 3.043 10.7778 3.09794C10.86 3.15288 10.9241 3.23097 10.9619 3.32233C10.9998 3.41369 11.0097 3.51423 10.9904 3.61122C10.9711 3.70821 10.9235 3.7973 10.8536 3.86723C10.7836 3.93715 10.6945 3.98477 10.5975 4.00407C10.5006 4.02336 10.4 4.01346 10.3087 3.97561C10.2173 3.93777 10.1392 3.87368 10.0843 3.79146C10.0293 3.70923 10 3.61256 10 3.51367C10.0001 3.3811 10.0528 3.25399 10.1466 3.16025C10.2403 3.06651 10.3674 3.01379 10.5 3.01367ZM5 3.51367C5 3.41478 5.02932 3.31811 5.08427 3.23589C5.13921 3.15366 5.2173 3.08958 5.30866 3.05173C5.40002 3.01389 5.50055 3.00399 5.59755 3.02328C5.69454 3.04257 5.78363 3.09019 5.85355 3.16012C5.92348 3.23005 5.9711 3.31914 5.99039 3.41613C6.00969 3.51312 5.99978 3.61365 5.96194 3.70501C5.9241 3.79638 5.86001 3.87447 5.77779 3.92941C5.69556 3.98435 5.59889 4.01367 5.5 4.01367C5.36743 4.01355 5.24032 3.96084 5.14658 3.86709C5.05284 3.77335 5.00012 3.64624 5 3.51367ZM5.5 9.01367C5.40111 9.01367 5.30444 8.98435 5.22221 8.92941C5.13999 8.87447 5.0759 8.79638 5.03806 8.70501C5.00022 8.61365 4.99031 8.51312 5.00961 8.41613C5.0289 8.31914 5.07652 8.23005 5.14645 8.16012C5.21637 8.09019 5.30546 8.04257 5.40245 8.02328C5.49945 8.00399 5.59998 8.01389 5.69134 8.05173C5.7827 8.08958 5.86079 8.15366 5.91573 8.23589C5.97068 8.31811 6 8.41478 6 8.51367C5.99988 8.64624 5.94716 8.77335 5.85342 8.8671C5.75968 8.96084 5.63257 9.01355 5.5 9.01367ZM10.5 9.01367C10.4011 9.01367 10.3044 8.98435 10.2222 8.92941C10.14 8.87447 10.0759 8.79638 10.0381 8.70501C10.0002 8.61365 9.99031 8.51312 10.0096 8.41613C10.0289 8.31914 10.0765 8.23005 10.1464 8.16012C10.2164 8.09019 10.3055 8.04257 10.4025 8.02328C10.4994 8.00399 10.6 8.01389 10.6913 8.05173C10.7827 8.08958 10.8608 8.15366 10.9157 8.23589C10.9707 8.31811 11 8.41478 11 8.51367C10.9999 8.64624 10.9472 8.77335 10.8534 8.8671C10.7597 8.96084 10.6326 9.01355 10.5 9.01367Z" fill="currentColor"/>
</svg>
