<svg viewBox="0 0 16 17" fill="none" xmlns="http://www.w3.org/2000/svg">
<rect width="16" height="16" transform="translate(0 0.513672)" fill="white" fill-opacity="0.01" style="mix-blend-mode:multiply"/>
<path d="M14 15.5137H2C1.73487 15.5134 1.48068 15.4079 1.2932 15.2205C1.10572 15.033 1.00028 14.7788 1 14.5137V2.51367C1.00028 2.24854 1.10572 1.99435 1.2932 1.80687C1.48068 1.6194 1.73487 1.51395 2 1.51367H14C14.2651 1.51395 14.5193 1.6194 14.7068 1.80687C14.8943 1.99435 14.9997 2.24854 15 2.51367V14.5137C14.9997 14.7788 14.8943 15.033 14.7068 15.2205C14.5193 15.4079 14.2651 15.5134 14 15.5137ZM2 2.51367V14.5137H14V2.51367H2Z" fill="currentColor"/>
<path d="M7.5 4.01367H6.5V7.51367H7.5V4.01367Z" fill="currentColor"/>
<path d="M5 4.01367H4V7.51367H5V4.01367Z" fill="currentColor"/>
<path d="M11 7.51367H10C9.73487 7.51339 9.48068 7.40795 9.2932 7.22047C9.10572 7.033 9.00028 6.7788 9 6.51367V5.01367C9.00028 4.74854 9.10572 4.49435 9.2932 4.30687C9.48068 4.1194 9.73487 4.01395 10 4.01367H11C11.2651 4.01395 11.5193 4.1194 11.7068 4.30687C11.8943 4.49435 11.9997 4.74854 12 5.01367V6.51367C11.9997 6.7788 11.8943 7.033 11.7068 7.22047C11.5193 7.40795 11.2651 7.51339 11 7.51367ZM10 5.01367V6.51367H11V5.01367H10Z" fill="currentColor"/>
<path d="M12 9.51367H11V13.0137H12V9.51367Z" fill="currentColor"/>
<path d="M5 9.51367H4V13.0137H5V9.51367Z" fill="currentColor"/>
<path d="M8.5 13.0137H7.5C7.23487 13.0134 6.98068 12.9079 6.7932 12.7205C6.60572 12.533 6.50028 12.2788 6.5 12.0137V10.5137C6.50028 10.2485 6.60572 9.99435 6.7932 9.80687C6.98068 9.6194 7.23487 9.51395 7.5 9.51367H8.5C8.76513 9.51395 9.01932 9.6194 9.2068 9.80687C9.39428 9.99435 9.49972 10.2485 9.5 10.5137V12.0137C9.49972 12.2788 9.39428 12.533 9.2068 12.7205C9.01932 12.9079 8.76513 13.0134 8.5 13.0137ZM7.5 10.5137V12.0137H8.5V10.5137H7.5Z" fill="currentColor"/>
</svg>
