<svg viewBox="0 0 16 16" fill="none" xmlns="http://www.w3.org/2000/svg">
<rect width="16" height="16" fill="white" fill-opacity="0.01" style="mix-blend-mode:multiply"/>
<path d="M10.4721 10.4705V7.17046H9.58711V5.99791H10.0471C10.4839 5.99791 10.6218 5.79101 10.6218 5.37706V4.35376H11.9441V5.99791H13.1741V7.17061H11.9441V10.8269H13.0823V11.9996H12.0244C11.8163 12.0255 11.6052 12.0039 11.4067 11.9366C11.2081 11.8693 11.0275 11.7578 10.8781 11.6107C10.7288 11.4636 10.6147 11.2846 10.5444 11.0872C10.4741 10.8897 10.4494 10.6788 10.4721 10.4705Z" fill="currentColor"/>
<path d="M3.34229 11.9996V3.97461H8.63134V5.31961H4.85999V7.26271H8.19449V8.60796H4.85999V10.6546H8.63149V11.9996H3.34229Z" fill="currentColor"/>
</svg>
