<svg viewBox="0 0 16 16" fill="none" xmlns="http://www.w3.org/2000/svg">
<rect width="16" height="16" fill="white" fill-opacity="0.01" style="mix-blend-mode:multiply"/>
<path d="M14.0002 1H10.0002C9.73503 1.0003 9.48085 1.10576 9.29338 1.29323C9.10591 1.4807 9.00046 1.73488 9.00015 2V14C9.00046 14.2651 9.10591 14.5193 9.29338 14.7068C9.48085 14.8942 9.73503 14.9997 10.0002 15H14.0002C14.2653 14.9997 14.5195 14.8942 14.7069 14.7068C14.8944 14.5193 14.9998 14.2651 15.0002 14V2C14.9998 1.73488 14.8944 1.4807 14.7069 1.29323C14.5195 1.10576 14.2653 1.0003 14.0002 1ZM14.0002 2V5.5H10.0002V2H14.0002ZM14.0002 6.5V9.5H10.0002V6.5H14.0002ZM10.0002 14V10.5H14.0002V14H10.0002Z" fill="currentColor"/>
<path d="M6.00015 7.5H5.00015V6.5H4.00015V7.5H3.00015V8.5H4.00015V9.5H5.00015V8.5H6.00015V7.5Z" fill="currentColor"/>
<path d="M8.00015 3V2H5.00015C4.73503 2.0003 4.48085 2.10576 4.29338 2.29323C4.10591 2.4807 4.00046 2.73488 4.00015 3V4.54C3.16713 4.65879 2.40492 5.07412 1.85352 5.70973C1.30211 6.34534 0.998535 7.15855 0.998535 8C0.998535 8.84145 1.30211 9.65466 1.85352 10.2903C2.40492 10.9259 3.16713 11.3412 4.00015 11.46V13C4.00046 13.2651 4.10591 13.5193 4.29338 13.7068C4.48085 13.8942 4.73503 13.9997 5.00015 14H8.00015V13H5.00015V11.46C5.83318 11.3412 6.59539 10.9259 7.14679 10.2903C7.69819 9.65466 8.00177 8.84145 8.00177 8C8.00177 7.15855 7.69819 6.34534 7.14679 5.70973C6.59539 5.07412 5.83318 4.65879 5.00015 4.54V3H8.00015ZM7.00015 8C7.00015 8.49445 6.85353 8.9778 6.57883 9.38893C6.30412 9.80005 5.91368 10.1205 5.45686 10.3097C5.00005 10.4989 4.49738 10.5484 4.01243 10.452C3.52748 10.3555 3.08202 10.1174 2.73239 9.76777C2.38276 9.41814 2.14465 8.97268 2.04819 8.48773C1.95173 8.00277 2.00124 7.50011 2.19046 7.04329C2.37967 6.58648 2.70011 6.19603 3.11123 5.92133C3.52235 5.64662 4.0057 5.5 4.50015 5.5C5.16296 5.50078 5.79839 5.76442 6.26706 6.2331C6.73573 6.70177 6.99937 7.3372 7.00015 8Z" fill="currentColor"/>
</svg>
