<svg viewBox="0 0 16 16" fill="none" xmlns="http://www.w3.org/2000/svg">
<rect width="16" height="16" fill="white" fill-opacity="0.01" style="mix-blend-mode:multiply"/>
<path d="M13.5 12C13.2689 12 13.0526 12.0567 12.8571 12.1499L10.4426 9.73535C10.7921 9.24485 11 8.64695 11 8C11 6.3457 9.65415 5 8 5C7.35315 5 6.75515 5.208 6.26455 5.55735L3.8501 3.14305C3.94335 2.9475 4 2.7312 4 2.5C4 1.67165 3.32835 1 2.5 1C1.67165 1 1 1.67165 1 2.5C1 3.32835 1.67165 4 2.5 4C2.7311 4 2.9474 3.94335 3.14295 3.8501L5.5574 6.26465C5.2079 6.75515 5.00005 7.35305 5.00005 8C5.00005 9.6543 6.3459 11 8.00005 11C8.6469 11 9.2449 10.792 9.7355 10.4426L12.15 12.8569C12.0567 13.0525 12 13.2688 12 13.5C12 14.3284 12.6717 15 13.5 15C14.3284 15 15 14.3284 15 13.5C15 12.6716 14.3284 12 13.5 12ZM8.00005 10C6.89725 10 6.00005 9.1028 6.00005 8C6.00005 6.8972 6.89725 6 8.00005 6C9.10285 6 10 6.8972 10 8C10 9.1028 9.10285 10 8.00005 10Z" fill="currentColor"/>
</svg>
