<svg viewBox="0 0 16 16" fill="none" xmlns="http://www.w3.org/2000/svg">
<rect width="16" height="16" fill="white" fill-opacity="0.01" style="mix-blend-mode:multiply"/>
<path d="M9.43431 11.0338L10.3312 10.16C10.526 10.4112 10.775 10.615 11.0597 10.7564C11.3444 10.8977 11.6573 10.9729 11.9751 10.9763C12.6764 10.9763 12.9754 10.7119 12.9754 10.2863C12.9754 9.94132 12.7685 9.72297 12.2395 9.65402L11.6416 9.57342C10.3539 9.41257 9.64116 8.84922 9.64116 7.75692C9.64116 6.59567 10.5495 5.85982 11.9176 5.85982C12.3547 5.82681 12.7935 5.89465 13.2001 6.0581C13.6068 6.22156 13.9705 6.47627 14.2631 6.80257L13.4008 7.66487C13.2179 7.46508 12.9961 7.30488 12.7489 7.19415C12.5017 7.08342 12.2345 7.02452 11.9637 7.02107C11.3312 7.02107 11.0553 7.27402 11.0553 7.64192C11.0553 8.04437 11.2737 8.22822 11.8372 8.32027L12.4466 8.40072C13.7572 8.58467 14.3896 9.17112 14.3896 10.1713C14.3896 11.3326 13.4123 12.1374 11.9176 12.1374C11.4465 12.1582 10.977 12.0693 10.5461 11.8778C10.1152 11.6863 9.73462 11.3974 9.43431 11.0338Z" fill="currentColor"/>
<path d="M2.12012 3.97461H5.04057C7.13307 3.97461 8.50122 5.31961 8.50122 7.98731C8.50122 10.655 7.13317 11.9996 5.04067 11.9996H2.12012V3.97461ZM5.04057 10.6546C6.16727 10.6546 6.89162 9.98771 6.89162 8.61961V7.35461C6.89162 5.98641 6.16727 5.31961 5.04057 5.31961H3.63792V10.6546H5.04057Z" fill="currentColor"/>
</svg>
