<svg viewBox="0 0 16 17" fill="none" xmlns="http://www.w3.org/2000/svg">
<rect width="16" height="16" transform="translate(0 0.513672)" fill="white" fill-opacity="0.01" style="mix-blend-mode:multiply"/>
<path d="M3.5 4.51367C3.77614 4.51367 4 4.28981 4 4.01367C4 3.73753 3.77614 3.51367 3.5 3.51367C3.22386 3.51367 3 3.73753 3 4.01367C3 4.28981 3.22386 4.51367 3.5 4.51367Z" fill="currentColor"/>
<path d="M3.5 8.51367C3.77614 8.51367 4 8.28981 4 8.01367C4 7.73753 3.77614 7.51367 3.5 7.51367C3.22386 7.51367 3 7.73753 3 8.01367C3 8.28981 3.22386 8.51367 3.5 8.51367Z" fill="currentColor"/>
<path d="M3.5 12.5137C3.77614 12.5137 4 12.2898 4 12.0137C4 11.7375 3.77614 11.5137 3.5 11.5137C3.22386 11.5137 3 11.7375 3 12.0137C3 12.2898 3.22386 12.5137 3.5 12.5137Z" fill="currentColor"/>
<path d="M6 13.5137H2V10.5137H6V9.51367H2V6.51367H11V2.51367C11 2.24846 10.8946 1.9941 10.7071 1.80657C10.5196 1.61903 10.2652 1.51367 10 1.51367H2C1.73478 1.51367 1.48043 1.61903 1.29289 1.80657C1.10536 1.9941 1 2.24846 1 2.51367V13.5137C1 13.7789 1.10536 14.0332 1.29289 14.2208C1.48043 14.4083 1.73478 14.5137 2 14.5137H6V13.5137ZM2 2.51367H10V5.51367H2V2.51367Z" fill="currentColor"/>
<path d="M14 9.01367V10.2202C13.686 9.69514 13.2397 9.2616 12.7057 8.96289C12.1718 8.66419 11.5688 8.51075 10.957 8.51791C10.3452 8.52507 9.74602 8.69257 9.21919 9.00368C8.69237 9.3148 8.25637 9.75866 7.9547 10.2909C7.65303 10.8232 7.49625 11.4253 7.50001 12.0372C7.50377 12.649 7.66793 13.2491 7.97612 13.7777C8.28431 14.3062 8.72573 14.7447 9.25634 15.0493C9.78695 15.3539 10.3882 15.514 11 15.5137V14.5137C10.5491 14.5142 10.1065 14.3929 9.719 14.1624C9.33148 13.932 9.0135 13.601 8.79872 13.2046C8.58394 12.8082 8.48035 12.3611 8.49894 11.9106C8.51752 11.4601 8.65758 11.0231 8.90429 10.6457C9.151 10.2683 9.49516 9.96469 9.90034 9.76695C10.3055 9.56921 10.7566 9.48472 11.2059 9.52243C11.6552 9.56015 12.0859 9.71865 12.4525 9.98117C12.819 10.2437 13.1078 10.6005 13.2881 11.0137H12V12.0137H15V9.01367H14Z" fill="currentColor"/>
</svg>
