<svg viewBox="0 0 16 16" fill="none" xmlns="http://www.w3.org/2000/svg">
<rect width="16" height="16" fill="white" fill-opacity="0.01" style="mix-blend-mode:multiply"/>
<path d="M15 10H13V11H15V12H13.5C12.9477 12 12.5 12.4477 12.5 13V14C12.5 14.5523 12.9477 15 13.5 15H16V11C16 10.4485 15.5512 10 15 10ZM15 14H13.5V13H15V14Z" fill="currentColor"/>
<path d="M12 11V10H10.5V9H9.5V10H8.5V11H9.5V14C9.5 14.5513 9.94875 15 10.5 15H12V14H10.5V11H12Z" fill="currentColor"/>
<path d="M7 10H5V11H7V12H5.5C4.9477 12 4.5 12.4477 4.5 13V14C4.5 14.5523 4.9477 15 5.5 15H8V11C8 10.4485 7.55125 10 7 10ZM7 14H5.5V13H7V14Z" fill="currentColor"/>
<path d="M2.5 8.00025V10.0003H1C0.44875 10.0003 0 10.4488 0 11.0003V14C0 14.5513 0.44875 15 1 15H3.5V8.00025H2.5ZM1 11H2.5V14H1V11Z" fill="currentColor"/>
<path d="M2 7V2.5H5.79285L7.79285 4.5H14V8.5H15V4.5C14.9993 3.94795 14.552 3.50065 14 3.5H8.20715L6.5 1.79295C6.3129 1.60475 6.05825 1.4993 5.79285 1.5H2C1.44795 1.50065 1.00065 1.94795 1 2.5V7H2Z" fill="currentColor"/>
</svg>
