<svg viewBox="0 0 16 16" fill="none" xmlns="http://www.w3.org/2000/svg">
<rect width="16" height="16" fill="white" fill-opacity="0.01" style="mix-blend-mode:multiply"/>
<path d="M14.5 15H9.5C9.2239 15 9 14.7761 9 14.5V9.5C9 9.2239 9.2239 9 9.5 9H14.5C14.7761 9 15 9.2239 15 9.5V14.5C15 14.7761 14.7761 15 14.5 15ZM10 14H14V10H10V14Z" fill="currentColor"/>
<path d="M4 15C2.34585 15 1 13.6542 1 12C1 10.3458 2.34585 9 4 9C5.65415 9 7 10.3458 7 12C7 13.6542 5.65415 15 4 15ZM4 10C2.8972 10 2 10.8972 2 12C2 13.1028 2.8972 14 4 14C5.1028 14 6 13.1028 6 12C6 10.8972 5.1028 10 4 10Z" fill="currentColor"/>
<path d="M11 7H5C4.8198 7 4.6537 6.9031 4.56495 6.74635C4.4762 6.5896 4.4785 6.39725 4.5713 6.24275L7.5723 1.2411C7.66915 1.07965 7.8346 1 8 1C8.1654 1 8.33085 1.07965 8.4277 1.2411L11.4287 6.24275C11.5215 6.39725 11.5238 6.5896 11.4351 6.74635C11.3463 6.9031 11.1802 7 11 7ZM5.88305 6H10.117L8 2.4718L5.88305 6Z" fill="currentColor"/>
</svg>
