<svg viewBox="0 0 16 16" fill="none" xmlns="http://www.w3.org/2000/svg">
<rect width="16" height="16" fill="white" fill-opacity="0.01" style="mix-blend-mode:multiply"/>
<path d="M8.97171 10.3669C8.97171 9.13691 9.90286 8.52731 11.5357 8.52731H12.5589V8.09041C12.5589 7.42356 12.2256 7.03271 11.4439 7.03271C11.1692 7.02777 10.8982 7.09531 10.658 7.22852C10.4178 7.36172 10.2169 7.5559 10.0757 7.79146L9.20166 7.00961C9.45079 6.62248 9.80093 6.31074 10.2143 6.10807C10.6276 5.9054 11.0885 5.81949 11.5471 5.85961C13.1682 5.85961 14.0305 6.62961 14.0305 7.99816V10.8265H14.6284V11.9996H13.812C13.5281 12.006 13.2528 11.9015 13.0446 11.7082C12.8365 11.515 12.7118 11.2483 12.697 10.9646H12.6282C12.4326 11.735 11.7773 12.1374 10.8806 12.1374C9.66161 12.1376 8.97171 11.4363 8.97171 10.3669ZM12.5589 10.206V9.41271H11.6162C10.8457 9.41271 10.4662 9.67711 10.4662 10.1486V10.344C10.4662 10.8269 10.7997 11.0684 11.3744 11.0684C12.03 11.0684 12.5589 10.7696 12.5589 10.206Z" fill="currentColor"/>
<path d="M3.48586 11.9996H1.96826V3.97461H5.59001C7.05001 3.97461 7.95866 4.94041 7.95866 6.45811C7.99918 6.94992 7.87407 7.44115 7.60323 7.85366C7.3324 8.26617 6.93139 8.57626 6.46401 8.73461L8.10791 11.9996H6.41791L4.92311 8.90686H3.48586V11.9996ZM5.44046 7.63061C5.56491 7.64564 5.69114 7.63278 5.81 7.59295C5.92886 7.55313 6.03736 7.48735 6.12763 7.40038C6.21791 7.31341 6.28769 7.20743 6.33191 7.09014C6.37613 6.97285 6.39369 6.84718 6.38331 6.72226V6.19336C6.39343 6.069 6.37558 5.94395 6.33109 5.82738C6.28659 5.71081 6.21657 5.60568 6.12616 5.51969C6.03575 5.4337 5.92725 5.36904 5.8086 5.33044C5.68995 5.29183 5.56416 5.28028 5.44046 5.29661H3.48586V7.63061H5.44046Z" fill="currentColor"/>
</svg>
