<svg viewBox="0 0 16 17" fill="none" xmlns="http://www.w3.org/2000/svg">
<rect width="16" height="16" transform="translate(0 0.513672)" fill="white" fill-opacity="0.01" style="mix-blend-mode:multiply"/>
<path d="M14 5.51367H11.5V3.51367C11.4997 3.24855 11.3942 2.99437 11.2068 2.8069C11.0193 2.61943 10.7651 2.51398 10.5 2.51367H5.5C5.23488 2.51398 4.9807 2.61943 4.79323 2.8069C4.60576 2.99437 4.5003 3.24855 4.5 3.51367V5.51367H2C1.73488 5.51398 1.4807 5.61943 1.29323 5.8069C1.10576 5.99437 1.0003 6.24855 1 6.51367V14.5137C1.0003 14.7788 1.10576 15.033 1.29323 15.2204C1.4807 15.4079 1.73488 15.5134 2 15.5137H14C14.2651 15.5134 14.5193 15.4079 14.7068 15.2204C14.8942 15.033 14.9997 14.7788 15 14.5137V6.51367C14.9997 6.24855 14.8942 5.99437 14.7068 5.8069C14.5193 5.61943 14.2651 5.51398 14 5.51367ZM2 14.5137V6.51367H4.5V7.51367H3.5V8.51367H4.5V9.51367H3.5V10.5137H4.5V11.5137H3.5V12.5137H4.5V14.5137H2ZM10.5 14.5137H5.5V3.51367H10.5V14.5137ZM14 14.5137H11.5V12.5137H12.5V11.5137H11.5V10.5137H12.5V9.51367H11.5V8.51367H12.5V7.51367H11.5V6.51367H14V14.5137Z" fill="currentColor"/>
<path d="M9 4.51367H7V5.51367H9V4.51367Z" fill="currentColor"/>
<path d="M9 6.51367H7V7.51367H9V6.51367Z" fill="currentColor"/>
<path d="M9 8.51367H7V9.51367H9V8.51367Z" fill="currentColor"/>
</svg>
