<svg viewBox="0 0 16 16" fill="none" xmlns="http://www.w3.org/2000/svg">
<rect width="16" height="16" fill="white" fill-opacity="0.01" style="mix-blend-mode:multiply"/>
<path d="M11.5 16L10.6225 15.5L12 13.5H14V10H8V13.5H10V14.5H8C7.44875 14.5 7 14.0512 7 13.5V10C7 9.44875 7.44875 9 8 9H14C14.5512 9 15 9.44875 15 10V13.5C15 14.0512 14.5512 14.5 14 14.5H12.5L11.5 16Z" fill="currentColor"/>
<path d="M6.5 1C3.85105 1 1 1.626 1 3V12C1 13.2017 3.1809 13.8313 5.5 13.9702V12.9694C3.23315 12.8293 2.0663 12.2373 2 12V10.2138C2.85325 10.6418 4.1531 10.8859 5.5 10.967V9.9694C3.23315 9.82925 2.0663 9.2372 2 8.9999V7.21375C3.06395 7.74745 4.8213 7.9999 6.5 7.9999C9.14895 7.9999 12 7.3739 12 5.9999V2.99965C11.9997 1.62565 9.1488 1 6.5 1ZM1.99925 3.00755C2.0754 2.72995 3.57495 2 6.5 2C9.3988 2 10.8974 2.71705 10.9984 3C10.8974 3.28295 9.3988 4 6.5 4C3.57495 4 2.07545 3.27 1.99925 3.00755ZM11 5.99365C10.9197 6.2722 9.42065 7 6.5 7C3.57495 7 2.07545 6.27 2 6V4.21385C3.06395 4.74755 4.8213 5 6.5 5C8.1787 5 9.93605 4.74755 11 4.21385V5.99365Z" fill="currentColor"/>
</svg>
