<svg viewBox="0 0 16 16" fill="none" xmlns="http://www.w3.org/2000/svg">
<rect width="16" height="16" fill="white" fill-opacity="0.01" style="mix-blend-mode:multiply"/>
<path d="M12.5 6V1.5H11.5V2.5H10V3.5H11.5V6H10V7H14V6H12.5Z" fill="currentColor"/>
<path d="M4.25 2.5C5.21495 2.5 6 3.28505 6 4.25C6 5.21495 5.21495 6 4.25 6C3.28505 6 2.5 5.21495 2.5 4.25C2.5 3.28505 3.28505 2.5 4.25 2.5ZM4.25 1.5C2.7312 1.5 1.5 2.7312 1.5 4.25C1.5 5.7688 2.7312 7 4.25 7C5.7688 7 7 5.7688 7 4.25C7 2.7312 5.7688 1.5 4.25 1.5Z" fill="currentColor"/>
<path d="M11.75 10C12.715 10 13.5 10.785 13.5 11.75C13.5 12.715 12.715 13.5 11.75 13.5C10.785 13.5 10 12.715 10 11.75C10 10.785 10.785 10 11.75 10ZM11.75 9C10.2312 9 9 10.2312 9 11.75C9 13.2688 10.2312 14.5 11.75 14.5C13.2688 14.5 14.5 13.2688 14.5 11.75C14.5 10.2312 13.2688 9 11.75 9Z" fill="currentColor"/>
<path d="M3 9.5V10.5H4.79295L2 13.2929L2.70705 14L5.5 11.2071V13H6.5V9.5H3Z" fill="currentColor"/>
</svg>
