<svg viewBox="0 0 16 16" fill="none" xmlns="http://www.w3.org/2000/svg">
<g clip-path="url(#clip0_1961_7100)">
<rect width="16" height="16" fill="white" fill-opacity="0.01" style="mix-blend-mode:multiply"/>
<path d="M8.24805 9.0659L4.74805 7.0659C4.67125 7.02195 4.58565 7 4.5 7C4.41435 7 4.32875 7.02195 4.25195 7.0659L0.75195 9.0659C0.5962 9.15475 0.5 9.32055 0.5 9.5V13.5C0.5 13.6795 0.5962 13.8452 0.75195 13.9341L4.25195 15.9341C4.32875 15.9781 4.41445 16 4.5 16C4.58555 16 4.67125 15.9781 4.74805 15.9341L8.24805 13.9341C8.4038 13.8453 8.5 13.6795 8.5 13.5V9.5C8.5 9.32055 8.4038 9.1548 8.24805 9.0659ZM4.5 8.0759L6.9922 9.49995L4.5 10.924L2.0078 9.49995L4.5 8.0759ZM1.5 10.3616L4 11.79V14.6384L1.5 13.21V10.3616ZM5 14.6384V11.79L7.5 10.3616V13.21L5 14.6384Z" fill="currentColor"/>
<path d="M14 9.5V12C14 12.5512 13.5514 13 13 13H11.4141L12.207 12.2071L11.5 11.5L9.49995 13.5L11.5 15.5L12.207 14.7929L11.4141 14H13C14.1028 14 15 13.1028 15 12V9.5H14Z" fill="currentColor"/>
<path d="M8.75195 7.50555L7.75195 6.93415C7.5962 6.8451 7.5 6.67945 7.5 6.5V5.5H8.5V6.20985L9.24805 6.6373L8.75195 7.50555Z" fill="currentColor"/>
<path d="M12.752 7.20875L12 7.63845V6.5H11V7.63845L10.248 7.20875L9.75195 8.07715L11.252 8.9341C11.3288 8.97805 11.4144 9 11.5 9C11.5856 9 11.6712 8.97805 11.748 8.9341L13.248 8.07715L12.752 7.20875Z" fill="currentColor"/>
<path d="M14.248 7.50555L13.752 6.63725L14.5 6.2098V5.49995H15.5V6.49995C15.5 6.6794 15.4038 6.84505 15.248 6.9341L14.248 7.50555Z" fill="currentColor"/>
<path d="M12.748 4.3628L12.252 3.4944L11.5 3.92405L10.748 3.4944L10.252 4.3628L11 4.79005V5.5H12V4.79005L12.748 4.3628Z" fill="currentColor"/>
<path d="M15.248 2.0659L13.748 1.2087L13.252 2.0771L13.9922 2.49995L13.252 2.9228L13.748 3.7912L14.5 3.3615V4.49995H15.5V2.49995C15.5 2.3205 15.4038 2.1548 15.248 2.0659Z" fill="currentColor"/>
<path d="M12.252 1.50555L11.5 1.07585L10.748 1.50555L10.252 0.63725L11.252 0.06585C11.3288 0.02195 11.4144 0 11.5 0C11.5856 0 11.6712 0.02195 11.748 0.06585L12.748 0.63725L12.252 1.50555Z" fill="currentColor"/>
<path d="M9.74805 2.07715L9.25195 1.20875L7.75195 2.06595C7.5962 2.1548 7.5 2.3206 7.5 2.50005V4.50005H8.5V3.3616L9.25195 3.7913L9.74805 2.9229L9.0078 2.50005L9.74805 2.07715Z" fill="currentColor"/>
<path d="M4.5 0.5L3.79295 1.20705L4.5859 2H2.99995C1.89715 2 0.99995 2.8972 0.99995 4V6.5H1.99995V4C1.99995 3.44875 2.44855 3 2.99995 3H4.5859L3.79295 3.79295L4.5 4.5L6.5 2.5L4.5 0.5Z" fill="currentColor"/>
</g>
<defs>
<clipPath id="clip0_1961_7100">
<rect width="16" height="16" fill="white"/>
</clipPath>
</defs>
</svg>
