<svg viewBox="0 0 16 17" fill="none" xmlns="http://www.w3.org/2000/svg">
<rect width="16" height="16" transform="translate(0 0.513672)" fill="white" fill-opacity="0.01" style="mix-blend-mode:multiply"/>
<path d="M8 2.01367C5.35105 2.01367 2.5 2.63967 2.5 4.01367V13.0137C2.5 14.3877 5.35105 15.0137 8 15.0137C10.649 15.0137 13.5 14.3877 13.5 13.0137V4.01367C13.5 2.63967 10.649 2.01367 8 2.01367ZM8 3.01367C10.8988 3.01367 12.3974 3.73072 12.4984 4.01367C12.3974 4.29662 10.8988 5.01367 8 5.01367C5.07935 5.01367 3.5803 4.28587 3.5 4.02247V4.02002C3.5803 3.74147 5.07935 3.01367 8 3.01367ZM3.5 5.22752C4.56395 5.76122 6.3213 6.01367 8 6.01367C9.6787 6.01367 11.4361 5.76122 12.5 5.22752V7.00732C12.4197 7.28587 10.9207 8.01367 8 8.01367C5.07495 8.01367 3.57545 7.28367 3.5 7.01367V5.22752ZM3.5 8.22752C4.56395 8.76122 6.3213 9.01367 8 9.01367C9.6787 9.01367 11.4361 8.76122 12.5 8.22752V10.0073C12.4197 10.2859 10.9207 11.0137 8 11.0137C5.07495 11.0137 3.57545 10.2837 3.5 10.0137V8.22752ZM8 14.0137C5.07495 14.0137 3.57545 13.2837 3.5 13.0137V11.2275C4.56395 11.7612 6.3213 12.0137 8 12.0137C9.6787 12.0137 11.4361 11.7612 12.5 11.2275V13.0073C12.4197 13.2859 10.9207 14.0137 8 14.0137Z" fill="currentColor"/>
</svg>
