<svg viewBox="0 0 16 17" fill="none" xmlns="http://www.w3.org/2000/svg">
<rect width="16" height="16" transform="translate(0 0.513672)" fill="white" fill-opacity="0.01" style="mix-blend-mode:multiply"/>
<path d="M4 14.5137V11.4287L5.2949 12.7188L6 12.0137L3.5 9.51367L1 12.0137L1.7051 12.7188L3 11.4287V14.5137C3 15.0649 3.4486 15.5137 4 15.5137H8.5V14.5137H4Z" fill="currentColor"/>
<path d="M12.5 9.01367C11.0747 9.01367 10 9.65867 10 10.5137V14.0137C10 14.8687 11.0747 15.5137 12.5 15.5137C13.9253 15.5137 15 14.8687 15 14.0137V10.5137C15 9.65867 13.9253 9.01367 12.5 9.01367ZM12.5 10.0137C13.468 10.0137 14 10.3892 14 10.5137C14 10.6382 13.468 11.0137 12.5 11.0137C11.532 11.0137 11 10.6382 11 10.5137C11 10.3892 11.532 10.0137 12.5 10.0137ZM12.5 14.5137C11.532 14.5137 11 14.1382 11 14.0137V11.7239C11.4132 11.905 11.9254 12.0137 12.5 12.0137C13.0746 12.0137 13.5868 11.905 14 11.7239V14.0137C14 14.1382 13.468 14.5137 12.5 14.5137Z" fill="currentColor"/>
<path d="M14.2949 4.30857L13 5.59862V2.51367C13 1.96242 12.5514 1.51367 12 1.51367H7.5V2.51367H12V5.59862L10.7051 4.30857L10 5.01367L12.5 7.51367L15 5.01367L14.2949 4.30857Z" fill="currentColor"/>
<path d="M3.5 8.01367C4.9253 8.01367 6 7.36867 6 6.51367V3.01367C6 2.15867 4.9253 1.51367 3.5 1.51367C2.0747 1.51367 1 2.15867 1 3.01367V6.51367C1 7.36867 2.0747 8.01367 3.5 8.01367ZM3.5 2.51367C4.468 2.51367 5 2.88917 5 3.01367C5 3.13817 4.468 3.51367 3.5 3.51367C2.532 3.51367 2 3.13817 2 3.01367C2 2.88917 2.532 2.51367 3.5 2.51367ZM2 4.22387C2.4132 4.40502 2.9254 4.51367 3.5 4.51367C4.0746 4.51367 4.5868 4.40502 5 4.22387V6.51367C5 6.63817 4.468 7.01367 3.5 7.01367C2.532 7.01367 2 6.63817 2 6.51367V4.22387Z" fill="currentColor"/>
</svg>
