<svg viewBox="0 0 16 17" fill="none" xmlns="http://www.w3.org/2000/svg">
<g clip-path="url(#clip0_1961_10516)">
<rect width="16" height="16" transform="translate(0 0.513672)" fill="white" fill-opacity="0.01" style="mix-blend-mode:multiply"/>
<path d="M13.169 16.0137L12.301 15.5137L13.4447 13.5137H11.5L13.4965 10.0137L14.365 10.5137L13.2232 12.5137H15.1684L13.169 16.0137Z" fill="currentColor"/>
<path d="M6 7.51367H4V8.51367H6V7.51367Z" fill="currentColor"/>
<path d="M12 7.51367H10V8.51367H12V7.51367Z" fill="currentColor"/>
<path d="M6 9.51367H4V10.5137H6V9.51367Z" fill="currentColor"/>
<path d="M9 9.51367H7V10.5137H9V9.51367Z" fill="currentColor"/>
<path d="M9 11.5137H7V12.5137H9V11.5137Z" fill="currentColor"/>
<path d="M2.5 6.01367H13.5V8.51367H14.5V3.01367C14.5 2.46242 14.0514 2.01367 13.5 2.01367H2.5C1.9486 2.01367 1.5 2.46242 1.5 3.01367V14.0137C1.5 14.5649 1.9486 15.0137 2.5 15.0137H10V14.0137H2.5V6.01367ZM13.5 3.01367V5.01367H2.5V3.01367H13.5Z" fill="currentColor"/>
</g>
<defs>
<clipPath id="clip0_1961_10516">
<rect width="16" height="16" fill="white" transform="translate(0 0.513672)"/>
</clipPath>
</defs>
</svg>
