<svg viewBox="0 0 16 17" fill="none" xmlns="http://www.w3.org/2000/svg">
<rect width="16" height="16" transform="translate(0 0.513672)" fill="white" fill-opacity="0.01" style="mix-blend-mode:multiply"/>
<path d="M14.9998 14.514H0.999797V15.514H14.9998V14.514Z" fill="currentColor"/>
<path d="M6.7398 3.08897L9.5848 7.15897L9.9848 7.73397L12.9198 6.94897C13.1031 6.89902 13.2965 6.89902 13.4798 6.94897C13.6233 6.98514 13.7559 7.05539 13.8665 7.15375C13.977 7.2521 14.0622 7.37568 14.1148 7.51397C14.1598 7.6345 14.1795 7.76303 14.1725 7.8915C14.1656 8.01998 14.1322 8.14564 14.0745 8.26062C14.0168 8.37561 13.9359 8.47744 13.837 8.55975C13.7382 8.64206 13.6233 8.70307 13.4998 8.73898L4.1448 11.239C3.98155 11.2868 3.80804 11.2868 3.6448 11.239C3.48878 11.1937 3.34725 11.1086 3.23415 10.992C3.12104 10.8754 3.04028 10.7313 2.9998 10.574L2.8748 10.109L2.4998 8.70397L2.1298 7.33397L2.8498 7.13897L3.9998 8.68897L4.4048 9.22897L7.4298 8.41897L6.0398 3.27397L6.7398 3.08897ZM7.0798 2.01397C6.99766 1.99404 6.91194 1.99404 6.8298 2.01397L5.2848 2.42897C5.16513 2.46614 5.06378 2.54689 5.00081 2.65523C4.93785 2.76357 4.91786 2.8916 4.9448 3.01397L6.1948 7.69397L4.7898 8.06897L3.4248 6.26397C3.35989 6.17743 3.26866 6.11427 3.1648 6.08397C3.08266 6.06404 2.99694 6.06404 2.9148 6.08397L1.3598 6.51397C1.23746 6.54703 1.13224 6.62531 1.06542 6.73298C0.998587 6.84065 0.975134 6.96968 0.999797 7.09397L1.8748 10.364L1.9998 10.834C2.08759 11.1626 2.26046 11.4623 2.50098 11.7028C2.7415 11.9433 3.04117 12.1162 3.3698 12.204C3.69749 12.2907 4.0421 12.2907 4.3698 12.204L13.7198 9.70397C14.1328 9.59823 14.4989 9.35804 14.7603 9.02127C15.0217 8.68449 15.1636 8.2703 15.1636 7.84397C15.1636 7.41765 15.0217 7.00346 14.7603 6.66668C14.4989 6.32991 14.1328 6.08972 13.7198 5.98397C13.3657 5.89142 12.9938 5.89142 12.6398 5.98397L10.3848 6.58897L7.3498 2.21897C7.28642 2.12129 7.19092 2.04878 7.0798 2.01397Z" fill="currentColor"/>
</svg>
