<svg viewBox="0 0 16 17" fill="none" xmlns="http://www.w3.org/2000/svg">
<g clip-path="url(#clip0_1961_10973)">
<rect width="16" height="16" transform="translate(0 0.513672)" fill="white" fill-opacity="0.01" style="mix-blend-mode:multiply"/>
<path d="M4.00002 10.5137H2.36502C2.27838 10.3609 2.15254 10.234 2.00048 10.1461C1.84842 10.0582 1.67565 10.0125 1.50002 10.0137C1.2348 10.0137 0.980448 10.119 0.792912 10.3066C0.605376 10.4941 0.500019 10.7485 0.500019 11.0137C0.500019 11.2789 0.605376 11.5333 0.792912 11.7208C0.980448 11.9083 1.2348 12.0137 1.50002 12.0137C1.67565 12.0149 1.84842 11.9692 2.00048 11.8813C2.15254 11.7934 2.27838 11.6665 2.36502 11.5137H4.00002V10.5137Z" fill="currentColor"/>
<path d="M14.5 5.01369C14.3244 5.01251 14.1516 5.05822 13.9996 5.14612C13.8475 5.23402 13.7217 5.36091 13.635 5.51369H12V6.51369H13.635C13.7229 6.66555 13.8491 6.79162 14.0011 6.87923C14.1531 6.96684 14.3255 7.0129 14.5009 7.01279C14.6763 7.01268 14.8487 6.96639 15.0005 6.87859C15.1524 6.79078 15.2785 6.66455 15.3662 6.51257C15.4538 6.3606 15.4999 6.18823 15.4998 6.01279C15.4997 5.83736 15.4535 5.66504 15.3657 5.51314C15.2779 5.36124 15.1517 5.23512 14.9998 5.14745C14.8478 5.05978 14.6755 5.01365 14.5 5.01369Z" fill="currentColor"/>
<path d="M12.7071 3.01369L10.5 0.806641L8.29297 3.01369L10 4.72074V9.51369H11V4.72074L12.7071 3.01369ZM10.5 2.22074L11.293 3.01369L10.5 3.80664L9.70707 3.01369L10.5 2.22074Z" fill="currentColor"/>
<path d="M6.00002 12.3066V7.51369H5.00002V12.3066L3.29297 14.0137L5.50002 16.2207L7.70707 14.0137L6.00002 12.3066ZM4.70707 14.0137L5.50002 13.2207L6.29297 14.0137L5.50002 14.8066L4.70707 14.0137Z" fill="currentColor"/>
<path d="M9.00002 5.51369H4.20707L2.50002 3.80664L0.292969 6.01369L2.50002 8.22074L4.20707 6.51369H9.00002V5.51369ZM2.50002 6.80664L1.70707 6.01369L2.50002 5.22074L3.29297 6.01369L2.50002 6.80664Z" fill="currentColor"/>
<path d="M6.50002 2.01369C6.50002 1.74847 6.39466 1.49412 6.20713 1.30658C6.01959 1.11905 5.76523 1.01369 5.50002 1.01369C5.2348 1.01369 4.98045 1.11905 4.79291 1.30658C4.60538 1.49412 4.50002 1.74847 4.50002 2.01369C4.49883 2.18933 4.54454 2.3621 4.63244 2.51416C4.72033 2.66622 4.84723 2.79206 5.00002 2.87869V4.51369H6.00002V2.87869C6.15281 2.79206 6.2797 2.66622 6.3676 2.51416C6.4555 2.3621 6.50121 2.18933 6.50002 2.01369Z" fill="currentColor"/>
<path d="M11 14.1489V12.5137H10V14.1487C9.80938 14.2588 9.66038 14.4287 9.57614 14.632C9.4919 14.8354 9.47712 15.0609 9.53409 15.2735C9.59107 15.4862 9.71661 15.6741 9.89126 15.8081C10.0659 15.9421 10.2799 16.0147 10.5 16.0147C10.7202 16.0147 10.9341 15.9421 11.1088 15.8081C11.2834 15.6741 11.409 15.4862 11.4659 15.2735C11.5229 15.0609 11.5081 14.8354 11.4239 14.632C11.3397 14.4287 11.1907 14.259 11 14.1489Z" fill="currentColor"/>
<path d="M15.7071 11.0137L13.5 8.80664L11.793 10.5137H7.00002V11.5137H11.793L13.5 13.2207L15.7071 11.0137ZM13.5 10.2207L14.293 11.0137L13.5 11.8066L12.7071 11.0137L13.5 10.2207Z" fill="currentColor"/>
</g>
<defs>
<clipPath id="clip0_1961_10973">
<rect width="16" height="16" fill="white" transform="translate(0 0.513672)"/>
</clipPath>
</defs>
</svg>
