<svg viewBox="0 0 16 17" fill="none" xmlns="http://www.w3.org/2000/svg">
<rect width="16" height="16" transform="translate(0 0.513672)" fill="white" fill-opacity="0.01" style="mix-blend-mode:multiply"/>
<path d="M9.5 8.51367V7.51367H13.0855L11.939 6.36717L12.646 5.66017L15 8.01367L12.646 10.3672L11.939 9.66017L13.0855 8.51367H9.5Z" fill="currentColor"/>
<path d="M8.5 6.51367H7.5V3.42767L6.3535 4.57417L5.6465 3.86717L8 1.51367L10.3535 3.86717L9.6465 4.57417L8.5 3.42767V6.51367Z" fill="currentColor"/>
<path d="M8.5 10.5642V9.51367C8.4994 8.98342 8.2885 8.47506 7.91356 8.10012C7.53861 7.72517 7.03025 7.51427 6.5 7.51367H2.91405L4.06055 6.36717L3.3535 5.66017L1 8.01367L3.3535 10.3672L4.06055 9.66017L2.91405 8.51367H6.5C6.76511 8.514 7.01928 8.61947 7.20674 8.80693C7.39421 8.9944 7.49967 9.24856 7.5 9.51367V10.5642C6.89298 10.6881 6.35359 11.033 5.9864 11.532C5.61921 12.031 5.45039 12.6486 5.51266 13.265C5.57493 13.8814 5.86385 14.4527 6.32342 14.8682C6.78299 15.2837 7.38046 15.5137 8 15.5137C8.61954 15.5137 9.21701 15.2837 9.67658 14.8682C10.1361 14.4527 10.4251 13.8814 10.4873 13.265C10.5496 12.6486 10.3808 12.031 10.0136 11.532C9.64641 11.033 9.10702 10.6881 8.5 10.5642ZM8 14.5137C7.70333 14.5137 7.41332 14.4257 7.16664 14.2609C6.91997 14.0961 6.72771 13.8618 6.61418 13.5877C6.50065 13.3136 6.47094 13.012 6.52882 12.721C6.5867 12.4301 6.72956 12.1628 6.93934 11.953C7.14912 11.7432 7.41639 11.6004 7.70736 11.5425C7.99834 11.4846 8.29994 11.5143 8.57403 11.6279C8.84811 11.7414 9.08238 11.9336 9.2472 12.1803C9.41203 12.427 9.5 12.717 9.5 13.0137C9.49956 13.4114 9.34139 13.7926 9.06018 14.0738C8.77897 14.3551 8.39769 14.5132 8 14.5137Z" fill="currentColor"/>
</svg>
