<svg viewBox="0 0 16 17" fill="none" xmlns="http://www.w3.org/2000/svg">
<rect width="16" height="16" transform="translate(0 0.513672)" fill="white" fill-opacity="0.01" style="mix-blend-mode:multiply"/>
<path d="M12 5.51367C11.6044 5.51367 11.2178 5.39637 10.8889 5.17661C10.56 4.95685 10.3036 4.64449 10.1522 4.27904C10.0009 3.91359 9.96126 3.51145 10.0384 3.12349C10.1156 2.73553 10.3061 2.37916 10.5858 2.09946C10.8655 1.81975 11.2219 1.62927 11.6098 1.5521C11.9978 1.47493 12.3999 1.51454 12.7654 1.66591C13.1308 1.81729 13.4432 2.07363 13.6629 2.40253C13.8827 2.73143 14 3.11811 14 3.51367C13.9994 4.04392 13.7885 4.55228 13.4136 4.92723C13.0386 5.30217 12.5303 5.51308 12 5.51367ZM12 2.51367C11.8022 2.51367 11.6089 2.57232 11.4444 2.6822C11.28 2.79208 11.1518 2.94826 11.0761 3.13099C11.0004 3.31372 10.9806 3.51478 11.0192 3.70876C11.0578 3.90274 11.153 4.08093 11.2929 4.22078C11.4327 4.36063 11.6109 4.45587 11.8049 4.49446C11.9989 4.53304 12.2 4.51324 12.3827 4.43755C12.5654 4.36186 12.7216 4.23369 12.8315 4.06924C12.9414 3.90479 13 3.71145 13 3.51367C12.9997 3.24854 12.8943 2.99435 12.7068 2.80687C12.5193 2.6194 12.2651 2.51395 12 2.51367Z" fill="currentColor"/>
<path d="M7.25 15.5137C6.52223 15.5142 5.82398 15.226 5.30843 14.7123C4.79288 14.1986 4.50214 13.5014 4.5 12.7737C4.5 11.0524 6.6721 2.26662 6.76465 1.89367C6.79149 1.78524 6.85387 1.68892 6.94184 1.62007C7.02981 1.55123 7.13829 1.51382 7.25 1.51382C7.36171 1.51382 7.47019 1.55123 7.55816 1.62007C7.64613 1.68892 7.70851 1.78524 7.73535 1.89367C7.8279 2.26662 10 11.0524 10 12.7737C9.99786 13.5014 9.70712 14.1986 9.19157 14.7123C8.67602 15.226 7.97777 15.5142 7.25 15.5137ZM7.25 4.13562C6.51955 7.20367 5.5 11.7181 5.5 12.7737C5.5 13.2378 5.68437 13.6829 6.01256 14.0111C6.34075 14.3393 6.78587 14.5237 7.25 14.5237C7.71413 14.5237 8.15925 14.3393 8.48744 14.0111C8.81563 13.6829 9 13.2378 9 12.7737C9 11.7181 7.98045 7.20367 7.25 4.13562Z" fill="currentColor"/>
</svg>
