<svg viewBox="0 0 16 17" fill="none" xmlns="http://www.w3.org/2000/svg">
<rect width="16" height="16" transform="translate(0 0.513672)" fill="white" fill-opacity="0.01" style="mix-blend-mode:multiply"/>
<path d="M14 1.51367H2C1.73478 1.51367 1.48043 1.61903 1.29289 1.80657C1.10536 1.9941 1 2.24846 1 2.51367V14.5137C1 14.7789 1.10536 15.0332 1.29289 15.2208C1.48043 15.4083 1.73478 15.5137 2 15.5137H14C14.2652 15.5137 14.5196 15.4083 14.7071 15.2208C14.8946 15.0332 15 14.7789 15 14.5137V2.51367C15 2.24846 14.8946 1.9941 14.7071 1.80657C14.5196 1.61903 14.2652 1.51367 14 1.51367ZM11.2929 7.22072L9 4.92772V7.81202C8.99924 8.37965 8.80612 8.93027 8.45215 9.37402L7.3286 10.7783C7.11622 11.0445 7.00038 11.3748 7 11.7153V14.0137H6V11.7153C6.00076 11.1477 6.19388 10.5971 6.54785 10.1533L7.6714 8.74902C7.88378 8.48286 7.99962 8.15253 8 7.81202V4.92772L5.70705 7.22072L5 6.51367L8.5 3.01367L12 6.51367L11.2929 7.22072Z" fill="currentColor"/>
</svg>
