<svg viewBox="0 0 16 17" fill="none" xmlns="http://www.w3.org/2000/svg">
<rect width="16" height="16" transform="translate(0 0.513672)" fill="white" fill-opacity="0.01" style="mix-blend-mode:multiply"/>
<path d="M13.2929 10.3066L11 12.5996V6.51367C11 5.45281 10.5786 4.43539 9.82843 3.68524C9.07828 2.9351 8.06087 2.51367 7 2.51367C5.93913 2.51367 4.92172 2.9351 4.17157 3.68524C3.42143 4.43539 3 5.45281 3 6.51367V14.5137H4V6.51367C4 5.71802 4.31607 4.95496 4.87868 4.39235C5.44129 3.82974 6.20435 3.51367 7 3.51367C7.79565 3.51367 8.55871 3.82974 9.12132 4.39235C9.68393 4.95496 10 5.71802 10 6.51367V12.5996L7.70705 10.3066L7 11.0137L10.5 14.5137L14 11.0137L13.2929 10.3066Z" fill="currentColor"/>
</svg>
