<svg viewBox="0 0 16 17" fill="none" xmlns="http://www.w3.org/2000/svg">
<rect width="16" height="16" transform="translate(0 0.513672)" fill="white" fill-opacity="0.01" style="mix-blend-mode:multiply"/>
<path d="M8.9392 8.24607C8.79953 8.10706 8.6888 7.94173 8.61341 7.75966C8.53803 7.57759 8.49948 7.38238 8.5 7.18532V4.42772L10.7929 6.72072L11.5 6.01367L8 2.51367L4.5 6.01367L5.20705 6.72072L7.5 4.42772V7.18532C7.50054 7.38236 7.462 7.57754 7.38661 7.75958C7.31122 7.94162 7.20048 8.10691 7.0608 8.24587L5.7322 9.57422C5.49935 9.80585 5.31474 10.0814 5.18906 10.3848C5.06338 10.6882 4.99912 11.0136 5 11.342V14.5137H6V11.342C5.99946 11.145 6.038 10.9498 6.11339 10.7678C6.18878 10.5857 6.29952 10.4204 6.4392 10.2815L7.7678 8.95312C7.852 8.86468 7.92961 8.7702 8 8.67042C8.07039 8.7702 8.148 8.86468 8.2322 8.95312L9.5608 10.2813C9.70047 10.4203 9.8112 10.5856 9.88659 10.7677C9.96197 10.9498 10.0005 11.145 10 11.342V14.5137H11V11.342C11.0009 11.0136 10.9366 10.6882 10.8109 10.3848C10.6853 10.0814 10.5007 9.80585 10.2678 9.57422L8.9392 8.24607Z" fill="currentColor"/>
</svg>
