<svg viewBox="0 0 16 17" fill="none" xmlns="http://www.w3.org/2000/svg">
<rect width="16" height="16" transform="translate(0 0.513672)" fill="white" fill-opacity="0.01" style="mix-blend-mode:multiply"/>
<path d="M8 10.5137H7V14.5137H8V10.5137Z" fill="currentColor"/>
<path d="M4.5 2.51367C5.42794 2.5147 6.31758 2.88378 6.97373 3.53994C7.62989 4.19609 7.99897 5.08573 8 6.01367V7.51367H7V6.01367C7 5.51922 6.85338 5.03587 6.57867 4.62475C6.30397 4.21362 5.91352 3.89319 5.45671 3.70397C4.99989 3.51475 4.49723 3.46525 4.01227 3.56171C3.52732 3.65817 3.08186 3.89627 2.73223 4.2459C2.3826 4.59554 2.1445 5.04099 2.04804 5.52595C1.95157 6.0109 2.00108 6.51357 2.1903 6.97038C2.37952 7.4272 2.69995 7.81764 3.11107 8.09235C3.5222 8.36705 4.00555 8.51367 4.5 8.51367H13.0859L10.7929 6.22072L11.5 5.51367L15 9.01367L11.5 12.5137L10.7929 11.8066L13.0859 9.51367H4.5C3.57174 9.51367 2.6815 9.14492 2.02513 8.48855C1.36875 7.83217 1 6.94193 1 6.01367C1 5.08541 1.36875 4.19518 2.02513 3.5388C2.6815 2.88242 3.57174 2.51367 4.5 2.51367Z" fill="currentColor"/>
</svg>
