<svg viewBox="0 0 16 17" fill="none" xmlns="http://www.w3.org/2000/svg">
<rect width="16" height="16" transform="translate(0 0.513672)" fill="white" fill-opacity="0.01" style="mix-blend-mode:multiply"/>
<path d="M13 9.51378V12.8067L7.9356 7.74228C8.30029 7.23954 8.49773 6.63487 8.5 6.01378C8.50058 5.44169 8.33756 4.88135 8.03018 4.39885C7.72279 3.91634 7.28385 3.53179 6.7651 3.29054C6.24636 3.04929 5.66946 2.96139 5.1024 3.03721C4.53535 3.11303 4.0018 3.34941 3.56467 3.71847C3.12754 4.08754 2.80504 4.5739 2.63522 5.12022C2.4654 5.66653 2.45532 6.25001 2.60619 6.80185C2.75705 7.3537 3.06256 7.85091 3.4867 8.23484C3.91083 8.61878 4.4359 8.87343 5 8.96878V14.5138H6V8.96878C6.44327 8.89045 6.86302 8.71267 7.2277 8.44878L12.2929 13.5138H9V14.5138H14V9.51378H13ZM5.5 8.01378C5.10444 8.01378 4.71776 7.89649 4.38886 7.67672C4.05996 7.45696 3.80361 7.1446 3.65224 6.77915C3.50086 6.4137 3.46126 6.01157 3.53843 5.6236C3.6156 5.23564 3.80608 4.87927 4.08578 4.59957C4.36549 4.31986 4.72186 4.12938 5.10982 4.05221C5.49778 3.97504 5.89991 4.01465 6.26537 4.16602C6.63082 4.3174 6.94317 4.57375 7.16294 4.90264C7.3827 5.23154 7.5 5.61822 7.5 6.01378C7.4994 6.54403 7.2885 7.0524 6.91355 7.42734C6.53861 7.80228 6.03025 8.01319 5.5 8.01378Z" fill="currentColor"/>
</svg>
