<svg viewBox="0 0 16 17" fill="none" xmlns="http://www.w3.org/2000/svg">
<rect width="16" height="16" transform="translate(0 0.513672)" fill="white" fill-opacity="0.01" style="mix-blend-mode:multiply"/>
<path d="M14 1.51367H2C1.73478 1.51367 1.48043 1.61903 1.29289 1.80657C1.10536 1.9941 1 2.24846 1 2.51367V14.5137C1 14.7789 1.10536 15.0332 1.29289 15.2208C1.48043 15.4083 1.73478 15.5137 2 15.5137H14C14.2652 15.5137 14.5196 15.4083 14.7071 15.2208C14.8946 15.0332 15 14.7789 15 14.5137V2.51367C15 2.24846 14.8946 1.9941 14.7071 1.80657C14.5196 1.61903 14.2652 1.51367 14 1.51367ZM4 3.51367H5V7.51367H4V3.51367ZM9.5 12.5137L8.79295 11.8066L11.0859 9.51367H5V13.5137H4V9.51367C4 9.24846 4.10536 8.9941 4.29289 8.80657C4.48043 8.61903 4.73478 8.51367 5 8.51367H11.0859L8.79295 6.22072L9.5 5.51367L13 9.01367L9.5 12.5137Z" fill="currentColor"/>
</svg>
