<svg viewBox="0 0 16 17" fill="none" xmlns="http://www.w3.org/2000/svg">
<rect width="16" height="16" transform="translate(0 0.513672)" fill="white" fill-opacity="0.01" style="mix-blend-mode:multiply"/>
<path d="M8.5 6.55867V3.42772L10.7929 5.72072L11.5 5.01367L8 1.51367L4.5 5.01367L5.20705 5.72072L7.5 3.42772V6.55867C6.801 6.67587 6.16618 7.03707 5.70832 7.57809C5.25047 8.11911 4.99922 8.80492 4.99922 9.51367C4.99922 10.2224 5.25047 10.9082 5.70832 11.4493C6.16618 11.9903 6.801 12.3515 7.5 12.4687V14.5137H8.5V12.4687C9.199 12.3515 9.83382 11.9903 10.2917 11.4493C10.7495 10.9082 11.0008 10.2224 11.0008 9.51367C11.0008 8.80492 10.7495 8.11911 10.2917 7.57809C9.83382 7.03707 9.199 6.67587 8.5 6.55867ZM8 11.5137C7.60444 11.5137 7.21776 11.3964 6.88886 11.1766C6.55996 10.9568 6.30362 10.6445 6.15224 10.279C6.00087 9.91359 5.96126 9.51145 6.03843 9.12349C6.1156 8.73553 6.30608 8.37916 6.58579 8.09946C6.86549 7.81975 7.22186 7.62927 7.60982 7.5521C7.99778 7.47493 8.39991 7.51454 8.76537 7.66591C9.13082 7.81729 9.44318 8.07363 9.66294 8.40253C9.8827 8.73143 10 9.11811 10 9.51367C9.9994 10.0439 9.7885 10.5523 9.41356 10.9272C9.03861 11.3022 8.53025 11.5131 8 11.5137Z" fill="currentColor"/>
</svg>
