<svg viewBox="0 0 16 17" fill="none" xmlns="http://www.w3.org/2000/svg">
<rect width="16" height="16" transform="translate(0 0.513672)" fill="white" fill-opacity="0.01" style="mix-blend-mode:multiply"/>
<path d="M10.9998 2.51367L10.2927 3.22072L12.5857 5.51367H8.45477C8.36326 4.97092 8.12412 4.46383 7.76354 4.04798C7.40296 3.63212 6.93487 3.32355 6.41056 3.15607C5.88625 2.98859 5.32595 2.96867 4.79107 3.09849C4.25619 3.22831 3.76737 3.50287 3.37817 3.89207C2.98897 4.28127 2.71441 4.77009 2.58459 5.30497C2.45477 5.83985 2.47469 6.40015 2.64217 6.92446C2.80965 7.44877 3.11822 7.91686 3.53408 8.27744C3.94993 8.63802 4.45702 8.87716 4.99977 8.96867V14.5137H5.99977V8.96867C6.61281 8.86404 7.17825 8.57166 7.61801 8.13191C8.05776 7.69215 8.35014 7.12671 8.45477 6.51367H12.5859L10.2929 8.80662L10.9998 9.51367L14.4998 6.01367L10.9998 2.51367ZM5.49977 8.01367C5.10421 8.01367 4.71753 7.89637 4.38863 7.67661C4.05973 7.45685 3.80339 7.14449 3.65201 6.77904C3.50064 6.41359 3.46103 6.01145 3.5382 5.62349C3.61537 5.23553 3.80585 4.87916 4.08556 4.59946C4.36526 4.31975 4.72163 4.12927 5.10959 4.0521C5.49755 3.97493 5.89969 4.01454 6.26514 4.16591C6.63059 4.31729 6.94295 4.57363 7.16271 4.90253C7.38247 5.23143 7.49977 5.61811 7.49977 6.01367C7.49918 6.54392 7.28827 7.05228 6.91333 7.42723C6.53838 7.80217 6.03002 8.01308 5.49977 8.01367Z" fill="currentColor"/>
</svg>
