<svg viewBox="0 0 16 17" fill="none" xmlns="http://www.w3.org/2000/svg">
<rect width="16" height="16" transform="translate(0 0.513672)" fill="white" fill-opacity="0.01" style="mix-blend-mode:multiply"/>
<path d="M1 2.51367V14.5137C1 14.7789 1.10536 15.0332 1.29289 15.2208C1.48043 15.4083 1.73478 15.5137 2 15.5137H14C14.2652 15.5137 14.5196 15.4083 14.7071 15.2208C14.8946 15.0332 15 14.7789 15 14.5137V2.51367C15 2.24846 14.8946 1.9941 14.7071 1.80657C14.5196 1.61903 14.2652 1.51367 14 1.51367H2C1.73478 1.51367 1.48043 1.61903 1.29289 1.80657C1.10536 1.9941 1 2.24846 1 2.51367ZM8 9.51367H9V13.5137H8V9.51367ZM2 8.01367L5.5 4.51367L6.20705 5.22072L3.91405 7.51367H10.5C10.7967 7.51367 11.0867 7.4257 11.3334 7.26088C11.58 7.09605 11.7723 6.86179 11.8858 6.5877C11.9994 6.31361 12.0291 6.01201 11.9712 5.72104C11.9133 5.43006 11.7704 5.16279 11.5607 4.95301C11.3509 4.74323 11.0836 4.60037 10.7926 4.54249C10.5017 4.48462 10.2001 4.51432 9.92597 4.62785C9.65189 4.74138 9.41762 4.93364 9.2528 5.18032C9.08797 5.42699 9 5.717 9 6.01367V6.51367H8V6.01367C8 5.51922 8.14662 5.03587 8.42133 4.62475C8.69603 4.21362 9.08648 3.89319 9.54329 3.70397C10.0001 3.51475 10.5028 3.46525 10.9877 3.56171C11.4727 3.65817 11.9181 3.89627 12.2678 4.2459C12.6174 4.59554 12.8555 5.04099 12.952 5.52595C13.0484 6.0109 12.9989 6.51357 12.8097 6.97038C12.6205 7.4272 12.3 7.81764 11.8889 8.09235C11.4778 8.36705 10.9945 8.51367 10.5 8.51367H3.91405L6.20705 10.8066L5.5 11.5137L2 8.01367Z" fill="currentColor"/>
</svg>
