<svg viewBox="0 0 16 16" fill="none" xmlns="http://www.w3.org/2000/svg">
<rect width="16" height="16" fill="white" fill-opacity="0.01" style="mix-blend-mode:multiply"/>
<path d="M15 9.50017L13 11.1002V10.0002C12.9997 9.73505 12.8942 9.48087 12.7068 9.2934C12.5193 9.10593 12.2651 9.00048 12 9.00017H8C7.73488 9.00048 7.4807 9.10593 7.29323 9.2934C7.10576 9.48087 7.0003 9.73505 7 10.0002V13.0002C7.0003 13.2653 7.10576 13.5195 7.29323 13.7069C7.4807 13.8944 7.73488 13.9999 8 14.0002H12C12.2651 13.9999 12.5193 13.8944 12.7068 13.7069C12.8942 13.5195 12.9997 13.2653 13 13.0002V11.9002L15 13.5002V9.50017ZM8 13.0002V10.0002H12L12.0007 13.0002H8Z" fill="currentColor"/>
<path d="M6 14.0002H4V2.00017H8V5.00017C8.00077 5.26515 8.10637 5.51906 8.29374 5.70643C8.48111 5.8938 8.73502 5.99941 9 6.00017H12V7.50017H13V5.00017C13.0018 4.93446 12.9893 4.86913 12.9634 4.80871C12.9375 4.74828 12.8988 4.6942 12.85 4.65017L9.35 1.15017C9.30599 1.10134 9.2519 1.06263 9.19147 1.03674C9.13104 1.01084 9.06572 0.998364 9 1.00017H4C3.73502 1.00094 3.48111 1.10654 3.29374 1.29391C3.10637 1.48128 3.00077 1.73519 3 2.00017V14.0002C3.00077 14.2652 3.10637 14.5191 3.29374 14.7064C3.48111 14.8938 3.73502 14.9994 4 15.0002H6V14.0002ZM9 2.20017L11.8 5.00017H9V2.20017Z" fill="currentColor"/>
</svg>
