<svg viewBox="0 0 16 16" fill="none" xmlns="http://www.w3.org/2000/svg">
<rect width="16" height="16" fill="white" fill-opacity="0.01" style="mix-blend-mode:multiply"/>
<path d="M13 15H10.5V14H13V13H11.5C10.9488 13 10.5 12.5512 10.5 12V11C10.5 10.4485 10.9488 10 11.5 10H14V11H11.5V12H13C13.5512 12 14 12.4488 14 13V14C14 14.5512 13.5512 15 13 15Z" fill="currentColor"/>
<path d="M8 10H5V11H8V10Z" fill="currentColor"/>
<path d="M9 8H5V9H9V8Z" fill="currentColor"/>
<path d="M12 8.4961H13V5C13 4.94995 13 4.8501 12.95 4.80005C12.9 4.75 12.9 4.69995 12.8499 4.6499L9.34995 1.1499C9.3 1.1001 9.24995 1.05005 9.19995 1.05005C9.15 1 9.05005 1 9 1H4C3.75 1 3.5 1.1001 3.30005 1.30005C3.1 1.5 3 1.75 3 2V14C3 14.25 3.1 14.5 3.30005 14.7C3.5 14.8999 3.75 15 4 15H7.97365V14H4V2H8V5C8 5.25 8.1 5.5 8.30005 5.69995C8.5 5.8999 8.75 6 9 6H12V8.4961ZM9 5V2.19995L11.8 5H9Z" fill="currentColor"/>
</svg>
