<svg viewBox="0 0 16 16" fill="none" xmlns="http://www.w3.org/2000/svg">
<rect width="16" height="16" fill="white" fill-opacity="0.01" style="mix-blend-mode:multiply"/>
<path d="M13 8.5H8C7.448 8.5007 7.0007 8.948 7 9.5V12.5C7 13.0523 7.4477 13.5 8 13.5H10V12.5H8V9.5H13V12.5H11.7324L10.4355 14.4453L11.2676 15L12.2676 13.5H13C13.5523 13.5 14 13.0523 14 12.5V9.5C13.9993 8.948 13.552 8.5007 13 8.5Z" fill="currentColor"/>
<path d="M11 7H12V5C12 4.8501 11.95 4.75 11.85 4.6499L8.35 1.1499C8.25 1.05005 8.15005 1 8 1H3C2.44995 1 2 1.44995 2 2V14C2 14.5501 2.44995 15 3 15H6V14H3V2H7V5C7 5.55005 7.44995 6 8 6H11V7ZM8 5V2.19995L10.8 5H8Z" fill="currentColor"/>
</svg>
