<svg viewBox="0 0 16 16" fill="none" xmlns="http://www.w3.org/2000/svg">
<rect width="16" height="16" fill="white" fill-opacity="0.01" style="mix-blend-mode:multiply"/>
<path d="M12 15.0002C11.4067 15.0002 10.8266 14.8242 10.3333 14.4946C9.83994 14.1649 9.45542 13.6964 9.22836 13.1482C9.0013 12.6 8.94189 11.9968 9.05764 11.4149C9.1734 10.833 9.45912 10.2984 9.87868 9.87885C10.2982 9.45929 10.8328 9.17357 11.4147 9.05782C11.9967 8.94206 12.5999 9.00147 13.148 9.22853C13.6962 9.4556 14.1648 9.84011 14.4944 10.3335C14.8241 10.8268 15 11.4068 15 12.0002C14.9991 12.7955 14.6828 13.5581 14.1203 14.1205C13.5579 14.6829 12.7954 14.9993 12 15.0002ZM12 10.0002C11.6044 10.0002 11.2178 10.1175 10.8889 10.3372C10.56 10.557 10.3036 10.8694 10.1522 11.2348C10.0009 11.6003 9.96126 12.0024 10.0384 12.3904C10.1156 12.7783 10.3061 13.1347 10.5858 13.4144C10.8655 13.6941 11.2219 13.8846 11.6098 13.9617C11.9978 14.0389 12.3999 13.9993 12.7654 13.8479C13.1308 13.6966 13.4432 13.4402 13.6629 13.1113C13.8827 12.7824 14 12.3957 14 12.0002C13.9994 11.4699 13.7885 10.9616 13.4136 10.5866C13.0386 10.2117 12.5303 10.0008 12 10.0002Z" fill="currentColor"/>
<path d="M8 11.0002H4V12.0002H8V11.0002Z" fill="currentColor"/>
<path d="M9 8.00017H4V9.00017H9V8.00017Z" fill="currentColor"/>
<path d="M8 14.0002H3V2.00017H7V5.00017C7.00077 5.26515 7.10637 5.51906 7.29374 5.70643C7.48111 5.8938 7.73502 5.99941 8 6.00017H11V7.50017H12V5.00017C12.0018 4.93446 11.9893 4.86913 11.9634 4.80871C11.9375 4.74828 11.8988 4.6942 11.85 4.65017L8.35 1.15017C8.30599 1.10134 8.2519 1.06263 8.19147 1.03674C8.13104 1.01084 8.06572 0.998364 8 1.00017H3C2.73502 1.00094 2.48111 1.10654 2.29374 1.29391C2.10637 1.48128 2.00077 1.73519 2 2.00017V14.0002C2.00077 14.2652 2.10637 14.5191 2.29374 14.7064C2.48111 14.8938 2.73502 14.9994 3 15.0002H8V14.0002ZM8 2.20017L10.8 5.00017H8V2.20017Z" fill="currentColor"/>
</svg>
