<svg viewBox="0 0 16 16" fill="none" xmlns="http://www.w3.org/2000/svg">
<rect width="16" height="16" fill="white" fill-opacity="0.01" style="mix-blend-mode:multiply"/>
<path d="M4.49995 15.0002C4.91416 15.0002 5.24995 14.6644 5.24995 14.2502C5.24995 13.836 4.91416 13.5002 4.49995 13.5002C4.08574 13.5002 3.74995 13.836 3.74995 14.2502C3.74995 14.6644 4.08574 15.0002 4.49995 15.0002Z" fill="currentColor"/>
<path d="M5 12.5002H4V10.5002H5C5.26522 10.5002 5.51957 10.3948 5.70711 10.2073C5.89464 10.0197 6 9.76539 6 9.50017C6 9.23496 5.89464 8.9806 5.70711 8.79307C5.51957 8.60553 5.26522 8.50017 5 8.50017H4C3.73488 8.50048 3.4807 8.60593 3.29323 8.7934C3.10576 8.98087 3.0003 9.23505 3 9.50017V9.75017H2V9.50017C2.0006 8.96992 2.2115 8.46156 2.58644 8.08662C2.96139 7.71167 3.46975 7.50077 4 7.50017H5C5.53043 7.50017 6.03914 7.71089 6.41421 8.08596C6.78929 8.46103 7 8.96974 7 9.50017C7 10.0306 6.78929 10.5393 6.41421 10.9144C6.03914 11.2895 5.53043 11.5002 5 11.5002V12.5002Z" fill="currentColor"/>
<path d="M13.85 4.65017L10.35 1.15017C10.306 1.10133 10.2519 1.06263 10.1915 1.03673C10.131 1.01083 10.0657 0.998358 10 1.00017H5C4.73502 1.00094 4.48111 1.10654 4.29374 1.29391C4.10637 1.48128 4.00077 1.73519 4 2.00017V6.00017H5V2.00017H9V5.00017C9.00077 5.26515 9.10637 5.51906 9.29374 5.70643C9.48111 5.89381 9.73502 5.99941 10 6.00017H13V14.0002H7V15.0002H13C13.265 14.9994 13.5189 14.8938 13.7063 14.7064C13.8936 14.5191 13.9992 14.2652 14 14.0002V5.00017C14.0018 4.93446 13.9893 4.86914 13.9634 4.80871C13.9375 4.74829 13.8988 4.6942 13.85 4.65017ZM10 5.00017V2.20017L12.8 5.00017H10Z" fill="currentColor"/>
</svg>
