<svg viewBox="0 0 16 16" fill="none" xmlns="http://www.w3.org/2000/svg">
<rect width="16" height="16" fill="white" fill-opacity="0.01" style="mix-blend-mode:multiply"/>
<path d="M11.5 15.0002L10.4306 14.4938C10.0035 14.2903 9.64252 13.9701 9.3894 13.5703C9.13627 13.1705 9.00129 12.7073 9 12.2341V9.00017H14V12.2341C13.9988 12.7073 13.8638 13.1706 13.6107 13.5704C13.3575 13.9703 12.9966 14.2905 12.5694 14.4941L11.5 15.0002ZM10 10.0002V12.2341C10.0008 12.5179 10.0818 12.7958 10.2337 13.0356C10.3856 13.2754 10.6021 13.4675 10.8584 13.5895L11.5 13.8932L12.1416 13.5895C12.3979 13.4675 12.6144 13.2754 12.7663 13.0356C12.9182 12.7958 12.9992 12.5179 13 12.2341V10.0002H10Z" fill="currentColor"/>
<path d="M8 14.0002H3V2.00017H7V5.00017C7.00077 5.26515 7.10637 5.51906 7.29374 5.70643C7.48111 5.8938 7.73502 5.99941 8 6.00017H11V7.50017H12V5.00017C12.0018 4.93446 11.9893 4.86913 11.9634 4.80871C11.9375 4.74828 11.8988 4.6942 11.85 4.65017L8.35 1.15017C8.30599 1.10134 8.2519 1.06263 8.19147 1.03674C8.13104 1.01084 8.06572 0.998364 8 1.00017H3C2.73502 1.00094 2.48111 1.10654 2.29374 1.29391C2.10637 1.48128 2.00077 1.73519 2 2.00017V14.0002C2.00077 14.2652 2.10637 14.5191 2.29374 14.7064C2.48111 14.8938 2.73502 14.9994 3 15.0002H8V14.0002ZM8 2.20017L10.8 5.00017H8V2.20017Z" fill="currentColor"/>
</svg>
