<svg viewBox="0 0 16 16" fill="none" xmlns="http://www.w3.org/2000/svg">
<rect width="16" height="16" fill="white" fill-opacity="0.01" style="mix-blend-mode:multiply"/>
<path d="M14.5 15.5002C14.3865 15.5002 14.2764 15.4615 14.1877 15.3906L11.8247 13.5002H10C9.86739 13.5002 9.74021 13.4475 9.64645 13.3537C9.55268 13.26 9.5 13.1328 9.5 13.0002V10.5002C9.5 10.3676 9.55268 10.2404 9.64645 10.1466C9.74021 10.0529 9.86739 10.0002 10 10.0002H11.8247L14.1877 8.10977C14.2613 8.05097 14.3499 8.01412 14.4435 8.00349C14.5371 7.99285 14.6317 8.00884 14.7166 8.04964C14.8015 8.09043 14.8731 8.15436 14.9232 8.23406C14.9734 8.31377 15 8.40601 15 8.50017V15.0002C15 15.1328 14.9473 15.26 14.8536 15.3537C14.7598 15.4475 14.6326 15.5002 14.5 15.5002ZM10.5 12.5002H12C12.1135 12.5002 12.2236 12.5389 12.3123 12.6098L14 13.9599V9.54047L12.3123 10.8905C12.2236 10.9614 12.1135 11.0001 12 11.0002H10.5V12.5002Z" fill="currentColor"/>
<path d="M8 14.0002H4V2.00017H8V5.00017C8.00077 5.26515 8.10637 5.51906 8.29374 5.70643C8.48111 5.8938 8.73502 5.99941 9 6.00017H12V7.50017H13V5.00017C13.0018 4.93446 12.9893 4.86913 12.9634 4.80871C12.9375 4.74828 12.8988 4.6942 12.85 4.65017L9.35 1.15017C9.30599 1.10134 9.2519 1.06263 9.19147 1.03674C9.13104 1.01084 9.06572 0.998364 9 1.00017H4C3.73502 1.00094 3.48111 1.10654 3.29374 1.29391C3.10637 1.48128 3.00077 1.73519 3 2.00017V14.0002C3.00077 14.2652 3.10637 14.5191 3.29374 14.7064C3.48111 14.8938 3.73502 14.9994 4 15.0002H8V14.0002ZM9 2.20017L11.8 5.00017H9V2.20017Z" fill="currentColor"/>
</svg>
