<svg viewBox="0 0 16 17" fill="none" xmlns="http://www.w3.org/2000/svg">
<rect width="16" height="16" transform="translate(0 0.513672)" fill="white" fill-opacity="0.01" style="mix-blend-mode:multiply"/>
<path d="M11 10.5137H10V15.5137H11V10.5137Z" fill="currentColor"/>
<path d="M3 12.0137H2V15.5137H3V12.0137Z" fill="currentColor"/>
<path d="M8 15.5137H7V13.5137C6.99985 13.3811 6.94713 13.254 6.85339 13.1603C6.75966 13.0665 6.63256 13.0138 6.5 13.0137H5.5V15.5137H4.5V12.0137H6.5C6.89769 12.0141 7.27897 12.1723 7.56018 12.4535C7.84139 12.7347 7.99956 13.116 8 13.5137V15.5137Z" fill="currentColor"/>
<path d="M3.75 11.5137C3.28604 11.5131 2.84123 11.3286 2.51316 11.0005C2.18509 10.6724 2.00054 10.2276 2 9.76367V9.01367H1V8.01367H3V9.76367C3 9.96259 3.07902 10.1534 3.21967 10.294C3.36032 10.4347 3.55109 10.5137 3.75 10.5137C3.94891 10.5137 4.13968 10.4347 4.28033 10.294C4.42098 10.1534 4.5 9.96259 4.5 9.76367V8.01367H6.5V9.01367H5.5V9.76367C5.49946 10.2276 5.31491 10.6724 4.98684 11.0005C4.65877 11.3286 4.21396 11.5131 3.75 11.5137Z" fill="currentColor"/>
<path d="M13.5 5.51367H10.677C10.377 5.5127 10.0836 5.60214 9.83521 5.77032C9.58677 5.9385 9.39475 6.17762 9.2842 6.45652L8.56325 8.25927L6.7593 10.5143L7.5403 11.1388L9.3903 8.82627L10.2128 6.82822C10.2496 6.7352 10.3135 6.65542 10.3964 6.59931C10.4792 6.5432 10.577 6.51335 10.677 6.51367H13.5C13.6326 6.51379 13.7597 6.56651 13.8534 6.66025C13.9472 6.75399 13.9999 6.8811 14 7.01367V10.5137H12.5V15.5137H13.5V11.5137H14C14.2651 11.5134 14.5193 11.4079 14.7068 11.2204C14.8942 11.033 14.9997 10.7788 15 10.5137V7.01367C14.9996 6.61598 14.8414 6.2347 14.5602 5.9535C14.279 5.67229 13.8977 5.51411 13.5 5.51367Z" fill="currentColor"/>
<path d="M12 5.01367C11.6044 5.01367 11.2178 4.89637 10.8889 4.67661C10.56 4.45685 10.3036 4.14449 10.1522 3.77904C10.0009 3.41359 9.96126 3.01145 10.0384 2.62349C10.1156 2.23553 10.3061 1.87916 10.5858 1.59946C10.8655 1.31975 11.2219 1.12927 11.6098 1.0521C11.9978 0.974932 12.3999 1.01454 12.7654 1.16591C13.1308 1.31729 13.4432 1.57363 13.6629 1.90253C13.8827 2.23143 14 2.61811 14 3.01367C13.9994 3.54392 13.7885 4.05228 13.4136 4.42723C13.0386 4.80217 12.5303 5.01308 12 5.01367ZM12 2.01367C11.8022 2.01367 11.6089 2.07232 11.4444 2.1822C11.28 2.29208 11.1518 2.44826 11.0761 2.63099C11.0004 2.81372 10.9806 3.01478 11.0192 3.20876C11.0578 3.40274 11.153 3.58093 11.2929 3.72078C11.4327 3.86063 11.6109 3.95587 11.8049 3.99446C11.9989 4.03304 12.2 4.01324 12.3827 3.93755C12.5654 3.86186 12.7216 3.73369 12.8315 3.56924C12.9414 3.40479 13 3.21145 13 3.01367C12.9997 2.74854 12.8943 2.49435 12.7068 2.30687C12.5193 2.1194 12.2651 2.01395 12 2.01367Z" fill="currentColor"/>
</svg>
