<svg viewBox="0 0 16 16" fill="none" xmlns="http://www.w3.org/2000/svg">
<rect width="16" height="16" fill="white" fill-opacity="0.01" style="mix-blend-mode:multiply"/>
<path d="M9.57 14.0002C9.23052 14.0015 8.89832 13.9018 8.61571 13.7137C8.33311 13.5255 8.1129 13.2576 7.98313 12.9438C7.85336 12.6301 7.8199 12.2849 7.88701 11.9521C7.95413 11.6193 8.11878 11.3141 8.36 11.0752L10.93 8.50017C11.0058 8.437 11.0675 8.35874 11.1113 8.27037C11.1552 8.18201 11.1801 8.08548 11.1846 7.98695C11.189 7.88841 11.1729 7.79003 11.1372 7.69807C11.1015 7.60611 11.0471 7.5226 10.9773 7.45285C10.9076 7.3831 10.8241 7.32866 10.7321 7.29298C10.6401 7.2573 10.5418 7.24117 10.4432 7.24562C10.3447 7.25007 10.2482 7.27501 10.1598 7.31883C10.0714 7.36266 9.99317 7.42442 9.93 7.50017L6.5 10.9252C6.17405 11.2384 5.73954 11.4133 5.2875 11.4133C4.83546 11.4133 4.40095 11.2384 4.075 10.9252C3.75502 10.6038 3.57537 10.1687 3.57537 9.71517C3.57537 9.26164 3.75502 8.82658 4.075 8.50517L8.365 4.21517C8.44075 4.152 8.50251 4.07374 8.54634 3.98537C8.59017 3.89701 8.6151 3.80048 8.61955 3.70194C8.62401 3.60341 8.60788 3.50503 8.5722 3.41307C8.53652 3.32111 8.48207 3.2376 8.41232 3.16785C8.34258 3.0981 8.25906 3.04366 8.1671 3.00798C8.07515 2.9723 7.97676 2.95617 7.87823 2.96062C7.77969 2.96507 7.68317 2.99001 7.5948 3.03383C7.50644 3.07766 7.42817 3.13942 7.365 3.21517L3.205 7.35017L2.5 6.65017L6.645 2.50017C6.9715 2.20463 7.39918 2.04602 7.83943 2.05719C8.27968 2.06837 8.69877 2.24848 9.00985 2.56021C9.32093 2.87193 9.50018 3.29138 9.51044 3.73166C9.52071 4.17193 9.36121 4.59928 9.065 4.92517L4.78 9.21017C4.6481 9.34315 4.57408 9.52287 4.57408 9.71017C4.57408 9.89748 4.6481 10.0772 4.78 10.2102C4.91481 10.3386 5.09384 10.4102 5.28 10.4102C5.46616 10.4102 5.64519 10.3386 5.78 10.2102L9.21 6.78017C9.36586 6.60799 9.55506 6.46926 9.76614 6.37239C9.97722 6.27552 10.2058 6.22253 10.4379 6.21664C10.6701 6.21074 10.9011 6.25207 11.1168 6.3381C11.3325 6.42414 11.5285 6.55309 11.6929 6.71714C11.8573 6.8812 11.9867 7.07693 12.0731 7.29248C12.1596 7.50802 12.2014 7.73888 12.196 7.97107C12.1906 8.20325 12.1381 8.43191 12.0416 8.64319C11.9452 8.85447 11.8069 9.04396 11.635 9.20017L9.06 11.7752C8.9465 11.9113 8.888 12.0849 8.896 12.2619C8.904 12.439 8.97792 12.6066 9.10323 12.7319C9.22854 12.8573 9.39619 12.9312 9.57323 12.9392C9.75027 12.9472 9.9239 12.8887 10.06 12.7752L12.28 10.5602L13 11.2802L10.78 13.5002C10.6217 13.6598 10.4332 13.7863 10.2254 13.8721C10.0176 13.958 9.79481 14.0015 9.57 14.0002Z" fill="currentColor"/>
</svg>
