<svg viewBox="0 0 16 16" fill="none" xmlns="http://www.w3.org/2000/svg">
<rect width="16" height="16" fill="white" fill-opacity="0.01" style="mix-blend-mode:multiply"/>
<path d="M11.5 5.20705L13 3.70705L12.2929 3L10.6465 4.6465C10.5527 4.74025 10.5 4.86745 10.5 5V7H6.96285L7.53465 15H11.9653L12.5371 7H11.5V5.20705ZM11.0346 14H8.4653L8.0371 8H11.4629L11.0346 14Z" fill="currentColor"/>
<path d="M7.5 0.5H5C4.7239 0.5 4.5 0.7239 4.5 1V4.6853C3.9663 4.98805 3 5.77415 3 7.5V14.5C3 14.7763 3.2239 15 3.5 15H6V14H4V7.5C4 5.6232 5.5 5.36035 5.5 5.36035V1.5H7V5H8V1C8 0.7239 7.7761 0.5 7.5 0.5Z" fill="currentColor"/>
</svg>
