<svg viewBox="0 0 16 17" fill="none" xmlns="http://www.w3.org/2000/svg">
<rect width="16" height="16" transform="translate(0 0.513672)" fill="white" fill-opacity="0.01" style="mix-blend-mode:multiply"/>
<path d="M8 11.5137C8.27614 11.5137 8.5 11.2898 8.5 11.0137C8.5 10.7375 8.27614 10.5137 8 10.5137C7.72386 10.5137 7.5 10.7375 7.5 11.0137C7.5 11.2898 7.72386 11.5137 8 11.5137Z" fill="currentColor"/>
<path d="M14 10.0137V8.01366H13V9.01366H3V8.01366H2V10.0137H5.5V12.2195L3.5 13.332V15.5137H4.5V13.9199L6.13 13.0137H9.8705L11.5 13.9199V15.5137H12.5V13.332L10.5 12.2195V10.0137H14ZM9.5 12.0137H6.5V10.0137H9.5V12.0137Z" fill="currentColor"/>
<path d="M5 6.01366H0V7.01366H5V6.01366Z" fill="currentColor"/>
<path d="M16 6.01366H11V7.01366H16V6.01366Z" fill="currentColor"/>
<path d="M8 3.51366C7.60606 3.51342 7.21594 3.591 6.85207 3.74196C6.4882 3.89292 6.15773 4.11427 5.87965 4.39331L6.58645 5.10011C6.77193 4.91421 6.99225 4.76673 7.23481 4.66609C7.47737 4.56546 7.7374 4.51366 8 4.51366C8.2626 4.51366 8.52263 4.56546 8.76519 4.66609C9.00775 4.76673 9.22807 4.91421 9.41355 5.10011L10.1203 4.39331C9.84227 4.11427 9.51181 3.89291 9.14793 3.74195C8.78406 3.59099 8.39395 3.51341 8 3.51366Z" fill="currentColor"/>
<path d="M4.4662 2.97971L5.17285 3.68651C5.54383 3.31473 5.98449 3.01977 6.46961 2.81851C6.95473 2.61726 7.47479 2.51367 8 2.51367C8.52521 2.51367 9.04527 2.61726 9.53039 2.81851C10.0155 3.01977 10.4562 3.31473 10.8272 3.68651L11.5339 2.97971C11.0702 2.51499 10.5194 2.14629 9.91303 1.89473C9.30663 1.64316 8.65658 1.51367 8.00008 1.51367C7.34357 1.51367 6.69352 1.64316 6.08712 1.89473C5.48073 2.14629 4.92991 2.51499 4.4662 2.97971Z" fill="currentColor"/>
</svg>
