<svg viewBox="0 0 16 17" fill="none" xmlns="http://www.w3.org/2000/svg">
<rect width="16" height="16" transform="translate(0 0.513672)" fill="white" fill-opacity="0.01" style="mix-blend-mode:multiply"/>
<path d="M3.5 6.51367C3.00555 6.51367 2.5222 6.36705 2.11108 6.09235C1.69995 5.81764 1.37952 5.4272 1.1903 4.97038C1.00108 4.51357 0.951575 4.0109 1.04804 3.52595C1.1445 3.04099 1.3826 2.59554 1.73223 2.24591C2.08187 1.89627 2.52732 1.65817 3.01228 1.56171C3.49723 1.46525 3.99989 1.51476 4.45671 1.70397C4.91352 1.89319 5.30397 2.21362 5.57867 2.62475C5.85338 3.03587 6 3.51922 6 4.01367H5C5 3.717 4.91203 3.42699 4.74721 3.18032C4.58238 2.93364 4.34812 2.74139 4.07403 2.62785C3.79994 2.51432 3.49834 2.48462 3.20737 2.5425C2.91639 2.60037 2.64912 2.74323 2.43934 2.95301C2.22956 3.16279 2.0867 3.43007 2.02882 3.72104C1.97095 4.01201 2.00065 4.31361 2.11418 4.5877C2.22771 4.86179 2.41997 5.09606 2.66665 5.26088C2.91332 5.4257 3.20333 5.51367 3.5 5.51367V6.51367Z" fill="currentColor"/>
<path d="M12.5 6.51367V5.51367C12.7967 5.51367 13.0867 5.4257 13.3334 5.26088C13.58 5.09606 13.7723 4.86179 13.8858 4.5877C13.9994 4.31361 14.0291 4.01201 13.9712 3.72104C13.9133 3.43007 13.7704 3.16279 13.5607 2.95301C13.3509 2.74323 13.0836 2.60037 12.7926 2.5425C12.5017 2.48462 12.2001 2.51432 11.926 2.62785C11.6519 2.74139 11.4176 2.93364 11.2528 3.18032C11.088 3.42699 11 3.717 11 4.01367H10C10 3.51922 10.1466 3.03587 10.4213 2.62475C10.696 2.21362 11.0865 1.89319 11.5433 1.70397C12.0001 1.51476 12.5028 1.46525 12.9877 1.56171C13.4727 1.65817 13.9181 1.89627 14.2678 2.24591C14.6174 2.59554 14.8555 3.04099 14.952 3.52595C15.0484 4.0109 14.9989 4.51357 14.8097 4.97038C14.6205 5.4272 14.3 5.81764 13.8889 6.09235C13.4778 6.36705 12.9945 6.51367 12.5 6.51367Z" fill="currentColor"/>
<path d="M3.5 15.5137C2.83696 15.5137 2.20108 15.2503 1.73223 14.7814C1.26339 14.3126 1 13.6767 1 13.0137C1 12.3506 1.26339 11.7147 1.73223 11.2459C2.20108 10.7771 2.83696 10.5137 3.5 10.5137V11.5137C3.20333 11.5137 2.91332 11.6016 2.66665 11.7665C2.41997 11.9313 2.22771 12.1656 2.11418 12.4396C2.00065 12.7137 1.97095 13.0153 2.02882 13.3063C2.0867 13.5973 2.22956 13.8646 2.43934 14.0743C2.64912 14.2841 2.91639 14.427 3.20737 14.4849C3.49834 14.5427 3.79994 14.513 4.07403 14.3995C4.34812 14.286 4.58238 14.0937 4.74721 13.847C4.91203 13.6004 5 13.3103 5 13.0137H6C5.99927 13.6765 5.73565 14.312 5.26696 14.7806C4.79828 15.2493 4.16282 15.5129 3.5 15.5137Z" fill="currentColor"/>
<path d="M12.5 15.5137C11.8372 15.5129 11.2017 15.2493 10.733 14.7806C10.2644 14.312 10.0007 13.6765 10 13.0137H11C11 13.3103 11.088 13.6004 11.2528 13.847C11.4176 14.0937 11.6519 14.286 11.926 14.3995C12.2001 14.513 12.5017 14.5427 12.7926 14.4849C13.0836 14.427 13.3509 14.2841 13.5607 14.0743C13.7704 13.8646 13.9133 13.5973 13.9712 13.3063C14.0291 13.0153 13.9994 12.7137 13.8858 12.4396C13.7723 12.1656 13.58 11.9313 13.3334 11.7665C13.0867 11.6016 12.7967 11.5137 12.5 11.5137V10.5137C13.163 10.5137 13.7989 10.7771 14.2678 11.2459C14.7366 11.7147 15 12.3506 15 13.0137C15 13.6767 14.7366 14.3126 14.2678 14.7814C13.7989 15.2503 13.163 15.5137 12.5 15.5137Z" fill="currentColor"/>
<path d="M10 9.80662V7.22072L12.8535 4.36717C12.9013 4.32105 12.9393 4.26588 12.9656 4.20488C12.9918 4.14387 13.0056 4.07826 13.0061 4.01187C13.0067 3.94548 12.9941 3.87964 12.9689 3.8182C12.9438 3.75675 12.9066 3.70092 12.8597 3.65398C12.8128 3.60703 12.7569 3.5699 12.6955 3.54476C12.634 3.51962 12.5682 3.50697 12.5018 3.50755C12.4354 3.50812 12.3698 3.52192 12.3088 3.54812C12.2478 3.57433 12.1926 3.61242 12.1465 3.66017L9.89675 5.91017C9.77086 5.50557 9.51888 5.15182 9.17763 4.90062C8.83638 4.64941 8.42374 4.51391 8 4.51391C7.57626 4.51391 7.16363 4.64941 6.82238 4.90062C6.48113 5.15182 6.22915 5.50557 6.10325 5.91017L3.8535 3.66017C3.80709 3.61372 3.75199 3.57688 3.69133 3.55174C3.63068 3.5266 3.56566 3.51366 3.5 3.51366C3.43434 3.51366 3.36933 3.5266 3.30867 3.55174C3.24801 3.57688 3.19291 3.61372 3.1465 3.66017C3.10005 3.70658 3.0632 3.76169 3.03806 3.82234C3.01292 3.883 2.99998 3.94801 2.99998 4.01367C2.99998 4.07933 3.01292 4.14435 3.03806 4.205C3.0632 4.26566 3.10005 4.32077 3.1465 4.36717L6 7.22072V9.80662L3.1465 12.6602C3.10005 12.7066 3.0632 12.7617 3.03806 12.8223C3.01292 12.883 2.99998 12.948 2.99998 13.0137C2.99998 13.0793 3.01292 13.1443 3.03806 13.205C3.0632 13.2657 3.10005 13.3208 3.1465 13.3672C3.19291 13.4136 3.24801 13.4505 3.30867 13.4756C3.36933 13.5008 3.43434 13.5137 3.5 13.5137C3.56566 13.5137 3.63068 13.5008 3.69133 13.4756C3.75199 13.4505 3.80709 13.4136 3.8535 13.3672L6.1035 11.1172C6.2294 11.5218 6.48138 11.8755 6.82263 12.1267C7.16388 12.3779 7.57651 12.5134 8.00025 12.5134C8.42399 12.5134 8.83663 12.3779 9.17788 12.1267C9.51913 11.8755 9.77111 11.5218 9.897 11.1172L12.1468 13.3672C12.2411 13.4583 12.3674 13.5087 12.4985 13.5075C12.6296 13.5064 12.755 13.4538 12.8477 13.3611C12.9404 13.2684 12.9929 13.143 12.9941 13.0119C12.9952 12.8808 12.9448 12.7545 12.8538 12.6602L10 9.80662ZM9 10.5137C9 10.7789 8.89464 11.0332 8.70711 11.2208C8.51957 11.4083 8.26522 11.5137 8 11.5137C7.73478 11.5137 7.48043 11.4083 7.29289 11.2208C7.10536 11.0332 7 10.7789 7 10.5137V6.51367C7 6.24846 7.10536 5.9941 7.29289 5.80657C7.48043 5.61903 7.73478 5.51367 8 5.51367C8.26522 5.51367 8.51957 5.61903 8.70711 5.80657C8.89464 5.9941 9 6.24846 9 6.51367V10.5137Z" fill="currentColor"/>
</svg>
