<svg viewBox="0 0 16 17" fill="none" xmlns="http://www.w3.org/2000/svg">
<rect width="16" height="16" transform="translate(0 0.513672)" fill="white" fill-opacity="0.01" style="mix-blend-mode:multiply"/>
<path d="M13.5 9.51343H15V8.01343C14.9994 7.48318 14.7885 6.97482 14.4136 6.59988C14.0386 6.22494 13.5303 6.01403 13 6.01343H12.5V5.26343C12.4994 4.79948 12.3149 4.35468 11.9868 4.02661C11.6588 3.69854 11.214 3.51399 10.75 3.51343C10.49 3.51477 10.2336 3.57478 10 3.68898V3.21843C10.0002 2.82563 9.8647 2.44481 9.6165 2.14036C9.3683 1.8359 9.02258 1.62649 8.6378 1.54751C8.25301 1.46854 7.85276 1.52485 7.5047 1.70692C7.15664 1.889 6.88212 2.18567 6.72755 2.54678L5.6704 5.01343H4.5C3.8372 5.01421 3.20177 5.27786 2.7331 5.74653C2.26442 6.2152 2.00078 6.85063 2 7.51343V9.51343H4C4.6628 9.51265 5.29823 9.24901 5.7669 8.78034C6.23558 8.31167 6.49922 7.67624 6.5 7.01343V5.61598L7.6465 2.94098C7.71026 2.79146 7.82374 2.66856 7.96772 2.59309C8.1117 2.51763 8.27733 2.49424 8.43657 2.52688C8.59582 2.55952 8.73889 2.64619 8.84157 2.77222C8.94424 2.89824 9.00021 3.05588 9 3.21843V11.5134H7.30615L5.5 13.1604L3.69385 11.5134H1V12.5134H3.30615L5.5 14.5134L7.69385 12.5134H15V11.5134H10V5.26343C10 5.06452 10.079 4.87376 10.2197 4.7331C10.3603 4.59245 10.5511 4.51343 10.75 4.51343C10.9489 4.51343 11.1397 4.59245 11.2803 4.7331C11.421 4.87376 11.5 5.06452 11.5 5.26343V7.51343C11.5006 8.04368 11.7115 8.55205 12.0864 8.92699C12.4614 9.30193 12.9697 9.51284 13.5 9.51343ZM12.5 7.01343H13C13.2651 7.01374 13.5193 7.11919 13.7068 7.30666C13.8942 7.49413 13.9997 7.74831 14 8.01343V8.51343H13.5C13.2349 8.51313 12.9807 8.40768 12.7932 8.2202C12.6058 8.03273 12.5003 7.77856 12.5 7.51343V7.01343ZM5.5 7.01343C5.49956 7.41113 5.34139 7.7924 5.06018 8.07361C4.77897 8.35482 4.39769 8.513 4 8.51343H3V7.51343C3.00044 7.11574 3.15861 6.73447 3.43982 6.45326C3.72103 6.17205 4.10231 6.01387 4.5 6.01343H5.5V7.01343Z" fill="currentColor"/>
</svg>
