<svg viewBox="0 0 16 17" fill="none" xmlns="http://www.w3.org/2000/svg">
<rect width="16" height="16" transform="translate(0 0.513672)" fill="white" fill-opacity="0.01" style="mix-blend-mode:multiply"/>
<path d="M9.5 11.5137H8.5V12.5137H9.5V11.5137Z" fill="currentColor"/>
<path d="M9.5 9.51367H8.5V10.5137H9.5V9.51367Z" fill="currentColor"/>
<path d="M8.5 12.5137H7V13.5137H8.5V12.5137Z" fill="currentColor"/>
<path d="M8 1.51367C6.61553 1.51367 5.26216 1.92421 4.11101 2.69338C2.95987 3.46255 2.06266 4.55581 1.53285 5.83489C1.00303 7.11397 0.86441 8.52144 1.13451 9.8793C1.4046 11.2372 2.07129 12.4845 3.05026 13.4634C4.02922 14.4424 5.2765 15.1091 6.63437 15.3792C7.99224 15.6493 9.3997 15.5106 10.6788 14.9808C11.9579 14.451 13.0511 13.5538 13.8203 12.4027C14.5895 11.2515 15 9.89814 15 8.51367C14.9979 6.6578 14.2597 4.87854 12.9474 3.56623C11.6351 2.25393 9.85588 1.51576 8 1.51367ZM2.35 10.5137H3L5.0886 11.8137C5.19884 11.8823 5.33144 11.9053 5.45835 11.8779C5.58526 11.8504 5.69652 11.7747 5.7686 11.6667L6.2725 10.9108C6.3366 10.8146 6.3654 10.6992 6.35401 10.5842C6.34262 10.4692 6.29173 10.3617 6.21 10.28L5 9.06957L5.5 7.51367H8.1615C8.26142 7.51368 8.35905 7.48376 8.4418 7.42775C8.52455 7.37175 8.58862 7.29224 8.62575 7.19947L9.41665 5.22217C9.4429 5.15659 9.45496 5.0862 9.45203 5.01562C9.4491 4.94505 9.43125 4.8759 9.39965 4.81272L8.25645 2.52662C9.28729 2.56784 10.2899 2.87493 11.1671 3.41806C12.0442 3.9612 12.7659 4.72192 13.2622 5.62635C13.7585 6.53078 14.0125 7.54818 13.9995 8.57976C13.9865 9.61133 13.707 10.622 13.1881 11.5137H11.5C11.3674 11.5137 11.2402 11.5663 11.1464 11.6601C11.0527 11.7539 11 11.8811 11 12.0137V13.7019C10.2388 14.1451 9.3891 14.4145 8.51164 14.4911C7.63418 14.5677 6.75064 14.4494 5.9242 14.1448C5.09776 13.8402 4.34882 13.3567 3.73095 12.729C3.11307 12.1013 2.64152 11.3448 2.35 10.5137Z" fill="currentColor"/>
</svg>
