<svg viewBox="0 0 16 17" fill="none" xmlns="http://www.w3.org/2000/svg">
<rect width="16" height="16" transform="translate(0 0.513672)" fill="white" fill-opacity="0.01" style="mix-blend-mode:multiply"/>
<path d="M8 1.51367C6.61553 1.51367 5.26216 1.92421 4.11101 2.69338C2.95987 3.46255 2.06266 4.55581 1.53285 5.83489C1.00303 7.11397 0.86441 8.52144 1.13451 9.8793C1.4046 11.2372 2.07129 12.4845 3.05026 13.4634C4.02922 14.4424 5.2765 15.1091 6.63437 15.3792C7.99224 15.6493 9.3997 15.5106 10.6788 14.9808C11.9579 14.451 13.0511 13.5538 13.8203 12.4027C14.5895 11.2515 15 9.89814 15 8.51367C14.9979 6.6578 14.2597 4.87854 12.9474 3.56623C11.6351 2.25393 9.85588 1.51576 8 1.51367ZM2 8.51367C2.00053 7.67143 2.17896 6.83879 2.52362 6.0703C2.86828 5.3018 3.37139 4.61478 4 4.05422V5.01367C4 5.27889 4.10536 5.53324 4.2929 5.72078C4.48043 5.90831 4.73479 6.01367 5 6.01367H6.6909C6.87668 6.01369 7.05878 5.96197 7.2168 5.86429C7.37482 5.76661 7.50251 5.62685 7.58555 5.46067L7.8091 5.01367H9V7.01367H6.6177C6.46261 7.0137 6.30964 7.0498 6.1709 7.11912L4.55275 7.92822C4.38667 8.01127 4.247 8.13892 4.14937 8.29687C4.05174 8.45482 4.00002 8.63684 4 8.82252V10.6753C4.00002 10.8751 4.05992 11.0704 4.17197 11.2359C4.28403 11.4013 4.44309 11.5295 4.62865 11.6037L6.553 12.3737L6.89195 14.4069C5.51815 14.1474 4.27788 13.4168 3.38489 12.3411C2.49191 11.2653 2.00214 9.91177 2 8.51367ZM7.92285 14.5098L7.447 11.6537L5 10.6753V8.82277L6.6179 8.01367H10V4.01367H7.1909L6.6909 5.01367H5V3.32542C5.7612 2.88228 6.61091 2.6128 7.48837 2.53624C8.36583 2.45968 9.24937 2.57793 10.0758 2.88255C10.9023 3.18716 11.6512 3.67061 12.2691 4.29832C12.8869 4.92604 13.3585 5.68252 13.65 6.51367H11V8.51367L11.4612 10.4204L10.5 11.8623V13.9609C9.71661 14.3243 8.86356 14.5129 8 14.5137C7.974 14.5137 7.94885 14.51 7.92285 14.5098ZM11.5 13.377V12.165L12.293 10.9756C12.3703 10.8596 12.4226 10.7287 12.4464 10.5913C12.4703 10.4539 12.4652 10.313 12.4314 10.1777L12 8.45217V7.51367H13.9097C14.1051 8.61889 13.9823 9.75688 13.5557 10.795C13.129 11.8331 12.4161 12.7286 11.5 13.377Z" fill="currentColor"/>
</svg>
