<svg viewBox="0 0 16 17" fill="none" xmlns="http://www.w3.org/2000/svg">
<rect width="16" height="16" transform="translate(0 0.513672)" fill="white" fill-opacity="0.01" style="mix-blend-mode:multiply"/>
<path d="M8 1.51367C6.61553 1.51367 5.26216 1.92421 4.11101 2.69338C2.95987 3.46255 2.06266 4.55581 1.53285 5.83489C1.00303 7.11397 0.86441 8.52144 1.13451 9.8793C1.4046 11.2372 2.07129 12.4845 3.05026 13.4634C4.02922 14.4424 5.2765 15.1091 6.63437 15.3792C7.99224 15.6493 9.3997 15.5106 10.6788 14.9808C11.9579 14.451 13.0511 13.5538 13.8203 12.4027C14.5895 11.2515 15 9.89814 15 8.51367C14.9979 6.6578 14.2597 4.87854 12.9474 3.56623C11.6351 2.25393 9.85588 1.51576 8 1.51367ZM10.5 3.06642C11.0295 3.31055 11.5206 3.63048 11.9579 4.01612L11.7517 4.51367H10.5V3.06642ZM6.6892 14.365C5.60726 14.1246 4.61326 13.5886 3.81788 12.8167C3.0225 12.0449 2.45695 11.0674 2.18418 9.99316C1.91142 8.91891 1.94215 7.79004 2.27296 6.73223C2.60376 5.67442 3.22166 4.72917 4.05785 4.00172L4.7324 5.01367H6.40355L5.65355 7.01367H3.63965L2.94835 9.08742L4.2324 11.0137H6.7324L7.44835 12.0874L6.6892 14.365ZM8 14.5137C7.8983 14.5137 7.7992 14.5037 7.69875 14.4987L8.3971 12.4037C8.44566 12.2593 8.46039 12.1057 8.44016 11.9548C8.41993 11.8038 8.36527 11.6595 8.2804 11.5331L7.56445 10.4593C7.4733 10.3222 7.34962 10.2097 7.20444 10.1319C7.05926 10.0542 6.89709 10.0135 6.7324 10.0137H4.7674L4.05165 8.93992L4.36035 8.01367H5.5V9.01367H6.5V7.60427L7.96815 3.68927L7.03185 3.33817L6.77855 4.01367H5.2676L4.864 3.40822C5.54804 2.98125 6.31237 2.6991 7.10976 2.5792C7.90715 2.45931 8.72066 2.50423 9.5 2.71117V4.51367C9.50033 4.77879 9.6058 5.03295 9.79326 5.22041C9.98073 5.40788 10.2349 5.51334 10.5 5.51367H11.7929C11.9242 5.51404 12.0544 5.48834 12.1758 5.43805C12.2972 5.38777 12.4074 5.3139 12.5 5.22072L12.5703 5.15037L12.7112 4.81037C13.1148 5.32321 13.4319 5.89856 13.65 6.51367H11.2993C11.0629 6.51292 10.834 6.59624 10.6533 6.74874C10.4727 6.90125 10.3522 7.113 10.3134 7.34617L10.015 9.06687C9.97886 9.27066 10.0072 9.48065 10.096 9.6676C10.1848 9.85455 10.3297 10.0092 10.5105 10.1099L11.5929 10.8418L12.3221 12.6648C11.764 13.249 11.0932 13.7141 10.3504 14.0318C9.60753 14.3496 8.80798 14.5135 8 14.5137ZM12.4073 10.1855L11.05 9.26807L11 9.23807L11.2993 7.51367H13.9097C14.1716 8.98893 13.8596 10.5085 13.0376 11.7612L12.4073 10.1855Z" fill="currentColor"/>
</svg>
