<svg viewBox="0 0 16 16" fill="none" xmlns="http://www.w3.org/2000/svg">
<rect width="16" height="16" fill="white" fill-opacity="0.01" style="mix-blend-mode:multiply"/>
<path d="M5.90815 2.38232L5.56635 1.44352C4.80363 1.72555 4.096 2.13855 3.4753 2.66392L4.11785 3.42967C4.64913 2.97904 5.25499 2.62461 5.90815 2.38232Z" fill="currentColor"/>
<path d="M2.79559 5L1.92994 4.5C1.52629 5.2114 1.24914 5.98744 1.11084 6.7936L2.09469 6.96705C2.21305 6.27583 2.45019 5.61032 2.79559 5Z" fill="currentColor"/>
<path d="M7.99994 13C9.32602 13 10.5978 12.4732 11.5355 11.5355C12.4732 10.5979 12.9999 9.32608 12.9999 8C12.9999 6.67392 12.4732 5.40215 11.5355 4.46447C10.5978 3.52678 9.32602 3 7.99994 3V13Z" fill="currentColor"/>
<path d="M14.9999 8C14.9999 6.14348 14.2624 4.36301 12.9497 3.05025C11.6369 1.7375 9.85646 1 7.99995 1V2C9.41276 1.99922 10.7805 2.49731 11.862 3.40642C12.9434 4.31554 13.6692 5.5773 13.9112 6.96923C14.1533 8.36116 13.8961 9.79385 13.1851 11.0147C12.474 12.2355 11.3547 13.1661 10.0246 13.6424C9.9405 13.6723 9.8576 13.7071 9.7724 13.7334C9.6468 13.772 9.5174 13.8015 9.38825 13.8321C9.32515 13.8471 9.26325 13.8667 9.19965 13.8797C9.05425 13.9092 8.90545 13.9285 8.75655 13.9473C8.70655 13.9534 8.6574 13.9643 8.60715 13.9692C7.42312 14.0896 6.23006 13.8551 5.17963 13.2957C4.1292 12.7362 3.26885 11.8771 2.70795 10.8274C2.67475 10.7639 2.64145 10.7007 2.6103 10.6353C2.58295 10.5791 2.5573 10.5217 2.5317 10.4646C2.32955 9.99508 2.18297 9.50355 2.09495 9L1.1111 9.20655C1.16861 9.5261 1.24842 9.84124 1.34995 10.1496L1.3374 10.1538C1.79025 11.5639 2.67984 12.7934 3.87752 13.6646C5.07521 14.5357 6.51894 15.0034 7.99995 15C8.23775 15 8.47358 14.9881 8.70745 14.9643C8.77495 14.9575 8.84015 14.9433 8.9072 14.9344C9.0715 14.9131 9.2359 14.8924 9.3979 14.8596C9.4879 14.8413 9.57455 14.8142 9.6633 14.7928C9.79755 14.7598 9.93245 14.7302 10.0646 14.6895C10.1878 14.6514 10.3062 14.6033 10.4263 14.5589C10.5163 14.5257 10.6081 14.4984 10.6969 14.4613L10.6965 14.46C11.9711 13.9278 13.0598 13.0305 13.8255 11.881C14.5913 10.7315 14.9999 9.38121 14.9999 8Z" fill="currentColor"/>
</svg>
