<svg viewBox="0 0 16 17" fill="none" xmlns="http://www.w3.org/2000/svg">
<rect width="16" height="16" transform="translate(0 0.513672)" fill="white" fill-opacity="0.01" style="mix-blend-mode:multiply"/>
<path d="M13 3.51367H11V5.51367H13V3.51367Z" fill="currentColor"/>
<path d="M3.5 4.51367C3.77614 4.51367 4 4.28981 4 4.01367C4 3.73753 3.77614 3.51367 3.5 3.51367C3.22386 3.51367 3 3.73753 3 4.01367C3 4.28981 3.22386 4.51367 3.5 4.51367Z" fill="currentColor"/>
<path d="M12.5 13.5137C12.7761 13.5137 13 13.2898 13 13.0137C13 12.7375 12.7761 12.5137 12.5 12.5137C12.2239 12.5137 12 12.7375 12 13.0137C12 13.2898 12.2239 13.5137 12.5 13.5137Z" fill="currentColor"/>
<path d="M12.5 11.5137C12.7761 11.5137 13 11.2898 13 11.0137C13 10.7375 12.7761 10.5137 12.5 10.5137C12.2239 10.5137 12 10.7375 12 11.0137C12 11.2898 12.2239 11.5137 12.5 11.5137Z" fill="currentColor"/>
<path d="M12.5 9.51367C12.7761 9.51367 13 9.28981 13 9.01367C13 8.73753 12.7761 8.51367 12.5 8.51367C12.2239 8.51367 12 8.73753 12 9.01367C12 9.28981 12.2239 9.51367 12.5 9.51367Z" fill="currentColor"/>
<path d="M11 9.01367V8.01367H10V7.51367C9.9997 7.24855 9.89424 6.99437 9.70677 6.8069C9.5193 6.61943 9.26512 6.51398 9 6.51367H8.5V5.51367H7.5V6.51367H6.5V5.51367H5.5V6.51367H5C4.73488 6.51398 4.4807 6.61943 4.29323 6.8069C4.10576 6.99437 4.0003 7.24855 4 7.51367V8.01367H3V9.01367H4V10.0137H3V11.0137H4V11.5137C4.0003 11.7788 4.10576 12.033 4.29323 12.2204C4.4807 12.4079 4.73488 12.5134 5 12.5137H5.5V13.5137H6.5V12.5137H7.5V13.5137H8.5V12.5137H9C9.26512 12.5134 9.5193 12.4079 9.70677 12.2204C9.89424 12.033 9.9997 11.7788 10 11.5137V11.0137H11V10.0137H10V9.01367H11ZM9 11.5137H5V7.51367H9V11.5137Z" fill="currentColor"/>
<path d="M14 15.5137H2C1.73487 15.5134 1.48068 15.4079 1.2932 15.2205C1.10572 15.033 1.00028 14.7788 1 14.5137V2.51367C1.00028 2.24854 1.10572 1.99435 1.2932 1.80687C1.48068 1.6194 1.73487 1.51395 2 1.51367H14C14.2651 1.51395 14.5193 1.6194 14.7068 1.80687C14.8943 1.99435 14.9997 2.24854 15 2.51367V14.5137C14.9997 14.7788 14.8943 15.033 14.7068 15.2205C14.5193 15.4079 14.2651 15.5134 14 15.5137ZM2 2.51367V14.5137H14V2.51367H2Z" fill="currentColor"/>
</svg>
