<svg viewBox="0 0 16 17" fill="none" xmlns="http://www.w3.org/2000/svg">
<rect width="16" height="16" transform="translate(0 0.513672)" fill="white" fill-opacity="0.01" style="mix-blend-mode:multiply"/>
<path d="M13.5 11.5137C13.1212 11.5145 12.757 11.6595 12.4813 11.9192L10.4794 10.718C10.5069 10.5832 10.5069 10.4442 10.4794 10.3093L12.4813 9.10817C12.7338 9.34118 13.0589 9.48013 13.4018 9.50165C13.7447 9.52317 14.0846 9.42594 14.3643 9.22632C14.6439 9.0267 14.8463 8.73686 14.9374 8.40555C15.0285 8.07425 15.0027 7.72168 14.8644 7.40715C14.7261 7.09262 14.4837 6.83531 14.1779 6.6785C13.8722 6.52169 13.5218 6.47494 13.1857 6.54612C12.8495 6.6173 12.5481 6.80206 12.3322 7.06933C12.1163 7.3366 11.999 7.67008 12 8.01367C12.0021 8.08227 12.0091 8.15064 12.0208 8.21827L10.0188 9.41942C9.80538 9.21932 9.5381 9.08599 9.24986 9.03586C8.96163 8.98573 8.66503 9.02098 8.39657 9.13727C8.12812 9.25357 7.89953 9.44583 7.73896 9.69038C7.57838 9.93494 7.49283 10.2211 7.49283 10.5137C7.49283 10.8062 7.57838 11.0924 7.73896 11.337C7.89953 11.5815 8.12812 11.7738 8.39657 11.8901C8.66503 12.0064 8.96163 12.0416 9.24986 11.9915C9.5381 11.9414 9.80538 11.808 10.0188 11.6079L12.0208 12.8091C12.0091 12.8767 12.0021 12.9451 12 13.0137C12 13.3103 12.088 13.6004 12.2528 13.847C12.4176 14.0937 12.6519 14.286 12.926 14.3995C13.2001 14.513 13.5017 14.5427 13.7926 14.4848C14.0836 14.427 14.3509 14.2841 14.5607 14.0743C14.7704 13.8646 14.9133 13.5973 14.9712 13.3063C15.0291 13.0153 14.9994 12.7137 14.8858 12.4396C14.7723 12.1656 14.58 11.9313 14.3334 11.7665C14.0867 11.6016 13.7967 11.5137 13.5 11.5137ZM13.5 7.51367C13.5989 7.51367 13.6956 7.543 13.7778 7.59794C13.86 7.65288 13.9241 7.73097 13.9619 7.82233C13.9998 7.91369 14.0097 8.01423 13.9904 8.11122C13.9711 8.20821 13.9235 8.2973 13.8536 8.36723C13.7836 8.43715 13.6945 8.48477 13.5975 8.50406C13.5006 8.52336 13.4 8.51346 13.3087 8.47561C13.2173 8.43777 13.1392 8.37368 13.0843 8.29146C13.0293 8.20923 13 8.11256 13 8.01367C13.0001 7.8811 13.0528 7.75399 13.1466 7.66025C13.2403 7.56651 13.3674 7.51379 13.5 7.51367ZM9 11.0137C8.90111 11.0137 8.80444 10.9843 8.72221 10.9294C8.63999 10.8745 8.5759 10.7964 8.53806 10.705C8.50022 10.6137 8.49031 10.5131 8.50961 10.4161C8.5289 10.3191 8.57652 10.23 8.64645 10.1601C8.71637 10.0902 8.80546 10.0426 8.90245 10.0233C8.99944 10.004 9.09998 10.0139 9.19134 10.0517C9.2827 10.0896 9.36079 10.1537 9.41574 10.2359C9.47068 10.3181 9.5 10.4148 9.5 10.5137C9.49988 10.6462 9.44716 10.7734 9.35342 10.8671C9.25968 10.9608 9.13257 11.0136 9 11.0137ZM13.5 13.5137C13.4011 13.5137 13.3044 13.4843 13.2222 13.4294C13.14 13.3745 13.0759 13.2964 13.0381 13.205C13.0002 13.1137 12.9903 13.0131 13.0096 12.9161C13.0289 12.8191 13.0765 12.73 13.1464 12.6601C13.2164 12.5902 13.3055 12.5426 13.4025 12.5233C13.4994 12.504 13.6 12.5139 13.6913 12.5517C13.7827 12.5896 13.8608 12.6537 13.9157 12.7359C13.9707 12.8181 14 12.9148 14 13.0137C13.9999 13.1462 13.9472 13.2734 13.8534 13.3671C13.7597 13.4608 13.6326 13.5136 13.5 13.5137Z" fill="currentColor"/>
<path d="M3.5 5.01367C3.77614 5.01367 4 4.78981 4 4.51367C4 4.23753 3.77614 4.01367 3.5 4.01367C3.22386 4.01367 3 4.23753 3 4.51367C3 4.78981 3.22386 5.01367 3.5 5.01367Z" fill="currentColor"/>
<path d="M3.5 9.01367C3.77614 9.01367 4 8.78981 4 8.51367C4 8.23753 3.77614 8.01367 3.5 8.01367C3.22386 8.01367 3 8.23753 3 8.51367C3 8.78981 3.22386 9.01367 3.5 9.01367Z" fill="currentColor"/>
<path d="M3.5 13.0137C3.77614 13.0137 4 12.7898 4 12.5137C4 12.2375 3.77614 12.0137 3.5 12.0137C3.22386 12.0137 3 12.2375 3 12.5137C3 12.7898 3.22386 13.0137 3.5 13.0137Z" fill="currentColor"/>
<path d="M11 7.01367V3.01367C10.9997 2.74855 10.8942 2.49437 10.7068 2.3069C10.5193 2.11943 10.2651 2.01398 10 2.01367H2C1.73488 2.01398 1.4807 2.11943 1.29323 2.3069C1.10576 2.49437 1.0003 2.74855 1 3.01367V14.0137C1.0003 14.2788 1.10576 14.533 1.29323 14.7204C1.4807 14.9079 1.73488 15.0134 2 15.0137H10V14.0137H2V11.0137H6V10.0137H2V7.01367H11ZM2 3.01367H10V6.01367H2V3.01367Z" fill="currentColor"/>
</svg>
