<svg viewBox="0 0 16 17" fill="none" xmlns="http://www.w3.org/2000/svg">
<rect width="16" height="16" transform="translate(0 0.513672)" fill="white" fill-opacity="0.01" style="mix-blend-mode:multiply"/>
<path d="M8 4.01367C7.70333 4.01367 7.41332 3.9257 7.16665 3.76088C6.91997 3.59605 6.72771 3.36179 6.61418 3.0877C6.50065 2.81361 6.47094 2.51201 6.52882 2.22104C6.5867 1.93007 6.72956 1.66279 6.93934 1.45301C7.14912 1.24323 7.41639 1.10037 7.70737 1.04249C7.99834 0.984617 8.29994 1.01432 8.57403 1.12785C8.84811 1.24138 9.08238 1.43364 9.2472 1.68032C9.41203 1.92699 9.5 2.217 9.5 2.51367C9.49956 2.91136 9.34139 3.29264 9.06018 3.57385C8.77897 3.85506 8.39769 4.01324 8 4.01367ZM8 2.01367C7.90111 2.01367 7.80444 2.043 7.72222 2.09794C7.63999 2.15288 7.5759 2.23097 7.53806 2.32233C7.50022 2.41369 7.49032 2.51423 7.50961 2.61122C7.5289 2.70821 7.57652 2.7973 7.64645 2.86723C7.71637 2.93715 7.80546 2.98477 7.90246 3.00407C7.99945 3.02336 8.09998 3.01346 8.19134 2.97561C8.2827 2.93777 8.3608 2.87368 8.41574 2.79146C8.47068 2.70923 8.5 2.61256 8.5 2.51367C8.49987 2.3811 8.44715 2.254 8.35341 2.16027C8.25967 2.06653 8.13257 2.0138 8 2.01367Z" fill="currentColor"/>
<path d="M5.5 15.5137C5.20333 15.5137 4.91332 15.4257 4.66665 15.2609C4.41997 15.0961 4.22771 14.8618 4.11418 14.5877C4.00065 14.3136 3.97094 14.012 4.02882 13.721C4.0867 13.4301 4.22956 13.1628 4.43934 12.953C4.64912 12.7432 4.91639 12.6004 5.20737 12.5425C5.49834 12.4846 5.79994 12.5143 6.07403 12.6279C6.34811 12.7414 6.58238 12.9336 6.7472 13.1803C6.91203 13.427 7 13.717 7 14.0137C6.99956 14.4114 6.84139 14.7926 6.56018 15.0738C6.27897 15.3551 5.89769 15.5132 5.5 15.5137ZM5.5 13.5137C5.40111 13.5137 5.30444 13.543 5.22222 13.5979C5.13999 13.6529 5.0759 13.731 5.03806 13.8223C5.00022 13.9137 4.99032 14.0142 5.00961 14.1112C5.0289 14.2082 5.07652 14.2973 5.14645 14.3672C5.21637 14.4372 5.30547 14.4848 5.40246 14.5041C5.49945 14.5234 5.59998 14.5135 5.69134 14.4756C5.78271 14.4378 5.8608 14.3737 5.91574 14.2915C5.97068 14.2092 6 14.1126 6 14.0137C5.99987 13.8811 5.94715 13.754 5.85341 13.6603C5.75967 13.5665 5.63257 13.5138 5.5 13.5137Z" fill="currentColor"/>
<path d="M3.5 6.01367C3.20333 6.01367 2.91332 5.9257 2.66665 5.76088C2.41997 5.59605 2.22771 5.36179 2.11418 5.0877C2.00065 4.81361 1.97095 4.51201 2.02882 4.22104C2.0867 3.93007 2.22956 3.66279 2.43934 3.45301C2.64912 3.24323 2.91639 3.10037 3.20737 3.04249C3.49834 2.98462 3.79994 3.01432 4.07403 3.12785C4.34811 3.24138 4.58238 3.43364 4.7472 3.68032C4.91203 3.92699 5 4.217 5 4.51367C4.99956 4.91136 4.84139 5.29264 4.56018 5.57385C4.27897 5.85506 3.89769 6.01324 3.5 6.01367ZM3.5 4.01367C3.40111 4.01367 3.30444 4.043 3.22222 4.09794C3.13999 4.15288 3.0759 4.23097 3.03806 4.32233C3.00022 4.41369 2.99032 4.51423 3.00961 4.61122C3.0289 4.70821 3.07652 4.7973 3.14645 4.86723C3.21637 4.93715 3.30547 4.98477 3.40246 5.00407C3.49945 5.02336 3.59998 5.01346 3.69134 4.97561C3.78271 4.93777 3.86079 4.87368 3.91574 4.79146C3.97068 4.70923 4 4.61256 4 4.51367C3.99987 4.3811 3.94715 4.254 3.85341 4.16027C3.75967 4.06653 3.63257 4.0138 3.5 4.01367Z" fill="currentColor"/>
<path d="M10.5 15.5137C10.2033 15.5137 9.91332 15.4257 9.66665 15.2609C9.41997 15.0961 9.22771 14.8618 9.11418 14.5877C9.00065 14.3136 8.97095 14.012 9.02882 13.721C9.0867 13.4301 9.22956 13.1628 9.43934 12.953C9.64912 12.7432 9.91639 12.6004 10.2074 12.5425C10.4983 12.4846 10.7999 12.5143 11.074 12.6279C11.3481 12.7414 11.5824 12.9336 11.7472 13.1803C11.912 13.427 12 13.717 12 14.0137C11.9996 14.4114 11.8414 14.7926 11.5602 15.0738C11.279 15.3551 10.8977 15.5132 10.5 15.5137ZM10.5 13.5137C10.4011 13.5137 10.3044 13.543 10.2222 13.5979C10.14 13.6529 10.0759 13.731 10.0381 13.8223C10.0002 13.9137 9.99032 14.0142 10.0096 14.1112C10.0289 14.2082 10.0765 14.2973 10.1464 14.3672C10.2164 14.4372 10.3055 14.4848 10.4025 14.5041C10.4994 14.5234 10.6 14.5135 10.6913 14.4756C10.7827 14.4378 10.8608 14.3737 10.9157 14.2915C10.9707 14.2092 11 14.1126 11 14.0137C10.9999 13.8811 10.9471 13.754 10.8534 13.6603C10.7597 13.5665 10.6326 13.5138 10.5 13.5137Z" fill="currentColor"/>
<path d="M12.5 6.01367C12.2033 6.01367 11.9133 5.9257 11.6666 5.76088C11.42 5.59605 11.2277 5.36179 11.1142 5.0877C11.0007 4.81361 10.9709 4.51201 11.0288 4.22104C11.0867 3.93007 11.2296 3.66279 11.4393 3.45301C11.6491 3.24323 11.9164 3.10037 12.2074 3.04249C12.4983 2.98462 12.7999 3.01432 13.074 3.12785C13.3481 3.24138 13.5824 3.43364 13.7472 3.68032C13.912 3.92699 14 4.217 14 4.51367C13.9996 4.91136 13.8414 5.29264 13.5602 5.57385C13.279 5.85506 12.8977 6.01324 12.5 6.01367ZM12.5 4.01367C12.4011 4.01367 12.3044 4.043 12.2222 4.09794C12.14 4.15288 12.0759 4.23097 12.0381 4.32233C12.0002 4.41369 11.9903 4.51423 12.0096 4.61122C12.0289 4.70821 12.0765 4.7973 12.1464 4.86723C12.2164 4.93715 12.3055 4.98477 12.4025 5.00407C12.4994 5.02336 12.6 5.01346 12.6913 4.97561C12.7827 4.93777 12.8608 4.87368 12.9157 4.79146C12.9707 4.70923 13 4.61256 13 4.51367C12.9999 4.3811 12.9471 4.254 12.8534 4.16027C12.7597 4.06653 12.6326 4.0138 12.5 4.01367Z" fill="currentColor"/>
<path d="M2 11.0137C1.70333 11.0137 1.41332 10.9257 1.16665 10.7609C0.919972 10.5961 0.727713 10.3618 0.614181 10.0877C0.50065 9.81361 0.470945 9.51201 0.528823 9.22104C0.586701 8.93007 0.729562 8.66279 0.939341 8.45301C1.14912 8.24323 1.41639 8.10037 1.70737 8.04249C1.99834 7.98462 2.29994 8.01432 2.57403 8.12785C2.84811 8.24138 3.08238 8.43364 3.24721 8.68032C3.41203 8.92699 3.5 9.217 3.5 9.51367C3.49956 9.91136 3.34139 10.2926 3.06018 10.5738C2.77897 10.8551 2.39769 11.0132 2 11.0137ZM2 9.01367C1.90111 9.01367 1.80444 9.043 1.72222 9.09794C1.63999 9.15288 1.5759 9.23097 1.53806 9.32233C1.50022 9.41369 1.49032 9.51423 1.50961 9.61122C1.5289 9.70821 1.57652 9.7973 1.64645 9.86723C1.71637 9.93715 1.80547 9.98477 1.90246 10.0041C1.99945 10.0234 2.09998 10.0135 2.19134 9.97561C2.28271 9.93777 2.36079 9.87368 2.41574 9.79146C2.47068 9.70923 2.5 9.61256 2.5 9.51367C2.49987 9.38111 2.44715 9.25401 2.35341 9.16027C2.25967 9.06653 2.13257 9.01381 2 9.01367Z" fill="currentColor"/>
<path d="M14 11.0137C13.7033 11.0137 13.4133 10.9257 13.1666 10.7609C12.92 10.5961 12.7277 10.3618 12.6142 10.0877C12.5007 9.81361 12.4709 9.51201 12.5288 9.22104C12.5867 8.93007 12.7296 8.66279 12.9393 8.45301C13.1491 8.24323 13.4164 8.10037 13.7074 8.04249C13.9983 7.98462 14.2999 8.01432 14.574 8.12785C14.8481 8.24138 15.0824 8.43364 15.2472 8.68032C15.412 8.92699 15.5 9.217 15.5 9.51367C15.4996 9.91136 15.3414 10.2926 15.0602 10.5738C14.779 10.8551 14.3977 11.0132 14 11.0137ZM14 9.01367C13.9011 9.01367 13.8044 9.043 13.7222 9.09794C13.64 9.15288 13.5759 9.23097 13.5381 9.32233C13.5002 9.41369 13.4903 9.51423 13.5096 9.61122C13.5289 9.70821 13.5765 9.7973 13.6464 9.86723C13.7164 9.93715 13.8055 9.98477 13.9025 10.0041C13.9994 10.0234 14.1 10.0135 14.1913 9.97561C14.2827 9.93777 14.3608 9.87368 14.4157 9.79146C14.4707 9.70923 14.5 9.61256 14.5 9.51367C14.4999 9.38111 14.4471 9.25401 14.3534 9.16027C14.2597 9.06653 14.1326 9.01381 14 9.01367Z" fill="currentColor"/>
<path d="M8 11.5137C7.40666 11.5137 6.82664 11.3377 6.33329 11.0081C5.83994 10.6784 5.45543 10.2099 5.22836 9.66172C5.0013 9.11354 4.94189 8.51034 5.05765 7.9284C5.1734 7.34646 5.45912 6.81191 5.87868 6.39235C6.29824 5.9728 6.83279 5.68707 7.41473 5.57132C7.99667 5.45556 8.59987 5.51497 9.14805 5.74203C9.69623 5.9691 10.1648 6.35361 10.4944 6.84696C10.8241 7.34031 11 7.92033 11 8.51367C10.9991 9.30904 10.6827 10.0716 10.1203 10.634C9.5579 11.1964 8.79537 11.5128 8 11.5137ZM8 6.51367C7.60444 6.51367 7.21776 6.63097 6.88886 6.85073C6.55996 7.0705 6.30362 7.38285 6.15224 7.74831C6.00087 8.11376 5.96126 8.51589 6.03843 8.90385C6.1156 9.29182 6.30608 9.64818 6.58579 9.92789C6.86549 10.2076 7.22186 10.3981 7.60982 10.4752C7.99778 10.5524 8.39992 10.5128 8.76537 10.3614C9.13082 10.2101 9.44318 9.95371 9.66294 9.62481C9.8827 9.29591 10 8.90924 10 8.51367C9.99941 7.98342 9.7885 7.47506 9.41356 7.10012C9.03861 6.72517 8.53025 6.51427 8 6.51367Z" fill="currentColor"/>
</svg>
