<svg viewBox="0 0 16 16" fill="none" xmlns="http://www.w3.org/2000/svg">
<rect width="16" height="16" fill="white" fill-opacity="0.01" style="mix-blend-mode:multiply"/>
<path d="M12.9999 14V10H11.9999V10.5H10.9999V11.5H11.9999V14H10.9999V15H13.9999V14H12.9999Z" fill="currentColor"/>
<path d="M13.9999 8H14.9999C14.9999 6.14348 14.2624 4.36301 12.9497 3.05025C11.6369 1.7375 9.85646 1 7.99994 1V2C9.59124 2 11.1174 2.63214 12.2426 3.75736C13.3678 4.88258 13.9999 6.4087 13.9999 8Z" fill="currentColor"/>
<path d="M12.9999 8C12.9999 6.67392 12.4732 5.40215 11.5355 4.46447C10.5978 3.52678 9.32602 3 7.99994 3V8H12.9999Z" fill="currentColor"/>
<path d="M7.99994 14C6.91278 14.0022 5.8456 13.7079 4.91316 13.1489C3.98073 12.5899 3.21832 11.7873 2.70794 10.8274C2.67474 10.7639 2.64144 10.7007 2.61029 10.6353C2.58294 10.5791 2.55729 10.5217 2.53169 10.4646C2.32954 9.99508 2.18296 9.50355 2.09494 9L1.11109 9.20655C1.16861 9.5261 1.24842 9.84124 1.34994 10.1496L1.33739 10.1538C1.79025 11.5639 2.67983 12.7934 3.87752 13.6646C5.07521 14.5357 6.51893 15.0034 7.99994 15V14Z" fill="currentColor"/>
<path d="M2.79559 5L1.92994 4.5C1.52629 5.2114 1.24914 5.98744 1.11084 6.7936L2.09469 6.96705C2.21305 6.27583 2.45019 5.61032 2.79559 5Z" fill="currentColor"/>
<path d="M5.90814 2.3823L5.56634 1.4435C4.80362 1.72553 4.09599 2.13853 3.47529 2.6639L4.11784 3.42965C4.64912 2.97902 5.25498 2.62459 5.90814 2.3823Z" fill="currentColor"/>
</svg>
