<svg viewBox="0 0 16 17" fill="none" xmlns="http://www.w3.org/2000/svg">
<rect width="16" height="16" transform="translate(0 0.513672)" fill="white" fill-opacity="0.01" style="mix-blend-mode:multiply"/>
<path d="M11.5 11.0137H4.5V12.0137H11.5V11.0137Z" fill="currentColor"/>
<path d="M5.5 7.51367C5.30222 7.51367 5.10888 7.57232 4.94443 7.6822C4.77998 7.79208 4.65181 7.94826 4.57612 8.13099C4.50043 8.31372 4.48063 8.51478 4.51921 8.70876C4.5578 8.90274 4.65304 9.08093 4.79289 9.22078C4.93275 9.36063 5.11093 9.45587 5.30491 9.49446C5.49889 9.53304 5.69996 9.51324 5.88268 9.43755C6.06541 9.36186 6.22159 9.23369 6.33147 9.06924C6.44135 8.90479 6.5 8.71145 6.5 8.51367C6.5013 8.38199 6.47632 8.25137 6.42652 8.12946C6.37672 8.00755 6.30311 7.89679 6.21 7.80368C6.11688 7.71056 6.00612 7.63695 5.88421 7.58715C5.7623 7.53736 5.63168 7.51238 5.5 7.51367Z" fill="currentColor"/>
<path d="M10.5 7.51367C10.3022 7.51367 10.1089 7.57232 9.94443 7.6822C9.77998 7.79208 9.65181 7.94826 9.57612 8.13099C9.50043 8.31372 9.48063 8.51478 9.51921 8.70876C9.5578 8.90274 9.65304 9.08093 9.79289 9.22078C9.93275 9.36063 10.1109 9.45587 10.3049 9.49446C10.4989 9.53304 10.7 9.51324 10.8827 9.43755C11.0654 9.36186 11.2216 9.23369 11.3315 9.06924C11.4414 8.90479 11.5 8.71145 11.5 8.51367C11.5013 8.38199 11.4763 8.25137 11.4265 8.12946C11.3767 8.00755 11.3031 7.89679 11.21 7.80368C11.1169 7.71056 11.0061 7.63695 10.8842 7.58715C10.7623 7.53736 10.6317 7.51238 10.5 7.51367Z" fill="currentColor"/>
<path d="M14 4.51367H9.20705L10.2431 3.47752C10.3269 3.50045 10.4132 3.5126 10.5 3.51367C10.6978 3.51367 10.8911 3.45502 11.0556 3.34514C11.22 3.23526 11.3482 3.07908 11.4239 2.89636C11.4996 2.71363 11.5194 2.51256 11.4808 2.31858C11.4422 2.1246 11.347 1.94642 11.2071 1.80657C11.0673 1.66671 10.8891 1.57147 10.6951 1.53289C10.5011 1.4943 10.3 1.51411 10.1173 1.58979C9.93459 1.66548 9.77841 1.79365 9.66853 1.9581C9.55865 2.12255 9.5 2.31589 9.5 2.51367C9.50108 2.60048 9.51323 2.68679 9.53615 2.77052L7.79295 4.51367H2C1.73489 4.514 1.48072 4.61947 1.29326 4.80693C1.10579 4.9944 1.00033 5.24856 1 5.51367V13.5137C1.00033 13.7788 1.10579 14.0329 1.29326 14.2204C1.48072 14.4079 1.73489 14.5133 2 14.5137H14C14.2651 14.5133 14.5193 14.4079 14.7067 14.2204C14.8942 14.0329 14.9997 13.7788 15 13.5137V5.51367C14.9997 5.24856 14.8942 4.9944 14.7067 4.80693C14.5193 4.61947 14.2651 4.514 14 4.51367ZM2 13.5137V5.51367H14V13.5137H2Z" fill="currentColor"/>
</svg>
