<svg viewBox="0 0 16 17" fill="none" xmlns="http://www.w3.org/2000/svg">
<rect width="16" height="16" transform="translate(0 0.513672)" fill="white" fill-opacity="0.01" style="mix-blend-mode:multiply"/>
<path d="M14 3.51367H2C1.73478 3.51367 1.48043 3.61903 1.29289 3.80657C1.10536 3.9941 1 4.24846 1 4.51367V12.5137C1 12.7789 1.10536 13.0332 1.29289 13.2208C1.48043 13.4083 1.73478 13.5137 2 13.5137H14C14.2652 13.5137 14.5196 13.4083 14.7071 13.2208C14.8946 13.0332 15 12.7789 15 12.5137V4.51367C15 4.24846 14.8946 3.9941 14.7071 3.80657C14.5196 3.61903 14.2652 3.51367 14 3.51367ZM12.9 4.51367L8 7.90367L3.1 4.51367H12.9ZM2 12.5137V4.96867L7.715 8.92367C7.7987 8.98174 7.89813 9.01285 8 9.01285C8.10187 9.01285 8.2013 8.98174 8.285 8.92367L14 4.96867V12.5137H2Z" fill="currentColor"/>
</svg>
