<svg viewBox="0 0 16 17" fill="none" xmlns="http://www.w3.org/2000/svg">
<rect width="16" height="16" transform="translate(0 0.513672)" fill="white" fill-opacity="0.01" style="mix-blend-mode:multiply"/>
<path d="M9.7664 8.54822C9.7664 8.06667 10.205 7.82597 10.6607 7.82597C11.185 7.82597 11.3998 8.15257 11.3998 8.78882V11.5137H12.5V8.67707C12.5 7.55947 11.9843 6.92347 11.0644 6.92347C10.3683 6.92347 9.99 7.29322 9.8096 7.77452H9.76645V7.02667H8.66615V11.5137H9.76645L9.7664 8.54822Z" fill="currentColor"/>
<path d="M7.454 10.5078H4.63465V8.97777H7.1274V7.97217H4.63465V6.51952H7.454V5.51367H3.5V11.5137H7.454V10.5078Z" fill="currentColor"/>
<path d="M1 2.51367V14.5137C1 15.066 1.4477 15.5137 2 15.5137H14C14.5523 15.5137 15 15.066 15 14.5137V2.51367C15 1.96137 14.5523 1.51367 14 1.51367H2C1.4477 1.51367 1 1.96137 1 2.51367ZM14 14.5137H2V2.51367H14V14.5137Z" fill="currentColor"/>
</svg>
