<svg viewBox="0 0 16 17" fill="none" xmlns="http://www.w3.org/2000/svg">
<rect width="16" height="16" transform="translate(0 0.513672)" fill="white" fill-opacity="0.01" style="mix-blend-mode:multiply"/>
<path d="M9.7664 8.54822C9.7664 8.06667 10.205 7.82597 10.6607 7.82597C11.185 7.82597 11.3998 8.15257 11.3998 8.78882V11.5137H12.5V8.67707C12.5 7.55947 11.9843 6.92347 11.0644 6.92347C10.3683 6.92347 9.99 7.29322 9.8096 7.77452H9.76645V7.02667H8.66615V11.5137H9.76645L9.7664 8.54822Z" fill="currentColor"/>
<path d="M7.454 10.5078H4.63465V8.97777H7.1274V7.97217H4.63465V6.51952H7.454V5.51367H3.5V11.5137H7.454V10.5078Z" fill="currentColor"/>
<path d="M10.5 15.5137H5.5C3.0187 15.5137 1 13.495 1 11.0137V6.01367C1 3.53237 3.0187 1.51367 5.5 1.51367H10.5C12.9813 1.51367 15 3.53237 15 6.01367V11.0137C15 13.495 12.9813 15.5137 10.5 15.5137ZM5.5 2.51367C3.57005 2.51367 2 4.08372 2 6.01367V11.0137C2 12.9436 3.57005 14.5137 5.5 14.5137H10.5C12.4299 14.5137 14 12.9436 14 11.0137V6.01367C14 4.08372 12.4299 2.51367 10.5 2.51367H5.5Z" fill="currentColor"/>
</svg>
