<svg viewBox="0 0 16 16" fill="none" xmlns="http://www.w3.org/2000/svg">
<rect width="16" height="16" fill="white" fill-opacity="0.01" style="mix-blend-mode:multiply"/>
<path d="M10 7.5C9.11145 7.5 8.3843 7.0637 7.7428 6.67875C7.161 6.3297 6.61145 6 6 6C5.30115 6 4.7755 6.43145 4.35365 6.8535L3.64635 6.14645C4.18005 5.6127 4.9298 4.99995 6 4.99995C6.88855 4.99995 7.6157 5.43625 8.2572 5.8212C8.839 6.17025 9.38855 6.49995 10 6.49995C10.6987 6.49995 11.2243 6.0685 11.6465 5.64635L12.3535 6.3535C11.8198 6.88725 11.0699 7.5 10 7.5Z" fill="currentColor"/>
<path d="M10 11C9.11145 11 8.3843 10.5637 7.7428 10.1788C7.161 9.8297 6.61145 9.5 6 9.5C5.30115 9.5 4.7755 9.93145 4.35365 10.3535L3.64635 9.64645C4.18005 9.1127 4.9298 8.49995 6 8.49995C6.88855 8.49995 7.6157 8.93625 8.2572 9.3212C8.839 9.67025 9.38855 9.99995 10 9.99995C10.6987 9.99995 11.2243 9.5685 11.6465 9.14635L12.3535 9.8535C11.8198 10.3873 11.0699 11 10 11Z" fill="currentColor"/>
<path d="M8 15C4.14015 15 1 11.8598 1 8C1 4.1402 4.1401 1 8 1C11.8599 1 15 4.1402 15 8C15 11.8598 11.8598 15 8 15ZM8 2C4.69165 2 2 4.6916 2 8C2 11.3084 4.69165 14 8 14C11.3084 14 14 11.3084 14 8C14 4.6916 11.3084 2 8 2Z" fill="currentColor"/>
</svg>
