<svg viewBox="0 0 16 17" fill="none" xmlns="http://www.w3.org/2000/svg">
<rect width="16" height="16" transform="translate(0 0.513672)" fill="white" fill-opacity="0.01" style="mix-blend-mode:multiply"/>
<path d="M5 14.5137H1V15.5137H5V14.5137Z" fill="currentColor"/>
<path d="M5 12.5137H1V13.5137H5V12.5137Z" fill="currentColor"/>
<path d="M10 14.5137H6V15.5137H10V14.5137Z" fill="currentColor"/>
<path d="M10 12.5137H6V13.5137H10V12.5137Z" fill="currentColor"/>
<path d="M5 10.5137H1V11.5137H5V10.5137Z" fill="currentColor"/>
<path d="M10 10.5137H6V11.5137H10V10.5137Z" fill="currentColor"/>
<path d="M5 8.51367H1V9.51367H5V8.51367Z" fill="currentColor"/>
<path d="M10 8.51367H6V9.51367H10V8.51367Z" fill="currentColor"/>
<path d="M10 6.51367H6V7.51367H10V6.51367Z" fill="currentColor"/>
<path d="M10 4.51367H6V5.51367H10V4.51367Z" fill="currentColor"/>
<path d="M10 2.51367H6V3.51367H10V2.51367Z" fill="currentColor"/>
<path d="M15 14.5137H11V15.5137H15V14.5137Z" fill="currentColor"/>
<path d="M15 12.5137H11V13.5137H15V12.5137Z" fill="currentColor"/>
</svg>
