<svg viewBox="0 0 16 16" fill="none" xmlns="http://www.w3.org/2000/svg">
<rect width="16" height="16" fill="white" fill-opacity="0.01" style="mix-blend-mode:multiply"/>
<path d="M9.5 7.49995H8.5V11H9.5V7.49995Z" fill="currentColor"/>
<path d="M9 13.125C9.34518 13.125 9.625 12.8451 9.625 12.5C9.625 12.1548 9.34518 11.875 9 11.875C8.65482 11.875 8.375 12.1548 8.375 12.5C8.375 12.8451 8.65482 13.125 9 13.125Z" fill="currentColor"/>
<path d="M14.5 15H3.5C3.32505 15 3.16285 14.9085 3.07225 14.7588C2.98165 14.6091 2.97595 14.4229 3.0571 14.268L8.55715 3.76795C8.64345 3.60315 8.82175 3.49995 9 3.49995C9.17825 3.49995 9.35655 3.60315 9.44285 3.76795L14.9428 14.268C15.024 14.4229 15.0183 14.6091 14.9277 14.7588C14.8371 14.9085 14.6749 15 14.5 15ZM4.3263 14H13.6737L9 5.07755L4.3263 14Z" fill="currentColor"/>
<path d="M3.5 11.4999H1.5C1.32665 11.4999 1.16575 11.4102 1.0747 11.2628C0.983504 11.1154 0.975354 10.9313 1.05275 10.7763L2.30275 8.27635L3.1973 8.7236L2.309 10.4999H3.50005L3.5 11.4999Z" fill="currentColor"/>
<path d="M4.05277 4.7763L2.80276 7.27631L3.69727 7.72357L4.94728 5.22356L4.05277 4.7763Z" fill="currentColor"/>
<path d="M5.44725 4.2236L4.5527 3.77635L5.8027 1.27635C5.8874 1.107 6.0687 1 6.24995 1C6.4312 1 6.6125 1.107 6.6972 1.27635L7.6972 3.27635L6.80265 3.7236L6.2499 2.618L5.44725 4.2236Z" fill="currentColor"/>
</svg>
