<svg viewBox="0 0 16 17" fill="none" xmlns="http://www.w3.org/2000/svg">
<rect width="16" height="16" transform="translate(0 0.513672)" fill="white" fill-opacity="0.01" style="mix-blend-mode:multiply"/>
<path d="M14 3.51367C14 3.24846 13.8946 2.9941 13.7071 2.80657C13.5196 2.61903 13.2652 2.51367 13 2.51367H11V1.51367H10V2.51367H6V1.51367H5V2.51367H3C2.73478 2.51367 2.48043 2.61903 2.29289 2.80657C2.10536 2.9941 2 3.24846 2 3.51367V13.5137C2 13.7789 2.10536 14.0332 2.29289 14.2208C2.48043 14.4083 2.73478 14.5137 3 14.5137H5V13.5137H3V3.51367H5V4.51367H6V3.51367H10V4.51367H11V3.51367H13V6.51367H14V3.51367Z" fill="currentColor"/>
<path d="M10.5 8.01367L11.7745 10.4827L14.5 10.8782L12.5 12.8002L13 15.5137L10.5 14.2327L8 15.5137L8.5 12.8002L6.5 10.8782L9.3 10.4827L10.5 8.01367Z" fill="currentColor"/>
</svg>
