<svg viewBox="0 0 16 17" fill="none" xmlns="http://www.w3.org/2000/svg">
<g clip-path="url(#clip0_1961_11704)">
<rect width="16" height="16" transform="translate(0 0.513672)" fill="white" fill-opacity="0.01" style="mix-blend-mode:multiply"/>
<path d="M9 16.0137H10V15.0137C10.0001 14.8811 10.0528 14.754 10.1465 14.6602C10.2403 14.5665 10.3674 14.5138 10.5 14.5137H13.5C13.6326 14.5138 13.7597 14.5665 13.8535 14.6602C13.9472 14.754 13.9999 14.8811 14 15.0137V16.0137H15V15.0137C14.9996 14.616 14.8414 14.2347 14.5602 13.9535C14.279 13.6723 13.8977 13.5141 13.5 13.5137H10.5C10.1023 13.5141 9.72103 13.6723 9.43982 13.9535C9.15861 14.2347 9.00044 14.616 9 15.0137V16.0137Z" fill="currentColor"/>
<path d="M12 13.0137C11.6044 13.0137 11.2178 12.8964 10.8889 12.6766C10.56 12.4568 10.3036 12.1445 10.1522 11.779C10.0009 11.4136 9.96126 11.0115 10.0384 10.6235C10.1156 10.2355 10.3061 9.87916 10.5858 9.59946C10.8655 9.31975 11.2219 9.12927 11.6098 9.0521C11.9978 8.97493 12.3999 9.01454 12.7654 9.16591C13.1308 9.31729 13.4432 9.57363 13.6629 9.90253C13.8827 10.2314 14 10.6181 14 11.0137C13.9995 11.5439 13.7886 12.0524 13.4136 12.4273C13.0387 12.8023 12.5303 13.0132 12 13.0137ZM12 10.0137C11.8022 10.0137 11.6089 10.0723 11.4444 10.1822C11.28 10.2921 11.1518 10.4483 11.0761 10.631C11.0004 10.8137 10.9806 11.0148 11.0192 11.2088C11.0578 11.4027 11.153 11.5809 11.2929 11.7208C11.4327 11.8606 11.6109 11.9559 11.8049 11.9945C11.9989 12.033 12.2 12.0132 12.3827 11.9376C12.5654 11.8619 12.7216 11.7337 12.8315 11.5692C12.9414 11.4048 13 11.2115 13 11.0137C12.9996 10.7486 12.8942 10.4944 12.7067 10.307C12.5193 10.1195 12.2651 10.014 12 10.0137Z" fill="currentColor"/>
<path d="M1 16.0137H2V15.0137C2.00012 14.8811 2.05284 14.754 2.14658 14.6603C2.24032 14.5665 2.36743 14.5138 2.5 14.5137H5.5C5.63257 14.5138 5.75968 14.5665 5.85342 14.6603C5.94716 14.754 5.99988 14.8811 6 15.0137V16.0137H7V15.0137C6.99956 14.616 6.84139 14.2347 6.56018 13.9535C6.27897 13.6723 5.89769 13.5141 5.5 13.5137H2.5C2.10231 13.5141 1.72103 13.6723 1.43982 13.9535C1.15861 14.2347 1.00044 14.616 1 15.0137V16.0137Z" fill="currentColor"/>
<path d="M4 13.0137C3.60444 13.0137 3.21776 12.8964 2.88886 12.6766C2.55996 12.4568 2.30362 12.1445 2.15224 11.779C2.00087 11.4136 1.96126 11.0115 2.03843 10.6235C2.1156 10.2355 2.30608 9.87916 2.58579 9.59946C2.86549 9.31975 3.22186 9.12927 3.60982 9.0521C3.99778 8.97493 4.39991 9.01454 4.76537 9.16591C5.13082 9.31729 5.44318 9.57363 5.66294 9.90253C5.8827 10.2314 6 10.6181 6 11.0137C5.99944 11.5439 5.78855 12.0523 5.4136 12.4273C5.03865 12.8022 4.53026 13.0131 4 13.0137ZM4 10.0137C3.80222 10.0137 3.60888 10.0723 3.44443 10.1822C3.27998 10.2921 3.15181 10.4483 3.07612 10.631C3.00043 10.8137 2.98063 11.0148 3.01921 11.2088C3.0578 11.4027 3.15304 11.5809 3.29289 11.7208C3.43275 11.8606 3.61093 11.9559 3.80491 11.9945C3.99889 12.033 4.19996 12.0132 4.38268 11.9376C4.56541 11.8619 4.72159 11.7337 4.83147 11.5692C4.94135 11.4048 5 11.2115 5 11.0137C4.9997 10.7485 4.89424 10.4944 4.70677 10.3069C4.5193 10.1194 4.26512 10.014 4 10.0137Z" fill="currentColor"/>
<path d="M9 8.51367H10V7.51367C10.0001 7.3811 10.0528 7.25399 10.1466 7.16025C10.2403 7.06651 10.3674 7.01379 10.5 7.01367H13.5C13.6326 7.01379 13.7597 7.06651 13.8534 7.16025C13.9472 7.25399 13.9999 7.3811 14 7.51367V8.51367H15V7.51367C14.9996 7.11598 14.8414 6.7347 14.5602 6.4535C14.279 6.17229 13.8977 6.01411 13.5 6.01367H10.5C10.1023 6.01411 9.72103 6.17229 9.43982 6.4535C9.15861 6.7347 9.00044 7.11598 9 7.51367V8.51367Z" fill="currentColor"/>
<path d="M12 5.51367C11.6044 5.51367 11.2178 5.39637 10.8889 5.17661C10.56 4.95685 10.3036 4.64449 10.1522 4.27904C10.0009 3.91359 9.96126 3.51145 10.0384 3.12349C10.1156 2.73553 10.3061 2.37916 10.5858 2.09946C10.8655 1.81975 11.2219 1.62927 11.6098 1.5521C11.9978 1.47493 12.3999 1.51454 12.7654 1.66591C13.1308 1.81729 13.4432 2.07363 13.6629 2.40253C13.8827 2.73143 14 3.11811 14 3.51367C13.9994 4.04394 13.7886 4.55232 13.4136 4.92727C13.0386 5.30222 12.5303 5.51312 12 5.51367ZM12 2.51367C11.8022 2.51367 11.6089 2.57232 11.4444 2.6822C11.28 2.79208 11.1518 2.94826 11.0761 3.13099C11.0004 3.31372 10.9806 3.51478 11.0192 3.70876C11.0578 3.90274 11.153 4.08093 11.2929 4.22078C11.4327 4.36063 11.6109 4.45587 11.8049 4.49446C11.9989 4.53304 12.2 4.51324 12.3827 4.43755C12.5654 4.36186 12.7216 4.23369 12.8315 4.06924C12.9414 3.90479 13 3.71145 13 3.51367C12.9997 3.24855 12.8942 2.99437 12.7068 2.8069C12.5193 2.61943 12.2651 2.51398 12 2.51367Z" fill="currentColor"/>
<path d="M1 8.51367H2V7.51367C2.00017 7.38112 2.05291 7.25404 2.14664 7.16031C2.24037 7.06658 2.36744 7.01384 2.5 7.01367H5.5C5.63256 7.01384 5.75963 7.06658 5.85336 7.16031C5.94709 7.25404 5.99983 7.38112 6 7.51367V8.51367H7V7.51367C6.99956 7.11598 6.84139 6.7347 6.56018 6.4535C6.27897 6.17229 5.89769 6.01411 5.5 6.01367H2.5C2.10231 6.01411 1.72103 6.17229 1.43982 6.4535C1.15861 6.7347 1.00044 7.11598 1 7.51367V8.51367Z" fill="currentColor"/>
<path d="M4 5.51367C3.60444 5.51367 3.21776 5.39637 2.88886 5.17661C2.55996 4.95685 2.30362 4.64449 2.15224 4.27904C2.00087 3.91359 1.96126 3.51145 2.03843 3.12349C2.1156 2.73553 2.30608 2.37916 2.58579 2.09946C2.86549 1.81975 3.22186 1.62927 3.60982 1.5521C3.99778 1.47493 4.39991 1.51454 4.76537 1.66591C5.13082 1.81729 5.44318 2.07363 5.66294 2.40253C5.8827 2.73143 6 3.11811 6 3.51367C5.9994 4.04392 5.7885 4.55228 5.41356 4.92723C5.03861 5.30217 4.53025 5.51308 4 5.51367ZM4 2.51367C3.80222 2.51367 3.60888 2.57232 3.44443 2.6822C3.27998 2.79208 3.15181 2.94826 3.07612 3.13099C3.00043 3.31372 2.98063 3.51478 3.01921 3.70876C3.0578 3.90274 3.15304 4.08093 3.29289 4.22078C3.43275 4.36063 3.61093 4.45587 3.80491 4.49446C3.99889 4.53304 4.19996 4.51324 4.38268 4.43755C4.56541 4.36186 4.72159 4.23369 4.83147 4.06924C4.94135 3.90479 5 3.71145 5 3.51367C4.99974 3.24854 4.89429 2.99434 4.70681 2.80686C4.51934 2.61938 4.26514 2.51394 4 2.51367Z" fill="currentColor"/>
</g>
<defs>
<clipPath id="clip0_1961_11704">
<rect width="16" height="16" fill="white" transform="translate(0 0.513672)"/>
</clipPath>
</defs>
</svg>
