<svg viewBox="0 0 16 17" fill="none" xmlns="http://www.w3.org/2000/svg">
<rect width="16" height="16" transform="translate(0 0.513672)" fill="white" fill-opacity="0.01" style="mix-blend-mode:multiply"/>
<path d="M10.5 15.5137C9.70887 15.5137 8.93552 15.2791 8.27772 14.8396C7.61992 14.4 7.10723 13.7753 6.80448 13.0444C6.50173 12.3135 6.42252 11.5092 6.57686 10.7333C6.7312 9.95739 7.11216 9.24465 7.67157 8.68524C8.23098 8.12583 8.94371 7.74487 9.71964 7.59053C10.4956 7.43619 11.2998 7.5154 12.0307 7.81815C12.7616 8.1209 13.3864 8.63359 13.8259 9.29139C14.2654 9.94919 14.5 10.7225 14.5 11.5137C14.5 12.5745 14.0786 13.592 13.3284 14.3421C12.5783 15.0922 11.5609 15.5137 10.5 15.5137ZM10.5 8.51367C9.90666 8.51367 9.32664 8.68962 8.83329 9.01926C8.33994 9.34891 7.95542 9.81744 7.72836 10.3656C7.5013 10.9138 7.44189 11.517 7.55764 12.0989C7.6734 12.6809 7.95912 13.2154 8.37868 13.635C8.79824 14.0546 9.33279 14.3403 9.91473 14.456C10.4967 14.5718 11.0999 14.5124 11.6481 14.2853C12.1962 14.0582 12.6648 13.6737 12.9944 13.1804C13.3241 12.687 13.5 12.107 13.5 11.5137C13.5 10.718 13.1839 9.95496 12.6213 9.39235C12.0587 8.82974 11.2956 8.51367 10.5 8.51367Z" fill="currentColor"/>
<path d="M11.295 13.0137L10 11.7187V9.51367H11V11.3087L12 12.3087L11.295 13.0137Z" fill="currentColor"/>
<path d="M14 3.51367C14 3.24846 13.8946 2.9941 13.7071 2.80657C13.5196 2.61903 13.2652 2.51367 13 2.51367H11V1.51367H10V2.51367H6V1.51367H5V2.51367H3C2.73478 2.51367 2.48043 2.61903 2.29289 2.80657C2.10536 2.9941 2 3.24846 2 3.51367V13.5137C2 13.7789 2.10536 14.0332 2.29289 14.2208C2.48043 14.4083 2.73478 14.5137 3 14.5137H5V13.5137H3V3.51367H5V4.51367H6V3.51367H10V4.51367H11V3.51367H13V6.51367H14V3.51367Z" fill="currentColor"/>
</svg>
