<svg viewBox="0 0 16 16" fill="none" xmlns="http://www.w3.org/2000/svg">
<rect width="16" height="16" fill="white" fill-opacity="0.01" style="mix-blend-mode:multiply"/>
<path d="M2.5 13.5004H1V15.0004H2.5V13.5004Z" fill="currentColor"/>
<path d="M14.855 3.6454L12.355 1.1454C12.2613 1.05227 12.1346 1 12.0025 1C11.8704 1 11.7437 1.05227 11.65 1.1454L10 2.7954L9.355 2.1454L8.645 2.8554L9.295 3.5004L4.145 8.6454C4.09866 8.69212 4.062 8.74752 4.03711 8.80844C4.01223 8.86936 3.99962 8.93459 4 9.0004V9.7954L2.645 11.1454C2.55187 11.2391 2.4996 11.3658 2.4996 11.4979C2.4996 11.63 2.55187 11.7567 2.645 11.8504L4.145 13.3504C4.23868 13.4435 4.36541 13.4958 4.4975 13.4958C4.62959 13.4958 4.75632 13.4435 4.85 13.3504L6.205 12.0004H7C7.0658 12.0008 7.13103 11.9882 7.19195 11.9633C7.25287 11.9384 7.30828 11.9017 7.355 11.8554L12.5 6.7054L13.145 7.3554L13.855 6.6454L13.205 6.0004L14.855 4.3554C14.9481 4.26171 15.0004 4.13499 15.0004 4.0029C15.0004 3.8708 14.9481 3.74408 14.855 3.6504V3.6454ZM6.795 11.0004H5.795L4.5 12.2954L3.705 11.5004L5 10.2054V9.2054L10 4.2054L11.795 6.0004L6.795 11.0004ZM12.5 5.2954L10.705 3.5004L12 2.2054L13.795 4.0004L12.5 5.2954Z" fill="currentColor"/>
</svg>
