<svg viewBox="0 0 16 17" fill="none" xmlns="http://www.w3.org/2000/svg">
<rect width="16" height="16" transform="translate(0 0.513672)" fill="white" fill-opacity="0.01" style="mix-blend-mode:multiply"/>
<path d="M8 1.51367C6.61553 1.51367 5.26216 1.92421 4.11101 2.69338C2.95987 3.46255 2.06266 4.55581 1.53285 5.83489C1.00303 7.11397 0.86441 8.52144 1.13451 9.8793C1.4046 11.2372 2.07129 12.4845 3.05026 13.4634C4.02922 14.4424 5.2765 15.1091 6.63437 15.3792C7.99224 15.6493 9.3997 15.5106 10.6788 14.9808C11.9579 14.451 13.0511 13.5538 13.8203 12.4027C14.5895 11.2515 15 9.89814 15 8.51367C15 6.65716 14.2625 4.87668 12.9497 3.56392C11.637 2.25117 9.85652 1.51367 8 1.51367ZM5.75 6.01367C5.99723 6.01367 6.2389 6.08698 6.44447 6.22433C6.65003 6.36169 6.81024 6.55691 6.90485 6.78532C6.99946 7.01373 7.02422 7.26506 6.97599 7.50753C6.92775 7.75001 6.8087 7.97274 6.63389 8.14756C6.45907 8.32237 6.23634 8.44142 5.99387 8.48965C5.75139 8.53789 5.50006 8.51313 5.27165 8.41852C5.04324 8.32391 4.84802 8.1637 4.71067 7.95813C4.57331 7.75257 4.5 7.5109 4.5 7.26367C4.49867 7.09915 4.53009 6.936 4.59244 6.78375C4.65479 6.63149 4.74681 6.49316 4.86315 6.37682C4.97949 6.26048 5.11782 6.16846 5.27008 6.10611C5.42234 6.04376 5.58548 6.01234 5.75 6.01367ZM8 12.5137C7.30982 12.5125 6.63168 12.3328 6.03151 11.992C5.43135 11.6511 4.92958 11.1608 4.575 10.5687L5.43 10.0687C5.69683 10.5118 6.07369 10.8784 6.524 11.1328C6.97431 11.3873 7.48276 11.5211 8 11.5211C8.51724 11.5211 9.0257 11.3873 9.47601 11.1328C9.92631 10.8784 10.3032 10.5118 10.57 10.0687L11.425 10.5687C11.0704 11.1608 10.5687 11.6511 9.96849 11.992C9.36833 12.3328 8.69019 12.5125 8 12.5137ZM10.25 8.51367C10.0028 8.51367 9.7611 8.44036 9.55554 8.30301C9.34998 8.16566 9.18976 7.97043 9.09515 7.74203C9.00054 7.51362 8.97579 7.26229 9.02402 7.01981C9.07225 6.77733 9.1913 6.5546 9.36612 6.37979C9.54093 6.20497 9.76366 6.08592 10.0061 6.03769C10.2486 5.98946 10.4999 6.01421 10.7284 6.10882C10.9568 6.20343 11.152 6.36365 11.2893 6.56921C11.4267 6.77477 11.5 7.01645 11.5 7.26367C11.5013 7.4282 11.4699 7.59134 11.4076 7.7436C11.3452 7.89586 11.2532 8.03419 11.1369 8.15053C11.0205 8.26686 10.8822 8.35889 10.7299 8.42124C10.5777 8.48358 10.4145 8.515 10.25 8.51367Z" fill="currentColor"/>
</svg>
