<svg viewBox="0 0 16 17" fill="none" xmlns="http://www.w3.org/2000/svg">
<rect width="16" height="16" transform="translate(0 0.513672)" fill="white" fill-opacity="0.01" style="mix-blend-mode:multiply"/>
<path d="M8 1.51367C6.61553 1.51367 5.26216 1.92421 4.11101 2.69338C2.95987 3.46255 2.06266 4.55581 1.53285 5.83489C1.00303 7.11397 0.86441 8.52144 1.13451 9.8793C1.4046 11.2372 2.07129 12.4845 3.05026 13.4634C4.02922 14.4424 5.2765 15.1091 6.63437 15.3792C7.99224 15.6493 9.3997 15.5106 10.6788 14.9808C11.9579 14.451 13.0511 13.5538 13.8203 12.4027C14.5895 11.2515 15 9.89814 15 8.51367C15 6.65716 14.2625 4.87668 12.9497 3.56392C11.637 2.25117 9.85652 1.51367 8 1.51367ZM8 14.5137C6.81332 14.5137 5.65328 14.1618 4.66658 13.5025C3.67989 12.8432 2.91085 11.9061 2.45673 10.8098C2.0026 9.71342 1.88378 8.50702 2.11529 7.34313C2.3468 6.17924 2.91825 5.11015 3.75736 4.27103C4.59648 3.43192 5.66558 2.86047 6.82946 2.62896C7.99335 2.39745 9.19975 2.51627 10.2961 2.97039C11.3925 3.42452 12.3295 4.19356 12.9888 5.18025C13.6481 6.16695 14 7.32698 14 8.51367C14 10.105 13.3679 11.6311 12.2426 12.7563C11.1174 13.8815 9.5913 14.5137 8 14.5137Z" fill="currentColor"/>
<path d="M5.75 6.01367C5.50278 6.01367 5.2611 6.08698 5.05554 6.22433C4.84998 6.36169 4.68976 6.55691 4.59515 6.78532C4.50054 7.01373 4.47579 7.26506 4.52402 7.50753C4.57225 7.75001 4.6913 7.97274 4.86612 8.14756C5.04094 8.32237 5.26366 8.44142 5.50614 8.48965C5.74862 8.53789 5.99995 8.51313 6.22836 8.41852C6.45677 8.32391 6.65199 8.1637 6.78934 7.95813C6.92669 7.75257 7 7.5109 7 7.26367C7 6.93215 6.86831 6.61421 6.63389 6.37979C6.39947 6.14537 6.08152 6.01367 5.75 6.01367Z" fill="currentColor"/>
<path d="M10.25 6.01367C10.0028 6.01367 9.7611 6.08698 9.55554 6.22433C9.34998 6.36169 9.18976 6.55691 9.09515 6.78532C9.00054 7.01373 8.97579 7.26506 9.02402 7.50753C9.07225 7.75001 9.1913 7.97274 9.36612 8.14756C9.54094 8.32237 9.76366 8.44142 10.0061 8.48965C10.2486 8.53789 10.4999 8.51313 10.7284 8.41852C10.9568 8.32391 11.152 8.1637 11.2893 7.95813C11.4267 7.75257 11.5 7.5109 11.5 7.26367C11.5 6.93215 11.3683 6.61421 11.1339 6.37979C10.8995 6.14537 10.5815 6.01367 10.25 6.01367Z" fill="currentColor"/>
<path d="M8 10.0137C7.30982 10.0148 6.63168 10.1946 6.03151 10.5354C5.43135 10.8762 4.92958 11.3665 4.575 11.9587L5.43 12.4587C5.69683 12.0156 6.07369 11.649 6.524 11.3945C6.97431 11.14 7.48276 11.0063 8 11.0063C8.51724 11.0063 9.0257 11.14 9.47601 11.3945C9.92631 11.649 10.3032 12.0156 10.57 12.4587L11.425 11.9587C11.0704 11.3665 10.5687 10.8762 9.96849 10.5354C9.36833 10.1946 8.69019 10.0148 8 10.0137Z" fill="currentColor"/>
</svg>
