<svg viewBox="0 0 16 17" fill="none" xmlns="http://www.w3.org/2000/svg">
<rect width="16" height="16" transform="translate(0 0.513672)" fill="white" fill-opacity="0.01" style="mix-blend-mode:multiply"/>
<path d="M8 12.5137C8.69019 12.5125 9.36833 12.3328 9.96849 11.992C10.5687 11.6511 11.0704 11.1608 11.425 10.5687L10.57 10.0687C10.3032 10.5118 9.92631 10.8784 9.47601 11.1328C9.0257 11.3873 8.51724 11.5211 8 11.5211C7.48276 11.5211 6.97431 11.3873 6.524 11.1328C6.07369 10.8784 5.69683 10.5118 5.43 10.0687L4.575 10.5687C4.92958 11.1608 5.43135 11.6511 6.03151 11.992C6.63168 12.3328 7.30982 12.5125 8 12.5137Z" fill="currentColor"/>
<path d="M8 1.51367C6.61553 1.51367 5.26216 1.92421 4.11101 2.69338C2.95987 3.46255 2.06266 4.55581 1.53285 5.83489C1.00303 7.11397 0.86441 8.52144 1.13451 9.8793C1.4046 11.2372 2.07129 12.4845 3.05026 13.4634C4.02922 14.4424 5.2765 15.1091 6.63437 15.3792C7.99224 15.6493 9.3997 15.5106 10.6788 14.9808C11.9579 14.451 13.0511 13.5538 13.8203 12.4027C14.5895 11.2515 15 9.89814 15 8.51367C15 6.65716 14.2625 4.87668 12.9497 3.56392C11.637 2.25117 9.85652 1.51367 8 1.51367ZM8 2.51367C9.14723 2.51546 10.2699 2.84611 11.235 3.46644C12.2 4.08677 12.967 4.97077 13.445 6.01367H12.5C12.5 5.88106 12.4473 5.75389 12.3536 5.66012C12.2598 5.56635 12.1326 5.51367 12 5.51367H4C3.86739 5.51367 3.74022 5.56635 3.64645 5.66012C3.55268 5.75389 3.5 5.88106 3.5 6.01367H2.555C3.03301 4.97077 3.8 4.08677 4.76505 3.46644C5.73011 2.84611 6.85277 2.51546 8 2.51367ZM8 14.5137C6.4087 14.5137 4.88258 13.8815 3.75736 12.7563C2.63214 11.6311 2 10.105 2 8.51367C2.00234 8.00718 2.06955 7.50308 2.2 7.01367H3.5V8.01367C3.5 8.27889 3.60536 8.53324 3.7929 8.72078C3.98043 8.90831 4.23479 9.01367 4.5 9.01367H6.155C6.39396 9.01694 6.62619 8.93453 6.80963 8.78136C6.99307 8.62819 7.11559 8.41438 7.155 8.17867L7.415 6.51367H8.585L8.86 8.17867C8.89941 8.41438 9.02193 8.62819 9.20537 8.78136C9.38881 8.93453 9.62104 9.01694 9.86 9.01367H11.5C11.7652 9.01367 12.0196 8.90831 12.2071 8.72078C12.3946 8.53324 12.5 8.27889 12.5 8.01367V7.01367H13.8C13.9305 7.50308 13.9977 8.00718 14 8.51367C14 10.105 13.3679 11.6311 12.2426 12.7563C11.1174 13.8815 9.5913 14.5137 8 14.5137Z" fill="currentColor"/>
</svg>
