<svg viewBox="0 0 16 17" fill="none" xmlns="http://www.w3.org/2000/svg">
<rect width="16" height="16" transform="translate(0 0.513672)" fill="white" fill-opacity="0.01" style="mix-blend-mode:multiply"/>
<path d="M8 1.51367C6.61553 1.51367 5.26216 1.92421 4.11101 2.69338C2.95987 3.46255 2.06266 4.55581 1.53285 5.83489C1.00303 7.11397 0.86441 8.52144 1.13451 9.8793C1.4046 11.2372 2.07129 12.4845 3.05026 13.4634C4.02922 14.4424 5.2765 15.1091 6.63437 15.3792C7.99224 15.6493 9.3997 15.5106 10.6788 14.9808C11.9579 14.451 13.0511 13.5538 13.8203 12.4027C14.5895 11.2515 15 9.89814 15 8.51367C15 6.65716 14.2625 4.87668 12.9497 3.56392C11.637 2.25117 9.85652 1.51367 8 1.51367ZM4.5 8.71867L3.795 8.01367L4.795 7.01367L3.795 6.01367L4.5 5.30867L5.5 6.30867L6.5 5.30867L7.205 6.01367L6.205 7.01367L7.205 8.01367L6.5 8.71867L5.5 7.71867L4.5 8.71867ZM8 13.0137C7.70333 13.0137 7.41332 12.9257 7.16665 12.7609C6.91997 12.5961 6.72772 12.3618 6.61418 12.0877C6.50065 11.8136 6.47095 11.512 6.52883 11.221C6.5867 10.9301 6.72956 10.6628 6.93934 10.453C7.14912 10.2432 7.4164 10.1004 7.70737 10.0425C7.99834 9.98462 8.29994 10.0143 8.57403 10.1279C8.84812 10.2414 9.08239 10.4336 9.24721 10.6803C9.41203 10.927 9.5 11.217 9.5 11.5137C9.5 11.9115 9.34197 12.293 9.06066 12.5743C8.77936 12.8556 8.39783 13.0137 8 13.0137ZM12.205 8.01367L11.5 8.71867L10.5 7.71867L9.5 8.71867L8.795 8.01367L9.795 7.01367L8.795 6.01367L9.5 5.30867L10.5 6.30867L11.5 5.30867L12.205 6.01367L11.205 7.01367L12.205 8.01367Z" fill="currentColor"/>
</svg>
