<svg viewBox="0 0 16 17" fill="none" xmlns="http://www.w3.org/2000/svg">
<rect width="16" height="16" transform="translate(0 0.513672)" fill="white" fill-opacity="0.01" style="mix-blend-mode:multiply"/>
<path d="M8 1.51367C6.61553 1.51367 5.26216 1.92421 4.11101 2.69338C2.95987 3.46255 2.06266 4.55581 1.53285 5.83489C1.00303 7.11397 0.86441 8.52144 1.13451 9.8793C1.4046 11.2372 2.07129 12.4845 3.05026 13.4634C4.02922 14.4424 5.2765 15.1091 6.63437 15.3792C7.99224 15.6493 9.3997 15.5106 10.6788 14.9808C11.9579 14.451 13.0511 13.5538 13.8203 12.4027C14.5895 11.2515 15 9.89814 15 8.51367C15 6.65716 14.2625 4.87668 12.9497 3.56392C11.637 2.25117 9.85652 1.51367 8 1.51367ZM5.75 8.51367C5.50278 8.51367 5.2611 8.44036 5.05554 8.30301C4.84998 8.16566 4.68976 7.97043 4.59515 7.74203C4.50054 7.51362 4.47579 7.26229 4.52402 7.01981C4.57225 6.77733 4.6913 6.5546 4.86612 6.37979C5.04094 6.20497 5.26366 6.08592 5.50614 6.03769C5.74862 5.98946 5.99995 6.01421 6.22836 6.10882C6.45677 6.20343 6.65199 6.36365 6.78934 6.56921C6.92669 6.77477 7 7.01645 7 7.26367C7.00134 7.4282 6.96991 7.59134 6.90757 7.7436C6.84522 7.89586 6.7532 8.03419 6.63686 8.15053C6.52052 8.26686 6.38219 8.35889 6.22993 8.42124C6.07767 8.48358 5.91453 8.515 5.75 8.51367ZM10.25 8.51367C10.0028 8.51367 9.7611 8.44036 9.55554 8.30301C9.34998 8.16566 9.18976 7.97043 9.09515 7.74203C9.00054 7.51362 8.97579 7.26229 9.02402 7.01981C9.07225 6.77733 9.1913 6.5546 9.36612 6.37979C9.54093 6.20497 9.76366 6.08592 10.0061 6.03769C10.2486 5.98946 10.4999 6.01421 10.7284 6.10882C10.9568 6.20343 11.152 6.36365 11.2893 6.56921C11.4267 6.77477 11.5 7.01645 11.5 7.26367C11.5013 7.4282 11.4699 7.59134 11.4076 7.7436C11.3452 7.89586 11.2532 8.03419 11.1369 8.15053C11.0205 8.26686 10.8822 8.35889 10.7299 8.42124C10.5777 8.48358 10.4145 8.515 10.25 8.51367Z" fill="currentColor"/>
</svg>
