<svg viewBox="0 0 16 17" fill="none" xmlns="http://www.w3.org/2000/svg">
<g clip-path="url(#clip0_1961_11708)">
<rect width="16" height="16" transform="translate(0 0.513672)" fill="white" fill-opacity="0.01" style="mix-blend-mode:multiply"/>
<path d="M7.99996 11.5137C7.48199 11.5129 6.97304 11.378 6.52267 11.1221C6.0723 10.8663 5.69585 10.4982 5.42996 10.0537L4.57496 10.5537C4.93092 11.1437 5.43329 11.6318 6.03336 11.9706C6.63343 12.3094 7.31085 12.4874 7.99996 12.4874C8.68906 12.4874 9.36648 12.3094 9.96655 11.9706C10.5666 11.6318 11.069 11.1437 11.425 10.5537L10.57 10.0537C10.3041 10.4982 9.92761 10.8663 9.47724 11.1221C9.02687 11.378 8.51793 11.5129 7.99996 11.5137Z" fill="currentColor"/>
<path d="M15 2.51367H13V0.513672H12V2.51367H9.99996V3.51367H12V5.51367H13V3.51367H15V2.51367Z" fill="currentColor"/>
<path d="M5.74996 6.01367C5.50273 6.01367 5.26106 6.08698 5.05549 6.22433C4.84993 6.36169 4.68972 6.55691 4.59511 6.78532C4.5005 7.01373 4.47574 7.26506 4.52397 7.50753C4.57221 7.75001 4.69126 7.97274 4.86607 8.14756C5.04089 8.32237 5.26362 8.44142 5.50609 8.48965C5.74857 8.53789 5.9999 8.51313 6.22831 8.41852C6.45672 8.32391 6.65194 8.1637 6.78929 7.95813C6.92665 7.75257 6.99996 7.5109 6.99996 7.26367C7.00129 7.09915 6.96987 6.936 6.90752 6.78375C6.84517 6.63149 6.75315 6.49316 6.63681 6.37682C6.52047 6.26048 6.38214 6.16846 6.22988 6.10611C6.07762 6.04376 5.91448 6.01234 5.74996 6.01367Z" fill="currentColor"/>
<path d="M10.25 6.01367C10.0027 6.01367 9.76105 6.08698 9.55549 6.22433C9.34993 6.36169 9.18972 6.55691 9.09511 6.78532C9.0005 7.01373 8.97574 7.26506 9.02397 7.50753C9.07221 7.75001 9.19126 7.97274 9.36607 8.14756C9.54089 8.32237 9.76362 8.44142 10.0061 8.48965C10.2486 8.53789 10.4999 8.51313 10.7283 8.41852C10.9567 8.32391 11.1519 8.1637 11.2893 7.95813C11.4266 7.75257 11.5 7.5109 11.5 7.26367C11.5013 7.09915 11.4699 6.936 11.4075 6.78375C11.3452 6.63149 11.2531 6.49316 11.1368 6.37682C11.0205 6.26048 10.8821 6.16846 10.7299 6.10611C10.5776 6.04376 10.4145 6.01234 10.25 6.01367Z" fill="currentColor"/>
<path d="M13.805 7.01367C13.9313 7.50377 13.9968 8.00756 14 8.51367C14 9.70036 13.6481 10.8604 12.9888 11.8471C12.3295 12.8338 11.3924 13.6028 10.2961 14.0569C9.1997 14.5111 7.9933 14.6299 6.82941 14.3984C5.66553 14.1669 4.59643 13.5954 3.75732 12.7563C2.9182 11.9172 2.34676 10.8481 2.11524 9.68421C1.88373 8.52033 2.00255 7.31393 2.45668 6.21757C2.9108 5.12121 3.67984 4.18414 4.66654 3.52485C5.65323 2.86557 6.81327 2.51367 7.99996 2.51367V1.51367C6.55094 1.51318 5.13749 1.96236 3.9546 2.79926C2.77171 3.63616 1.87768 4.81953 1.39587 6.18609C0.914052 7.55265 0.868198 9.03506 1.26463 10.4288C1.66106 11.8225 2.48024 13.0589 3.60914 13.9673C4.73805 14.8757 6.12104 15.4114 7.56731 15.5004C9.01358 15.5895 10.4519 15.2275 11.6837 14.4645C12.9155 13.7015 13.8802 12.575 14.4446 11.2404C15.0091 9.90586 15.1455 8.42902 14.835 7.01367H13.805Z" fill="currentColor"/>
</g>
<defs>
<clipPath id="clip0_1961_11708">
<rect width="16" height="16" fill="white" transform="translate(0 0.513672)"/>
</clipPath>
</defs>
</svg>
