<svg viewBox="0 0 16 17" fill="none" xmlns="http://www.w3.org/2000/svg">
<rect width="16" height="16" transform="translate(0 0.513672)" fill="white" fill-opacity="0.01" style="mix-blend-mode:multiply"/>
<path d="M5.74999 6.0138C5.50276 6.0138 5.26109 6.08712 5.05553 6.22447C4.84997 6.36182 4.68975 6.55704 4.59514 6.78545C4.50053 7.01386 4.47578 7.26519 4.52401 7.50767C4.57224 7.75014 4.69129 7.97287 4.86611 8.14769C5.04092 8.3225 5.26365 8.44156 5.50613 8.48979C5.7486 8.53802 5.99994 8.51326 6.22834 8.41865C6.45675 8.32404 6.65198 8.16383 6.78933 7.95827C6.92668 7.75271 6.99999 7.51103 6.99999 7.2638C6.99999 6.93228 6.86829 6.61434 6.63387 6.37992C6.39945 6.1455 6.08151 6.0138 5.74999 6.0138Z" fill="currentColor"/>
<path d="M10.25 6.0138C10.0028 6.0138 9.76109 6.08712 9.55553 6.22447C9.34997 6.36182 9.18975 6.55704 9.09514 6.78545C9.00053 7.01386 8.97578 7.26519 9.02401 7.50767C9.07224 7.75014 9.19129 7.97287 9.36611 8.14769C9.54092 8.3225 9.76365 8.44156 10.0061 8.48979C10.2486 8.53802 10.4999 8.51326 10.7283 8.41865C10.9568 8.32404 11.152 8.16383 11.2893 7.95827C11.4267 7.75271 11.5 7.51103 11.5 7.2638C11.5 6.93228 11.3683 6.61434 11.1339 6.37992C10.8995 6.1455 10.5815 6.0138 10.25 6.0138Z" fill="currentColor"/>
<path d="M15 8.5138C15.0021 7.28702 14.6817 6.08122 14.071 5.01725C13.4603 3.95327 12.5807 3.06848 11.5203 2.45153C10.4599 1.83458 9.25603 1.50714 8.02924 1.50201C6.80246 1.49689 5.59588 1.81426 4.53039 2.42233C3.4649 3.0304 2.57793 3.90781 1.95835 4.96664C1.33876 6.02548 1.00833 7.22855 1.00016 8.45532C0.991982 9.68208 1.30635 10.8894 1.91177 11.9564C2.51719 13.0234 3.3924 13.9126 4.44969 14.5348L4.45749 14.6129C4.48131 14.86 4.5965 15.0893 4.78052 15.256C4.96454 15.4226 5.20414 15.5146 5.45239 15.5138H10.5474C10.7956 15.5146 11.0351 15.4227 11.2192 15.2562C11.4032 15.0897 11.5185 14.8604 11.5424 14.6134L11.5502 14.5348C12.6001 13.9189 13.4707 13.0392 14.0758 11.9831C14.681 10.927 14.9995 9.73101 15 8.5138ZM7.99999 2.5138C9.53817 2.51449 11.0172 3.10638 12.1312 4.16705C13.2452 5.22772 13.9089 6.67601 13.985 8.21231L11.3818 9.5138H4.61814L2.01524 8.21231C2.09131 6.67605 2.75496 5.2278 3.8689 4.16714C4.98284 3.10648 6.46185 2.51455 7.99999 2.5138ZM2.05999 9.35265L4.02999 10.3377L4.32064 13.2427C3.08984 12.2894 2.27893 10.894 2.05999 9.35265ZM10.5473 14.5138H5.45264L5.05264 10.5138H10.9476L10.5473 14.5138ZM11.6795 13.2428L11.9701 10.3378L13.9401 9.3528C13.7211 10.8941 12.9103 12.2894 11.6795 13.2428Z" fill="currentColor"/>
</svg>
