<svg viewBox="0 0 16 17" fill="none" xmlns="http://www.w3.org/2000/svg">
<rect width="16" height="16" transform="translate(0 0.513672)" fill="white" fill-opacity="0.01" style="mix-blend-mode:multiply"/>
<path d="M8 1.51367C6.61553 1.51367 5.26216 1.92421 4.11101 2.69338C2.95987 3.46255 2.06266 4.55581 1.53285 5.83489C1.00303 7.11397 0.86441 8.52144 1.13451 9.8793C1.4046 11.2372 2.07129 12.4845 3.05026 13.4634C4.02922 14.4424 5.2765 15.1091 6.63437 15.3792C7.99224 15.6493 9.3997 15.5106 10.6788 14.9808C11.9579 14.451 13.0511 13.5538 13.8203 12.4027C14.5895 11.2515 15 9.89814 15 8.51367C15 6.65716 14.2625 4.87668 12.9497 3.56392C11.637 2.25117 9.85652 1.51367 8 1.51367ZM4.5 7.26367C4.5 7.01645 4.57331 6.77477 4.71067 6.56921C4.84802 6.36365 5.04324 6.20343 5.27165 6.10882C5.50006 6.01421 5.75139 5.98946 5.99387 6.03769C6.23634 6.08592 6.45907 6.20497 6.63389 6.37979C6.8087 6.5546 6.92775 6.77733 6.97599 7.01981C7.02422 7.26229 6.99946 7.51362 6.90485 7.74203C6.81024 7.97043 6.65003 8.16566 6.44447 8.30301C6.2389 8.44036 5.99723 8.51367 5.75 8.51367C5.41848 8.51367 5.10054 8.38198 4.86612 8.14756C4.6317 7.91314 4.5 7.59519 4.5 7.26367ZM11 11.5137H5V10.5137H11V11.5137ZM10.25 8.51367C10.0028 8.51367 9.7611 8.44036 9.55554 8.30301C9.34998 8.16566 9.18976 7.97043 9.09515 7.74203C9.00054 7.51362 8.97579 7.26229 9.02402 7.01981C9.07225 6.77733 9.1913 6.5546 9.36612 6.37979C9.54093 6.20497 9.76366 6.08592 10.0061 6.03769C10.2486 5.98946 10.4999 6.01421 10.7284 6.10882C10.9568 6.20343 11.152 6.36365 11.2893 6.56921C11.4267 6.77477 11.5 7.01645 11.5 7.26367C11.5 7.59519 11.3683 7.91314 11.1339 8.14756C10.8995 8.38198 10.5815 8.51367 10.25 8.51367Z" fill="currentColor"/>
</svg>
