<svg viewBox="0 0 16 17" fill="none" xmlns="http://www.w3.org/2000/svg">
<rect width="16" height="16" transform="translate(0 0.513672)" fill="white" fill-opacity="0.01" style="mix-blend-mode:multiply"/>
<path d="M8 1.51367C6.61553 1.51367 5.26216 1.92421 4.11101 2.69338C2.95987 3.46255 2.06266 4.55581 1.53285 5.83489C1.00303 7.11397 0.86441 8.52144 1.13451 9.8793C1.4046 11.2372 2.07129 12.4845 3.05026 13.4634C4.02922 14.4424 5.2765 15.1091 6.63437 15.3792C7.99224 15.6493 9.3997 15.5106 10.6788 14.9808C11.9579 14.451 13.0511 13.5538 13.8203 12.4027C14.5895 11.2515 15 9.89814 15 8.51367C15 6.65716 14.2625 4.87668 12.9497 3.56392C11.637 2.25117 9.85652 1.51367 8 1.51367ZM4 7.01367H7V8.01367H4V7.01367ZM8 12.5137C7.30982 12.5125 6.63168 12.3328 6.03151 11.992C5.43135 11.6511 4.92958 11.1608 4.575 10.5687L5.43 10.0687C5.69683 10.5118 6.07369 10.8784 6.524 11.1328C6.97431 11.3873 7.48276 11.5211 8 11.5211C8.51724 11.5211 9.0257 11.3873 9.47601 11.1328C9.92631 10.8784 10.3032 10.5118 10.57 10.0687L11.425 10.5687C11.0704 11.1608 10.5687 11.6511 9.96849 11.992C9.36833 12.3328 8.69019 12.5125 8 12.5137ZM10.25 8.51367C9.91848 8.51367 9.60054 8.38198 9.36612 8.14756C9.1317 7.91314 9 7.59519 9 7.26367C9 6.93215 9.1317 6.61421 9.36612 6.37979C9.60054 6.14537 9.91848 6.01367 10.25 6.01367C10.5815 6.01367 10.8995 6.14537 11.1339 6.37979C11.3683 6.61421 11.5 6.93215 11.5 7.26367C11.5 7.59519 11.3683 7.91314 11.1339 8.14756C10.8995 8.38198 10.5815 8.51367 10.25 8.51367Z" fill="currentColor"/>
</svg>
