<svg viewBox="0 0 16 17" fill="none" xmlns="http://www.w3.org/2000/svg">
<rect width="16" height="16" transform="translate(0 0.513672)" fill="white" fill-opacity="0.01" style="mix-blend-mode:multiply"/>
<path d="M11.2249 3.51367C11.5889 3.51337 11.9494 3.58574 12.2851 3.72654C12.6208 3.86735 12.925 4.07376 13.1799 4.33367C13.7051 4.86686 13.9995 5.58525 13.9995 6.33367C13.9995 7.0821 13.7051 7.80048 13.1799 8.33367L7.99989 13.5787L2.81989 8.33367C2.29468 7.80048 2.00028 7.0821 2.00028 6.33367C2.00028 5.58525 2.29468 4.86686 2.81989 4.33367C3.07493 4.07395 3.37918 3.86765 3.71484 3.72682C4.05051 3.58599 4.41087 3.51346 4.77489 3.51346C5.1389 3.51346 5.49926 3.58599 5.83493 3.72682C6.1706 3.86765 6.47484 4.07395 6.72989 4.33367L7.99989 5.63367L9.26489 4.34367C9.51901 4.08066 9.82356 3.8716 10.1603 3.72899C10.4971 3.58638 10.8592 3.51315 11.2249 3.51367ZM11.2249 2.51367C10.7277 2.51325 10.2354 2.6121 9.77694 2.80442C9.31846 2.99675 8.90299 3.27867 8.55489 3.63367L7.99989 4.19367L7.44489 3.63367C7.09636 3.27931 6.68079 2.99788 6.22238 2.80577C5.76398 2.61366 5.27192 2.51472 4.77489 2.51472C4.27786 2.51472 3.7858 2.61366 3.32739 2.80577C2.86899 2.99788 2.45341 3.27931 2.10489 3.63367C1.39583 4.35549 0.998535 5.32685 0.998535 6.33867C0.998535 7.35049 1.39583 8.32186 2.10489 9.04367L7.99989 15.0137L13.8949 9.04367C14.6039 8.32186 15.0012 7.35049 15.0012 6.33867C15.0012 5.32685 14.6039 4.35549 13.8949 3.63367C13.5464 3.27913 13.1309 2.99749 12.6725 2.8052C12.2141 2.61291 11.722 2.51381 11.2249 2.51367Z" fill="currentColor"/>
</svg>
