<svg viewBox="0 0 16 17" fill="none" xmlns="http://www.w3.org/2000/svg">
<rect width="16" height="16" transform="translate(0 0.513672)" fill="white" fill-opacity="0.01" style="mix-blend-mode:multiply"/>
<path d="M8.00009 7.01372L5.50009 9.51372L6.20509 10.2187L7.50009 8.92872V14.5137H3.00009V15.5137H7.50009C7.7653 15.5137 8.01966 15.4084 8.20719 15.2208C8.39473 15.0333 8.50009 14.7789 8.50009 14.5137V8.92872L9.79509 10.2187L10.5001 9.51372L8.00009 7.01372Z" fill="currentColor"/>
<path d="M11.7501 11.5137H11.5001V10.5137H11.7501C12.3312 10.514 12.8899 10.2892 13.3089 9.88661C13.728 9.48401 13.9749 8.93481 13.998 8.35414C14.021 7.77348 13.8184 7.20643 13.4325 6.77189C13.0467 6.33734 12.5076 6.06904 11.9283 6.02322L11.5206 5.99127L11.4713 5.58527C11.3675 4.73781 10.9572 3.95762 10.3178 3.39179C9.67843 2.82596 8.85413 2.5136 8.00034 2.5136C7.14654 2.5136 6.32224 2.82596 5.68287 3.39179C5.04349 3.95762 4.63321 4.73781 4.52939 5.58527L4.47984 5.99127L4.07209 6.02322C3.49279 6.06904 2.95372 6.33733 2.56787 6.77185C2.18203 7.20637 1.97938 7.77339 2.00239 8.35404C2.02541 8.93469 2.27231 9.48389 2.69134 9.88651C3.11036 10.2891 3.66898 10.5139 4.25009 10.5137H4.50009V11.5137H4.25009C3.4448 11.5141 2.66808 11.2153 2.07059 10.6754C1.4731 10.1355 1.09744 9.39292 1.01647 8.59171C0.935501 7.7905 1.155 6.98778 1.63238 6.33924C2.10976 5.69071 2.81101 5.24259 3.60009 5.08182C3.81315 4.07268 4.3666 3.16744 5.1677 2.51781C5.9688 1.86819 6.96885 1.51367 8.00024 1.51367C9.03163 1.51367 10.0317 1.86819 10.8328 2.51781C11.6339 3.16744 12.1873 4.07268 12.4004 5.08182C13.1894 5.24271 13.8905 5.69088 14.3678 6.33942C14.8451 6.98797 15.0645 7.79066 14.9835 8.59182C14.9025 9.39298 14.5269 10.1355 13.9294 10.6754C13.332 11.2153 12.5553 11.514 11.7501 11.5137Z" fill="currentColor"/>
</svg>
