<svg viewBox="0 0 16 17" fill="none" xmlns="http://www.w3.org/2000/svg">
<rect width="16" height="16" transform="translate(0 0.513672)" fill="white" fill-opacity="0.01" style="mix-blend-mode:multiply"/>
<path d="M8 4.01367L3 9.01367L3.705 9.71867L7.5 5.92867V14.5137H1V15.5137H7.5C7.76522 15.5137 8.01957 15.4083 8.20711 15.2208C8.39464 15.0332 8.5 14.7789 8.5 14.5137V5.92867L12.295 9.71867L13 9.01367L8 4.01367Z" fill="currentColor"/>
<path d="M3 4.51367V2.51367H13V4.51367H14V2.51367C14 2.24846 13.8946 1.9941 13.7071 1.80657C13.5196 1.61903 13.2652 1.51367 13 1.51367H3C2.73478 1.51367 2.48043 1.61903 2.29289 1.80657C2.10536 1.9941 2 2.24846 2 2.51367V4.51367H3Z" fill="currentColor"/>
</svg>
