<svg viewBox="0 0 16 17" fill="none" xmlns="http://www.w3.org/2000/svg">
<g clip-path="url(#clip0_1961_10992)">
<rect width="16" height="16" transform="translate(0 0.513672)" fill="white" fill-opacity="0.01" style="mix-blend-mode:multiply"/>
<path d="M3.50024 3.11835C3.42028 3.11734 3.34262 3.09144 3.27805 3.04427C3.21347 2.9971 3.16519 2.931 3.1399 2.85513C3.11461 2.77927 3.11358 2.69741 3.13693 2.62093C3.16029 2.54445 3.20688 2.47715 3.27024 2.42835C4.64984 1.45233 6.31129 0.955298 8.00024 1.01335C9.33024 1.01335 11.2402 1.23835 12.7502 2.32335C12.8328 2.3826 12.8886 2.47209 12.9055 2.57231C12.9223 2.67253 12.8989 2.77535 12.8402 2.85835C12.7793 2.94048 12.6886 2.9954 12.5876 3.0113C12.4866 3.02719 12.3834 3.0028 12.3002 2.94335C11.018 2.12846 9.51849 1.7222 8.00024 1.77835C6.48448 1.72686 4.993 2.16904 3.75024 3.03835C3.67948 3.09468 3.59055 3.12314 3.50024 3.11835Z" fill="currentColor"/>
<path d="M14.1152 6.64335C14.0534 6.64279 13.9926 6.62753 13.9378 6.59884C13.8831 6.57016 13.8359 6.52886 13.8002 6.47835C12.9352 5.25835 11.3902 3.63335 8.00024 3.63335C6.8731 3.60497 5.75579 3.84927 4.74335 4.34548C3.73092 4.84169 2.85332 5.57511 2.18524 6.48335C2.12524 6.56514 2.03539 6.61995 1.93522 6.63586C1.83504 6.65178 1.73263 6.62752 1.65024 6.56835C1.60702 6.53827 1.57052 6.49954 1.54306 6.45461C1.5156 6.40967 1.49778 6.35953 1.49073 6.30734C1.48368 6.25516 1.48755 6.20208 1.50209 6.15147C1.51664 6.10086 1.54155 6.05383 1.57524 6.01335C2.31591 5.01277 3.28616 4.20481 4.40429 3.65749C5.52241 3.11018 6.75568 2.83953 8.00024 2.86835C10.8052 2.86835 12.9052 3.90835 14.4202 6.03835C14.4784 6.12196 14.501 6.2252 14.4832 6.32547C14.4654 6.42574 14.4086 6.51487 14.3252 6.57335C14.2633 6.61623 14.1905 6.64051 14.1152 6.64335Z" fill="currentColor"/>
<path d="M6.14024 16.0134C6.06267 16.0129 5.98699 15.9894 5.92286 15.9458C5.85873 15.9021 5.80908 15.8404 5.78024 15.7684C5.76025 15.7212 5.7501 15.6706 5.75044 15.6194C5.75078 15.5682 5.76158 15.5176 5.78219 15.4708C5.8028 15.424 5.83277 15.3818 5.87027 15.347C5.90777 15.3122 5.952 15.2854 6.00024 15.2684C8.18524 14.4284 9.50024 12.7084 9.50024 10.6634C9.51518 10.4625 9.48662 10.2609 9.41652 10.0721C9.34642 9.88335 9.23643 9.71193 9.09405 9.56955C8.95166 9.42716 8.78024 9.31717 8.59148 9.24707C8.40271 9.17697 8.20104 9.14842 8.00024 9.16335C7.07024 9.16335 6.62024 9.66335 6.50024 10.8384C6.44444 11.3879 6.17781 11.8945 5.75638 12.2516C5.33494 12.6087 4.7915 12.7885 4.24024 12.7534C3.94378 12.7577 3.64968 12.7002 3.37667 12.5846C3.10365 12.4689 2.85771 12.2977 2.65451 12.0818C2.45131 11.8659 2.2953 11.6101 2.19643 11.3306C2.09756 11.051 2.05799 10.754 2.08024 10.4584C2.10787 8.91246 2.74584 7.44025 3.85494 6.36301C4.96403 5.28576 6.4542 4.69094 8.00024 4.70835C9.58549 4.70833 11.1063 5.33566 12.2306 6.45332C13.3548 7.57098 13.991 9.08813 14.0002 10.6734C13.9649 11.7896 13.7295 12.8903 13.3052 13.9234C13.2645 14.0155 13.1897 14.0883 13.0965 14.1265C13.0033 14.1647 12.8989 14.1654 12.8052 14.1284C12.7588 14.1092 12.7166 14.081 12.681 14.0455C12.6455 14.0099 12.6174 13.9676 12.5984 13.9211C12.5793 13.8746 12.5696 13.8248 12.57 13.7746C12.5703 13.7243 12.5806 13.6746 12.6002 13.6284C12.9842 12.6884 13.1992 11.6881 13.2352 10.6734C13.2286 9.2902 12.6738 7.9661 11.6925 6.99134C10.7112 6.01658 9.38341 5.47069 8.00024 5.47335C7.33095 5.4601 6.66562 5.579 6.04235 5.82324C5.41908 6.06748 4.8501 6.43227 4.36801 6.89671C3.88592 7.36115 3.50017 7.91613 3.23287 8.52987C2.96556 9.1436 2.82194 9.80404 2.81024 10.4734C2.78974 10.6679 2.81069 10.8645 2.87169 11.0504C2.93269 11.2362 3.03237 11.4071 3.16416 11.5516C3.29595 11.6962 3.45687 11.8111 3.63631 11.889C3.81575 11.9669 4.00965 12.0058 4.20524 12.0034C4.3853 12.0213 4.56712 12.0033 4.74021 11.9506C4.9133 11.8978 5.07422 11.8113 5.21369 11.696C5.35315 11.5807 5.4684 11.4389 5.55277 11.2788C5.63713 11.1188 5.68896 10.9436 5.70524 10.7634C5.88524 9.20835 6.65024 8.41835 7.98524 8.41835C8.28778 8.40306 8.59014 8.45172 8.87261 8.56117C9.15507 8.67061 9.41129 8.83838 9.62454 9.05352C9.8378 9.26866 10.0033 9.52635 10.1102 9.80976C10.2172 10.0932 10.2632 10.396 10.2452 10.6984C10.2452 13.0684 8.74524 15.0584 6.24524 16.0134C6.21035 16.0174 6.17512 16.0174 6.14024 16.0134Z" fill="currentColor"/>
<path d="M9.88524 15.6534C9.78947 15.6518 9.69735 15.6164 9.62524 15.5534C9.58956 15.518 9.56124 15.476 9.54191 15.4296C9.52258 15.3833 9.51263 15.3336 9.51263 15.2834C9.51263 15.2331 9.52258 15.1834 9.54191 15.1371C9.56124 15.0907 9.58956 15.0487 9.62524 15.0134C10.7501 13.8473 11.3838 12.2935 11.3952 10.6734C11.3952 9.89335 11.1552 7.34835 8.04524 7.34835C7.59207 7.33241 7.14027 7.40688 6.71619 7.56741C6.29212 7.72795 5.90425 7.97133 5.57524 8.28335C5.28086 8.57462 5.04813 8.92217 4.89093 9.30529C4.73373 9.68841 4.65527 10.0993 4.66024 10.5134C4.65892 10.6146 4.61778 10.7112 4.54572 10.7824C4.47366 10.8535 4.37649 10.8934 4.27524 10.8934C4.22492 10.894 4.17497 10.8847 4.12828 10.8659C4.0816 10.8471 4.03912 10.8192 4.0033 10.7838C3.96748 10.7485 3.93904 10.7064 3.91964 10.6599C3.90023 10.6135 3.89023 10.5637 3.89024 10.5134C3.88245 10.0011 3.97657 9.49244 4.16712 9.01691C4.35768 8.54137 4.64087 8.10846 5.00024 7.74335C5.39859 7.36102 5.86891 7.06159 6.3839 6.86247C6.89888 6.66334 7.44829 6.56846 8.00024 6.58335C11.0402 6.58335 12.1202 8.78335 12.1202 10.6734C12.1137 12.4768 11.4158 14.2091 10.1702 15.5134C10.1359 15.5561 10.0925 15.5908 10.0433 15.615C9.99404 15.6392 9.94009 15.6523 9.88524 15.6534Z" fill="currentColor"/>
<path d="M4.33024 14.3834C4.06961 14.3827 3.80921 14.3677 3.55024 14.3384C3.50034 14.3328 3.45202 14.3174 3.40805 14.2932C3.36409 14.2689 3.32533 14.2362 3.29399 14.197C3.26265 14.1578 3.23934 14.1127 3.2254 14.0645C3.21146 14.0163 3.20716 13.9658 3.21274 13.9159C3.21832 13.866 3.23368 13.8176 3.25793 13.7737C3.28218 13.7297 3.31486 13.6909 3.35409 13.6596C3.39332 13.6283 3.43834 13.605 3.48658 13.591C3.53482 13.5771 3.58534 13.5728 3.63524 13.5784C4.88024 13.7184 5.86024 13.4984 6.55524 12.9184C6.8756 12.6319 7.13467 12.2835 7.31684 11.8942C7.49901 11.505 7.60051 11.0829 7.61524 10.6534C7.61772 10.6027 7.63043 10.5531 7.65262 10.5075C7.6748 10.462 7.706 10.4214 7.74432 10.3882C7.78265 10.355 7.8273 10.3299 7.87558 10.3145C7.92386 10.2991 7.97477 10.2936 8.02524 10.2984C8.12603 10.306 8.2199 10.3526 8.28706 10.4281C8.35422 10.5037 8.38942 10.6024 8.38524 10.7034C8.36417 11.2381 8.23451 11.763 8.00414 12.2461C7.77378 12.7292 7.44752 13.1604 7.04524 13.5134C6.27345 14.1188 5.31017 14.4275 4.33024 14.3834Z" fill="currentColor"/>
</g>
<defs>
<clipPath id="clip0_1961_10992">
<rect width="16" height="16" fill="white" transform="translate(0 0.513672)"/>
</clipPath>
</defs>
</svg>
