<svg viewBox="0 0 16 17" fill="none" xmlns="http://www.w3.org/2000/svg">
<rect width="16" height="16" transform="translate(0 0.513672)" fill="white" fill-opacity="0.01" style="mix-blend-mode:multiply"/>
<path d="M13.5 10.7123V12.2123C13 12.2123 12.5 11.4623 12.5 10.2123V8.71227C10.5 11.2123 10 12.2123 10 13.2123C10 13.703 10.1444 14.1829 10.4152 14.5921C10.686 15.0013 11.0712 15.3218 11.5229 15.5137C11.6757 14.8344 12.014 14.2108 12.5 13.7123C12.986 14.2108 13.3243 14.8344 13.4771 15.5137C13.9288 15.3218 14.314 15.0013 14.5848 14.5921C14.8556 14.1829 15 13.703 15 13.2123C15 12.2123 14.4375 11.4266 13.5 10.7123Z" fill="currentColor"/>
<path d="M8.5 14.5137H2V12.5137H8.5V11.5137H2C1.73488 11.514 1.4807 11.6194 1.29323 11.8069C1.10576 11.9944 1.0003 12.2485 1 12.5137V14.5137C1.0003 14.7788 1.10576 15.033 1.29323 15.2204C1.4807 15.4079 1.73488 15.5134 2 15.5137H8.5V14.5137Z" fill="currentColor"/>
<path d="M14 6.51367H3.5C3.23488 6.51398 2.9807 6.61943 2.79323 6.8069C2.60576 6.99437 2.5003 7.24855 2.5 7.51367V9.51367C2.5003 9.7788 2.60576 10.033 2.79323 10.2204C2.9807 10.4079 3.23488 10.5134 3.5 10.5137H8.5V9.51367H3.5V7.51367H14L14.0006 8.51367H15V7.51367C14.9997 7.24855 14.8942 6.99437 14.7068 6.8069C14.5193 6.61943 14.2651 6.51398 14 6.51367Z" fill="currentColor"/>
<path d="M12.5 5.51367H2C1.73487 5.51339 1.48068 5.40795 1.2932 5.22047C1.10572 5.033 1.00028 4.7788 1 4.51367V2.51367C1.00028 2.24854 1.10572 1.99435 1.2932 1.80687C1.48068 1.6194 1.73487 1.51395 2 1.51367H12.5C12.7651 1.51395 13.0193 1.6194 13.2068 1.80687C13.3943 1.99435 13.4997 2.24854 13.5 2.51367V4.51367C13.4997 4.7788 13.3943 5.033 13.2068 5.22047C13.0193 5.40795 12.7651 5.51339 12.5 5.51367ZM2 2.51367V4.51367H12.5V2.51367H2Z" fill="currentColor"/>
</svg>
