<svg viewBox="0 0 16 17" fill="none" xmlns="http://www.w3.org/2000/svg">
<rect width="16" height="16" transform="translate(0 0.513672)" fill="white" fill-opacity="0.01" style="mix-blend-mode:multiply"/>
<path d="M12.3988 1.51367L10.1777 4.84572C10.041 5.05137 9.85542 5.21998 9.63766 5.33653C9.4199 5.45307 9.17669 5.51393 8.9297 5.51367H6C5.60231 5.51411 5.22103 5.67229 4.93982 5.9535C4.65861 6.2347 4.50044 6.61598 4.5 7.01367V10.0137C4.5003 10.2788 4.60576 10.533 4.79323 10.7204C4.9807 10.9079 5.23488 11.0134 5.5 11.0137V14.5137C5.5003 14.7788 5.60576 15.033 5.79323 15.2204C5.9807 15.4079 6.23488 15.5134 6.5 15.5137H8.5C8.76512 15.5134 9.0193 15.4079 9.20677 15.2204C9.39424 15.033 9.4997 14.7788 9.5 14.5137V8.51367H8.5V14.5137H6.5V10.0137H5.5V7.01367C5.50012 6.8811 5.55284 6.75399 5.64658 6.66025C5.74032 6.56651 5.86743 6.51379 6 6.51367H8.9297C9.34135 6.51417 9.74673 6.41277 10.1097 6.21851C10.4726 6.02426 10.7818 5.74319 11.0097 5.40037L13.2308 2.06837L12.3988 1.51367Z" fill="currentColor"/>
<path d="M5.5 3.01367C5.5 2.61811 5.6173 2.23143 5.83706 1.90253C6.05682 1.57363 6.36918 1.31729 6.73463 1.16591C7.10009 1.01454 7.50222 0.974932 7.89018 1.0521C8.27814 1.12927 8.63451 1.31975 8.91421 1.59946C9.19392 1.87916 9.3844 2.23553 9.46157 2.62349C9.53874 3.01145 9.49913 3.41359 9.34776 3.77904C9.19638 4.14449 8.94004 4.45685 8.61114 4.67661C8.28224 4.89637 7.89556 5.01367 7.5 5.01367C6.96974 5.01312 6.46135 4.80222 6.0864 4.42727C5.71145 4.05232 5.50056 3.54394 5.5 3.01367ZM6.5 3.01367C6.5 3.21145 6.55865 3.40479 6.66853 3.56924C6.77841 3.73369 6.93459 3.86186 7.11732 3.93755C7.30004 4.01324 7.50111 4.03304 7.69509 3.99446C7.88907 3.95587 8.06725 3.86063 8.20711 3.72078C8.34696 3.58093 8.4422 3.40274 8.48079 3.20876C8.51937 3.01478 8.49957 2.81372 8.42388 2.63099C8.34819 2.44826 8.22002 2.29208 8.05557 2.1822C7.89112 2.07232 7.69778 2.01367 7.5 2.01367C7.23488 2.01398 6.9807 2.11943 6.79323 2.3069C6.60576 2.49437 6.5003 2.74855 6.5 3.01367Z" fill="currentColor"/>
</svg>
