<svg viewBox="0 0 16 17" fill="none" xmlns="http://www.w3.org/2000/svg">
<rect width="16" height="16" transform="translate(0 0.513672)" fill="white" fill-opacity="0.01" style="mix-blend-mode:multiply"/>
<path d="M15 14.8089L1.705 1.51385L1 2.21885L4.2 5.42385L3.5 8.39885C3.48236 8.47338 3.48207 8.55097 3.49917 8.62563C3.51626 8.70029 3.55028 8.77002 3.59859 8.82945C3.64691 8.88887 3.70823 8.93641 3.77783 8.96838C3.84742 9.00035 3.92344 9.01591 4 9.01385H6.415L5.5 14.9389C5.48348 15.0487 5.504 15.1609 5.55833 15.2578C5.61265 15.3546 5.69768 15.4307 5.8 15.4739C5.86356 15.4997 5.93141 15.5132 6 15.5139C6.07636 15.5137 6.15166 15.496 6.22013 15.4622C6.2886 15.4284 6.34842 15.3794 6.395 15.3189L9.735 10.9538L14.295 15.5139L15 14.8089Z" fill="currentColor"/>
<path d="M11.265 8.94885L12.895 6.81885C12.9475 6.7478 12.9803 6.6641 12.99 6.57627C12.9996 6.48844 12.9858 6.39962 12.95 6.31885C12.9124 6.23002 12.8499 6.15397 12.7701 6.09985C12.6902 6.04573 12.5964 6.01587 12.5 6.01385H10.125L11 2.12385C11.0166 2.05006 11.0162 1.97347 10.9988 1.89986C10.9815 1.82624 10.9477 1.75752 10.9 1.69885C10.8519 1.6395 10.7908 1.59197 10.7215 1.5599C10.6521 1.52783 10.5764 1.51208 10.5 1.51385H5.5C5.3851 1.51078 5.27266 1.54739 5.18159 1.61751C5.09052 1.68763 5.02639 1.78699 5 1.89885L4.85 2.54885L11.265 8.94885Z" fill="currentColor"/>
</svg>
