<svg viewBox="0 0 16 17" fill="none" xmlns="http://www.w3.org/2000/svg">
<rect width="16" height="16" transform="translate(0 0.513672)" fill="white" fill-opacity="0.01" style="mix-blend-mode:multiply"/>
<path fill-rule="evenodd" clip-rule="evenodd" d="M12.5 12.0137L15 13.0137V12.0137L12.5 10.7637V9.51367C12.5 9.38106 12.4473 9.25389 12.3536 9.16012C12.2598 9.06635 12.1326 9.01367 12 9.01367C11.8674 9.01367 11.7402 9.06635 11.6464 9.16012C11.5527 9.25389 11.5 9.38106 11.5 9.51367V10.7637L9 12.0137V13.0137L11.5 12.0137V13.7637L10.5 14.5137V15.0137L12 14.5137L13.5 15.0137V14.5137L12.5 13.7637V12.0137Z" fill="currentColor"/>
<path fill-rule="evenodd" clip-rule="evenodd" d="M13 2.51367H11V1.51367H10V2.51367H6V1.51367H5V2.51367H3C2.73478 2.51367 2.48043 2.61903 2.29289 2.80657C2.10536 2.9941 2 3.24846 2 3.51367V13.5137C2 13.7789 2.10536 14.0332 2.29289 14.2208C2.48043 14.4083 2.73478 14.5137 3 14.5137H8V13.5137H3V3.51367H5V4.51367H6V3.51367H10V4.51367H11V3.51367H13V7.01367H14V3.51367C14 3.24846 13.8946 2.9941 13.7071 2.80657C13.5196 2.61903 13.2652 2.51367 13 2.51367Z" fill="currentColor"/>
</svg>
