<svg viewBox="0 0 16 17" fill="none" xmlns="http://www.w3.org/2000/svg">
<g clip-path="url(#clip0_1961_11301)">
<rect width="16" height="16" transform="translate(0 0.513672)" fill="white" fill-opacity="0.01" style="mix-blend-mode:multiply"/>
<path d="M8 14.5137C7.88775 14.5134 7.77563 14.5061 7.6643 14.4917C6.63684 12.8451 6.068 10.9539 6.0166 9.01368H14.975C14.9868 8.84793 15 8.68238 15 8.51368C15 7.12921 14.5895 5.77583 13.8203 4.62468C13.0511 3.47354 11.9579 2.57633 10.6788 2.04652C9.3997 1.5167 7.99224 1.37808 6.63437 1.64818C5.2765 1.91827 4.02922 2.58496 3.05026 3.56393C2.07129 4.54289 1.4046 5.79018 1.13451 7.14804C0.86441 8.50591 1.00303 9.91338 1.53285 11.1925C2.06266 12.4715 2.95987 13.5648 4.11101 14.334C5.26216 15.1031 6.61553 15.5137 8 15.5137V14.5137ZM13.9746 8.01368H10.9816C10.9278 6.1737 10.4572 4.36991 9.605 2.73828C10.7842 3.06745 11.8346 3.74912 12.6156 4.69197C13.3966 5.63482 13.8707 6.79381 13.9746 8.01368ZM8.3357 2.53563C9.36317 4.18224 9.93202 6.07347 9.9834 8.01368H6.0166C6.06799 6.07347 6.63684 4.18224 7.6643 2.53563C7.88715 2.50638 8.11286 2.50638 8.3357 2.53563ZM6.395 2.73828C5.5429 4.36993 5.07223 6.1737 5.01845 8.01368H2.0254C2.12929 6.79382 2.60348 5.63484 3.38443 4.69199C4.16539 3.74915 5.21582 3.06747 6.395 2.73828ZM2.0254 9.01368H5.01845C5.07223 10.8536 5.5429 12.6574 6.395 14.2891C5.21582 13.9599 4.16539 13.2782 3.38443 12.3354C2.60348 11.3925 2.12929 10.2335 2.0254 9.01368Z" fill="currentColor"/>
<path fill-rule="evenodd" clip-rule="evenodd" d="M12.5 13.0137L15 14.0137V13.0137L12.5 11.7637V10.5137C12.5 10.3811 12.4473 10.2539 12.3536 10.1601C12.2598 10.0664 12.1326 10.0137 12 10.0137C11.8674 10.0137 11.7402 10.0664 11.6464 10.1601C11.5527 10.2539 11.5 10.3811 11.5 10.5137V11.7637L9 13.0137V14.0137L11.5 13.0137V14.7637L10.5 15.5137V16.0137L12 15.5137L13.5 16.0137V15.5137L12.5 14.7637V13.0137Z" fill="currentColor"/>
</g>
<defs>
<clipPath id="clip0_1961_11301">
<rect width="16" height="16" fill="white" transform="translate(0 0.513672)"/>
</clipPath>
</defs>
</svg>
