<svg viewBox="0 0 16 17" fill="none" xmlns="http://www.w3.org/2000/svg">
<rect width="16" height="16" transform="translate(0 0.513672)" fill="white" fill-opacity="0.01" style="mix-blend-mode:multiply"/>
<path fill-rule="evenodd" clip-rule="evenodd" d="M13 3.51367C13 3.24846 12.8946 2.9941 12.7071 2.80657C12.5196 2.61903 12.2652 2.51367 12 2.51367H4C3.73478 2.51367 3.48043 2.61903 3.29289 2.80657C3.10536 2.9941 3 3.24846 3 3.51367V13.5137C3 13.7789 3.10536 14.0332 3.29289 14.2208C3.48043 14.4083 3.73478 14.5137 4 14.5137H8V13.5137H4V3.51367H12V6.51367H13V3.51367Z" fill="currentColor"/>
<path d="M8 9.51367H5V10.5137H8V9.51367Z" fill="currentColor"/>
<path d="M11 7.51367H5V8.51367H11V7.51367Z" fill="currentColor"/>
<path fill-rule="evenodd" clip-rule="evenodd" d="M11 5.51367V6.51367H5V5.51367H11Z" fill="currentColor"/>
<path fill-rule="evenodd" clip-rule="evenodd" d="M12.5 12.0137L15 13.0137V12.0137L12.5 10.7637V9.51367C12.5 9.38106 12.4473 9.25389 12.3536 9.16012C12.2598 9.06635 12.1326 9.01367 12 9.01367C11.8674 9.01367 11.7402 9.06635 11.6464 9.16012C11.5527 9.25389 11.5 9.38106 11.5 9.51367V10.7637L9 12.0137V13.0137L11.5 12.0137V13.7637L10.5 14.5137V15.0137L12 14.5137L13.5 15.0137V14.5137L12.5 13.7637V12.0137Z" fill="currentColor"/>
</svg>
