<svg viewBox="0 0 16 17" fill="none" xmlns="http://www.w3.org/2000/svg">
<rect width="16" height="16" transform="translate(0 0.513672)" fill="white" fill-opacity="0.01" style="mix-blend-mode:multiply"/>
<path d="M14.5 14.5136C14.3293 14.5131 14.16 14.4824 14 14.4228V14.4198C13.7657 14.3206 13.5539 14.1749 13.3774 13.9915C13.201 13.8081 13.0636 13.5909 12.9734 13.3529C12.9418 13.2528 12.8786 13.1655 12.7932 13.1044C12.7079 13.0432 12.605 13.0113 12.5 13.0136C12.3952 13.0141 12.2932 13.0473 12.2081 13.1086C12.1231 13.1698 12.0593 13.2561 12.0257 13.3554C11.915 13.678 11.7108 13.9604 11.4391 14.1667C11.1674 14.3729 10.8405 14.4937 10.5 14.5136C10.1591 14.4935 9.83181 14.3724 9.55993 14.1657C9.28806 13.959 9.08388 13.6761 8.9734 13.3529C8.94054 13.2535 8.877 13.1672 8.79194 13.1062C8.70687 13.0452 8.60466 13.0128 8.5 13.0136C8.39519 13.0141 8.29316 13.0473 8.20813 13.1086C8.1231 13.1698 8.05931 13.2561 8.02565 13.3554C7.91498 13.678 7.7108 13.9604 7.43912 14.1667C7.16743 14.3729 6.84052 14.4937 6.5 14.5136C6.15906 14.4935 5.83181 14.3724 5.55993 14.1657C5.28806 13.959 5.08388 13.6761 4.9734 13.3529C4.93975 13.2538 4.87582 13.1677 4.79065 13.1068C4.70547 13.046 4.60334 13.0134 4.49864 13.0136C4.39395 13.0139 4.29199 13.047 4.20713 13.1083C4.12227 13.1697 4.05879 13.2561 4.02565 13.3554C3.91498 13.678 3.7108 13.9604 3.43912 14.1667C3.16743 14.3729 2.84052 14.4937 2.5 14.5136H1V15.5136H2.5C2.88804 15.517 3.27141 15.4288 3.61894 15.2561C3.96647 15.0835 4.26834 14.8312 4.5 14.5199C4.73404 14.8287 5.0364 15.0791 5.38338 15.2515C5.73036 15.4239 6.11255 15.5136 6.5 15.5136C6.88745 15.5136 7.26964 15.4239 7.61662 15.2515C7.9636 15.0791 8.26596 14.8287 8.5 14.5199C8.73404 14.8287 9.0364 15.0791 9.38338 15.2515C9.73037 15.4239 10.1126 15.5136 10.5 15.5136C10.8874 15.5136 11.2696 15.4239 11.6166 15.2515C11.9636 15.0791 12.266 14.8287 12.5 14.5199C12.7784 14.8797 13.1473 15.1592 13.5689 15.3299C13.8641 15.452 14.1806 15.5144 14.5 15.5136H15V14.5136H14.5Z" fill="currentColor"/>
<path d="M14.9558 7.98144L11.8142 2.19899C11.7832 2.14286 11.7376 2.09607 11.6824 2.06348C11.6271 2.0309 11.5641 2.01371 11.5 2.01371C11.4359 2.01371 11.3729 2.0309 11.3176 2.06348C11.2624 2.09607 11.2168 2.14286 11.1858 2.19899L8.04425 7.98144C8.01439 8.03625 7.99929 8.09787 8.00043 8.16027C8.00157 8.22267 8.01891 8.2837 8.05075 8.33737C8.08259 8.39105 8.12784 8.43552 8.18206 8.46643C8.23627 8.49734 8.29759 8.51363 8.36 8.51369H14.64C14.7024 8.51363 14.7637 8.49734 14.8179 8.46643C14.8722 8.43552 14.9174 8.39105 14.9493 8.33737C14.9811 8.2837 14.9984 8.22267 14.9996 8.16027C15.0007 8.09787 14.9856 8.03625 14.9558 7.98144ZM11.125 4.01369H11.875V6.01369H11.125V4.01369ZM11.5 7.51369C11.4011 7.51369 11.3044 7.48437 11.2222 7.42943C11.14 7.37449 11.0759 7.2964 11.0381 7.20504C11.0002 7.11367 10.9903 7.01314 11.0096 6.91615C11.0289 6.81916 11.0765 6.73007 11.1464 6.66014C11.2164 6.59022 11.3055 6.54259 11.4025 6.5233C11.4994 6.50401 11.6 6.51391 11.6913 6.55175C11.7827 6.5896 11.8608 6.65368 11.9157 6.73591C11.9707 6.81813 12 6.9148 12 7.01369C12 7.1463 11.9473 7.27348 11.8536 7.36725C11.7598 7.46102 11.6326 7.51369 11.5 7.51369Z" fill="currentColor"/>
<path d="M14 11.0137V9.51367H13V11.0137H12.5C12.1595 10.9938 11.8326 10.873 11.5609 10.6668C11.2892 10.4605 11.085 10.1781 10.9743 9.85547C10.9412 9.75617 10.8777 9.66977 10.7929 9.60846C10.708 9.54715 10.606 9.51402 10.5014 9.51375C10.3967 9.51348 10.2945 9.54608 10.2094 9.60695C10.1242 9.66782 10.0603 9.75389 10.0266 9.85302C9.91612 10.1762 9.71194 10.4591 9.44007 10.6658C9.16819 10.8726 8.84094 10.9936 8.5 11.0137C8.15948 10.9938 7.83257 10.873 7.56088 10.6668C7.2892 10.4605 7.08502 10.1781 6.97435 9.85547C6.94069 9.75622 6.8769 9.66994 6.79187 9.60867C6.70684 9.5474 6.60481 9.51419 6.5 9.51367C6.39534 9.51289 6.29313 9.54532 6.20806 9.60629C6.123 9.66727 6.05946 9.75366 6.0266 9.85302C5.91612 10.1762 5.71194 10.4591 5.44007 10.6658C5.16819 10.8726 4.84094 10.9936 4.5 11.0137C4.17039 10.9986 3.85248 10.887 3.58579 10.6927C3.3191 10.4984 3.11539 10.23 3 9.92093V6.54442L8 2.64942L9.26635 3.63722L9.75045 2.74632L8.30615 1.62062C8.21742 1.55132 8.10806 1.51367 7.99547 1.51367C7.88289 1.51367 7.77353 1.55132 7.6848 1.62062L0.5 7.22337L1.12135 8.00927L2 7.32422V9.91797C1.9075 10.1426 1.77155 10.3468 1.59994 10.5187C1.42833 10.6906 1.22445 10.827 1 10.9199V11.9617C1.59823 11.8415 2.13179 11.5066 2.5 11.02C2.73404 11.3288 3.0364 11.5792 3.38338 11.7516C3.73036 11.924 4.11255 12.0137 4.5 12.0137C4.88745 12.0137 5.26964 11.924 5.61662 11.7516C5.9636 11.5792 6.26596 11.3288 6.5 11.02C6.73404 11.3288 7.0364 11.5792 7.38338 11.7516C7.73036 11.924 8.11255 12.0137 8.5 12.0137C8.88745 12.0137 9.26963 11.924 9.61662 11.7516C9.9636 11.5792 10.266 11.3288 10.5 11.02C10.7317 11.3313 11.0335 11.5836 11.3811 11.7562C11.7286 11.9289 12.112 12.0171 12.5 12.0137H15V11.0137H14Z" fill="currentColor"/>
</svg>
