<svg viewBox="0 0 16 16" fill="none" xmlns="http://www.w3.org/2000/svg">
<rect width="16" height="16" fill="white" fill-opacity="0.01" style="mix-blend-mode:multiply"/>
<path d="M10.0001 11.5H5.93014C5.88063 11.3247 5.80835 11.1566 5.71514 11L11.0001 5.715C11.3011 5.8997 11.647 5.99828 12.0001 6C12.3745 6.00122 12.7417 5.89735 13.0599 5.70021C13.3781 5.50307 13.6346 5.22058 13.8002 4.88487C13.9659 4.54916 14.0339 4.1737 13.9967 3.80121C13.9595 3.42873 13.8185 3.07416 13.5898 2.77784C13.361 2.48153 13.0537 2.25536 12.7027 2.12507C12.3518 1.99478 11.9713 1.96559 11.6046 2.04083C11.2379 2.11607 10.8997 2.29272 10.6284 2.55068C10.3572 2.80864 10.1637 3.13755 10.0701 3.5H5.93014C5.80845 3.02868 5.51903 2.61791 5.11614 2.3447C4.71325 2.0715 4.22455 1.95461 3.74164 2.01595C3.25874 2.07728 2.81478 2.31264 2.49298 2.67789C2.17119 3.04314 1.99365 3.51322 1.99365 4C1.99365 4.48679 2.17119 4.95687 2.49298 5.32212C2.81478 5.68737 3.25874 5.92273 3.74164 5.98406C4.22455 6.0454 4.71325 5.92851 5.11614 5.65531C5.51903 5.3821 5.80845 4.97133 5.93014 4.5H10.0701C10.1197 4.67535 10.1919 4.84345 10.2851 5L5.00014 10.285C4.69916 10.1003 4.35327 10.0017 4.00014 10C3.6258 9.99879 3.25864 10.1027 2.94041 10.2998C2.62218 10.4969 2.36567 10.7794 2.20005 11.1151C2.03443 11.4509 1.96635 11.8263 2.00356 12.1988C2.04077 12.5713 2.18177 12.9259 2.41053 13.2222C2.63928 13.5185 2.94661 13.7447 3.29755 13.8749C3.64848 14.0052 4.02894 14.0344 4.39565 13.9592C4.76235 13.8839 5.10057 13.7073 5.37185 13.4493C5.64312 13.1914 5.83656 12.8625 5.93014 12.5H10.0001V14H14.0001V10H10.0001V11.5ZM4.00014 5C3.80236 5 3.60902 4.94136 3.44457 4.83147C3.28012 4.72159 3.15195 4.56541 3.07626 4.38269C3.00058 4.19996 2.98077 3.9989 3.01936 3.80491C3.05794 3.61093 3.15318 3.43275 3.29304 3.2929C3.43289 3.15305 3.61107 3.0578 3.80505 3.01922C3.99903 2.98063 4.2001 3.00044 4.38283 3.07613C4.56555 3.15181 4.72173 3.27999 4.83161 3.44443C4.94149 3.60888 5.00014 3.80222 5.00014 4C5.00014 4.26522 4.89479 4.51957 4.70725 4.70711C4.51971 4.89465 4.26536 5 4.00014 5ZM12.0001 3C12.1979 3 12.3913 3.05865 12.5557 3.16854C12.7202 3.27842 12.8483 3.4346 12.924 3.61732C12.9997 3.80005 13.0195 4.00111 12.9809 4.1951C12.9423 4.38908 12.8471 4.56726 12.7073 4.70711C12.5674 4.84696 12.3892 4.9422 12.1952 4.98079C12.0013 5.01938 11.8002 4.99957 11.6175 4.92388C11.4347 4.8482 11.2786 4.72002 11.1687 4.55557C11.0588 4.39113 11.0001 4.19779 11.0001 4C11.0001 3.73479 11.1055 3.48043 11.293 3.2929C11.4806 3.10536 11.7349 3 12.0001 3ZM4.00014 13C3.80236 13 3.60902 12.9414 3.44457 12.8315C3.28012 12.7216 3.15195 12.5654 3.07626 12.3827C3.00058 12.2 2.98077 11.9989 3.01936 11.8049C3.05794 11.6109 3.15318 11.4328 3.29304 11.2929C3.43289 11.153 3.61107 11.0578 3.80505 11.0192C3.99903 10.9806 4.2001 11.0004 4.38283 11.0761C4.56555 11.1518 4.72173 11.28 4.83161 11.4444C4.94149 11.6089 5.00014 11.8022 5.00014 12C5.00014 12.2652 4.89479 12.5196 4.70725 12.7071C4.51971 12.8946 4.26536 13 4.00014 13ZM11.0001 11H13.0001V13H11.0001V11Z" fill="currentColor"/>
</svg>
