<svg viewBox="0 0 16 16" fill="none" xmlns="http://www.w3.org/2000/svg">
<rect width="16" height="16" fill="white" fill-opacity="0.01" style="mix-blend-mode:multiply"/>
<path d="M15.0002 9.5H9.00021V10.5H15.0002V9.5Z" fill="currentColor"/>
<path d="M15.0002 11.5H9.00021V12.5H15.0002V11.5Z" fill="currentColor"/>
<path d="M13.0002 13.5H9.00021V14.5H13.0002V13.5Z" fill="currentColor"/>
<path d="M12.0002 2C11.558 2.00134 11.1288 2.14933 10.7797 2.42077C10.4307 2.69221 10.1815 3.07178 10.0713 3.5H6.00021V2H2.00021V6H6.00021V4.5H10.0713C10.1178 4.67896 10.1893 4.85048 10.2837 5.0095L5.00971 10.2835C4.70488 10.0998 4.3561 10.0019 4.00021 10C3.62583 9.99859 3.25857 10.1023 2.94021 10.2993C2.62185 10.4963 2.36519 10.7787 2.19942 11.1144C2.03365 11.4501 1.96542 11.8256 2.00252 12.1981C2.03961 12.5707 2.18052 12.9253 2.40923 13.2217C2.63793 13.5182 2.94524 13.7444 3.2962 13.8748C3.64715 14.0052 4.02765 14.0344 4.39441 13.9592C4.76116 13.884 5.09945 13.7074 5.37077 13.4494C5.6421 13.1914 5.83557 12.8625 5.92916 12.5H8.00021V11.5H5.92916C5.88263 11.321 5.81113 11.1495 5.71676 10.9905L10.9907 5.71655C11.2955 5.90022 11.6443 5.99815 12.0002 6C12.5306 6 13.0394 5.78929 13.4144 5.41421C13.7895 5.03914 14.0002 4.53043 14.0002 4C14.0002 3.46957 13.7895 2.96086 13.4144 2.58579C13.0394 2.21071 12.5306 2 12.0002 2ZM5.00021 5H3.00021V3H5.00021V5ZM4.00021 13C3.80243 13 3.60909 12.9414 3.44464 12.8315C3.2802 12.7216 3.15202 12.5654 3.07634 12.3827C3.00065 12.2 2.98084 11.9989 3.01943 11.8049C3.05801 11.6109 3.15326 11.4327 3.29311 11.2929C3.43296 11.153 3.61114 11.0578 3.80512 11.0192C3.99911 10.9806 4.20017 11.0004 4.3829 11.0761C4.56562 11.1518 4.7218 11.28 4.83168 11.4444C4.94157 11.6089 5.00021 11.8022 5.00021 12C4.99991 12.2651 4.89446 12.5193 4.70699 12.7068C4.51951 12.8942 4.26534 12.9997 4.00021 13ZM12.0002 5C11.8024 5 11.6091 4.94135 11.4446 4.83147C11.2802 4.72159 11.152 4.56541 11.0763 4.38268C11.0006 4.19996 10.9808 3.99889 11.0194 3.80491C11.058 3.61093 11.1533 3.43275 11.2931 3.29289C11.433 3.15304 11.6111 3.0578 11.8051 3.01921C11.9991 2.98063 12.2002 3.00043 12.3829 3.07612C12.5656 3.15181 12.7218 3.27998 12.8317 3.44443C12.9416 3.60888 13.0002 3.80222 13.0002 4C12.9999 4.26512 12.8945 4.5193 12.707 4.70677C12.5195 4.89424 12.2653 4.9997 12.0002 5Z" fill="currentColor"/>
</svg>
