<svg viewBox="0 0 16 17" fill="none" xmlns="http://www.w3.org/2000/svg">
<rect width="16" height="16" transform="translate(0 0.513672)" fill="white" fill-opacity="0.01" style="mix-blend-mode:multiply"/>
<path d="M12.4004 6.08278C12.1876 5.07344 11.6342 4.16795 10.8331 3.51813C10.032 2.86831 9.03179 2.51367 8.00025 2.51367C6.96871 2.51367 5.96854 2.86831 5.16741 3.51813C4.36629 4.16795 3.81292 5.07344 3.6001 6.08278C2.8681 6.23532 2.21059 6.63437 1.73737 7.21329C1.26415 7.79222 1.00387 8.51597 1 9.26368V10.0137C1 10.1463 1.05268 10.2735 1.14645 10.3672C1.24021 10.461 1.36739 10.5137 1.5 10.5137H7.5C7.63261 10.5137 7.75979 10.461 7.85355 10.3672C7.94732 10.2735 8 10.1463 8 10.0137C8 9.88108 7.94732 9.7539 7.85355 9.66013C7.75979 9.56636 7.63261 9.51368 7.5 9.51368H2V9.26538C2.00253 8.7004 2.2167 8.15687 2.60027 7.74203C2.98384 7.32719 3.50894 7.07115 4.072 7.02443L4.47975 6.99243L4.5293 6.58643C4.63294 5.73884 5.04314 4.95845 5.68254 4.39247C6.32194 3.82649 7.14634 3.51404 8.00025 3.51404C8.85416 3.51404 9.67856 3.82649 10.318 4.39247C10.9574 4.95845 11.3676 5.73884 11.4712 6.58643L11.5205 6.99243L11.9282 7.02443C12.5075 7.07009 13.0466 7.33826 13.4324 7.77271C13.8183 8.20716 14.0209 8.77414 13.9979 9.35475C13.9749 9.93536 13.7279 10.4845 13.3088 10.887C12.8897 11.2895 12.3311 11.5141 11.75 11.5137H3.5C3.36739 11.5137 3.24021 11.5664 3.14645 11.6601C3.05268 11.7539 3 11.8811 3 12.0137C3 12.1463 3.05268 12.2735 3.14645 12.3672C3.24021 12.461 3.36739 12.5137 3.5 12.5137H11.75C12.5552 12.5142 13.3319 12.2155 13.9294 11.6757C14.5268 11.136 14.9025 10.3935 14.9835 9.59237C15.0646 8.79126 14.8451 7.98861 14.3678 7.34012C13.8905 6.69164 13.1894 6.24355 12.4004 6.08278Z" fill="currentColor"/>
<path d="M9.5 13.5137H1.5C1.22386 13.5137 1 13.7375 1 14.0137C1 14.2898 1.22386 14.5137 1.5 14.5137H9.5C9.77614 14.5137 10 14.2898 10 14.0137C10 13.7375 9.77614 13.5137 9.5 13.5137Z" fill="currentColor"/>
</svg>
