<svg viewBox="0 0 16 17" fill="none" xmlns="http://www.w3.org/2000/svg">
<rect width="16" height="16" transform="translate(0 0.513672)" fill="white" fill-opacity="0.01" style="mix-blend-mode:multiply"/>
<path d="M7.835 12.5137L6.967 12.0137L8.1105 10.0137H6.166L8.1625 6.51367L9.031 7.01367L7.889 9.01367H9.834L7.835 12.5137Z" fill="currentColor"/>
<path d="M13 9.51367C13 10.5026 12.7068 11.4693 12.1574 12.2915C11.6079 13.1138 10.8271 13.7546 9.91342 14.1331C8.99979 14.5115 7.99446 14.6105 7.02455 14.4176C6.05465 14.2247 5.16373 13.7485 4.46447 13.0492C3.76521 12.3499 3.289 11.459 3.09608 10.4891C2.90315 9.51922 3.00217 8.51389 3.38061 7.60025C3.75904 6.68662 4.39991 5.90573 5.22215 5.35632C6.0444 4.80692 7.0111 4.51367 8 4.51367H10V7.01367L13 4.01367L10 1.01367V3.51367H8C6.81331 3.51367 5.65328 3.86557 4.66658 4.52485C3.67989 5.18414 2.91085 6.12121 2.45673 7.21757C2.0026 8.31393 1.88378 9.52033 2.11529 10.6842C2.3468 11.8481 2.91825 12.9172 3.75736 13.7563C4.59648 14.5954 5.66558 15.1669 6.82946 15.3984C7.99335 15.6299 9.19975 15.5111 10.2961 15.0569C11.3925 14.6028 12.3295 13.8338 12.9888 12.8471C13.6481 11.8604 14 10.7004 14 9.51367H13Z" fill="currentColor"/>
</svg>
