<svg viewBox="0 0 16 17" fill="none" xmlns="http://www.w3.org/2000/svg">
<rect width="16" height="16" transform="translate(0 0.513672)" fill="white" fill-opacity="0.01" style="mix-blend-mode:multiply"/>
<path d="M7 14.5137C5.67392 14.5137 4.40215 13.9869 3.46447 13.0492C2.52678 12.1115 2 10.8398 2 9.51367C2 8.18759 2.52678 6.91582 3.46447 5.97814C4.40215 5.04046 5.67392 4.51367 7 4.51367H9V7.01367L12 4.01367L9 1.01367V3.51367H7C5.4087 3.51367 3.88258 4.14581 2.75736 5.27103C1.63214 6.39625 1 7.92237 1 9.51367C1 11.105 1.63214 12.6311 2.75736 13.7563C3.88258 14.8815 5.4087 15.5137 7 15.5137V14.5137Z" fill="currentColor"/>
<path d="M5.835 12.5137L4.967 12.0137L6.1105 10.0137H4.166L6.1625 6.51367L7.031 7.01367L5.889 9.01367H7.834L5.835 12.5137Z" fill="currentColor"/>
<path d="M10 10.5137H8V11.5137H10V12.5137H8.5V13.5137H10V14.5137H8V15.5137H10C10.2651 15.5133 10.5193 15.4078 10.7067 15.2204C10.8942 15.0329 10.9996 14.7788 11 14.5137V11.5137C10.9997 11.2485 10.8942 10.9944 10.7068 10.8069C10.5193 10.6194 10.2651 10.514 10 10.5137Z" fill="currentColor"/>
<path d="M14 15.5137H13C12.7349 15.5134 12.4807 15.4079 12.2932 15.2205C12.1057 15.033 12.0003 14.7788 12 14.5137V11.5137C12.0003 11.2485 12.1057 10.9943 12.2932 10.8069C12.4807 10.6194 12.7349 10.5139 13 10.5137H14C14.2651 10.5139 14.5193 10.6194 14.7068 10.8069C14.8943 10.9943 14.9997 11.2485 15 11.5137V14.5137C14.9997 14.7788 14.8943 15.033 14.7068 15.2205C14.5193 15.4079 14.2651 15.5134 14 15.5137ZM13 11.5137V14.5137H14V11.5137H13Z" fill="currentColor"/>
</svg>
