<svg viewBox="0 0 16 16" fill="none" xmlns="http://www.w3.org/2000/svg">
<rect width="16" height="16" fill="white" fill-opacity="0.01" style="mix-blend-mode:multiply"/>
<path d="M10 3C10 3.9292 10.6399 4.7053 11.5 4.92895V7.5H4.5V4.92895C5.3601 4.7053 6 3.9292 6 3C6 1.8972 5.1028 1 4 1C2.8972 1 2 1.8972 2 3C2 3.9292 2.6399 4.7053 3.5 4.92895V7.5C3.5 8.0515 3.9485 8.5 4.5 8.5H7.5V11.071C6.6399 11.2947 6 12.0708 6 13C6 14.1028 6.8972 15 8 15C9.1028 15 10 14.1028 10 13C10 12.0708 9.3601 11.2947 8.5 11.071V8.5H11.5C12.0515 8.5 12.5 8.0515 12.5 7.5V4.92895C13.3601 4.7053 14 3.9292 14 3C14 1.8972 13.1028 1 12 1C10.8972 1 10 1.8972 10 3ZM3 3C3 2.4485 3.4485 2 4 2C4.5515 2 5 2.4485 5 3C5 3.5515 4.5515 4 4 4C3.4485 4 3 3.5515 3 3ZM9 13C9 13.5515 8.5515 14 8 14C7.4485 14 7 13.5515 7 13C7 12.4485 7.4485 12 8 12C8.5515 12 9 12.4485 9 13ZM13 3C13 3.5515 12.5515 4 12 4C11.4485 4 11 3.5515 11 3C11 2.4485 11.4485 2 12 2C12.5515 2 13 2.4485 13 3Z" fill="currentColor"/>
</svg>
