<svg viewBox="0 0 16 17" fill="none" xmlns="http://www.w3.org/2000/svg">
<rect width="16" height="16" transform="translate(0 0.513672)" fill="white" fill-opacity="0.01" style="mix-blend-mode:multiply"/>
<path d="M12.5 5.51367H3.5C3.10231 5.51411 2.72103 5.67229 2.43982 5.9535C2.15861 6.2347 2.00044 6.61598 2 7.01367V10.0137C2.0003 10.2788 2.10576 10.533 2.29323 10.7204C2.4807 10.9079 2.73488 11.0134 3 11.0137V14.5137C3.0003 14.7788 3.10576 15.033 3.29323 15.2204C3.4807 15.4079 3.73488 15.5134 4 15.5137H6C6.26512 15.5134 6.5193 15.4079 6.70677 15.2204C6.89424 15.033 6.9997 14.7788 7 14.5137V8.51367H6V14.5137H4V10.0137H3V7.01367C3.00012 6.8811 3.05284 6.75399 3.14658 6.66025C3.24032 6.56651 3.36743 6.51379 3.5 6.51367H12.5C12.6326 6.51379 12.7597 6.56651 12.8534 6.66025C12.9472 6.75399 12.9999 6.8811 13 7.01367V10.0137H12V14.5137H10V8.51367H9V14.5137C9.0003 14.7788 9.10576 15.033 9.29323 15.2204C9.4807 15.4079 9.73488 15.5134 10 15.5137H12C12.2651 15.5134 12.5193 15.4079 12.7068 15.2204C12.8942 15.033 12.9997 14.7788 13 14.5137V11.0137C13.2651 11.0134 13.5193 10.9079 13.7068 10.7204C13.8942 10.533 13.9997 10.2788 14 10.0137V7.01367C13.9996 6.61598 13.8414 6.2347 13.5602 5.9535C13.279 5.67229 12.8977 5.51411 12.5 5.51367Z" fill="currentColor"/>
<path d="M5 5.01367C4.60444 5.01367 4.21776 4.89637 3.88886 4.67661C3.55996 4.45685 3.30362 4.14449 3.15224 3.77904C3.00087 3.41359 2.96126 3.01145 3.03843 2.62349C3.1156 2.23553 3.30608 1.87916 3.58579 1.59946C3.86549 1.31975 4.22186 1.12927 4.60982 1.0521C4.99778 0.974932 5.39991 1.01454 5.76537 1.16591C6.13082 1.31729 6.44318 1.57363 6.66294 1.90253C6.8827 2.23143 7 2.61811 7 3.01367C6.99944 3.54394 6.78855 4.05232 6.4136 4.42727C6.03865 4.80222 5.53026 5.01312 5 5.01367ZM5 2.01367C4.80222 2.01367 4.60888 2.07232 4.44443 2.1822C4.27998 2.29208 4.15181 2.44826 4.07612 2.63099C4.00043 2.81372 3.98063 3.01478 4.01921 3.20876C4.0578 3.40274 4.15304 3.58093 4.29289 3.72078C4.43275 3.86063 4.61093 3.95587 4.80491 3.99446C4.99889 4.03304 5.19996 4.01324 5.38268 3.93755C5.56541 3.86186 5.72159 3.73369 5.83147 3.56924C5.94135 3.40479 6 3.21145 6 3.01367C5.9997 2.74855 5.89424 2.49437 5.70677 2.3069C5.5193 2.11943 5.26512 2.01398 5 2.01367Z" fill="currentColor"/>
<path d="M11 5.01367C10.6044 5.01367 10.2178 4.89637 9.88886 4.67661C9.55996 4.45685 9.30362 4.14449 9.15224 3.77904C9.00087 3.41359 8.96126 3.01145 9.03843 2.62349C9.1156 2.23553 9.30608 1.87916 9.58579 1.59946C9.86549 1.31975 10.2219 1.12927 10.6098 1.0521C10.9978 0.974932 11.3999 1.01454 11.7654 1.16591C12.1308 1.31729 12.4432 1.57363 12.6629 1.90253C12.8827 2.23143 13 2.61811 13 3.01367C12.9994 3.54394 12.7886 4.05232 12.4136 4.42727C12.0386 4.80222 11.5303 5.01312 11 5.01367ZM11 2.01367C10.8022 2.01367 10.6089 2.07232 10.4444 2.1822C10.28 2.29208 10.1518 2.44826 10.0761 2.63099C10.0004 2.81372 9.98063 3.01478 10.0192 3.20876C10.0578 3.40274 10.153 3.58093 10.2929 3.72078C10.4327 3.86063 10.6109 3.95587 10.8049 3.99446C10.9989 4.03304 11.2 4.01324 11.3827 3.93755C11.5654 3.86186 11.7216 3.73369 11.8315 3.56924C11.9414 3.40479 12 3.21145 12 3.01367C11.9997 2.74855 11.8942 2.49437 11.7068 2.3069C11.5193 2.11943 11.2651 2.01398 11 2.01367Z" fill="currentColor"/>
</svg>
