<svg viewBox="0 0 16 17" fill="none" xmlns="http://www.w3.org/2000/svg">
<rect width="16" height="16" transform="translate(0 0.513672)" fill="white" fill-opacity="0.01" style="mix-blend-mode:multiply"/>
<path d="M9.81312 15.2761L9.55502 14.3101C10.5268 14.0491 11.4174 13.5479 12.1449 12.8527C12.8724 12.1574 13.4134 11.2905 13.7182 10.3315C14.0229 9.37247 14.0817 8.35224 13.889 7.36459C13.6964 6.37695 13.2585 5.45359 12.6156 4.67945L13.3844 4.04005C14.1346 4.94322 14.6456 6.02054 14.8704 7.1729C15.0953 8.32526 15.0267 9.51566 14.6711 10.6346C14.3154 11.7535 13.6841 12.7651 12.8352 13.5761C11.9863 14.3872 10.9471 14.9718 9.81312 15.2761Z" fill="currentColor"/>
<path d="M5.00002 15.0133H4.00002V13.1033L4.40187 13.023C5.13087 12.8773 6.00002 12.3236 6.00002 10.5133V9.8224L4.00002 8.8224V7.7042L6.00002 6.7042V6.5133C6.00002 3.77965 7.96267 2.0133 11 2.0133H12V3.9233L11.5982 4.00365C10.8692 4.1493 10 4.703 10 6.5133V6.7042L12 7.7042V8.8224L10 9.8224V10.5133C10 13.247 8.03737 15.0133 5.00002 15.0133ZM5.00002 14.0133C7.46732 14.0133 9.00002 12.6722 9.00002 10.5133V9.2042L10.8821 8.2633L9.00002 7.3224V6.5133C9.00002 4.22425 10.1927 3.4171 11 3.1333V3.0133C8.53272 3.0133 7.00002 4.35435 7.00002 6.5133V7.3224L5.11792 8.2633L7.00002 9.2042V10.5133C7.00002 12.8024 5.80737 13.6095 5.00002 13.8933V14.0133Z" fill="currentColor"/>
<path d="M2.61562 12.9866C1.86532 12.0832 1.35427 11.0057 1.12948 9.85319C0.904696 8.70064 0.973398 7.51006 1.32927 6.39102C1.68514 5.27197 2.31674 4.26041 3.16596 3.4494C4.01518 2.6384 5.05473 2.054 6.18897 1.75L6.44702 2.71605C5.47494 2.97676 4.58403 3.47774 3.85626 4.1729C3.12848 4.86805 2.5872 5.73506 2.28221 6.69417C1.97722 7.65328 1.91832 8.67368 2.11093 9.66151C2.30353 10.6493 2.74146 11.5729 3.38442 12.3471L2.61562 12.9866Z" fill="currentColor"/>
</svg>
