<svg viewBox="0 0 16 17" fill="none" xmlns="http://www.w3.org/2000/svg">
<rect width="16" height="16" transform="translate(0 0.513672)" fill="white" fill-opacity="0.01" style="mix-blend-mode:multiply"/>
<path d="M3.75507 13.5133C3.51191 13.5137 3.26979 13.4818 3.03507 13.4183C2.33052 13.2174 1.73278 12.7484 1.3701 12.1118C1.00741 11.4752 0.908676 10.7219 1.09507 10.0133L2.26007 5.59333C2.3508 5.23561 2.51209 4.89963 2.73447 4.60512C2.95686 4.31061 3.23585 4.06351 3.55507 3.87833C3.86588 3.6983 4.20933 3.58174 4.56551 3.53539C4.92169 3.48905 5.28353 3.51384 5.63007 3.60833C5.99844 3.71062 6.34154 3.88833 6.63762 4.13019C6.93371 4.37205 7.17631 4.67278 7.35007 5.01333H8.65007C8.82307 4.67223 9.06543 4.37106 9.36163 4.12911C9.65782 3.88716 10.0013 3.70977 10.3701 3.60833C10.7166 3.51384 11.0784 3.48905 11.4346 3.53539C11.7908 3.58174 12.1343 3.6983 12.4451 3.87833C12.7627 4.06304 13.0407 4.30878 13.263 4.60141C13.4852 4.89403 13.6474 5.22775 13.7401 5.58333L14.9051 10.0133C15.0942 10.7239 14.9963 11.4804 14.6324 12.1194C14.2684 12.7584 13.6677 13.2285 12.9601 13.4283C12.6135 13.5228 12.2517 13.5476 11.8955 13.5013C11.5393 13.4549 11.1959 13.3384 10.8851 13.1583C10.5669 12.9743 10.2885 12.7287 10.0662 12.436C9.84384 12.1433 9.682 11.8092 9.59007 11.4533L9.50007 11.0133H6.50007L6.38507 11.4433C6.29314 11.7992 6.13129 12.1333 5.90896 12.426C5.68662 12.7187 5.40825 12.9643 5.09007 13.1483C4.68381 13.3826 4.22403 13.5083 3.75507 13.5133ZM4.91507 4.51333C4.61334 4.51435 4.31703 4.5936 4.05507 4.74333C3.64449 4.98422 3.34606 5.37793 3.22507 5.83833L2.06007 10.2583C1.93816 10.7137 1.99976 11.1987 2.23162 11.6092C2.46349 12.0196 2.84712 12.3227 3.30007 12.4533C3.51882 12.513 3.74723 12.5287 3.97209 12.4995C4.19695 12.4703 4.41379 12.3969 4.61007 12.2833C4.81442 12.1653 4.99312 12.0077 5.13565 11.8197C5.27819 11.6316 5.38169 11.417 5.44007 11.1883L5.75007 10.0133H10.2501L10.5551 11.1883C10.6145 11.4165 10.7184 11.6307 10.8608 11.8186C11.0033 12.0065 11.1814 12.1645 11.3851 12.2833C11.5823 12.3967 11.8 12.4701 12.0256 12.4993C12.2513 12.5285 12.4805 12.5129 12.7001 12.4533C13.1536 12.3239 13.5377 12.0208 13.7689 11.6098C14.0002 11.1988 14.0599 10.7131 13.9351 10.2583L12.7701 5.83833C12.712 5.61022 12.6092 5.39595 12.4676 5.20796C12.3259 5.01997 12.1483 4.86203 11.9451 4.74333C11.7478 4.62991 11.5301 4.55651 11.3045 4.52734C11.0789 4.49817 10.8497 4.5138 10.6301 4.57333C10.3585 4.65074 10.1093 4.79183 9.90321 4.98489C9.69711 5.17794 9.54005 5.41738 9.44507 5.68333L9.32507 6.01333H6.67507L6.55507 5.68333C6.45924 5.41703 6.3013 5.17742 6.09434 4.98437C5.88738 4.79133 5.63738 4.65042 5.36507 4.57333C5.21833 4.53376 5.06704 4.51359 4.91507 4.51333Z" fill="currentColor"/>
<path d="M5.00007 8.51333C4.80228 8.51333 4.60895 8.45468 4.4445 8.3448C4.28005 8.23491 4.15187 8.07874 4.07619 7.89601C4.0005 7.71328 3.9807 7.51222 4.01928 7.31824C4.05787 7.12425 4.15311 6.94607 4.29296 6.80622C4.43281 6.66637 4.61099 6.57113 4.80498 6.53254C4.99896 6.49396 5.20002 6.51376 5.38275 6.58945C5.56548 6.66513 5.72165 6.79331 5.83154 6.95776C5.94142 7.1222 6.00007 7.31554 6.00007 7.51333C6.00007 7.77854 5.89471 8.0329 5.70717 8.22043C5.51964 8.40797 5.26528 8.51333 5.00007 8.51333Z" fill="currentColor"/>
<path d="M11.0001 7.01333C11.2762 7.01333 11.5001 6.78947 11.5001 6.51333C11.5001 6.23718 11.2762 6.01333 11.0001 6.01333C10.7239 6.01333 10.5001 6.23718 10.5001 6.51333C10.5001 6.78947 10.7239 7.01333 11.0001 7.01333Z" fill="currentColor"/>
<path d="M11.0001 9.01333C11.2762 9.01333 11.5001 8.78947 11.5001 8.51333C11.5001 8.23718 11.2762 8.01333 11.0001 8.01333C10.7239 8.01333 10.5001 8.23718 10.5001 8.51333C10.5001 8.78947 10.7239 9.01333 11.0001 9.01333Z" fill="currentColor"/>
<path d="M10.0001 8.01333C10.2762 8.01333 10.5001 7.78947 10.5001 7.51333C10.5001 7.23718 10.2762 7.01333 10.0001 7.01333C9.72392 7.01333 9.50007 7.23718 9.50007 7.51333C9.50007 7.78947 9.72392 8.01333 10.0001 8.01333Z" fill="currentColor"/>
<path d="M12.0001 8.01333C12.2762 8.01333 12.5001 7.78947 12.5001 7.51333C12.5001 7.23718 12.2762 7.01333 12.0001 7.01333C11.7239 7.01333 11.5001 7.23718 11.5001 7.51333C11.5001 7.78947 11.7239 8.01333 12.0001 8.01333Z" fill="currentColor"/>
</svg>
