<svg viewBox="0 0 16 17" fill="none" xmlns="http://www.w3.org/2000/svg">
<rect width="16" height="16" transform="translate(0 0.513672)" fill="white" fill-opacity="0.01" style="mix-blend-mode:multiply"/>
<path d="M3.75507 15.5142C3.51191 15.5146 3.26979 15.4826 3.03507 15.4192C2.33052 15.2182 1.73278 14.7492 1.3701 14.1126C1.00741 13.476 0.908676 12.7227 1.09507 12.0142L2.26007 7.59415C2.352 7.23825 2.51384 6.9042 2.73618 6.61148C2.95851 6.31875 3.23688 6.07321 3.55507 5.88915C3.86588 5.70913 4.20933 5.59257 4.56551 5.54622C4.92169 5.49987 5.28353 5.52466 5.63007 5.61915C5.99755 5.72031 6.34009 5.89649 6.63612 6.13658C6.93214 6.37667 7.17523 6.67547 7.35007 7.01415H8.65007C8.82307 6.67306 9.06543 6.37189 9.36163 6.12994C9.65782 5.88799 10.0013 5.7106 10.3701 5.60915C10.7166 5.51466 11.0784 5.48987 11.4346 5.53622C11.7908 5.58257 12.1343 5.69913 12.4451 5.87915C12.7631 6.06343 13.0413 6.30904 13.2636 6.60173C13.4859 6.89442 13.6479 7.22836 13.7401 7.58416L14.9051 12.0142C15.0942 12.7247 14.9963 13.4812 14.6324 14.1202C14.2684 14.7592 13.6677 15.2294 12.9601 15.4292C12.6135 15.5236 12.2517 15.5484 11.8955 15.5021C11.5393 15.4557 11.1959 15.3392 10.8851 15.1592C10.5669 14.9751 10.2885 14.7296 10.0662 14.4368C9.84384 14.1441 9.682 13.8101 9.59007 13.4542L9.50007 13.0142H6.50007L6.38507 13.4442C6.29314 13.8001 6.13129 14.1341 5.90896 14.4268C5.68662 14.7196 5.40825 14.9651 5.09007 15.1492C4.68381 15.3835 4.22403 15.5092 3.75507 15.5142ZM4.91507 6.51415C4.61334 6.51518 4.31703 6.59443 4.05507 6.74415C3.85142 6.86301 3.67325 7.02093 3.53082 7.20884C3.38838 7.39676 3.28447 7.61096 3.22507 7.83915L2.06007 12.2592C1.93816 12.7145 1.99976 13.1995 2.23162 13.61C2.46349 14.0204 2.84712 14.3235 3.30007 14.4542C3.51882 14.5138 3.74723 14.5295 3.97209 14.5003C4.19695 14.4712 4.41379 14.3977 4.61007 14.2842C4.81389 14.1655 4.99219 14.0077 5.13465 13.8197C5.27711 13.6318 5.38092 13.4175 5.44007 13.1892L5.75007 12.0142H10.2501L10.5551 13.1892C10.6761 13.6495 10.9745 14.0433 11.3851 14.2842C11.5823 14.3976 11.8 14.471 12.0256 14.5001C12.2513 14.5293 12.4805 14.5137 12.7001 14.4542C13.1536 14.3247 13.5377 14.0216 13.7689 13.6106C14.0002 13.1996 14.0599 12.7139 13.9351 12.2592L12.7701 7.83915C12.7125 7.61083 12.6099 7.39633 12.4682 7.20828C12.3265 7.02022 12.1487 6.86242 11.9451 6.74415C11.7478 6.63074 11.5301 6.55734 11.3045 6.52817C11.0789 6.499 10.8497 6.51463 10.6301 6.57415C10.3585 6.65157 10.1093 6.79266 9.90321 6.98572C9.69711 7.17877 9.54005 7.41821 9.44507 7.68415L9.32507 8.01415H6.67507L6.55507 7.68415C6.45924 7.41786 6.3013 7.17825 6.09434 6.9852C5.88738 6.79216 5.63738 6.65125 5.36507 6.57415C5.21833 6.53459 5.06704 6.51442 4.91507 6.51415Z" fill="currentColor"/>
<path d="M5.00007 10.5142C4.80228 10.5142 4.60895 10.4555 4.4445 10.3456C4.28005 10.2357 4.15187 10.0796 4.07619 9.89684C4.0005 9.71411 3.9807 9.51305 4.01928 9.31906C4.05787 9.12508 4.15311 8.9469 4.29296 8.80705C4.43281 8.6672 4.61099 8.57195 4.80498 8.53337C4.99896 8.49478 5.20002 8.51459 5.38275 8.59028C5.56548 8.66596 5.72165 8.79414 5.83154 8.95858C5.94142 9.12303 6.00007 9.31637 6.00007 9.51415C6.00007 9.77937 5.89471 10.0337 5.70717 10.2213C5.51964 10.4088 5.26528 10.5142 5.00007 10.5142Z" fill="currentColor"/>
<path d="M11.0001 9.01415C11.2762 9.01415 11.5001 8.7903 11.5001 8.51415C11.5001 8.23801 11.2762 8.01415 11.0001 8.01415C10.7239 8.01415 10.5001 8.23801 10.5001 8.51415C10.5001 8.7903 10.7239 9.01415 11.0001 9.01415Z" fill="currentColor"/>
<path d="M11.0001 11.0142C11.2762 11.0142 11.5001 10.7903 11.5001 10.5142C11.5001 10.238 11.2762 10.0142 11.0001 10.0142C10.7239 10.0142 10.5001 10.238 10.5001 10.5142C10.5001 10.7903 10.7239 11.0142 11.0001 11.0142Z" fill="currentColor"/>
<path d="M10.0001 10.0142C10.2762 10.0142 10.5001 9.7903 10.5001 9.51415C10.5001 9.23801 10.2762 9.01415 10.0001 9.01415C9.72392 9.01415 9.50007 9.23801 9.50007 9.51415C9.50007 9.7903 9.72392 10.0142 10.0001 10.0142Z" fill="currentColor"/>
<path d="M12.0001 10.0142C12.2762 10.0142 12.5001 9.7903 12.5001 9.51415C12.5001 9.23801 12.2762 9.01415 12.0001 9.01415C11.7239 9.01415 11.5001 9.23801 11.5001 9.51415C11.5001 9.7903 11.7239 10.0142 12.0001 10.0142Z" fill="currentColor"/>
<path d="M6.87507 5.01415L6.12507 4.34915C6.35967 4.08314 6.64819 3.87009 6.97147 3.72415C7.29475 3.57822 7.64538 3.50275 8.00007 3.50275C8.35476 3.50275 8.70538 3.57822 9.02866 3.72415C9.35194 3.87009 9.64046 4.08314 9.87507 4.34915L9.12507 5.01415C8.9843 4.85454 8.81119 4.72671 8.61722 4.63915C8.42326 4.5516 8.21288 4.50631 8.00007 4.50631C7.78725 4.50631 7.57688 4.5516 7.38291 4.63915C7.18894 4.72671 7.01583 4.85454 6.87507 5.01415Z" fill="currentColor"/>
<path d="M10.6251 3.69915C10.2966 3.32673 9.89269 3.02846 9.4401 2.82415C8.98751 2.61985 8.49663 2.51419 8.00007 2.51419C7.5035 2.51419 7.01262 2.61985 6.56003 2.82415C6.10745 3.02846 5.70351 3.32673 5.37507 3.69915L4.62507 3.03915C5.04735 2.56033 5.5667 2.17683 6.1486 1.91415C6.73049 1.65148 7.36163 1.51563 8.00007 1.51562C8.63851 1.51563 9.26964 1.65148 9.85154 1.91415C10.4334 2.17683 10.9528 2.56033 11.3751 3.03915L10.6251 3.69915Z" fill="currentColor"/>
</svg>
