<svg viewBox="0 0 16 17" fill="none" xmlns="http://www.w3.org/2000/svg">
<g clip-path="url(#clip0_1961_10545)">
<rect width="16" height="16" transform="translate(0 0.513672)" fill="white" fill-opacity="0.01" style="mix-blend-mode:multiply"/>
<path d="M9.49999 7.51366H6.99999V6.51366C6.99999 6.24845 7.10535 5.99409 7.29288 5.80656C7.48042 5.61902 7.73477 5.51366 7.99999 5.51366C8.26521 5.51366 8.51956 5.61902 8.7071 5.80656C8.89463 5.99409 8.99999 6.24845 8.99999 6.51366H9.99999C9.99999 5.98323 9.78928 5.47452 9.4142 5.09945C9.03913 4.72438 8.53042 4.51366 7.99999 4.51366C7.46956 4.51366 6.96085 4.72438 6.58578 5.09945C6.2107 5.47452 5.99999 5.98323 5.99999 6.51366V7.65281C5.84849 7.73987 5.72254 7.86523 5.63478 8.01632C5.54702 8.16742 5.50054 8.33893 5.49999 8.51366V11.0137C5.50029 11.2788 5.60575 11.533 5.79322 11.7204C5.98069 11.9079 6.23487 12.0134 6.49999 12.0137H9.49999C9.76511 12.0134 10.0193 11.9079 10.2068 11.7204C10.3942 11.533 10.4997 11.2788 10.5 11.0137V8.51366C10.4997 8.24854 10.3942 7.99436 10.2068 7.80689C10.0193 7.61942 9.76511 7.51397 9.49999 7.51366ZM9.49999 11.0137H6.49999V8.51366H9.49999V11.0137Z" fill="currentColor"/>
<path d="M15.207 9.22071C15.2999 9.12787 15.3736 9.01765 15.4238 8.89633C15.4741 8.77501 15.5 8.64498 15.5 8.51366C15.5 8.38234 15.4741 8.25231 15.4238 8.131C15.3736 8.00968 15.2999 7.89945 15.207 7.80661L12.3136 4.91331L13.7639 3.48191C13.9778 3.53491 14.2032 3.51585 14.4051 3.42767C14.6071 3.3395 14.7743 3.18714 14.8808 2.99423C14.9873 2.80133 15.0272 2.57866 14.9943 2.36078C14.9613 2.14289 14.8574 1.94197 14.6986 1.78918C14.5399 1.63638 14.3351 1.54026 14.1161 1.51572C13.8971 1.49118 13.6761 1.5396 13.4875 1.65346C13.2988 1.76732 13.153 1.94026 13.0726 2.14545C12.9923 2.35064 12.9819 2.57662 13.0431 2.78831L11.6064 4.20606L8.70704 1.30661C8.6142 1.21374 8.50397 1.14007 8.38266 1.08981C8.26134 1.03954 8.13131 1.01367 7.99999 1.01367C7.86867 1.01367 7.73864 1.03954 7.61732 1.08981C7.49601 1.14007 7.38578 1.21374 7.29294 1.30661L4.39964 4.19996L2.96839 2.74951C3.02136 2.53558 3.00225 2.31015 2.91403 2.10819C2.8258 1.90623 2.67339 1.73904 2.48044 1.63254C2.28749 1.52604 2.06478 1.4862 1.84688 1.51919C1.62897 1.55219 1.42804 1.65617 1.27527 1.81502C1.1225 1.97386 1.02641 2.17869 1.00193 2.39771C0.977448 2.61674 1.02593 2.83772 1.13986 3.02638C1.25379 3.21504 1.4268 3.36082 1.63204 3.44111C1.83728 3.52141 2.06329 3.53173 2.27499 3.47046L3.69249 4.90721L0.79294 7.80661C0.700069 7.89945 0.626397 8.00968 0.576134 8.131C0.525871 8.25231 0.5 8.38234 0.5 8.51366C0.5 8.64498 0.525871 8.77501 0.576134 8.89633C0.626397 9.01765 0.700069 9.12787 0.79294 9.22071L3.69239 12.1201L2.27499 13.5569C2.06376 13.496 1.83838 13.5066 1.63376 13.5869C1.42914 13.6672 1.25673 13.8127 1.14323 14.001C1.02974 14.1892 0.981504 14.4096 1.00601 14.6281C1.03051 14.8465 1.12639 15.0508 1.27877 15.2092C1.43115 15.3676 1.63153 15.4713 1.84885 15.5043C2.06617 15.5372 2.2883 15.4976 2.4808 15.3915C2.6733 15.2854 2.82543 15.1187 2.9136 14.9174C3.00177 14.716 3.02106 14.4912 2.96849 14.2778L4.39974 12.8274L7.29304 15.7207C7.38588 15.8136 7.49611 15.8873 7.61742 15.9375C7.73874 15.9878 7.86877 16.0137 8.00009 16.0137C8.13141 16.0137 8.26144 15.9878 8.38276 15.9375C8.50407 15.8873 8.6143 15.8136 8.70714 15.7207L11.6065 12.8213L13.0432 14.239C12.9824 14.4503 12.993 14.6757 13.0733 14.8804C13.1536 15.085 13.2992 15.2574 13.4875 15.3709C13.6758 15.4844 13.8963 15.5326 14.1147 15.5081C14.3332 15.4836 14.5375 15.3876 14.6959 15.2352C14.8543 15.0828 14.958 14.8823 14.9909 14.6649C15.0239 14.4476 14.9842 14.2254 14.878 14.0329C14.7718 13.8404 14.6051 13.6883 14.4037 13.6001C14.2023 13.512 13.9774 13.4928 13.764 13.5454L12.3137 12.114L15.207 9.22071ZM7.99999 15.0137L1.49999 8.51366L7.99999 2.01366L14.5 8.51366L7.99999 15.0137Z" fill="currentColor"/>
</g>
<defs>
<clipPath id="clip0_1961_10545">
<rect width="16" height="16" fill="white" transform="translate(0 0.513672)"/>
</clipPath>
</defs>
</svg>
