<svg viewBox="0 0 16 17" fill="none" xmlns="http://www.w3.org/2000/svg">
<rect width="16" height="16" transform="translate(0 0.513672)" fill="white" fill-opacity="0.01" style="mix-blend-mode:multiply"/>
<path d="M9.00015 2.51367V3.51367H12.2931L8.4489 7.35792C7.64247 6.73137 6.62755 6.43574 5.6108 6.53124C4.59405 6.62674 3.65193 7.10618 2.97628 7.87195C2.30063 8.63771 1.94225 9.63221 1.97413 10.6529C2.006 11.6737 2.42573 12.6439 3.14784 13.366C3.86996 14.0881 4.84016 14.5078 5.86088 14.5397C6.88161 14.5716 7.87611 14.2132 8.64187 13.5375C9.40763 12.8619 9.88708 11.9198 9.98258 10.903C10.0781 9.88627 9.78245 8.87135 9.1559 8.06492L13.0001 4.22072V7.51367H14.0001V2.51367H9.00015ZM6.00015 13.5137C5.4068 13.5137 4.82678 13.3377 4.33344 13.0081C3.84009 12.6784 3.45557 12.2099 3.22851 11.6617C3.00145 11.1135 2.94204 10.5103 3.05779 9.9284C3.17355 9.34646 3.45927 8.81191 3.87883 8.39235C4.29838 7.97279 4.83293 7.68707 5.41488 7.57132C5.99682 7.45556 6.60002 7.51497 7.1482 7.74203C7.69638 7.9691 8.16491 8.35361 8.49456 8.84696C8.8242 9.34031 9.00015 9.92033 9.00015 10.5137C8.99927 11.3091 8.68292 12.0716 8.1205 12.634C7.55808 13.1964 6.79553 13.5128 6.00015 13.5137V13.5137Z" fill="currentColor"/>
</svg>
