<svg viewBox="0 0 16 16" fill="none" xmlns="http://www.w3.org/2000/svg">
<rect width="16" height="16" fill="white" fill-opacity="0.01" style="mix-blend-mode:multiply"/>
<path d="M13 5.00048H11.6192C11.9446 4.51948 12.0708 3.931 11.9713 3.35883C11.8717 2.78666 11.5542 2.2754 11.0854 1.93257C10.6166 1.58974 10.0331 1.44207 9.45772 1.52062C8.88229 1.59917 8.35975 1.89781 8 2.35373C7.63946 1.90007 7.11737 1.60349 6.54307 1.52612C5.96877 1.44874 5.38681 1.59657 4.91906 1.93865C4.4513 2.28072 4.13405 2.79051 4.03372 3.36125C3.9334 3.93198 4.05779 4.5194 4.38085 5.00048H3C2.73489 5.00082 2.48072 5.10628 2.29326 5.29374C2.10579 5.48121 2.00033 5.73537 2 6.00048V8.00048C2.00033 8.2656 2.10579 8.51976 2.29326 8.70723C2.48072 8.89469 2.73489 9.00015 3 9.00048V14.0005C3.00033 14.2656 3.10579 14.5198 3.29326 14.7072C3.48072 14.8947 3.73489 15.0002 4 15.0005H12C12.2651 15.0002 12.5193 14.8947 12.7067 14.7072C12.8942 14.5198 12.9997 14.2656 13 14.0005V9.00048C13.2651 9.00015 13.5193 8.89469 13.7067 8.70723C13.8942 8.51976 13.9997 8.2656 14 8.00048V6.00048C13.9997 5.73537 13.8942 5.48121 13.7067 5.29374C13.5193 5.10628 13.2651 5.00082 13 5.00048V5.00048ZM8.5 3.75048C8.5 3.50326 8.57331 3.26158 8.71066 3.05602C8.84801 2.85046 9.04324 2.69024 9.27165 2.59563C9.50005 2.50103 9.75139 2.47627 9.99386 2.5245C10.2363 2.57273 10.4591 2.69179 10.6339 2.8666C10.8087 3.04142 10.9278 3.26415 10.976 3.50662C11.0242 3.7491 10.9995 4.00043 10.9048 4.22884C10.8102 4.45725 10.65 4.65247 10.4445 4.78982C10.2389 4.92717 9.99723 5.00048 9.75 5.00048H8.5V3.75048ZM6.25 2.50048C6.5814 2.50088 6.89911 2.6327 7.13345 2.86704C7.36778 3.10137 7.4996 3.41909 7.5 3.75048V5.00048H6.25C5.91848 5.00048 5.60054 4.86879 5.36612 4.63437C5.1317 4.39995 5 4.082 5 3.75048C5 3.41896 5.1317 3.10102 5.36612 2.8666C5.60054 2.63218 5.91848 2.50048 6.25 2.50048V2.50048ZM3 6.00048H7.5V8.00048H3V6.00048ZM4 9.00048H7.5V14.0005H4V9.00048ZM12.0006 14.0005H8.5V9.00048H12L12.0006 14.0005ZM8.5 8.00048V6.00048H13L13.0006 8.00048H8.5Z" fill="currentColor"/>
</svg>
