<svg viewBox="0 0 16 17" fill="none" xmlns="http://www.w3.org/2000/svg">
<rect width="16" height="16" transform="translate(0 0.513672)" fill="white" fill-opacity="0.01" style="mix-blend-mode:multiply"/>
<path d="M7.00018 2.51386C7.69242 2.51386 8.36911 2.71913 8.94468 3.10371C9.52025 3.4883 9.96886 4.03492 10.2338 4.67446C10.4987 5.31401 10.568 6.01774 10.4329 6.69667C10.2979 7.37561 9.96454 7.99925 9.47506 8.48873C8.98557 8.97821 8.36193 9.31156 7.683 9.4466C7.00407 9.58165 6.30033 9.51234 5.66079 9.24743C5.02125 8.98253 4.47463 8.53392 4.09004 7.95835C3.70546 7.38278 3.50018 6.70609 3.50018 6.01386C3.50018 5.0856 3.86893 4.19536 4.52531 3.53898C5.18169 2.88261 6.07193 2.51386 7.00018 2.51386ZM7.00018 1.51386C6.11017 1.51386 5.24014 1.77778 4.50012 2.27224C3.7601 2.76671 3.18332 3.46951 2.84273 4.29178C2.50213 5.11405 2.41302 6.01885 2.58665 6.89176C2.76028 7.76468 3.18887 8.5665 3.8182 9.19584C4.44754 9.82517 5.24936 10.2538 6.12228 10.4274C6.99519 10.601 7.89999 10.5119 8.72226 10.1713C9.54453 9.83072 10.2473 9.25394 10.7418 8.51392C11.2363 7.7739 11.5002 6.90387 11.5002 6.01386C11.5002 4.82038 11.0261 3.67579 10.1822 2.83188C9.33825 1.98796 8.19366 1.51386 7.00018 1.51386Z" fill="currentColor"/>
<path d="M14.0002 6.01386C14.0008 5.09465 13.8197 4.18439 13.4675 3.33535C13.1153 2.48632 12.5988 1.71524 11.9476 1.06641L11.2408 1.77321C12.3677 2.89545 13.0026 4.41932 13.006 6.00966C13.0094 7.59999 12.381 9.12657 11.259 10.2536C10.137 11.3807 8.61326 12.016 7.02292 12.0197C5.43258 12.0234 3.90588 11.3953 2.77858 10.2736L2.75953 10.2545L2.05273 10.9613C2.70156 11.6124 3.47264 12.1289 4.32168 12.4812C5.17072 12.8334 6.08098 13.0144 7.00018 13.0139V14.5139H5.00018V15.5139H10.0002V14.5139H8.00018V12.9339C9.66438 12.6927 11.1863 11.8608 12.2879 10.5903C13.3895 9.31983 13.9972 7.69543 14.0002 6.01386Z" fill="currentColor"/>
</svg>
