<svg viewBox="0 0 16 17" fill="none" xmlns="http://www.w3.org/2000/svg">
<rect width="16" height="16" transform="translate(0 0.513672)" fill="white" fill-opacity="0.01" style="mix-blend-mode:multiply"/>
<path d="M4 10.0137H3V9.01367C3.00044 8.61598 3.15861 8.2347 3.43982 7.95349C3.72103 7.67228 4.10231 7.51411 4.5 7.51367H7V8.51367H4.5C4.36744 8.51382 4.24034 8.56654 4.14661 8.66028C4.05287 8.75402 4.00015 8.88111 4 9.01367V10.0137Z" fill="currentColor"/>
<path d="M6 7.01367C5.60444 7.01367 5.21776 6.89637 4.88886 6.67661C4.55996 6.45685 4.30362 6.14449 4.15224 5.77904C4.00087 5.41359 3.96126 5.01145 4.03843 4.62349C4.1156 4.23553 4.30608 3.87916 4.58579 3.59946C4.86549 3.31975 5.22186 3.12927 5.60982 3.0521C5.99778 2.97493 6.39991 3.01454 6.76537 3.16591C7.13082 3.31729 7.44318 3.57363 7.66294 3.90253C7.8827 4.23143 8 4.61811 8 5.01367C7.9994 5.54392 7.7885 6.05228 7.41356 6.42723C7.03861 6.80217 6.53025 7.01308 6 7.01367ZM6 4.01367C5.80222 4.01367 5.60888 4.07232 5.44443 4.1822C5.27998 4.29208 5.15181 4.44826 5.07612 4.63099C5.00043 4.81371 4.98063 5.01478 5.01921 5.20876C5.0578 5.40274 5.15304 5.58093 5.29289 5.72078C5.43275 5.86063 5.61093 5.95587 5.80491 5.99446C5.99889 6.03304 6.19996 6.01324 6.38268 5.93755C6.56541 5.86186 6.72159 5.73369 6.83147 5.56924C6.94135 5.40479 7 5.21145 7 5.01367C6.99972 4.74854 6.89428 4.49435 6.7068 4.30687C6.51932 4.1194 6.26513 4.01395 6 4.01367Z" fill="currentColor"/>
<path d="M10 10.5137C9.60444 10.5137 9.21776 10.3964 8.88886 10.1766C8.55996 9.95685 8.30362 9.64449 8.15224 9.27904C8.00087 8.91359 7.96126 8.51145 8.03843 8.12349C8.1156 7.73553 8.30608 7.37916 8.58579 7.09946C8.86549 6.81975 9.22186 6.62927 9.60982 6.5521C9.99778 6.47493 10.3999 6.51454 10.7654 6.66591C11.1308 6.81729 11.4432 7.07363 11.6629 7.40253C11.8827 7.73143 12 8.11811 12 8.51367C11.9994 9.04392 11.7885 9.55228 11.4136 9.92723C11.0386 10.3022 10.5303 10.5131 10 10.5137ZM10 7.51367C9.80222 7.51367 9.60888 7.57232 9.44443 7.6822C9.27998 7.79208 9.15181 7.94826 9.07612 8.13099C9.00043 8.31371 8.98063 8.51478 9.01921 8.70876C9.0578 8.90274 9.15304 9.08093 9.29289 9.22078C9.43275 9.36063 9.61093 9.45587 9.80491 9.49446C9.99889 9.53304 10.2 9.51324 10.3827 9.43755C10.5654 9.36186 10.7216 9.23369 10.8315 9.06924C10.9414 8.90479 11 8.71145 11 8.51367C10.9997 8.24854 10.8943 7.99435 10.7068 7.80687C10.5193 7.6194 10.2651 7.51395 10 7.51367Z" fill="currentColor"/>
<path d="M13 13.5137H12V12.5137C11.9999 12.3811 11.9471 12.254 11.8534 12.1603C11.7597 12.0665 11.6326 12.0138 11.5 12.0137H8.5C8.36744 12.0138 8.24034 12.0665 8.14661 12.1603C8.05287 12.254 8.00015 12.3811 8 12.5137V13.5137H7V12.5137C7.00044 12.116 7.15861 11.7347 7.43982 11.4535C7.72103 11.1723 8.10231 11.0141 8.5 11.0137H11.5C11.8977 11.0141 12.279 11.1723 12.5602 11.4535C12.8414 11.7347 12.9996 12.116 13 12.5137V13.5137Z" fill="currentColor"/>
<path d="M4 15.5137H2C1.73487 15.5134 1.48068 15.4079 1.2932 15.2205C1.10572 15.033 1.00028 14.7788 1 14.5137V2.51367C1.00028 2.24854 1.10572 1.99435 1.2932 1.80687C1.48068 1.6194 1.73487 1.51395 2 1.51367H4V2.51367H2V14.5137H4V15.5137Z" fill="currentColor"/>
<path d="M14 15.5137H12V14.5137H14V2.51367H12V1.51367H14C14.2651 1.51395 14.5193 1.6194 14.7068 1.80687C14.8943 1.99435 14.9997 2.24854 15 2.51367V14.5137C14.9997 14.7788 14.8943 15.033 14.7068 15.2205C14.5193 15.4079 14.2651 15.5134 14 15.5137Z" fill="currentColor"/>
</svg>
