<svg viewBox="0 0 16 17" fill="none" xmlns="http://www.w3.org/2000/svg">
<rect width="16" height="16" transform="translate(0 0.513672)" fill="white" fill-opacity="0.01" style="mix-blend-mode:multiply"/>
<path d="M5 15.5137H4V14.0137H2V15.5137H1V14.0137C1.0003 13.7485 1.10576 13.4944 1.29323 13.3069C1.4807 13.1194 1.73488 13.014 2 13.0137H4C4.26512 13.014 4.5193 13.1194 4.70677 13.3069C4.89424 13.4944 4.9997 13.7485 5 14.0137V15.5137Z" fill="currentColor"/>
<path d="M15 15.5137H14V14.0137H12V15.5137H11V14.0137C11.0003 13.7485 11.1058 13.4944 11.2932 13.3069C11.4807 13.1194 11.7349 13.014 12 13.0137H14C14.2651 13.014 14.5193 13.1194 14.7068 13.3069C14.8942 13.4944 14.9997 13.7485 15 14.0137V15.5137Z" fill="currentColor"/>
<path d="M10 15.5137H9V14.0137H7V15.5137H6V14.0137C6.0003 13.7485 6.10576 13.4944 6.29323 13.3069C6.4807 13.1194 6.73488 13.014 7 13.0137H9C9.26512 13.014 9.5193 13.1194 9.70677 13.3069C9.89424 13.4944 9.9997 13.7485 10 14.0137V15.5137Z" fill="currentColor"/>
<path d="M8 12.5137C8.55228 12.5137 9 12.066 9 11.5137C9 10.9614 8.55228 10.5137 8 10.5137C7.44772 10.5137 7 10.9614 7 11.5137C7 12.066 7.44772 12.5137 8 12.5137Z" fill="currentColor"/>
<path d="M3 12.5137C3.55228 12.5137 4 12.066 4 11.5137C4 10.9614 3.55228 10.5137 3 10.5137C2.44772 10.5137 2 10.9614 2 11.5137C2 12.066 2.44772 12.5137 3 12.5137Z" fill="currentColor"/>
<path d="M13 12.5137C13.5523 12.5137 14 12.066 14 11.5137C14 10.9614 13.5523 10.5137 13 10.5137C12.4477 10.5137 12 10.9614 12 11.5137C12 12.066 12.4477 12.5137 13 12.5137Z" fill="currentColor"/>
<path d="M10.5 10.5137C11.0523 10.5137 11.5 10.066 11.5 9.51367C11.5 8.96139 11.0523 8.51367 10.5 8.51367C9.94772 8.51367 9.5 8.96139 9.5 9.51367C9.5 10.066 9.94772 10.5137 10.5 10.5137Z" fill="currentColor"/>
<path d="M5.5 10.5137C6.05228 10.5137 6.5 10.066 6.5 9.51367C6.5 8.96139 6.05228 8.51367 5.5 8.51367C4.94772 8.51367 4.5 8.96139 4.5 9.51367C4.5 10.066 4.94772 10.5137 5.5 10.5137Z" fill="currentColor"/>
<path d="M13 7.51367H3C2.73488 7.51337 2.4807 7.40791 2.29323 7.22044C2.10576 7.03297 2.0003 6.77879 2 6.51367V2.51367C2.0003 2.24855 2.10576 1.99437 2.29323 1.8069C2.4807 1.61943 2.73488 1.51398 3 1.51367H13C13.2651 1.51398 13.5193 1.61943 13.7068 1.8069C13.8942 1.99437 13.9997 2.24855 14 2.51367V6.51367C13.9997 6.77879 13.8942 7.03297 13.7068 7.22044C13.5193 7.40791 13.2651 7.51337 13 7.51367ZM3 2.51367V6.51367H13V2.51367H3Z" fill="currentColor"/>
</svg>
