<svg viewBox="0 0 16 17" fill="none" xmlns="http://www.w3.org/2000/svg">
<rect width="16" height="16" transform="translate(0 0.513672)" fill="white" fill-opacity="0.01" style="mix-blend-mode:multiply"/>
<path d="M11 12.5137H5C4.73487 12.5134 4.48068 12.4079 4.2932 12.2205C4.10572 12.033 4.00028 11.7788 4 11.5137V5.51367C4.00028 5.24854 4.10572 4.99435 4.2932 4.80687C4.48068 4.6194 4.73487 4.51395 5 4.51367H11C11.2651 4.51395 11.5193 4.6194 11.7068 4.80687C11.8943 4.99435 11.9997 5.24854 12 5.51367V11.5137C11.9997 11.7788 11.8943 12.033 11.7068 12.2205C11.5193 12.4079 11.2651 12.5134 11 12.5137ZM5 5.51367V11.5137H11V5.51367H5Z" fill="currentColor"/>
<path d="M4 15.5137H2C1.73487 15.5134 1.48068 15.4079 1.2932 15.2205C1.10572 15.033 1.00028 14.7788 1 14.5137V2.51367C1.00028 2.24854 1.10572 1.99435 1.2932 1.80687C1.48068 1.6194 1.73487 1.51395 2 1.51367H4V2.51367H2V14.5137H4V15.5137Z" fill="currentColor"/>
<path d="M14 15.5137H12V14.5137H14V2.51367H12V1.51367H14C14.2651 1.51395 14.5193 1.6194 14.7068 1.80687C14.8943 1.99435 14.9997 2.24854 15 2.51367V14.5137C14.9997 14.7788 14.8943 15.033 14.7068 15.2205C14.5193 15.4079 14.2651 15.5134 14 15.5137Z" fill="currentColor"/>
</svg>
