<svg viewBox="0 0 16 17" fill="none" xmlns="http://www.w3.org/2000/svg">
<rect width="16" height="16" transform="translate(0 0.513672)" fill="white" fill-opacity="0.01" style="mix-blend-mode:multiply"/>
<path d="M15.5 15.5137H14.5V14.0137C14.5 13.6158 14.342 13.2343 14.0607 12.953C13.7794 12.6717 13.3978 12.5137 13 12.5137H11C10.6022 12.5137 10.2206 12.6717 9.93934 12.953C9.65804 13.2343 9.5 13.6158 9.5 14.0137V15.5137H8.5V14.0137C8.5 13.3506 8.76339 12.7147 9.23223 12.2459C9.70107 11.7771 10.337 11.5137 11 11.5137H13C13.663 11.5137 14.2989 11.7771 14.7678 12.2459C15.2366 12.7147 15.5 13.3506 15.5 14.0137V15.5137Z" fill="currentColor"/>
<path d="M12 6.51367C12.2967 6.51367 12.5867 6.60165 12.8334 6.76647C13.08 6.93129 13.2723 7.16556 13.3858 7.43965C13.4994 7.71374 13.5291 8.01534 13.4712 8.30631C13.4133 8.59728 13.2704 8.86455 13.0607 9.07433C12.8509 9.28411 12.5836 9.42697 12.2926 9.48485C12.0017 9.54273 11.7001 9.51302 11.426 9.39949C11.1519 9.28596 10.9176 9.0937 10.7528 8.84703C10.588 8.60035 10.5 8.31034 10.5 8.01367C10.5 7.61585 10.658 7.23432 10.9393 6.95301C11.2206 6.67171 11.6022 6.51367 12 6.51367ZM12 5.51367C11.5055 5.51367 11.0222 5.66029 10.6111 5.935C10.2 6.2097 9.87952 6.60015 9.6903 7.05696C9.50108 7.51378 9.45157 8.01645 9.54804 8.5014C9.6445 8.98635 9.8826 9.43181 10.2322 9.78144C10.5819 10.1311 11.0273 10.3692 11.5123 10.4656C11.9972 10.5621 12.4999 10.5126 12.9567 10.3234C13.4135 10.1342 13.804 9.81372 14.0787 9.4026C14.3534 8.99147 14.5 8.50813 14.5 8.01367C14.5 7.35063 14.2366 6.71475 13.7678 6.2459C13.2989 5.77706 12.663 5.51367 12 5.51367Z" fill="currentColor"/>
<path d="M7.5 11.5137H6.5V10.0137C6.5 9.61585 6.34196 9.23432 6.06066 8.95301C5.77936 8.67171 5.39782 8.51367 5 8.51367H3C2.60218 8.51367 2.22064 8.67171 1.93934 8.95301C1.65804 9.23432 1.5 9.61585 1.5 10.0137V11.5137H0.5V10.0137C0.5 9.35063 0.763392 8.71475 1.23223 8.2459C1.70107 7.77706 2.33696 7.51367 3 7.51367H5C5.66304 7.51367 6.29893 7.77706 6.76777 8.2459C7.23661 8.71475 7.5 9.35063 7.5 10.0137V11.5137Z" fill="currentColor"/>
<path d="M4 2.51367C4.29667 2.51367 4.58668 2.60165 4.83336 2.76647C5.08003 2.93129 5.27229 3.16556 5.38582 3.43965C5.49935 3.71374 5.52906 4.01534 5.47118 4.30631C5.4133 4.59728 5.27044 4.86455 5.06066 5.07433C4.85088 5.28411 4.58361 5.42697 4.29264 5.48485C4.00166 5.54273 3.70006 5.51302 3.42597 5.39949C3.15189 5.28596 2.91762 5.0937 2.7528 4.84703C2.58797 4.60035 2.5 4.31034 2.5 4.01367C2.5 3.61585 2.65804 3.23432 2.93934 2.95301C3.22064 2.67171 3.60218 2.51367 4 2.51367ZM4 1.51367C3.50555 1.51367 3.0222 1.66029 2.61107 1.935C2.19995 2.2097 1.87952 2.60015 1.6903 3.05696C1.50108 3.51378 1.45157 4.01645 1.54804 4.5014C1.6445 4.98635 1.8826 5.43181 2.23223 5.78144C2.58186 6.13107 3.02732 6.36917 3.51227 6.46564C3.99723 6.5621 4.49989 6.51259 4.95671 6.32337C5.41352 6.13415 5.80397 5.81372 6.07867 5.4026C6.35338 4.99147 6.5 4.50813 6.5 4.01367C6.5 3.35063 6.23661 2.71475 5.76777 2.2459C5.29893 1.77706 4.66304 1.51367 4 1.51367Z" fill="currentColor"/>
</svg>
