<svg viewBox="0 0 16 17" fill="none" xmlns="http://www.w3.org/2000/svg">
<rect width="16" height="16" transform="translate(0 0.513672)" fill="white" fill-opacity="0.01" style="mix-blend-mode:multiply"/>
<path d="M15 12.5137V11.5137H13.9494C13.885 11.2007 13.7607 10.9031 13.5835 10.6372L14.3285 9.89222L13.6215 9.18522L12.8765 9.93022C12.6106 9.75297 12.313 9.6287 12 9.56422V8.51367H11V9.56422C10.687 9.62869 10.3894 9.75295 10.1236 9.93017L9.37855 9.18517L8.67155 9.89217L9.41655 10.6372C9.2393 10.9031 9.11503 11.2007 9.05055 11.5137H8V12.5137H9.05055C9.11502 12.8266 9.23928 13.1242 9.4165 13.3901L8.6715 14.1351L9.3785 14.8421L10.1235 14.0971C10.3894 14.2744 10.687 14.3986 11 14.4631V15.5137H12V14.4631C12.313 14.3986 12.6106 14.2744 12.8764 14.0972L13.6215 14.8422L14.3285 14.1352L13.5835 13.3902C13.7607 13.1243 13.885 12.8267 13.9494 12.5137H15ZM11.5 13.5137C11.2033 13.5137 10.9133 13.4257 10.6666 13.2609C10.42 13.0961 10.2277 12.8618 10.1142 12.5877C10.0006 12.3136 9.97094 12.012 10.0288 11.721C10.0867 11.4301 10.2296 11.1628 10.4393 10.953C10.6491 10.7432 10.9164 10.6004 11.2074 10.5425C11.4983 10.4846 11.7999 10.5143 12.074 10.6279C12.3481 10.7414 12.5824 10.9336 12.7472 11.1803C12.912 11.427 13 11.717 13 12.0137C12.9996 12.4114 12.8414 12.7926 12.5602 13.0738C12.279 13.3551 11.8977 13.5132 11.5 13.5137Z" fill="currentColor"/>
<path d="M14 2.51367H2C1.73486 2.51394 1.48066 2.61938 1.29319 2.80686C1.10571 2.99434 1.00026 3.24854 1 3.51367V13.5137C1.0003 13.7788 1.10576 14.033 1.29323 14.2204C1.4807 14.4079 1.73488 14.5134 2 14.5137H7V13.5137H2V6.51367H14V8.01367H15V3.51367C14.9997 3.24855 14.8942 2.99437 14.7068 2.8069C14.5193 2.61943 14.2651 2.51398 14 2.51367ZM14 5.51367H2V3.51367H14V5.51367Z" fill="currentColor"/>
<path d="M10 5.01367C10.2761 5.01367 10.5 4.78981 10.5 4.51367C10.5 4.23753 10.2761 4.01367 10 4.01367C9.72386 4.01367 9.5 4.23753 9.5 4.51367C9.5 4.78981 9.72386 5.01367 10 5.01367Z" fill="currentColor"/>
<path d="M11.5 5.01367C11.7761 5.01367 12 4.78981 12 4.51367C12 4.23753 11.7761 4.01367 11.5 4.01367C11.2239 4.01367 11 4.23753 11 4.51367C11 4.78981 11.2239 5.01367 11.5 5.01367Z" fill="currentColor"/>
<path d="M13 5.01367C13.2761 5.01367 13.5 4.78981 13.5 4.51367C13.5 4.23753 13.2761 4.01367 13 4.01367C12.7239 4.01367 12.5 4.23753 12.5 4.51367C12.5 4.78981 12.7239 5.01367 13 5.01367Z" fill="currentColor"/>
</svg>
