<svg viewBox="0 0 16 17" fill="none" xmlns="http://www.w3.org/2000/svg">
<g clip-path="url(#clip0_1961_11584)">
<rect width="16" height="16" transform="translate(0 0.513672)" fill="white" fill-opacity="0.01" style="mix-blend-mode:multiply"/>
<path d="M10.7498 16.0137C11.1641 16.0137 11.4998 15.6779 11.4998 15.2637C11.4998 14.8495 11.1641 14.5137 10.7498 14.5137C10.3356 14.5137 9.99984 14.8495 9.99984 15.2637C9.99984 15.6779 10.3356 16.0137 10.7498 16.0137Z" fill="currentColor"/>
<path d="M12.2498 14.0137C12.6641 14.0137 12.9998 13.6779 12.9998 13.2637C12.9998 12.8495 12.6641 12.5137 12.2498 12.5137C11.8356 12.5137 11.4998 12.8495 11.4998 13.2637C11.4998 13.6779 11.8356 14.0137 12.2498 14.0137Z" fill="currentColor"/>
<path d="M3.75009 14.0137C4.1643 14.0137 4.50009 13.6779 4.50009 13.2637C4.50009 12.8495 4.1643 12.5137 3.75009 12.5137C3.33587 12.5137 3.00009 12.8495 3.00009 13.2637C3.00009 13.6779 3.33587 14.0137 3.75009 14.0137Z" fill="currentColor"/>
<path d="M2.24984 16.0137C2.66405 16.0137 2.99984 15.6779 2.99984 15.2637C2.99984 14.8495 2.66405 14.5137 2.24984 14.5137C1.83562 14.5137 1.49984 14.8495 1.49984 15.2637C1.49984 15.6779 1.83562 16.0137 2.24984 16.0137Z" fill="currentColor"/>
<path d="M5.24984 16.0137C5.66405 16.0137 5.99984 15.6779 5.99984 15.2637C5.99984 14.8495 5.66405 14.5137 5.24984 14.5137C4.83562 14.5137 4.49984 14.8495 4.49984 15.2637C4.49984 15.6779 4.83562 16.0137 5.24984 16.0137Z" fill="currentColor"/>
<path d="M7.93409 15.7617L7.06609 15.2657L8.63809 12.5137H5.63859L8.06609 8.26572L8.93409 8.76172L7.36159 11.5137H10.3621L7.93409 15.7617Z" fill="currentColor"/>
<path d="M11.7501 11.5137H11.5001V10.5137H11.7501C12.3312 10.514 12.8899 10.2892 13.3089 9.88661C13.728 9.48401 13.9749 8.93481 13.998 8.35414C14.021 7.77348 13.8184 7.20643 13.4325 6.77189C13.0467 6.33734 12.5076 6.06904 11.9283 6.02322L11.5206 5.99127L11.4713 5.58527C11.3675 4.73781 10.9572 3.95762 10.3178 3.39179C9.67843 2.82596 8.85413 2.5136 8.00034 2.5136C7.14654 2.5136 6.32224 2.82596 5.68287 3.39179C5.04349 3.95762 4.63321 4.73781 4.52939 5.58527L4.47984 5.99127L4.07209 6.02322C3.49279 6.06904 2.95372 6.33733 2.56787 6.77185C2.18203 7.20637 1.97938 7.77339 2.00239 8.35404C2.02541 8.93469 2.27231 9.48389 2.69134 9.88651C3.11036 10.2891 3.66898 10.5139 4.25009 10.5137H4.50009V11.5137H4.25009C3.4448 11.5141 2.66808 11.2153 2.07059 10.6754C1.4731 10.1355 1.09744 9.39292 1.01647 8.59171C0.935501 7.7905 1.155 6.98778 1.63238 6.33924C2.10976 5.69071 2.81101 5.24259 3.60009 5.08182C3.81315 4.07268 4.3666 3.16744 5.1677 2.51781C5.9688 1.86819 6.96885 1.51367 8.00024 1.51367C9.03163 1.51367 10.0317 1.86819 10.8328 2.51781C11.6339 3.16744 12.1873 4.07268 12.4004 5.08182C13.1894 5.24271 13.8905 5.69088 14.3678 6.33942C14.8451 6.98797 15.0645 7.79066 14.9835 8.59182C14.9025 9.39298 14.5269 10.1355 13.9294 10.6754C13.332 11.2153 12.5553 11.514 11.7501 11.5137Z" fill="currentColor"/>
</g>
<defs>
<clipPath id="clip0_1961_11584">
<rect width="16" height="16" fill="white" transform="translate(0 0.513672)"/>
</clipPath>
</defs>
</svg>
