<svg viewBox="0 0 16 17" fill="none" xmlns="http://www.w3.org/2000/svg">
<rect width="16" height="16" transform="translate(0 0.513672)" fill="white" fill-opacity="0.01" style="mix-blend-mode:multiply"/>
<path d="M13.5 9.0134C13.4981 10.3847 12.9845 11.706 12.0597 12.7185C11.1349 13.7311 9.86553 14.3621 8.5 14.488V7.5134H11.5V6.5134H8.5V5.44235C8.97133 5.32065 9.38209 5.03124 9.6553 4.62835C9.92851 4.22546 10.0454 3.73676 9.98406 3.25385C9.92272 2.77094 9.68737 2.32698 9.32212 2.00519C8.95686 1.6834 8.48679 1.50586 8 1.50586C7.51321 1.50586 7.04314 1.6834 6.67788 2.00519C6.31263 2.32698 6.07728 2.77094 6.01594 3.25385C5.9546 3.73676 6.07149 4.22546 6.3447 4.62835C6.61791 5.03124 7.02867 5.32065 7.5 5.44235V6.5134H4.5V7.5134H7.5V14.488C6.13447 14.3621 4.86508 13.7311 3.94029 12.7185C3.0155 11.706 2.50189 10.3847 2.5 9.0134H1.5C1.5 10.7373 2.18482 12.3906 3.40381 13.6096C4.62279 14.8286 6.27609 15.5134 8 15.5134C9.72391 15.5134 11.3772 14.8286 12.5962 13.6096C13.8152 12.3906 14.5 10.7373 14.5 9.0134H13.5ZM7 3.5134C7 3.31562 7.05865 3.12228 7.16853 2.95783C7.27841 2.79338 7.43459 2.66521 7.61732 2.58952C7.80004 2.51383 8.00111 2.49403 8.19509 2.53262C8.38907 2.5712 8.56725 2.66644 8.70711 2.80629C8.84696 2.94615 8.9422 3.12433 8.98079 3.31831C9.01937 3.51229 8.99957 3.71336 8.92388 3.89608C8.84819 4.07881 8.72002 4.23499 8.55557 4.34487C8.39112 4.45475 8.19778 4.5134 8 4.5134C7.73488 4.5131 7.4807 4.40764 7.29323 4.22017C7.10576 4.0327 7.0003 3.77852 7 3.5134V3.5134Z" fill="currentColor"/>
</svg>
