<svg viewBox="0 0 16 17" fill="none" xmlns="http://www.w3.org/2000/svg">
<rect width="16" height="16" transform="translate(0 0.513672)" fill="white" fill-opacity="0.01" style="mix-blend-mode:multiply"/>
<path d="M10.75 5.01367C11.1642 5.01367 11.5 4.67789 11.5 4.26367C11.5 3.84946 11.1642 3.51367 10.75 3.51367C10.3358 3.51367 10 3.84946 10 4.26367C10 4.67789 10.3358 5.01367 10.75 5.01367Z" fill="currentColor"/>
<path d="M7.20715 10.5137H4.5V7.80652L7.515 4.79152C7.50518 4.69923 7.50018 4.60649 7.5 4.51367C7.5 3.92033 7.67595 3.34031 8.00559 2.84696C8.33524 2.35362 8.80377 1.9691 9.35195 1.74203C9.90013 1.51497 10.5033 1.45556 11.0853 1.57132C11.6672 1.68707 12.2018 1.9728 12.6213 2.39235C13.0409 2.81191 13.3266 3.34646 13.4424 3.9284C13.5581 4.51035 13.4987 5.11355 13.2716 5.66172C13.0446 6.2099 12.6601 6.67844 12.1667 7.00808C11.6734 7.33773 11.0933 7.51367 10.5 7.51367C10.4072 7.51349 10.3144 7.50849 10.222 7.49867L7.20715 10.5137ZM5.5 9.51367H6.79285L9.87815 6.42822L10.1369 6.47607C10.2565 6.49984 10.378 6.51242 10.5 6.51367C10.9183 6.51888 11.3279 6.39443 11.6726 6.15743C12.0174 5.92043 12.2802 5.58251 12.4251 5.19009C12.5701 4.79766 12.5899 4.37 12.4819 3.96584C12.374 3.56169 12.1436 3.20087 11.8223 2.93297C11.501 2.66506 11.1046 2.50321 10.6877 2.46966C10.2707 2.4361 9.85355 2.53248 9.49356 2.74556C9.13357 2.95864 8.84839 3.27796 8.6772 3.65965C8.50601 4.04134 8.45721 4.46668 8.5375 4.87722L8.5851 5.13552L5.5 8.22082V9.51367Z" fill="currentColor"/>
<path d="M14 10.5137H9.5V11.5137H14V14.5137H2V11.5137H3V10.5137H2C1.73488 10.514 1.48071 10.6194 1.29324 10.8069C1.10578 10.9944 1.00032 11.2486 1 11.5137V14.5137C1.00032 14.7788 1.10578 15.033 1.29324 15.2204C1.48071 15.4079 1.73488 15.5134 2 15.5137H14C14.2651 15.5134 14.5193 15.4079 14.7068 15.2204C14.8942 15.033 14.9997 14.7788 15 14.5137V11.5137C14.9997 11.2486 14.8942 10.9944 14.7068 10.8069C14.5193 10.6194 14.2651 10.514 14 10.5137Z" fill="currentColor"/>
<path d="M3.5 13.5137C3.77614 13.5137 4 13.2898 4 13.0137C4 12.7375 3.77614 12.5137 3.5 12.5137C3.22386 12.5137 3 12.7375 3 13.0137C3 13.2898 3.22386 13.5137 3.5 13.5137Z" fill="currentColor"/>
</svg>
