<svg viewBox="0 0 16 17" fill="none" xmlns="http://www.w3.org/2000/svg">
<rect width="16" height="16" transform="translate(0 0.513672)" fill="white" fill-opacity="0.01" style="mix-blend-mode:multiply"/>
<path d="M14.5001 11.5137H6.50009C6.36748 11.5137 6.2403 11.5663 6.14653 11.6601C6.05276 11.7539 6.00009 11.8811 6.00009 12.0137C6.00009 12.1463 6.05276 12.2735 6.14653 12.3672C6.2403 12.461 6.36748 12.5137 6.50009 12.5137H11.3387C10.3142 13.4731 8.96421 14.0086 7.56064 14.0125C7.49144 14.0125 7.42149 14.0149 7.35179 14.0125C6.05612 13.9666 4.81744 13.4684 3.85089 12.6043C2.88433 11.7402 2.25095 10.5649 2.06076 9.28247C1.87057 8.00002 2.13557 6.69147 2.80975 5.58407C3.48393 4.47667 4.5247 3.64039 5.75129 3.22047C5.50175 4.30322 5.49342 5.4276 5.72689 6.51392H6.74974C6.43671 5.25247 6.50456 3.92653 6.94474 2.70362C6.97385 2.62822 6.98453 2.54695 6.97589 2.46658C6.96725 2.38621 6.93954 2.30907 6.89507 2.24158C6.85059 2.17408 6.79064 2.11819 6.7202 2.07855C6.64975 2.03891 6.57086 2.01666 6.49009 2.01367C6.46081 2.01367 6.4316 2.01628 6.40279 2.02147C4.81068 2.30426 3.37952 3.16617 2.38496 4.44118C1.39041 5.71619 0.902817 7.31412 1.0161 8.92717C1.12938 10.5402 1.83552 12.0543 2.99851 13.1778C4.1615 14.3013 5.69908 14.9547 7.31509 15.0122C7.39709 15.0154 7.47914 15.0122 7.56044 15.0122C8.54875 15.0117 9.52402 14.7865 10.4125 14.3536C11.301 13.9208 12.0795 13.2916 12.689 12.5137H14.5001C14.6327 12.5137 14.7599 12.461 14.8536 12.3672C14.9474 12.2735 15.0001 12.1463 15.0001 12.0137C15.0001 11.8811 14.9474 11.7539 14.8536 11.6601C14.7599 11.5663 14.6327 11.5137 14.5001 11.5137Z" fill="currentColor"/>
<path d="M13.5001 10.5137H8.50009C8.36748 10.5137 8.2403 10.461 8.14653 10.3672C8.05276 10.2735 8.00009 10.1463 8.00009 10.0137C8.00009 9.88106 8.05276 9.75389 8.14653 9.66012C8.2403 9.56635 8.36748 9.51367 8.50009 9.51367H13.5001C13.6327 9.51367 13.7599 9.56635 13.8536 9.66012C13.9474 9.75389 14.0001 9.88106 14.0001 10.0137C14.0001 10.1463 13.9474 10.2735 13.8536 10.3672C13.7599 10.461 13.6327 10.5137 13.5001 10.5137Z" fill="currentColor"/>
<path d="M12.5001 8.51367H6.50009C6.36748 8.51367 6.2403 8.46099 6.14653 8.36723C6.05276 8.27346 6.00009 8.14628 6.00009 8.01367C6.00009 7.88106 6.05276 7.75389 6.14653 7.66012C6.2403 7.56635 6.36748 7.51367 6.50009 7.51367H12.5001C12.6327 7.51367 12.7599 7.56635 12.8536 7.66012C12.9474 7.75389 13.0001 7.88106 13.0001 8.01367C13.0001 8.14628 12.9474 8.27346 12.8536 8.36723C12.7599 8.46099 12.6327 8.51367 12.5001 8.51367Z" fill="currentColor"/>
</svg>
