<svg viewBox="0 0 16 17" fill="none" xmlns="http://www.w3.org/2000/svg">
<rect width="16" height="16" transform="translate(0 0.513672)" fill="white" fill-opacity="0.01" style="mix-blend-mode:multiply"/>
<path d="M9.5 14.5137H1.5C1.36739 14.5137 1.24021 14.461 1.14645 14.3672C1.05268 14.2735 1 14.1463 1 14.0137C1 13.8811 1.05268 13.7539 1.14645 13.6601C1.24021 13.5663 1.36739 13.5137 1.5 13.5137H9.5C9.63261 13.5137 9.75979 13.5663 9.85355 13.6601C9.94732 13.7539 10 13.8811 10 14.0137C10 14.1463 9.94732 14.2735 9.85355 14.3672C9.75979 14.461 9.63261 14.5137 9.5 14.5137Z" fill="currentColor"/>
<path d="M7.5 10.5137H1.5C1.36739 10.5137 1.24021 10.461 1.14645 10.3672C1.05268 10.2735 1 10.1463 1 10.0137C1 9.88106 1.05268 9.75389 1.14645 9.66012C1.24021 9.56635 1.36739 9.51367 1.5 9.51367H7.5C7.63261 9.51367 7.75979 9.56635 7.85355 9.66012C7.94732 9.75389 8 9.88106 8 10.0137C8 10.1463 7.94732 10.2735 7.85355 10.3672C7.75979 10.461 7.63261 10.5137 7.5 10.5137Z" fill="currentColor"/>
<path d="M14.3107 13.1172L12.8965 11.703L12.1893 12.4101L13.6036 13.8244L14.3107 13.1172Z" fill="currentColor"/>
<path d="M16 8.01367H14V9.01367H16V8.01367Z" fill="currentColor"/>
<path d="M13.6036 3.203L12.1894 4.61721L12.8965 5.32432L14.3107 3.9101L13.6036 3.203Z" fill="currentColor"/>
<path d="M9.5 1.51367H8.5V3.51367H9.5V1.51367Z" fill="currentColor"/>
<path d="M3.68933 3.91011L5.10355 5.32432L5.81065 4.61722L4.39644 3.203L3.68933 3.91011Z" fill="currentColor"/>
<path d="M9 4.51367C7.93951 4.51489 6.9228 4.93671 6.17292 5.68659C5.42304 6.43647 5.00122 7.45318 5 8.51367H6C6 7.92033 6.17595 7.34031 6.50559 6.84696C6.83524 6.35361 7.30377 5.9691 7.85195 5.74203C8.40013 5.51497 9.00333 5.45556 9.58527 5.57132C10.1672 5.68707 10.7018 5.97279 11.1213 6.39235C11.5409 6.81191 11.8266 7.34646 11.9424 7.9284C12.0581 8.51034 11.9987 9.11354 11.7716 9.66172C11.5446 10.2099 11.1601 10.6784 10.6667 11.0081C10.1734 11.3377 9.59334 11.5137 9 11.5137H3.5C3.36739 11.5137 3.24021 11.5663 3.14645 11.6601C3.05268 11.7539 3 11.8811 3 12.0137C3 12.1463 3.05268 12.2735 3.14645 12.3672C3.24021 12.461 3.36739 12.5137 3.5 12.5137H9C10.0609 12.5137 11.0783 12.0922 11.8284 11.3421C12.5786 10.592 13 9.57454 13 8.51367C13 7.45281 12.5786 6.43539 11.8284 5.68524C11.0783 4.9351 10.0609 4.51367 9 4.51367Z" fill="currentColor"/>
</svg>
