<svg viewBox="0 0 16 17" fill="none" xmlns="http://www.w3.org/2000/svg">
<rect width="16" height="16" transform="translate(0 0.513672)" fill="white" fill-opacity="0.01" style="mix-blend-mode:multiply"/>
<path d="M15 4.51367V3.51367H4V4.51367H9V6.51367H2V4.51367H1V8.51367H2V7.51367H5.1096L6.13625 11.6201C6.27088 12.1613 6.58286 12.6418 7.02242 12.985C7.46199 13.3282 8.00382 13.5143 8.5615 13.5137H13C13.5303 13.5131 14.0386 13.3022 14.4136 12.9272C14.7885 12.5523 14.9994 12.0439 15 11.5137V10.1948C14.9999 9.96093 14.9178 9.73448 14.7681 9.55482L12.5342 6.87367C12.4404 6.76092 12.323 6.67021 12.1902 6.60799C12.0574 6.54577 11.9125 6.51357 11.7659 6.51367H10V4.51367H15ZM13 12.5137H8.5615C8.22689 12.5141 7.90179 12.4024 7.63807 12.1964C7.37436 11.9905 7.18721 11.7021 7.1065 11.3774L6.1404 7.51367H9V10.5137H14V11.5137C13.9997 11.7788 13.8942 12.033 13.7068 12.2204C13.5193 12.4079 13.2651 12.5134 13 12.5137V12.5137ZM11.7659 7.51367L13.4325 9.51367H10V7.51367H11.7659Z" fill="currentColor"/>
</svg>
