<svg viewBox="0 0 16 17" fill="none" xmlns="http://www.w3.org/2000/svg">
<rect width="16" height="16" transform="translate(0 0.513672)" fill="white" fill-opacity="0.01" style="mix-blend-mode:multiply"/>
<path d="M10.5 5.51367H8.5V3.51367H7.5V5.51367H5.5V6.51367H7.5V8.51367H8.5V6.51367H10.5V5.51367Z" fill="currentColor"/>
<path d="M14 5.51367H13V2.51367C12.9997 2.24855 12.8942 1.99437 12.7068 1.8069C12.5193 1.61943 12.2651 1.51398 12 1.51367H4C3.73488 1.51398 3.4807 1.61943 3.29323 1.8069C3.10576 1.99437 3.0003 2.24855 3 2.51367V5.51367H2C1.73488 5.51398 1.4807 5.61943 1.29323 5.8069C1.10576 5.99437 1.0003 6.24855 1 6.51367V15.5137H15V6.51367C14.9997 6.24855 14.8942 5.99437 14.7068 5.8069C14.5193 5.61943 14.2651 5.51398 14 5.51367ZM7 14.5137V11.5137H9V14.5137H7ZM10 14.5137V11.0137C10 10.8811 9.94732 10.7539 9.85355 10.6601C9.75979 10.5663 9.63261 10.5137 9.5 10.5137H6.5C6.36739 10.5137 6.24021 10.5663 6.14645 10.6601C6.05268 10.7539 6 10.8811 6 11.0137V14.5137H2V6.51367H4V2.51367H12V6.51367H14V14.5137H10Z" fill="currentColor"/>
</svg>
