<svg viewBox="0 0 16 16" fill="none" xmlns="http://www.w3.org/2000/svg">
<rect width="16" height="16" fill="white" fill-opacity="0.01" style="mix-blend-mode:multiply"/>
<path d="M8.50022 12.092V10.0002H7.50022V12.092C7.16661 12.2099 6.88544 12.442 6.7064 12.7472C6.52736 13.0524 6.46198 13.4111 6.52182 13.7598C6.58166 14.1086 6.76285 14.4249 7.03339 14.653C7.30392 14.8811 7.64637 15.0062 8.00022 15.0062C8.35406 15.0062 8.69651 14.8811 8.96705 14.653C9.23758 14.4249 9.41878 14.1086 9.47861 13.7598C9.53845 13.4111 9.47307 13.0524 9.29403 12.7472C9.11499 12.442 8.83382 12.2099 8.50022 12.092Z" fill="currentColor"/>
<path d="M13.0002 6.00015C12.558 6.00149 12.1288 6.14948 11.7797 6.42092C11.4307 6.69236 11.1815 7.07193 11.0713 7.50015H4.92917C4.80747 7.02882 4.51805 6.61806 4.11516 6.34485C3.71227 6.07164 3.22357 5.95475 2.74067 6.01609C2.25776 6.07743 1.8138 6.31278 1.49201 6.67803C1.17021 7.04329 0.992676 7.51336 0.992676 8.00015C0.992676 8.48694 1.17021 8.95701 1.49201 9.32227C1.8138 9.68752 2.25776 9.92287 2.74067 9.98421C3.22357 10.0455 3.71227 9.92866 4.11516 9.65545C4.51805 9.38225 4.80747 8.97148 4.92917 8.50015H11.0713C11.1654 8.8615 11.359 9.18922 11.63 9.44608C11.901 9.70295 12.2386 9.87866 12.6045 9.95328C12.9704 10.0279 13.3499 9.99842 13.6998 9.8682C14.0498 9.73797 14.3562 9.51223 14.5843 9.21659C14.8124 8.92095 14.9531 8.56728 14.9903 8.19572C15.0275 7.82417 14.9597 7.44964 14.7947 7.11465C14.6298 6.77967 14.3741 6.49766 14.0569 6.30065C13.7397 6.10365 13.3736 5.99954 13.0002 6.00015ZM3.00022 9.00015C2.80244 9.00015 2.6091 8.9415 2.44465 8.83162C2.2802 8.72174 2.15203 8.56556 2.07634 8.38283C2.00065 8.20011 1.98085 7.99904 2.01943 7.80506C2.05802 7.61108 2.15326 7.4329 2.29311 7.29304C2.43296 7.15319 2.61115 7.05795 2.80513 7.01937C2.99911 6.98078 3.20017 7.00058 3.3829 7.07627C3.56563 7.15196 3.72181 7.28013 3.83169 7.44458C3.94157 7.60903 4.00022 7.80237 4.00022 8.00015C3.99989 8.26527 3.89442 8.51943 3.70696 8.70689C3.51949 8.89436 3.26533 8.99982 3.00022 9.00015ZM13.0002 9.00015C12.8024 9.00015 12.6091 8.9415 12.4446 8.83162C12.2802 8.72174 12.152 8.56556 12.0763 8.38283C12.0007 8.20011 11.9808 7.99904 12.0194 7.80506C12.058 7.61108 12.1533 7.4329 12.2931 7.29304C12.433 7.15319 12.6111 7.05795 12.8051 7.01937C12.9991 6.98078 13.2002 7.00058 13.3829 7.07627C13.5656 7.15196 13.7218 7.28013 13.8317 7.44458C13.9416 7.60903 14.0002 7.80237 14.0002 8.00015C13.9999 8.26527 13.8944 8.51943 13.707 8.70689C13.5195 8.89436 13.2653 8.99982 13.0002 9.00015Z" fill="currentColor"/>
<path d="M9.50022 2.50015C9.50132 2.2249 9.42666 1.95465 9.28442 1.719C9.14218 1.48335 8.93785 1.29138 8.69378 1.16411C8.44972 1.03684 8.17534 0.979183 7.9007 0.997447C7.62605 1.01571 7.36173 1.10919 7.13666 1.26766C6.9116 1.42613 6.73448 1.64346 6.6247 1.89588C6.51492 2.14829 6.47671 2.42604 6.51425 2.69872C6.55179 2.9714 6.66363 3.2285 6.83754 3.44185C7.01145 3.65521 7.24071 3.8166 7.50022 3.90835V6.00015H8.50022V3.90835C8.79204 3.80582 9.0449 3.61535 9.22399 3.36316C9.40308 3.11097 9.49958 2.80946 9.50022 2.50015Z" fill="currentColor"/>
</svg>
