<svg viewBox="0 0 16 17" fill="none" xmlns="http://www.w3.org/2000/svg">
<rect width="16" height="16" transform="translate(0 0.513672)" fill="white" fill-opacity="0.01" style="mix-blend-mode:multiply"/>
<path d="M13 11.5137C12.644 11.5154 12.2951 11.6132 11.99 11.7966L8.70705 8.51367L11.9905 5.23022C12.2953 5.41389 12.6441 5.51182 13 5.51367C13.3956 5.51367 13.7822 5.39637 14.1111 5.17661C14.44 4.95685 14.6964 4.64449 14.8478 4.27904C14.9991 3.91359 15.0387 3.51145 14.9616 3.12349C14.8844 2.73553 14.6939 2.37916 14.4142 2.09946C14.1345 1.81975 13.7781 1.62927 13.3902 1.5521C13.0022 1.47493 12.6001 1.51454 12.2346 1.66591C11.8692 1.81729 11.5568 2.07363 11.3371 2.40253C11.1173 2.73143 11 3.11811 11 3.51367C11.0018 3.86956 11.0998 4.21835 11.2835 4.52317L8 7.80662L4.71715 4.52367C4.90056 4.21858 4.99828 3.86965 5 3.51367C5 3.11811 4.8827 2.73143 4.66294 2.40253C4.44318 2.07363 4.13082 1.81729 3.76537 1.66591C3.39992 1.51454 2.99778 1.47493 2.60982 1.5521C2.22186 1.62927 1.86549 1.81975 1.58579 2.09946C1.30608 2.37916 1.1156 2.73553 1.03843 3.12349C0.96126 3.51145 1.00087 3.91359 1.15224 4.27904C1.30362 4.64449 1.55996 4.95685 1.88886 5.17661C2.21776 5.39637 2.60444 5.51367 3 5.51367C3.35599 5.51191 3.70491 5.41416 4.01 5.23072L7.29295 8.51367L4.0095 11.7971C3.70467 11.6135 3.35589 11.5155 3 11.5137C2.60444 11.5137 2.21776 11.631 1.88886 11.8507C1.55996 12.0705 1.30362 12.3829 1.15224 12.7483C1.00087 13.1138 0.96126 13.5159 1.03843 13.9039C1.1156 14.2918 1.30608 14.6482 1.58579 14.9279C1.86549 15.2076 2.22186 15.3981 2.60982 15.4752C2.99778 15.5524 3.39992 15.5128 3.76537 15.3614C4.13082 15.2101 4.44318 14.9537 4.66294 14.6248C4.8827 14.2959 5 13.9092 5 13.5137C4.99818 13.1578 4.90024 12.809 4.71655 12.5042L8 9.22072L11.2829 12.5037C11.0994 12.8088 11.0017 13.1577 11 13.5137C11 13.9092 11.1173 14.2959 11.3371 14.6248C11.5568 14.9537 11.8692 15.2101 12.2346 15.3614C12.6001 15.5128 13.0022 15.5524 13.3902 15.4752C13.7781 15.3981 14.1345 15.2076 14.4142 14.9279C14.6939 14.6482 14.8844 14.2918 14.9616 13.9039C15.0387 13.5159 14.9991 13.1138 14.8478 12.7483C14.6964 12.3829 14.44 12.0705 14.1111 11.8507C13.7822 11.631 13.3956 11.5137 13 11.5137ZM13 2.51367C13.1978 2.51367 13.3911 2.57232 13.5556 2.6822C13.72 2.79208 13.8482 2.94826 13.9239 3.13099C13.9996 3.31372 14.0194 3.51478 13.9808 3.70876C13.9422 3.90274 13.847 4.08093 13.7071 4.22078C13.5673 4.36063 13.3891 4.45587 13.1951 4.49446C13.0011 4.53304 12.8 4.51324 12.6173 4.43755C12.4346 4.36186 12.2784 4.23369 12.1685 4.06924C12.0587 3.90479 12 3.71145 12 3.51367C12.0003 3.24855 12.1058 2.99437 12.2932 2.8069C12.4807 2.61943 12.7349 2.51398 13 2.51367V2.51367ZM3 14.5137C2.80222 14.5137 2.60888 14.455 2.44443 14.3451C2.27998 14.2353 2.15181 14.0791 2.07612 13.8964C2.00043 13.7136 1.98063 13.5126 2.01922 13.3186C2.0578 13.1246 2.15304 12.9464 2.29289 12.8066C2.43275 12.6667 2.61093 12.5715 2.80491 12.5329C2.99889 12.4943 3.19996 12.5141 3.38268 12.5898C3.56541 12.6655 3.72159 12.7937 3.83147 12.9581C3.94135 13.1226 4 13.3159 4 13.5137C3.9997 13.7788 3.89424 14.033 3.70677 14.2204C3.5193 14.4079 3.26512 14.5134 3 14.5137Z" fill="currentColor"/>
</svg>
