<svg viewBox="0 0 16 16" fill="none" xmlns="http://www.w3.org/2000/svg">
<rect width="16" height="16" fill="white" fill-opacity="0.01" style="mix-blend-mode:multiply"/>
<path d="M8 11.8643C7.20463 11.8634 6.4421 11.547 5.87969 10.9846C5.31728 10.4222 5.00091 9.65964 5 8.86427V5.63577L8 4.13577L11 5.63577V8.86427C10.9991 9.65964 10.6827 10.4222 10.1203 10.9846C9.5579 11.547 8.79537 11.8634 8 11.8643ZM6 6.25367V8.86427C6 9.39471 6.21071 9.90341 6.58579 10.2785C6.96086 10.6536 7.46957 10.8643 8 10.8643C8.53043 10.8643 9.03914 10.6536 9.41421 10.2785C9.78929 9.90341 10 9.39471 10 8.86427V6.25367L8 5.25367L6 6.25367Z" fill="currentColor"/>
<path d="M8 15.5C7.91149 15.5001 7.82454 15.4767 7.74805 15.4322L1.74805 11.9322C1.67256 11.8881 1.60993 11.825 1.56641 11.7492C1.52289 11.6733 1.49999 11.5874 1.5 11.5V4.50002C1.49997 4.41262 1.52285 4.32675 1.56638 4.25096C1.60991 4.17518 1.67255 4.11213 1.74805 4.06812L7.74805 0.568119C7.82452 0.523507 7.91147 0.5 8 0.5C8.08853 0.5 8.17548 0.523507 8.25195 0.568119L14.252 4.06812L13.748 4.93192L8 1.57887L2.5 4.78712V11.2129L8 14.4214L13.5 11.2129V7.50002H14.5V11.5C14.5 11.5874 14.4771 11.6733 14.4336 11.7492C14.3901 11.825 14.3274 11.8881 14.252 11.9322L8.25195 15.4322C8.17546 15.4767 8.08851 15.5001 8 15.5Z" fill="currentColor"/>
</svg>
