<svg viewBox="0 0 16 16" fill="none" xmlns="http://www.w3.org/2000/svg">
<rect width="16" height="16" fill="white" fill-opacity="0.01" style="mix-blend-mode:multiply"/>
<path d="M14 10.571V5H11.5V6H13V7H11.5V8H13V10.571C12.1399 10.7946 11.5 11.5706 11.5 12.5C11.5 13.603 12.3972 14.5 13.5 14.5C14.6028 14.5 15.5 13.603 15.5 12.5C15.5 11.5706 14.8601 10.7946 14 10.571ZM13.5 13.5C12.9485 13.5 12.5 13.0512 12.5 12.5C12.5 11.9488 12.9485 11.5 13.5 11.5C14.0515 11.5 14.5 11.9488 14.5 12.5C14.5 13.0512 14.0515 13.5 13.5 13.5Z" fill="currentColor"/>
<path d="M4.5 12.5C4.77614 12.5 5 12.2761 5 12C5 11.7239 4.77614 11.5 4.5 11.5C4.22386 11.5 4 11.7239 4 12C4 12.2761 4.22386 12.5 4.5 12.5Z" fill="currentColor"/>
<path d="M4.5 4.5C4.77614 4.5 5 4.27614 5 4C5 3.72386 4.77614 3.5 4.5 3.5C4.22386 3.5 4 3.72386 4 4C4 4.27614 4.22386 4.5 4.5 4.5Z" fill="currentColor"/>
<path d="M13 3V4H14V3C14 2.4477 13.5523 2 13 2H3C2.4477 2 2 2.4477 2 3V5C2 5.5523 2.4477 6 3 6H5V10H3C2.44775 10 2 10.4477 2 11V13C2 13.5523 2.44775 14 3 14H10V13H3V11H10V10H6V6H10V5H3V3H13Z" fill="currentColor"/>
</svg>
