<svg viewBox="0 0 16 16" fill="none" xmlns="http://www.w3.org/2000/svg">
<rect width="16" height="16" fill="white" fill-opacity="0.01" style="mix-blend-mode:multiply"/>
<path d="M15 9H10V12.2339C10 13.1954 10.5615 14.0826 11.4306 14.4937L12.5 15L13.5694 14.4937C14.4385 14.0825 15 13.1953 15 12.2339V9ZM12.5 13.8931L11.8584 13.5893C11.3369 13.3427 11 12.8106 11 12.2339V10H14V12.2339C14 12.8106 13.6631 13.3428 13.1416 13.5893L12.5 13.8931Z" fill="currentColor"/>
<path d="M8.5 9H2.5C1.94775 9 1.5 9.4477 1.5 10V12.5C1.5 13.0523 1.94775 13.5 2.5 13.5H8.5V12.5H2.5V10H8.5V9Z" fill="currentColor"/>
<path d="M13.5 2H11C10.4477 2 10 2.4477 10 3V7.5H11V3H13.5V7.5H14.5V3C14.5 2.4477 14.0523 2 13.5 2Z" fill="currentColor"/>
<path d="M7.5 2H2.5C1.94775 2 1.5 2.4477 1.5 3V6.5C1.5 7.05225 1.94775 7.5 2.5 7.5H7.5C8.05225 7.5 8.5 7.05225 8.5 6.5V3C8.5 2.4477 8.05225 2 7.5 2ZM2.5 6.5V3H7.5V6.5H2.5Z" fill="currentColor"/>
</svg>
