<svg viewBox="0 0 16 16" fill="none" xmlns="http://www.w3.org/2000/svg">
<rect width="16" height="16" fill="white" fill-opacity="0.01" style="mix-blend-mode:multiply"/>
<path d="M15 15H14C14 14.1729 13.3271 13.5 12.5 13.5H10.5C9.67285 13.5 9 14.1729 9 15H8C8 13.6215 9.12145 12.5 10.5 12.5H12.5C13.8786 12.5 15 13.6215 15 15Z" fill="currentColor"/>
<path d="M7.5 8C7.2239 8 7 8.2239 7 8.5V11.5H8V8.5C8 8.2239 7.7761 8 7.5 8Z" fill="currentColor"/>
<path d="M16 6H7V7H9V9.5C9 10.8784 10.1214 12 11.5 12C12.8786 12 14 10.8784 14 9.5V7H16V6ZM11.5 11C10.6729 11 10 10.3271 10 9.5V9H13V9.5C13 10.3271 12.3271 11 11.5 11ZM13 8H10V7H13V8Z" fill="currentColor"/>
<path d="M12.8991 5C12.4345 2.7207 10.4146 1 8 1C5.57605 1 3.5309 2.71995 3.089 5.062C1.3274 5.3767 0 6.92455 0 8.75C0 10.8179 1.68225 12.5 3.75 12.5H6V11.5H3.75C2.23365 11.5 1 10.2664 1 8.75C1 7.31105 2.1251 6.1074 3.5614 6.01L3.9796 5.9817L4.02465 5.56495C4.2444 3.5327 5.95335 2 8 2C9.85975 2 11.4225 3.2776 11.8684 5H12.8991Z" fill="currentColor"/>
</svg>
