<svg viewBox="0 0 16 16" fill="none" xmlns="http://www.w3.org/2000/svg">
<rect width="16" height="16" fill="white" fill-opacity="0.01" style="mix-blend-mode:multiply"/>
<path d="M10 6.5H6C5.7239 6.5 5.5 6.7239 5.5 7C5.5 7.09865 5.5254 7.19165 5.584 7.27735L7.584 10.2774C7.67675 10.4165 7.8329 10.5 8 10.5C8.1671 10.5 8.32325 10.4165 8.416 10.2774L10.416 7.27735C10.4746 7.19165 10.5 7.09865 10.5 7C10.5 6.7239 10.2761 6.5 10 6.5ZM8 9.09865L6.9342 7.5H9.0658L8 9.09865Z" fill="currentColor"/>
<path d="M8 11.5C7.19425 11.5 6.41185 11.2184 5.78975 10.7102L5.07995 11.42C5.09525 11.4331 5.10845 11.448 5.124 11.4609C5.9292 12.1311 6.95015 12.5 8 12.5C10.4815 12.5 12.5 10.4812 12.5 8H11.5C11.5 9.92995 9.9297 11.5 8 11.5Z" fill="currentColor"/>
<path d="M11.5 6.5C11.7761 6.5 12 6.27614 12 6C12 5.72386 11.7761 5.5 11.5 5.5C11.2239 5.5 11 5.72386 11 6C11 6.27614 11.2239 6.5 11.5 6.5Z" fill="currentColor"/>
<path d="M4.5 10.5C4.77614 10.5 5 10.2761 5 10C5 9.72386 4.77614 9.5 4.5 9.5C4.22386 9.5 4 9.72386 4 10C4 10.2761 4.22386 10.5 4.5 10.5Z" fill="currentColor"/>
<path d="M8 4.5C8.80485 4.5 9.5886 4.78095 10.2112 5.2888L10.9198 4.58025C10.9005 4.56385 10.8839 4.54515 10.8643 4.52905C10.0606 3.8655 9.04345 3.5 8 3.5C5.51855 3.5 3.5 5.5188 3.5 8H4.5C4.5 6.07005 6.0703 4.5 8 4.5Z" fill="currentColor"/>
<path d="M8 15C4.14015 15 1 11.8598 1 8C1 4.1402 4.14015 1 8 1C11.8598 1 15 4.1402 15 8C15 11.8598 11.8598 15 8 15ZM8 2C4.69165 2 2 4.6916 2 8C2 11.3084 4.69165 14 8 14C11.3084 14 14 11.3084 14 8C14 4.6916 11.3084 2 8 2Z" fill="currentColor"/>
</svg>
