<svg viewBox="0 0 16 16" fill="none" xmlns="http://www.w3.org/2000/svg">
<g clip-path="url(#clip0_1961_6509)">
<rect width="16" height="16" fill="white" fill-opacity="0.01" style="mix-blend-mode:multiply"/>
<path d="M15.5 14.7929L11.2261 10.5195C10.1768 11.778 8.63705 12.5 7 12.5C3.9673 12.5 1.5 10.0326 1.5 6.99995C1.5 3.96725 3.9673 1.5 7 1.5C10.0327 1.5 12.5 3.9673 12.5 7C12.5 7.80005 12.3323 8.5708 12.0016 9.2915L12.9103 9.7085C13.3017 8.85645 13.5 7.94505 13.5 7C13.5 3.416 10.5841 0.5 7 0.5C3.4159 0.5 0.5 3.416 0.5 7C0.5 10.584 3.4159 13.5 7 13.5C8.56715 13.5 10.0513 12.9307 11.2198 11.9268L14.793 15.5L15.5 14.7929Z" fill="currentColor"/>
<path d="M8.5 7.5C8.0967 7.5 7.73155 7.66185 7.46165 7.9219L5.98165 7.18165C5.98895 7.1216 5.99995 7.06225 5.99995 7C5.99995 6.93775 5.98895 6.8784 5.98165 6.81835L7.46165 6.0781C7.73155 6.3381 8.09665 6.5 8.5 6.5C9.32715 6.5 10 5.82715 10 5C10 4.17285 9.32715 3.5 8.5 3.5C7.67285 3.5 7 4.17285 7 5C7 5.06225 7.011 5.1216 7.0183 5.18165L5.5383 5.9219C5.2684 5.6619 4.9033 5.5 4.49995 5.5C3.6728 5.5 2.99995 6.17285 2.99995 7C2.99995 7.82715 3.6728 8.5 4.49995 8.5C4.90325 8.5 5.2684 8.33815 5.5383 8.0781L7.0183 8.81835C7.011 8.8784 7 8.93775 7 9C7 9.82715 7.67285 10.5 8.5 10.5C9.32715 10.5 10 9.82715 10 9C10 8.17285 9.32715 7.5 8.5 7.5ZM8.5 4.5C8.77575 4.5 9 4.7241 9 5C9 5.2759 8.77575 5.5 8.5 5.5C8.22425 5.5 8 5.2759 8 5C8 4.7241 8.22425 4.5 8.5 4.5ZM4.5 7.5C4.22425 7.5 4 7.2759 4 7C4 6.7241 4.22425 6.5 4.5 6.5C4.77575 6.5 5 6.7241 5 7C5 7.2759 4.77575 7.5 4.5 7.5ZM8.5 9.5C8.22425 9.5 8 9.2759 8 9C8 8.7241 8.22425 8.5 8.5 8.5C8.77575 8.5 9 8.7241 9 9C9 9.2759 8.77575 9.5 8.5 9.5Z" fill="currentColor"/>
</g>
<defs>
<clipPath id="clip0_1961_6509">
<rect width="16" height="16" fill="white"/>
</clipPath>
</defs>
</svg>
