<svg viewBox="0 0 16 16" fill="none" xmlns="http://www.w3.org/2000/svg">
<rect width="16" height="16" fill="white" fill-opacity="0.01" style="mix-blend-mode:multiply"/>
<path d="M12.5 7.99961C12.5 7.24961 11.9 6.59961 11.15 6.49961C10.6 5.29961 9.4 4.49961 8 4.49961C7.9 4.49961 7.75 4.49961 7.65 4.54961C7.35 4.19961 6.95 3.99961 6.5 3.99961C5.65 3.99961 5 4.64961 5 5.49961C5 5.69961 5.05 5.84961 5.1 6.04961C4.7 6.59961 4.5 7.24961 4.5 7.99961C4.5 8.74961 4.7 9.39961 5.1 9.94961C5.05 10.1496 5 10.2996 5 10.4996C5 11.3496 5.65 11.9996 6.5 11.9996C6.95 11.9996 7.35 11.7996 7.65 11.4496C7.75 11.4496 7.9 11.4996 8 11.4996C9.4 11.4996 10.6 10.6496 11.15 9.49961C11.9 9.39961 12.5 8.74961 12.5 7.99961ZM6.5 4.99961C6.8 4.99961 7 5.19961 7 5.49961C7 5.79961 6.8 5.99961 6.5 5.99961C6.2 5.99961 6 5.79961 6 5.49961C6 5.19961 6.2 4.99961 6.5 4.99961ZM6.5 10.9996C6.2 10.9996 6 10.7996 6 10.4996C6 10.1996 6.2 9.99961 6.5 9.99961C6.8 9.99961 7 10.1996 7 10.4996C7 10.7996 6.8 10.9996 6.5 10.9996ZM8 10.4996C8 9.64961 7.35 8.99961 6.5 8.99961C6.25 8.99961 6 9.04961 5.8 9.19961C5.6 8.84961 5.5 8.44961 5.5 7.99961C5.5 7.54961 5.6 7.14961 5.8 6.79961C6 6.94961 6.25 6.99961 6.5 6.99961C7.35 6.99961 8 6.34961 8 5.49961C8.95 5.49961 9.7 5.99961 10.15 6.74961C9.75 7.04961 9.5 7.49961 9.5 7.99961C9.5 8.49961 9.75 8.94961 10.15 9.24961C9.7 9.99961 8.95 10.4996 8 10.4996ZM11 8.49961C10.7 8.49961 10.5 8.29961 10.5 7.99961C10.5 7.69961 10.7 7.49961 11 7.49961C11.3 7.49961 11.5 7.69961 11.5 7.99961C11.5 8.29961 11.3 8.49961 11 8.49961Z" fill="currentColor"/>
<path d="M8 15.4996C7.9 15.4996 7.85 15.4996 7.75 15.4496L1.75 11.9496C1.6 11.8496 1.5 11.6996 1.5 11.4996V4.49961C1.5 4.29961 1.6 4.14961 1.75 4.04961L7.75 0.549609C7.9 0.449609 8.1 0.449609 8.25 0.549609L14.25 4.04961L13.75 4.89961L8 1.59961L2.5 4.79961V11.2496L8 14.4496L13.5 11.2496V7.49961H14.5V11.4996C14.5 11.6996 14.4 11.8496 14.25 11.9496L8.25 15.4496C8.15 15.4996 8.1 15.4996 8 15.4996Z" fill="currentColor"/>
</svg>
