<svg viewBox="0 0 16 16" fill="none" xmlns="http://www.w3.org/2000/svg">
<rect width="16" height="16" fill="white" fill-opacity="0.01" style="mix-blend-mode:multiply"/>
<path d="M15.6789 11.0003H11.4804V9.83599L13.3077 8.27214C13.9706 7.70269 14.2001 7.37119 14.2001 6.86979V6.75079C14.2001 6.30034 13.8006 6.07084 13.4181 6.07084C12.8572 6.07084 12.5852 6.45329 12.4662 6.90374L11.3528 6.47879C11.6164 5.65439 12.3047 4.96599 13.5372 4.96599C14.8205 4.96599 15.56 5.72239 15.56 6.75079C15.56 7.77069 14.8291 8.39109 13.9791 9.06254L12.8742 9.92949H15.6789V11.0003Z" fill="currentColor"/>
<path d="M6.41451 4.71094H7.67246V7.28619H7.71496C7.84241 6.79319 8.33531 6.43629 8.91331 6.43629C10.0437 6.43629 10.6301 7.25219 10.6301 8.76504C10.6301 10.2779 10.0437 11.1023 8.91331 11.1023C8.33531 11.1023 7.84241 10.7368 7.71496 10.2524H7.67246V11.0003H6.41451V4.71094ZM9.32125 9.15599V8.38254C9.32125 7.82164 8.97276 7.45614 8.49681 7.45614C8.02086 7.45614 7.67246 7.70259 7.67246 8.11054V9.42794C7.67246 9.83589 8.02086 10.0823 8.49681 10.0823C8.97276 10.0823 9.32125 9.71689 9.32125 9.15599Z" fill="currentColor"/>
<path d="M0.558105 5.06789H2.79331C4.36571 5.06789 5.40256 6.06234 5.40256 8.03414C5.40256 10.0059 4.36571 11.0003 2.79331 11.0003H0.558105V5.06789ZM2.79331 9.85224C3.55831 9.85224 4.03426 9.43579 4.03426 8.49239V7.57449C4.03426 6.63109 3.55831 6.21464 2.79331 6.21464H1.84996V9.85229L2.79331 9.85224Z" fill="currentColor"/>
</svg>
