<svg viewBox="0 0 16 16" fill="none" xmlns="http://www.w3.org/2000/svg">
<rect width="16" height="16" fill="white" fill-opacity="0.01" style="mix-blend-mode:multiply"/>
<path d="M14 13C13.6308 13 13.3119 13.2023 13.1387 13.5H10.5L14.3999 8.2998C14.5137 8.14845 14.532 7.9458 14.4473 7.77635C14.3625 7.6069 14.1894 7.5 14 7.5H8.90785C8.7008 6.91925 8.15095 6.5 7.5 6.5C6.67285 6.5 6 7.17285 6 8C6 8.82715 6.67285 9.5 7.5 9.5C8.15095 9.5 8.7008 9.08075 8.90785 8.5H13L9.1001 13.7002C8.98635 13.8516 8.968 14.0542 9.05275 14.2236C9.1375 14.3931 9.31055 14.5 9.5 14.5H13.1387C13.3119 14.7977 13.6308 15 14 15C14.5523 15 15 14.5523 15 14C15 13.4477 14.5523 13 14 13ZM7.5 8.5C7.22435 8.5 7 8.2759 7 8C7 7.7241 7.22435 7.5 7.5 7.5C7.77565 7.5 8 7.7241 8 8C8 8.2759 7.77565 8.5 7.5 8.5Z" fill="currentColor"/>
<path d="M8 10.5H7V12.7929L2.20695 8L7 3.2071V5.5H8V2.5H13V6.5H14V2.5C14 1.9477 13.5523 1.5 13 1.5H2C1.4477 1.5 1 1.9477 1 2.5V13.5C1 14.0523 1.4477 14.5 2 14.5H8V10.5ZM2 2.5H6.2929L2 6.7929V2.5ZM2 13.5V9.2071L6.2929 13.5H2Z" fill="currentColor"/>
</svg>
