<svg viewBox="0 0 16 16" fill="none" xmlns="http://www.w3.org/2000/svg">
<rect width="16" height="16" fill="white" fill-opacity="0.01" style="mix-blend-mode:multiply"/>
<path d="M13.5 14.5H6.5C5.95 14.5 5.5 14.05 5.5 13.5V11.5H6.5V13.5H13.5V6.5H11.5V5.5H13.5C14.05 5.5 14.5 5.95 14.5 6.5V13.5C14.5 14.05 14.05 14.5 13.5 14.5Z" fill="currentColor"/>
<path d="M9.5 7.5V9.5H7.5V10.5H10.5V7.5H9.5Z" fill="currentColor"/>
<path d="M8.5 5.5H5.5V8.5H6.5V6.5H8.5V5.5Z" fill="currentColor"/>
<path d="M2.5 1.5H9.5C10.05 1.5 10.5 1.95 10.5 2.5V4.5H9.5V2.5H2.5V9.5H4.5V10.5H2.5C1.95 10.5 1.5 10.05 1.5 9.5V2.5C1.5 1.95 1.95 1.5 2.5 1.5Z" fill="currentColor"/>
</svg>
