<svg viewBox="0 0 16 16" fill="none" xmlns="http://www.w3.org/2000/svg">
<g clip-path="url(#clip0_1961_6430)">
<rect width="16" height="16" fill="white" fill-opacity="0.01" style="mix-blend-mode:multiply"/>
<path d="M11.5 0.5L8.5 3.5L9.2073 4.20115L11 2.40915V10.5H5V5H4V10.5C4 11.0513 4.4486 11.5 5 11.5H11C11.5514 11.5 12 11.0513 12 10.5V2.4077L13.7929 4.20115L14.5 3.5L11.5 0.5Z" fill="currentColor"/>
<path d="M9.25 9.5H6.75C6.33645 9.5 6 9.16355 6 8.75V6.25C6 5.83645 6.33645 5.5 6.75 5.5H9.25C9.66355 5.5 10 5.83645 10 6.25V8.75C10 9.16355 9.66355 9.5 9.25 9.5ZM7 8.5H9V6.5H7V8.5Z" fill="currentColor"/>
<path d="M8 15.5V14.5C11.5841 14.5 14.5 11.5841 14.5 8C14.5 7.3676 14.4094 6.74275 14.2309 6.14265L15.1894 5.85735C15.3956 6.5501 15.5 7.271 15.5 8C15.5 12.1355 12.1355 15.5 8 15.5Z" fill="currentColor"/>
<path d="M0.81065 10.1426C0.60445 9.4499 0.5 8.729 0.5 8C0.5 3.8645 3.8645 0.5 8 0.5V1.5C4.4159 1.5 1.5 4.4159 1.5 8C1.5 8.6324 1.5906 9.25725 1.76915 9.85735L0.81065 10.1426Z" fill="currentColor"/>
</g>
<defs>
<clipPath id="clip0_1961_6430">
<rect width="16" height="16" fill="white"/>
</clipPath>
</defs>
</svg>
