<svg viewBox="0 0 16 16" fill="none" xmlns="http://www.w3.org/2000/svg">
<rect width="16" height="16" fill="white" fill-opacity="0.01" style="mix-blend-mode:multiply"/>
<path d="M4.5 10.5H1.5C0.9486 10.5 0.5 10.0514 0.5 9.5V6.5C0.5 5.9486 0.9486 5.5 1.5 5.5H4.5C5.0514 5.5 5.5 5.9486 5.5 6.5V9.5C5.5 10.0514 5.0514 10.5 4.5 10.5ZM1.5 6.5V9.5H4.5V6.5H1.5Z" fill="currentColor"/>
<path d="M5.8463 14.6622C4.30685 14.165 2.97665 13.1377 2.1007 11.7696L2.943 11.2304C3.6941 12.4037 4.83435 13.2845 6.1537 13.7107L5.8463 14.6622Z" fill="currentColor"/>
<path d="M9.5 14C9.77614 14 10 13.7761 10 13.5C10 13.2239 9.77614 13 9.5 13C9.22386 13 9 13.2239 9 13.5C9 13.7761 9.22386 14 9.5 14Z" fill="currentColor"/>
<path d="M14.5 15.5H8C7.4486 15.5 7 15.0514 7 14.5V12.5C7 11.9486 7.4486 11.5 8 11.5H14.5C15.0514 11.5 15.5 11.9486 15.5 12.5V14.5C15.5 15.0514 15.0514 15.5 14.5 15.5ZM8 12.5V14.5H14.5V12.5H8Z" fill="currentColor"/>
<path d="M13.4448 10.5H14.5372C14.84 9.70555 15 8.855 15 8C15 7.66405 14.9679 7.3308 14.9204 7H13.9069C13.9622 7.3296 13.9999 7.6631 13.9999 8C13.9999 8.87745 13.8067 9.71485 13.4448 10.5Z" fill="currentColor"/>
<path d="M12.75 6H9.5C9.2239 6 9 5.7761 9 5.5V2C9 1.7239 9.2239 1.5 9.5 1.5H15.5C15.6914 1.5 15.866 1.60925 15.9497 1.78145C15.9835 1.8509 16 1.92565 16 2C16 2.11 15.9637 2.2191 15.8932 2.3089L13.1432 5.8089C13.0483 5.92955 12.9034 6 12.75 6ZM10 5H12.507L14.4713 2.5H10V5Z" fill="currentColor"/>
<path d="M2.943 4.7696L2.1007 4.2304C3.39575 2.20765 5.60105 1 8 1V2C5.94375 2 4.0532 3.03535 2.943 4.7696Z" fill="currentColor"/>
</svg>
