<svg viewBox="0 0 16 16" fill="none" xmlns="http://www.w3.org/2000/svg">
<rect width="16" height="16" fill="white" fill-opacity="0.01" style="mix-blend-mode:multiply"/>
<path d="M6.5 13.5H5C3.07005 13.5 1.5 11.9299 1.5 10V9H2.5V10C2.5 11.3784 3.6216 12.5 5 12.5H6.5V13.5Z" fill="currentColor"/>
<path d="M12.5 13.5H10.5C9.94875 13.5 9.5 13.0512 9.5 12.5V10.5C9.5 9.94875 9.94875 9.5 10.5 9.5H12.5C13.0512 9.5 13.5 9.94875 13.5 10.5V12.5C13.5 13.0512 13.0512 13.5 12.5 13.5ZM10.499 10.5L10.5 12.5H12.5V10.5H10.499Z" fill="currentColor"/>
<path d="M13.5 7.5H12.5V8.5H13.5V7.5Z" fill="currentColor"/>
<path d="M15.5 9.5H14.5V10.5H15.5V9.5Z" fill="currentColor"/>
<path d="M15.5 11.5H14.5V12.5H15.5V11.5Z" fill="currentColor"/>
<path d="M8.5 10.5H7.5V11.5H8.5V10.5Z" fill="currentColor"/>
<path d="M8.5 12.5H7.5V13.5H8.5V12.5Z" fill="currentColor"/>
<path d="M8.5 14.5H7.5V15.5H8.5V14.5Z" fill="currentColor"/>
<path d="M10.5 14.5H9.5V15.5H10.5V14.5Z" fill="currentColor"/>
<path d="M13.5 6.5V5.5C13.5 3.57005 11.9299 2 10 2H6.5V3H10C11.3784 3 12.5 4.1216 12.5 5.5V6.5H13.5Z" fill="currentColor"/>
<path d="M5 4V2C5 1.4477 4.5523 1 4 1H1V7.5H2V5H2.74L3.91 7.5H5L3.835 5H4C4.5523 5 5 4.5523 5 4ZM2 2H4V4H2V2Z" fill="currentColor"/>
</svg>
