<svg viewBox="0 0 16 16" fill="none" xmlns="http://www.w3.org/2000/svg">
<rect width="16" height="16" fill="white" fill-opacity="0.01" style="mix-blend-mode:multiply"/>
<path d="M7 9H2C1.45 9 1 9.45 1 10V13C1 13.55 1.45 14 2 14H3.2L4.05 15.5L4.9 15L3.75 13H2V10H7V13H5.5V14H7C7.55 14 8 13.55 8 13V10C8 9.45 7.55 9 7 9Z" fill="currentColor"/>
<path d="M9.5 13H10.5C12.45 13 14 11.45 14 9.5V8.5H13V9.5C13 10.9 11.9 12 10.5 12H9.5V13Z" fill="currentColor"/>
<path d="M12 5.5H9V6.5H12V5.5Z" fill="currentColor"/>
<path d="M15 3.5H9V4.5H15V3.5Z" fill="currentColor"/>
<path d="M15 1.5H9V2.5H15V1.5Z" fill="currentColor"/>
<path d="M2 7H3V6C3 4.6 4.1 3.5 5.5 3.5H7.5V2.5H5.5C3.55 2.5 2 4.05 2 6V7Z" fill="currentColor"/>
</svg>
