<svg viewBox="0 0 16 16" fill="none" xmlns="http://www.w3.org/2000/svg">
<rect width="16" height="16" fill="white" fill-opacity="0.01" style="mix-blend-mode:multiply"/>
<path d="M13.5 11C13.15 11 12.8 11.15 12.55 11.35L9.95 9.8C9.95 9.7 10 9.6 10 9.5C10 9.4 10 9.3 9.95 9.2L12.55 7.65C12.8 7.85 13.15 8 13.5 8C14.35 8 15 7.35 15 6.5C15 5.65 14.35 5 13.5 5C12.65 5 12 5.65 12 6.5C12 6.6 12 6.7 12.05 6.8L9.45 8.35C9.2 8.15 8.85 8 8.5 8C7.65 8 7 8.65 7 9.5C7 10.35 7.65 11 8.5 11C8.85 11 9.2 10.85 9.45 10.65L12.05 12.2C12.05 12.3 12 12.4 12 12.5C12 13.35 12.65 14 13.5 14C14.35 14 15 13.35 15 12.5C15 11.65 14.35 11 13.5 11ZM13.5 6C13.8 6 14 6.2 14 6.5C14 6.8 13.8 7 13.5 7C13.2 7 13 6.8 13 6.5C13 6.2 13.2 6 13.5 6ZM8.5 10C8.2 10 8 9.8 8 9.5C8 9.2 8.2 9 8.5 9C8.8 9 9 9.2 9 9.5C9 9.8 8.8 10 8.5 10ZM13.5 13C13.2 13 13 12.8 13 12.5C13 12.2 13.2 12 13.5 12C13.8 12 14 12.2 14 12.5C14 12.8 13.8 13 13.5 13Z" fill="currentColor"/>
<path d="M9.5 12.5H4.25C2.75 12.5 1.5 11.25 1.5 9.75C1.5 8.4 2.45 7.3 3.75 7.05L4.4 6.95L4.55 6.3C4.95 4.35 6.6 3 8.5 3C8.75 3 9 3 9.25 3.05C10.05 3.2 10.75 3.6 11.35 4.15L12.05 3.45C11.35 2.75 10.45 2.25 9.45 2.1C9.15 2.05 8.8 2 8.5 2C6.15 2 4.05 3.65 3.6 6.05C1.8 6.4 0.5 7.95 0.5 9.75C0.5 11.8 2.15 13.5 4.25 13.5H9.5V12.5Z" fill="currentColor"/>
</svg>
