<svg viewBox="0 0 16 16" fill="none" xmlns="http://www.w3.org/2000/svg">
<rect width="16" height="16" fill="white" fill-opacity="0.01" style="mix-blend-mode:multiply"/>
<path d="M8 6.49995C6.28965 6.49995 5 7.2524 5 8.24995V12.25C5 13.2475 6.28965 14 8 14C9.71035 14 11 13.2475 11 12.25V8.24995C11 7.2524 9.71035 6.49995 8 6.49995ZM8 7.49995C9.2407 7.49995 10 7.98555 10 8.24995C10 8.51435 9.2407 8.99995 8 8.99995C6.7593 8.99995 6 8.51435 6 8.24995C6 7.98555 6.7593 7.49995 8 7.49995ZM8 13C6.7593 13 6 12.5144 6 12.25V11.5737C6.52345 11.8408 7.21655 12 8 12C8.78345 12 9.47655 11.8407 10 11.5737V12.25C10 12.5144 9.2407 13 8 13ZM8 11C6.7593 11 6 10.5144 6 10.25V9.5737C6.52345 9.8408 7.21655 9.99995 8 9.99995C8.78345 9.99995 9.47655 9.84075 10 9.5737V10.25C10 10.5144 9.2407 11 8 11Z" fill="currentColor"/>
<path d="M15 7.74995C15 9.28995 13.93 10.575 12.4951 10.9099V9.87495C13.3701 9.56495 14 8.73495 14 7.74995C14 6.58495 13.085 5.60495 11.925 5.5099L11.52 5.47995L11.47 5.075C11.255 3.325 9.76 2 8 2C6.235 2 4.74 3.325 4.525 5.075L4.475 5.47995L4.07 5.5099C2.91 5.60495 2 6.58495 2 7.74995C2 8.72995 2.625 9.55995 3.49505 9.86995V10.91C2.06505 10.57 1 9.28495 1 7.75C1 6.2 2.11 4.875 3.6 4.57C4.03 2.50995 5.86 1 8 1C10.135 1 11.965 2.50995 12.4 4.57C13.885 4.875 15 6.19995 15 7.74995Z" fill="currentColor"/>
</svg>
