<svg viewBox="0 0 16 16" fill="none" xmlns="http://www.w3.org/2000/svg">
<rect width="16" height="16" fill="white" fill-opacity="0.01" style="mix-blend-mode:multiply"/>
<path d="M12 10.5V11.5H12.8742C11.756 13.0598 9.9563 14 8 14C4.69155 14 2 11.3084 2 8H1C1 11.8598 4.14015 15 8 15C10.1775 15 12.1872 13.9995 13.5 12.3274V13H14.5V10.5H12Z" fill="currentColor"/>
<path d="M11.2523 5.81835L8.25815 4.06835C8.17845 4.0217 8.0891 3.999 7.99995 4C7.915 4.001 7.83025 4.0237 7.7542 4.06785L4.74835 5.81785C4.59455 5.90745 4.49995 6.072 4.49995 6.25V9.75C4.49995 9.928 4.59455 10.0926 4.74835 10.1822L7.7542 11.9322C7.83195 11.9773 7.913 12 7.99995 12C8.0871 12 8.18015 11.9773 8.25815 11.9317L11.2523 10.1817C11.4057 10.0921 11.5 9.92775 11.5 9.75V6.25C11.5 6.07225 11.4057 5.90795 11.2523 5.81835ZM8.00535 5.07885L10.0091 6.25L8.00535 7.42115L5.99375 6.25L8.00535 5.07885ZM5.5 7.1196L7.5 8.28415V10.6269L5.5 9.46235V7.1196ZM8.5 10.6321V8.29025L10.5 7.1213V9.4631L8.5 10.6321Z" fill="currentColor"/>
<path d="M8 1C5.8225 1 3.81285 2.0005 2.5 3.6726V3H1.5V5.5H4V4.5H3.12585C4.244 2.9402 6.0437 2 8 2C11.3084 2 14 4.69165 14 8H15C15 4.14015 11.8598 1 8 1Z" fill="currentColor"/>
</svg>
