<svg viewBox="0 0 16 16" fill="none" xmlns="http://www.w3.org/2000/svg">
<rect width="16" height="16" fill="white" fill-opacity="0.01" style="mix-blend-mode:multiply"/>
<path d="M12 15L10.95 14.5C10.1 14.1 9.5 13.2 9.5 12.25V9H14.5V12.25C14.5 13.2 13.95 14.1 13.05 14.5L12 15ZM10.5 10V12.25C10.5 12.85 10.85 13.35 11.35 13.6L12 13.9L12.65 13.6C13.15 13.35 13.5 12.8 13.5 12.25V10H10.5Z" fill="currentColor"/>
<path d="M5 12C5.27614 12 5.5 11.7761 5.5 11.5C5.5 11.2239 5.27614 11 5 11C4.72386 11 4.5 11.2239 4.5 11.5C4.5 11.7761 4.72386 12 5 12Z" fill="currentColor"/>
<path d="M5 8C5.27614 8 5.5 7.77614 5.5 7.5C5.5 7.22386 5.27614 7 5 7C4.72386 7 4.5 7.22386 4.5 7.5C4.5 7.77614 4.72386 8 5 8Z" fill="currentColor"/>
<path d="M5 4C5.27614 4 5.5 3.77614 5.5 3.5C5.5 3.22386 5.27614 3 5 3C4.72386 3 4.5 3.22386 4.5 3.5C4.5 3.77614 4.72386 4 5 4Z" fill="currentColor"/>
<path d="M11.5 1H3.5C2.95 1 2.5 1.45 2.5 2V13C2.5 13.55 2.95 14 3.5 14H8V13H3.5V10H8V9H3.5V6H11.5V7.5H12.5V2C12.5 1.45 12.05 1 11.5 1ZM3.5 5V2H11.5V5H3.5Z" fill="currentColor"/>
</svg>
