<svg viewBox="0 0 16 16" fill="none" xmlns="http://www.w3.org/2000/svg">
<rect width="16" height="16" fill="white" fill-opacity="0.01" style="mix-blend-mode:multiply"/>
<path d="M10 8C9.95375 8 9.9104 8.0105 9.865 8.01365L9.4192 6.6765C9.77005 6.40185 10 5.97925 10 5.5C10 4.67285 9.32715 4 8.5 4C7.67285 4 7 4.67285 7 5.5C7 5.6902 7.0392 5.8706 7.104 6.0381L5.7428 7.2046C5.52285 7.07815 5.2715 7 5 7C4.17285 7 3.5 7.67285 3.5 8.5C3.5 9.32715 4.17285 10 5 10C5.49575 10 5.9325 9.75535 6.2058 9.3838L8.0077 9.92435C8.0067 9.95 8 9.97415 8 10C8 11.1028 8.8972 12 10 12C11.1028 12 12 11.1028 12 10C12 8.89725 11.1028 8 10 8ZM8.5 5C8.77565 5 9 5.22435 9 5.5C9 5.77565 8.77565 6 8.5 6C8.22435 6 8 5.77565 8 5.5C8 5.22435 8.22435 5 8.5 5ZM5 9C4.72435 9 4.5 8.77565 4.5 8.5C4.5 8.22435 4.72435 8 5 8C5.27565 8 5.5 8.22435 5.5 8.5C5.5 8.77565 5.27565 9 5 9ZM6.49245 8.4258C6.4844 8.26295 6.45215 8.1072 6.396 7.96195L7.7572 6.79545C7.96935 6.9175 8.2112 6.99225 8.4719 6.9971L8.9144 8.32475C8.6621 8.4888 8.45295 8.7095 8.29625 8.96685L6.49245 8.4258ZM10 11C9.4485 11 9 10.5512 9 10C9 9.44875 9.4485 9 10 9C10.5515 9 11 9.44875 11 10C11 10.5512 10.5515 11 10 11Z" fill="currentColor"/>
<path d="M13.748 4.9319L8 1.57885L3.75195 4.0569L3.24805 3.19315L7.74805 0.5681C7.82595 0.5227 7.91295 0.5 8 0.5C8.08705 0.5 8.17405 0.5227 8.25195 0.5681L14.2519 4.0681L13.748 4.9319Z" fill="currentColor"/>
<path d="M8.25195 15.4319L7.74805 14.5681L13.5 11.2128V6H14.5V11.5C14.5 11.6778 14.4055 11.8423 14.2519 11.9319L8.25195 15.4319Z" fill="currentColor"/>
<path d="M6.24805 14.5569L1.74805 11.9319C1.5945 11.8423 1.5 11.6778 1.5 11.5V4.5H2.5V11.2128L6.75195 13.6931L6.24805 14.5569Z" fill="currentColor"/>
</svg>
