<svg viewBox="0 0 16 16" fill="none" xmlns="http://www.w3.org/2000/svg">
<rect width="16" height="16" fill="white" fill-opacity="0.01" style="mix-blend-mode:multiply"/>
<path d="M12.5 13H11.5V15H12.5V13Z" fill="currentColor"/>
<path d="M14 10.7929L12.3535 9.14645C12.2559 9.0488 12.1279 8.99995 12 8.99995C11.8721 8.99995 11.7442 9.0488 11.6465 9.14645L9.14655 11.6465C9.0528 11.7402 9.00005 11.8672 9.00005 12V15H10V12.207L12 10.207L14 12.207V15H15V9.99995H14V10.7929Z" fill="currentColor"/>
<path d="M4.50005 10.5C4.77619 10.5 5.00005 10.2761 5.00005 10C5.00005 9.72386 4.77619 9.5 4.50005 9.5C4.22391 9.5 4.00005 9.72386 4.00005 10C4.00005 10.2761 4.22391 10.5 4.50005 10.5Z" fill="currentColor"/>
<path d="M11.5 6.5C11.7762 6.5 12 6.27614 12 6C12 5.72386 11.7762 5.5 11.5 5.5C11.2239 5.5 11 5.72386 11 6C11 6.27614 11.2239 6.5 11.5 6.5Z" fill="currentColor"/>
<path d="M4.50005 3C4.77619 3 5.00005 2.77614 5.00005 2.5C5.00005 2.22386 4.77619 2 4.50005 2C4.22391 2 4.00005 2.22386 4.00005 2.5C4.00005 2.77614 4.22391 3 4.50005 3Z" fill="currentColor"/>
<path d="M8.00005 9C8.55233 9 9.00005 8.55228 9.00005 8C9.00005 7.44772 8.55233 7 8.00005 7C7.44777 7 7.00005 7.44772 7.00005 8C7.00005 8.55228 7.44777 9 8.00005 9Z" fill="currentColor"/>
<path d="M4.50005 8C4.50005 6.0701 6.07015 4.5 8.00005 4.5C8.8512 4.5 9.6318 4.80605 10.2392 5.31305L10.8803 4.54375C10.0998 3.8926 9.09605 3.5 8.0001 3.5C5.5148 3.5 3.5001 5.5147 3.5001 8C3.5001 8.26155 3.52715 8.51635 3.57 8.76565L4.55465 8.59545C4.5212 8.4015 4.50005 8.20335 4.50005 8Z" fill="currentColor"/>
<path d="M2.00005 8C2.00005 6.3458 2.6729 4.8458 3.75935 3.75935L3.05025 3.05025C1.7835 4.317 1 6.06695 1 7.99995C1 11.8659 4.134 15 8 15V14C4.6916 14 2.00005 11.3084 2.00005 8Z" fill="currentColor"/>
<path d="M8.00005 2C11.3084 2 14 4.6916 14 8H15C15 4.134 11.8661 1 8.00005 1C7.1594 1 6.357 1.1558 5.6103 1.4275L5.95215 2.36765C6.59235 2.13405 7.28 2 8.00005 2Z" fill="currentColor"/>
</svg>
