<svg viewBox="0 0 16 16" fill="none" xmlns="http://www.w3.org/2000/svg">
<rect width="16" height="16" fill="white" fill-opacity="0.01" style="mix-blend-mode:multiply"/>
<path d="M12 12V15H15V12H12ZM14 14H13V13H14V14Z" fill="currentColor"/>
<path d="M1 15H4V12H1V15ZM2 13H3V14H2V13Z" fill="currentColor"/>
<path d="M13 7.5H8.5V4.41845C9.22035 4.20165 9.75 3.5399 9.75 2.75C9.75 1.78515 8.96485 1 8 1C7.03515 1 6.25 1.78515 6.25 2.75C6.25 3.5399 6.77965 4.20165 7.5 4.41845V7.5H3C2.44875 7.5 2 7.9486 2 8.5V11H3V8.5H7.5V12H6.5V15H9.5V12H8.5V8.5H13V11H14V8.5C14 7.9486 13.5512 7.5 13 7.5ZM7.25 2.75C7.25 2.33645 7.58645 2 8 2C8.41355 2 8.75 2.33645 8.75 2.75C8.75 3.16355 8.41355 3.5 8 3.5C7.58645 3.5 7.25 3.16355 7.25 2.75ZM8.5 14H7.5V13H8.5V14Z" fill="currentColor"/>
<path d="M13.25 4.5C14.2149 4.5 15 3.71485 15 2.75C15 1.78515 14.2149 1 13.25 1C12.2851 1 11.5 1.78515 11.5 2.75C11.5 3.71485 12.2851 4.5 13.25 4.5ZM13.25 2C13.6635 2 14 2.33645 14 2.75C14 3.16355 13.6635 3.5 13.25 3.5C12.8365 3.5 12.5 3.16355 12.5 2.75C12.5 2.33645 12.8365 2 13.25 2Z" fill="currentColor"/>
<path d="M2.75 4.5C3.71485 4.5 4.5 3.71485 4.5 2.75C4.5 1.78515 3.71485 1 2.75 1C1.78515 1 1 1.78515 1 2.75C1 3.71485 1.78515 4.5 2.75 4.5ZM2.75 2C3.16355 2 3.5 2.33645 3.5 2.75C3.5 3.16355 3.16355 3.5 2.75 3.5C2.33645 3.5 2 3.16355 2 2.75C2 2.33645 2.33645 2 2.75 2Z" fill="currentColor"/>
</svg>
