<svg viewBox="0 0 16 16" fill="none" xmlns="http://www.w3.org/2000/svg">
<rect width="16" height="16" fill="white" fill-opacity="0.01" style="mix-blend-mode:multiply"/>
<path d="M2 12C2.55228 12 3 11.5523 3 11C3 10.4477 2.55228 10 2 10C1.44772 10 1 10.4477 1 11C1 11.5523 1.44772 12 2 12Z" fill="currentColor"/>
<path d="M6.75 15C5.2207 15 3.77575 14.2566 2.88475 13.0114L3.698 12.4296C4.40175 13.4129 5.5426 14 6.75 14C8.7345 14 10.3789 12.4499 10.4937 10.4711L11.492 10.5289C11.3466 13.0361 9.2637 15 6.75 15Z" fill="currentColor"/>
<path d="M14 12.5C14.5523 12.5 15 12.0523 15 11.5C15 10.9477 14.5523 10.5 14 10.5C13.4477 10.5 13 10.9477 13 11.5C13 12.0523 13.4477 12.5 14 12.5Z" fill="currentColor"/>
<path d="M15.3205 9.5474L14.3584 9.27495C14.4524 8.94305 14.5 8.5982 14.5 8.25C14.5 6.18225 12.8177 4.5 10.75 4.5C10.2115 4.5 9.69215 4.6115 9.2062 4.8314L8.79385 3.9204C9.4103 3.6414 10.0684 3.5 10.75 3.5C13.3692 3.5 15.5 5.63085 15.5 8.25C15.5 8.69035 15.4396 9.12685 15.3205 9.5474Z" fill="currentColor"/>
<path d="M10.2071 7.29295L8.70705 5.79295C8.51835 5.604 8.2671 5.5 8 5.5C7.7329 5.5 7.4817 5.604 7.29285 5.79295L5.79295 7.29295C5.598 7.48775 5.5 7.7439 5.5 8C5.5 8.2561 5.598 8.5122 5.79295 8.70705L7.29285 10.2071C7.4817 10.396 7.7329 10.5 8 10.5C8.2671 10.5 8.5183 10.396 8.70705 10.2071L10.2071 8.70705C10.402 8.51225 10.5 8.2561 10.5 8C10.5 7.7439 10.402 7.4878 10.2071 7.29295ZM8 9.5L6.5 8L8 6.5L9.4999 8L8 9.5Z" fill="currentColor"/>
<path d="M8 2.5C8.55228 2.5 9 2.05228 9 1.5C9 0.947715 8.55228 0.5 8 0.5C7.44772 0.5 7 0.947715 7 1.5C7 2.05228 7.44772 2.5 8 2.5Z" fill="currentColor"/>
<path d="M4.0127 9.94105C2.46275 9.11215 1.5 7.50625 1.5 5.75C1.5 3.23645 3.46385 1.1535 5.97105 1.00805L6.0289 2.00635C4.05 2.1212 2.49995 3.76565 2.49995 5.75C2.49995 7.1366 3.26035 8.4046 4.48435 9.0592L4.0127 9.94105Z" fill="currentColor"/>
</svg>
