<svg viewBox="0 0 16 16" fill="none" xmlns="http://www.w3.org/2000/svg">
<g clip-path="url(#clip0_1961_9732)">
<rect width="16" height="16" fill="white" fill-opacity="0.01" style="mix-blend-mode:multiply"/>
<path d="M12.2901 6.82461C11.7932 5.89345 11.007 5.14908 10.0501 4.70375C9.09315 4.25842 8.0174 4.13627 6.98501 4.35572C5.95262 4.57516 5.01955 5.12431 4.32651 5.92035C3.63347 6.7164 3.21803 7.71618 3.14282 8.76896C2.28428 8.86129 1.49378 9.27917 0.933987 9.93663C0.374193 10.5941 0.0876865 11.4411 0.133423 12.3034C0.179159 13.1657 0.553658 13.9776 1.17986 14.5722C1.80606 15.1667 2.63633 15.4986 3.49982 15.4996H11.4998C12.5915 15.5003 13.6439 15.0927 14.4503 14.3568C15.2567 13.621 15.7587 12.6102 15.8577 11.5231C15.9568 10.436 15.6456 9.35109 14.9855 8.48168C14.3253 7.61228 13.3639 7.0212 12.2901 6.82461ZM11.4998 14.7496H3.49982C2.8346 14.7511 2.19373 14.4994 1.70734 14.0456C1.22095 13.5918 0.925513 12.9699 0.881009 12.3062C0.836505 11.6424 1.04627 10.9866 1.46772 10.4719C1.88917 9.95725 2.4907 9.62225 3.15017 9.53496C3.20306 10.1966 3.39085 10.8405 3.70197 11.4269C3.7245 11.4716 3.75575 11.5113 3.79387 11.5437C3.832 11.5762 3.87624 11.6006 3.92397 11.6157C3.97171 11.6308 4.02198 11.6361 4.07181 11.6315C4.12165 11.6268 4.17005 11.6122 4.21416 11.5885C4.25827 11.5649 4.29719 11.5326 4.32863 11.4937C4.36008 11.4547 4.3834 11.4099 4.39724 11.3618C4.41108 11.3136 4.41514 11.2633 4.4092 11.2136C4.40325 11.1639 4.38741 11.1158 4.36262 11.0724C3.86697 10.1458 3.74364 9.06491 4.01781 8.05046C4.29199 7.03602 4.94299 6.16445 5.83793 5.61368C6.73288 5.06291 7.80428 4.87446 8.83345 5.0868C9.86262 5.29914 10.7719 5.89625 11.3758 6.75626C10.7766 6.77278 10.1871 6.91223 9.64394 7.16595C9.10079 7.41968 8.61556 7.78228 8.21832 8.23126C8.18449 8.26798 8.15834 8.31108 8.14139 8.35803C8.12444 8.40499 8.11704 8.45486 8.11961 8.50472C8.12219 8.55458 8.1347 8.60342 8.15641 8.64838C8.17811 8.69334 8.20857 8.73351 8.24601 8.76654C8.28344 8.79957 8.3271 8.82479 8.37441 8.84073C8.42172 8.85667 8.47174 8.863 8.52153 8.85935C8.57132 8.8557 8.61988 8.84214 8.66436 8.81948C8.70884 8.79681 8.74835 8.76549 8.78057 8.72736C9.18117 8.27296 9.68926 7.92621 10.2584 7.71877C10.8275 7.51133 11.4396 7.44983 12.0386 7.53989C12.6377 7.62995 13.2046 7.86869 13.6876 8.2343C14.1706 8.59991 14.5543 9.08073 14.8035 9.63282C15.0528 10.1849 15.1598 10.7907 15.1146 11.3948C15.0695 11.9989 14.8737 12.582 14.5451 13.0909C14.2165 13.5998 13.7656 14.0183 13.2337 14.308C12.7017 14.5978 12.1056 14.7496 11.4998 14.7496Z" fill="currentColor"/>
<path d="M15.949 5.12701C15.9241 5.08385 15.8909 5.04601 15.8514 5.01567C15.8119 4.98533 15.7668 4.96308 15.7186 4.95019C15.6705 4.9373 15.6203 4.93402 15.5709 4.94055C15.5215 4.94707 15.4739 4.96326 15.4308 4.98821L13.9208 5.86011C13.8764 5.88436 13.8374 5.91724 13.8059 5.95679C13.7745 5.99635 13.7512 6.0418 13.7376 6.09046C13.7239 6.13913 13.7201 6.19003 13.7264 6.24018C13.7327 6.29033 13.749 6.33872 13.7742 6.38249C13.7995 6.42627 13.8332 6.46456 13.8735 6.49512C13.9138 6.52567 13.9597 6.54787 14.0087 6.56041C14.0577 6.57295 14.1086 6.57558 14.1586 6.56814C14.2086 6.56071 14.2566 6.54336 14.2998 6.51711L15.8098 5.64521C15.897 5.59493 15.9606 5.5121 15.9867 5.41492C16.0128 5.31774 15.9992 5.21418 15.949 5.12701Z" fill="currentColor"/>
<path d="M11.338 3.93461C11.3812 3.95955 11.4288 3.97574 11.4782 3.98226C11.5276 3.98878 11.5778 3.9855 11.6259 3.97261C11.674 3.95972 11.7191 3.93747 11.7586 3.90713C11.7982 3.87679 11.8313 3.83897 11.8562 3.79581L12.7281 2.28581C12.7775 2.19874 12.7905 2.09566 12.7643 1.99905C12.738 1.90244 12.6746 1.82013 12.5879 1.77006C12.5012 1.71999 12.3982 1.70623 12.3014 1.73177C12.2046 1.75731 12.1218 1.82009 12.0711 1.90641L11.1992 3.41641C11.1489 3.50354 11.1353 3.60707 11.1613 3.70425C11.1874 3.80142 11.2509 3.88429 11.338 3.93461Z" fill="currentColor"/>
<path d="M7.99982 3.04016C8.10044 3.04013 8.19692 3.00015 8.26807 2.92901C8.33921 2.85786 8.37919 2.76137 8.37922 2.66076V0.916959C8.3798 0.866772 8.37041 0.81697 8.3516 0.770436C8.3328 0.723903 8.30494 0.681564 8.26966 0.645871C8.23437 0.610178 8.19236 0.581841 8.14604 0.562501C8.09973 0.543161 8.05004 0.533203 7.99985 0.533203C7.94966 0.533203 7.89996 0.543161 7.85365 0.562501C7.80734 0.581841 7.76532 0.610178 7.73003 0.645871C7.69475 0.681564 7.6669 0.723903 7.64809 0.770436C7.62928 0.81697 7.61989 0.866772 7.62047 0.916959V2.66076C7.62048 2.76137 7.66045 2.85786 7.73159 2.929C7.80273 3.00015 7.89921 3.04013 7.99982 3.04016Z" fill="currentColor"/>
<path d="M4.14347 3.79571C4.19419 3.88203 4.27697 3.9448 4.37377 3.97034C4.47058 3.99589 4.57355 3.98212 4.66025 3.93206C4.74695 3.88199 4.81035 3.79968 4.83661 3.70307C4.86288 3.60646 4.84989 3.50338 4.80047 3.41631L3.92857 1.90631C3.90386 1.86277 3.87079 1.82456 3.83124 1.79387C3.7917 1.76318 3.74647 1.74062 3.69817 1.72748C3.64987 1.71435 3.59944 1.71091 3.5498 1.71735C3.50016 1.7238 3.45229 1.74001 3.40894 1.76504C3.3656 1.79007 3.32763 1.82343 3.29724 1.8632C3.26684 1.90298 3.24462 1.94837 3.23185 1.99677C3.21908 2.04517 3.21602 2.09562 3.22283 2.14521C3.22965 2.1948 3.24621 2.24255 3.27157 2.28571L4.14347 3.79571Z" fill="currentColor"/>
<path d="M2.07907 5.86011L0.569071 4.98821C0.525912 4.96285 0.478161 4.94629 0.428572 4.93947C0.378982 4.93265 0.328533 4.93572 0.280133 4.94849C0.231733 4.96126 0.186339 4.98348 0.146567 5.01388C0.106795 5.04427 0.0734315 5.08223 0.0483994 5.12558C0.0233673 5.16893 0.00716163 5.2168 0.000716398 5.26644C-0.00572883 5.31608 -0.00228618 5.36651 0.0108459 5.41481C0.0239781 5.46311 0.04654 5.50834 0.0772313 5.54788C0.107923 5.58742 0.146137 5.6205 0.189671 5.64521L1.69982 6.51711C1.74298 6.54246 1.79073 6.55903 1.84032 6.56585C1.88991 6.57266 1.94036 6.5696 1.98876 6.55683C2.03716 6.54406 2.08255 6.52184 2.12232 6.49144C2.1621 6.46105 2.19546 6.42308 2.22049 6.37974C2.24552 6.33639 2.26173 6.28851 2.26817 6.23888C2.27462 6.18924 2.27118 6.13881 2.25805 6.09051C2.24491 6.04221 2.22235 5.99698 2.19166 5.95744C2.16097 5.91789 2.1226 5.88481 2.07907 5.86011Z" fill="currentColor"/>
</g>
<defs>
<clipPath id="clip0_1961_9732">
<rect width="16" height="16" fill="white"/>
</clipPath>
</defs>
</svg>
