<svg viewBox="0 0 16 16" fill="none" xmlns="http://www.w3.org/2000/svg">
<rect width="16" height="16" fill="white" fill-opacity="0.01" style="mix-blend-mode:multiply"/>
<path d="M14 6C14.55 6 15 5.55 15 5V2C15 1.45 14.55 1 14 1H12C11.45 1 11 1.45 11 2V5C11 5.55 11.45 6 12 6H12.5V8H11V9H15V8H13.5V6H14ZM12 2H14V5H12V2Z" fill="currentColor"/>
<path d="M10.5 11.2L9.8 10.5L8 12.3L6.2 10.5L5.5 11.2L7.3 13L5.5 14.8L6.2 15.5L8 13.7L9.8 15.5L10.5 14.8L8.7 13L10.5 11.2Z" fill="currentColor"/>
<path d="M6 9H7.5V10.5H8.5V9H10V8H6V9Z" fill="currentColor"/>
<path d="M5 6V2C5 1.45 4.55 1 4 1H1.5V2H4V3H2C1.45 3 1 3.45 1 4V5C1 5.55 1.45 6 2 6H2.5V8H1V9H5V8H3.5V6H5ZM2 4H4V5H2V4Z" fill="currentColor"/>
</svg>
