<svg viewBox="0 0 16 16" fill="none" xmlns="http://www.w3.org/2000/svg">
<rect width="16" height="16" fill="white" fill-opacity="0.01" style="mix-blend-mode:multiply"/>
<path d="M10 9H7C6.17155 9 5.5 9.67155 5.5 10.5V11.5H6.5V10.5C6.5 10.2239 6.72385 10 7 10H10C10.2761 10 10.5 10.2239 10.5 10.5V11.5H11.5V10.5C11.5 9.67155 10.8285 9 10 9Z" fill="currentColor"/>
<path d="M8.5 8.5C9.60455 8.5 10.5 7.60455 10.5 6.5C10.5 5.39545 9.60455 4.5 8.5 4.5C7.39545 4.5 6.5 5.39545 6.5 6.5C6.5 7.60455 7.39545 8.5 8.5 8.5ZM8.5 5.5C9.0523 5.5 9.5 5.9477 9.5 6.5C9.5 7.0523 9.0523 7.5 8.5 7.5C7.9477 7.5 7.5 7.0523 7.5 6.5C7.5 5.9477 7.9477 5.5 8.5 5.5Z" fill="currentColor"/>
<path d="M8.5 15C4.64015 15 1.5 11.8598 1.5 8H2.5C2.5 11.3084 5.19155 14 8.5 14C11.1131 14 13.4081 12.3308 14.2107 9.8463L15.1623 10.1537C14.2258 13.0524 11.5484 15 8.5 15Z" fill="currentColor"/>
<path d="M15.5 8H14.5C14.5 4.6916 11.8084 2 8.5 2V1C12.3598 1 15.5 4.1402 15.5 8Z" fill="currentColor"/>
<path d="M3 7L1.93065 6.49365C1.0615 6.0825 0.5 5.1953 0.5 4.2339V1H5.5V4.2339C5.5 5.19535 4.9385 6.08255 4.06935 6.49365L3 7ZM1.5 2V4.2339C1.5 4.81055 1.8369 5.3428 2.3584 5.58935L3 5.89305L3.6416 5.58935C4.1631 5.34275 4.5 4.81055 4.5 4.2339V2H1.5Z" fill="currentColor"/>
</svg>
