<svg viewBox="0 0 16 16" fill="none" xmlns="http://www.w3.org/2000/svg">
<rect width="16" height="16" fill="white" fill-opacity="0.01" style="mix-blend-mode:multiply"/>
<path d="M14.5 3.5C15.0523 3.5 15.5 3.05228 15.5 2.5C15.5 1.94772 15.0523 1.5 14.5 1.5C13.9477 1.5 13.5 1.94772 13.5 2.5C13.5 3.05228 13.9477 3.5 14.5 3.5Z" fill="currentColor"/>
<path d="M14.5 14.5C15.0523 14.5 15.5 14.0523 15.5 13.5C15.5 12.9477 15.0523 12.5 14.5 12.5C13.9477 12.5 13.5 12.9477 13.5 13.5C13.5 14.0523 13.9477 14.5 14.5 14.5Z" fill="currentColor"/>
<path d="M3.5 6.5H0.5V9.5H3.5V6.5ZM2.5 8.5H1.5V7.5H2.5V8.5Z" fill="currentColor"/>
<path d="M8.74995 3.3387C8.09195 2.5037 7.0781 2 6 2C4.75465 2 3.59325 2.67015 2.9685 3.7495L2.38575 4.7588L3.25195 5.2588L3.83445 4.25C4.2805 3.479 5.11035 3 6 3C6.88965 3 7.7195 3.479 8.16555 4.24975C8.16795 4.25385 8.17105 4.25745 8.17345 4.26155L7.20705 5.93555C6.65065 6.89965 5.61305 7.49925 4.49955 7.5L4.50005 8L4.49955 8.5C5.6131 8.501 6.65065 9.1001 7.20705 10.0645L8.17335 11.738C8.1709 11.7422 8.16775 11.7458 8.1653 11.75C7.7195 12.521 6.88965 13 6 13C5.11035 13 4.2805 12.521 3.8347 11.7505L3.2522 10.7412L2.386 11.2412L2.96875 12.2509C3.59325 13.3295 4.75465 13.9999 6 13.9999C7.07775 13.9999 8.09145 13.4962 8.7502 12.6613C9.4079 13.4963 10.4216 13.9999 11.5 13.9999H12.5V12.9999H11.5C10.6306 12.9999 9.8217 12.5409 9.3694 11.8013C9.83685 11.2998 10.4964 11.0004 11.1967 11.0004H12.5V10.0004H11.1967C10.3185 10.0004 9.4868 10.3385 8.85145 10.9124L8.0732 9.56435C7.6844 8.891 7.115 8.3579 6.44995 7.9999C7.115 7.6419 7.68435 7.1088 8.0732 6.43545L8.85145 5.08735C9.48675 5.6615 10.3185 5.99965 11.1967 5.99965H12.5V4.99965H11.1967C10.4965 4.99965 9.83705 4.70035 9.36915 4.1988C9.82135 3.45905 10.6305 2.9999 11.5 2.9999H12.5V1.9999H11.5C10.4215 1.9999 9.4078 2.5037 8.74995 3.3387Z" fill="currentColor"/>
</svg>
