<svg viewBox="0 0 16 16" fill="none" xmlns="http://www.w3.org/2000/svg">
<g clip-path="url(#clip0_1961_6547)">
<rect width="16" height="16" fill="white" fill-opacity="0.01" style="mix-blend-mode:multiply"/>
<path d="M8 16C5.46035 16 3.12755 14.8341 1.6001 12.8011L2.39965 12.2003C3.73645 13.9796 5.7777 15 8 15C10.2223 15 12.2641 13.9794 13.6007 12.1998L14.4002 12.8004C12.8729 14.8338 10.5401 16 8 16Z" fill="currentColor"/>
<path d="M15 11H12.5V10H15V8.5H13.5C12.9486 8.5 12.5 8.0514 12.5 7.5V6C12.5 5.4486 12.9486 5 13.5 5H16V6H13.5V7.5H15C15.5514 7.5 16 7.9486 16 8.5V10C16 10.5514 15.5514 11 15 11Z" fill="currentColor"/>
<path d="M10.5 11H8.5C7.9486 11 7.5 10.5514 7.5 10V6C7.5 5.4486 7.9486 5 8.5 5H10.5C11.0514 5 11.5 5.4486 11.5 6V10C11.5 10.5514 11.0514 11 10.5 11ZM8.5 6V10H10.5V6H8.5Z" fill="currentColor"/>
<path d="M5.7229 5L3.7229 11H4.7771L6.7771 5H5.7229Z" fill="currentColor"/>
<path d="M3 11H0V9.84865L1.89905 7H0V6H3V7.15135L1.10095 10H3V11Z" fill="currentColor"/>
<path d="M8.00005 0C5.46035 0 3.1276 1.16595 1.60015 3.19895L2.3997 3.79965C3.7365 2.0204 5.77775 0.99995 8.00005 0.99995C10.2223 0.99995 12.2641 2.0206 13.6007 3.8002L14.4003 3.1996C12.873 1.16625 10.5402 0 8.00005 0Z" fill="currentColor"/>
</g>
<defs>
<clipPath id="clip0_1961_6547">
<rect width="16" height="16" fill="white"/>
</clipPath>
</defs>
</svg>
