<svg viewBox="0 0 16 16" fill="none" xmlns="http://www.w3.org/2000/svg">
<rect width="16" height="16" fill="white" fill-opacity="0.01" style="mix-blend-mode:multiply"/>
<path d="M11.95 5C11.65 4.7 11.2 4.5 10.75 4.5C10.3 4.5 9.85 4.7 9.55 5L8.85 4.3C9.35 3.8 10.05 3.5 10.75 3.5C11.45 3.5 12.2 3.8 12.65 4.3L11.95 5Z" fill="currentColor"/>
<path d="M12 3C12.2761 3 12.5 2.77614 12.5 2.5C12.5 2.22386 12.2761 2 12 2C11.7239 2 11.5 2.22386 11.5 2.5C11.5 2.77614 11.7239 3 12 3Z" fill="currentColor"/>
<path d="M9.5 3C9.77614 3 10 2.77614 10 2.5C10 2.22386 9.77614 2 9.5 2C9.22386 2 9 2.22386 9 2.5C9 2.77614 9.22386 3 9.5 3Z" fill="currentColor"/>
<path d="M7.5 0H14C14.55 0 15 0.45 15 1V6C15 6.55 14.55 7 14 7H12.25L11.4 8.5L10.5 8L11.65 6H14V1H7.5V6H10V7H7.5C6.95 7 6.5 6.55 6.5 6V1C6.5 0.45 6.95 0 7.5 0Z" fill="currentColor"/>
<path d="M10 9.5V12.5C10 12.8 9.8 13 9.5 13H7V14H9.5C10.35 14 11 13.35 11 12.5V9.5H10Z" fill="currentColor"/>
<path d="M7.7 10.2C7.3 10.7 6.65 11 6 11C5.35 11 4.7 10.7 4.3 10.2L3.5 10.8C4.1 11.5 5 12 6 12C7 12 7.9 11.55 8.5 10.8L7.7 10.2Z" fill="currentColor"/>
<path d="M7.75 9.5C8.16421 9.5 8.5 9.16421 8.5 8.75C8.5 8.33579 8.16421 8 7.75 8C7.33579 8 7 8.33579 7 8.75C7 9.16421 7.33579 9.5 7.75 9.5Z" fill="currentColor"/>
<path d="M4.25 9.5C4.66421 9.5 5 9.16421 5 8.75C5 8.33579 4.66421 8 4.25 8C3.83579 8 3.5 8.33579 3.5 8.75C3.5 9.16421 3.83579 9.5 4.25 9.5Z" fill="currentColor"/>
<path d="M5.05 13H2.5C2.2 13 2 12.8 2 12.5V7C2 6.7 2.2 6.5 2.5 6.5H5V5.5H2.5C1.65 5.5 1 6.15 1 7V12.5C1 13.35 1.65 14 2.5 14H4.5L5.65 16L6.5 15.5L5.05 13Z" fill="currentColor"/>
</svg>
