<svg viewBox="0 0 16 16" fill="none" xmlns="http://www.w3.org/2000/svg">
<rect width="16" height="16" fill="white" fill-opacity="0.01" style="mix-blend-mode:multiply"/>
<path d="M11.0607 4.93937C10.7794 4.65807 10.3978 4.50004 10 4.50004C9.60219 4.50004 9.22066 4.65807 8.93936 4.93937L8.70711 5.17157L9.41421 5.87867L9.64646 5.64642C9.74024 5.55265 9.86743 5.49998 10 5.49999C10.1327 5.5 10.2598 5.55269 10.3536 5.64647C10.4474 5.74025 10.5 5.86744 10.5 6.00006C10.5 6.13267 10.4473 6.25985 10.3536 6.35362L8.70711 8.00002L9.41426 8.70712L11.0607 7.06067C11.342 6.77937 11.5 6.39784 11.5 6.00002C11.5 5.6022 11.342 5.22067 11.0607 4.93937Z" fill="currentColor"/>
<path d="M6.35354 10.3536C6.25976 10.4474 6.13257 10.5001 5.99996 10.5001C5.86734 10.5 5.74016 10.4474 5.64639 10.3536C5.55263 10.2598 5.49995 10.1326 5.49996 9.99999C5.49997 9.86737 5.55266 9.74019 5.64644 9.64642L7.29289 8.00002L6.58579 7.29292L4.93934 8.93937C4.79905 9.07844 4.68761 9.24384 4.61142 9.42609C4.53523 9.60834 4.49578 9.80385 4.49535 10.0014C4.49492 10.1989 4.53351 10.3946 4.6089 10.5772C4.68429 10.7598 4.79501 10.9256 4.93469 11.0653C5.07437 11.205 5.24026 11.3157 5.42284 11.3911C5.60542 11.4665 5.8011 11.5051 5.99863 11.5047C6.19617 11.5042 6.39167 11.4648 6.57392 11.3886C6.75617 11.3124 6.92158 11.201 7.06064 11.0607L7.29289 10.8285L6.58579 10.1213L6.35354 10.3536Z" fill="currentColor"/>
<path d="M7.06066 4.93937C6.77893 4.6601 6.39805 4.5038 6.00137 4.50467C5.60468 4.50554 5.22449 4.66351 4.94399 4.94401C4.66349 5.22451 4.50552 5.6047 4.50465 6.00138C4.50379 6.39807 4.66009 6.77895 4.93936 7.06067L5.17161 7.29292L5.87871 6.58582L5.64646 6.35357C5.60002 6.30714 5.56319 6.25202 5.53806 6.19136C5.51293 6.1307 5.5 6.06568 5.49999 6.00001C5.49999 5.8674 5.55266 5.74022 5.64643 5.64645C5.7402 5.55267 5.86738 5.49999 5.99999 5.49998C6.1326 5.49998 6.25978 5.55265 6.35356 5.64642L8.00001 7.29292L8.70711 6.58577L7.06066 4.93937Z" fill="currentColor"/>
<path d="M11.0606 8.93937L10.8284 8.70712L10.1213 9.41422L10.3535 9.64647C10.4473 9.74024 10.5 9.86742 10.5 10C10.5 10.1326 10.4473 10.2598 10.3536 10.3536C10.2598 10.4474 10.1326 10.5001 10 10.5001C9.8674 10.5001 9.74022 10.4474 9.64644 10.3536L7.99999 8.70712L7.29289 9.41422L8.93934 11.0607C9.22107 11.3399 9.60195 11.4962 9.99863 11.4954C10.3953 11.4945 10.7755 11.3365 11.056 11.056C11.3365 10.7755 11.4945 10.3953 11.4953 9.99866C11.4962 9.60198 11.3399 9.2211 11.0606 8.93937Z" fill="currentColor"/>
<path d="M8 15.5C7.91149 15.5001 7.82454 15.4767 7.74805 15.4322L1.74805 11.9322C1.67256 11.8881 1.60993 11.825 1.56641 11.7492C1.52289 11.6733 1.49999 11.5874 1.5 11.5V4.50002C1.49997 4.41262 1.52285 4.32675 1.56638 4.25096C1.60991 4.17518 1.67255 4.11213 1.74805 4.06812L7.74805 0.568119C7.82452 0.523507 7.91147 0.5 8 0.5C8.08853 0.5 8.17548 0.523507 8.25195 0.568119L14.252 4.06812L13.748 4.93192L8 1.57887L2.5 4.78712V11.2129L8 14.4214L13.5 11.2129V7.50002H14.5V11.5C14.5 11.5874 14.4771 11.6733 14.4336 11.7492C14.3901 11.825 14.3274 11.8881 14.252 11.9322L8.25195 15.4322C8.17546 15.4767 8.08851 15.5001 8 15.5Z" fill="currentColor"/>
</svg>
