<svg viewBox="0 0 16 16" fill="none" xmlns="http://www.w3.org/2000/svg">
<rect width="16" height="16" fill="white" fill-opacity="0.01" style="mix-blend-mode:multiply"/>
<path d="M8 15.5C8.55228 15.5 9 15.0523 9 14.5C9 13.9477 8.55228 13.5 8 13.5C7.44772 13.5 7 13.9477 7 14.5C7 15.0523 7.44772 15.5 8 15.5Z" fill="currentColor"/>
<path d="M11.25 15H10V14H11.25C12.7664 14 14 12.7664 14 11.25C14 9.9683 13.1303 8.8678 11.885 8.5736L12.115 7.60035C13.8136 8.00165 15 9.50245 15 11.25C15 13.3177 13.3177 15 11.25 15Z" fill="currentColor"/>
<path d="M10.2071 7.29295L8.70705 5.79295C8.51835 5.604 8.2671 5.5 8 5.5C7.7329 5.5 7.4817 5.604 7.29285 5.79295L5.79295 7.29295C5.598 7.48775 5.5 7.7439 5.5 8C5.5 8.2561 5.598 8.5122 5.79295 8.70705L7.29285 10.2071C7.4817 10.396 7.7329 10.5 8 10.5C8.2671 10.5 8.5183 10.396 8.70705 10.2071L10.2071 8.70705C10.402 8.51225 10.5 8.2561 10.5 8C10.5 7.7439 10.402 7.4878 10.2071 7.29295ZM8 9.5L6.5 8L8 6.5L9.4999 8L8 9.5Z" fill="currentColor"/>
<path d="M8 2.5C8.55228 2.5 9 2.05228 9 1.5C9 0.947715 8.55228 0.5 8 0.5C7.44772 0.5 7 0.947715 7 1.5C7 2.05228 7.44772 2.5 8 2.5Z" fill="currentColor"/>
<path d="M3.885 8.39965C2.1864 7.99835 1 6.49755 1 4.75C1 2.68225 2.68225 1 4.75 1H6V2H4.75C3.23365 2 2 3.23365 2 4.75C2 6.0317 2.86975 7.13225 4.115 7.4264L3.885 8.39965Z" fill="currentColor"/>
</svg>
