<svg viewBox="0 0 16 16" fill="none" xmlns="http://www.w3.org/2000/svg">
<rect width="16" height="16" fill="white" fill-opacity="0.01" style="mix-blend-mode:multiply"/>
<path d="M13.5 15H9.5C8.39695 15 7.5 14.103 7.5 13C7.5 12.0556 8.1582 11.2617 9.04005 11.0532C9.251 9.8872 10.2739 9 11.5 9C12.7261 9 13.749 9.8872 13.96 11.0532C14.8418 11.2617 15.5 12.0556 15.5 13C15.5 14.103 14.603 15 13.5 15ZM9.5 14H13.5C14.0512 14 14.5 13.5512 14.5 13C14.5 12.4488 14.0512 12 13.5 12H13V11.5C13 10.6729 12.3271 10 11.5 10C10.6729 10 10 10.6729 10 11.5V12H9.5C8.94875 12 8.5 12.4488 8.5 13C8.5 13.5512 8.94875 14 9.5 14Z" fill="currentColor"/>
<path d="M6 13.5H5C3.07005 13.5 1.5 11.9299 1.5 10V9H2.5V10C2.5 11.3784 3.6216 12.5 5 12.5H6V13.5Z" fill="currentColor"/>
<path d="M13.5 7.5V5.5C13.5 3.57005 11.9299 2 10 2H6.5V3H10C11.3784 3 12.5 4.1216 12.5 5.5V7.5H13.5Z" fill="currentColor"/>
<path d="M5 4V2C5 1.4477 4.5523 1 4 1H1V7.5H2V5H2.74L3.91 7.5H5L3.835 5H4C4.5523 5 5 4.5523 5 4ZM2 2H4V4H2V2Z" fill="currentColor"/>
</svg>
