<svg viewBox="0 0 16 16" fill="none" xmlns="http://www.w3.org/2000/svg">
<rect width="16" height="16" fill="white" fill-opacity="0.01" style="mix-blend-mode:multiply"/>
<path d="M5.49999 6.5H4.49999V9.5H5.49999V6.5Z" fill="currentColor"/>
<path d="M11.5 6.5H10.5V9.5H11.5V6.5Z" fill="currentColor"/>
<path d="M7.49999 5.5H6.49999V12H7.49999V5.5Z" fill="currentColor"/>
<path d="M9.49999 4.5H8.49999V11H9.49999V4.5Z" fill="currentColor"/>
<path d="M11 3.5C11.5523 3.5 12 3.05228 12 2.5C12 1.94772 11.5523 1.5 11 1.5C10.4477 1.5 9.99999 1.94772 9.99999 2.5C9.99999 3.05228 10.4477 3.5 11 3.5Z" fill="currentColor"/>
<path d="M4.99999 14.5C5.55227 14.5 5.99999 14.0523 5.99999 13.5C5.99999 12.9477 5.55227 12.5 4.99999 12.5C4.4477 12.5 3.99999 12.9477 3.99999 13.5C3.99999 14.0523 4.4477 14.5 4.99999 14.5Z" fill="currentColor"/>
<path d="M11.0458 14H6.99999V13H11.0458L13.9999 8L12.6503 5.71605L13.5116 5.20725L14.8612 7.4912C15.0463 7.8049 15.0463 8.19505 14.8612 8.5088L11.9066 13.5088C11.7279 13.8116 11.3978 14 11.0458 14Z" fill="currentColor"/>
<path d="M2.48839 10.7929L1.13879 8.50875C0.953737 8.19505 0.953737 7.8049 1.13879 7.49115L4.09339 2.49115C4.27259 2.18815 4.60219 1.99995 4.95424 1.99995H9.00004V2.99995H4.95424L2.00014 7.99995L3.34974 10.2842L2.48839 10.7929Z" fill="currentColor"/>
</svg>
