<svg viewBox="0 0 16 16" fill="none" xmlns="http://www.w3.org/2000/svg">
<rect width="16" height="16" fill="white" fill-opacity="0.01" style="mix-blend-mode:multiply"/>
<path d="M13 11C12.0708 11 11.2947 11.6399 11.071 12.5H4.92895C4.7472 11.8008 4.1975 11.2536 3.5 11.071V9.5C3.5 8.94875 3.9486 8.5 4.5 8.5H11.5C12.6028 8.5 13.5 7.6028 13.5 6.5V4.92895C14.3601 4.7053 15 3.9292 15 3C15 1.8972 14.1028 1 13 1C11.8972 1 11 1.8972 11 3C11 3.9292 11.6399 4.7053 12.5 4.92895V6.5C12.5 7.05125 12.0514 7.5 11.5 7.5H4.5C3.3972 7.5 2.5 8.3972 2.5 9.5V11.071C1.6399 11.2947 1 12.0708 1 13C1 14.1028 1.8972 15 3 15C3.9292 15 4.7053 14.3601 4.92895 13.5H11.071C11.2947 14.3601 12.0708 15 13 15C14.1028 15 15 14.1028 15 13C15 11.8972 14.1028 11 13 11ZM12 3C12 2.44875 12.4486 2 13 2C13.5514 2 14 2.44875 14 3C14 3.55125 13.5514 4 13 4C12.4486 4 12 3.55125 12 3ZM3 14C2.4486 14 2 13.5512 2 13C2 12.4488 2.4486 12 3 12C3.5514 12 4 12.4488 4 13C4 13.5512 3.5514 14 3 14ZM13 14C12.4486 14 12 13.5512 12 13C12 12.4488 12.4486 12 13 12C13.5514 12 14 12.4488 14 13C14 13.5512 13.5514 14 13 14Z" fill="currentColor"/>
<path d="M3 5C3.36975 5 3.71205 4.89235 4.0095 4.71655L5.79295 6.5L6.5 5.79295L4.71655 4.0095C4.89235 3.71215 5 3.3696 5 3C5 1.8972 4.1028 1 3 1C1.8972 1 1 1.8972 1 3C1 4.1028 1.8972 5 3 5ZM3 2C3.5514 2 4 2.44875 4 3C4 3.55125 3.5514 4 3 4C2.4486 4 2 3.55125 2 3C2 2.44875 2.4486 2 3 2Z" fill="currentColor"/>
</svg>
