<svg viewBox="0 0 16 16" fill="none" xmlns="http://www.w3.org/2000/svg">
<rect width="16" height="16" fill="white" fill-opacity="0.01" style="mix-blend-mode:multiply"/>
<path d="M6.88 5.2315L5.2315 6.88C4.92285 7.18865 4.92285 7.69135 5.2315 8L11.2337 14H14V11.2337L8 5.2315C7.69135 4.92285 7.18865 4.92285 6.88 5.2315ZM13 11.6479V13H11.6479L7.92745 9.27955L9.27955 7.92745L13 11.6479ZM8.5725 7.22045L7.22045 8.5725L6.08685 7.4389L7.43895 6.0868L8.5725 7.22045Z" fill="currentColor"/>
<path d="M14 1V5H10V4H12.46C11.335 2.735 9.73 2 8 2C4.695 2 2 4.69 2 8C2 11.305 4.695 14 8 14H8.5V15H8C4.14 15 1 11.86 1 8C1 4.14 4.14 1 8 1C9.915 1 11.7 1.77495 13 3.115V1H14Z" fill="currentColor"/>
</svg>
