<svg viewBox="0 0 16 16" fill="none" xmlns="http://www.w3.org/2000/svg">
<rect width="16" height="16" fill="white" fill-opacity="0.01" style="mix-blend-mode:multiply"/>
<path d="M2.75 11.5L1 15H4.5L2.75 11.5Z" fill="currentColor"/>
<path d="M13 7.5V8.5C13.5512 8.5 14 8.94875 14 9.5V12C14 12.5512 13.5512 13 13 13H5V14H13C14.103 14 15 13.103 15 12V9.5C15 8.3972 14.103 7.5 13 7.5Z" fill="currentColor"/>
<path d="M7 12C6.77685 12 6.58055 11.8521 6.5193 11.6375L5.6228 8.5H4V7.5H6C6.22315 7.5 6.41945 7.64795 6.4807 7.86255L7 9.67995L8.5193 4.36255C8.5806 4.14795 8.77685 4 9 4C9.22315 4 9.41945 4.14795 9.4807 4.36255L10.3772 7.5H12V8.5H10C9.77685 8.5 9.58055 8.35205 9.5193 8.13745L9 6.32005L7.4807 11.6375C7.4194 11.8521 7.22315 12 7 12Z" fill="currentColor"/>
<path d="M2 6.5V4C2 3.4485 2.4485 3 3 3H11V2H3C1.8972 2 1 2.8972 1 4V6.5C1 7.6028 1.8972 8.5 3 8.5V7.5C2.4485 7.5 2 7.0515 2 6.5Z" fill="currentColor"/>
<path d="M13.5 4C14.3284 4 15 3.32843 15 2.5C15 1.67157 14.3284 1 13.5 1C12.6716 1 12 1.67157 12 2.5C12 3.32843 12.6716 4 13.5 4Z" fill="currentColor"/>
</svg>
