<svg viewBox="0 0 16 16" fill="none" xmlns="http://www.w3.org/2000/svg">
<rect width="16" height="16" fill="white" fill-opacity="0.01" style="mix-blend-mode:multiply"/>
<path d="M11.25 14.2L10.8 13.3C12.8 12.25 14.05 10.2 14.05 8C14.05 4.7 11.35 2 8.05 2C7.4 2 6.8 2.1 6.2 2.3L5.9 1.35C6.55 1.1 7.25 1 8 1C11.85 1 15 4.15 15 8C15 10.6 13.55 13 11.25 14.2Z" fill="currentColor"/>
<path d="M10.25 11.9L9.75 11.05C10.85 10.45 11.5 9.25 11.5 8C11.5 6.05 9.95 4.5 8 4.5C7.7 4.5 7.4 4.55 7.1 4.6L6.85 3.65C7.25 3.55 7.6 3.5 8 3.5C10.5 3.5 12.5 5.5 12.5 8C12.5 9.6 11.65 11.1 10.25 11.9Z" fill="currentColor"/>
<path d="M4.75 14.2C2.45 13 1 10.6 1 8C1 7.25 1.1 6.55 1.35 5.85L2.3 6.15C2.1 6.75 2 7.35 2 8C2 10.25 3.25 12.3 5.25 13.3L4.75 14.2Z" fill="currentColor"/>
<path d="M5.75 11.9C4.35 11.1 3.5 9.6 3.5 8C3.5 7.6 3.55 7.25 3.65 6.9L4.6 7.15C4.55 7.4 4.5 7.7 4.5 8C4.5 9.25 5.15 10.4 6.25 11.05L5.75 11.9Z" fill="currentColor"/>
<path d="M10 8C10 6.9 9.1 6 8 6C7.65 6 7.3 6.1 7 6.3L4.45 3.75C4.5 3.65 4.5 3.6 4.5 3.5C4.5 2.95 4.05 2.5 3.5 2.5C2.95 2.5 2.5 2.95 2.5 3.5C2.5 4.05 2.95 4.5 3.5 4.5C3.6 4.5 3.65 4.5 3.75 4.45L6.3 7C6.1 7.3 6 7.65 6 8C6 8.95 6.65 9.7 7.5 9.95V13.65C7.2 13.8 7 14.15 7 14.5C7 15.05 7.45 15.5 8 15.5C8.55 15.5 9 15.05 9 14.5C9 14.15 8.8 13.8 8.5 13.65V9.95C9.35 9.7 10 8.95 10 8ZM8 9C7.45 9 7 8.55 7 8C7 7.45 7.45 7 8 7C8.55 7 9 7.45 9 8C9 8.55 8.55 9 8 9Z" fill="currentColor"/>
</svg>
