<svg viewBox="0 0 16 16" fill="none" xmlns="http://www.w3.org/2000/svg">
<g clip-path="url(#clip0_1961_6516)">
<rect width="16" height="16" fill="white" fill-opacity="0.01" style="mix-blend-mode:multiply"/>
<path d="M4.5 10.5H1.5C0.9486 10.5 0.5 10.0514 0.5 9.5V6.5C0.5 5.9486 0.9486 5.5 1.5 5.5H4.5C5.0514 5.5 5.5 5.9486 5.5 6.5V9.5C5.5 10.0514 5.0514 10.5 4.5 10.5ZM1.5 6.5V9.5H4.5V6.5H1.5Z" fill="currentColor"/>
<path d="M5.8463 14.6622C4.30685 14.165 2.97665 13.1377 2.1007 11.7696L2.943 11.2304C3.6941 12.4037 4.83435 13.2845 6.1537 13.7107L5.8463 14.6622Z" fill="currentColor"/>
<path d="M9.5 14C9.77614 14 10 13.7761 10 13.5C10 13.2239 9.77614 13 9.5 13C9.22386 13 9 13.2239 9 13.5C9 13.7761 9.22386 14 9.5 14Z" fill="currentColor"/>
<path d="M14.5 15.5H8C7.4486 15.5 7 15.0514 7 14.5V12.5C7 11.9486 7.4486 11.5 8 11.5H14.5C15.0514 11.5 15.5 11.9486 15.5 12.5V14.5C15.5 15.0514 15.0514 15.5 14.5 15.5ZM8 12.5V14.5H14.5V12.5H8Z" fill="currentColor"/>
<path d="M13.4448 10.5H14.5372C14.84 9.70555 15 8.855 15 8C15 7.66405 14.9679 7.3308 14.9204 7H13.9069C13.9622 7.3296 13.9999 7.6631 13.9999 8C13.9999 8.87745 13.8067 9.71485 13.4448 10.5Z" fill="currentColor"/>
<path d="M14 3.5C14 3.31495 13.9665 3.1394 13.9194 2.96925L14.8482 2.4331L14.3482 1.5669L13.4248 2.1001C13.1748 1.8457 12.8556 1.6636 12.5 1.57105V0.5H11.5V1.57105C11.1444 1.6636 10.8252 1.8457 10.5752 2.1001L9.65185 1.5669L9.15185 2.4331L10.0806 2.96925C10.0335 3.1394 10 3.31495 10 3.5C10 3.68505 10.0335 3.8606 10.0806 4.03075L9.15185 4.5669L9.65185 5.4331L10.5752 4.8999C10.8252 5.1543 11.1449 5.33595 11.5 5.4287V6.5H12.5V5.4287C12.8551 5.33595 13.1748 5.1543 13.4248 4.8999L14.3482 5.4331L14.8482 4.5669L13.9194 4.03075C13.9665 3.8606 14 3.68505 14 3.5ZM12 4.5C11.4486 4.5 11 4.05125 11 3.5C11 2.94875 11.4486 2.5 12 2.5C12.5514 2.5 13 2.94875 13 3.5C13 4.05125 12.5514 4.5 12 4.5Z" fill="currentColor"/>
<path d="M2.943 4.7696L2.1007 4.2304C3.39575 2.20765 5.60105 1 8 1V2C5.94375 2 4.0532 3.03535 2.943 4.7696Z" fill="currentColor"/>
</g>
<defs>
<clipPath id="clip0_1961_6516">
<rect width="16" height="16" fill="white"/>
</clipPath>
</defs>
</svg>
