<svg viewBox="0 0 16 16" fill="none" xmlns="http://www.w3.org/2000/svg">
<rect width="16" height="16" fill="white" fill-opacity="0.01" style="mix-blend-mode:multiply"/>
<path d="M4.5 13.5C4.77614 13.5 5 13.2761 5 13C5 12.7239 4.77614 12.5 4.5 12.5C4.22386 12.5 4 12.7239 4 13C4 13.2761 4.22386 13.5 4.5 13.5Z" fill="currentColor"/>
<path d="M13 11H10.5V12H13V14H3V12H7.5C8.05 12 8.5 11.55 8.5 11V6.415L9.795 7.71L10.5 7L8 4.5L5.5 7L6.205 7.705L7.5 6.415V11H3C2.45 11 2 11.45 2 12V14C2 14.55 2.45 15 3 15H13C13.55 15 14 14.55 14 14V12C14 11.45 13.55 11 13 11Z" fill="currentColor"/>
<path d="M11.875 4.025C11.435 2.275 9.835 1 8 1C6.165 1 4.565 2.275 4.125 4.025C2.645 4.21 1.5 5.475 1.5 7C1.5 8.655 2.845 10 4.5 10H5.5V9H4.5C3.395 9 2.5 8.105 2.5 7C2.5 5.905 3.385 5.015 4.475 5L4.97 5.01L5.03 4.57C5.245 3.105 6.52 2 8 2C9.48 2 10.755 3.105 10.965 4.575L11.025 5.015L11.465 5.005L11.53 5C12.62 5.015 13.5 5.905 13.5 7C13.5 8.105 12.605 9 11.5 9H10.5V10H11.5C13.155 10 14.5 8.655 14.5 7C14.5 5.475 13.355 4.21 11.875 4.025Z" fill="currentColor"/>
</svg>
