<svg viewBox="0 0 16 16" fill="none" xmlns="http://www.w3.org/2000/svg">
<rect width="16" height="16" fill="white" fill-opacity="0.01" style="mix-blend-mode:multiply"/>
<path d="M8 14.5C7.8135 14.5 7.64245 14.3962 7.5564 14.2307L6.51635 12.2307L7.40355 11.7692L8 12.9162L10.1564 8.7693L11.0435 9.2306L8.44355 14.2306C8.3575 14.3962 8.1865 14.5 8 14.5Z" fill="currentColor"/>
<path d="M5.5 7.63915V6.5C5.5 5.3972 4.6028 4.5 3.5 4.5C2.3972 4.5 1.5 5.3972 1.5 6.5V7.63915C1.2025 7.8125 1 8.1316 1 8.5V11C1 11.5512 1.4485 12 2 12H5C5.5515 12 6 11.5512 6 11V8.5C6 8.1316 5.7975 7.8125 5.5 7.63915ZM3.5 5.5C4.0515 5.5 4.5 5.94875 4.5 6.5V7.5H2.5V6.5C2.5 5.94875 2.9485 5.5 3.5 5.5ZM5 11H2V8.5H5V11Z" fill="currentColor"/>
<path d="M14.5 1H9.86135C9.68815 0.7024 9.3693 0.5 9 0.5C8.44775 0.5 8 0.94775 8 1.5C8 2.05225 8.44775 2.5 9 2.5C9.36925 2.5 9.6881 2.2976 9.86135 2H13.6765L11.5917 6.0093C11.561 6.00635 11.5314 6 11.5 6C10.9478 6 10.5 6.44775 10.5 7C10.5 7.55225 10.9478 8 11.5 8C12.0523 8 12.5 7.55225 12.5 7C12.5 6.85595 12.4683 6.71995 12.4136 6.5962L14.9436 1.7307C14.9536 1.70875 15 1.6255 15 1.5C15 1.2239 14.7761 1 14.5 1Z" fill="currentColor"/>
<path d="M1.5 1C1.2239 1 1 1.2239 1 1.5C1 1.62545 1.04645 1.70885 1.0564 1.7307L1.97645 3.5H3.10355L2.3235 2H7V1H1.5Z" fill="currentColor"/>
</svg>
