<svg viewBox="0 0 16 16" fill="none" xmlns="http://www.w3.org/2000/svg">
<rect width="16" height="16" fill="white" fill-opacity="0.01" style="mix-blend-mode:multiply"/>
<path d="M10 9V12.25C10 13.2 10.55 14.1 11.45 14.5L12.5 15L13.55 14.5C14.4 14.1 15 13.2 15 12.25V9H10ZM14 12.25C14 12.85 13.65 13.35 13.15 13.6L12.5 13.9L11.85 13.6C11.35 13.35 11 12.8 11 12.25V10H14V12.25Z" fill="currentColor"/>
<path d="M8 10C6.9 10 6 9.1 6 8C6 6.9 6.9 6 8 6C9.1 6 10 6.9 10 8H9C9 7.45 8.55 7 8 7C7.45 7 7 7.45 7 8C7 8.55 7.45 9 8 9V10Z" fill="currentColor"/>
<path d="M8 12.5C5.5 12.5 3.5 10.5 3.5 8C3.5 5.5 5.5 3.5 8 3.5C10.5 3.5 12.5 5.5 12.5 8H11.5C11.5 6.05 9.95 4.5 8 4.5C6.05 4.5 4.5 6.05 4.5 8C4.5 9.95 6.05 11.5 8 11.5V12.5Z" fill="currentColor"/>
<path d="M8 15C4.15 15 1 11.85 1 8C1 4.15 4.15 1 8 1C11.85 1 15 4.15 15 8H14C14 4.7 11.3 2 8 2C4.7 2 2 4.7 2 8C2 11.3 4.7 14 8 14V15Z" fill="currentColor"/>
</svg>
