<svg viewBox="0 0 16 16" fill="none" xmlns="http://www.w3.org/2000/svg">
<rect width="16" height="16" fill="white" fill-opacity="0.01" style="mix-blend-mode:multiply"/>
<path d="M13.5 11.05V6.5H12.5V11.05C11.8 11.25 11.25 11.8 11.05 12.5H6.5V13.5H11.05C11.25 14.35 12.05 15 13 15C14.1 15 15 14.1 15 13C15 12.05 14.35 11.3 13.5 11.05ZM13 14C12.45 14 12 13.55 12 13C12 12.45 12.45 12 13 12C13.55 12 14 12.45 14 13C14 13.55 13.55 14 13 14Z" fill="currentColor"/>
<path d="M5 15H1V11H5V15ZM2 14H4V12H2V14Z" fill="currentColor"/>
<path d="M4.95 3.5H9.5V2.5H4.95C4.7 1.65 3.95 1 3 1C1.9 1 1 1.9 1 3C1 3.95 1.65 4.7 2.5 4.95V9.5H3.5V4.95C4.2 4.75 4.75 4.2 4.95 3.5ZM3 4C2.45 4 2 3.55 2 3C2 2.45 2.45 2 3 2C3.55 2 4 2.45 4 3C4 3.55 3.55 4 3 4Z" fill="currentColor"/>
<path d="M11 1V2H13.3L5.5 9.8L6.2 10.5L14 2.7V5H15V1H11Z" fill="currentColor"/>
</svg>
