<svg viewBox="0 0 16 16" fill="none" xmlns="http://www.w3.org/2000/svg">
<rect width="16" height="16" fill="white" fill-opacity="0.01" style="mix-blend-mode:multiply"/>
<path d="M11.7071 11L5 4.29299V1.00004H1V5.00004H4.29295L11 11.7071V15H15V11H11.7071ZM4 4.00004H2V2.00004H4V4.00004ZM14 14H12V12H14V14Z" fill="currentColor"/>
<path d="M15 3.00004C15.001 2.51363 14.8244 2.04359 14.5033 1.67823C14.1822 1.31288 13.7387 1.07738 13.2562 1.01597C12.7737 0.954567 12.2854 1.07149 11.883 1.34477C11.4806 1.61805 11.1919 2.02887 11.071 2.50004H6.5V3.50004H11.071C11.1606 3.84377 11.3403 4.15739 11.5915 4.40857C11.8426 4.65975 12.1563 4.83939 12.5 4.92899V9.50004H13.5V4.92899C13.9282 4.81876 14.3078 4.56959 14.5792 4.22053C14.8507 3.87146 14.9987 3.44222 15 3.00004ZM13 4.00004C12.8022 4.00004 12.6089 3.94139 12.4444 3.8315C12.28 3.72162 12.1518 3.56544 12.0761 3.38272C12.0004 3.19999 11.9806 2.99893 12.0192 2.80494C12.0578 2.61096 12.153 2.43278 12.2929 2.29293C12.4327 2.15308 12.6109 2.05783 12.8049 2.01925C12.9989 1.98066 13.2 2.00047 13.3827 2.07616C13.5654 2.15184 13.7216 2.28002 13.8315 2.44447C13.9414 2.60891 14 2.80225 14 3.00004C13.9997 3.26516 13.8942 3.51934 13.7068 3.70681C13.5193 3.89428 13.2651 3.99973 13 4.00004Z" fill="currentColor"/>
<path d="M9.5 12.5H4.92895C4.83936 12.1563 4.65971 11.8427 4.40854 11.5915C4.15736 11.3403 3.84374 11.1607 3.5 11.0711V6.50004H2.5V11.0711C2.15889 11.1586 1.847 11.3347 1.59599 11.5817C1.34498 11.8287 1.16379 12.1377 1.07082 12.4774C0.977844 12.817 0.976398 13.1752 1.06662 13.5156C1.15685 13.856 1.33554 14.1665 1.58455 14.4155C1.83355 14.6645 2.14401 14.8432 2.48441 14.9334C2.8248 15.0236 3.18301 15.0222 3.52266 14.9292C3.86232 14.8362 4.17132 14.6551 4.41831 14.404C4.6653 14.153 4.84147 13.8411 4.92895 13.5H9.5V12.5ZM3 14C2.80222 14 2.60888 13.9414 2.44443 13.8315C2.27998 13.7216 2.15181 13.5654 2.07612 13.3827C2.00043 13.2 1.98063 12.9989 2.01921 12.8049C2.0578 12.611 2.15304 12.4328 2.29289 12.2929C2.43275 12.1531 2.61093 12.0578 2.80491 12.0192C2.99889 11.9807 3.19996 12.0005 3.38268 12.0762C3.56541 12.1518 3.72159 12.28 3.83147 12.4445C3.94135 12.6089 4 12.8023 4 13C3.9997 13.2652 3.89424 13.5193 3.70677 13.7068C3.5193 13.8943 3.26512 13.9997 3 14Z" fill="currentColor"/>
</svg>
