<svg viewBox="0 0 16 16" fill="none" xmlns="http://www.w3.org/2000/svg">
<g clip-path="url(#clip0_1961_6465)">
<rect width="16" height="16" fill="white" fill-opacity="0.01" style="mix-blend-mode:multiply"/>
<path d="M16 11.5L13.5 14L12.8 13.3L14.1 12H10V11H14.1L12.8 9.7L13.5 9L16 11.5Z" fill="currentColor"/>
<path d="M12.75 1.35C12.55 1.15 12.3 1 12 1H10.65C10.35 1 10.1 1.15 10 1.4L9.70005 2H9.00005V1.75C9.00005 1.35 8.65005 1 8.25005 1H5.75005C5.35005 1 5.00005 1.35 5.00005 1.75V2H4.30005L4.00005 1.4C3.90005 1.15 3.65005 1 3.35005 1H2.00005C1.70005 1 1.45005 1.15 1.25005 1.35C1.05005 1.6 0.950046 1.9 1.00005 2.2L1.35005 4.25C1.50005 4.95 2.10005 5.5 2.85005 5.5H3.00005V11.5C2.15005 11.5 1.50005 12.15 1.50005 13V15H11V14H8.50005V10.5C8.50005 9.65 7.85005 9 7.00005 9C6.15005 9 5.50005 9.65 5.50005 10.5V14H2.50005V13C2.50005 12.7 2.70005 12.5 3.00005 12.5H4.00005V5.5H10V9H11V5.5H11.15C11.9 5.5 12.5 4.95 12.65 4.25L13 2.2C13.05 1.9 12.95 1.6 12.75 1.35ZM6.50005 10.5C6.50005 10.2 6.70005 10 7.00005 10C7.30005 10 7.50005 10.2 7.50005 10.5V14H6.50005V10.5ZM11.65 4.1C11.6 4.35 11.4 4.5 11.15 4.5H2.85005C2.60005 4.5 2.40005 4.3 2.35005 4.1L2.00005 2H3.20005L3.70005 3H6.00005V2H8.00005V3H10.3L10.8 2H12L11.65 4.1Z" fill="currentColor"/>
</g>
<defs>
<clipPath id="clip0_1961_6465">
<rect width="16" height="16" fill="white"/>
</clipPath>
</defs>
</svg>
