<svg viewBox="0 0 16 16" fill="none" xmlns="http://www.w3.org/2000/svg">
<g clip-path="url(#clip0_1961_6535)">
<rect width="16" height="16" fill="white" fill-opacity="0.01" style="mix-blend-mode:multiply"/>
<path d="M2 14C1.15 14 0.5 13.35 0.5 12.5C0.5 11.65 1.15 11 2 11C2.85 11 3.5 11.65 3.5 12.5C3.5 13.35 2.85 14 2 14ZM2 12C1.7 12 1.5 12.2 1.5 12.5C1.5 12.8 1.7 13 2 13C2.3 13 2.5 12.8 2.5 12.5C2.5 12.2 2.3 12 2 12Z" fill="currentColor"/>
<path d="M14 14C13.15 14 12.5 13.35 12.5 12.5C12.5 11.65 13.15 11 14 11C14.85 11 15.5 11.65 15.5 12.5C15.5 13.35 14.85 14 14 14ZM14 12C13.7 12 13.5 12.2 13.5 12.5C13.5 12.8 13.7 13 14 13C14.3 13 14.5 12.8 14.5 12.5C14.5 12.2 14.3 12 14 12Z" fill="currentColor"/>
<path d="M11.2 2.2L10.75 3.1C13.05 4.2 14.5 6.5 14.5 9C14.5 9.35 14.45 9.7 14.4 10.05L15.4 10.2C15.45 9.8 15.5 9.4 15.5 8.95C15.5 6.1 13.8 3.45 11.2 2.2Z" fill="currentColor"/>
<path d="M8 3.5C7.15 3.5 6.5 2.85 6.5 2C6.5 1.15 7.15 0.5 8 0.5C8.85 0.5 9.5 1.15 9.5 2C9.5 2.85 8.85 3.5 8 3.5ZM8 1.5C7.7 1.5 7.5 1.7 7.5 2C7.5 2.3 7.7 2.5 8 2.5C8.3 2.5 8.5 2.3 8.5 2C8.5 1.7 8.3 1.5 8 1.5Z" fill="currentColor"/>
<path d="M12.75 6.8L12.25 5.95L8.5 8.15V4.5H7.5V8.1L3.1 5.5C2.85 5.35 2.55 5.45 2.4 5.65C2.25 5.85 2.35 6.2 2.55 6.35L7 9L3.9 10.8L4.4 11.65L7.5 9.85V15C7.5 15.3 7.7 15.5 8 15.5C8.3 15.5 8.5 15.3 8.5 15V9.9L11.6 11.75L12.1 10.9L9 9L12.75 6.8Z" fill="currentColor"/>
</g>
<defs>
<clipPath id="clip0_1961_6535">
<rect width="16" height="16" fill="white"/>
</clipPath>
</defs>
</svg>
