<svg viewBox="0 0 16 16" fill="none" xmlns="http://www.w3.org/2000/svg">
<rect width="16" height="16" fill="white" fill-opacity="0.01" style="mix-blend-mode:multiply"/>
<path d="M6.25 3.75L5.55 3.05L7.3 1.3C7.7 0.9 8.35 0.9 8.7 1.3L10.45 3.05L9.75 3.75L8 2L6.25 3.75Z" fill="currentColor"/>
<path d="M9.75 12.25L10.45 12.95L8.7 14.7C8.3 15.1 7.65 15.1 7.3 14.7L5.55 12.95L6.25 12.25L8 14L9.75 12.25Z" fill="currentColor"/>
<path d="M12.25 6.25L12.95 5.55L14.7 7.3C15.1 7.7 15.1 8.35 14.7 8.7L12.95 10.45L12.25 9.75L14 8L12.25 6.25Z" fill="currentColor"/>
<path d="M3.75 9.75L3.05 10.45L1.3 8.7C0.9 8.3 0.9 7.65 1.3 7.3L3.05 5.55L3.75 6.25L2 8L3.75 9.75Z" fill="currentColor"/>
<path d="M13 12C12.9 12 12.85 12 12.75 12.05L9.7 9C10.1 8.4 10.1 7.6 9.7 7L12.75 3.95C12.85 4 12.9 4 13 4C13.55 4 14 3.55 14 3C14 2.45 13.55 2 13 2C12.45 2 12 2.45 12 3C12 3.1 12 3.15 12.05 3.25L9 6.3C8.4 5.9 7.6 5.9 7 6.3L3.95 3.25C4 3.15 4 3.1 4 3C4 2.45 3.55 2 3 2C2.45 2 2 2.45 2 3C2 3.55 2.45 4 3 4C3.1 4 3.15 4 3.25 3.95L6.3 7C5.9 7.6 5.9 8.4 6.3 9L3.25 12.05C3.15 12 3.1 12 3 12C2.45 12 2 12.45 2 13C2 13.55 2.45 14 3 14C3.55 14 4 13.55 4 13C4 12.9 4 12.85 3.95 12.75L7 9.7C7.6 10.1 8.4 10.1 9 9.7L12.05 12.75C12.05 12.85 12 12.9 12 13C12 13.55 12.45 14 13 14C13.55 14 14 13.55 14 13C14 12.45 13.55 12 13 12ZM8 9C7.45 9 7 8.55 7 8C7 7.45 7.45 7 8 7C8.55 7 9 7.45 9 8C9 8.55 8.55 9 8 9Z" fill="currentColor"/>
</svg>
