<svg viewBox="0 0 16 16" fill="none" xmlns="http://www.w3.org/2000/svg">
<rect width="16" height="16" fill="white" fill-opacity="0.01" style="mix-blend-mode:multiply"/>
<path d="M10 13.5C8.51025 13.5 7.11535 12.914 6.07225 11.8501L6.78635 11.1501C7.63975 12.0206 8.7811 12.5 9.99995 12.5C12.4813 12.5 14.5 10.4813 14.5 8.00005C14.5 6.8148 14.0431 5.6961 13.2134 4.84985L13.9275 4.1498C14.9415 5.1841 15.5 6.55145 15.5 8.0001C15.5 11.0328 13.0327 13.5 10 13.5Z" fill="currentColor"/>
<path d="M12 3.5C12.5523 3.5 13 3.05228 13 2.5C13 1.94772 12.5523 1.5 12 1.5C11.4477 1.5 11 1.94772 11 2.5C11 3.05228 11.4477 3.5 12 3.5Z" fill="currentColor"/>
<path d="M10.2071 7.29295L8.70705 5.79295C8.51835 5.604 8.2671 5.5 8 5.5C7.7329 5.5 7.4817 5.604 7.29285 5.79295L5.79295 7.29295C5.598 7.48775 5.5 7.7439 5.5 8C5.5 8.2561 5.598 8.5122 5.79295 8.70705L7.29285 10.2071C7.4817 10.396 7.7329 10.5 8 10.5C8.2671 10.5 8.5183 10.396 8.70705 10.2071L10.2071 8.70705C10.402 8.51225 10.5 8.2561 10.5 8C10.5 7.7439 10.402 7.4878 10.2071 7.29295ZM8 9.5L6.5 8L8 6.5L9.4999 8L8 9.5Z" fill="currentColor"/>
<path d="M4 14.5C4.55228 14.5 5 14.0523 5 13.5C5 12.9477 4.55228 12.5 4 12.5C3.44772 12.5 3 12.9477 3 13.5C3 14.0523 3.44772 14.5 4 14.5Z" fill="currentColor"/>
<path d="M2.14965 11.9275C1.0858 10.8844 0.5 9.48965 0.5 8C0.5 4.9673 2.9673 2.5 6 2.5C7.48975 2.5 8.88465 3.08595 9.92775 4.1499L9.21365 4.84995C8.36025 3.9794 7.2189 3.49995 6.00005 3.49995C3.51875 3.49995 1.50005 5.51865 1.50005 7.99995C1.50005 9.21875 1.9794 10.36 2.8499 11.2135L2.14965 11.9275Z" fill="currentColor"/>
</svg>
