<svg viewBox="0 0 16 16" fill="none" xmlns="http://www.w3.org/2000/svg">
<rect width="16" height="16" fill="white" fill-opacity="0.01" style="mix-blend-mode:multiply"/>
<path d="M7 12C6.89135 12 6.78567 11.9646 6.69894 11.8992C6.6122 11.8337 6.54914 11.7418 6.5193 11.6374L5.6228 8.50002H4V7.50002H6C6.10865 7.50003 6.21433 7.53544 6.30106 7.60087C6.3878 7.6663 6.45086 7.7582 6.4807 7.86267L7 9.68002L8.5193 4.36267C8.54919 4.25825 8.61226 4.16639 8.69899 4.101C8.78572 4.03562 8.89138 4.00025 9 4.00025C9.10862 4.00025 9.21428 4.03562 9.30101 4.101C9.38774 4.16639 9.45081 4.25825 9.4807 4.36267L10.3772 7.50002H12V8.50002H10C9.89135 8.5 9.78567 8.4646 9.69894 8.39917C9.6122 8.33374 9.54915 8.24184 9.5193 8.13737L9 6.32002L7.4807 11.6374C7.45086 11.7418 7.3878 11.8337 7.30106 11.8992C7.21433 11.9646 7.10865 12 7 12Z" fill="currentColor"/>
<path d="M8 15.5C7.91149 15.5001 7.82454 15.4767 7.74805 15.4322L1.74805 11.9322C1.67256 11.8881 1.60993 11.825 1.56641 11.7492C1.52289 11.6733 1.49999 11.5874 1.5 11.5V4.50002C1.49997 4.41262 1.52285 4.32675 1.56638 4.25096C1.60991 4.17518 1.67255 4.11213 1.74805 4.06812L7.74805 0.568119C7.82452 0.523507 7.91147 0.5 8 0.5C8.08853 0.5 8.17548 0.523507 8.25195 0.568119L14.252 4.06812L13.748 4.93192L8 1.57887L2.5 4.78712V11.2129L8 14.4214L13.5 11.2129V7.50002H14.5V11.5C14.5 11.5874 14.4771 11.6733 14.4336 11.7492C14.3901 11.825 14.3274 11.8881 14.252 11.9322L8.25195 15.4322C8.17546 15.4767 8.08851 15.5001 8 15.5Z" fill="currentColor"/>
</svg>
