<svg viewBox="0 0 16 16" fill="none" xmlns="http://www.w3.org/2000/svg">
<rect width="16" height="16" fill="white" fill-opacity="0.01" style="mix-blend-mode:multiply"/>
<path d="M11 13V14H2V5H3V4H2C1.44775 4 1 4.44775 1 5V14C1 14.5523 1.44775 15 2 15H11C11.5523 15 12 14.5523 12 14V13H11Z" fill="currentColor"/>
<path d="M15 2.9966V2C15 1.4477 14.5523 1 14 1H5C4.4477 1 4 1.4477 4 2V11C4 11.5523 4.4477 12 5 12H14C14.5523 12 15 11.5523 15 11V9.5H14V11H5V2H14V2.9966H15Z" fill="currentColor"/>
<path d="M13.75 8.5H9.25C8.28515 8.5 7.5 7.71485 7.5 6.75C7.5 5.85325 8.17775 5.11205 9.04785 5.0117C9.2759 3.8662 10.2886 3 11.5 3C12.7114 3 13.7241 3.8662 13.9522 5.0117C14.8223 5.11205 15.5 5.85325 15.5 6.75C15.5 7.71485 14.7149 8.5 13.75 8.5ZM9.25 6C8.83645 6 8.5 6.33645 8.5 6.75C8.5 7.16355 8.83645 7.5 9.25 7.5H13.75C14.1635 7.5 14.5 7.16355 14.5 6.75C14.5 6.33645 14.1635 6 13.75 6H13V5.5C13 4.67285 12.3271 4 11.5 4C10.6729 4 10 4.67285 10 5.5V6H9.25Z" fill="currentColor"/>
</svg>
