<svg viewBox="0 0 16 16" fill="none" xmlns="http://www.w3.org/2000/svg">
<g clip-path="url(#clip0_1961_6498)">
<rect width="16" height="16" fill="white" fill-opacity="0.01" style="mix-blend-mode:multiply"/>
<path d="M15.6621 5.6306C14.3899 4.5791 12.7785 4 11.1252 4H11V5H11.1252C12.4292 5 13.7024 5.4187 14.748 6.1858C14.0644 7.88355 12.667 9.1565 10.9739 9.7041C10.9912 9.5027 11 9.2993 11 9.09425C11 5.1824 7.81765 2 3.90575 2C3.44165 2 2.978 2.04515 2.5276 2.13405L2.199 2.199L2.13405 2.5276C2.0452 2.97805 2 3.44165 2 3.90575C2 5.96795 2.88975 7.8215 4.29915 9.11895C4.1112 9.7573 3.99955 10.4282 3.99955 11.1272C4.0001 12.7797 4.57955 14.3906 5.63055 15.6622L5.8498 15.9273L6.17595 15.8172C8.5097 15.0296 10.224 13.1117 10.7943 10.7945C13.1115 10.2242 15.0294 8.50985 15.817 6.1761L15.9271 5.84995L15.6621 5.6306ZM6.1858 14.748C5.4187 13.7024 5 12.4292 5 11.1252C5.00015 10.6695 5.0565 10.2274 5.1517 9.79965C6.28005 10.5569 7.63615 11 9.09425 11C9.29935 11 9.5027 10.9913 9.7041 10.974C9.1565 12.6671 7.88355 14.0645 6.1858 14.748ZM9.9414 9.9414C9.66355 9.97995 9.38085 10 9.09425 10C7.7363 10 6.48495 9.54805 5.47065 8.7942C5.90145 7.75455 6.60275 6.8537 7.4946 6.1922L6.8546 5.4272C5.92675 6.12245 5.18325 7.04245 4.6844 8.1001C3.64365 7.00635 3.00005 5.5312 3.00005 3.90575C3.00005 3.62155 3.0196 3.3379 3.0584 3.05835C3.33795 3.01955 3.62165 3 3.9058 3C7.26615 3 10 5.7339 10 9.09425C10 9.38085 9.98 9.6636 9.9414 9.9414Z" fill="currentColor"/>
<path d="M10 2C10.5523 2 11 1.55228 11 1C11 0.447715 10.5523 0 10 0C9.44772 0 9 0.447715 9 1C9 1.55228 9.44772 2 10 2Z" fill="currentColor"/>
<path d="M13.5 14C14.0523 14 14.5 13.5523 14.5 13C14.5 12.4477 14.0523 12 13.5 12C12.9477 12 12.5 12.4477 12.5 13C12.5 13.5523 12.9477 14 13.5 14Z" fill="currentColor"/>
<path d="M1 11C1.55228 11 2 10.5523 2 10C2 9.44772 1.55228 9 1 9C0.447715 9 0 9.44772 0 10C0 10.5523 0.447715 11 1 11Z" fill="currentColor"/>
</g>
<defs>
<clipPath id="clip0_1961_6498">
<rect width="16" height="16" fill="white"/>
</clipPath>
</defs>
</svg>
