<svg viewBox="0 0 16 16" fill="none" xmlns="http://www.w3.org/2000/svg">
<rect width="16" height="16" fill="white" fill-opacity="0.01" style="mix-blend-mode:multiply"/>
<path d="M10 8C10 7.65 9.9 7.3 9.7 7L11.35 5.35L10.65 4.65L9 6.3C8.7 6.1 8.35 6 8 6C7.65 6 7.3 6.1 7 6.3L5.35 4.65L4.65 5.35L6.3 7C6.1 7.3 6 7.65 6 8C6 8.35 6.1 8.7 6.3 9L4.65 10.65L5.35 11.35L7 9.7C7.3 9.9 7.65 10 8 10C8.35 10 8.7 9.9 9 9.7L10.65 11.35L11.35 10.65L9.7 9C9.9 8.7 10 8.35 10 8ZM8 9C7.45 9 7 8.55 7 8C7 7.45 7.45 7 8 7C8.55 7 9 7.45 9 8C9 8.55 8.55 9 8 9Z" fill="currentColor"/>
<path d="M13 8.5H16V7.5H14.95C14.7 3.85 11.7 1 8 1C4.15 1 1 4.15 1 8C1 11.85 4.15 15 8 15C10.6 15 12.85 13.6 14.05 11.5L13.2 11C12.15 12.8 10.25 14 8 14C4.7 14 2 11.3 2 8C2 4.7 4.7 2 8 2C11.15 2 13.7 4.45 13.95 7.5H13V8.5Z" fill="currentColor"/>
</svg>
