<svg viewBox="0 0 16 16" fill="none" xmlns="http://www.w3.org/2000/svg">
<rect width="16" height="16" fill="white" fill-opacity="0.01" style="mix-blend-mode:multiply"/>
<path d="M12.5 10.5C12.1302 10.5 11.7879 10.6078 11.4904 10.7835L10.4747 9.7678L9.76765 10.4748L10.7833 11.4906C10.6076 11.7881 10.5 12.1303 10.5 12.5C10.5 13.6028 11.3972 14.5 12.5 14.5C12.6778 14.5 12.8471 14.4693 13.0114 14.4254L11.793 13.207C11.6119 13.026 11.5 12.7758 11.5 12.5C11.5 11.9485 11.9485 11.5 12.5 11.5C12.7757 11.5 13.0257 11.6121 13.2068 11.7932L14.4254 13.0113C14.4691 12.8471 14.4999 12.6778 14.4999 12.5C14.4999 11.3972 13.6028 10.5 12.5 10.5Z" fill="currentColor"/>
<path d="M10.4747 6.23225L12.357 4.35C12.5525 4.4434 12.7688 4.5 13 4.5C13.8285 4.5 14.5 3.82845 14.5 3C14.5 2.17155 13.8285 1.5 13 1.5C12.1715 1.5 11.5 2.17155 11.5 3C11.5 3.2311 11.5566 3.4474 11.65 3.64295L9.7677 5.5252L10.4747 6.23225ZM13 2.50005C13.2757 2.50005 13.5 2.72435 13.5 3.00005C13.5 3.27575 13.2757 3.50005 13 3.50005C12.7243 3.50005 12.5 3.27575 12.5 3.00005C12.5 2.72435 12.7243 2.50005 13 2.50005Z" fill="currentColor"/>
<path d="M7.99995 6.00005C6.89535 6.00005 5.99995 6.89545 5.99995 8.00005C5.99995 8.3703 6.10745 8.71275 6.2828 9.0101L3.64305 11.65C3.4475 11.5566 3.23115 11.5 3 11.5C2.17155 11.5 1.5 12.1716 1.5 13C1.5 13.8285 2.17155 14.5 3 14.5C3.82845 14.5 4.5 13.8285 4.5 13C4.5 12.7689 4.4434 12.5526 4.35005 12.3571L6.99 9.7172C7.2874 9.89255 7.62975 10 8 10C9.10455 10 10 9.1046 10 8.00005C10 6.8955 9.1045 6.00005 7.99995 6.00005ZM2.99995 13.5C2.72425 13.5 2.49995 13.2757 2.49995 13C2.49995 12.7243 2.72425 12.5 2.99995 12.5C3.27565 12.5 3.49995 12.7243 3.49995 13C3.49995 13.2757 3.27565 13.5 2.99995 13.5ZM7.99995 9.00005C7.44855 9.00005 6.99995 8.55145 6.99995 8.00005C6.99995 7.44865 7.44855 7.00005 7.99995 7.00005C8.55135 7.00005 8.99995 7.44865 8.99995 8.00005C8.99995 8.55145 8.55135 9.00005 7.99995 9.00005Z" fill="currentColor"/>
<path d="M3.49995 5.50005C3.86975 5.50005 4.212 5.3923 4.5095 5.2166L5.52505 6.23215L6.2321 5.5251L5.21655 4.50955C5.39225 4.21205 5.49995 3.8698 5.49995 3.50005C5.49995 2.39725 4.60275 1.50005 3.49995 1.50005C3.3221 1.50005 3.1528 1.5308 2.98855 1.57465L4.20695 2.79305C4.388 2.9741 4.49995 3.22435 4.49995 3.5001C4.49995 4.0516 4.05145 4.5001 3.49995 4.5001C3.2242 4.5001 2.9742 4.388 2.79315 4.2069L1.57455 2.98875C1.5308 3.15295 1.5 3.32225 1.5 3.5001C1.5 4.6029 2.39715 5.50005 3.49995 5.50005Z" fill="currentColor"/>
</svg>
