<svg viewBox="0 0 16 16" fill="none" xmlns="http://www.w3.org/2000/svg">
<rect width="16" height="16" fill="white" fill-opacity="0.01" style="mix-blend-mode:multiply"/>
<path d="M13 9.99963C12.6622 10.0011 12.3351 10.1176 12.0724 10.33L11 9.71083V8.90748C11.3336 8.78953 11.6148 8.55745 11.7938 8.25224C11.9729 7.94703 12.0382 7.58836 11.9784 7.23961C11.9186 6.89087 11.7374 6.5745 11.4668 6.34643C11.1963 6.11836 10.8538 5.99327 10.5 5.99327C10.1462 5.99327 9.8037 6.11836 9.53317 6.34643C9.26264 6.5745 9.08144 6.89087 9.0216 7.23961C8.96177 7.58836 9.02715 7.94703 9.20618 8.25224C9.38522 8.55745 9.66639 8.78953 10 8.90748V9.71083L8.92755 10.33C8.66493 10.1176 8.33775 10.0011 8 9.99963C7.68659 9.99756 7.3803 10.0931 7.12361 10.2729C6.86692 10.4527 6.67255 10.708 6.56746 11.0033C6.46236 11.2986 6.45175 11.6192 6.5371 11.9208C6.62245 12.2224 6.79952 12.4899 7.04376 12.6863C7.28801 12.8827 7.58731 12.9983 7.90018 13.0169C8.21304 13.0356 8.52396 12.9564 8.7898 12.7904C9.05565 12.6244 9.26326 12.3798 9.38383 12.0905C9.5044 11.8012 9.53197 11.4815 9.4627 11.1759L10.5 10.577L11.5373 11.1759C11.4705 11.479 11.4994 11.7953 11.6201 12.0813C11.7407 12.3672 11.9472 12.6087 12.2109 12.7723C12.4747 12.9359 12.7827 13.0136 13.0925 12.9946C13.4022 12.9757 13.6985 12.8611 13.9404 12.6666C14.1822 12.4721 14.3578 12.2073 14.4427 11.9088C14.5277 11.6103 14.5179 11.2928 14.4147 11.0001C14.3115 10.7074 14.1199 10.4539 13.8665 10.2747C13.6131 10.0955 13.3104 9.99941 13 9.99963ZM8 11.9996C7.90111 11.9996 7.80444 11.9703 7.72221 11.9154C7.63999 11.8604 7.5759 11.7823 7.53806 11.691C7.50022 11.5996 7.49031 11.4991 7.50961 11.4021C7.5289 11.3051 7.57652 11.216 7.64645 11.1461C7.71637 11.0761 7.80546 11.0285 7.90245 11.0092C7.99945 10.9899 8.09998 10.9998 8.19134 11.0377C8.2827 11.0755 8.36079 11.1396 8.41574 11.2218C8.47068 11.3041 8.5 11.4007 8.5 11.4996C8.49992 11.6322 8.44722 11.7593 8.35347 11.8531C8.25972 11.9468 8.13258 11.9996 8 11.9996ZM10.5 6.99963C10.5989 6.99963 10.6956 7.02895 10.7778 7.08389C10.86 7.13884 10.9241 7.21692 10.9619 7.30829C10.9998 7.39965 11.0097 7.50018 10.9904 7.59717C10.9711 7.69417 10.9235 7.78326 10.8536 7.85318C10.7836 7.92311 10.6945 7.97073 10.5975 7.99002C10.5006 8.00931 10.4 7.99941 10.3087 7.96157C10.2173 7.92373 10.1392 7.85964 10.0843 7.77741C10.0293 7.69519 10 7.59852 10 7.49963C10.0001 7.36706 10.0528 7.23995 10.1466 7.14621C10.2403 7.05247 10.3674 6.99975 10.5 6.99963ZM13 11.9996C12.9011 11.9996 12.8044 11.9703 12.7222 11.9154C12.64 11.8604 12.5759 11.7823 12.5381 11.691C12.5002 11.5996 12.4903 11.4991 12.5096 11.4021C12.5289 11.3051 12.5765 11.216 12.6464 11.1461C12.7164 11.0761 12.8055 11.0285 12.9025 11.0092C12.9994 10.9899 13.1 10.9998 13.1913 11.0377C13.2827 11.0755 13.3608 11.1396 13.4157 11.2218C13.4707 11.3041 13.5 11.4007 13.5 11.4996C13.4999 11.6322 13.4472 11.7593 13.3535 11.8531C13.2597 11.9468 13.1326 11.9996 13 11.9996Z" fill="currentColor"/>
<path d="M8 15.4996C6.54182 15.498 5.14383 14.918 4.11274 13.8869C3.08165 12.8558 2.50165 11.4578 2.5 9.99963V3.19078L7.99365 0.44043L13.2239 3.05898L12.7761 3.95323L7.99365 1.55883L3.5 3.80848V9.99963C3.50008 10.8353 3.73282 11.6544 4.17214 12.3652C4.61147 13.0761 5.24003 13.6505 5.98742 14.0243C6.73481 14.3981 7.57151 14.5564 8.40379 14.4815C9.23607 14.4066 10.0311 14.1014 10.6997 13.6002L11.3003 14.3996C10.3498 15.1167 9.19068 15.5031 8 15.4996Z" fill="currentColor"/>
</svg>
