<svg viewBox="0 0 16 17" fill="none" xmlns="http://www.w3.org/2000/svg">
<rect width="16" height="16" transform="translate(0 0.513672)" fill="white" fill-opacity="0.01" style="mix-blend-mode:multiply"/>
<path d="M7.5 10.5137H4.5C4.10218 10.5137 3.72064 10.6717 3.43934 10.953C3.15804 11.2343 3 11.6158 3 12.0137V13.0137H4V12.0137C4 11.8811 4.05268 11.7539 4.14645 11.6601C4.24021 11.5663 4.36739 11.5137 4.5 11.5137H7.5C7.63261 11.5137 7.75979 11.5663 7.85355 11.6601C7.94732 11.7539 8 11.8811 8 12.0137V13.0137H9V12.0137C9 11.6158 8.84196 11.2343 8.56066 10.953C8.27936 10.6717 7.89782 10.5137 7.5 10.5137Z" fill="currentColor"/>
<path d="M6 10.0137C6.39556 10.0137 6.78224 9.89637 7.11114 9.67661C7.44004 9.45685 7.69638 9.14449 7.84776 8.77904C7.99913 8.41359 8.03874 8.01145 7.96157 7.62349C7.8844 7.23553 7.69392 6.87916 7.41421 6.59946C7.13451 6.31975 6.77814 6.12927 6.39018 6.0521C6.00222 5.97493 5.60009 6.01454 5.23463 6.16591C4.86918 6.31729 4.55682 6.57363 4.33706 6.90253C4.1173 7.23143 4 7.61811 4 8.01367C4 8.5441 4.21071 9.05281 4.58579 9.42789C4.96086 9.80296 5.46957 10.0137 6 10.0137ZM6 7.01367C6.19778 7.01367 6.39112 7.07232 6.55557 7.1822C6.72002 7.29208 6.84819 7.44826 6.92388 7.63099C6.99957 7.81371 7.01937 8.01478 6.98079 8.20876C6.9422 8.40274 6.84696 8.58093 6.70711 8.72078C6.56725 8.86063 6.38907 8.95587 6.19509 8.99446C6.00111 9.03304 5.80004 9.01324 5.61732 8.93755C5.43459 8.86186 5.27841 8.73369 5.16853 8.56924C5.05865 8.40479 5 8.21145 5 8.01367C5 7.74846 5.10536 7.4941 5.29289 7.30657C5.48043 7.11903 5.73478 7.01367 6 7.01367Z" fill="currentColor"/>
<path d="M14 10.0137V14.5137H2V4.51367H8V3.51367H2C1.73478 3.51367 1.48043 3.61903 1.29289 3.80657C1.10536 3.9941 1 4.24846 1 4.51367V14.5137C1 14.7789 1.10536 15.0332 1.29289 15.2208C1.48043 15.4083 1.73478 15.5137 2 15.5137H14C14.2652 15.5137 14.5196 15.4083 14.7071 15.2208C14.8946 15.0332 15 14.7789 15 14.5137V10.0137H14Z" fill="currentColor"/>
<path d="M13 10.0137H10V11.0137H13V10.0137Z" fill="currentColor"/>
<path d="M13 12.0137H11V13.0137H13V12.0137Z" fill="currentColor"/>
<path d="M16 5.51367V4.51367H14.9494C14.885 4.2007 14.7607 3.90311 14.5835 3.63722L15.3285 2.89222L14.6215 2.18522L13.8765 2.93022C13.6106 2.75298 13.313 2.6287 13 2.56422V1.51367H12V2.56422C11.687 2.62869 11.3894 2.75295 11.1236 2.93017L10.3785 2.18517L9.67155 2.89217L10.4165 3.63717C10.2393 3.90307 10.115 4.20068 10.0506 4.51367H9V5.51367H10.0506C10.115 5.82664 10.2393 6.12423 10.4165 6.39012L9.6715 7.13512L10.3785 7.84212L11.1235 7.09712C11.3894 7.27437 11.687 7.39864 12 7.46312V8.51367H13V7.46312C13.313 7.39865 13.6106 7.27439 13.8764 7.09717L14.6215 7.84217L15.3285 7.13517L14.5835 6.39017C14.7607 6.12427 14.885 5.82666 14.9494 5.51367H16ZM12.5 6.51367C12.2033 6.51367 11.9133 6.4257 11.6666 6.26088C11.42 6.09605 11.2277 5.86179 11.1142 5.5877C11.0006 5.31361 10.9709 5.01201 11.0288 4.72104C11.0867 4.43006 11.2296 4.16279 11.4393 3.95301C11.6491 3.74323 11.9164 3.60037 12.2074 3.54249C12.4983 3.48462 12.7999 3.51432 13.074 3.62785C13.3481 3.74138 13.5824 3.93364 13.7472 4.18032C13.912 4.42699 14 4.717 14 5.01367C13.9996 5.41136 13.8414 5.79264 13.5602 6.07385C13.279 6.35506 12.8977 6.51324 12.5 6.51367Z" fill="currentColor"/>
</svg>
