<svg viewBox="0 0 16 17" fill="none" xmlns="http://www.w3.org/2000/svg">
<rect width="16" height="16" transform="translate(0 0.513672)" fill="white" fill-opacity="0.01" style="mix-blend-mode:multiply"/>
<path d="M14 3.51367V13.5137H2V3.51367H14ZM14 2.51367H2C1.73478 2.51367 1.48043 2.61903 1.29289 2.80657C1.10536 2.9941 1 3.24846 1 3.51367V13.5137C1 13.7789 1.10536 14.0332 1.29289 14.2208C1.48043 14.4083 1.73478 14.5137 2 14.5137H14C14.2652 14.5137 14.5196 14.4083 14.7071 14.2208C14.8946 14.0332 15 13.7789 15 13.5137V3.51367C15 3.24846 14.8946 2.9941 14.7071 2.80657C14.5196 2.61903 14.2652 2.51367 14 2.51367Z" fill="currentColor"/>
<path d="M6.5 5.51367H3V6.51367H6.5V5.51367Z" fill="currentColor"/>
<path d="M5 7.51367H3V8.51367H5V7.51367Z" fill="currentColor"/>
<path d="M11.5 9.51367H8.5C8.10218 9.51367 7.72064 9.67171 7.43934 9.95301C7.15804 10.2343 7 10.6158 7 11.0137V12.0137H8V11.0137C8 10.8811 8.05268 10.7539 8.14645 10.6601C8.24021 10.5663 8.36739 10.5137 8.5 10.5137H11.5C11.6326 10.5137 11.7598 10.5663 11.8536 10.6601C11.9473 10.7539 12 10.8811 12 11.0137V12.0137H13V11.0137C13 10.6158 12.842 10.2343 12.5607 9.95301C12.2794 9.67171 11.8978 9.51367 11.5 9.51367Z" fill="currentColor"/>
<path d="M10 9.01367C10.3956 9.01367 10.7822 8.89637 11.1111 8.67661C11.44 8.45685 11.6964 8.14449 11.8478 7.77904C11.9991 7.41359 12.0387 7.01145 11.9616 6.62349C11.8844 6.23553 11.6939 5.87916 11.4142 5.59946C11.1345 5.31975 10.7781 5.12927 10.3902 5.0521C10.0022 4.97493 9.60009 5.01454 9.23463 5.16591C8.86918 5.31729 8.55682 5.57363 8.33706 5.90253C8.1173 6.23143 8 6.61811 8 7.01367C8 7.5441 8.21071 8.05281 8.58579 8.42789C8.96086 8.80296 9.46957 9.01367 10 9.01367ZM10 6.01367C10.1978 6.01367 10.3911 6.07232 10.5556 6.1822C10.72 6.29208 10.8482 6.44826 10.9239 6.63099C10.9996 6.81371 11.0194 7.01478 10.9808 7.20876C10.9422 7.40274 10.847 7.58093 10.7071 7.72078C10.5673 7.86063 10.3891 7.95587 10.1951 7.99446C10.0011 8.03304 9.80004 8.01324 9.61732 7.93755C9.43459 7.86186 9.27841 7.73369 9.16853 7.56924C9.05865 7.40479 9 7.21145 9 7.01367C9 6.74846 9.10536 6.4941 9.29289 6.30657C9.48043 6.11903 9.73478 6.01367 10 6.01367Z" fill="currentColor"/>
</svg>
