<svg viewBox="0 0 16 16" fill="none" xmlns="http://www.w3.org/2000/svg">
<rect width="16" height="16" fill="white" fill-opacity="0.01" style="mix-blend-mode:multiply"/>
<path d="M5 6.5L5.7 5.8L7.5 7.6V1H8.5V7.6L10.3 5.8L11 6.5L8 9.5L5 6.5Z" fill="currentColor"/>
<path d="M10 1.4V2.5C11.5 3.25 12.5 4.75 12.5 6.5C12.5 7.5 12.2 8.4 11.6 9.2C11.6 9.2 11.5 9.35 11.45 9.4L8 13.45L4.55 9.4C4.5 9.35 4.4 9.2 4.4 9.2C3.8 8.4 3.5 7.5 3.5 6.5C3.5 4.75 4.5 3.2 6 2.5V1.4C3.95 2.2 2.5 4.15 2.5 6.5C2.5 7.7 2.9 8.85 3.6 9.8C3.6 9.8 3.75 10 3.75 10.05L8 15L12.2 10C12.2 9.95 12.35 9.8 12.35 9.8C13.05 8.85 13.45 7.7 13.45 6.5C13.5 4.15 12.05 2.2 10 1.4Z" fill="currentColor"/>
</svg>
