<svg viewBox="0 0 16 16" fill="none" xmlns="http://www.w3.org/2000/svg">
<rect width="16" height="16" fill="white" fill-opacity="0.01" style="mix-blend-mode:multiply"/>
<path d="M11.5 11.5C8.6721 11.5 7.57115 8.29455 7.52565 8.15815C7.517 8.13245 6.6039 5.5 4.5 5.5C3.12145 5.5 2 6.6215 2 8C2 9.3785 3.12145 10.5 4.5 10.5C5.2938 10.5 6.0067 10.1339 6.61865 9.4118L7.3816 10.0584C6.58215 11.0015 5.5858 11.5 4.5 11.5C2.57005 11.5 1 9.92995 1 8C1 6.07005 2.57005 4.5 4.5 4.5C7.3279 4.5 8.42885 7.70545 8.47435 7.84185C8.483 7.86755 9.3961 10.5 11.5 10.5C12.8786 10.5 14 9.3785 14 8C14 6.6215 12.8786 5.5 11.5 5.5C10.7062 5.5 9.9933 5.8661 9.38135 6.5882L8.6184 5.9416C9.41785 4.9985 10.4142 4.5 11.5 4.5C13.4299 4.5 15 6.07005 15 8C15 9.92995 13.4299 11.5 11.5 11.5Z" fill="currentColor"/>
</svg>
