<svg viewBox="0 0 16 16" fill="none" xmlns="http://www.w3.org/2000/svg">
<rect width="16" height="16" fill="white" fill-opacity="0.01" style="mix-blend-mode:multiply"/>
<path d="M15 13.0003H9.00004V14.0003H15V13.0003Z" fill="currentColor"/>
<path d="M15 10.5003H9.00004V11.5003H15V10.5003Z" fill="currentColor"/>
<path d="M15 8.00025H9.00004V9.00025H15V8.00025Z" fill="currentColor"/>
<path d="M7.00004 12.5003H4.75004C3.81306 12.5007 2.9099 12.1502 2.21851 11.5178C1.52712 10.8855 1.09764 10.0171 1.01472 9.08379C0.93179 8.1505 1.20142 7.21999 1.77048 6.47562C2.33954 5.73125 3.16676 5.22701 4.08914 5.06225C4.32298 3.8402 5.00406 2.74923 5.99931 2.00251C6.99455 1.25579 8.23245 0.906974 9.47115 1.02421C10.7098 1.14144 11.8603 1.71631 12.6978 2.63648C13.5353 3.55665 13.9996 4.75602 14 6.00025H13C13.0002 4.97711 12.6083 3.9928 11.9048 3.24982C11.2014 2.50685 10.24 2.06171 9.21836 2.00599C8.19673 1.95027 7.1926 2.28819 6.41253 2.95025C5.63246 3.61232 5.13579 4.54816 5.02469 5.56525L4.97969 5.982L4.56154 6.01025C3.84993 6.05812 3.18481 6.38077 2.70672 6.91002C2.22863 7.43927 1.97503 8.13366 1.9995 8.84646C2.02398 9.55925 2.32461 10.2346 2.83787 10.7298C3.35114 11.225 4.03682 11.5013 4.75004 11.5003H7.00004V12.5003Z" fill="currentColor"/>
</svg>
