<svg viewBox="0 0 16 17" fill="none" xmlns="http://www.w3.org/2000/svg">
<g clip-path="url(#clip0_1961_10560)">
<rect width="16" height="16" transform="translate(0 0.513672)" fill="white" fill-opacity="0.01" style="mix-blend-mode:multiply"/>
<path d="M6 3.01367C5.99956 2.61598 5.84139 2.2347 5.56018 1.95349C5.27897 1.67228 4.89769 1.51411 4.5 1.51367H2V8.01367H4.5C4.89769 8.01324 5.27897 7.85506 5.56018 7.57385C5.84139 7.29264 5.99956 6.91136 6 6.51367V5.76367C5.99889 5.39344 5.85984 5.0369 5.61 4.76367C5.85985 4.49045 5.9989 4.13391 6 3.76367V3.01367ZM3 2.51367H4.5C4.63256 2.51384 4.75963 2.56658 4.85336 2.66031C4.94709 2.75404 4.99983 2.88112 5 3.01367V3.78932C4.99939 3.85363 4.98585 3.91715 4.96018 3.97611C4.93451 4.03507 4.89724 4.08826 4.85059 4.13252C4.80393 4.17678 4.74885 4.2112 4.68862 4.23373C4.62839 4.25626 4.56425 4.26644 4.5 4.26367H3V2.51367ZM5 6.51367C4.99988 6.64624 4.94716 6.77335 4.85342 6.86709C4.75968 6.96084 4.63257 7.01355 4.5 7.01367H3V5.26367H4.5C4.63257 5.26379 4.75968 5.31651 4.85342 5.41025C4.94716 5.50399 4.99988 5.6311 5 5.76367V6.51367Z" fill="currentColor"/>
<path d="M11 3.01367H10L9 4.96217L8 3.01367H7L8.4525 5.51367L7 8.01367H8L9 6.11417L10 8.01367H11L9.549 5.51367L11 3.01367Z" fill="currentColor"/>
<path d="M4.5 14.5137C4.77614 14.5137 5 14.2898 5 14.0137C5 13.7375 4.77614 13.5137 4.5 13.5137C4.22386 13.5137 4 13.7375 4 14.0137C4 14.2898 4.22386 14.5137 4.5 14.5137Z" fill="currentColor"/>
<path d="M3 9.51367H1V10.5137H3V9.51367Z" fill="currentColor"/>
<path d="M6 9.51367H4V10.5137H6V9.51367Z" fill="currentColor"/>
<path d="M9 9.51367H7V10.5137H9V9.51367Z" fill="currentColor"/>
<path d="M12 9.51367H10V10.5137H12V9.51367Z" fill="currentColor"/>
<path d="M15 9.51367H13V10.5137H15V9.51367Z" fill="currentColor"/>
<path d="M13 16.0137H3C2.73487 16.0134 2.48068 15.9079 2.2932 15.7205C2.10572 15.533 2.00028 15.2788 2 15.0137V13.0137C2.00028 12.7485 2.10572 12.4943 2.2932 12.3069C2.48068 12.1194 2.73487 12.0139 3 12.0137H13C13.2651 12.0139 13.5193 12.1194 13.7068 12.3069C13.8943 12.4943 13.9997 12.7485 14 13.0137V15.0137C13.9997 15.2788 13.8943 15.533 13.7068 15.7205C13.5193 15.9079 13.2651 16.0134 13 16.0137ZM3 13.0137V15.0137H13V13.0137H3Z" fill="currentColor"/>
</g>
<defs>
<clipPath id="clip0_1961_10560">
<rect width="16" height="16" fill="white" transform="translate(0 0.513672)"/>
</clipPath>
</defs>
</svg>
