<svg viewBox="0 0 16 17" fill="none" xmlns="http://www.w3.org/2000/svg">
<rect width="16" height="16" transform="translate(0 0.513672)" fill="white" fill-opacity="0.01" style="mix-blend-mode:multiply"/>
<path d="M3.5 12.5137C3.77614 12.5137 4 12.2898 4 12.0137C4 11.7375 3.77614 11.5137 3.5 11.5137C3.22386 11.5137 3 11.7375 3 12.0137C3 12.2898 3.22386 12.5137 3.5 12.5137Z" fill="currentColor"/>
<path d="M3 3.51367H1V4.51367H3V3.51367Z" fill="currentColor"/>
<path d="M6 3.51367H4V4.51367H6V3.51367Z" fill="currentColor"/>
<path d="M9 3.51367H7V4.51367H9V3.51367Z" fill="currentColor"/>
<path d="M12 3.51367H10V4.51367H12V3.51367Z" fill="currentColor"/>
<path d="M15 3.51367H13V4.51367H15V3.51367Z" fill="currentColor"/>
<path d="M14 14.5137H2C1.73487 14.5134 1.48068 14.4079 1.2932 14.2205C1.10572 14.033 1.00028 13.7788 1 13.5137V10.5137C1.00028 10.2485 1.10572 9.99435 1.2932 9.80687C1.48068 9.6194 1.73487 9.51395 2 9.51367H14C14.2651 9.51395 14.5193 9.6194 14.7068 9.80687C14.8943 9.99435 14.9997 10.2485 15 10.5137V13.5137C14.9997 13.7788 14.8943 14.033 14.7068 14.2205C14.5193 14.4079 14.2651 14.5134 14 14.5137ZM2 10.5137V13.5137H14V10.5137H2Z" fill="currentColor"/>
<path d="M15 6.51367H1V7.51367H15V6.51367Z" fill="currentColor"/>
</svg>
