<svg viewBox="0 0 16 17" fill="none" xmlns="http://www.w3.org/2000/svg">
<g clip-path="url(#clip0_1961_10561)">
<rect width="16" height="16" transform="translate(0 0.513672)" fill="white" fill-opacity="0.01" style="mix-blend-mode:multiply"/>
<path d="M11.7501 11.0137H11.5001V10.0137H11.7501C12.3312 10.014 12.8899 9.78922 13.3089 9.38661C13.728 8.98401 13.9749 8.43481 13.998 7.85414C14.021 7.27348 13.8184 6.70643 13.4325 6.27189C13.0467 5.83734 12.5076 5.56904 11.9283 5.52322L11.5206 5.49127L11.4713 5.08527C11.3675 4.23781 10.9572 3.45762 10.3178 2.89179C9.67843 2.32596 8.85413 2.0136 8.00034 2.0136C7.14654 2.0136 6.32224 2.32596 5.68287 2.89179C5.04349 3.45762 4.63321 4.23781 4.52939 5.08527L4.47984 5.49127L4.07209 5.52322C3.49279 5.56904 2.95372 5.83733 2.56787 6.27185C2.18203 6.70637 1.97938 7.27339 2.00239 7.85404C2.02541 8.43469 2.27231 8.98389 2.69134 9.38651C3.11036 9.78913 3.66898 10.0139 4.25009 10.0137H4.50009V11.0137H4.25009C3.4448 11.0141 2.66808 10.7153 2.07059 10.1754C1.4731 9.6355 1.09744 8.89292 1.01647 8.09171C0.935501 7.2905 1.155 6.48778 1.63238 5.83924C2.10976 5.19071 2.81101 4.74259 3.60009 4.58182C3.81315 3.57268 4.3666 2.66744 5.1677 2.01781C5.9688 1.36819 6.96885 1.01367 8.00024 1.01367C9.03163 1.01367 10.0317 1.36819 10.8328 2.01781C11.6339 2.66744 12.1873 3.57268 12.4004 4.58182C13.1894 4.74271 13.8905 5.19088 14.3678 5.83942C14.8451 6.48797 15.0645 7.29066 14.9835 8.09182C14.9025 8.89298 14.5269 9.6355 13.9294 10.1754C13.332 10.7153 12.5553 11.014 11.7501 11.0137Z" fill="currentColor"/>
<path d="M4.50009 14.5137C4.77623 14.5137 5.00009 14.2899 5.00009 14.0137C5.00009 13.7376 4.77623 13.5137 4.50009 13.5137C4.22394 13.5137 4.00009 13.7376 4.00009 14.0137C4.00009 14.2899 4.22394 14.5137 4.50009 14.5137Z" fill="currentColor"/>
<path d="M13.0001 12.0137H8.50009V8.42872L9.79509 9.71872L10.5001 9.01372L8.00009 6.51372L5.50009 9.01372L6.20509 9.71872L7.50009 8.42872V12.0137H3.00009C2.73496 12.014 2.48079 12.1195 2.29332 12.307C2.10585 12.4944 2.00039 12.7486 2.00009 13.0137V15.0137C2.00039 15.2788 2.10585 15.533 2.29332 15.7205C2.48079 15.908 2.73496 16.0134 3.00009 16.0137H13.0001C13.2652 16.0134 13.5194 15.908 13.7069 15.7205C13.8943 15.533 13.9998 15.2788 14.0001 15.0137V13.0137C13.9998 12.7486 13.8943 12.4944 13.7069 12.307C13.5194 12.1195 13.2652 12.014 13.0001 12.0137ZM13.0001 15.0137H3.00009V13.0137H13.0001V15.0137Z" fill="currentColor"/>
</g>
<defs>
<clipPath id="clip0_1961_10561">
<rect width="16" height="16" fill="white" transform="translate(0 0.513672)"/>
</clipPath>
</defs>
</svg>
