<svg viewBox="0 0 16 17" fill="none" xmlns="http://www.w3.org/2000/svg">
<rect width="16" height="16" transform="translate(0 0.513672)" fill="white" fill-opacity="0.01" style="mix-blend-mode:multiply"/>
<path d="M14.9402 8.27367L11.9402 2.77367C11.897 2.69477 11.8333 2.62897 11.7559 2.58321C11.6784 2.53745 11.5901 2.51343 11.5002 2.51367H4.50015C4.41021 2.51343 4.32186 2.53745 4.24442 2.58321C4.16699 2.62897 4.10333 2.69477 4.06015 2.77367L1.06015 8.27367C1.01627 8.34968 0.993164 8.43591 0.993164 8.52367C0.993164 8.61144 1.01627 8.69766 1.06015 8.77367L4.06015 14.2737C4.10588 14.3489 4.17065 14.4106 4.24791 14.4528C4.32517 14.4949 4.41218 14.5159 4.50015 14.5137H11.5002C11.5901 14.5139 11.6784 14.4899 11.7559 14.4441C11.8333 14.3984 11.897 14.3326 11.9402 14.2537L14.9402 8.75367C14.9804 8.68009 15.0015 8.59755 15.0015 8.51367C15.0015 8.42979 14.9804 8.34726 14.9402 8.27367V8.27367ZM11.4652 4.01367L13.6602 8.01367H8.91015L11.4652 4.01367ZM8.00015 7.58367L5.41015 3.51367H10.5902L8.00015 7.58367ZM4.53515 4.01367L7.09015 8.01367H2.34015L4.53515 4.01367ZM2.34015 9.01367H7.09015L4.53515 13.0137L2.34015 9.01367ZM8.00015 9.44367L10.5902 13.5137H5.41015L8.00015 9.44367ZM11.4652 13.0137L8.91015 9.01367H13.6602L11.4652 13.0137Z" fill="currentColor"/>
</svg>
