<svg viewBox="0 0 16 17" fill="none" xmlns="http://www.w3.org/2000/svg">
<rect width="16" height="16" transform="translate(0 0.513672)" fill="white" fill-opacity="0.01" style="mix-blend-mode:multiply"/>
<path d="M9.1621 6.38037V7.02537H8.5V7.89377H9.1621V11.5136H10.2627V7.89377H11.1826V7.02537H10.2627V6.02782H11.1826V5.15087H10.4002C9.5918 5.15087 9.1621 5.58937 9.1621 6.38037Z" fill="currentColor"/>
<path d="M5 6.42332H5.791V10.6023H5V11.5137H7.7258V10.6023H6.92625V6.42332H7.7258V5.51197H5V6.42332Z" fill="currentColor"/>
<path d="M10.5 15.5137H5.5C3.0187 15.5137 1 13.495 1 11.0137V6.01367C1 3.53237 3.0187 1.51367 5.5 1.51367H10.5C12.9813 1.51367 15 3.53237 15 6.01367V11.0137C15 13.495 12.9813 15.5137 10.5 15.5137ZM5.5 2.51367C3.57005 2.51367 2 4.08372 2 6.01367V11.0137C2 12.9436 3.57005 14.5137 5.5 14.5137H10.5C12.4299 14.5137 14 12.9436 14 11.0137V6.01367C14 4.08372 12.4299 2.51367 10.5 2.51367H5.5Z" fill="currentColor"/>
</svg>
