<svg viewBox="0 0 16 17" fill="none" xmlns="http://www.w3.org/2000/svg">
<rect width="16" height="16" transform="translate(0 0.513672)" fill="white" fill-opacity="0.01" style="mix-blend-mode:multiply"/>
<path d="M9.25 12.5137C9.66421 12.5137 10 12.1779 10 11.7637C10 11.3495 9.66421 11.0137 9.25 11.0137C8.83579 11.0137 8.5 11.3495 8.5 11.7637C8.5 12.1779 8.83579 12.5137 9.25 12.5137Z" fill="currentColor"/>
<path d="M11.75 12.5137C12.1642 12.5137 12.5 12.1779 12.5 11.7637C12.5 11.3495 12.1642 11.0137 11.75 11.0137C11.3358 11.0137 11 11.3495 11 11.7637C11 12.1779 11.3358 12.5137 11.75 12.5137Z" fill="currentColor"/>
<path d="M14.25 12.5137C14.6642 12.5137 15 12.1779 15 11.7637C15 11.3495 14.6642 11.0137 14.25 11.0137C13.8358 11.0137 13.5 11.3495 13.5 11.7637C13.5 12.1779 13.8358 12.5137 14.25 12.5137Z" fill="currentColor"/>
<path d="M7.7 15.5137L2.5 12.4137C2.2 12.2137 2 11.9137 2 11.5637V5.46367C2 5.11367 2.2 4.76367 2.5 4.61367L7.5 1.66367C7.65 1.56367 7.8 1.51367 8 1.51367C8.2 1.51367 8.35 1.56367 8.5 1.66367L13.5 4.61367C13.8 4.81367 14 5.11367 14 5.46367V8.51367H13V5.46367L8 2.51367L3 5.46367V11.5637L8.25 14.6637L7.7 15.5137Z" fill="currentColor"/>
</svg>
