<svg viewBox="0 0 16 17" fill="none" xmlns="http://www.w3.org/2000/svg">
<rect width="16" height="16" transform="translate(0 0.513672)" fill="white" fill-opacity="0.01" style="mix-blend-mode:multiply"/>
<path d="M13.5 10.5137C13.1 10.5137 12.75 10.6637 12.45 10.9637L12.25 11.2137L12.05 10.9637C11.75 10.6637 11.35 10.5137 11 10.5137C10.65 10.5137 10.25 10.6637 9.95 10.9637C9.35 11.5637 9.35 12.5137 9.95 13.1137L12.25 15.5137L14.55 13.1137C15.15 12.5137 15.15 11.5637 14.55 10.9637C14.3 10.6637 13.9 10.5137 13.5 10.5137Z" fill="currentColor"/>
<path d="M8.3 14.8137L2 8.51367L8 2.51367L14.3 8.81367L15 8.11367L8.75 1.81367C8.35 1.41367 7.7 1.41367 7.3 1.81367L1.3 7.76367C0.9 8.16367 0.9 8.81367 1.3 9.21367L7.55 15.5137L8.3 14.8137Z" fill="currentColor"/>
</svg>
