<svg viewBox="0 0 16 16" fill="none" xmlns="http://www.w3.org/2000/svg">
<rect width="16" height="16" fill="white" fill-opacity="0.01" style="mix-blend-mode:multiply"/>
<path d="M9.99997 3.00009C9.3109 2.99987 8.62931 3.14279 7.99837 3.41979C8.89033 3.80807 9.64952 4.44833 10.1827 5.26199C10.7159 6.07565 11 7.02729 11 8.00009C11 8.9729 10.7159 9.92454 10.1827 10.7382C9.64952 11.5519 8.89033 12.1921 7.99837 12.5804C8.67949 12.8781 9.41844 13.0202 10.1614 12.9963C10.9044 12.9724 11.6327 12.7831 12.2932 12.4423C12.9538 12.1014 13.5301 11.6175 13.9801 11.0258C14.43 10.4342 14.7424 9.74957 14.8944 9.02193C15.0465 8.2943 15.0343 7.54192 14.8589 6.81957C14.6834 6.09722 14.3491 5.42308 13.8803 4.84624C13.4114 4.2694 12.8198 3.80437 12.1486 3.485C11.4773 3.16564 10.7433 2.99998 9.99997 3.00009Z" fill="currentColor"/>
<path d="M4.99997 8.00009C4.99961 8.74937 5.16806 9.48911 5.49281 10.1644C5.81756 10.8396 6.29027 11.433 6.87582 11.9005C7.76228 11.7021 8.55473 11.2077 9.12261 10.4987C9.69049 9.78976 9.99992 8.90847 9.99992 8.00009C9.99992 7.09171 9.69049 6.21043 9.12261 5.50144C8.55473 4.79245 7.76228 4.29805 6.87582 4.09969C6.29027 4.56719 5.81756 5.16059 5.49281 5.83584C5.16806 6.51108 4.99961 7.25081 4.99997 8.00009Z" fill="currentColor"/>
<path d="M5.99997 12.0001C5.43656 12.0017 4.87917 11.8842 4.36432 11.6554C3.84946 11.4266 3.38875 11.0916 3.01236 10.6723C2.63597 10.2531 2.3524 9.75904 2.18021 9.22258C2.00802 8.68613 1.9511 8.11935 2.01318 7.55936C2.07526 6.99938 2.25494 6.45883 2.54045 5.97312C2.82596 5.4874 3.21086 5.06748 3.66993 4.74086C4.12901 4.41423 4.65191 4.18827 5.20438 4.07778C5.75685 3.96729 6.32643 3.97476 6.87582 4.09969C7.21842 3.82457 7.59587 3.59603 7.99837 3.41979C7.2374 3.08665 6.40542 2.94825 5.5776 3.01729C4.74978 3.08634 3.9522 3.36054 3.25693 3.81514C2.56166 4.26973 1.99061 4.8904 1.59537 5.62104C1.20013 6.35169 0.993164 7.1693 0.993164 7.99999C0.993164 8.83069 1.20013 9.6483 1.59537 10.3789C1.99061 11.1096 2.56166 11.7303 3.25693 12.1848C3.9522 12.6394 4.74978 12.9137 5.5776 12.9827C6.40542 13.0517 7.2374 12.9135 7.99837 12.5804C7.59587 12.4042 7.21842 12.1756 6.87582 11.9005C6.58846 11.966 6.29471 11.9993 5.99997 12.0001Z" fill="currentColor"/>
</svg>
