<svg viewBox="0 0 16 16" fill="none" xmlns="http://www.w3.org/2000/svg">
<rect width="16" height="16" fill="white" fill-opacity="0.01" style="mix-blend-mode:multiply"/>
<path d="M10.1667 15H8.83325C8.3738 15 8 14.6262 8 14.1667V13H9V14H10V10H11V14.1667C11 14.6262 10.6262 15 10.1667 15Z" fill="currentColor"/>
<path d="M14.1667 15H12V14H14V13H13C12.4485 13 12 12.5515 12 12V10.8333C12 10.3738 12.3738 10 12.8333 10H15V11H13V12H14C14.5515 12 15 12.4485 15 13V14.1667C15 14.6262 14.6262 15 14.1667 15Z" fill="currentColor"/>
<path d="M8 9C7.5858 9 7.25 9.3358 7.25 9.75C7.25 10.1642 7.5858 10.5 8 10.5C8.4142 10.5 8.75 10.1642 8.75 9.75C8.75 9.3358 8.4142 9 8 9Z" fill="currentColor"/>
<path d="M8.5 3.5H7.5V8H8.5V3.5Z" fill="currentColor"/>
<path d="M7 13H4.75C4.5731 13 4.40955 12.9066 4.3196 12.7544L1.0696 7.2544C1.0232 7.17595 1 7.08795 1 7C1 6.91205 1.0232 6.82405 1.0696 6.7456L4.3196 1.2456C4.40955 1.0934 4.57315 1 4.75 1H11.25C11.4269 1 11.5904 1.0934 11.6804 1.2456L14.9304 6.7456C14.9768 6.82405 15 6.912 15 7C15 7.088 14.9768 7.17595 14.9304 7.2544L13.9304 8.94665L13.0695 8.438L13.9192 7L10.9647 2H5.03525L2.0808 7L5.03525 12H6.99995L7 13Z" fill="currentColor"/>
</svg>
