<svg viewBox="0 0 16 16" fill="none" xmlns="http://www.w3.org/2000/svg">
<rect width="16" height="16" fill="white" fill-opacity="0.01" style="mix-blend-mode:multiply"/>
<path d="M12.5 4.99998C11.9846 5.01374 11.4848 4.82274 11.1099 4.46879C10.7351 4.11484 10.5158 3.62679 10.5 3.11148C10.5093 2.74358 10.6226 2.38582 10.8266 2.07953L12.085 0.207034C12.1333 0.142737 12.196 0.0905642 12.268 0.0546339C12.3399 0.0187035 12.4193 0 12.4998 0C12.5802 0 12.6596 0.0187035 12.7316 0.0546339C12.8035 0.0905642 12.8662 0.142737 12.9146 0.207034L14.1577 2.05498C14.37 2.3674 14.4887 2.73392 14.5 3.11148C14.4842 3.62679 14.2648 4.11484 13.89 4.46879C13.5151 4.82274 13.0153 5.01374 12.5 4.99998ZM12.5 1.38158L11.6719 2.61283C11.5684 2.75937 11.5088 2.93232 11.5 3.11148C11.529 3.35632 11.6468 3.582 11.8311 3.74575C12.0154 3.90951 12.2534 3.99996 12.5 3.99996C12.7465 3.99996 12.9845 3.90951 13.1688 3.74575C13.3531 3.582 13.4709 3.35632 13.5 3.11148C13.4887 2.92272 13.4237 2.74113 13.3125 2.58818L12.5 1.38158Z" fill="currentColor"/>
<path d="M14.9927 7.91498C14.8429 7.06024 14.5352 6.24088 14.0853 5.49883L13.2164 6.00048C13.4318 6.35009 13.6111 6.72074 13.7514 7.10668C13.5072 7.03596 13.2542 7.00004 13 6.99998C12.2885 7.0021 11.597 7.23609 11.0305 7.66648C11.0346 6.04942 10.4987 4.47726 9.50766 3.19943C9.20675 2.83298 8.86908 2.49832 8.49996 2.20068V0.999984H7.49996V2.02318C5.91954 2.15192 4.42599 2.79946 3.25174 3.86503C2.07749 4.93061 1.2884 6.35445 1.00726 7.91498C0.991045 8.0091 1.00212 8.10588 1.03918 8.1939C1.07624 8.28191 1.13773 8.35748 1.21638 8.41165C1.29503 8.46582 1.38754 8.49633 1.48299 8.49958C1.57843 8.50283 1.67281 8.47868 1.75496 8.42998C2.1224 8.17465 2.55326 8.02584 2.99996 7.99998C3.42461 8.01027 3.83916 8.13156 4.20238 8.3518C4.56559 8.57204 4.86481 8.88355 5.07026 9.25533C5.11791 9.3254 5.18198 9.38276 5.25687 9.4224C5.33177 9.46204 5.41522 9.48276 5.49996 9.48276C5.5847 9.48276 5.66815 9.46204 5.74305 9.4224C5.81794 9.38276 5.88201 9.3254 5.92966 9.25533C6.09734 8.96083 6.32291 8.70334 6.59279 8.49838C6.86267 8.29341 7.17126 8.14522 7.49996 8.06273V12.75C7.49996 13.0815 7.36826 13.3994 7.13384 13.6339C6.89942 13.8683 6.58148 14 6.24996 14C5.91844 14 5.6005 13.8683 5.36608 13.6339C5.13166 13.3994 4.99996 13.0815 4.99996 12.75V12.5H3.99996V12.75C3.99996 13.3467 4.23701 13.919 4.65897 14.341C5.08093 14.7629 5.65322 15 6.24996 15C6.8467 15 7.41899 14.7629 7.84095 14.341C8.26291 13.919 8.49996 13.3467 8.49996 12.75V8.06273C8.82866 8.14522 9.13725 8.29341 9.40712 8.49838C9.677 8.70334 9.90258 8.96083 10.0703 9.25533C10.1145 9.32988 10.1774 9.39163 10.2527 9.43452C10.3281 9.47742 10.4133 9.49997 10.5 9.49997C10.5866 9.49997 10.6719 9.47742 10.7472 9.43452C10.8225 9.39163 10.8854 9.32988 10.9297 9.25533C11.1351 8.88355 11.4343 8.57204 11.7975 8.3518C12.1608 8.13156 12.5753 8.01027 13 7.99998C13.4467 8.02584 13.8775 8.17465 14.245 8.42998C14.3271 8.47873 14.4215 8.50291 14.517 8.49969C14.6124 8.49646 14.705 8.46595 14.7837 8.41177C14.8623 8.35759 14.9239 8.28201 14.9609 8.19397C14.998 8.10593 15.0089 8.00912 14.9927 7.91498ZM4.96946 7.66648C4.40289 7.23609 3.71146 7.0021 2.99996 6.99998C2.74562 7.00002 2.49256 7.03594 2.24826 7.10668C2.58759 6.16112 3.15088 5.3118 3.88996 4.63136C4.62904 3.95093 5.52193 3.45961 6.49226 3.19943C5.50119 4.47723 4.96524 6.0494 4.96946 7.66648ZM7.99996 6.99998C7.26266 7.00343 6.54807 7.25546 5.97176 7.71533C5.99066 6.60533 6.27621 4.47033 7.99996 3.12718C9.71531 4.46558 10.0045 6.60153 10.0261 7.71358C9.45009 7.25476 8.73633 7.00338 7.99996 6.99998Z" fill="currentColor"/>
</svg>
