<svg viewBox="0 0 16 17" fill="none" xmlns="http://www.w3.org/2000/svg">
<rect width="16" height="16" transform="translate(0 0.513672)" fill="white" fill-opacity="0.01" style="mix-blend-mode:multiply"/>
<path d="M11.4756 10.5137H10.3834C10.1764 9.93312 9.62659 9.51367 8.97559 9.51367C8.32459 9.51367 7.77479 9.93312 7.56774 10.5137H4.47559V11.5137H7.56774C7.77479 12.0942 8.32459 12.5137 8.97559 12.5137C9.62659 12.5137 10.1764 12.0942 10.3834 11.5137H11.4756V10.5137ZM8.97559 11.5137C8.69984 11.5137 8.47559 11.2893 8.47559 11.0137C8.47559 10.738 8.69984 10.5137 8.97559 10.5137C9.25134 10.5137 9.47559 10.738 9.47559 11.0137C9.47559 11.2893 9.25134 11.5137 8.97559 11.5137Z" fill="currentColor"/>
<path d="M11.4756 6.51367H8.38344C8.17639 5.93312 7.62659 5.51367 6.97559 5.51367C6.32459 5.51367 5.77479 5.93312 5.56774 6.51367H4.47559V7.51367H5.56774C5.77479 8.09422 6.32459 8.51367 6.97559 8.51367C7.62659 8.51367 8.17639 8.09422 8.38344 7.51367H11.4756V6.51367ZM6.97559 7.51367C6.69984 7.51367 6.47559 7.28932 6.47559 7.01367C6.47559 6.73802 6.69984 6.51367 6.97559 6.51367C7.25134 6.51367 7.47559 6.73802 7.47559 7.01367C7.47559 7.28932 7.25134 7.51367 6.97559 7.51367Z" fill="currentColor"/>
<path d="M14.9497 10.0085L13.6532 4.41527C13.5829 4.11157 13.375 3.85812 13.0912 3.72972L8.38774 1.60252C8.25674 1.54317 8.11614 1.51367 7.97564 1.51367C7.83514 1.51367 7.69449 1.54322 7.56354 1.60252L2.85994 3.72972C2.57614 3.85812 2.36824 4.11157 2.29794 4.41527L1.00144 10.0085C0.932088 10.3076 1.00399 10.6221 1.19639 10.8613L4.63939 15.1406C4.82919 15.3765 5.11569 15.5137 5.41844 15.5137H10.5327C10.8355 15.5137 11.122 15.3765 11.3118 15.1406L14.7548 10.8613C14.9472 10.6221 15.0191 10.3076 14.9497 10.0085ZM10.5327 14.5137H5.41859L1.97559 10.2344L3.27209 4.64087L7.97559 2.51367L12.6791 4.64112L13.9756 10.2344L10.5327 14.5137Z" fill="currentColor"/>
</svg>
