<svg viewBox="0 0 16 17" fill="none" xmlns="http://www.w3.org/2000/svg">
<rect width="16" height="16" transform="translate(0 0.513672)" fill="white" fill-opacity="0.01" style="mix-blend-mode:multiply"/>
<path d="M10.0222 14.1608L8.48095 9.15177L7.97435 10.6718C7.9063 10.876 7.7152 11.0137 7.5 11.0137H4.5V10.0137H7.13965L8.02565 7.35557C8.091 7.14942 8.28375 7.01047 8.5 7.01367C8.7187 7.01597 8.91125 7.15822 8.97775 7.36657L10.4822 12.2557L11.0192 10.3763C11.0806 10.1616 11.2768 10.0137 11.5 10.0137H14V11.0137H11.8772L10.9805 14.151C10.9197 14.3638 10.7263 14.5114 10.505 14.5137H10.5C10.2806 14.5137 10.0867 14.3705 10.0222 14.1608Z" fill="currentColor"/>
<path d="M8 14.5137H3C2.4486 14.5137 2 14.0651 2 13.5137V3.51367C2 2.96227 2.4486 2.51367 3 2.51367H13C13.5514 2.51367 14 2.96227 14 3.51367V8.01367H13V3.51367H3V13.5137H8V14.5137Z" fill="currentColor"/>
</svg>
