<svg viewBox="0 0 16 16" fill="none" xmlns="http://www.w3.org/2000/svg">
<rect width="16" height="16" fill="white" fill-opacity="0.01" style="mix-blend-mode:multiply"/>
<path d="M11.2523 5.8184L8.25815 4.0684C8.17845 4.02175 8.0891 3.99905 7.99995 4.00005C7.915 4.00105 7.83025 4.02375 7.7542 4.0679L4.74835 5.8179C4.59455 5.9075 4.49995 6.07205 4.49995 6.25005V9.75005C4.49995 9.92805 4.59455 10.0926 4.74835 10.1822L7.7542 11.9322C7.83195 11.9774 7.913 12.0001 7.99995 12.0001C8.0871 12.0001 8.18015 11.9773 8.25815 11.9317L11.2523 10.1817C11.4057 10.0921 11.5 9.9278 11.5 9.75005V6.25005C11.5 6.0723 11.4057 5.908 11.2523 5.8184ZM8.00535 5.0789L10.0091 6.25005L8.00535 7.4212L5.99375 6.25005L8.00535 5.0789ZM5.5 7.11965L7.5 8.2842V10.627L5.5 9.4624V7.11965ZM8.5 10.6321V8.2903L10.5 7.12135V9.46315L8.5 10.6321Z" fill="currentColor"/>
<path d="M8 15.5C7.91295 15.5 7.82595 15.4773 7.74805 15.4319L1.74805 11.9319C1.5945 11.8423 1.5 11.6778 1.5 11.5V4.5C1.5 4.32215 1.5945 4.1577 1.74805 4.0681L7.74805 0.5681C7.82595 0.5227 7.91295 0.5 8 0.5C8.08705 0.5 8.17405 0.5227 8.25195 0.5681L13.752 3.7764L13.248 4.64015L8 1.5788L2.5 4.7871V11.2128L8 14.4211L13.5 11.2128V7.4999H14.5V11.4999C14.5 11.6777 14.4055 11.8422 14.252 11.9318L8.25195 15.4318C8.17405 15.4772 8.08705 15.5 8 15.5Z" fill="currentColor"/>
</svg>
