<svg viewBox="0 0 16 16" fill="none" xmlns="http://www.w3.org/2000/svg">
<rect width="16" height="16" fill="white" fill-opacity="0.01" style="mix-blend-mode:multiply"/>
<path d="M8 5.5C8.55228 5.5 9 5.05228 9 4.5C9 3.94772 8.55228 3.5 8 3.5C7.44772 3.5 7 3.94772 7 4.5C7 5.05228 7.44772 5.5 8 5.5Z" fill="currentColor"/>
<path d="M8 9C8.55228 9 9 8.55228 9 8C9 7.44772 8.55228 7 8 7C7.44772 7 7 7.44772 7 8C7 8.55228 7.44772 9 8 9Z" fill="currentColor"/>
<path d="M9.40785 13C9.25685 12.5764 8.9236 12.2431 8.5 12.092V11H10C10.1485 11 10.289 10.9341 10.3841 10.8201L12.8841 7.82005C12.9832 7.70115 13.0217 7.5427 12.9881 7.3916L11.9881 2.8916C11.9533 2.73435 11.8449 2.60375 11.6969 2.54055L8.1969 1.04055C8.13405 1.01345 8.067 1 8 1C7.933 1 7.86595 1.01345 7.8031 1.04055L4.30235 2.54055C4.1544 2.6038 4.046 2.7344 4.0111 2.8916L3.01185 7.3916C2.9783 7.54295 3.01675 7.70115 3.11585 7.82005L5.61585 10.8201C5.71095 10.9341 5.85155 11 6 11H7.5V12.0923C7.0764 12.2432 6.74315 12.5764 6.59215 13H2V14H6.59215C6.7992 14.5806 7.349 15 8 15C8.651 15 9.2008 14.5806 9.40785 14H14V13H9.40785ZM4.0414 7.36865L4.9318 3.35865L8.00005 2.04395L11.0675 3.35865L11.9586 7.36865L9.7659 10H6.23415L4.0414 7.36865ZM8 14C7.72425 14 7.5 13.7756 7.5 13.5C7.5 13.2244 7.72425 13 8 13C8.27575 13 8.5 13.2244 8.5 13.5C8.5 13.7756 8.27575 14 8 14Z" fill="currentColor"/>
</svg>
