<svg viewBox="0 0 16 17" fill="none" xmlns="http://www.w3.org/2000/svg">
<rect width="16" height="16" transform="translate(0 0.513672)" fill="white" fill-opacity="0.01" style="mix-blend-mode:multiply"/>
<path d="M13 12.5166H3C2.73488 12.5163 2.4807 12.4108 2.29323 12.2234C2.10576 12.0359 2.0003 11.7817 2 11.5166V4.5166C2.00026 4.25147 2.10571 3.99727 2.29319 3.80979C2.48066 3.62231 2.73486 3.51687 3 3.5166H13C13.2651 3.51691 13.5193 3.62236 13.7068 3.80983C13.8942 3.9973 13.9997 4.25148 14 4.5166V11.5166C13.9996 11.7817 13.8942 12.0359 13.7067 12.2233C13.5193 12.4108 13.2651 12.5162 13 12.5166ZM3 4.5166V11.5166H13V4.5166H3Z" fill="currentColor"/>
<path d="M15 13.5166H1V14.5166H15V13.5166Z" fill="currentColor"/>
</svg>
