<svg viewBox="0 0 16 16" fill="none" xmlns="http://www.w3.org/2000/svg">
<rect width="16" height="16" fill="white" fill-opacity="0.01" style="mix-blend-mode:multiply"/>
<path d="M7.5 5.49977V4.50977H3.5V11.4998H7.5V10.4998H4.5V8.49977H7V7.49977H4.5V5.49977H7.5Z" fill="currentColor"/>
<path d="M12.5 9.49977V7.49977C12.5 7.23455 12.3946 6.9802 12.2071 6.79266C12.0196 6.60512 11.7652 6.49977 11.5 6.49977H9.5C9.23478 6.49977 8.98043 6.60512 8.79289 6.79266C8.60536 6.9802 8.5 7.23455 8.5 7.49977V10.4998C8.5 10.765 8.60536 11.0193 8.79289 11.2069C8.98043 11.3944 9.23478 11.4998 9.5 11.4998H12V10.4998H9.5V9.49977H12.5ZM9.5 7.49977H11.5V8.49977H9.5V7.49977Z" fill="currentColor"/>
</svg>
