<svg viewBox="0 0 16 17" fill="none" xmlns="http://www.w3.org/2000/svg">
<rect width="16" height="16" transform="translate(0 0.513672)" fill="white" fill-opacity="0.01" style="mix-blend-mode:multiply"/>
<path d="M14.113 11.9198C14.6946 10.8788 15 9.70624 15 8.5138C15 7.32136 14.6946 6.14878 14.113 5.1078L14.207 5.0138C14.3943 4.82613 14.4994 4.57186 14.4994 4.30677C14.4994 4.04168 14.3943 3.78741 14.207 3.59975L12.9142 2.30675C12.7265 2.11956 12.4722 2.01444 12.2071 2.01444C11.942 2.01444 11.6877 2.11956 11.5 2.30675L11.4061 2.4005C10.3651 1.81897 9.1925 1.51367 8.00005 1.51367C6.80761 1.51367 5.63502 1.81897 4.59398 2.4005L4.49998 2.30675C4.31229 2.11951 4.058 2.01436 3.79288 2.01436C3.52776 2.01436 3.27347 2.11951 3.08578 2.30675L1.79293 3.59975C1.6057 3.78741 1.50055 4.04168 1.50055 4.30677C1.50055 4.57186 1.6057 4.82613 1.79293 5.0138L1.88683 5.10755C1.3053 6.14865 1 7.32129 1 8.5138C1 9.7063 1.3053 10.8789 1.88683 11.92L1.79293 12.0138C1.6057 12.2015 1.50055 12.4557 1.50055 12.7208C1.50055 12.9859 1.6057 13.2402 1.79293 13.4278L3.08578 14.7208C3.27345 14.9081 3.52775 15.0133 3.79288 15.0133C4.05801 15.0133 4.31231 14.9081 4.49998 14.7208L4.59398 14.6268C5.635 15.2084 6.80757 15.5138 8.00002 15.5138C9.19247 15.5138 10.3651 15.2086 11.4061 14.6271L11.5 14.7208C11.6877 14.9081 11.942 15.0133 12.2071 15.0133C12.4722 15.0133 12.7265 14.9081 12.9142 14.7208L14.207 13.4278C14.3943 13.2402 14.4994 12.9859 14.4994 12.7208C14.4994 12.4557 14.3943 12.2015 14.207 12.0138L14.113 11.9198ZM14 8.5138C13.9997 9.43891 13.7849 10.3514 13.3727 11.1795L11.4253 9.23205C11.5249 8.75839 11.5249 8.2692 11.4253 7.79555L13.3727 5.84805C13.7849 6.67623 13.9997 7.58868 14 8.5138ZM13.5 4.30675L11.0327 6.77405C10.7231 6.23678 10.2772 5.79076 9.73998 5.4811L12.2071 3.0138L13.5 4.30675ZM7.99998 11.0138C7.50553 11.0138 7.02218 10.8672 6.61105 10.5925C6.19993 10.3178 5.8795 9.92732 5.69028 9.47051C5.50106 9.01369 5.45155 8.51102 5.54802 8.02607C5.64448 7.54112 5.88258 7.09566 6.23221 6.74603C6.58184 6.3964 7.0273 6.1583 7.51225 6.06183C7.99721 5.96537 8.49987 6.01488 8.95669 6.2041C9.4135 6.39332 9.80395 6.71375 10.0787 7.12487C10.3534 7.536 10.5 8.01934 10.5 8.5138C10.4992 9.17661 10.2356 9.81205 9.76691 10.2807C9.29823 10.7494 8.66279 11.013 7.99998 11.0138V11.0138ZM10.6577 3.14905L8.71823 5.0885C8.24458 4.9889 7.75538 4.9889 7.28173 5.0885L5.34228 3.14905C6.17134 2.7497 7.07975 2.54232 7.99998 2.54232C8.92021 2.54232 9.82861 2.7497 10.6577 3.14905V3.14905ZM3.79293 3.0138L6.26023 5.4811C5.72295 5.79076 5.27694 6.23677 4.96728 6.77405L2.49998 4.30675L3.79293 3.0138ZM1.99998 8.5138C2.0003 7.58875 2.21502 6.67636 2.62728 5.84825L4.57468 7.79555C4.47508 8.2692 4.47508 8.75839 4.57468 9.23205L2.62728 11.1793C2.21502 10.3512 2.0003 9.43885 1.99998 8.5138V8.5138ZM3.79283 14.0138L2.49998 12.7208L4.96728 10.2538C5.27691 10.7911 5.72293 11.2371 6.26023 11.5467L3.79283 14.0138ZM5.34228 13.8788L7.28173 11.9393C7.75538 12.0389 8.24458 12.0389 8.71823 11.9393L10.6577 13.8788C9.82861 14.2781 8.92021 14.4855 7.99998 14.4855C7.07975 14.4855 6.17134 14.2781 5.34228 13.8788V13.8788ZM12.2073 14.0138L9.73998 11.5465C10.2771 11.2369 10.7231 10.791 11.0327 10.2538L13.5 12.7208L12.2073 14.0138Z" fill="currentColor"/>
</svg>
