<svg viewBox="0 0 16 17" fill="none" xmlns="http://www.w3.org/2000/svg">
<rect width="16" height="16" transform="translate(0 0.513672)" fill="white" fill-opacity="0.01" style="mix-blend-mode:multiply"/>
<path d="M8.5 1.51367H7.5V4.01367H8.5V1.51367Z" fill="currentColor"/>
<path d="M12.5962 3.21045L10.8433 4.96337L11.5503 5.6704L13.3032 3.91749L12.5962 3.21045Z" fill="currentColor"/>
<path d="M15 8.01367H12.5V9.01367H15V8.01367Z" fill="currentColor"/>
<path d="M11.5503 11.3569L10.8433 12.064L12.5962 13.8169L13.3032 13.1099L11.5503 11.3569Z" fill="currentColor"/>
<path d="M8.5 13.0137H7.5V15.5137H8.5V13.0137Z" fill="currentColor"/>
<path d="M4.4497 11.3569L2.69678 13.1099L3.40382 13.8169L5.15674 12.064L4.4497 11.3569Z" fill="currentColor"/>
<path d="M3.5 8.01367H1V9.01367H3.5V8.01367Z" fill="currentColor"/>
<path d="M3.40382 3.21044L2.69679 3.91748L4.4497 5.6704L5.15674 4.96336L3.40382 3.21044Z" fill="currentColor"/>
<path d="M8 5.51367C7.40666 5.51367 6.82664 5.68962 6.33329 6.01926C5.83994 6.34891 5.45542 6.81744 5.22836 7.36562C5.0013 7.9138 4.94189 8.517 5.05764 9.09894C5.1734 9.68089 5.45912 10.2154 5.87868 10.635C6.29824 11.0546 6.83279 11.3403 7.41473 11.456C7.99667 11.5718 8.59987 11.5124 9.14805 11.2853C9.69623 11.0582 10.1648 10.6737 10.4944 10.1804C10.8241 9.68704 11 9.10702 11 8.51367C11 7.71802 10.6839 6.95496 10.1213 6.39235C9.55871 5.82974 8.79565 5.51367 8 5.51367Z" fill="currentColor"/>
</svg>
