<svg viewBox="0 0 16 17" fill="none" xmlns="http://www.w3.org/2000/svg">
<rect width="16" height="16" transform="translate(0 0.513672)" fill="white" fill-opacity="0.01" style="mix-blend-mode:multiply"/>
<path d="M5.80478 15.4739C5.70245 15.4307 5.61742 15.3546 5.5631 15.2578C5.50878 15.1609 5.48826 15.0487 5.50478 14.9389L6.41478 9.01385H3.99978C3.92321 9.01591 3.8472 9.00035 3.7776 8.96838C3.70801 8.93641 3.64668 8.88887 3.59837 8.82945C3.55005 8.77002 3.51603 8.70029 3.49894 8.62563C3.48185 8.55097 3.48213 8.47338 3.49978 8.39885L4.99978 1.89885C5.02617 1.78699 5.0903 1.68763 5.18137 1.61751C5.27243 1.54739 5.38488 1.51078 5.49978 1.51385H10.4998C10.5745 1.5136 10.6483 1.53008 10.7158 1.5621C10.7833 1.59411 10.8427 1.64084 10.8898 1.69885C10.9375 1.75752 10.9713 1.82624 10.9886 1.89986C11.0059 1.97347 11.0063 2.05006 10.9898 2.12385L10.1248 6.01385H12.4998C12.5935 6.01366 12.6854 6.03981 12.7649 6.08932C12.8445 6.13883 12.9085 6.2097 12.9498 6.29385C12.9856 6.37462 12.9994 6.46344 12.9897 6.55127C12.9801 6.6391 12.9473 6.7228 12.8948 6.79385L6.39478 15.2938C6.35085 15.359 6.29219 15.4128 6.22356 15.451C6.15494 15.4893 6.07827 15.5108 5.99978 15.5139C5.93287 15.5126 5.86677 15.499 5.80478 15.4739V15.4739ZM8.87478 7.01385L9.87478 2.51385H5.89978L4.62978 8.01385H7.58478L6.78978 13.1539L11.4998 7.01385H8.87478Z" fill="currentColor"/>
</svg>
