<svg viewBox="0 0 16 17" fill="none" xmlns="http://www.w3.org/2000/svg">
<rect width="16" height="16" transform="translate(0 0.513672)" fill="white" fill-opacity="0.01" style="mix-blend-mode:multiply"/>
<path d="M11 8.01334H5V9.01334H11V8.01334Z" fill="currentColor"/>
<path d="M4.35 3.65594C4.44762 3.45573 4.49889 3.23609 4.5 3.01334C4.5 2.71667 4.41203 2.42666 4.24721 2.17999C4.08238 1.93332 3.84811 1.74106 3.57403 1.62753C3.29994 1.51399 2.99834 1.48429 2.70737 1.54217C2.41639 1.60004 2.14912 1.74291 1.93934 1.95268C1.72956 2.16246 1.5867 2.42974 1.52882 2.72071C1.47094 3.01168 1.50065 3.31328 1.61418 3.58737C1.72771 3.86146 1.91997 4.09573 2.16665 4.26055C2.41332 4.42537 2.70333 4.51334 3 4.51334C3.22279 4.51222 3.44245 4.46081 3.6426 4.36294L5 5.72039V7.01334H6V5.30629L4.35 3.65594ZM3 3.51334C2.90111 3.51334 2.80444 3.48402 2.72222 3.42908C2.63999 3.37414 2.5759 3.29605 2.53806 3.20469C2.50022 3.11332 2.49032 3.01279 2.50961 2.9158C2.5289 2.81881 2.57652 2.72972 2.64645 2.65979C2.71637 2.58987 2.80547 2.54224 2.90246 2.52295C2.99945 2.50366 3.09998 2.51356 3.19134 2.55141C3.28271 2.58925 3.36079 2.65334 3.41574 2.73556C3.47068 2.81778 3.5 2.91445 3.5 3.01334C3.49988 3.14592 3.44716 3.27302 3.35342 3.36677C3.25968 3.46051 3.13257 3.51323 3 3.51334Z" fill="currentColor"/>
<path d="M9.5 3.01334C9.5012 2.73807 9.42662 2.46778 9.28444 2.23207C9.14225 1.99636 8.93795 1.80432 8.6939 1.67698C8.44985 1.54964 8.17547 1.49191 7.90079 1.51012C7.62612 1.52833 7.36176 1.62177 7.13665 1.78021C6.91155 1.93865 6.73438 2.15598 6.62456 2.4084C6.51474 2.66082 6.47649 2.93859 6.51401 3.21129C6.55154 3.484 6.66338 3.74112 6.83729 3.9545C7.0112 4.16788 7.24047 4.32928 7.5 4.42104V7.01334H8.5V4.42129C8.79162 4.31853 9.04429 4.12803 9.22333 3.87594C9.40238 3.62386 9.49902 3.32254 9.5 3.01334ZM8 3.51334C7.90111 3.51334 7.80444 3.48402 7.72222 3.42908C7.63999 3.37414 7.5759 3.29605 7.53806 3.20469C7.50022 3.11332 7.49032 3.01279 7.50961 2.9158C7.5289 2.81881 7.57652 2.72972 7.64645 2.65979C7.71637 2.58987 7.80546 2.54224 7.90246 2.52295C7.99945 2.50366 8.09998 2.51356 8.19134 2.55141C8.2827 2.58925 8.3608 2.65334 8.41574 2.73556C8.47068 2.81778 8.5 2.91445 8.5 3.01334C8.49988 3.14592 8.44717 3.27302 8.35342 3.36677C8.25968 3.46051 8.13257 3.51323 8 3.51334Z" fill="currentColor"/>
<path d="M13 1.51335C12.6023 1.51378 12.221 1.67196 11.9398 1.95317C11.6586 2.23438 11.5004 2.61565 11.5 3.01334C11.5011 3.23609 11.5524 3.45573 11.65 3.65594L10 5.30629V7.01334H11V5.72039L12.3574 4.36294C12.5576 4.46081 12.7772 4.51222 13 4.51334C13.3978 4.51334 13.7794 4.35531 14.0607 4.074C14.342 3.7927 14.5 3.41117 14.5 3.01334C14.5 2.61552 14.342 2.23399 14.0607 1.95268C13.7794 1.67138 13.3978 1.51335 13 1.51335ZM13 3.51334C12.9011 3.51334 12.8044 3.48402 12.7222 3.42908C12.64 3.37414 12.5759 3.29605 12.5381 3.20469C12.5002 3.11332 12.4903 3.01279 12.5096 2.9158C12.5289 2.81881 12.5765 2.72972 12.6464 2.65979C12.7164 2.58987 12.8055 2.54224 12.9025 2.52295C12.9994 2.50366 13.1 2.51356 13.1913 2.55141C13.2827 2.58925 13.3608 2.65334 13.4157 2.73556C13.4707 2.81778 13.5 2.91445 13.5 3.01334C13.4999 3.14592 13.4472 3.27302 13.3534 3.36677C13.2597 3.46051 13.1326 3.51323 13 3.51334Z" fill="currentColor"/>
<path d="M6 10.0133H5V11.3063L3.6427 12.6637C3.44252 12.5659 3.22282 12.5145 3 12.5133C2.70333 12.5133 2.41332 12.6013 2.16665 12.7661C1.91997 12.931 1.72771 13.1652 1.61418 13.4393C1.50065 13.7134 1.47094 14.015 1.52882 14.306C1.5867 14.597 1.72956 14.8642 1.93934 15.074C2.14912 15.2838 2.41639 15.4266 2.70737 15.4845C2.99834 15.5424 3.29994 15.5127 3.57403 15.3992C3.84811 15.2856 4.08238 15.0934 4.24721 14.8467C4.41203 14.6 4.5 14.31 4.5 14.0133C4.49889 13.7906 4.44762 13.571 4.35 13.3707L6 11.7204V10.0133ZM3 14.5133C2.90111 14.5133 2.80444 14.484 2.72222 14.4291C2.63999 14.3741 2.5759 14.296 2.53806 14.2047C2.50022 14.1133 2.49032 14.0128 2.50961 13.9158C2.5289 13.8188 2.57652 13.7297 2.64645 13.6598C2.71637 13.5899 2.80547 13.5422 2.90246 13.523C2.99945 13.5037 3.09998 13.5136 3.19134 13.5514C3.28271 13.5892 3.36079 13.6533 3.41574 13.7356C3.47068 13.8178 3.5 13.9145 3.5 14.0133C3.49988 14.1459 3.44716 14.273 3.35342 14.3668C3.25968 14.4605 3.13257 14.5132 3 14.5133Z" fill="currentColor"/>
<path d="M8.5 12.6054V10.0133H7.5V12.6054C7.16639 12.7233 6.88522 12.9554 6.70619 13.2606C6.52715 13.5658 6.46177 13.9245 6.5216 14.2733C6.58144 14.622 6.76264 14.9384 7.03317 15.1664C7.30371 15.3945 7.64616 15.5196 8 15.5196C8.35384 15.5196 8.6963 15.3945 8.96683 15.1664C9.23737 14.9384 9.41856 14.622 9.4784 14.2733C9.53823 13.9245 9.47286 13.5658 9.29382 13.2606C9.11478 12.9554 8.83361 12.7233 8.5 12.6054ZM8 14.5133C7.90111 14.5133 7.80444 14.484 7.72222 14.4291C7.63999 14.3741 7.5759 14.296 7.53806 14.2047C7.50022 14.1133 7.49032 14.0128 7.50961 13.9158C7.5289 13.8188 7.57652 13.7297 7.64645 13.6598C7.71637 13.5899 7.80547 13.5422 7.90246 13.523C7.99945 13.5037 8.09998 13.5136 8.19134 13.5514C8.28271 13.5892 8.3608 13.6533 8.41574 13.7356C8.47068 13.8178 8.5 13.9145 8.5 14.0133C8.49988 14.1459 8.44717 14.273 8.35342 14.3668C8.25968 14.4605 8.13257 14.5132 8 14.5133Z" fill="currentColor"/>
<path d="M13 12.5133C12.7772 12.5145 12.5575 12.5659 12.3573 12.6637L11 11.3063V10.0133H10V11.7204L11.65 13.3707C11.5524 13.571 11.5011 13.7906 11.5 14.0133C11.5 14.31 11.588 14.6 11.7528 14.8467C11.9176 15.0934 12.1519 15.2856 12.426 15.3992C12.7001 15.5127 13.0017 15.5424 13.2926 15.4845C13.5836 15.4266 13.8509 15.2838 14.0607 15.074C14.2704 14.8642 14.4133 14.597 14.4712 14.306C14.5291 14.015 14.4994 13.7134 14.3858 13.4393C14.2723 13.1652 14.08 12.931 13.8334 12.7661C13.5867 12.6013 13.2967 12.5133 13 12.5133ZM13 14.5133C12.9011 14.5133 12.8044 14.484 12.7222 14.4291C12.64 14.3741 12.5759 14.296 12.5381 14.2047C12.5002 14.1133 12.4903 14.0128 12.5096 13.9158C12.5289 13.8188 12.5765 13.7297 12.6464 13.6598C12.7164 13.5899 12.8055 13.5422 12.9025 13.523C12.9994 13.5037 13.1 13.5136 13.1913 13.5514C13.2827 13.5892 13.3608 13.6533 13.4157 13.7356C13.4707 13.8178 13.5 13.9145 13.5 14.0133C13.4999 14.1459 13.4472 14.273 13.3534 14.3668C13.2597 14.4605 13.1326 14.5132 13 14.5133Z" fill="currentColor"/>
</svg>
