<svg viewBox="0 0 16 17" fill="none" xmlns="http://www.w3.org/2000/svg">
<rect width="16" height="16" transform="translate(0 0.513672)" fill="white" fill-opacity="0.01" style="mix-blend-mode:multiply"/>
<path d="M2.00007 7.00496C1.99843 7.10629 2.02762 7.20573 2.08378 7.29009C2.13993 7.37445 2.2204 7.43976 2.31452 7.47736L7.11527 9.39781L9.03562 14.1988C9.07272 14.2916 9.1368 14.3712 9.2196 14.4272C9.30239 14.4833 9.40008 14.5132 9.50007 14.5132H9.50816C9.60941 14.5115 9.70777 14.4792 9.79024 14.4204C9.8727 14.3616 9.93541 14.2793 9.97007 14.1841L13.9701 3.18376C14.0026 3.09431 14.009 2.99741 13.9884 2.90447C13.9678 2.81153 13.9211 2.72641 13.8538 2.6591C13.7864 2.59179 13.7013 2.54511 13.6083 2.52452C13.5154 2.50394 13.4185 2.51032 13.3291 2.54291L2.32907 6.54291C2.23392 6.5776 2.15154 6.64034 2.0928 6.72283C2.03406 6.80533 2.00173 6.9037 2.00007 7.00496V7.00496Z" fill="currentColor"/>
</svg>
