<svg viewBox="0 0 16 17" fill="none" xmlns="http://www.w3.org/2000/svg">
<rect width="16" height="16" transform="translate(0 0.513672)" fill="white" fill-opacity="0.01" style="mix-blend-mode:multiply"/>
<path d="M8.00001 6.51367C8.27615 6.51367 8.50001 6.28981 8.50001 6.01367C8.50001 5.73753 8.27615 5.51367 8.00001 5.51367C7.72386 5.51367 7.50001 5.73753 7.50001 6.01367C7.50001 6.28981 7.72386 6.51367 8.00001 6.51367Z" fill="currentColor"/>
<path d="M8.00001 1.51367C6.54186 1.51544 5.14394 2.09548 4.11288 3.12654C3.08181 4.15761 2.50178 5.55553 2.50001 7.01367C2.49828 8.2053 2.88758 9.36459 3.60816 10.3137C3.60816 10.3137 3.75816 10.5109 3.78226 10.5395L8.00001 15.5137L12.2195 10.5374C12.2417 10.5107 12.3919 10.3135 12.3919 10.3135L12.3926 10.3123C13.1128 9.36355 13.5018 8.20476 13.5 7.01367C13.4982 5.55553 12.9182 4.15761 11.8871 3.12654C10.8561 2.09548 9.45815 1.51544 8.00001 1.51367ZM8.00001 4.51367C8.29668 4.51367 8.58669 4.60165 8.83336 4.76647C9.08003 4.93129 9.27229 5.16556 9.38583 5.43965C9.49936 5.71374 9.52906 6.01534 9.47118 6.30631C9.41331 6.59728 9.27044 6.86455 9.06067 7.07433C8.85089 7.28411 8.58361 7.42697 8.29264 7.48485C8.00167 7.54273 7.70007 7.51302 7.42598 7.39949C7.15189 7.28596 6.91762 7.0937 6.7528 6.84703C6.58798 6.60035 6.50001 6.31034 6.50001 6.01367C6.50044 5.61598 6.65862 5.2347 6.93983 4.95349C7.22104 4.67228 7.60231 4.51411 8.00001 4.51367ZM10 10.0137H9.00001V9.01367H7.00001V10.0137H6.00001V9.01367C6.00031 8.74855 6.10576 8.49437 6.29324 8.3069C6.48071 8.11943 6.73488 8.01398 7.00001 8.01367H9.00001C9.26513 8.01398 9.51931 8.11943 9.70678 8.3069C9.89425 8.49437 9.9997 8.74855 10 9.01367V10.0137Z" fill="currentColor"/>
</svg>
