<svg viewBox="0 0 16 17" fill="none" xmlns="http://www.w3.org/2000/svg">
<rect width="16" height="16" transform="translate(0 0.513672)" fill="white" fill-opacity="0.01" style="mix-blend-mode:multiply"/>
<path d="M8.00001 1.51367C6.54186 1.51544 5.14394 2.09548 4.11288 3.12654C3.08181 4.15761 2.50178 5.55553 2.50001 7.01367C2.49828 8.2053 2.88758 9.36459 3.60816 10.3137C3.60816 10.3137 3.75816 10.5109 3.78226 10.5395L8.00001 15.5137L12.2195 10.5374C12.2417 10.5107 12.3919 10.3135 12.3919 10.3135L12.3926 10.3123C13.1128 9.36355 13.5018 8.20476 13.5 7.01367C13.4982 5.55553 12.9182 4.15761 11.8871 3.12654C10.8561 2.09548 9.45815 1.51544 8.00001 1.51367V1.51367ZM7.43751 4.01367H8.56251V8.51367H7.43751V4.01367ZM8.00001 11.5137C7.85167 11.5137 7.70667 11.4697 7.58333 11.3873C7.45999 11.3049 7.36386 11.1877 7.3071 11.0507C7.25033 10.9136 7.23548 10.7628 7.26442 10.6174C7.29336 10.4719 7.36479 10.3382 7.46968 10.2333C7.57456 10.1285 7.7082 10.057 7.85369 10.0281C7.99917 9.99914 8.14997 10.014 8.28702 10.0708C8.42406 10.1275 8.5412 10.2237 8.62361 10.347C8.70602 10.4703 8.75001 10.6153 8.75001 10.7637C8.75001 10.9626 8.67099 11.1533 8.53034 11.294C8.38968 11.4347 8.19892 11.5137 8.00001 11.5137Z" fill="currentColor"/>
</svg>
