<svg viewBox="0 0 16 17" fill="none" xmlns="http://www.w3.org/2000/svg">
<rect width="16" height="16" transform="translate(0 0.513672)" fill="white" fill-opacity="0.01" style="mix-blend-mode:multiply"/>
<path d="M9.00011 15.5137H10.0001V14.5137C10.0002 14.3812 10.0529 14.2541 10.1467 14.1603C10.2404 14.0666 10.3675 14.0139 10.5001 14.0137H13.5001C13.6327 14.0139 13.7598 14.0666 13.8535 14.1603C13.9473 14.2541 14 14.3812 14.0001 14.5137V15.5137H15.0001V14.5137C14.9997 14.116 14.8415 13.7348 14.5603 13.4536C14.2791 13.1724 13.8978 13.0142 13.5001 13.0137H10.5001C10.1024 13.0142 9.72114 13.1724 9.43993 13.4536C9.15872 13.7348 9.00055 14.116 9.00011 14.5137V15.5137Z" fill="currentColor"/>
<path d="M12.0001 12.5137C11.6045 12.5137 11.2179 12.3964 10.889 12.1767C10.5601 11.9569 10.3037 11.6446 10.1523 11.2791C10.001 10.9137 9.96137 10.5115 10.0385 10.1236C10.1157 9.7356 10.3062 9.37923 10.5859 9.09953C10.8656 8.81982 11.222 8.62934 11.6099 8.55217C11.9979 8.475 12.4 8.5146 12.7655 8.66598C13.1309 8.81735 13.4433 9.0737 13.663 9.4026C13.8828 9.7315 14.0001 10.1182 14.0001 10.5137C13.9996 11.044 13.7887 11.5524 13.4137 11.9273C13.0388 12.3023 12.5304 12.5132 12.0001 12.5137ZM12.0001 9.51374C11.8023 9.51374 11.609 9.57239 11.4445 9.68227C11.2801 9.79215 11.1519 9.94833 11.0762 10.1311C11.0005 10.3138 10.9807 10.5148 11.0193 10.7088C11.0579 10.9028 11.1531 11.081 11.293 11.2208C11.4329 11.3607 11.611 11.4559 11.805 11.4945C11.999 11.5331 12.2001 11.5133 12.3828 11.4376C12.5655 11.3619 12.7217 11.2338 12.8316 11.0693C12.9415 10.9049 13.0001 10.7115 13.0001 10.5137C12.9998 10.2486 12.8944 9.99444 12.7069 9.80697C12.5194 9.6195 12.2652 9.51404 12.0001 9.51374Z" fill="currentColor"/>
<path d="M12.671 5.54383L1.67102 1.54383C1.58159 1.51128 1.48473 1.50492 1.39181 1.52552C1.2989 1.54611 1.21379 1.59279 1.14649 1.66008C1.07919 1.72736 1.03248 1.81246 1.01187 1.90537C0.991256 1.99828 0.997586 2.09514 1.03012 2.18458L5.03012 13.1846C5.06476 13.2798 5.12746 13.3622 5.20994 13.421C5.29242 13.4798 5.39079 13.5121 5.49207 13.5138H5.50012C5.60008 13.5138 5.69775 13.4839 5.78053 13.4278C5.8633 13.3718 5.92737 13.2922 5.96447 13.1994L7.88512 8.39843L12.6859 6.47803C12.78 6.44047 12.8605 6.3752 12.9167 6.29087C12.9729 6.20654 13.0021 6.10713 13.0005 6.00581C12.9989 5.90448 12.9666 5.80604 12.9078 5.72351C12.849 5.64098 12.7663 5.57842 12.671 5.54383ZM7.11537 7.62883L5.52237 11.6117L2.33607 2.84958L11.0983 6.03588L7.11537 7.62883Z" fill="currentColor"/>
</svg>
