<svg viewBox="0 0 16 16" fill="none" xmlns="http://www.w3.org/2000/svg">
<rect width="16" height="16" fill="white" fill-opacity="0.01" style="mix-blend-mode:multiply"/>
<path d="M13.0498 2.84994C11.7498 0.999939 9.19984 0.449939 7.34984 1.59994L4.09984 3.69994C3.19984 4.24994 2.59984 5.14994 2.39984 6.19994C2.24984 7.04994 2.39984 7.94994 2.79984 8.74994C2.49984 9.14994 2.34984 9.64994 2.24984 10.1499C2.04984 11.1999 2.29984 12.2999 2.94984 13.1499C4.24984 14.9999 6.79984 15.5499 8.64984 14.3999L11.8998 12.2999C12.7998 11.7499 13.3998 10.8499 13.5998 9.79994C13.7498 8.94994 13.5998 8.04994 13.1998 7.24994C13.4998 6.84994 13.6498 6.34994 13.7498 5.84994C13.9498 4.79994 13.6998 3.69994 13.0498 2.84994ZM12.1498 5.49994C12.1498 5.59994 12.0998 5.69994 12.0498 5.79994L11.9998 5.99994L11.8498 5.89994C11.4498 5.59994 11.0498 5.39994 10.5498 5.24994L10.4498 5.19994V5.09994C10.4498 4.94994 10.3998 4.74994 10.2998 4.59994C10.0998 4.34994 9.79984 4.19994 9.44984 4.29994C9.39984 4.29994 9.29984 4.34994 9.24984 4.39994L5.99984 6.44994C5.84984 6.54994 5.74984 6.69994 5.69984 6.89994C5.64984 7.09994 5.69984 7.29994 5.79984 7.44994C5.99984 7.69994 6.29984 7.84994 6.64984 7.74994C6.69984 7.74994 6.79984 7.69994 6.84984 7.64994L8.09984 6.84994C8.29984 6.69994 8.54984 6.59994 8.74984 6.54994C9.79984 6.29994 10.8998 6.69994 11.5498 7.59994C11.8998 8.09994 12.0498 8.79994 11.9498 9.39994C11.8498 9.99994 11.4498 10.5499 10.9498 10.8999L7.69984 12.9999C7.49984 13.1499 7.24984 13.2499 7.04984 13.2999C5.99984 13.5499 4.89984 13.1499 4.24984 12.2499C3.89984 11.7499 3.74984 11.0499 3.84984 10.4499C3.84984 10.3499 3.89984 10.2499 3.94984 10.1499L3.99984 9.99994L4.14984 10.0999C4.54984 10.3999 4.94984 10.5999 5.44984 10.7499L5.54984 10.7999V10.8999C5.54984 11.0499 5.59984 11.2499 5.69984 11.3999C5.89984 11.6499 6.19984 11.7999 6.54984 11.6999C6.59984 11.6999 6.69984 11.6499 6.74984 11.5999L9.99984 9.49994C10.1498 9.39994 10.2498 9.24994 10.2998 9.04994C10.3498 8.84994 10.2998 8.64994 10.1998 8.49994C9.99984 8.24994 9.69984 8.09994 9.34984 8.19994C9.29984 8.19994 9.19984 8.24994 9.14984 8.29994L7.89984 9.09994C7.69984 9.24994 7.44984 9.34994 7.24984 9.39994C6.19984 9.64994 5.09984 9.24994 4.44984 8.34994C4.04984 7.84994 3.94984 7.14994 4.04984 6.54994C4.14984 5.94994 4.54984 5.39994 5.04984 5.04994L8.29984 2.94994C8.49984 2.79994 8.74984 2.69994 8.94984 2.64994C9.99984 2.39994 11.0998 2.79994 11.7498 3.69994C12.0998 4.24994 12.2498 4.89994 12.1498 5.49994Z" fill="currentColor"/>
</svg>
