<svg viewBox="0 0 16 17" fill="none" xmlns="http://www.w3.org/2000/svg">
<rect width="16" height="16" transform="translate(0 0.513672)" fill="white" fill-opacity="0.01" style="mix-blend-mode:multiply"/>
<path d="M14.5 12.4436H13.5C13.5 12.557 13.4776 12.6692 13.4341 12.7739C13.3905 12.8785 13.3267 12.9736 13.2463 13.0535C13.166 13.1334 13.0706 13.1966 12.9656 13.2396C12.8607 13.2825 12.7484 13.3043 12.635 13.3036C12.06 13.3036 11.725 12.8736 11.345 12.3036C12.0847 11.7977 12.6895 11.1187 13.1069 10.3257C13.5244 9.53271 13.7417 8.64973 13.74 7.75359C13.785 4.15859 10.815 1.80859 7.655 1.80859C4.495 1.80859 1.5 4.19859 1.5 7.69859C1.5 11.1986 4.5 13.5936 7.585 13.5936C8.10561 13.5886 8.62272 13.5078 9.12 13.3536C9.695 14.4086 10.415 15.2236 11.85 15.2236C12.2156 15.248 12.5821 15.1917 12.9236 15.0587C13.265 14.9257 13.5731 14.7193 13.8259 14.4541C14.0788 14.1888 14.2702 13.8713 14.3867 13.5238C14.5032 13.1764 14.5419 12.8076 14.5 12.4436V12.4436ZM10.43 10.7186C10.1494 10.2314 9.74375 9.8281 9.25499 9.55031C8.76623 9.27253 8.21212 9.13039 7.65 9.13859C6.97993 9.11592 6.32157 9.31835 5.78 9.71359L6.1 10.5136C6.23945 10.4726 6.38487 10.4557 6.53 10.4636C7.44 10.4636 8.03 11.2286 8.59 12.2836C8.27698 12.3556 7.95607 12.3875 7.635 12.3786C5.43 12.3936 4.5 10.8136 4.5 7.74859C4.5 4.68359 5.455 3.09859 7.615 3.09859C9.775 3.09859 10.775 4.67859 10.775 7.74859C10.7996 8.75081 10.6783 9.75128 10.415 10.7186H10.43Z" fill="currentColor"/>
</svg>
