<svg viewBox="0 0 16 17" fill="none" xmlns="http://www.w3.org/2000/svg">
<rect width="16" height="16" transform="translate(0 0.513672)" fill="white" fill-opacity="0.01" style="mix-blend-mode:multiply"/>
<path d="M15 8.51367C15 10.3637 14.7 11.8637 14.3 11.8637C13.9 11.8637 13.6 10.3637 13.6 8.51367C13.6 6.66367 13.9 5.16367 14.3 5.16367C14.7 5.16367 15 6.66367 15 8.51367Z" fill="currentColor"/>
<path d="M13.25 8.51367C13.25 10.5637 12.35 12.2637 11.3 12.2637C10.25 12.2637 9.35 10.5637 9.35 8.51367C9.35 6.46367 10.25 4.76367 11.3 4.76367C12.35 4.76367 13.25 6.46367 13.25 8.51367Z" fill="currentColor"/>
<path d="M8.9 8.51367C8.9 10.7137 7.15 12.5137 4.95 12.5137C2.75 12.5137 1 10.7137 1 8.51367C1 6.31367 2.75 4.51367 4.95 4.51367C7.15 4.51367 8.9 6.31367 8.9 8.51367Z" fill="currentColor"/>
</svg>
