<svg viewBox="0 0 16 16" fill="none" xmlns="http://www.w3.org/2000/svg">
<rect width="16" height="16" fill="white" fill-opacity="0.01" style="mix-blend-mode:multiply"/>
<path d="M11.7443 4.57006V6.05321C11.7381 6.60757 11.5173 7.13795 11.1282 7.53286C10.7391 7.92777 10.212 8.15644 9.65779 8.17081H6.32174C5.87688 8.17964 5.45313 8.36215 5.14106 8.67931C4.829 8.99647 4.65338 9.42312 4.65174 9.86806V13.0484C4.65174 13.9534 5.43884 14.486 6.32174 14.7457C7.40782 15.0853 8.57171 15.0853 9.65779 14.7457C10.4986 14.5022 11.3278 14.0123 11.3278 13.0484V11.7751H7.99169V11.3508H12.9977C13.9684 11.3508 14.3301 10.6737 14.6677 9.65741C15.0104 8.55188 15.0104 7.36849 14.6677 6.26296C14.4277 5.29661 13.9697 4.56961 12.9977 4.56961L11.7443 4.57006ZM9.86799 12.6239C9.99438 12.6219 10.1185 12.6576 10.2245 12.7265C10.3305 12.7953 10.4136 12.8941 10.4633 13.0104C10.5129 13.1266 10.5268 13.255 10.5032 13.3792C10.4796 13.5034 10.4195 13.6177 10.3307 13.7076C10.2419 13.7976 10.1283 13.859 10.0044 13.8842C9.88056 13.9093 9.752 13.897 9.63515 13.8488C9.51829 13.8006 9.41843 13.7187 9.34829 13.6136C9.27815 13.5084 9.2409 13.3848 9.24129 13.2584C9.24074 13.1755 9.25652 13.0934 9.28773 13.0167C9.31893 12.94 9.36495 12.8702 9.42315 12.8112C9.48135 12.7523 9.5506 12.7054 9.62693 12.6733C9.70325 12.6411 9.78517 12.6243 9.86799 12.6239Z" fill="currentColor"/>
<path d="M7.91775 1.00017C7.38287 1.00074 6.84899 1.04632 6.32175 1.13642C4.90835 1.38612 4.65175 1.90877 4.65175 2.87257V4.14562H7.99175V4.57017H3.3983C2.9067 4.56116 2.42773 4.72614 2.04595 5.03597C1.66418 5.34581 1.40415 5.78058 1.3118 6.26352C0.99828 7.37328 0.99828 8.5482 1.3118 9.65797C1.5492 10.6468 2.1162 11.3513 3.0868 11.3513H4.2352V9.82517C4.24739 9.27669 4.47148 8.75424 4.86048 8.36738C5.24948 7.98053 5.77316 7.75932 6.3217 7.75017H9.65775C9.87888 7.74851 10.0975 7.70328 10.3012 7.61706C10.5048 7.53085 10.6894 7.40534 10.8445 7.24771C10.9996 7.09009 11.1221 6.90344 11.2051 6.69843C11.288 6.49343 11.3297 6.27409 11.3278 6.05297V2.87267C11.2997 2.43251 11.1165 2.01655 10.8108 1.69868C10.505 1.38082 10.0965 1.18163 9.65775 1.13652C9.08259 1.04248 8.50054 0.996871 7.91775 1.00017ZM6.1115 2.02407C6.23772 2.02211 6.36167 2.05773 6.4676 2.1264C6.57353 2.19506 6.65664 2.29367 6.70639 2.40969C6.75614 2.52571 6.77026 2.6539 6.74697 2.77797C6.72369 2.90204 6.66403 3.01638 6.5756 3.10647C6.48717 3.19655 6.37395 3.25831 6.25033 3.28389C6.12672 3.30946 5.99829 3.29771 5.88137 3.25012C5.76445 3.20253 5.66432 3.12125 5.5937 3.01661C5.52309 2.91197 5.48518 2.7887 5.4848 2.66247C5.48356 2.4948 5.54882 2.33347 5.66628 2.21381C5.78374 2.09416 5.94384 2.02593 6.1115 2.02407Z" fill="currentColor"/>
</svg>
