<svg viewBox="0 0 16 17" fill="none" xmlns="http://www.w3.org/2000/svg">
<rect width="16" height="16" transform="translate(0 0.513672)" fill="white" fill-opacity="0.01" style="mix-blend-mode:multiply"/>
<path d="M8.00019 1.51367C6.37732 1.52472 4.80871 2.09933 3.5627 3.13919C2.31669 4.17905 1.47072 5.61955 1.16949 7.21426C0.868271 8.80897 1.13052 10.4588 1.91137 11.8815C2.69223 13.3042 3.94317 14.4114 5.45019 15.0137C5.34891 14.3509 5.34891 13.6765 5.45019 13.0137L6.27519 9.51367C6.14463 9.19669 6.07999 8.85645 6.08519 8.51367C6.08519 7.54367 6.65019 6.81367 7.35019 6.81367C7.477 6.81176 7.60273 6.83729 7.71875 6.8885C7.83478 6.93971 7.93837 7.01539 8.02242 7.11037C8.10647 7.20534 8.169 7.31736 8.20572 7.43875C8.24245 7.56014 8.2525 7.68803 8.23519 7.81367C8.23519 8.41367 7.85519 9.31367 7.65519 10.1437C7.61215 10.2985 7.60703 10.4613 7.64027 10.6185C7.67352 10.7757 7.74414 10.9226 7.84617 11.0467C7.9482 11.1708 8.07863 11.2685 8.22642 11.3315C8.37421 11.3945 8.535 11.421 8.69519 11.4087C9.93519 11.4087 10.8952 10.0937 10.8952 8.20367C10.9077 7.81961 10.8399 7.43717 10.6964 7.08075C10.5528 6.72432 10.3365 6.40174 10.0612 6.13358C9.78603 5.86542 9.45794 5.65757 9.0979 5.52328C8.73787 5.389 8.3538 5.33123 7.97019 5.35367C7.56064 5.33608 7.15178 5.40178 6.76835 5.54678C6.38493 5.69179 6.03491 5.91309 5.73949 6.19729C5.44408 6.48149 5.2094 6.82268 5.04966 7.2002C4.88993 7.57773 4.80846 7.98375 4.81019 8.39367C4.80463 8.96474 4.97963 9.52297 5.31019 9.98867C5.33423 10.0154 5.35135 10.0476 5.36007 10.0825C5.36879 10.1173 5.36883 10.1538 5.36019 10.1887C5.30519 10.4087 5.18519 10.8887 5.16519 10.9837C5.14519 11.0787 5.06019 11.1387 4.93019 11.0787C4.05519 10.6687 3.51019 9.39367 3.51019 8.36367C3.51019 6.15867 5.11519 4.12867 8.13519 4.12867C10.5602 4.12867 12.4502 5.85867 12.4502 8.17367C12.4502 10.5837 10.9502 12.5237 8.81519 12.5237C8.5022 12.5346 8.19145 12.4671 7.91116 12.3274C7.63087 12.1877 7.38992 11.9802 7.21019 11.7237L6.77519 13.3887C6.56667 14.0357 6.27417 14.6527 5.90519 15.2237C6.58508 15.4246 7.29128 15.5224 8.00019 15.5137C9.85671 15.5137 11.6372 14.7762 12.9499 13.4634C14.2627 12.1507 15.0002 10.3702 15.0002 8.51367C15.0002 6.65716 14.2627 4.87668 12.9499 3.56392C11.6372 2.25117 9.85671 1.51367 8.00019 1.51367" fill="currentColor"/>
</svg>
