<svg viewBox="0 0 16 17" fill="none" xmlns="http://www.w3.org/2000/svg">
<rect width="16" height="16" transform="translate(0 0.513672)" fill="white" fill-opacity="0.01" style="mix-blend-mode:multiply"/>
<path fill-rule="evenodd" clip-rule="evenodd" d="M8.00005 1.51371C6.33819 1.51394 4.73062 2.1054 3.4649 3.18231C2.19918 4.25922 1.35788 5.75131 1.0915 7.39168C0.825123 9.03205 1.15104 10.7137 2.01095 12.1358C2.87085 13.5579 4.20866 14.6276 5.78505 15.1537C6.13505 15.2187 6.28505 15.0037 6.28505 14.8187C6.28505 14.6337 6.28505 14.2137 6.28505 13.6287C4.34005 14.0487 3.93005 12.6887 3.93005 12.6887C3.79328 12.2601 3.50541 11.8959 3.12005 11.6637C2.48505 11.2337 3.17005 11.2387 3.17005 11.2387C3.39185 11.27 3.60356 11.3517 3.78901 11.4773C3.97445 11.603 4.12873 11.7693 4.24005 11.9637C4.43372 12.3111 4.75742 12.5673 5.13997 12.6761C5.52251 12.7848 5.9326 12.7372 6.28005 12.5437C6.30828 12.1889 6.46468 11.8566 6.72005 11.6087C5.17005 11.4287 3.53505 10.8287 3.53505 8.14871C3.52371 7.45266 3.78166 6.77913 4.25505 6.26871C4.04078 5.66581 4.06583 5.0037 4.32505 4.41871C4.32505 4.41871 4.91005 4.22871 6.25005 5.13371C7.39579 4.82119 8.60431 4.82119 9.75005 5.13371C11.085 4.22871 11.67 4.41871 11.67 4.41871C11.9293 5.0037 11.9543 5.66581 11.74 6.26871C12.2134 6.77913 12.4714 7.45266 12.46 8.14871C12.46 10.8387 10.825 11.4287 9.26505 11.6037C9.43216 11.7731 9.56102 11.9763 9.64296 12.1997C9.7249 12.4231 9.758 12.6615 9.74005 12.8987C9.74005 13.8337 9.74005 14.5887 9.74005 14.8187C9.74005 15.0487 9.86505 15.2237 10.24 15.1537C11.8185 14.627 13.1577 13.5551 14.0175 12.1304C14.8773 10.7057 15.2014 9.02134 14.9317 7.37931C14.662 5.73727 13.8162 4.245 12.546 3.1701C11.2757 2.09519 9.66407 1.50796 8.00005 1.51371V1.51371Z" fill="currentColor"/>
</svg>
