<svg viewBox="0 0 16 16" fill="none" xmlns="http://www.w3.org/2000/svg">
<rect width="16" height="16" fill="white" fill-opacity="0.01" style="mix-blend-mode:multiply"/>
<path d="M8.04992 1.59961L11.8999 2.04961C11.9999 2.04961 12.0499 2.09961 12.0999 2.14961L14.9499 5.99961C15.0499 6.09961 15.0499 6.24961 14.9499 6.34961L8.14992 14.3496C8.09992 14.3996 7.99992 14.3996 7.94992 14.3496L1.14992 6.34961C0.999923 6.24961 0.999923 6.09961 1.04992 5.99961L3.89992 2.14961C3.94992 2.09961 3.99992 2.04961 4.09992 2.04961L7.94992 1.59961C7.99992 1.59961 7.99992 1.59961 8.04992 1.59961ZM8.84992 2.39961C8.84992 2.39961 8.79992 2.39961 8.74992 2.39961C8.74992 2.39961 8.69992 2.44961 8.74992 2.49961L10.8999 5.19961C10.8999 5.24961 10.9499 5.24961 10.9499 5.29961C10.9499 5.39961 10.8999 5.44961 10.7999 5.44961H5.19992C5.14992 5.44961 5.14992 5.44961 5.09992 5.39961C5.04992 5.34961 5.04992 5.24961 5.04992 5.19961L7.24992 2.49961C7.24992 2.49961 7.24992 2.44961 7.24992 2.39961C7.24992 2.39961 7.19992 2.39961 7.14992 2.39961L4.19992 5.34961C4.19992 5.34961 4.14992 5.39961 4.09992 5.39961C4.04992 5.39961 3.99992 5.34961 3.99992 5.29961L4.09992 3.14961C4.09992 3.09961 4.09992 3.09961 4.04992 3.09961C3.99992 3.09961 3.99992 3.09961 3.99992 3.14961L3.44992 5.59961C3.44992 5.69961 3.34992 5.74961 3.29992 5.74961L1.89992 6.04961C1.84992 6.04961 1.84992 6.09961 1.84992 6.09961C1.84992 6.14961 1.84992 6.14961 1.89992 6.14961H3.24992C3.34992 6.14961 3.39992 6.19961 3.44992 6.24961L6.74992 12.1496C6.74992 12.1996 6.79992 12.1996 6.84992 12.1996C6.89992 12.1996 6.89992 12.1496 6.89992 12.0996L4.29992 6.44961V6.39961C4.29992 6.29961 4.34992 6.24961 4.44992 6.19961H11.5499C11.5999 6.19961 11.5999 6.19961 11.6499 6.19961C11.7499 6.24961 11.7499 6.34961 11.7499 6.39961L9.09992 12.0496C9.09992 12.0996 9.09992 12.1496 9.14992 12.1496C9.19992 12.1496 9.24992 12.1496 9.24992 12.0996L12.4999 6.29961C12.5499 6.24961 12.5999 6.19961 12.6999 6.19961H14.0499C14.0999 6.19961 14.0999 6.19961 14.0999 6.14961C14.0999 6.09961 14.0999 6.09961 14.0499 6.09961L12.6499 5.79961C12.5499 5.79961 12.4999 5.69961 12.4499 5.64961L11.9999 3.14961C11.9999 3.09961 11.9499 3.09961 11.9499 3.09961C11.8999 3.09961 11.8999 3.09961 11.8999 3.14961L11.9999 5.29961C11.9999 5.34961 11.9999 5.34961 11.9499 5.39961C11.8999 5.44961 11.8499 5.44961 11.7999 5.39961L8.84992 2.39961Z" fill="currentColor"/>
</svg>
