<svg viewBox="0 0 16 16" fill="none" xmlns="http://www.w3.org/2000/svg">
<rect width="16" height="16" fill="white" fill-opacity="0.01" style="mix-blend-mode:multiply"/>
<path d="M10.9552 10.2929L8.4552 4.79295C8.37635 4.62035 8.20215 4.5 8 4.5C7.79785 4.5 7.62355 4.62035 7.5448 4.79295L5.0448 10.2929C5.016 10.3562 5 10.426 5 10.5C5 10.7761 5.2239 11 5.5 11C5.70215 11 5.87635 10.8797 5.9552 10.7071L6.95445 8.5088L10.2034 10.9026C10.2864 10.9639 10.3889 11 10.5 11C10.7761 11 11 10.7761 11 10.5C11 10.426 10.984 10.3559 10.9552 10.2929ZM8 6.2085L9.2495 8.9575L7.37745 7.5781L8 6.2085Z" fill="currentColor"/>
<path d="M8 15C4.14015 15 1 11.8598 1 8C1 4.14015 4.14015 1 8 1C11.8598 1 15 4.14015 15 8C15 11.8598 11.8598 15 8 15ZM8 2C4.69165 2 2 4.69165 2 8C2 11.3084 4.69165 14 8 14C11.3084 14 14 11.3084 14 8C14 4.69165 11.3084 2 8 2Z" fill="currentColor"/>
</svg>
