<svg viewBox="0 0 16 17" fill="none" xmlns="http://www.w3.org/2000/svg">
<rect width="16" height="16" transform="translate(0 0.513672)" fill="white" fill-opacity="0.01" style="mix-blend-mode:multiply"/>
<path d="M5.71014 4.65904C5.66278 4.54786 5.5842 4.45279 5.48393 4.38534C5.38365 4.3179 5.26597 4.28097 5.14514 4.27904H3.14514C3.0926 4.27606 3.04013 4.28587 2.99223 4.30765C2.94433 4.32942 2.90243 4.3625 2.87014 4.40404C2.84341 4.45133 2.82936 4.50472 2.82936 4.55904C2.82936 4.61336 2.84341 4.66675 2.87014 4.71404L4.23514 7.07904L2.08514 10.874C2.05691 10.9208 2.04199 10.9744 2.04199 11.029C2.04199 11.0837 2.05691 11.1373 2.08514 11.184C2.11196 11.2285 2.15025 11.265 2.19598 11.2896C2.24172 11.3142 2.29323 11.3261 2.34514 11.324H4.34514C4.465 11.3203 4.58109 11.2813 4.67892 11.2119C4.77674 11.1426 4.85195 11.0459 4.89514 10.934L7.07514 7.07904L5.71014 4.65904Z" fill="currentColor"/>
<path d="M13.9151 1.95404C13.941 1.90645 13.9545 1.85318 13.9545 1.79904C13.9545 1.7449 13.941 1.69162 13.9151 1.64404C13.8856 1.60171 13.8458 1.56758 13.7994 1.54485C13.7531 1.52211 13.7017 1.51151 13.6501 1.51404H11.6101C11.4921 1.51737 11.3777 1.55576 11.2815 1.62433C11.1854 1.69289 11.1118 1.78852 11.0701 1.89904C11.0701 1.89904 6.72014 9.61404 6.57014 9.86404L9.44014 15.129C9.48691 15.24 9.56452 15.3353 9.66377 15.4035C9.76302 15.4718 9.87976 15.5101 10.0001 15.514H12.0001C12.0526 15.5185 12.1054 15.5087 12.1529 15.4859C12.2004 15.463 12.2408 15.4278 12.2701 15.384C12.2973 15.3369 12.3117 15.2835 12.3117 15.229C12.3117 15.1746 12.2973 15.1212 12.2701 15.074L9.42514 9.87404L13.9151 1.95404Z" fill="currentColor"/>
</svg>
