<svg viewBox="0 0 16 16" fill="none" xmlns="http://www.w3.org/2000/svg">
<rect width="16" height="16" fill="white" fill-opacity="0.01" style="mix-blend-mode:multiply"/>
<path d="M7.56701 8.59454L7.99951 8.80254L8.43101 8.59504L8.53801 8.12954L8.23951 7.75604H7.75901L7.45951 8.12854L7.56701 8.59454Z" fill="currentColor"/>
<path d="M7.10831 6.94004L7.10951 6.94099C7.14782 6.96892 7.19299 6.98594 7.24021 6.99021C7.28743 6.99449 7.33492 6.98587 7.37763 6.96527C7.42033 6.94468 7.45665 6.91288 7.4827 6.87326C7.50875 6.83365 7.52356 6.78771 7.52556 6.74034V6.73884L7.53191 6.73569L7.62101 5.16504C7.51236 5.17844 7.40601 5.19679 7.30436 5.21974C6.74349 5.34628 6.22886 5.62632 5.81801 6.02854L7.10561 6.94139L7.10831 6.94004Z" fill="currentColor"/>
<path d="M6.41736 8.13114L6.41886 8.13064C6.4646 8.11814 6.50609 8.09346 6.53891 8.05923C6.57173 8.025 6.59465 7.98251 6.60522 7.93628C6.61579 7.89005 6.61362 7.84182 6.59894 7.79673C6.58426 7.75164 6.55762 7.71138 6.52186 7.68024L6.52066 7.67924L6.52211 7.67289L5.34636 6.62114C4.98853 7.20472 4.83471 7.89064 4.90906 8.57114L6.41616 8.13614L6.41736 8.13114Z" fill="currentColor"/>
<path d="M6.93226 9.25054C6.91736 9.18456 6.87748 9.12693 6.82099 9.08974C6.7645 9.05255 6.6958 9.03869 6.62931 9.05109H6.62761L6.62516 9.04794L5.07976 9.31039C5.312 9.95136 5.74889 10.498 6.32291 10.8658L6.92151 9.41904L6.91716 9.41319L6.91761 9.41169C6.93956 9.36091 6.9447 9.30444 6.93226 9.25054Z" fill="currentColor"/>
<path d="M8.23111 9.82159L8.23036 9.82034C8.20695 9.77746 8.17215 9.74188 8.1298 9.71754C8.08745 9.69319 8.03919 9.68103 7.99036 9.68239C7.94455 9.68418 7.90001 9.6979 7.86113 9.72218C7.82224 9.74646 7.79037 9.78047 7.76866 9.82084L7.76791 9.82229H7.76651L7.00651 11.1963C7.55109 11.3805 8.13602 11.4103 8.69651 11.2825C8.80001 11.2591 8.90151 11.2305 8.99871 11.1983L8.23701 9.82159H8.23111Z" fill="currentColor"/>
<path d="M9.36856 9.04504H9.36686C9.347 9.04119 9.32676 9.03971 9.30656 9.04064C9.26437 9.04301 9.22337 9.05551 9.18703 9.07707C9.15069 9.09863 9.12008 9.12863 9.09778 9.16453C9.07549 9.20042 9.06216 9.24116 9.05894 9.28329C9.05571 9.32543 9.06268 9.36772 9.07926 9.40659L9.07976 9.40779L9.07776 9.41049L9.68276 10.8722C10.2608 10.5026 10.6996 9.95132 10.93 9.30504L9.37121 9.04159L9.36856 9.04504Z" fill="currentColor"/>
<path d="M10.6447 6.62189L9.47551 7.66824L9.47621 7.67144L9.47501 7.67239C9.43929 7.70357 9.41269 7.74384 9.39802 7.78892C9.38336 7.834 9.38118 7.88222 9.39172 7.92844C9.40226 7.97466 9.42512 8.01717 9.45787 8.05144C9.49063 8.08571 9.53206 8.11047 9.57776 8.12309L9.57951 8.12334L9.58071 8.12994L11.0954 8.56594C11.1601 7.88618 11.0019 7.20382 10.6447 6.62189Z" fill="currentColor"/>
<path d="M8.46916 6.73369V6.73514C8.47138 6.79058 8.49143 6.84383 8.52631 6.88699C8.56839 6.93994 8.62934 6.97455 8.69637 6.98356C8.76341 6.99258 8.83133 6.97529 8.88591 6.93534L8.88716 6.93439L8.89156 6.93634L10.1709 6.02934C9.68404 5.55314 9.05459 5.24957 8.37886 5.16509L8.46771 6.73294L8.46916 6.73369Z" fill="currentColor"/>
<path d="M15.1903 9.51884L13.9508 4.13529C13.9185 3.99557 13.855 3.86496 13.7651 3.7532C13.6752 3.64143 13.5613 3.55139 13.4318 3.48979L8.41501 1.09429C8.28497 1.03222 8.1427 1 7.99861 1C7.85451 1 7.71224 1.03222 7.58221 1.09429L2.56631 3.49099C2.43682 3.55263 2.3229 3.64268 2.23304 3.75444C2.14317 3.8662 2.07967 3.99679 2.04726 4.13649L0.809707 9.52004C0.781153 9.64414 0.777976 9.77273 0.800368 9.89809C0.822759 10.0235 0.870256 10.143 0.940007 10.2495C0.956847 10.2757 0.975003 10.3009 0.994407 10.3252L4.46636 14.6421C4.55668 14.7541 4.67093 14.8443 4.80073 14.9062C4.93052 14.9682 5.07254 15.0002 5.21636 15L10.7842 14.9988C10.928 14.9991 11.07 14.9671 11.1998 14.9052C11.3295 14.8433 11.4438 14.7532 11.5342 14.6414L15.005 10.324C15.0948 10.2126 15.1582 10.0822 15.1902 9.94272C15.2223 9.80325 15.2224 9.65832 15.1903 9.51884ZM13.2846 9.45384C13.2612 9.5344 13.2073 9.60264 13.1343 9.64401C13.0613 9.68538 12.9751 9.69661 12.894 9.67529H12.892L12.8896 9.67479L12.8861 9.67384L12.8837 9.67284L12.8551 9.66699C12.8378 9.66359 12.8201 9.65989 12.8061 9.65624C12.7446 9.63879 12.6846 9.61659 12.6266 9.58984C12.5978 9.57739 12.568 9.56419 12.5363 9.55224L12.5275 9.54909C12.3614 9.48231 12.1892 9.43186 12.0133 9.39844C11.9596 9.39484 11.9065 9.41245 11.8656 9.44749L11.8471 9.46019L11.8461 9.46094C11.8242 9.45654 11.7577 9.44484 11.7192 9.43874C11.4287 10.3513 10.8132 11.1255 9.98966 11.6142C9.99431 11.6252 9.99966 11.6392 10.005 11.6545C10.0137 11.6816 10.0249 11.7078 10.0385 11.7329L10.0395 11.7339L10.039 11.7353L10.0307 11.7563C10.0058 11.804 10.0005 11.8594 10.0157 11.9109C10.0889 12.0777 10.178 12.237 10.2818 12.3867C10.3006 12.4148 10.3196 12.4409 10.3382 12.4663C10.3773 12.5168 10.4123 12.5703 10.4429 12.6263C10.4512 12.6419 10.4615 12.6639 10.4705 12.6831L10.482 12.7073C10.5037 12.7438 10.5176 12.7843 10.5228 12.8264C10.5279 12.8685 10.5242 12.9113 10.5118 12.9518C10.4995 12.9924 10.4788 13.03 10.4511 13.0621C10.4233 13.0942 10.3892 13.1202 10.3509 13.1383C10.3125 13.1564 10.2708 13.1663 10.2284 13.1674C10.186 13.1684 10.1438 13.1606 10.1046 13.1444C10.0654 13.1282 10.03 13.1039 10.0008 13.0732C9.97148 13.0425 9.94895 13.0061 9.93461 12.9661L9.92341 12.9434C9.91411 12.9244 9.90436 12.9046 9.89751 12.889C9.87266 12.8297 9.85242 12.7685 9.83696 12.7061C9.82866 12.6763 9.82011 12.6453 9.81011 12.6136L9.80716 12.6053C9.7558 12.4338 9.68795 12.2676 9.60456 12.1092C9.57352 12.0647 9.52642 12.0341 9.47321 12.0237L9.45246 12.0174L9.45096 12.0164C9.44596 12.0079 9.43411 11.9859 9.42121 11.9627C9.40946 11.9417 9.39701 11.919 9.38801 11.9027C9.22056 11.9658 9.04901 12.0174 8.87456 12.0572C8.12351 12.2284 7.3385 12.1722 6.61956 11.8956L6.55196 12.0177L6.55096 12.0182C6.50296 12.0255 6.45829 12.0471 6.42281 12.0802C6.34616 12.1896 6.28929 12.3115 6.25481 12.4405C6.23481 12.4991 6.21481 12.5597 6.19086 12.619C6.18061 12.651 6.17206 12.6825 6.16401 12.713C6.1487 12.7748 6.12864 12.8354 6.10401 12.8941C6.09766 12.9091 6.08836 12.9276 6.07936 12.9454L6.06711 12.9701L6.06686 12.9713L6.06591 12.9723C6.0396 13.0296 5.99779 13.0785 5.94521 13.1133C5.89263 13.1482 5.83136 13.1676 5.76831 13.1695C5.72677 13.1697 5.68574 13.1604 5.64831 13.1424C5.57494 13.1018 5.52039 13.034 5.49631 12.9537C5.47222 12.8733 5.48051 12.7868 5.51941 12.7124C5.52381 12.7039 5.52821 12.6939 5.53311 12.6836C5.54166 12.6651 5.55041 12.6458 5.55811 12.6314C5.58897 12.5751 5.62407 12.5212 5.66311 12.4703C5.68146 12.4453 5.70046 12.419 5.71901 12.3914C5.82494 12.2378 5.91586 12.0744 5.99051 11.9034C5.99836 11.846 5.98911 11.7876 5.96391 11.7354V11.7334L6.01761 11.6048C5.19698 11.1197 4.58177 10.3516 4.28761 9.44479L4.15796 9.46699L4.14401 9.45894C4.09747 9.42662 4.04267 9.40823 3.98606 9.40594C3.81021 9.43944 3.63802 9.48989 3.47191 9.55659L3.46336 9.55979C3.43236 9.57174 3.40281 9.58419 3.37426 9.59639C3.31585 9.62323 3.25545 9.64551 3.19361 9.66304C3.17821 9.66719 3.15821 9.67159 3.13891 9.67549L3.11596 9.68049L3.11351 9.68144L3.11011 9.68244L3.10766 9.68294H3.10571C3.06554 9.69613 3.02306 9.70079 2.98098 9.69662C2.93891 9.69246 2.89817 9.67956 2.86136 9.65875C2.82455 9.63795 2.7925 9.60969 2.76723 9.57579C2.74197 9.54188 2.72406 9.50308 2.71465 9.46187C2.70523 9.42065 2.70452 9.37792 2.71256 9.33641C2.7206 9.2949 2.73721 9.25553 2.76134 9.22081C2.78546 9.18608 2.81656 9.15678 2.85266 9.13476C2.88875 9.11274 2.92904 9.0985 2.97096 9.09294L2.97291 9.09244L2.97556 9.09169H2.97656L2.97826 9.09124L3.00171 9.08559C3.02171 9.08059 3.04221 9.07559 3.05836 9.07269C3.12125 9.06171 3.18492 9.05574 3.24876 9.05484C3.28026 9.05364 3.31296 9.05214 3.34666 9.04949L3.35376 9.04874C3.5333 9.03646 3.71122 9.00675 3.88501 8.96004C3.93163 8.93147 3.97113 8.89265 4.00051 8.84654L4.01271 8.83064L4.01391 8.82994L4.13746 8.79404C4.00178 7.84734 4.21977 6.88384 4.74976 6.08774L4.65476 6.00274L4.65256 5.98784C4.64884 5.93076 4.62883 5.87594 4.59491 5.82989C4.45681 5.71127 4.30751 5.60636 4.14911 5.51664C4.11986 5.49954 4.09126 5.48419 4.06346 5.46954C4.00655 5.44091 3.95193 5.40793 3.90011 5.37089C3.88691 5.36114 3.87081 5.34794 3.85541 5.33524L3.83761 5.32084L3.83501 5.31939L3.83256 5.31744C3.76358 5.26368 3.71706 5.18619 3.70206 5.10004C3.69469 5.06009 3.69591 5.01903 3.70563 4.97959C3.71536 4.94015 3.73336 4.90323 3.75846 4.87129C3.78748 4.83574 3.82448 4.80753 3.86645 4.78896C3.90842 4.7704 3.95418 4.762 4.00001 4.76444C4.07693 4.76784 4.15075 4.79573 4.21071 4.84404L4.22876 4.85819C4.24536 4.87114 4.26376 4.88579 4.27736 4.89724C4.32531 4.93977 4.36996 4.98588 4.41091 5.03519C4.43091 5.05864 4.45216 5.08279 4.47511 5.10724L4.48011 5.11224C4.60123 5.24495 4.73501 5.36552 4.87956 5.47224C4.92662 5.49891 4.98222 5.50619 5.03456 5.49254L5.05606 5.48909L5.05776 5.48959C5.07561 5.50279 5.13196 5.54329 5.16446 5.56529C5.69217 5.00488 6.37525 4.61487 7.12611 4.44529C7.30425 4.40518 7.48495 4.37736 7.66691 4.36204L7.67396 4.23629C7.72028 4.19531 7.75442 4.14125 7.77141 4.08179C7.7779 3.90129 7.76685 3.7206 7.73841 3.54224L7.73796 3.53784C7.73331 3.50464 7.72746 3.47284 7.72156 3.44214C7.70861 3.37951 7.70037 3.316 7.69691 3.25214C7.69646 3.23714 7.69666 3.21819 7.69691 3.19989L7.69716 3.17489L7.69691 3.17124V3.16659C7.69247 3.12418 7.697 3.0813 7.71019 3.04075C7.72339 3.0002 7.74496 2.96287 7.7735 2.93119C7.80204 2.89951 7.83692 2.87418 7.87588 2.85684C7.91484 2.8395 7.95701 2.83054 7.99966 2.83054C8.0423 2.83054 8.08447 2.8395 8.12343 2.85684C8.16239 2.87418 8.19727 2.89951 8.22581 2.93119C8.25436 2.96287 8.27593 3.0002 8.28912 3.04075C8.30231 3.0813 8.30684 3.12418 8.30241 3.16659L8.30286 3.19684C8.30336 3.21614 8.30361 3.23639 8.30311 3.25184C8.2997 3.3157 8.29146 3.37922 8.27846 3.44184C8.27261 3.47259 8.26676 3.50434 8.26211 3.53754L8.26016 3.55339C8.23236 3.72805 8.22165 3.905 8.22816 4.08174C8.23665 4.13502 8.26565 4.18286 8.30896 4.21504L8.32536 4.23004L8.32631 4.23079C8.32706 4.25254 8.33046 4.32354 8.33316 4.36359C8.80526 4.40585 9.26569 4.53394 9.69181 4.74154C10.1152 4.94677 10.4985 5.22618 10.8234 5.56654L10.9364 5.48594L10.953 5.48694C11.0088 5.49603 11.0661 5.48891 11.118 5.46644C11.2603 5.36108 11.3921 5.24219 11.5116 5.11144L11.5223 5.10044C11.545 5.07654 11.5658 5.05284 11.586 5.02964C11.6274 4.97992 11.6726 4.93341 11.721 4.89049C11.7342 4.87904 11.752 4.86549 11.7694 4.85169L11.7877 4.83729C11.8181 4.80736 11.8544 4.78416 11.8944 4.76919C11.9343 4.75422 11.977 4.74782 12.0196 4.75039C12.0621 4.75297 12.1037 4.76447 12.1416 4.78414C12.1794 4.80381 12.2127 4.83123 12.2393 4.8646C12.2659 4.89797 12.2851 4.93655 12.2958 4.97785C12.3065 5.01915 12.3085 5.06223 12.3014 5.10431C12.2944 5.1464 12.2786 5.18653 12.2551 5.22212C12.2316 5.25771 12.2008 5.28795 12.1649 5.31089L12.1431 5.32874C12.1278 5.34144 12.1116 5.35459 12.0989 5.36414C12.0471 5.40109 11.9925 5.43399 11.9356 5.46254C11.9075 5.47719 11.8785 5.49254 11.8489 5.50989C11.6905 5.59985 11.5412 5.70482 11.4029 5.82334C11.3665 5.86329 11.3471 5.91585 11.3489 5.96984L11.3472 5.99184L11.3465 5.99329C11.3384 6.00059 11.3211 6.01624 11.3008 6.03429C11.2805 6.05234 11.2576 6.07289 11.2415 6.08754C11.7734 6.88055 11.9958 7.84117 11.8665 8.78724L11.9865 8.82224L11.9956 8.83544C12.0237 8.88491 12.0653 8.92538 12.1156 8.95214C12.2895 8.99845 12.4675 9.02787 12.6471 9.03999L12.6532 9.04049C12.6869 9.04344 12.7196 9.04464 12.7513 9.04589C12.815 9.0469 12.8785 9.05285 12.9413 9.06369C12.9569 9.06664 12.977 9.07149 12.9963 9.07639L13.0285 9.08419C13.111 9.10011 13.1841 9.14772 13.2319 9.21682C13.2798 9.28592 13.2987 9.37098 13.2846 9.45384Z" fill="currentColor"/>
</svg>
