<svg viewBox="0 0 16 17" fill="none" xmlns="http://www.w3.org/2000/svg">
<rect width="16" height="16" transform="translate(0 0.513672)" fill="white" fill-opacity="0.01" style="mix-blend-mode:multiply"/>
<path d="M5.41422 14.5137H10.5861C11.041 14.5137 11.4772 14.333 11.7988 14.0114C12.1204 13.6897 12.3011 13.2535 12.3011 12.7987V5.67897H10.5861V12.7987H3.69922C3.69922 13.2535 3.87991 13.6897 4.20153 14.0114C4.52316 14.333 4.95937 14.5137 5.41422 14.5137Z" fill="currentColor"/>
<path d="M10.5861 2.51367H5.41422C4.95937 2.51367 4.52316 2.69436 4.20153 3.01598C3.87991 3.33761 3.69922 3.77383 3.69922 4.22867V11.3487H5.41422V4.22867H12.3011C12.3011 3.77383 12.1204 3.33761 11.7988 3.01598C11.4772 2.69436 11.041 2.51367 10.5861 2.51367Z" fill="currentColor"/>
</svg>
