<svg viewBox="0 0 16 17" fill="none" xmlns="http://www.w3.org/2000/svg">
<rect width="16" height="16" transform="translate(0 0.513672)" fill="white" fill-opacity="0.01" style="mix-blend-mode:multiply"/>
<path fill-rule="evenodd" clip-rule="evenodd" d="M4.25447 8.1063L6.78437 9.34005C7.27102 9.5774 7.19582 10.293 6.67047 10.424L3.93957 11.105C3.59892 11.1899 3.26252 10.9549 3.22232 10.6061C3.13637 9.8601 3.22127 9.12335 3.45052 8.4413C3.56187 8.11005 3.94037 7.9531 4.25447 8.1063Z" fill="currentColor"/>
<path fill-rule="evenodd" clip-rule="evenodd" d="M5.26742 13.3143L7.15037 11.2227C7.51262 10.8203 8.17982 11.0899 8.16092 11.631L8.06272 14.4446C8.05047 14.7952 7.73207 15.0548 7.38612 14.9967C6.65857 14.8745 5.97037 14.5932 5.36957 14.1806C5.08082 13.9822 5.03302 13.5746 5.26742 13.3143Z" fill="currentColor"/>
<path fill-rule="evenodd" clip-rule="evenodd" d="M9.73202 10.531L12.4085 11.4008C12.7416 11.5091 12.9041 11.8861 12.7532 12.2022C12.4392 12.8599 11.9838 13.4476 11.4149 13.9172C11.1443 14.1405 10.7388 14.0749 10.5529 13.7774L9.06097 11.3898C8.77407 10.9306 9.21712 10.3637 9.73202 10.531Z" fill="currentColor"/>
<path fill-rule="evenodd" clip-rule="evenodd" d="M12.4538 8.82355L9.74832 9.5993C9.22787 9.7485 8.80492 9.1664 9.10772 8.7175L10.6818 6.3841C10.8772 6.09435 11.2835 6.04105 11.5455 6.27225C12.0851 6.7483 12.5269 7.3439 12.8255 8.03295C12.9651 8.3551 12.7913 8.72675 12.4538 8.82355Z" fill="currentColor"/>
<path fill-rule="evenodd" clip-rule="evenodd" d="M6.13192 2.25835C5.64497 2.3888 5.18042 2.56125 4.74117 2.7707C4.43637 2.91605 4.32122 3.29145 4.49007 3.5839L7.13442 8.1641C7.43112 8.67795 8.21657 8.46745 8.21657 7.87415V2.5854C8.21657 2.2477 7.92912 1.98015 7.59252 2.0067C7.10737 2.04495 6.61882 2.1279 6.13192 2.25835Z" fill="currentColor"/>
</svg>
