<svg viewBox="0 0 16 16" fill="none" xmlns="http://www.w3.org/2000/svg">
<rect width="16" height="16" fill="white" fill-opacity="0.01" style="mix-blend-mode:multiply"/>
<path d="M14.2839 6.44599L14.2656 6.39929L12.4962 1.78149C12.4602 1.69099 12.3964 1.61419 12.3141 1.56219C12.1453 1.45744 11.9291 1.46904 11.7726 1.59129C11.697 1.65269 11.6422 1.73589 11.6155 1.82954L10.4208 5.48479H5.58304L4.38834 1.82954C4.36244 1.73534 4.30749 1.65174 4.23129 1.59059C4.07474 1.46834 3.85854 1.45674 3.68979 1.56149C3.60764 1.61374 3.54394 1.69044 3.50769 1.78079L1.73489 6.39654L1.71729 6.44324C1.19404 7.81049 1.63839 9.35899 2.80709 10.2406L2.81319 10.2454L2.82944 10.2569L5.52484 12.2754L6.85834 13.2846L7.67064 13.8979C7.86589 14.0461 8.13604 14.0461 8.33129 13.8979L9.14359 13.2846L10.4771 12.2754L13.1887 10.2447L13.1955 10.2393C14.3614 9.35754 14.8049 7.81179 14.2839 6.44599Z" fill="currentColor"/>
</svg>
