<svg viewBox="0 0 16 17" fill="none" xmlns="http://www.w3.org/2000/svg">
<rect width="16" height="16" transform="translate(0 0.513672)" fill="white" fill-opacity="0.01" style="mix-blend-mode:multiply"/>
<path d="M12.8502 4.06406C11.9502 3.66406 11.0002 3.36406 10.0002 3.16406H9.9502C9.8502 3.36406 9.7002 3.66406 9.6002 3.91406C8.5002 3.76406 7.4502 3.76406 6.4002 3.91406C6.3002 3.66406 6.1502 3.41406 6.0502 3.16406H6.0002C5.0002 3.31406 4.0502 3.61406 3.1502 4.06406C1.3502 6.76406 0.850201 9.41406 1.1002 12.0141V12.0641C2.3002 12.9641 3.4502 13.4641 4.6002 13.8141H4.6502C4.9002 13.4641 5.1502 13.0641 5.3502 12.6641V12.6141C4.9502 12.4641 4.6002 12.3141 4.2502 12.1141C4.2002 12.1141 4.2002 12.0641 4.2502 12.0641C4.3002 12.0141 4.4002 11.9641 4.4502 11.9141H4.5002C6.8002 12.9641 9.2502 12.9641 11.5502 11.9141H11.6002C11.6502 11.9641 11.7502 12.0141 11.8002 12.0641C11.8502 12.0641 11.8002 12.1141 11.8002 12.1141C11.4502 12.3141 11.1002 12.5141 10.7002 12.6141C10.7002 12.6141 10.6502 12.6641 10.7002 12.6641C10.9002 13.0641 11.1502 13.4641 11.4002 13.8141H11.4502C12.6002 13.4641 13.7502 12.9141 14.9502 12.0641C14.9502 12.0641 14.9502 12.0641 14.9502 12.0141C15.2502 9.01406 14.4502 6.41406 12.8502 4.06406ZM5.7002 10.4641C5.0002 10.4641 4.4502 9.81406 4.4502 9.06406C4.4502 8.31406 5.0002 7.66406 5.7002 7.66406C6.4002 7.66406 6.9502 8.31406 6.9502 9.06406C6.9502 9.81406 6.4002 10.4641 5.7002 10.4641ZM10.3502 10.4641C9.6502 10.4641 9.1002 9.81406 9.1002 9.06406C9.1002 8.31406 9.6502 7.66406 10.3502 7.66406C11.0502 7.66406 11.6002 8.31406 11.6002 9.06406C11.6002 9.81406 11.0502 10.4641 10.3502 10.4641Z" fill="currentColor"/>
</svg>
