<svg viewBox="0 0 16 16" fill="none" xmlns="http://www.w3.org/2000/svg">
<rect width="16" height="16" fill="white" fill-opacity="0.01" style="mix-blend-mode:multiply"/>
<path d="M15 11.5H12C11.4485 11.5 11 11.0512 11 10.5V5.5C11 4.9485 11.4485 4.5 12 4.5H15V5.5H12V10.5H15V11.5Z" fill="currentColor"/>
<path d="M9 4.5H7C6.4485 4.5 6 4.9485 6 5.5V11.5H7V9H9V11.5H10V5.5C10 4.9485 9.5515 4.5 9 4.5ZM7 8V5.5H9V8H7Z" fill="currentColor"/>
<path d="M4 4.5L3.24245 7L3 7.9885L2.7675 7L2 4.5H1V11.5H2V7.5L1.92075 6.50195L2.2106 7.5L3 9.81315L3.7894 7.5L4.0794 6.5L4 7.5V11.5H5V4.5H4Z" fill="currentColor"/>
</svg>
