<svg viewBox="0 0 16 17" fill="none" xmlns="http://www.w3.org/2000/svg">
<rect width="16" height="16" transform="translate(0 0.513672)" fill="white" fill-opacity="0.01" style="mix-blend-mode:multiply"/>
<path d="M12.5 9.51367L11.7929 10.2207L13.0836 11.5137H9C8.46957 11.5137 7.96086 11.7244 7.58579 12.0995C7.21071 12.4745 7 12.9832 7 13.5137C7 14.0441 7.21071 14.5528 7.58579 14.9279C7.96086 15.303 8.46957 15.5137 9 15.5137H10V14.5137H9C8.73478 14.5137 8.48043 14.4083 8.29289 14.2208C8.10536 14.0332 8 13.7789 8 13.5137C8 13.2485 8.10536 12.9941 8.29289 12.8066C8.48043 12.619 8.73478 12.5137 9 12.5137H13.0836L11.7922 13.8074L12.5 14.5137L15 12.0137L12.5 9.51367Z" fill="currentColor"/>
<path d="M5 11.5137H2L1.9983 3.96687L7.71535 7.92482C7.799 7.98268 7.89829 8.01367 8 8.01367C8.10171 8.01367 8.201 7.98268 8.28465 7.92482L14 3.96797V8.51367H15V3.51367C14.9997 3.24856 14.8942 2.9944 14.7067 2.80693C14.5193 2.61947 14.2651 2.514 14 2.51367H2C1.73509 2.51367 1.481 2.61879 1.29351 2.80595C1.10603 2.9931 1.00046 3.24701 1 3.51192V11.5137C1.00034 11.7788 1.10581 12.0329 1.29327 12.2204C1.48073 12.4079 1.73489 12.5133 2 12.5137H5V11.5137ZM12.8993 3.51367L8 6.90552L3.1007 3.51367H12.8993Z" fill="currentColor"/>
</svg>
