<svg viewBox="0 0 16 17" fill="none" xmlns="http://www.w3.org/2000/svg">
<rect width="16" height="16" transform="translate(0 0.513672)" fill="white" fill-opacity="0.01" style="mix-blend-mode:multiply"/>
<path d="M8.295 10.7187L10.085 12.5137L8.29 14.3087L9 15.0137L11.5 12.5137L9 10.0137L8.295 10.7187Z" fill="currentColor"/>
<path d="M11.795 10.7187L13.585 12.5137L11.79 14.3087L12.5 15.0137L15 12.5137L12.5 10.0137L11.795 10.7187Z" fill="currentColor"/>
<path d="M7 12.0137H2V4.46867L7.715 8.42367C7.7987 8.48174 7.89813 8.51285 8 8.51285C8.10187 8.51285 8.2013 8.48174 8.285 8.42367L14 4.46867V9.01367H15V4.01367C15 3.74846 14.8946 3.4941 14.7071 3.30657C14.5196 3.11903 14.2652 3.01367 14 3.01367H2C1.73478 3.01367 1.48043 3.11903 1.29289 3.30657C1.10536 3.4941 1 3.74846 1 4.01367V12.0137C1 12.2789 1.10536 12.5332 1.29289 12.7208C1.48043 12.9083 1.73478 13.0137 2 13.0137H7V12.0137ZM12.9 4.01367L8 7.40367L3.1 4.01367H12.9Z" fill="currentColor"/>
</svg>
