<svg viewBox="0 0 16 16" fill="none" xmlns="http://www.w3.org/2000/svg">
<rect width="16" height="16" fill="white" fill-opacity="0.01" style="mix-blend-mode:multiply"/>
<path d="M15.0002 11.5H12.5002V8.99998H11.5002V11.5H9.00022V12.5H11.5002V15H12.5002V12.5H15.0002V11.5Z" fill="currentColor"/>
<path d="M12.0639 5.91968L12.6542 6.02648C13.1327 6.10439 13.5839 6.30115 13.9666 6.59873C14.3231 6.88195 14.6025 7.25039 14.779 7.67005C14.9556 8.08972 15.0236 8.5471 14.9768 8.99998H15.9915C16.0532 8.07975 15.7738 7.16902 15.2066 6.44177C14.6393 5.71453 13.824 5.22175 12.9165 5.05758C12.7272 4.07535 12.2478 3.1724 11.5403 2.46531C10.8327 1.75821 9.92947 1.27944 8.94712 1.09078C8.30185 0.966133 7.63835 0.969881 6.99453 1.10181C6.35071 1.23375 5.73921 1.49127 5.19498 1.85968C4.65076 2.22808 4.18447 2.70013 3.82279 3.24885C3.46111 3.79757 3.21112 4.41219 3.08712 5.05758C2.14441 5.22788 1.30252 5.75224 0.733945 6.52322C0.165372 7.29421 -0.0868291 8.25345 0.0290176 9.20438C0.161728 10.1286 0.62648 10.9729 1.3364 11.5795C2.04633 12.186 2.95283 12.5132 3.88647 12.5H7.00022V11.5H3.84912C3.19423 11.5102 2.55626 11.2918 2.045 10.8825C1.53374 10.4731 1.18115 9.8983 1.04792 9.25703C0.981216 8.90024 0.985721 8.53379 1.06118 8.17875C1.13663 7.82371 1.28154 7.48709 1.48758 7.18826C1.69362 6.88944 1.95671 6.6343 2.26171 6.43754C2.56672 6.24077 2.90763 6.10625 3.26482 6.04173L3.93922 5.91968L4.04612 5.36468C4.19631 4.53071 4.60103 3.76369 5.20469 3.16899C5.80835 2.57429 6.58134 2.18108 7.41747 2.04338C7.91933 1.96894 8.43078 1.99101 8.92437 2.10838C9.68563 2.29713 10.3762 2.70171 10.913 3.2735C11.4499 3.84529 11.8102 4.55994 11.9507 5.33158L12.0639 5.91968Z" fill="currentColor"/>
</svg>
