<svg viewBox="0 0 16 17" fill="none" xmlns="http://www.w3.org/2000/svg">
<g clip-path="url(#clip0_1961_11593)">
<rect width="16" height="16" transform="translate(0 0.513672)" fill="white" fill-opacity="0.01" style="mix-blend-mode:multiply"/>
<path d="M14 8.51368H9V7.51368H11.5V5.51368C11.5 5.24847 11.6054 4.99411 11.7929 4.80658C11.9804 4.61904 12.2348 4.51368 12.5 4.51368H13.25C13.4368 4.51399 13.617 4.44459 13.7553 4.31905C13.8936 4.19351 13.9801 4.02087 13.9978 3.83492C14.0156 3.64897 13.9633 3.46309 13.8512 3.31366C13.7391 3.16423 13.5753 3.062 13.3919 3.02698L13.0364 2.95923L12.9991 2.67368C12.9735 2.43198 12.8815 2.20208 12.7332 2.00948C12.5849 1.81689 12.3862 1.66911 12.1591 1.58253C11.8669 1.4819 11.5479 1.49281 11.2633 1.61319C10.9787 1.73356 10.7486 1.95489 10.6173 2.23463L10.4657 2.55823L10.1107 2.51968C9.95254 2.50419 9.79296 2.52626 9.64494 2.5841C9.49692 2.64194 9.36466 2.73392 9.25891 2.85255C9.15316 2.97117 9.07692 3.1131 9.0364 3.26676C8.99587 3.42042 8.99221 3.58149 9.0257 3.73683C9.08657 3.96382 9.22192 4.16379 9.41003 4.30466C9.59814 4.44553 9.8281 4.51914 10.0631 4.51368H10.5V5.51368H10.1091C9.59188 5.52403 9.08941 5.34072 8.70032 4.99972C8.31123 4.65872 8.06359 4.18464 8.006 3.67048C7.98551 3.40588 8.01782 3.13985 8.10106 2.88785C8.1843 2.63585 8.31681 2.40291 8.49088 2.20258C8.66494 2.00224 8.8771 1.83851 9.11501 1.7209C9.35292 1.60328 9.61183 1.53414 9.8767 1.51748C10.1146 1.15984 10.45 0.877772 10.8431 0.704608C11.2362 0.531445 11.6707 0.47442 12.0952 0.540271C12.5197 0.606121 12.9165 0.792096 13.2386 1.07622C13.5608 1.36035 13.7949 1.73076 13.9134 2.14368C14.2718 2.29091 14.5714 2.5528 14.7652 2.88838C14.959 3.22396 15.0361 3.61432 14.9845 3.99838C14.9128 4.42811 14.6888 4.81769 14.3536 5.09591C14.0183 5.37414 13.5942 5.52243 13.1586 5.51368H12.5V7.51368H14V8.51368Z" fill="currentColor"/>
<path d="M11 9.51368H9V10.5137H11V9.51368Z" fill="currentColor"/>
<path d="M7 9.51368V8.51368H6V10.5137H8V9.51368H7Z" fill="currentColor"/>
<path d="M7 5.51368H6V7.51368H7V5.51368Z" fill="currentColor"/>
<path d="M8.9425 15.5137L5.9095 13.5847L2 14.5082V2.51368H7V4.51368H6V3.51368H3V13.2442L6.0905 12.5142L9.0575 14.4017L11.409 13.5137H13V10.5137H12V9.51368H14V14.5137H11.591L8.9425 15.5137Z" fill="currentColor"/>
</g>
<defs>
<clipPath id="clip0_1961_11593">
<rect width="16" height="16" fill="white" transform="translate(0 0.513672)"/>
</clipPath>
</defs>
</svg>
