<svg viewBox="0 0 16 17" fill="none" xmlns="http://www.w3.org/2000/svg">
<rect width="16" height="16" transform="translate(0 0.513672)" fill="white" fill-opacity="0.01" style="mix-blend-mode:multiply"/>
<path d="M8.5 4.51367H7.5V7.51367H8.5V4.51367Z" fill="currentColor"/>
<path d="M8.5 9.51367H7.5V12.5137H8.5V9.51367Z" fill="currentColor"/>
<path d="M12 8.01367H9V9.01367H12V8.01367Z" fill="currentColor"/>
<path d="M7 8.01367H4V9.01367H7V8.01367Z" fill="currentColor"/>
<path d="M2 5.51367H1V2.51367C1.00028 2.24854 1.10572 1.99435 1.2932 1.80687C1.48068 1.6194 1.73487 1.51395 2 1.51367H5V2.51367H2V5.51367Z" fill="currentColor"/>
<path d="M5 15.5137H2C1.73487 15.5134 1.48068 15.4079 1.2932 15.2205C1.10572 15.033 1.00028 14.7788 1 14.5137V11.5137H2V14.5137H5V15.5137Z" fill="currentColor"/>
<path d="M14 15.5137H11V14.5137H14V11.5137H15V14.5137C14.9997 14.7788 14.8943 15.033 14.7068 15.2205C14.5193 15.4079 14.2651 15.5134 14 15.5137Z" fill="currentColor"/>
<path d="M15 5.51367H14V2.51367H11V1.51367H14C14.2651 1.51395 14.5193 1.6194 14.7068 1.80687C14.8943 1.99435 14.9997 2.24854 15 2.51367V5.51367Z" fill="currentColor"/>
</svg>
