<svg viewBox="0 0 16 17" fill="none" xmlns="http://www.w3.org/2000/svg">
<rect width="16" height="16" transform="translate(0 0.513672)" fill="white" fill-opacity="0.01" style="mix-blend-mode:multiply"/>
<path d="M12.5001 13.5137H11.5001V15.5137H12.5001V13.5137Z" fill="currentColor"/>
<path d="M12.5001 9.51374H11.5001V11.5137H12.5001V9.51374Z" fill="currentColor"/>
<path d="M15.0001 12.0137H13.0001V13.0137H15.0001V12.0137Z" fill="currentColor"/>
<path d="M11.0001 12.0137H9.00011V13.0137H11.0001V12.0137Z" fill="currentColor"/>
<path d="M12.671 5.54383L1.67102 1.54383C1.58159 1.51128 1.48473 1.50492 1.39181 1.52552C1.2989 1.54611 1.21379 1.59279 1.14649 1.66008C1.07919 1.72736 1.03248 1.81246 1.01187 1.90537C0.991256 1.99828 0.997586 2.09514 1.03012 2.18458L5.03012 13.1846C5.06476 13.2798 5.12747 13.3622 5.20995 13.421C5.29242 13.4797 5.3908 13.5121 5.49207 13.5138H5.50012C5.60008 13.5138 5.69775 13.4839 5.78053 13.4278C5.8633 13.3718 5.92737 13.2922 5.96447 13.1994L7.88512 8.39843L12.6859 6.47803C12.78 6.44047 12.8605 6.3752 12.9166 6.29087C12.9728 6.20654 13.0021 6.10713 13.0005 6.00581C12.9989 5.90448 12.9665 5.80604 12.9077 5.72351C12.8489 5.64098 12.7663 5.57842 12.671 5.54383ZM7.11537 7.62883L5.52242 11.6117L2.33607 2.84958L11.0983 6.03588L7.11537 7.62883Z" fill="currentColor"/>
</svg>
