<svg viewBox="0 0 16 17" fill="none" xmlns="http://www.w3.org/2000/svg">
<rect width="16" height="16" transform="translate(0 0.513672)" fill="white" fill-opacity="0.01" style="mix-blend-mode:multiply"/>
<path d="M5.99982 10.5138H3.49982C3.42386 10.5138 3.3489 10.5311 3.28064 10.5644C3.21237 10.5977 3.1526 10.6462 3.10585 10.706C3.0591 10.7659 3.0266 10.8356 3.01083 10.9099C2.99506 10.9842 2.99642 11.0612 3.01482 11.1349L3.48442 13.0138H4.51522L4.14022 11.5138H11.8594L11.4844 13.0138H12.5152L12.9849 11.1349C13.0033 11.0611 13.0047 10.9842 12.9889 10.9099C12.9731 10.8356 12.9406 10.7659 12.8939 10.706C12.8471 10.6461 12.7873 10.5977 12.719 10.5644C12.6508 10.5311 12.5758 10.5138 12.4998 10.5138H6.99982V2.01376C6.99984 1.90886 6.96686 1.80661 6.90556 1.72149C6.84426 1.63636 6.75774 1.57267 6.65825 1.53944C6.55876 1.5062 6.45133 1.50509 6.35117 1.53628C6.25102 1.56746 6.16321 1.62936 6.10017 1.71321L1.10357 8.20906C1.04669 8.28306 1.01166 8.37152 1.00244 8.4644C0.993228 8.55729 1.0102 8.6509 1.05143 8.73464C1.09267 8.81838 1.15652 8.8889 1.23577 8.93823C1.31501 8.98756 1.40648 9.01372 1.49982 9.01376H5.99982V10.5138ZM2.51522 8.01376L5.99982 3.48376V8.01376H2.51522Z" fill="currentColor"/>
<path d="M13.4527 13.3893C13.3696 13.7113 13.1818 13.9966 12.9187 14.2002C12.6557 14.4038 12.3324 14.5141 11.9998 14.5138C11.6593 14.4939 11.3324 14.3731 11.0607 14.1669C10.789 13.9606 10.5848 13.6782 10.4742 13.3556C10.4405 13.2563 10.3767 13.17 10.2917 13.1088C10.2067 13.0475 10.1046 13.0143 9.99982 13.0138C9.89516 13.013 9.79295 13.0454 9.70788 13.1064C9.62282 13.1674 9.55928 13.2537 9.52642 13.3531C9.41594 13.6763 9.21176 13.9592 8.93989 14.1659C8.66801 14.3726 8.34076 14.4937 7.99982 14.5138C7.6593 14.4939 7.33239 14.3731 7.0607 14.1669C6.78902 13.9606 6.58484 13.6782 6.47417 13.3556C6.44051 13.2563 6.37672 13.17 6.29169 13.1088C6.20666 13.0475 6.10462 13.0143 5.99982 13.0138C5.89482 13.0115 5.79193 13.0434 5.70658 13.1046C5.62122 13.1657 5.55801 13.253 5.52642 13.3531C5.41594 13.6763 5.21176 13.9592 4.93988 14.1659C4.66801 14.3726 4.34076 14.4937 3.99982 14.5138C3.66721 14.5141 3.34394 14.4038 3.0809 14.2002C2.81787 13.9966 2.63002 13.7113 2.54692 13.3893L1.57867 13.6383C1.71688 14.1752 2.02981 14.651 2.46815 14.9905C2.9065 15.3301 3.44534 15.5141 3.99982 15.5138C4.38786 15.5172 4.77123 15.429 5.11876 15.2563C5.46628 15.0837 5.76816 14.8314 5.99982 14.5201C6.23386 14.8289 6.53622 15.0793 6.8832 15.2517C7.23018 15.424 7.61237 15.5138 7.99982 15.5138C8.38727 15.5138 8.76945 15.424 9.11644 15.2517C9.46342 15.0793 9.76578 14.8289 9.99982 14.5201C10.2315 14.8314 10.5334 15.0837 10.8809 15.2563C11.2284 15.429 11.6118 15.5172 11.9998 15.5138C12.5543 15.5141 13.0931 15.3301 13.5315 14.9905C13.9698 14.651 14.2828 14.1752 14.421 13.6383L13.4527 13.3893Z" fill="currentColor"/>
<path d="M14.9556 7.48151L11.814 1.69906C11.783 1.64292 11.7375 1.59613 11.6822 1.56354C11.6269 1.53096 11.564 1.51377 11.4998 1.51377C11.4357 1.51377 11.3727 1.53096 11.3174 1.56354C11.2622 1.59613 11.2167 1.64292 11.1856 1.69906L8.04407 7.48151C8.01421 7.53631 7.99911 7.59793 8.00025 7.66033C8.00139 7.72273 8.01873 7.78376 8.05057 7.83743C8.08241 7.89111 8.12766 7.93558 8.18187 7.96649C8.23609 7.99741 8.29741 8.01369 8.35982 8.01376H14.6398C14.7022 8.01369 14.7635 7.99741 14.8178 7.96649C14.872 7.93558 14.9172 7.89111 14.9491 7.83743C14.9809 7.78376 14.9983 7.72273 14.9994 7.66033C15.0005 7.59793 14.9854 7.53631 14.9556 7.48151ZM11.1248 3.51376H11.8748V5.51376H11.1248V3.51376ZM11.4998 7.01376C11.4009 7.01376 11.3043 6.98443 11.222 6.92949C11.1398 6.87455 11.0757 6.79646 11.0379 6.7051C11 6.61373 10.9901 6.5132 11.0094 6.41621C11.0287 6.31922 11.0763 6.23013 11.1463 6.1602C11.2162 6.09028 11.3053 6.04266 11.4023 6.02336C11.4993 6.00407 11.5998 6.01397 11.6912 6.05182C11.7825 6.08966 11.8606 6.15375 11.9156 6.23597C11.9705 6.31819 11.9998 6.41486 11.9998 6.51376C11.9998 6.64636 11.9471 6.77354 11.8534 6.86731C11.7596 6.96108 11.6324 7.01376 11.4998 7.01376Z" fill="currentColor"/>
</svg>
