<svg viewBox="0 0 16 17" fill="none" xmlns="http://www.w3.org/2000/svg">
<rect width="16" height="16" transform="translate(0 0.513672)" fill="white" fill-opacity="0.01" style="mix-blend-mode:multiply"/>
<path d="M1 13.5137H2.5C2.5 13.1158 2.34196 12.7343 2.06066 12.453C1.77936 12.1717 1.39782 12.0137 1 12.0137V13.5137Z" fill="currentColor"/>
<path d="M4.5 13.5137H3.5C3.49925 12.8509 3.23561 12.2154 2.76693 11.7467C2.29826 11.2781 1.66281 11.0144 1 11.0137V10.0137C1.92794 10.0147 2.81758 10.3838 3.47373 11.0399C4.12989 11.6961 4.49897 12.5857 4.5 13.5137Z" fill="currentColor"/>
<path d="M6.5 13.5137H5.5C5.49868 12.3206 5.02415 11.1768 4.18052 10.3332C3.33689 9.48953 2.19307 9.015 1 9.01367V8.01367C2.45818 8.01533 3.85617 8.59532 4.88726 9.62641C5.91835 10.6575 6.49835 12.0555 6.5 13.5137Z" fill="currentColor"/>
<path d="M14 13.5137H7.5V12.5137H14V4.51367H2V7.01367H1V4.51367C1.00028 4.24854 1.10572 3.99435 1.2932 3.80687C1.48068 3.6194 1.73487 3.51395 2 3.51367H14C14.2651 3.51395 14.5193 3.6194 14.7068 3.80687C14.8943 3.99435 14.9997 4.24854 15 4.51367V12.5137C14.9997 12.7788 14.8943 13.033 14.7068 13.2205C14.5193 13.4079 14.2651 13.5134 14 13.5137Z" fill="currentColor"/>
</svg>
