<svg viewBox="0 0 16 17" fill="none" xmlns="http://www.w3.org/2000/svg">
<rect width="16" height="16" transform="translate(0 0.513672)" fill="white" fill-opacity="0.01" style="mix-blend-mode:multiply"/>
<path d="M14 14.5137H2C1.73487 14.5134 1.48068 14.4079 1.2932 14.2205C1.10572 14.033 1.00028 13.7788 1 13.5137V11.0137H2V13.5137H14V11.0137H15V13.5137C14.9997 13.7788 14.8943 14.033 14.7068 14.2205C14.5193 14.4079 14.2651 14.5134 14 14.5137Z" fill="currentColor"/>
<path d="M12.5 11.0137H3.5V12.0137H12.5V11.0137Z" fill="currentColor"/>
<path d="M12.5 8.51367H3.5V9.51367H12.5V8.51367Z" fill="currentColor"/>
<path d="M12.5 6.01367H3.5V7.01367H12.5V6.01367Z" fill="currentColor"/>
<path d="M12.5 3.51367H3.5V4.51367H12.5V3.51367Z" fill="currentColor"/>
</svg>
