<svg viewBox="0 0 16 17" fill="none" xmlns="http://www.w3.org/2000/svg">
<rect width="16" height="16" transform="translate(0 0.513672)" fill="white" fill-opacity="0.01" style="mix-blend-mode:multiply"/>
<path d="M8 11.5137V8.51367H5V5.51367H1V15.5137H11V11.5137H8ZM7 9.51367V11.5137H5V9.51367H7ZM2 6.51367H4V8.51367H2V6.51367ZM4 9.51367V11.5137H2V9.51367H4ZM2 14.5137V12.5137H4V14.5137H2ZM7 14.5137H5V12.5137H7V14.5137ZM10 14.5137H8V12.5137H10V14.5137Z" fill="currentColor"/>
<path d="M14.8 7.31367L13.5 8.61367V5.51367H15V1.51367H11V5.51367H12.5V8.61367L11.2 7.31367L10.5 8.01367L13 10.5137L15.5 8.01367L14.8 7.31367ZM12 2.51367H14V4.51367H12V2.51367Z" fill="currentColor"/>
</svg>
