<svg viewBox="0 0 16 17" fill="none" xmlns="http://www.w3.org/2000/svg">
<rect width="16" height="16" transform="translate(0 0.513672)" fill="white" fill-opacity="0.01" style="mix-blend-mode:multiply"/>
<path d="M11.5 7.51367V9.01367C11.5 9.94193 11.1313 10.8322 10.4749 11.4885C9.8185 12.1449 8.92826 12.5137 8 12.5137C7.07174 12.5137 6.1815 12.1449 5.52513 11.4885C4.86875 10.8322 4.5 9.94193 4.5 9.01367V7.51367H3.5V9.01367C3.50053 10.1202 3.90873 11.1877 4.64661 12.0123C5.38449 12.8369 6.40032 13.3607 7.5 13.4837V14.5137H5.5V15.5137H10.5V14.5137H8.5V13.4837C9.59968 13.3607 10.6155 12.8369 11.3534 12.0123C12.0913 11.1877 12.4995 10.1202 12.5 9.01367V7.51367H11.5Z" fill="currentColor"/>
<path d="M8 11.5137C8.66304 11.5137 9.29893 11.2503 9.76777 10.7814C10.2366 10.3126 10.5 9.67671 10.5 9.01367V4.01367C10.5 3.35063 10.2366 2.71475 9.76777 2.2459C9.29893 1.77706 8.66304 1.51367 8 1.51367C7.33696 1.51367 6.70107 1.77706 6.23223 2.2459C5.76339 2.71475 5.5 3.35063 5.5 4.01367V9.01367C5.5 9.67671 5.76339 10.3126 6.23223 10.7814C6.70107 11.2503 7.33696 11.5137 8 11.5137ZM6.5 4.01367C6.5 3.61585 6.65804 3.23432 6.93934 2.95301C7.22064 2.67171 7.60218 2.51367 8 2.51367C8.39782 2.51367 8.77936 2.67171 9.06066 2.95301C9.34196 3.23432 9.5 3.61585 9.5 4.01367V9.01367C9.5 9.4115 9.34196 9.79303 9.06066 10.0743C8.77936 10.3556 8.39782 10.5137 8 10.5137C7.60218 10.5137 7.22064 10.3556 6.93934 10.0743C6.65804 9.79303 6.5 9.4115 6.5 9.01367V4.01367Z" fill="currentColor"/>
</svg>
