<svg viewBox="0 0 16 17" fill="none" xmlns="http://www.w3.org/2000/svg">
<rect width="16" height="16" transform="translate(0 0.513672)" fill="white" fill-opacity="0.01" style="mix-blend-mode:multiply"/>
<path d="M4.59 9.79848C4.5321 9.54077 4.50193 9.2776 4.5 9.01348V7.51348H3.5V9.01348C3.49812 9.5568 3.59643 10.0958 3.79 10.6035L4.59 9.79848Z" fill="currentColor"/>
<path d="M6.5 8.01348V4.01348C6.5 3.61565 6.65804 3.23412 6.93934 2.95282C7.22064 2.67151 7.60218 2.51348 8 2.51348C8.39782 2.51348 8.77936 2.67151 9.06066 2.95282C9.34196 3.23412 9.5 3.61565 9.5 4.01348V4.88848L10.5 3.88848C10.4834 3.22544 10.2041 2.59614 9.72357 2.13902C9.24301 1.6819 8.60054 1.4344 7.9375 1.45098C7.27446 1.46755 6.64516 1.74684 6.18804 2.2274C5.73092 2.70797 5.48342 3.35044 5.5 4.01348V8.01348H6.5Z" fill="currentColor"/>
<path d="M11.5 9.01348C11.498 9.6919 11.299 10.3551 10.927 10.9225C10.555 11.4898 10.0261 11.9369 9.40474 12.2092C8.78335 12.4814 8.09622 12.5673 7.42695 12.4562C6.75768 12.3451 6.13511 12.0419 5.635 11.5835L6.345 10.8785C6.70516 11.1966 7.14937 11.4042 7.62446 11.4764C8.09954 11.5485 8.58536 11.4823 9.02376 11.2855C9.46216 11.0887 9.83455 10.7698 10.0964 10.3668C10.3582 9.96388 10.4983 9.49401 10.5 9.01348V6.72348L15 2.22348L14.295 1.51348L1 14.8085L1.705 15.5135L4.925 12.2935C5.63075 12.9601 6.53493 13.378 7.5 13.4835V14.5135H5.5V15.5135H10.5V14.5135H8.5V13.4835C9.59968 13.3605 10.6155 12.8367 11.3534 12.0121C12.0913 11.1876 12.4995 10.12 12.5 9.01348V7.51348H11.5V9.01348ZM9.5 9.01348C9.4989 9.29695 9.4175 9.57431 9.26523 9.81341C9.11296 10.0525 8.89605 10.2436 8.63964 10.3645C8.38323 10.4853 8.09782 10.5311 7.81647 10.4964C7.53513 10.4617 7.26937 10.348 7.05 10.1685L9.5 7.72348V9.01348Z" fill="currentColor"/>
</svg>
