<svg viewBox="0 0 16 17" fill="none" xmlns="http://www.w3.org/2000/svg">
<rect width="16" height="16" transform="translate(0 0.513672)" fill="white" fill-opacity="0.01" style="mix-blend-mode:multiply"/>
<path d="M12.2928 3.80662C12.2002 3.71345 12.09 3.63958 11.9686 3.58929C11.8472 3.53901 11.7171 3.5133 11.5857 3.51367H8V1.51367H7V3.51367H3C2.73489 3.514 2.48072 3.61947 2.29326 3.80693C2.10579 3.9944 2.00033 4.24856 2 4.51367V7.51367C2.00033 7.77879 2.10579 8.03295 2.29326 8.22041C2.48072 8.40788 2.73489 8.51334 3 8.51367H7V15.5137H8V8.51367H11.5857C11.7171 8.51404 11.8472 8.48834 11.9686 8.43805C12.09 8.38777 12.2002 8.3139 12.2928 8.22072L14.5 6.01367L12.2928 3.80662ZM11.5857 7.51367H3V4.51367H11.5858L13.0858 6.01367L11.5857 7.51367Z" fill="currentColor"/>
</svg>
