<svg viewBox="0 0 16 17" fill="none" xmlns="http://www.w3.org/2000/svg">
<rect width="16" height="16" transform="translate(0 0.513672)" fill="white" fill-opacity="0.01" style="mix-blend-mode:multiply"/>
<path d="M13.5 14.5137V9.27367C13.4999 9.1129 13.4611 8.95451 13.3868 8.8119C13.3126 8.66929 13.2051 8.54665 13.0735 8.45432L8.5 5.25367V4.51367H11.5V1.51367H7.5V5.25367L2.9264 8.45482C2.79479 8.5471 2.68734 8.6697 2.61312 8.81227C2.5389 8.95484 2.5001 9.11319 2.5 9.27392V14.5137H1V15.5137H15V14.5137H13.5ZM8.5 2.51367H10.5V3.51367H8.5V2.51367ZM3.5 9.27392L8 6.12392L12.5 9.27392V14.5137H8.5V10.5137H7.5V14.5137H3.5V9.27392Z" fill="currentColor"/>
</svg>
