<svg viewBox="0 0 16 17" fill="none" xmlns="http://www.w3.org/2000/svg">
<rect width="16" height="16" transform="translate(0 0.513672)" fill="white" fill-opacity="0.01" style="mix-blend-mode:multiply"/>
<path d="M12 9.51367C10.3458 9.51367 9 10.8594 9 12.5137C9 14.168 10.3458 15.5137 12 15.5137C13.6542 15.5137 15 14.168 15 12.5137C15 10.8594 13.6542 9.51367 12 9.51367ZM12 14.5137C10.8972 14.5137 10 13.6165 10 12.5137C10 11.4109 10.8972 10.5137 12 10.5137V12.5137H14C14 13.6165 13.1028 14.5137 12 14.5137Z" fill="currentColor"/>
<path d="M8 14.5137H4.5V4.51367H11.5V8.01367H12.5V2.51367C12.5 1.96217 12.0512 1.51367 11.5 1.51367H4.5C3.9485 1.51367 3.5 1.96217 3.5 2.51367V14.5137C3.5 15.0649 3.9485 15.5137 4.5 15.5137H8V14.5137ZM4.5 2.51367H11.5V3.51367H4.5V2.51367Z" fill="currentColor"/>
</svg>
