<svg viewBox="0 0 16 17" fill="none" xmlns="http://www.w3.org/2000/svg">
<rect width="16" height="16" transform="translate(0 0.513672)" fill="white" fill-opacity="0.01" style="mix-blend-mode:multiply"/>
<path d="M15 6.51367H14V8.01367H15V6.51367Z" fill="currentColor"/>
<path d="M13 4.01367H12V10.5137H13V4.01367Z" fill="currentColor"/>
<path d="M11 6.01367H10V8.51367H11V6.01367Z" fill="currentColor"/>
<path d="M9 5.01367H8V9.51367H9V5.01367Z" fill="currentColor"/>
<path d="M7 6.51367H6V8.01367H7V6.51367Z" fill="currentColor"/>
<path d="M6.75 13.5137C7.16421 13.5137 7.5 13.1779 7.5 12.7637C7.5 12.3495 7.16421 12.0137 6.75 12.0137C6.33579 12.0137 6 12.3495 6 12.7637C6 13.1779 6.33579 13.5137 6.75 13.5137Z" fill="currentColor"/>
<path d="M10 15.5137H3.5C3.23488 15.5134 2.9807 15.4079 2.79323 15.2204C2.60576 15.033 2.5003 14.7788 2.5 14.5137V2.51367C2.5003 2.24855 2.60576 1.99437 2.79323 1.8069C2.9807 1.61943 3.23488 1.51398 3.5 1.51367H10V2.51367H3.5V14.5137H10V12.5137H11V14.5137C10.9997 14.7788 10.8942 15.033 10.7068 15.2204C10.5193 15.4079 10.2651 15.5134 10 15.5137Z" fill="currentColor"/>
</svg>
