<svg viewBox="0 0 16 17" fill="none" xmlns="http://www.w3.org/2000/svg">
<rect width="16" height="16" transform="translate(0 0.513672)" fill="white" fill-opacity="0.01" style="mix-blend-mode:multiply"/>
<path d="M15 10.5137L13 8.51367L12.2929 9.22072L13.5857 10.5137L12.0857 12.0137L13.5857 13.5137L12.2929 14.8066L13 15.5137L15 13.5137L13.5 12.0137L15 10.5137Z" fill="currentColor"/>
<path d="M11.5 10.5137L9.5 8.51367L8.79295 9.22072L10.0857 10.5137L8.5857 12.0137L10.0857 13.5137L8.79295 14.8066L9.5 15.5137L11.5 13.5137L10 12.0137L11.5 10.5137Z" fill="currentColor"/>
<path d="M7.5 14.5137H4.5V4.51367H11.5V7.51367H12.5V2.51367C12.5 1.96217 12.0512 1.51367 11.5 1.51367H4.5C3.9485 1.51367 3.5 1.96217 3.5 2.51367V14.5137C3.5 15.0649 3.9485 15.5137 4.5 15.5137H7.5V14.5137ZM4.5 2.51367H11.5V3.51367H4.5V2.51367Z" fill="currentColor"/>
</svg>
