<svg viewBox="0 0 16 17" fill="none" xmlns="http://www.w3.org/2000/svg">
<rect width="16" height="16" transform="translate(0 0.513672)" fill="white" fill-opacity="0.01" style="mix-blend-mode:multiply"/>
<path d="M15 14.5137C15 13.0303 13.9165 11.7981 12.5 11.5588V11.0137H13V10.0137H11V11.0137H11.5V11.5588C10.0835 11.7981 9 13.0303 9 14.5137H8.5V15.5137H15.5V14.5137H15ZM10 14.5137C10 13.4109 10.8972 12.5137 12 12.5137C13.1028 12.5137 14 13.4109 14 14.5137H10Z" fill="currentColor"/>
<path d="M7 14.5137H4.5V4.51367H11.5V8.51367H12.5V2.51367C12.5 1.96217 12.0512 1.51367 11.5 1.51367H4.5C3.9485 1.51367 3.5 1.96217 3.5 2.51367V14.5137C3.5 15.0649 3.9485 15.5137 4.5 15.5137H7V14.5137ZM4.5 2.51367H11.5V3.51367H4.5V2.51367Z" fill="currentColor"/>
</svg>
