<svg viewBox="0 0 16 17" fill="none" xmlns="http://www.w3.org/2000/svg">
<rect width="16" height="16" transform="translate(0 0.513672)" fill="white" fill-opacity="0.01" style="mix-blend-mode:multiply"/>
<path d="M13.6902 14.5137H10.3089L12 11.1316L13.6902 14.5137ZM12 9.51367C11.8043 9.51367 11.6348 9.62622 11.5527 9.79002L9.05265 14.79C9.01895 14.8574 9 14.9333 9 15.0137C9 15.2898 9.22385 15.5137 9.5 15.5137H14.5C14.7761 15.5137 15 15.2898 15 15.0137C15 14.9446 14.986 14.8789 14.9607 14.8191L12.4473 9.79002C12.3652 9.62622 12.1957 9.51367 12 9.51367Z" fill="currentColor"/>
<path d="M7.5 14.5137H4.5V4.51367H11.5V8.01367H12.5V2.51367C12.5 1.96217 12.0512 1.51367 11.5 1.51367H4.5C3.9485 1.51367 3.5 1.96217 3.5 2.51367V14.5137C3.5 15.0649 3.9485 15.5137 4.5 15.5137H7.5V14.5137ZM4.5 2.51367H11.5V3.51367H4.5V2.51367Z" fill="currentColor"/>
</svg>
