<svg viewBox="0 0 16 17" fill="none" xmlns="http://www.w3.org/2000/svg">
<rect width="16" height="16" transform="translate(0 0.513672)" fill="white" fill-opacity="0.01" style="mix-blend-mode:multiply"/>
<path d="M1.5 5.51367V11.5137C1.50026 11.7788 1.60571 12.033 1.79319 12.2205C1.98066 12.408 2.23486 12.5134 2.5 12.5137H13.5C13.7651 12.5134 14.0193 12.4079 14.2068 12.2204C14.3942 12.033 14.4997 11.7788 14.5 11.5137V5.51367C14.4996 5.24857 14.3942 4.99442 14.2067 4.80696C14.0193 4.6195 13.7651 4.51403 13.5 4.51367H2.5C2.23488 4.51398 1.9807 4.61943 1.79323 4.8069C1.60576 4.99437 1.5003 5.24855 1.5 5.51367V5.51367ZM2.5 5.51367H3.5V11.5137H2.5V5.51367ZM13.5 11.5137H4.5V5.51367H13.5V11.5137Z" fill="currentColor"/>
</svg>
