<svg viewBox="0 0 16 16" fill="none" xmlns="http://www.w3.org/2000/svg">
<rect width="16" height="16" fill="white" fill-opacity="0.01" style="mix-blend-mode:multiply"/>
<path d="M12 15V13.8614C12.2976 13.6882 12.5 13.3693 12.5 13C12.5 12.6307 12.2976 12.3119 12 12.1386V10H11V12.1386C10.7024 12.3118 10.5 12.6308 10.5 13C10.5 13.3692 10.7024 13.6881 11 13.8614V15H12Z" fill="currentColor"/>
<path d="M15.5 12C15.5 11.6308 15.2976 11.312 15 11.1386V10H14V11.1386C13.7024 11.312 13.5 11.6308 13.5 12C13.5 12.3692 13.7024 12.688 14 12.8614V15H15V12.8614C15.2976 12.688 15.5 12.3692 15.5 12Z" fill="currentColor"/>
<path d="M3.9079 8.5H6.79305L3.1428 12.1503C2.94725 12.0568 2.73095 12 2.5001 12C1.67295 12 1.0001 12.6729 1.0001 13.5C1.0001 14.3271 1.67295 15 2.5001 15C3.1511 15 3.7009 14.5807 3.90795 14H9.0001V13H3.9079C3.89055 12.9512 3.8719 12.9037 3.8498 12.8574L8.2071 8.5H13V8C13 7.72435 13.2241 7.5 13.5 7.5C13.7759 7.5 14 7.72435 14 8V8.5H15V8C15 7.17285 14.3272 6.5 13.5 6.5C12.849 6.5 12.2992 6.91925 12.0922 7.5H9.20705L12.8573 3.8497C13.0528 3.94325 13.2692 4 13.5 4C14.3271 4 15 3.32715 15 2.5C15 1.67285 14.3271 1 13.5 1C12.849 1 12.2992 1.41925 12.0921 2H3.9079C3.70085 1.41925 3.15105 1 2.50005 1C1.6729 1 1.00005 1.67285 1.00005 2.5C1.00005 3.32715 1.6729 4 2.50005 4C2.7309 4 2.9472 3.94325 3.14275 3.8497L6.793 7.5H3.90785C3.7008 6.91925 3.151 6.5 2.5 6.5C1.67285 6.5 1 7.17285 1 8C1 8.82715 1.67285 9.5 2.5 9.5C3.151 9.5 3.70085 9.08075 3.9079 8.5ZM2.50005 13C2.77595 13 3.00005 13.2244 3.00005 13.5C3.00005 13.7756 2.77595 14 2.50005 14C2.22415 14 2.00005 13.7756 2.00005 13.5C2.00005 13.2244 2.22415 13 2.50005 13ZM3.00005 8C3.00005 8.27565 2.77595 8.5 2.50005 8.5C2.22415 8.5 2.00005 8.27565 2.00005 8C2.00005 7.72435 2.22415 7.5 2.50005 7.5C2.77595 7.5 3.00005 7.72435 3.00005 8ZM12.1503 3.14265L8.00005 7.29295L3.8498 3.14265C3.8719 3.0963 3.89045 3.0488 3.9079 3H12.0922C12.1096 3.0488 12.1282 3.09635 12.1503 3.14265ZM3.00005 2.5C3.00005 2.77565 2.77595 3 2.50005 3C2.22415 3 2.00005 2.77565 2.00005 2.5C2.00005 2.22435 2.22415 2 2.50005 2C2.77595 2 3.00005 2.22435 3.00005 2.5ZM13.5 3C13.2241 3 13 2.77565 13 2.5C13 2.22435 13.2241 2 13.5 2C13.7759 2 14 2.22435 14 2.5C14 2.77565 13.7759 3 13.5 3Z" fill="currentColor"/>
</svg>
