<svg viewBox="0 0 16 16" fill="none" xmlns="http://www.w3.org/2000/svg">
<rect width="16" height="16" fill="white" fill-opacity="0.01" style="mix-blend-mode:multiply"/>
<path d="M14.5 12.092V3.90795C15.0808 3.70065 15.5 3.15085 15.5 2.5C15.5 1.67285 14.8271 1 14 1C13.1729 1 12.5 1.67285 12.5 2.5C12.5 2.6958 12.5403 2.8816 12.6087 3.053L8 7.0857L3.39135 3.0532C3.45985 2.88155 3.5 2.6958 3.5 2.5C3.5 1.67285 2.82715 1 2 1C1.17285 1 0.5 1.67285 0.5 2.5C0.5 3.1509 0.9192 3.7007 1.5 3.9077V12.0922C0.9192 12.2993 0.5 12.8491 0.5 13.5C0.5 14.3271 1.17285 15 2 15C2.82715 15 3.5 14.3271 3.5 13.5C3.5 13.1667 3.3871 12.8615 3.2024 12.6123L5.86915 10.2788L7.0514 12.3476C6.71755 12.623 6.5 13.0344 6.5 13.5C6.5 14.3271 7.17285 15 8 15C8.82715 15 9.5 14.3271 9.5 13.5C9.5 13.0344 9.28235 12.623 8.9486 12.3476L10.1308 10.2788L12.7976 12.6123C12.6129 12.8615 12.5 13.1667 12.5 13.5C12.5 14.3271 13.1729 15 14 15C14.8271 15 15.5 14.3271 15.5 13.5C15.5 12.8491 15.0808 12.2993 14.5 12.092ZM14 2C14.2758 2 14.5 2.22435 14.5 2.5C14.5 2.77565 14.2758 3 14 3C13.7242 3 13.5 2.77565 13.5 2.5C13.5 2.22435 13.7242 2 14 2ZM12.089 4.83645L9.86915 8.7212L8.7593 7.75L12.089 4.83645ZM7.24075 7.75L6.13075 8.7212L3.9109 4.83645L7.24075 7.75ZM2 2C2.27575 2 2.5 2.22435 2.5 2.5C2.5 2.77565 2.27575 3 2 3C1.72425 3 1.5 2.77565 1.5 2.5C1.5 2.22435 1.72425 2 2 2ZM2 14C1.72425 14 1.5 13.7756 1.5 13.5C1.5 13.2244 1.72425 13 2 13C2.27575 13 2.5 13.2244 2.5 13.5C2.5 13.7756 2.27575 14 2 14ZM2.5 11.8982V4.3828L5.36305 9.39305L2.5 11.8982ZM8 14C7.72425 14 7.5 13.7756 7.5 13.5C7.5 13.2244 7.72425 13 8 13C8.27575 13 8.5 13.2244 8.5 13.5C8.5 13.7756 8.27575 14 8 14ZM8 11.9924L6.63695 9.60695L8 8.4143L9.36305 9.60695L8 11.9924ZM13.5 4.3826V11.8982L10.6369 9.39305L13.5 4.3826ZM14 14C13.7242 14 13.5 13.7757 13.5 13.5C13.5 13.2244 13.7242 13 14 13C14.2758 13 14.5 13.2244 14.5 13.5C14.5 13.7757 14.2758 14 14 14Z" fill="currentColor"/>
</svg>
