<svg viewBox="0 0 16 17" fill="none" xmlns="http://www.w3.org/2000/svg">
<rect width="16" height="16" transform="translate(0 0.513672)" fill="white" fill-opacity="0.01" style="mix-blend-mode:multiply"/>
<path d="M15 14.5137H1V15.5137H15V14.5137Z" fill="currentColor"/>
<path d="M13 13.5137H12C12.0006 12.5296 11.6379 11.58 10.9815 10.8469L11.7264 10.1799C12.5473 11.0963 13.0008 12.2835 13 13.5137Z" fill="currentColor"/>
<path d="M8 13.5137H7C6.99774 12.7637 7.16546 12.023 7.49054 11.3472C7.81563 10.6714 8.28963 10.078 8.87695 9.61167C8.58922 9.54631 8.29506 9.51344 8 9.51367C6.93951 9.51489 5.9228 9.93671 5.17292 10.6866C4.42304 11.4365 4.00122 12.4532 4 13.5137H3C3.0015 12.188 3.52876 10.9171 4.46612 9.97979C5.40348 9.04243 6.67438 8.51517 8 8.51367C8.77184 8.51308 9.5331 8.69313 10.2229 9.03942C10.3061 9.08089 10.3761 9.14473 10.425 9.22378C10.4739 9.30283 10.4999 9.39396 10.4999 9.48692C10.4999 9.57989 10.4739 9.67101 10.425 9.75006C10.3761 9.82911 10.3061 9.89295 10.2229 9.93442C9.55445 10.2631 8.99171 10.7728 8.59872 11.4056C8.20573 12.0384 7.99829 12.7688 8 13.5137Z" fill="currentColor"/>
<path d="M8 7.51367L5.5 5.01367L6.205 4.30867L7.5 5.59867V1.51367H8.5V5.59867L9.795 4.30867L10.5 5.01367L8 7.51367Z" fill="currentColor"/>
</svg>
