<svg viewBox="0 0 16 17" fill="none" xmlns="http://www.w3.org/2000/svg">
<rect width="16" height="16" transform="translate(0 0.513672)" fill="white" fill-opacity="0.01" style="mix-blend-mode:multiply"/>
<path d="M14.922 8.03109C14.866 7.91169 14.7798 7.80896 14.6719 7.73304C14.5641 7.65713 14.4383 7.61065 14.307 7.59819C13.6527 7.53132 13.0459 7.22594 12.6023 6.74029C12.2215 6.3123 11.9612 5.7908 11.8482 5.22917C11.7352 4.66754 11.7735 4.08597 11.9591 3.54399C12.0028 3.41319 12.012 3.27331 11.9858 3.1379C11.9597 3.00248 11.899 2.87612 11.8096 2.77104C11.7277 2.67419 11.6218 2.60047 11.5025 2.55722C11.3832 2.51397 11.2547 2.50268 11.1296 2.52449L11.1201 2.52644C10.2638 2.71456 9.49402 3.18128 8.93128 3.85357C8.36853 4.52585 8.04457 5.36574 8.0101 6.24179C7.60664 6.09277 7.18019 6.01558 6.7501 6.01374C5.95389 6.01803 5.17941 6.27393 4.53738 6.74486C3.89536 7.21579 3.41865 7.87764 3.1754 8.63579C2.47987 8.83393 1.87948 9.27694 1.485 9.88308C1.09052 10.4892 0.928587 11.2176 1.02907 11.9338C1.12955 12.6499 1.48568 13.3056 2.03173 13.7798C2.57777 14.254 3.2769 14.5147 4.0001 14.5137H9.5001C9.98453 14.5156 10.4621 14.3997 10.8918 14.1759C11.3215 13.9522 11.6903 13.6274 11.9666 13.2294C12.2428 12.8315 12.4182 12.3723 12.4776 11.8915C12.537 11.4108 12.4786 10.9227 12.3074 10.4695C12.8293 10.3862 13.3276 10.1936 13.7698 9.90438C14.212 9.61514 14.5882 9.23577 14.8736 8.79109C14.947 8.67953 14.9901 8.55077 14.9986 8.4175C15.007 8.28423 14.9807 8.15106 14.922 8.03109V8.03109ZM9.5001 13.5137H4.0001C3.49928 13.5146 3.01644 13.3272 2.64733 12.9887C2.27823 12.6502 2.04984 12.1854 2.00747 11.6864C1.96509 11.1873 2.11183 10.6906 2.41858 10.2947C2.72532 9.89885 3.16966 9.63272 3.66345 9.54914L3.99495 9.49274L4.06775 9.16464C4.20356 8.5545 4.54333 8.0089 5.03098 7.61786C5.51863 7.22682 6.12503 7.01372 6.7501 7.01372C7.37517 7.01372 7.98156 7.22682 8.46922 7.61786C8.95687 8.0089 9.29663 8.5545 9.43245 9.16464L9.50525 9.49274L9.83655 9.54914C10.3304 9.63259 10.7749 9.89865 11.0818 10.2945C11.3886 10.6904 11.5354 11.1872 11.4931 11.6863C11.4507 12.1854 11.2223 12.6503 10.8531 12.9888C10.4839 13.3274 10.001 13.5147 9.5001 13.5137V13.5137ZM11.7327 9.51324H11.7219C11.3481 9.09507 10.8638 8.79092 10.3248 8.63579C10.0897 7.90436 9.63579 7.26269 9.0244 6.79744C9.0194 6.74664 9.00635 6.69854 9.0039 6.64704C8.96032 6.00735 9.12018 5.37026 9.46061 4.82692C9.80105 4.28359 10.3046 3.86185 10.8992 3.62204C10.7423 4.28644 10.7486 4.97896 10.9175 5.64041C11.0864 6.30186 11.413 6.91258 11.8692 7.42039C12.3884 7.98486 13.0701 8.37409 13.8201 8.53424C13.5654 8.84063 13.2463 9.08718 12.8855 9.25638C12.5248 9.42558 12.1312 9.51327 11.7327 9.51324V9.51324Z" fill="currentColor"/>
</svg>
