<svg viewBox="0 0 16 17" fill="none" xmlns="http://www.w3.org/2000/svg">
<rect width="16" height="16" transform="translate(0 0.513672)" fill="white" fill-opacity="0.01" style="mix-blend-mode:multiply"/>
<path d="M10.8715 9.8602C11.0697 9.70198 11.2473 9.51944 11.4 9.3169C11.6748 8.95118 11.8623 8.52744 11.9481 8.07811C12.0339 7.62878 12.0158 7.16577 11.8951 6.72452C11.7745 6.28327 11.5545 5.87547 11.2519 5.53233C10.9494 5.18919 10.5724 4.91981 10.1498 4.7448C9.7271 4.56979 9.27001 4.4938 8.81347 4.52263C8.35693 4.55146 7.91303 4.68435 7.51575 4.91114C7.11848 5.13793 6.77835 5.4526 6.5214 5.83107C6.26445 6.20954 6.09749 6.64178 6.0333 7.0947C5.37362 7.22598 4.76094 7.53097 4.25854 7.97819C3.75613 8.4254 3.38221 8.99862 3.1754 9.63865C2.47988 9.83679 1.87949 10.2798 1.48501 10.8859C1.09054 11.492 0.928593 12.2204 1.02906 12.9366C1.12953 13.6527 1.48564 14.3084 2.03167 14.7826C2.5777 15.2568 3.27681 15.5175 4 15.5166H9.5C10.1723 15.5183 10.8256 15.2935 11.3546 14.8785C11.8835 14.4635 12.2573 13.8825 12.4158 13.2291C12.5742 12.5757 12.508 11.888 12.2278 11.2769C11.9477 10.6657 11.4699 10.1667 10.8715 9.8602ZM9 5.5166C9.53026 5.51716 10.0386 5.72805 10.4136 6.103C10.7886 6.47795 10.9994 6.98634 11 7.5166C11.0013 7.94947 10.8608 8.37086 10.6 8.7163C10.4685 8.8894 10.3098 9.03998 10.13 9.16215C9.84633 8.57333 9.41449 8.06834 8.87682 7.69673C8.33915 7.32511 7.71413 7.09963 7.06305 7.0424C7.16889 6.60816 7.41719 6.22191 7.76829 5.94534C8.11939 5.66876 8.55305 5.51782 9 5.5166ZM9.5 14.5166H4C3.49897 14.5177 3.01583 14.3304 2.6465 13.9919C2.27716 13.6533 2.04863 13.1882 2.00627 12.689C1.96391 12.1898 2.11081 11.6929 2.41782 11.2969C2.72483 10.901 3.16949 10.6349 3.66355 10.5516L3.995 10.4956L4.0678 10.1675C4.20361 9.55739 4.54336 9.0118 5.031 8.62078C5.51863 8.22976 6.125 8.01667 6.75005 8.01667C7.37509 8.01667 7.98147 8.22976 8.4691 8.62078C8.95673 9.0118 9.29649 9.55739 9.4323 10.1675L9.5055 10.4956L9.8366 10.5518C10.3305 10.6353 10.7749 10.9014 11.0817 11.2973C11.3886 11.6932 11.5353 12.19 11.493 12.6891C11.4506 13.1882 11.2222 13.6531 10.853 13.9916C10.4838 14.3302 10.0009 14.5175 9.5 14.5166Z" fill="currentColor"/>
<path d="M15 7.0166H13V8.0166H15V7.0166Z" fill="currentColor"/>
<path d="M12.8892 2.92049L11.475 4.33467L12.1821 5.0417L13.5963 3.62753L12.8892 2.92049Z" fill="currentColor"/>
<path d="M9.5 1.5166H8.5V3.5166H9.5V1.5166Z" fill="currentColor"/>
<path d="M5.11084 2.92039L4.40381 3.62743L5.81813 5.04175L6.52516 4.33471L5.11084 2.92039Z" fill="currentColor"/>
</svg>
