<svg viewBox="0 0 16 17" fill="none" xmlns="http://www.w3.org/2000/svg">
<rect width="16" height="16" transform="translate(0 0.513672)" fill="white" fill-opacity="0.01" style="mix-blend-mode:multiply"/>
<path d="M8 9.51367C8.55228 9.51367 9 9.06596 9 8.51367C9 7.96139 8.55228 7.51367 8 7.51367C7.44772 7.51367 7 7.96139 7 8.51367C7 9.06596 7.44772 9.51367 8 9.51367Z" fill="currentColor"/>
<path d="M15 3.51367C14.9997 3.24855 14.8942 2.99437 14.7068 2.8069C14.5193 2.61943 14.2651 2.51398 14 2.51367H2C1.73488 2.51398 1.4807 2.61943 1.29323 2.8069C1.10576 2.99437 1.0003 3.24855 1 3.51367V13.5137C1.0003 13.7788 1.10576 14.033 1.29323 14.2204C1.4807 14.4079 1.73488 14.5134 2 14.5137H14C14.2651 14.5134 14.5193 14.4079 14.7068 14.2204C14.8942 14.033 14.9997 13.7788 15 13.5137V3.51367ZM14 6.97657L11.4818 3.51367H14V6.97657ZM13.8819 8.51367L10.2455 13.5137H5.7545L2.11815 8.51367L5.7545 3.51367H10.2455L13.8819 8.51367ZM4.5182 3.51367L2 6.97607V3.51367H4.5182ZM2 10.0513L4.5182 13.5137H2V10.0513ZM11.4818 13.5137L14.0005 10.0505L14 13.5137H11.4818Z" fill="currentColor"/>
</svg>
