<svg viewBox="0 0 16 17" fill="none" xmlns="http://www.w3.org/2000/svg">
<rect width="16" height="16" transform="translate(0 0.513672)" fill="white" fill-opacity="0.01" style="mix-blend-mode:multiply"/>
<path d="M10 9.51367C9.99866 9.95585 9.85067 10.3851 9.57923 10.7342C9.30779 11.0832 8.92822 11.3324 8.5 11.4426V9.01367H9.5V8.01367H8.5V7.42162C8.8337 7.30367 9.11497 7.07154 9.29407 6.76627C9.47318 6.46099 9.53859 6.10223 9.47875 5.75339C9.41892 5.40454 9.23768 5.08809 8.96708 4.85995C8.69648 4.63181 8.35394 4.50669 8 4.50669C7.64606 4.50669 7.30352 4.63181 7.03292 4.85995C6.76232 5.08809 6.58108 5.40454 6.52125 5.75339C6.46141 6.10223 6.52682 6.46099 6.70593 6.76627C6.88503 7.07154 7.1663 7.30367 7.5 7.42162V8.01367H6.5V9.01367H7.5V11.4426C7.07178 11.3324 6.69221 11.0832 6.42077 10.7342C6.14933 10.3851 6.00134 9.95585 6 9.51367H5C5 10.3093 5.31607 11.0724 5.87868 11.635C6.44129 12.1976 7.20435 12.5137 8 12.5137C8.79565 12.5137 9.55871 12.1976 10.1213 11.635C10.6839 11.0724 11 10.3093 11 9.51367H10ZM8 5.51367C8.09889 5.51367 8.19556 5.543 8.27779 5.59794C8.36001 5.65288 8.4241 5.73097 8.46194 5.82233C8.49978 5.91369 8.50969 6.01423 8.49039 6.11122C8.4711 6.20821 8.42348 6.2973 8.35355 6.36723C8.28363 6.43715 8.19454 6.48477 8.09755 6.50406C8.00056 6.52336 7.90002 6.51346 7.80866 6.47561C7.7173 6.43777 7.63921 6.37368 7.58427 6.29146C7.52932 6.20923 7.5 6.11256 7.5 6.01367C7.50012 5.8811 7.55284 5.75399 7.64658 5.66025C7.74032 5.56651 7.86743 5.51379 8 5.51367Z" fill="currentColor"/>
<path d="M15 7.51367H13.9096C13.7004 6.28767 13.1157 5.15687 12.2362 4.27742C11.3568 3.39797 10.226 2.81326 9 2.60402V1.51367H7V2.60402C5.774 2.81326 4.6432 3.39797 3.76375 4.27742C2.8843 5.15687 2.29959 6.28767 2.09035 7.51367H1V9.51367H2.09035C2.29959 10.7397 2.8843 11.8705 3.76375 12.7499C4.6432 13.6294 5.774 14.2141 7 14.4233V15.5137H9V14.4233C10.226 14.2141 11.3568 13.6294 12.2362 12.7499C13.1157 11.8705 13.7004 10.7397 13.9096 9.51367H15V7.51367ZM8 13.5137C7.01109 13.5137 6.04439 13.2204 5.22215 12.671C4.3999 12.1216 3.75904 11.3407 3.3806 10.4271C3.00216 9.51346 2.90315 8.50813 3.09607 7.53822C3.289 6.56832 3.7652 5.6774 4.46447 4.97814C5.16373 4.27888 6.05464 3.80267 7.02455 3.60975C7.99445 3.41682 8.99979 3.51584 9.91342 3.89427C10.827 4.27271 11.6079 4.91357 12.1573 5.73582C12.7068 6.55807 13 7.52477 13 8.51367C12.9985 9.83929 12.4712 11.1102 11.5339 12.0475C10.5965 12.9849 9.32562 13.5122 8 13.5137Z" fill="currentColor"/>
</svg>
