<svg viewBox="0 0 16 17" fill="none" xmlns="http://www.w3.org/2000/svg">
<rect width="16" height="16" transform="translate(0 0.513672)" fill="white" fill-opacity="0.01" style="mix-blend-mode:multiply"/>
<path d="M8.00002 9.51367C8.5523 9.51367 9.00002 9.06596 9.00002 8.51367C9.00002 7.96139 8.5523 7.51367 8.00002 7.51367C7.44773 7.51367 7.00002 7.96139 7.00002 8.51367C7.00002 9.06596 7.44773 9.51367 8.00002 9.51367Z" fill="currentColor"/>
<path d="M15.4319 8.26172L11.9319 2.26172C11.8879 2.18624 11.8248 2.12361 11.7491 2.08009C11.6733 2.03657 11.5874 2.01367 11.5 2.01367H4.50002C4.41263 2.01367 4.32677 2.03657 4.25099 2.08009C4.1752 2.12361 4.11215 2.18624 4.06812 2.26172L0.568119 8.26172C0.523507 8.33819 0.5 8.42514 0.5 8.51367C0.5 8.6022 0.523507 8.68915 0.568119 8.76562L4.06812 14.7656C4.11215 14.8411 4.1752 14.9037 4.25099 14.9473C4.32677 14.9908 4.41263 15.0137 4.50002 15.0137H11.5C11.5874 15.0137 11.6733 14.9908 11.7491 14.9473C11.8248 14.9037 11.8879 14.8411 11.9319 14.7656L15.4319 8.76562C15.4765 8.68915 15.5 8.6022 15.5 8.51367C15.5 8.42514 15.4765 8.33819 15.4319 8.26172ZM11.2129 14.0137H4.78712L1.57887 8.51367L4.78712 3.01367H11.2129L14.4212 8.51367L11.2129 14.0137Z" fill="currentColor"/>
</svg>
