<svg viewBox="0 0 16 17" fill="none" xmlns="http://www.w3.org/2000/svg">
<rect width="16" height="16" transform="translate(0 0.513672)" fill="white" fill-opacity="0.01" style="mix-blend-mode:multiply"/>
<path d="M8 12.5137C7.20887 12.5137 6.43552 12.2791 5.77772 11.8396C5.11992 11.4 4.60723 10.7753 4.30448 10.0444C4.00173 9.3135 3.92252 8.50923 4.07686 7.73331C4.2312 6.95739 4.61216 6.24465 5.17157 5.68524C5.73098 5.12583 6.44371 4.74487 7.21964 4.59053C7.99556 4.43619 8.79983 4.5154 9.53073 4.81815C10.2616 5.1209 10.8864 5.63359 11.3259 6.29139C11.7654 6.94919 12 7.72255 12 8.51367C11.9988 9.57416 11.577 10.5909 10.8271 11.3408C10.0772 12.0906 9.06049 12.5125 8 12.5137ZM8 5.51367C7.40666 5.51367 6.82664 5.68962 6.33329 6.01926C5.83994 6.34891 5.45542 6.81744 5.22836 7.36562C5.0013 7.9138 4.94189 8.517 5.05764 9.09894C5.1734 9.68089 5.45912 10.2154 5.87868 10.635C6.29824 11.0546 6.83279 11.3403 7.41473 11.456C7.99667 11.5718 8.59987 11.5124 9.14805 11.2853C9.69623 11.0582 10.1648 10.6737 10.4944 10.1804C10.8241 9.68704 11 9.10702 11 8.51367C10.9991 7.71829 10.6828 6.95575 10.1203 6.39333C9.55792 5.83091 8.79538 5.51456 8 5.51367Z" fill="currentColor"/>
<path d="M8 9.51367C8.55228 9.51367 9 9.06596 9 8.51367C9 7.96139 8.55228 7.51367 8 7.51367C7.44772 7.51367 7 7.96139 7 8.51367C7 9.06596 7.44772 9.51367 8 9.51367Z" fill="currentColor"/>
<path d="M8 3.51367C8.55228 3.51367 9 3.06596 9 2.51367C9 1.96139 8.55228 1.51367 8 1.51367C7.44772 1.51367 7 1.96139 7 2.51367C7 3.06596 7.44772 3.51367 8 3.51367Z" fill="currentColor"/>
<path d="M8 15.5137C8.55228 15.5137 9 15.066 9 14.5137C9 13.9614 8.55228 13.5137 8 13.5137C7.44772 13.5137 7 13.9614 7 14.5137C7 15.066 7.44772 15.5137 8 15.5137Z" fill="currentColor"/>
<path d="M14 9.51367C14.5523 9.51367 15 9.06596 15 8.51367C15 7.96139 14.5523 7.51367 14 7.51367C13.4477 7.51367 13 7.96139 13 8.51367C13 9.06596 13.4477 9.51367 14 9.51367Z" fill="currentColor"/>
<path d="M2 9.51367C2.55228 9.51367 3 9.06596 3 8.51367C3 7.96139 2.55228 7.51367 2 7.51367C1.44772 7.51367 1 7.96139 1 8.51367C1 9.06596 1.44772 9.51367 2 9.51367Z" fill="currentColor"/>
<path d="M3.75735 5.27102C4.30963 5.27102 4.75735 4.82331 4.75735 4.27102C4.75735 3.71874 4.30963 3.27102 3.75735 3.27102C3.20507 3.27102 2.75735 3.71874 2.75735 4.27102C2.75735 4.82331 3.20507 5.27102 3.75735 5.27102Z" fill="currentColor"/>
<path d="M12.2427 13.7563C12.7949 13.7563 13.2427 13.3086 13.2427 12.7563C13.2427 12.204 12.7949 11.7563 12.2427 11.7563C11.6904 11.7563 11.2427 12.204 11.2427 12.7563C11.2427 13.3086 11.6904 13.7563 12.2427 13.7563Z" fill="currentColor"/>
<path d="M12.2427 5.27102C12.7949 5.27102 13.2427 4.82331 13.2427 4.27102C13.2427 3.71874 12.7949 3.27102 12.2427 3.27102C11.6904 3.27102 11.2427 3.71874 11.2427 4.27102C11.2427 4.82331 11.6904 5.27102 12.2427 5.27102Z" fill="currentColor"/>
<path d="M3.75735 13.7563C4.30963 13.7563 4.75735 13.3086 4.75735 12.7563C4.75735 12.204 4.30963 11.7563 3.75735 11.7563C3.20507 11.7563 2.75735 12.204 2.75735 12.7563C2.75735 13.3086 3.20507 13.7563 3.75735 13.7563Z" fill="currentColor"/>
</svg>
