<svg viewBox="0 0 16 17" fill="none" xmlns="http://www.w3.org/2000/svg">
<rect width="16" height="16" transform="translate(0 0.513672)" fill="white" fill-opacity="0.01" style="mix-blend-mode:multiply"/>
<path d="M7.99997 8.5138C8.55226 8.5138 8.99997 8.06608 8.99997 7.5138C8.99997 6.96151 8.55226 6.5138 7.99997 6.5138C7.44769 6.5138 6.99997 6.96151 6.99997 7.5138C6.99997 8.06608 7.44769 8.5138 7.99997 8.5138Z" fill="currentColor"/>
<path d="M14.9341 5.76575L12.9341 2.26575C12.9011 2.20792 12.8569 2.15727 12.804 2.11676C12.7512 2.07626 12.6908 2.04673 12.6264 2.0299C12.562 2.01307 12.4949 2.00928 12.429 2.01876C12.3631 2.02824 12.2997 2.0508 12.2427 2.0851L9.86152 3.5138H6.13842L3.75727 2.0851C3.70021 2.0508 3.63688 2.02824 3.57098 2.01876C3.50509 2.00928 3.43796 2.01307 3.37355 2.0299C3.30914 2.04673 3.24874 2.07626 3.1959 2.11676C3.14306 2.15727 3.09885 2.20792 3.06587 2.26575L1.06587 5.76575C1.00101 5.87927 0.983189 6.01368 1.01624 6.14019C1.04929 6.26669 1.13057 6.37521 1.24267 6.4425L3.63057 7.87535L5.49997 11.1466V14.0138C5.49997 14.1464 5.55265 14.2736 5.64642 14.3674C5.74019 14.4611 5.86736 14.5138 5.99997 14.5138H9.99997C10.1326 14.5138 10.2598 14.4611 10.3535 14.3674C10.4473 14.2736 10.5 14.1464 10.5 14.0138V11.1466L12.3694 7.87535L14.7573 6.4425C14.8694 6.37521 14.9507 6.26669 14.9837 6.14019C15.0168 6.01368 14.9989 5.87927 14.9341 5.76575ZM9.42417 11.0138H6.57577L4.28782 7.0099L5.71432 4.5138H10.2856L11.7121 7.0099L9.42417 11.0138Z" fill="currentColor"/>
</svg>
