<svg viewBox="0 0 16 17" fill="none" xmlns="http://www.w3.org/2000/svg">
<rect width="16" height="16" transform="translate(0 0.513672)" fill="white" fill-opacity="0.01" style="mix-blend-mode:multiply"/>
<path d="M15 7.51367H13.9096C13.7004 6.28767 13.1157 5.15687 12.2362 4.27742C11.3568 3.39797 10.226 2.81326 9 2.60402V1.51367H7V2.60402C5.774 2.81326 4.6432 3.39797 3.76375 4.27742C2.8843 5.15687 2.29959 6.28767 2.09035 7.51367H1V9.51367H2.09035C2.29959 10.7397 2.8843 11.8705 3.76375 12.7499C4.6432 13.6294 5.774 14.2141 7 14.4233V15.5137H9V14.4233C10.226 14.2141 11.3568 13.6294 12.2362 12.7499C13.1157 11.8705 13.7004 10.7397 13.9096 9.51367H15V7.51367ZM8 13.5137C7.01109 13.5137 6.04439 13.2204 5.22215 12.671C4.3999 12.1216 3.75904 11.3407 3.3806 10.4271C3.00216 9.51346 2.90315 8.50813 3.09607 7.53822C3.289 6.56832 3.7652 5.6774 4.46447 4.97814C5.16373 4.27888 6.05464 3.80267 7.02455 3.60975C7.99445 3.41682 8.99979 3.51584 9.91342 3.89427C10.827 4.27271 11.6079 4.91357 12.1573 5.73582C12.7068 6.55807 13 7.52477 13 8.51367C12.9985 9.83929 12.4712 11.1102 11.5339 12.0475C10.5965 12.9849 9.32562 13.5122 8 13.5137V13.5137Z" fill="currentColor"/>
</svg>
