<svg viewBox="0 0 16 17" fill="none" xmlns="http://www.w3.org/2000/svg">
<rect width="16" height="16" transform="translate(0 0.513672)" fill="white" fill-opacity="0.01" style="mix-blend-mode:multiply"/>
<path d="M2 6.51367H1V2.51367C1.00028 2.24854 1.10572 1.99435 1.2932 1.80687C1.48068 1.6194 1.73487 1.51395 2 1.51367H6V2.51367H2V6.51367Z" fill="currentColor"/>
<path d="M6 15.5137H2C1.73487 15.5134 1.48068 15.4079 1.2932 15.2205C1.10572 15.033 1.00028 14.7788 1 14.5137V10.5137H2V14.5137H6V15.5137Z" fill="currentColor"/>
<path d="M14 15.5137H10V14.5137H14V10.5137H15V14.5137C14.9997 14.7788 14.8943 15.033 14.7068 15.2205C14.5193 15.4079 14.2651 15.5134 14 15.5137Z" fill="currentColor"/>
<path d="M15 6.51367H14V2.51367H10V1.51367H14C14.2651 1.51395 14.5193 1.6194 14.7068 1.80687C14.8943 1.99435 14.9997 2.24854 15 2.51367V6.51367Z" fill="currentColor"/>
<path d="M8 11.5137C7.40666 11.5137 6.82664 11.3377 6.33329 11.0081C5.83994 10.6784 5.45542 10.2099 5.22836 9.66172C5.0013 9.11354 4.94189 8.51034 5.05764 7.9284C5.1734 7.34646 5.45912 6.81191 5.87868 6.39235C6.29824 5.97279 6.83279 5.68707 7.41473 5.57132C7.99667 5.45556 8.59987 5.51497 9.14805 5.74203C9.69623 5.9691 10.1648 6.35361 10.4944 6.84696C10.8241 7.34031 11 7.92033 11 8.51367C10.9991 9.30905 10.6828 10.0716 10.1203 10.634C9.55792 11.1964 8.79538 11.5128 8 11.5137ZM8 6.51367C7.60444 6.51367 7.21776 6.63097 6.88886 6.85073C6.55996 7.0705 6.30362 7.38285 6.15224 7.74831C6.00087 8.11376 5.96126 8.51589 6.03843 8.90385C6.1156 9.29181 6.30608 9.64818 6.58579 9.92789C6.86549 10.2076 7.22186 10.3981 7.60982 10.4752C7.99778 10.5524 8.39991 10.5128 8.76537 10.3614C9.13082 10.2101 9.44318 9.95371 9.66294 9.62481C9.8827 9.29591 10 8.90923 10 8.51367C9.9994 7.98342 9.7885 7.47506 9.41356 7.10012C9.03861 6.72517 8.53025 6.51427 8 6.51367Z" fill="currentColor"/>
<path d="M8 9.51367C8.55228 9.51367 9 9.06596 9 8.51367C9 7.96139 8.55228 7.51367 8 7.51367C7.44772 7.51367 7 7.96139 7 8.51367C7 9.06596 7.44772 9.51367 8 9.51367Z" fill="currentColor"/>
<path d="M8 4.51367C8.27614 4.51367 8.5 4.28981 8.5 4.01367C8.5 3.73753 8.27614 3.51367 8 3.51367C7.72386 3.51367 7.5 3.73753 7.5 4.01367C7.5 4.28981 7.72386 4.51367 8 4.51367Z" fill="currentColor"/>
<path d="M8 2.51367C8.27614 2.51367 8.5 2.28981 8.5 2.01367C8.5 1.73753 8.27614 1.51367 8 1.51367C7.72386 1.51367 7.5 1.73753 7.5 2.01367C7.5 2.28981 7.72386 2.51367 8 2.51367Z" fill="currentColor"/>
<path d="M8 13.5137C8.27614 13.5137 8.5 13.2898 8.5 13.0137C8.5 12.7375 8.27614 12.5137 8 12.5137C7.72386 12.5137 7.5 12.7375 7.5 13.0137C7.5 13.2898 7.72386 13.5137 8 13.5137Z" fill="currentColor"/>
<path d="M8 15.5137C8.27614 15.5137 8.5 15.2898 8.5 15.0137C8.5 14.7375 8.27614 14.5137 8 14.5137C7.72386 14.5137 7.5 14.7375 7.5 15.0137C7.5 15.2898 7.72386 15.5137 8 15.5137Z" fill="currentColor"/>
<path d="M12.5 9.01367C12.7761 9.01367 13 8.78981 13 8.51367C13 8.23753 12.7761 8.01367 12.5 8.01367C12.2239 8.01367 12 8.23753 12 8.51367C12 8.78981 12.2239 9.01367 12.5 9.01367Z" fill="currentColor"/>
<path d="M14.5 9.01367C14.7761 9.01367 15 8.78981 15 8.51367C15 8.23753 14.7761 8.01367 14.5 8.01367C14.2239 8.01367 14 8.23753 14 8.51367C14 8.78981 14.2239 9.01367 14.5 9.01367Z" fill="currentColor"/>
<path d="M3.5 9.01367C3.77614 9.01367 4 8.78981 4 8.51367C4 8.23753 3.77614 8.01367 3.5 8.01367C3.22386 8.01367 3 8.23753 3 8.51367C3 8.78981 3.22386 9.01367 3.5 9.01367Z" fill="currentColor"/>
<path d="M1.5 9.01367C1.77614 9.01367 2 8.78981 2 8.51367C2 8.23753 1.77614 8.01367 1.5 8.01367C1.22386 8.01367 1 8.23753 1 8.51367C1 8.78981 1.22386 9.01367 1.5 9.01367Z" fill="currentColor"/>
<path d="M4.818 5.83167C5.09414 5.83167 5.318 5.60781 5.318 5.33167C5.318 5.05553 5.09414 4.83167 4.818 4.83167C4.54186 4.83167 4.318 5.05553 4.318 5.33167C4.318 5.60781 4.54186 5.83167 4.818 5.83167Z" fill="currentColor"/>
<path d="M3.5 4.51367C3.77614 4.51367 4 4.28981 4 4.01367C4 3.73753 3.77614 3.51367 3.5 3.51367C3.22386 3.51367 3 3.73753 3 4.01367C3 4.28981 3.22386 4.51367 3.5 4.51367Z" fill="currentColor"/>
<path d="M11.182 12.1957C11.4581 12.1957 11.682 11.9718 11.682 11.6957C11.682 11.4195 11.4581 11.1957 11.182 11.1957C10.9059 11.1957 10.682 11.4195 10.682 11.6957C10.682 11.9718 10.9059 12.1957 11.182 12.1957Z" fill="currentColor"/>
<path d="M12.5 13.5137C12.7761 13.5137 13 13.2898 13 13.0137C13 12.7375 12.7761 12.5137 12.5 12.5137C12.2239 12.5137 12 12.7375 12 13.0137C12 13.2898 12.2239 13.5137 12.5 13.5137Z" fill="currentColor"/>
<path d="M11.182 5.83167C11.4581 5.83167 11.682 5.60781 11.682 5.33167C11.682 5.05553 11.4581 4.83167 11.182 4.83167C10.9059 4.83167 10.682 5.05553 10.682 5.33167C10.682 5.60781 10.9059 5.83167 11.182 5.83167Z" fill="currentColor"/>
<path d="M12.5 4.51367C12.7761 4.51367 13 4.28981 13 4.01367C13 3.73753 12.7761 3.51367 12.5 3.51367C12.2239 3.51367 12 3.73753 12 4.01367C12 4.28981 12.2239 4.51367 12.5 4.51367Z" fill="currentColor"/>
<path d="M4.818 12.1957C5.09414 12.1957 5.318 11.9718 5.318 11.6957C5.318 11.4195 5.09414 11.1957 4.818 11.1957C4.54186 11.1957 4.318 11.4195 4.318 11.6957C4.318 11.9718 4.54186 12.1957 4.818 12.1957Z" fill="currentColor"/>
<path d="M3.5 13.5137C3.77614 13.5137 4 13.2898 4 13.0137C4 12.7375 3.77614 12.5137 3.5 12.5137C3.22386 12.5137 3 12.7375 3 13.0137C3 13.2898 3.22386 13.5137 3.5 13.5137Z" fill="currentColor"/>
</svg>
