<svg viewBox="0 0 16 17" fill="none" xmlns="http://www.w3.org/2000/svg">
<rect width="16" height="16" transform="translate(0 0.513672)" fill="white" fill-opacity="0.01" style="mix-blend-mode:multiply"/>
<path d="M7.99997 8.51365C8.55226 8.51365 8.99997 8.06593 8.99997 7.51365C8.99997 6.96136 8.55226 6.51365 7.99997 6.51365C7.44769 6.51365 6.99997 6.96136 6.99997 7.51365C6.99997 8.06593 7.44769 8.51365 7.99997 8.51365Z" fill="currentColor"/>
<path d="M9.99997 14.5136H5.99997C5.86736 14.5136 5.74019 14.461 5.64642 14.3672C5.55265 14.2734 5.49997 14.1463 5.49997 14.0136V11.1464L3.63057 7.8752L1.24267 6.44235C1.13057 6.37506 1.04929 6.26653 1.01624 6.14003C0.983189 6.01353 1.00101 5.87912 1.06587 5.7656L3.06587 2.2656C3.09889 2.20781 3.14312 2.15719 3.19596 2.11672C3.2488 2.07625 3.30919 2.04674 3.37359 2.02991C3.43799 2.01309 3.5051 2.00929 3.57098 2.01874C3.63686 2.02819 3.7002 2.0507 3.75727 2.08495L6.13842 3.51365H9.86152L12.2427 2.08495C12.2997 2.0507 12.3631 2.02819 12.429 2.01874C12.4948 2.00929 12.562 2.01309 12.6264 2.02991C12.6907 2.04674 12.7511 2.07625 12.804 2.11672C12.8568 2.15719 12.901 2.20781 12.9341 2.2656L14.9341 5.7656C14.9989 5.87912 15.0168 6.01353 14.9837 6.14003C14.9507 6.26653 14.8694 6.37506 14.7573 6.44235L12.3694 7.8752L10.5 11.1464V14.0136C10.5 14.1463 10.4473 14.2734 10.3535 14.3672C10.2598 14.461 10.1326 14.5136 9.99997 14.5136ZM6.49997 13.5136H9.49997V10.8809L11.6308 7.15205L13.823 5.83675L12.3193 3.2052L10.1385 4.51365H5.86147L3.68062 3.2052L2.17697 5.83675L4.36917 7.15205L6.49997 10.8809V13.5136Z" fill="currentColor"/>
</svg>
