<svg viewBox="0 0 16 17" fill="none" xmlns="http://www.w3.org/2000/svg">
<rect width="16" height="16" transform="translate(0 0.513672)" fill="white" fill-opacity="0.01" style="mix-blend-mode:multiply"/>
<path d="M12.8991 5.51413C12.6675 4.37973 12.0493 3.3609 11.1501 2.63152C10.2509 1.90215 9.12645 1.50743 7.96866 1.51475C6.81088 1.52207 5.69151 1.93096 4.80162 2.67165C3.91172 3.41233 3.30646 4.43889 3.08914 5.57613C2.16677 5.74088 1.33955 6.24512 0.770491 6.98948C0.20143 7.73384 -0.0682061 8.66435 0.0147147 9.59764C0.0976356 10.5309 0.527099 11.3993 1.21848 12.0317C1.90986 12.6641 2.81302 13.0146 3.74999 13.0141H3.99999V12.0141H3.74999C3.03717 12.0146 2.35207 11.7381 1.8393 11.2429C1.32653 10.7478 1.02621 10.0728 1.00175 9.36038C0.977292 8.64799 1.2306 7.95397 1.7082 7.42482C2.1858 6.89567 2.85032 6.5728 3.56149 6.52438L3.97974 6.49583L4.02474 6.07908C4.12588 5.14881 4.55022 4.28353 5.22382 3.63401C5.89742 2.98449 6.77757 2.59192 7.7109 2.52469C8.64422 2.45747 9.57155 2.71986 10.3313 3.26614C11.091 3.81242 11.635 4.60796 11.8684 5.51413H12.8991Z" fill="currentColor"/>
<path d="M14 6.51413H8.99999C8.73486 6.51443 8.48069 6.61988 8.29321 6.80736C8.10574 6.99483 8.00029 7.249 7.99999 7.51413V9.51413H5.99999C5.73486 9.51443 5.48069 9.61988 5.29322 9.80735C5.10574 9.99483 5.00029 10.249 4.99999 10.5141V15.5141H15V7.51413C14.9997 7.249 14.8942 6.99483 14.7068 6.80736C14.5193 6.61988 14.2651 6.51443 14 6.51413ZM5.99999 14.5141V10.5141H7.99999V14.5141H5.99999ZM14 14.5141H8.99999V7.51413H14V14.5141Z" fill="currentColor"/>
<path d="M11 8.51413H9.99999V10.5141H11V8.51413Z" fill="currentColor"/>
<path d="M13 8.51413H12V10.5141H13V8.51413Z" fill="currentColor"/>
<path d="M11 11.5141H9.99999V13.5141H11V11.5141Z" fill="currentColor"/>
<path d="M13 11.5141H12V13.5141H13V11.5141Z" fill="currentColor"/>
</svg>
