<svg viewBox="0 0 16 17" fill="none" xmlns="http://www.w3.org/2000/svg">
<g clip-path="url(#clip0_1961_10597)">
<rect width="16" height="16" transform="translate(0 0.513672)" fill="white" fill-opacity="0.01" style="mix-blend-mode:multiply"/>
<path d="M14 9.51362H13V3.51362H6.5V2.51362H13C13.5514 2.51362 14 2.96222 14 3.51362V9.51362Z" fill="currentColor"/>
<path d="M9 14.5136H3C2.4486 14.5136 2 14.065 2 13.5136V7.01362H3V13.5136H9V14.5136Z" fill="currentColor"/>
<path d="M13 11.0136L12.1035 11.9101L9.3497 9.15622C9.4432 8.96067 9.49995 8.74462 9.49995 8.51362C9.49995 7.68647 8.8271 7.01362 7.99995 7.01362C7.7691 7.01362 7.55295 7.07027 7.35735 7.16402L4.7165 4.52317C4.89215 4.22582 4.99995 3.88352 4.99995 3.51367C4.99995 2.41087 4.10275 1.51367 2.99995 1.51367C1.89715 1.51367 1 2.41082 1 3.51362C1 4.61642 1.8972 5.51362 3 5.51362C3.36975 5.51362 3.71205 5.40597 4.0095 5.23017L6.65025 7.87102C6.55675 8.06657 6.5 8.28262 6.5 8.51362C6.5 9.34077 7.17285 10.0136 8 10.0136C8.23085 10.0136 8.447 9.95697 8.6426 9.86322L11.3965 12.6171L10.5 13.5136L13 16.0136L15.5 13.5136L13 11.0136ZM2 3.51362C2 2.96237 2.4486 2.51362 3 2.51362C3.5514 2.51362 4 2.96237 4 3.51362C4 4.06487 3.5514 4.51362 3 4.51362C2.4486 4.51362 2 4.06487 2 3.51362ZM7.5 8.51362C7.5 8.23797 7.72425 8.01362 8 8.01362C8.27575 8.01362 8.5 8.23797 8.5 8.51362C8.5 8.78927 8.27575 9.01362 8 9.01362C7.72425 9.01362 7.5 8.78927 7.5 8.51362ZM11.9143 13.5136L13 12.4279L14.0857 13.5136L13 14.5993L11.9143 13.5136Z" fill="currentColor"/>
</g>
<defs>
<clipPath id="clip0_1961_10597">
<rect width="16" height="16" fill="white" transform="translate(0 0.513672)"/>
</clipPath>
</defs>
</svg>
