<svg viewBox="0 0 16 17" fill="none" xmlns="http://www.w3.org/2000/svg">
<rect width="16" height="16" transform="translate(0 0.513672)" fill="white" fill-opacity="0.01" style="mix-blend-mode:multiply"/>
<path d="M14.3535 10.1602L13 8.80662V7.01367C12.9984 5.77465 12.5374 4.58023 11.7062 3.66137C10.875 2.74251 9.73266 2.16449 8.5 2.03907V1.01367H7.5V2.03907C6.26734 2.16449 5.12496 2.74251 4.29377 3.66137C3.46257 4.58023 3.0016 5.77465 3 7.01367V8.80662L1.64645 10.1602C1.55269 10.2539 1.50002 10.3811 1.5 10.5137V12.0137C1.5 12.1463 1.55268 12.2735 1.64645 12.3672C1.74021 12.461 1.86739 12.5137 2 12.5137H5.5V12.9021C5.48916 13.5364 5.71276 14.1524 6.12794 14.632C6.54313 15.1117 7.1207 15.4212 7.75 15.5014C8.09757 15.5359 8.44852 15.4973 8.78026 15.388C9.112 15.2787 9.4172 15.1012 9.67622 14.8669C9.93524 14.6326 10.1423 14.3466 10.2842 14.0274C10.4261 13.7083 10.4996 13.363 10.5 13.0137V12.5137H14C14.1326 12.5137 14.2598 12.461 14.3536 12.3672C14.4473 12.2735 14.5 12.1463 14.5 12.0137V10.5137C14.5 10.3811 14.4473 10.2539 14.3535 10.1602ZM9.5 13.0137C9.5 13.4115 9.34196 13.793 9.06066 14.0743C8.77936 14.3556 8.39782 14.5137 8 14.5137C7.60218 14.5137 7.22064 14.3556 6.93934 14.0743C6.65804 13.793 6.5 13.4115 6.5 13.0137V12.5137H9.5V13.0137ZM13.5 11.5137H2.5V10.7207L3.8535 9.36717C3.94727 9.27343 3.99997 9.14627 4 9.01367V7.01367C4 5.95281 4.42143 4.93539 5.17157 4.18524C5.92172 3.4351 6.93913 3.01367 8 3.01367C9.06087 3.01367 10.0783 3.4351 10.8284 4.18524C11.5786 4.93539 12 5.95281 12 7.01367V9.01367C12 9.14627 12.0527 9.27343 12.1465 9.36717L13.5 10.7207V11.5137Z" fill="currentColor"/>
</svg>
