<svg viewBox="0 0 16 17" fill="none" xmlns="http://www.w3.org/2000/svg">
<rect width="16" height="16" transform="translate(0 0.513672)" fill="white" fill-opacity="0.01" style="mix-blend-mode:multiply"/>
<path d="M13 8.80662V7.01367C12.9995 6.23139 12.8132 5.46042 12.4565 4.76417L15 2.22072L14.2929 1.51367L1 14.8066L1.70705 15.5137L4.70705 12.5137H5.5V13.0137C5.5 13.6767 5.76339 14.3126 6.23223 14.7814C6.70107 15.2503 7.33696 15.5137 8 15.5137C8.66304 15.5137 9.29893 15.2503 9.76777 14.7814C10.2366 14.3126 10.5 13.6767 10.5 13.0137V12.5137H14C14.1326 12.5137 14.2598 12.461 14.3536 12.3672C14.4473 12.2735 14.5 12.1463 14.5 12.0137V10.5137C14.5 10.448 14.4871 10.383 14.4619 10.3223C14.4368 10.2617 14.3999 10.2066 14.3535 10.1602L13 8.80662ZM9.5 13.0137C9.5 13.4115 9.34196 13.793 9.06066 14.0743C8.77936 14.3556 8.39782 14.5137 8 14.5137C7.60218 14.5137 7.22064 14.3556 6.93934 14.0743C6.65804 13.793 6.5 13.4115 6.5 13.0137V12.5137H9.5V13.0137Z" fill="currentColor"/>
<path d="M10.805 2.88282C10.1194 2.413 9.32686 2.12288 8.5 2.03907V1.01367H7.5V2.03907C6.26734 2.16449 5.12496 2.74251 4.29377 3.66137C3.46257 4.58023 3.0016 5.77465 3 7.01367V8.80662L1.6465 10.1602C1.60005 10.2066 1.56321 10.2617 1.53807 10.3223C1.51293 10.383 1.49999 10.448 1.5 10.5137V12.0137C1.50231 12.0632 1.51217 12.1121 1.52925 12.1587L10.805 2.88282Z" fill="currentColor"/>
</svg>
