<svg viewBox="0 0 16 17" fill="none" xmlns="http://www.w3.org/2000/svg">
<rect width="16" height="16" transform="translate(0 0.513672)" fill="white" fill-opacity="0.01" style="mix-blend-mode:multiply"/>
<path d="M14 10.5137H13V11.5137H14V14.5137H2V11.5137H7V10.5137H2C1.73488 10.514 1.48071 10.6194 1.29324 10.8069C1.10578 10.9944 1.00032 11.2485 1 11.5137V14.5137C1.00032 14.7788 1.10578 15.0329 1.29324 15.2204C1.48071 15.4079 1.73488 15.5133 2 15.5137H14C14.2651 15.5133 14.5193 15.4079 14.7068 15.2204C14.8942 15.0329 14.9997 14.7788 15 14.5137V11.5137C14.9997 11.2485 14.8942 10.9944 14.7068 10.8069C14.5193 10.6194 14.2651 10.514 14 10.5137Z" fill="currentColor"/>
<path d="M3.5 13.5137C3.77614 13.5137 4 13.2898 4 13.0137C4 12.7375 3.77614 12.5137 3.5 12.5137C3.22386 12.5137 3 12.7375 3 13.0137C3 13.2898 3.22386 13.5137 3.5 13.5137Z" fill="currentColor"/>
<path d="M10.5 7.51366C10.1212 7.51449 9.75701 7.65947 9.4813 7.91916L7.47935 6.71801C7.49096 6.65046 7.49786 6.58217 7.5 6.51366C7.49786 6.44515 7.49096 6.37687 7.47935 6.30931L9.4813 5.10816C9.73382 5.34117 10.0589 5.48012 10.4018 5.50164C10.7447 5.52316 11.0846 5.42593 11.3643 5.22631C11.6439 5.02669 11.8463 4.73685 11.9374 4.40554C12.0285 4.07424 12.0027 3.72167 11.8644 3.40714C11.7261 3.09261 11.4837 2.8353 11.1779 2.67849C10.8722 2.52168 10.5218 2.47493 10.1857 2.54611C9.84951 2.61729 9.54813 2.80205 9.3322 3.06932C9.11627 3.33659 8.99896 3.67007 9 4.01366C9.00212 4.08226 9.00906 4.15063 9.02075 4.21826L7.0188 5.41941C6.80538 5.21931 6.5381 5.08598 6.24986 5.03585C5.96163 4.98572 5.66503 5.02097 5.39657 5.13726C5.12812 5.25356 4.89953 5.44582 4.73896 5.69037C4.57838 5.93493 4.49283 6.2211 4.49283 6.51366C4.49283 6.80622 4.57838 7.0924 4.73896 7.33695C4.89953 7.58151 5.12812 7.77377 5.39657 7.89006C5.66503 8.00636 5.96163 8.04161 6.24986 7.99148C6.5381 7.94134 6.80538 7.80802 7.0188 7.60791L9.02075 8.80906C9.00906 8.87669 9.00212 8.94506 9 9.01366C9 9.31033 9.08797 9.60034 9.2528 9.84702C9.41762 10.0937 9.65189 10.2859 9.92597 10.3995C10.2001 10.513 10.5017 10.5427 10.7926 10.4848C11.0836 10.427 11.3509 10.2841 11.5607 10.0743C11.7704 9.86454 11.9133 9.59727 11.9712 9.3063C12.0291 9.01533 11.9994 8.71373 11.8858 8.43964C11.7723 8.16555 11.58 7.93128 11.3334 7.76646C11.0867 7.60164 10.7967 7.51366 10.5 7.51366ZM10.5 3.51366C10.5989 3.51366 10.6956 3.54299 10.7778 3.59793C10.86 3.65287 10.9241 3.73096 10.9619 3.82232C10.9998 3.91368 11.0097 4.01422 10.9904 4.11121C10.9711 4.2082 10.9235 4.29729 10.8536 4.36722C10.7836 4.43714 10.6945 4.48476 10.5975 4.50405C10.5006 4.52335 10.4 4.51345 10.3087 4.4756C10.2173 4.43776 10.1392 4.37367 10.0843 4.29145C10.0293 4.20922 10 4.11255 10 4.01366C10.0001 3.88109 10.0528 3.75398 10.1466 3.66024C10.2403 3.5665 10.3674 3.51378 10.5 3.51366ZM6 7.01366C5.90111 7.01366 5.80444 6.98434 5.72221 6.9294C5.63999 6.87446 5.5759 6.79637 5.53806 6.705C5.50022 6.61364 5.49031 6.51311 5.50961 6.41612C5.5289 6.31913 5.57652 6.23003 5.64645 6.16011C5.71637 6.09018 5.80546 6.04256 5.90245 6.02327C5.99945 6.00398 6.09998 6.01388 6.19134 6.05172C6.2827 6.08957 6.36079 6.15365 6.41573 6.23588C6.47068 6.3181 6.5 6.41477 6.5 6.51366C6.49988 6.64623 6.44716 6.77334 6.35342 6.86708C6.25968 6.96083 6.13257 7.01354 6 7.01366ZM10.5 9.51366C10.4011 9.51366 10.3044 9.48434 10.2222 9.4294C10.14 9.37446 10.0759 9.29637 10.0381 9.205C10.0002 9.11364 9.99031 9.01311 10.0096 8.91612C10.0289 8.81913 10.0765 8.73003 10.1464 8.66011C10.2164 8.59018 10.3055 8.54256 10.4025 8.52327C10.4994 8.50398 10.6 8.51388 10.6913 8.55172C10.7827 8.58957 10.8608 8.65365 10.9157 8.73588C10.9707 8.8181 11 8.91477 11 9.01366C10.9999 9.14623 10.9472 9.27334 10.8534 9.36708C10.7597 9.46083 10.6326 9.51354 10.5 9.51366Z" fill="currentColor"/>
</svg>
