<svg viewBox="0 0 16 17" fill="none" xmlns="http://www.w3.org/2000/svg">
<rect width="16" height="16" transform="translate(0 0.513672)" fill="white" fill-opacity="0.01" style="mix-blend-mode:multiply"/>
<path d="M2 9.51367C2 10.7004 2.35189 11.8604 3.01118 12.8471C3.67047 13.8338 4.60754 14.6028 5.7039 15.0569C6.80026 15.5111 8.00666 15.6299 9.17054 15.3984C10.3344 15.1669 11.4035 14.5954 12.2426 13.7563C13.0818 12.9172 13.6532 11.8481 13.8847 10.6842C14.1162 9.52033 13.9974 8.31393 13.5433 7.21757C13.0892 6.12121 12.3201 5.18414 11.3334 4.52485C10.3467 3.86557 9.18669 3.51367 8 3.51367H6V1.01367L3 4.01367L6 7.01367V4.51367H8C8.98891 4.51367 9.95561 4.80692 10.7779 5.35632C11.6001 5.90573 12.241 6.68662 12.6194 7.60025C12.9978 8.51389 13.0969 9.51922 12.9039 10.4891C12.711 11.459 12.2348 12.3499 11.5355 13.0492C10.8363 13.7485 9.94536 14.2247 8.97545 14.4176C8.00555 14.6105 7.00021 14.5115 6.08658 14.1331C5.17295 13.7546 4.39206 13.1138 3.84265 12.2915C3.29324 11.4693 3 10.5026 3 9.51367H2Z" fill="currentColor"/>
<path d="M6.75 13.0137C7.16421 13.0137 7.5 12.6779 7.5 12.2637C7.5 11.8495 7.16421 11.5137 6.75 11.5137C6.33579 11.5137 6 11.8495 6 12.2637C6 12.6779 6.33579 13.0137 6.75 13.0137Z" fill="currentColor"/>
<path d="M5.25 11.0137C5.66421 11.0137 6 10.6779 6 10.2637C6 9.84946 5.66421 9.51367 5.25 9.51367C4.83579 9.51367 4.5 9.84946 4.5 10.2637C4.5 10.6779 4.83579 11.0137 5.25 11.0137Z" fill="currentColor"/>
<path d="M8.25 11.0137C8.66421 11.0137 9 10.6779 9 10.2637C9 9.84946 8.66421 9.51367 8.25 9.51367C7.83579 9.51367 7.5 9.84946 7.5 10.2637C7.5 10.6779 7.83579 11.0137 8.25 11.0137Z" fill="currentColor"/>
<path d="M7.79319 7.0136L6.00011 8.80668L6.70701 9.51357L8.50009 7.72049L7.79319 7.0136Z" fill="currentColor"/>
<path d="M10.7932 7.01358L9.00013 8.80666L9.70703 9.51355L11.5001 7.72047L10.7932 7.01358Z" fill="currentColor"/>
</svg>
