<svg viewBox="0 0 16 16" fill="none" xmlns="http://www.w3.org/2000/svg">
<rect width="16" height="16" fill="white" fill-opacity="0.01" style="mix-blend-mode:multiply"/>
<path d="M5 3H3V5H5V3Z" fill="currentColor"/>
<path d="M7 5H5V7H7V5Z" fill="currentColor"/>
<path d="M9 3H7V5H9V3Z" fill="currentColor"/>
<path d="M13 3H11V5H13V3Z" fill="currentColor"/>
<path d="M5 7H3V9H5V7Z" fill="currentColor"/>
<path d="M9 7H7V9H9V7Z" fill="currentColor"/>
<path d="M13 7H11V9H13V7Z" fill="currentColor"/>
<path d="M5 11H3V13H5V11Z" fill="currentColor"/>
<path d="M9 11H7V13H9V11Z" fill="currentColor"/>
<path d="M13 11H11V13H13V11Z" fill="currentColor"/>
<path d="M11 5H9V7H11V5Z" fill="currentColor"/>
<path d="M7 9H5V11H7V9Z" fill="currentColor"/>
<path d="M11 9H9V11H11V9Z" fill="currentColor"/>
</svg>
