<svg viewBox="0 0 16 17" fill="none" xmlns="http://www.w3.org/2000/svg">
<rect width="16" height="16" transform="translate(0 0.513672)" fill="white" fill-opacity="0.01" style="mix-blend-mode:multiply"/>
<path d="M10.5 12.5137H6V13.5137H10.5V12.5137Z" fill="currentColor"/>
<path d="M9.5 14.5137H6.5V15.5137H9.5V14.5137Z" fill="currentColor"/>
<path d="M4.3916 10.001L5.10045 9.29197C4.72107 8.94054 4.42529 8.50854 4.23485 8.02774C4.04441 7.54694 3.96416 7.02957 4 6.51367C3.99907 5.72984 4.22875 4.96306 4.66043 4.3088C5.0921 3.65455 5.70671 3.14174 6.4277 2.83423C7.14869 2.52672 7.94421 2.4381 8.7152 2.57941C9.48619 2.72072 10.1986 3.0857 10.7636 3.62892L11.4705 2.92212C10.7656 2.23883 9.87508 1.77841 8.91007 1.59838C7.94506 1.41836 6.94839 1.52672 6.04462 1.90993C5.14085 2.29314 4.37005 2.9342 3.82855 3.75299C3.28705 4.57179 2.99886 5.53201 3 6.51367C2.96521 7.16109 3.07165 7.80832 3.31194 8.4105C3.55224 9.01267 3.92064 9.55538 4.3916 10.001Z" fill="currentColor"/>
<path d="M15 2.22072L14.2929 1.51367L1 14.8066L1.70705 15.5137L11.8303 5.39037C11.9421 5.75436 11.9992 6.13291 12 6.51367C12.034 7.10199 11.9231 7.68966 11.6771 8.22514C11.4311 8.76062 11.0574 9.22755 10.5889 9.58497C10.0534 10.0811 9.5 10.5942 9.5 11.5137H10.5C10.5 11.054 10.7632 10.7887 11.2676 10.3208C11.8369 9.86849 12.2908 9.28755 12.5919 8.62572C12.8931 7.96389 13.033 7.24005 13 6.51367C12.9981 5.85922 12.8662 5.21166 12.6118 4.60867L15 2.22072Z" fill="currentColor"/>
</svg>
