<svg viewBox="0 0 16 17" fill="none" xmlns="http://www.w3.org/2000/svg">
<rect width="16" height="16" transform="translate(0 0.513672)" fill="white" fill-opacity="0.01" style="mix-blend-mode:multiply"/>
<path d="M12.4542 14.9837L8.41589 7.75762C8.37451 7.68366 8.31416 7.62207 8.24106 7.5792C8.16795 7.53633 8.08474 7.51373 7.99999 7.51373C7.91524 7.51373 7.83202 7.53633 7.75892 7.5792C7.68581 7.62207 7.62546 7.68366 7.58409 7.75762L3.54579 14.9837C3.51545 15.0379 3.49983 15.0991 3.50046 15.1612C3.50109 15.2234 3.51796 15.2842 3.54939 15.3378C3.58081 15.3914 3.62571 15.4358 3.67962 15.4667C3.73353 15.4975 3.79457 15.5137 3.85669 15.5137H12.1433C12.2055 15.5138 12.2665 15.4975 12.3204 15.4667C12.3743 15.4358 12.4192 15.3914 12.4506 15.3378C12.4821 15.2842 12.4989 15.2233 12.4996 15.1612C12.5002 15.0991 12.4845 15.0379 12.4542 14.9837ZM7.56249 10.0137H8.43749V12.7637H7.56249V10.0137ZM7.99999 14.5137C7.9011 14.5137 7.80443 14.4844 7.7222 14.4295C7.63998 14.3745 7.57589 14.2964 7.53805 14.2051C7.5002 14.1137 7.4903 14.0132 7.5096 13.9162C7.52889 13.8192 7.57651 13.7301 7.64643 13.6602C7.71636 13.5902 7.80545 13.5426 7.90244 13.5233C7.99943 13.504 8.09997 13.5139 8.19133 13.5518C8.28269 13.5896 8.36078 13.6537 8.41572 13.7359C8.47066 13.8182 8.49999 13.9148 8.49999 14.0137C8.49999 14.1463 8.44731 14.2735 8.35354 14.3673C8.25977 14.461 8.1326 14.5137 7.99999 14.5137Z" fill="currentColor"/>
<path d="M12.4004 5.08182C12.1873 4.07268 11.6339 3.16744 10.8328 2.51781C10.0317 1.86819 9.03163 1.51367 8.00024 1.51367C6.96885 1.51367 5.9688 1.86819 5.1677 2.51781C4.36661 3.16744 3.81315 4.07268 3.60009 5.08182C2.82737 5.23878 2.1382 5.67161 1.66125 6.2995C1.18429 6.92739 0.952169 7.7074 1.00822 8.4939C1.06426 9.28041 1.40465 10.0196 1.96582 10.5735C2.52699 11.1274 3.27057 11.4582 4.05774 11.504L4.61084 10.5137H4.24999C3.81734 10.5157 3.39339 10.3923 3.02935 10.1585C2.66532 9.9247 2.37678 9.59047 2.19861 9.19621C2.02044 8.80195 1.96025 8.36453 2.02533 7.93681C2.09041 7.50908 2.27797 7.10935 2.56534 6.78592L5.21384 9.43412L5.72034 8.52737L3.39034 6.19707C3.60676 6.10295 3.83692 6.04425 4.07199 6.02322L4.47974 5.99127L4.52929 5.58527C4.54114 5.48807 4.55834 5.39287 4.57789 5.29862L6.46789 7.18902L6.97479 6.28152L4.96799 4.27472C5.21559 3.84268 5.55228 3.46826 5.95569 3.17632L12.943 10.1637C12.5866 10.3912 12.1728 10.5125 11.75 10.5137H11.388L11.9415 11.5037C12.7287 11.4581 13.4724 11.1275 14.0336 10.5736C14.5949 10.0198 14.9354 9.28067 14.9916 8.49418C15.0478 7.70768 14.8158 6.92762 14.339 6.29964C13.8622 5.67166 13.1731 5.23894 12.4004 5.08182ZM13.6501 9.45682L6.89114 2.69782C7.38246 2.5315 7.90471 2.4769 8.41981 2.53799C8.93492 2.59908 9.4299 2.77433 9.86869 3.05097C10.3075 3.3276 10.679 3.69865 10.9562 4.13707C11.2335 4.5755 11.4094 5.07025 11.4711 5.58527L11.5204 5.99127L11.9281 6.02322C12.4911 6.06991 13.0162 6.32588 13.3997 6.74064C13.7832 7.1554 13.9974 7.69882 14 8.26372C13.9988 8.68656 13.8775 9.10035 13.6501 9.45682Z" fill="currentColor"/>
</svg>
