<svg viewBox="0 0 16 16" fill="none" xmlns="http://www.w3.org/2000/svg">
<rect width="16" height="16" fill="white" fill-opacity="0.01" style="mix-blend-mode:multiply"/>
<path d="M8.00024 13.9997H2.00024C1.86682 14.0078 1.73323 13.9874 1.60827 13.94C1.48331 13.8926 1.36983 13.8192 1.27532 13.7247C1.18081 13.6302 1.10743 13.5167 1.06001 13.3917C1.01259 13.2668 0.992218 13.1332 1.00024 12.9998V6.99975C0.992218 6.86634 1.01259 6.73274 1.06001 6.60778C1.10743 6.48282 1.18081 6.36934 1.27532 6.27483C1.36983 6.18032 1.48331 6.10694 1.60827 6.05952C1.73323 6.0121 1.86682 5.99173 2.00024 5.99975H8.00024C8.13365 5.99173 8.26725 6.0121 8.39221 6.05952C8.51717 6.10694 8.63065 6.18032 8.72516 6.27483C8.81966 6.36934 8.89305 6.48282 8.94047 6.60778C8.98789 6.73274 9.00826 6.86634 9.00024 6.99975V12.9998C9.00826 13.1332 8.98789 13.2668 8.94047 13.3917C8.89305 13.5167 8.81966 13.6302 8.72516 13.7247C8.63065 13.8192 8.51717 13.8926 8.39221 13.94C8.26725 13.9874 8.13365 14.0078 8.00024 13.9997ZM2.00024 6.99975V12.9998H8.00024V6.99975H2.00024Z" fill="currentColor"/>
<path d="M11.0002 9.49975H10.0002V4.99975H5.00024V3.99975H10.0002C10.1337 3.99173 10.2672 4.0121 10.3922 4.05952C10.5172 4.10694 10.6306 4.18032 10.7252 4.27483C10.8197 4.36934 10.8931 4.48282 10.9405 4.60778C10.9879 4.73274 11.0083 4.86634 11.0002 4.99975V9.49975Z" fill="currentColor"/>
<path d="M13.0002 6.99975H12.0002V2.99975H8.00024V1.99975H12.0002C12.1337 1.99173 12.2672 2.0121 12.3922 2.05952C12.5172 2.10694 12.6306 2.18032 12.7252 2.27483C12.8197 2.36934 12.8931 2.48282 12.9405 2.60778C12.9879 2.73274 13.0083 2.86634 13.0002 2.99975V6.99975Z" fill="currentColor"/>
<path d="M12.0002 8.49975V9.49975H13.4002L11.0002 12.1997V10.9998H10.0002V13.9998H13.0002V12.9998H11.6002L14.0002 10.2998V11.4998H15.0002V8.49975H12.0002Z" fill="currentColor"/>
</svg>
