<svg viewBox="0 0 16 16" fill="none" xmlns="http://www.w3.org/2000/svg">
<rect width="16" height="16" fill="white" fill-opacity="0.01" style="mix-blend-mode:multiply"/>
<path d="M14.4141 1.58642C14.0332 1.22257 13.5267 1.01953 13 1.01953C12.4733 1.01953 11.9668 1.22257 11.586 1.58642L2.02501 11.1465C1.69903 11.4707 1.44059 11.8563 1.26465 12.2811C1.08871 12.7059 0.998764 13.1613 1.00001 13.6211V15.0005H2.37796C2.83779 15.0018 3.29332 14.9119 3.71817 14.736C4.14301 14.56 4.52872 14.3015 4.85296 13.9755L14.4141 4.41477C14.5998 4.22909 14.7472 4.00863 14.8477 3.76598C14.9483 3.52333 15 3.26325 15 3.0006C15 2.73794 14.9483 2.47786 14.8477 2.23521C14.7472 1.99257 14.5998 1.7721 14.4141 1.58642V1.58642ZM5.45501 9.13047L6.86931 10.5448L5.80861 11.6055L4.39431 10.1914L5.45501 9.13047ZM4.14576 13.2683C3.91416 13.5012 3.63866 13.6858 3.33522 13.8115C3.03177 13.9372 2.70641 14.0014 2.37796 14.0005H2.00001V13.6211C1.99914 13.2927 2.0634 12.9674 2.18908 12.664C2.31476 12.3606 2.49937 12.0851 2.73221 11.8535L3.68721 10.8985L5.10151 12.3126L4.14576 13.2683ZM13.7071 3.70752L7.57641 9.83787L6.16211 8.42357L12.293 2.29357C12.4834 2.11166 12.7366 2.01015 13 2.01015C13.2634 2.01015 13.5166 2.11166 13.7071 2.29357C13.7999 2.38641 13.8736 2.49664 13.9239 2.61795C13.9741 2.73927 14 2.8693 14 3.00062C14 3.13194 13.9741 3.26197 13.9239 3.38329C13.8736 3.5046 13.7999 3.61483 13.7071 3.70767V3.70752Z" fill="currentColor"/>
</svg>
