<svg viewBox="0 0 16 17" fill="none" xmlns="http://www.w3.org/2000/svg">
<rect width="16" height="16" transform="translate(0 0.513672)" fill="white" fill-opacity="0.01" style="mix-blend-mode:multiply"/>
<path d="M15.5 8.01367H13.5V9.01367H15.5V8.01367Z" fill="currentColor"/>
<path d="M13 2.80703L11.5 4.30701L12.207 5.01405L13.707 3.51406L13 2.80703Z" fill="currentColor"/>
<path d="M8.5 1.01367H7.5V3.01367H8.5V1.01367Z" fill="currentColor"/>
<path d="M3.79295 12.014L2.29296 13.514L3 14.221L4.49998 12.7211L3.79295 12.014Z" fill="currentColor"/>
<path d="M3.00001 2.80697L2.29298 3.51401L3.79296 5.01399L4.5 4.30696L3.00001 2.80697Z" fill="currentColor"/>
<path d="M2.5 8.01367H0.5V9.01367H2.5V8.01367Z" fill="currentColor"/>
<path d="M13.3969 10.6846C13.2415 10.0646 12.9183 9.49946 12.4629 9.05102C12.4866 8.87287 12.499 8.69339 12.5 8.51367C12.5021 7.75105 12.3103 7.00042 11.9426 6.33226C11.575 5.6641 11.0436 5.10033 10.3983 4.69389C9.753 4.28745 9.015 4.05168 8.25359 4.0087C7.49218 3.96573 6.73234 4.11697 6.04541 4.44822C5.35849 4.77947 4.76701 5.27986 4.32653 5.90241C3.88605 6.52497 3.61102 7.24925 3.52725 8.00726C3.44348 8.76526 3.55372 9.53213 3.84764 10.2358C4.14155 10.9395 4.60948 11.557 5.2075 12.0303C5.04194 12.4099 4.97373 12.8248 5.00905 13.2374C5.04437 13.65 5.1821 14.0473 5.40977 14.3932C5.63744 14.7392 5.94783 15.0228 6.31283 15.2185C6.67782 15.4141 7.08588 15.5156 7.5 15.5137H12.5C13.0837 15.5143 13.6492 15.3105 14.0982 14.9376C14.5472 14.5647 14.8515 14.0462 14.9581 13.4724C15.0646 12.8985 14.9669 12.3054 14.6817 11.7962C14.3965 11.2869 13.9419 10.8936 13.3969 10.6846ZM4.5 8.51367C4.49936 7.59845 4.85748 6.71943 5.49751 6.06521C6.13753 5.411 7.00849 5.0337 7.92351 5.01428C8.83853 4.99485 9.72471 5.33484 10.3919 5.96131C11.0591 6.58777 11.4542 7.45079 11.4924 8.36522C11.0277 8.13738 10.5176 8.01722 10 8.01367C9.2174 8.01787 8.45852 8.28274 7.84329 8.76644C7.22806 9.25014 6.79157 9.92507 6.6028 10.6846C6.29701 10.8035 6.01771 10.9816 5.7809 11.2087C5.38112 10.8824 5.05883 10.4713 4.83731 10.0053C4.61579 9.53918 4.50058 9.02971 4.5 8.51367ZM12.5 14.5137H7.5C7.13279 14.5143 6.77814 14.38 6.50348 14.1363C6.22883 13.8925 6.05332 13.5564 6.01034 13.1917C5.96737 12.827 6.05991 12.4592 6.27037 12.1583C6.48083 11.8574 6.79454 11.6443 7.15185 11.5596L7.4812 11.481L7.5305 11.146C7.61779 10.5534 7.91527 10.0119 8.36863 9.62046C8.82199 9.22899 9.40101 9.0136 10 9.0136C10.599 9.0136 11.178 9.22899 11.6314 9.62046C12.0847 10.0119 12.3822 10.5534 12.4695 11.146L12.5188 11.4807L12.8482 11.5593C13.2057 11.6438 13.5197 11.8568 13.7304 12.1578C13.9411 12.4588 14.0337 12.8268 13.9907 13.1917C13.9477 13.5565 13.7721 13.8929 13.4972 14.1366C13.2223 14.3804 12.8674 14.5146 12.5 14.5137Z" fill="currentColor"/>
</svg>
