<svg viewBox="0 0 16 17" fill="none" xmlns="http://www.w3.org/2000/svg">
<rect width="16" height="16" transform="translate(0 0.513672)" fill="white" fill-opacity="0.01" style="mix-blend-mode:multiply"/>
<path d="M4 5.01367C3.60444 5.01367 3.21776 4.89637 2.88886 4.67661C2.55996 4.45685 2.30362 4.14449 2.15224 3.77904C2.00087 3.41359 1.96126 3.01145 2.03843 2.62349C2.1156 2.23553 2.30608 1.87916 2.58579 1.59946C2.86549 1.31975 3.22186 1.12927 3.60982 1.0521C3.99778 0.974932 4.39991 1.01454 4.76537 1.16591C5.13082 1.31729 5.44318 1.57363 5.66294 1.90253C5.8827 2.23143 6 2.61811 6 3.01367C6 3.54411 5.78929 4.05281 5.41421 4.42789C5.03914 4.80296 4.53043 5.01367 4 5.01367ZM4 2.01367C3.80222 2.01367 3.60888 2.07232 3.44443 2.1822C3.27998 2.29208 3.15181 2.44826 3.07612 2.63099C3.00043 2.81372 2.98063 3.01478 3.01921 3.20876C3.0578 3.40274 3.15304 3.58093 3.29289 3.72078C3.43275 3.86063 3.61093 3.95587 3.80491 3.99446C3.99889 4.03304 4.19996 4.01324 4.38268 3.93755C4.56541 3.86186 4.72159 3.73369 4.83147 3.56924C4.94135 3.40479 5 3.21145 5 3.01367C5 2.74846 4.89464 2.4941 4.70711 2.30657C4.51957 2.11903 4.26522 2.01367 4 2.01367Z" fill="currentColor"/>
<path d="M12 5.01367C11.6044 5.01367 11.2178 4.89637 10.8889 4.67661C10.56 4.45685 10.3036 4.14449 10.1522 3.77904C10.0009 3.41359 9.96126 3.01145 10.0384 2.62349C10.1156 2.23553 10.3061 1.87916 10.5858 1.59946C10.8655 1.31975 11.2219 1.12927 11.6098 1.0521C11.9978 0.974932 12.3999 1.01454 12.7654 1.16591C13.1308 1.31729 13.4432 1.57363 13.6629 1.90253C13.8827 2.23143 14 2.61811 14 3.01367C14 3.54411 13.7893 4.05281 13.4142 4.42789C13.0391 4.80296 12.5304 5.01367 12 5.01367ZM12 2.01367C11.8022 2.01367 11.6089 2.07232 11.4444 2.1822C11.28 2.29208 11.1518 2.44826 11.0761 2.63099C11.0004 2.81372 10.9806 3.01478 11.0192 3.20876C11.0578 3.40274 11.153 3.58093 11.2929 3.72078C11.4327 3.86063 11.6109 3.95587 11.8049 3.99446C11.9989 4.03304 12.2 4.01324 12.3827 3.93755C12.5654 3.86186 12.7216 3.73369 12.8315 3.56924C12.9414 3.40479 13 3.21145 13 3.01367C13 2.74846 12.8946 2.4941 12.7071 2.30657C12.5196 2.11903 12.2652 2.01367 12 2.01367Z" fill="currentColor"/>
<path d="M13 15.5137H11C10.7348 15.5137 10.4804 15.4083 10.2929 15.2208C10.1054 15.0332 10 14.7789 10 14.5137V11.0137H11V14.5137H13V10.0137H14V7.01367C14 6.88106 13.9473 6.75389 13.8536 6.66012C13.7598 6.56635 13.6326 6.51367 13.5 6.51367H10.29L8 10.5137L5.71 6.51367H2.5C2.36739 6.51367 2.24021 6.56635 2.14645 6.66012C2.05268 6.75389 2 6.88106 2 7.01367V10.0137H3V14.5137H5V11.0137H6V14.5137C6 14.7789 5.89464 15.0332 5.70711 15.2208C5.51957 15.4083 5.26522 15.5137 5 15.5137H3C2.73478 15.5137 2.48043 15.4083 2.29289 15.2208C2.10536 15.0332 2 14.7789 2 14.5137V11.0137C1.73478 11.0137 1.48043 10.9083 1.29289 10.7208C1.10536 10.5332 1 10.2789 1 10.0137V7.01367C1 6.61585 1.15804 6.23432 1.43934 5.95301C1.72064 5.67171 2.10218 5.51367 2.5 5.51367H6.29L8 8.51367L9.71 5.51367H13.5C13.8978 5.51367 14.2794 5.67171 14.5607 5.95301C14.842 6.23432 15 6.61585 15 7.01367V10.0137C15 10.2789 14.8946 10.5332 14.7071 10.7208C14.5196 10.9083 14.2652 11.0137 14 11.0137V14.5137C14 14.7789 13.8946 15.0332 13.7071 15.2208C13.5196 15.4083 13.2652 15.5137 13 15.5137Z" fill="currentColor"/>
</svg>
