<svg viewBox="0 0 16 16" fill="none" xmlns="http://www.w3.org/2000/svg">
<rect width="16" height="16" fill="white" fill-opacity="0.01" style="mix-blend-mode:multiply"/>
<path d="M13 6C12.0708 6 11.2947 6.6399 11.071 7.5H9.70715C9.43995 7.5 9.18885 7.604 9 7.79295L6.29285 10.5H1V11.5H6.29285C6.56005 11.5 6.81115 11.396 7 11.2071L9.70715 8.5H11.071C11.2947 9.3601 12.0708 10 13 10C14.1028 10 15 9.1028 15 8C15 6.8972 14.1028 6 13 6ZM13 9C12.4486 9 12 8.55125 12 8C12 7.44875 12.4486 7 13 7C13.5514 7 14 7.44875 14 8C14 8.55125 13.5514 9 13 9Z" fill="currentColor"/>
<path d="M8.08585 7.29295L6.2929 5.5H1V4.5H6.29285C6.56005 4.5 6.81115 4.604 7 4.79295L8.79295 6.5859L8.08585 7.29295Z" fill="currentColor"/>
</svg>
