<svg viewBox="0 0 16 17" fill="none" xmlns="http://www.w3.org/2000/svg">
<rect width="16" height="16" transform="translate(0 0.513672)" fill="white" fill-opacity="0.01" style="mix-blend-mode:multiply"/>
<path d="M15.0001 10.0137C15.001 9.50859 14.8481 9.01521 14.5617 8.59915C14.2754 8.1831 13.8691 7.86409 13.397 7.68457C13.2294 6.98735 12.8509 6.3588 12.3129 5.88461C11.775 5.41042 11.1039 5.11368 10.3912 5.03486C9.67847 4.95603 8.95876 5.09894 8.33023 5.44412C7.70169 5.7893 7.19491 6.31993 6.87899 6.96367C6.42714 5.57579 6.45026 4.07696 6.94469 2.70367C6.97381 2.62827 6.9845 2.547 6.97587 2.46663C6.96724 2.38626 6.93953 2.30911 6.89506 2.24161C6.85059 2.17411 6.79064 2.11821 6.7202 2.07857C6.64976 2.03892 6.57086 2.01667 6.49009 2.01367C6.46081 2.01367 6.4316 2.01628 6.40279 2.02147C4.81068 2.30426 3.37952 3.16617 2.38496 4.44118C1.39041 5.71619 0.902817 7.31412 1.0161 8.92717C1.12938 10.5402 1.83552 12.0543 2.99851 13.1778C4.1615 14.3013 5.69908 14.9547 7.31509 15.0122C7.39709 15.0154 7.47914 15.0122 7.56044 15.0122C8.55323 15.0117 9.53278 14.7844 10.4244 14.3478C11.3161 13.9112 12.0962 13.2768 12.7054 12.4929C13.3291 12.4427 13.9112 12.1599 14.3362 11.7007C14.7612 11.2415 14.9982 10.6394 15.0001 10.0137V10.0137ZM7.35179 14.0125C6.05612 13.9666 4.81744 13.4684 3.85089 12.6043C2.88433 11.7402 2.25095 10.5649 2.06076 9.28247C1.87057 8.00002 2.13557 6.69147 2.80975 5.58407C3.48393 4.47667 4.5247 3.64039 5.75129 3.22047C5.39263 4.78706 5.54044 6.42706 6.17344 7.90427C5.71351 8.19135 5.35967 8.62049 5.1655 9.12669C4.97133 9.63289 4.94741 10.1886 5.09737 10.7096C5.24732 11.2306 5.56298 11.6886 5.99654 12.0141C6.43009 12.3396 6.95792 12.515 7.50009 12.5137H11.3387C10.3142 13.4731 8.96421 14.0086 7.56064 14.0125C7.49144 14.0125 7.42149 14.0149 7.35179 14.0125ZM12.5001 11.5137H7.50009C7.13287 11.5143 6.77822 11.38 6.50357 11.1363C6.22891 10.8925 6.05341 10.5564 6.01043 10.1917C5.96745 9.82698 6.05999 9.45921 6.27046 9.15829C6.48092 8.85738 6.79463 8.6443 7.15194 8.55957L7.48129 8.48097L7.53059 8.14597C7.61791 7.55338 7.91541 7.01195 8.3688 6.62051C8.82218 6.22906 9.40121 6.01369 10.0002 6.01373C10.5992 6.01376 11.1782 6.22918 11.6315 6.62067C12.0849 7.01216 12.3823 7.55362 12.4696 8.14622L12.5189 8.48097L12.8482 8.55957C13.2055 8.6443 13.5193 8.85738 13.7297 9.15829C13.9402 9.45921 14.0327 9.82698 13.9897 10.1917C13.9468 10.5564 13.7713 10.8925 13.4966 11.1363C13.222 11.38 12.8673 11.5143 12.5001 11.5137V11.5137Z" fill="currentColor"/>
</svg>
