<svg viewBox="0 0 16 16" fill="none" xmlns="http://www.w3.org/2000/svg">
<rect width="16" height="16" fill="white" fill-opacity="0.01" style="mix-blend-mode:multiply"/>
<path d="M13 9C12.0708 9 11.2947 9.6399 11.071 10.5H1V11.5H11.071C11.2947 12.3601 12.0708 13 13 13C14.1028 13 15 12.1028 15 11C15 9.8972 14.1028 9 13 9ZM13 12C12.4486 12 12 11.5512 12 11C12 10.4488 12.4486 10 13 10C13.5514 10 14 10.4488 14 11C14 11.5512 13.5514 12 13 12Z" fill="currentColor"/>
<path d="M13 3C12.0708 3 11.2947 3.6399 11.071 4.5H1V5.5H11.071C11.2947 6.3601 12.0708 7 13 7C14.1028 7 15 6.1028 15 5C15 3.8972 14.1028 3 13 3ZM13 6C12.4486 6 12 5.55125 12 5C12 4.44875 12.4486 4 13 4C13.5514 4 14 4.44875 14 5C14 5.55125 13.5514 6 13 6Z" fill="currentColor"/>
</svg>
