<svg viewBox="0 0 16 17" fill="none" xmlns="http://www.w3.org/2000/svg">
<rect width="16" height="16" transform="translate(0 0.513672)" fill="white" fill-opacity="0.01" style="mix-blend-mode:multiply"/>
<path d="M10.5 1.51367C9.7973 1.51349 9.10433 1.67792 8.47663 1.99378C7.84892 2.30964 7.30393 2.76815 6.88534 3.33256C6.46674 3.89697 6.18618 4.55159 6.06613 5.24396C5.94609 5.93632 5.9899 6.64719 6.19405 7.31957L1 12.5137V15.5137H4L9.19405 10.3196C9.81302 10.5075 10.4652 10.5598 11.1062 10.4728C11.7472 10.3859 12.3619 10.1618 12.9085 9.81578C13.455 9.46977 13.9206 9.00999 14.2733 8.46778C14.6261 7.92558 14.8578 7.31369 14.9527 6.67382C15.0476 6.03395 15.0035 5.38114 14.8232 4.75989C14.643 4.13864 14.331 3.56354 13.9084 3.0738C13.4858 2.58406 12.9625 2.19119 12.3744 1.92196C11.7862 1.65273 11.1469 1.51347 10.5 1.51367ZM10.5 9.51367C10.1557 9.51346 9.81334 9.46255 9.4839 9.36257L8.9105 9.18867L6.89635 11.2029L6.20705 10.5137L5.5 11.2207L6.18935 11.91L5.3964 12.703L4.70705 12.0137L4 12.7207L4.68935 13.41L3.5858 14.5137H2V12.9279L7.32475 7.60302L7.1511 7.02967C6.93739 6.32516 6.95127 5.57121 7.19078 4.87504C7.43028 4.17888 7.88321 3.57597 8.48514 3.15207C9.08706 2.72817 9.80733 2.50487 10.5435 2.51394C11.2796 2.523 11.9942 2.76397 12.5855 3.20256C13.1768 3.64115 13.6147 4.25503 13.837 4.95688C14.0593 5.65873 14.0546 6.4128 13.8236 7.11184C13.5927 7.81087 13.1471 8.41926 12.5504 8.85047C11.9537 9.28168 11.2362 9.51375 10.5 9.51367Z" fill="currentColor"/>
<path d="M11 6.51367C11.5523 6.51367 12 6.06596 12 5.51367C12 4.96139 11.5523 4.51367 11 4.51367C10.4477 4.51367 10 4.96139 10 5.51367C10 6.06596 10.4477 6.51367 11 6.51367Z" fill="currentColor"/>
</svg>
