<svg viewBox="0 0 16 17" fill="none" xmlns="http://www.w3.org/2000/svg">
<g clip-path="url(#clip0_1961_11353)">
<rect width="16" height="16" transform="translate(0 0.513672)" fill="white" fill-opacity="0.01" style="mix-blend-mode:multiply"/>
<path d="M5.2501 5.01367C4.90398 5.01367 4.56564 4.91104 4.27785 4.71874C3.99007 4.52645 3.76577 4.25314 3.63331 3.93337C3.50086 3.6136 3.4662 3.26173 3.53373 2.92226C3.60125 2.5828 3.76792 2.27098 4.01266 2.02624C4.25741 1.78149 4.56923 1.61482 4.90869 1.5473C5.24816 1.47977 5.60003 1.51443 5.9198 1.64688C6.23957 1.77934 6.51288 2.00364 6.70517 2.29142C6.89747 2.57921 7.0001 2.91756 7.0001 3.26367C6.99955 3.72763 6.81499 4.17243 6.48692 4.5005C6.15886 4.82856 5.71406 5.01312 5.2501 5.01367ZM5.2501 2.51367C5.10177 2.51367 4.95676 2.55766 4.83342 2.64007C4.71009 2.72248 4.61396 2.83962 4.55719 2.97666C4.50043 3.1137 4.48557 3.2645 4.51451 3.40999C4.54345 3.55548 4.61488 3.68911 4.71977 3.794C4.82466 3.89889 4.9583 3.97032 5.10378 3.99926C5.24927 4.0282 5.40007 4.01335 5.53711 3.95658C5.67416 3.89982 5.79129 3.80369 5.8737 3.68035C5.95612 3.55701 6.0001 3.41201 6.0001 3.26367C5.99988 3.06483 5.92079 2.87419 5.78018 2.73359C5.63958 2.59299 5.44894 2.5139 5.2501 2.51367Z" fill="currentColor"/>
<path d="M11.2371 16.1702L9.6701 12.5137H6.11935C5.67863 12.5132 5.25037 12.3674 4.9009 12.0988C4.55143 11.8303 4.30025 11.454 4.18625 11.0283L3.36935 7.96532C3.23905 7.46674 3.31147 6.93684 3.57077 6.49151C3.83008 6.04617 4.25517 5.72163 4.7531 5.58884C5.25103 5.45605 5.78128 5.52583 6.2279 5.78291C6.67452 6.03999 7.00118 6.46346 7.13645 6.96072L7.5505 8.51367H10.5001V9.51367H6.78195L6.17065 7.21827C6.10169 6.97944 5.94186 6.77716 5.72546 6.65482C5.50906 6.53248 5.25333 6.49984 5.01314 6.5639C4.77294 6.62795 4.56743 6.78361 4.44069 6.99746C4.31395 7.21131 4.27608 7.46632 4.3352 7.70777L5.1521 10.7705C5.20916 10.9835 5.33485 11.1718 5.50971 11.3061C5.68457 11.4405 5.89884 11.5134 6.11935 11.5137H10.3294L12.1565 15.7764L11.2371 16.1702Z" fill="currentColor"/>
<path d="M15.0001 3.51367H13.0001V1.51367H12.0001V3.51367H10.0001V4.51367H12.0001V6.51367H13.0001V4.51367H15.0001V3.51367Z" fill="currentColor"/>
<path d="M9.0001 14.5137H3.8839C3.66359 14.5135 3.4495 14.4406 3.2748 14.3064C3.1001 14.1721 2.97455 13.984 2.9176 13.7712L1.0166 6.64247L1.9829 6.38487L3.8839 13.5137H9.0001V14.5137Z" fill="currentColor"/>
</g>
<defs>
<clipPath id="clip0_1961_11353">
<rect width="16" height="16" fill="white" transform="translate(0 0.513672)"/>
</clipPath>
</defs>
</svg>
