<svg viewBox="0 0 16 17" fill="none" xmlns="http://www.w3.org/2000/svg">
<rect width="16" height="16" transform="translate(0 0.513672)" fill="white" fill-opacity="0.01" style="mix-blend-mode:multiply"/>
<path d="M13 8.51367H8.73415L6.23415 5.51367H2.5C2.10231 5.51411 1.72103 5.67229 1.43982 5.9535C1.15861 6.2347 1.00044 6.61598 1 7.01367V10.0137C1.0003 10.2788 1.10576 10.533 1.29323 10.7204C1.4807 10.9079 1.73488 11.0134 2 11.0137V14.5137C2.0003 14.7788 2.10576 15.033 2.29323 15.2204C2.4807 15.4079 2.73488 15.5134 3 15.5137H5C5.26512 15.5134 5.5193 15.4079 5.70677 15.2204C5.89424 15.033 5.9997 14.7788 6 14.5137V11.0137H5V14.5137H3V10.0137H2V7.01367C2.00012 6.8811 2.05284 6.75399 2.14658 6.66025C2.24032 6.56651 2.36743 6.51379 2.5 6.51367H5.76585L8.26585 9.51367H13C13.1326 9.51379 13.2597 9.56651 13.3534 9.66025C13.4472 9.75399 13.4999 9.8811 13.5 10.0137V11.5137H12.5V14.5137H11V11.5137H10V14.5137C10.0003 14.7788 10.1058 15.033 10.2932 15.2204C10.4807 15.4079 10.7349 15.5134 11 15.5137H12.5C12.7651 15.5134 13.0193 15.4079 13.2068 15.2204C13.3942 15.033 13.4997 14.7788 13.5 14.5137V12.5137C13.7651 12.5134 14.0193 12.4079 14.2068 12.2204C14.3942 12.033 14.4997 11.7788 14.5 11.5137V10.0137C14.4996 9.61598 14.3414 9.2347 14.0602 8.9535C13.779 8.67229 13.3977 8.51411 13 8.51367Z" fill="currentColor"/>
<path d="M11.75 8.01367C11.4039 8.01367 11.0655 7.91104 10.7778 7.71874C10.49 7.52645 10.2657 7.25314 10.1332 6.93337C10.0008 6.6136 9.9661 6.26173 10.0336 5.92226C10.1011 5.5828 10.2678 5.27098 10.5126 5.02624C10.7573 4.78149 11.0691 4.61482 11.4086 4.5473C11.7481 4.47977 12.0999 4.51443 12.4197 4.64688C12.7395 4.77934 13.0128 5.00364 13.2051 5.29142C13.3974 5.57921 13.5 5.91756 13.5 6.26367C13.4994 6.72763 13.3149 7.17243 12.9868 7.5005C12.6588 7.82856 12.214 8.01312 11.75 8.01367ZM11.75 5.51367C11.6017 5.51367 11.4567 5.55766 11.3333 5.64007C11.21 5.72248 11.1139 5.83962 11.0571 5.97666C11.0003 6.1137 10.9855 6.26451 11.0144 6.40999C11.0433 6.55548 11.1148 6.68911 11.2197 6.794C11.3246 6.89889 11.4582 6.97032 11.6037 6.99926C11.7492 7.0282 11.9 7.01335 12.037 6.95658C12.1741 6.89982 12.2912 6.80369 12.3736 6.68035C12.456 6.55701 12.5 6.41201 12.5 6.26367C12.4998 6.06483 12.4207 5.87419 12.2801 5.73359C12.1395 5.59299 11.9488 5.5139 11.75 5.51367Z" fill="currentColor"/>
<path d="M4 5.01367C3.60444 5.01367 3.21776 4.89637 2.88886 4.67661C2.55996 4.45685 2.30362 4.14449 2.15224 3.77904C2.00087 3.41359 1.96126 3.01145 2.03843 2.62349C2.1156 2.23553 2.30608 1.87916 2.58579 1.59946C2.86549 1.31975 3.22186 1.12927 3.60982 1.0521C3.99778 0.974932 4.39991 1.01454 4.76537 1.16591C5.13082 1.31729 5.44318 1.57363 5.66294 1.90253C5.8827 2.23143 6 2.61811 6 3.01367C5.99944 3.54394 5.78855 4.05232 5.4136 4.42727C5.03865 4.80222 4.53026 5.01312 4 5.01367ZM4 2.01367C3.80222 2.01367 3.60888 2.07232 3.44443 2.1822C3.27998 2.29208 3.15181 2.44826 3.07612 2.63099C3.00043 2.81372 2.98063 3.01478 3.01921 3.20876C3.0578 3.40274 3.15304 3.58093 3.29289 3.72078C3.43275 3.86063 3.61093 3.95587 3.80491 3.99446C3.99889 4.03304 4.19996 4.01324 4.38268 3.93755C4.56541 3.86186 4.72159 3.73369 4.83147 3.56924C4.94135 3.40479 5 3.21145 5 3.01367C4.9997 2.74855 4.89424 2.49437 4.70677 2.3069C4.5193 2.11943 4.26512 2.01398 4 2.01367Z" fill="currentColor"/>
</svg>
