<svg viewBox="0 0 16 16" fill="none" xmlns="http://www.w3.org/2000/svg">
<rect width="16" height="16" fill="white" fill-opacity="0.01" style="mix-blend-mode:multiply"/>
<path d="M2.12035 8L6.4619 2.0863L13.5 4.34935V11.6506L6.4619 13.9137L2.12035 8ZM1 7.99995C1 8.10385 1.03225 8.20785 1.0969 8.29585L5.8691 14.7959C5.96445 14.9258 6.1143 14.9992 6.26955 15C6.32135 15.0002 6.3738 14.9924 6.425 14.9759L14.1531 12.4911C14.3599 12.4245 14.5 12.2323 14.5 12.0151V3.98485C14.5 3.7677 14.3598 3.57545 14.1531 3.5089L6.42505 1.02405C6.374 1.0076 6.3217 0.999804 6.27005 1C6.11465 1.00065 5.9646 1.07405 5.86915 1.2041L1.0969 7.7041C1.0322 7.7921 1 7.89605 1 7.99995Z" fill="currentColor"/>
</svg>
