<svg viewBox="0 0 16 16" fill="none" xmlns="http://www.w3.org/2000/svg">
<rect width="16" height="16" fill="white" fill-opacity="0.01" style="mix-blend-mode:multiply"/>
<path d="M8 13.8796L2.0863 9.53805L4.34935 2.49995H11.6506L13.9137 9.53805L8 13.8796ZM7.99995 15C8.10385 15 8.20785 14.9677 8.29585 14.9031L14.7959 10.1309C14.9258 10.0355 14.9992 9.88565 15 9.7304C15.0002 9.6786 14.9924 9.62615 14.9759 9.57495L12.4911 1.8469C12.4245 1.6401 12.2323 1.5 12.0151 1.5H3.98485C3.7677 1.5 3.57545 1.64015 3.5089 1.8469L1.02405 9.57495C1.0076 9.626 0.999804 9.6783 1 9.72995C1.00065 9.88535 1.07405 10.0354 1.2041 10.1309L7.7041 14.9031C7.7921 14.9678 7.89605 15 7.99995 15Z" fill="currentColor"/>
</svg>
