<svg viewBox="0 0 16 17" fill="none" xmlns="http://www.w3.org/2000/svg">
<rect width="16" height="16" transform="translate(0 0.513672)" fill="white" fill-opacity="0.01" style="mix-blend-mode:multiply"/>
<path d="M9 15.5137H7C6.73478 15.5137 6.48043 15.4083 6.29289 15.2208C6.10536 15.0332 6 14.7789 6 14.5137V11.0137C5.73478 11.0137 5.48043 10.9083 5.29289 10.7208C5.10536 10.5332 5 10.2789 5 10.0137V7.01367C5 6.61585 5.15804 6.23432 5.43934 5.95301C5.72064 5.67171 6.10218 5.51367 6.5 5.51367H9.5C9.89782 5.51367 10.2794 5.67171 10.5607 5.95301C10.842 6.23432 11 6.61585 11 7.01367V10.0137C11 10.2789 10.8946 10.5332 10.7071 10.7208C10.5196 10.9083 10.2652 11.0137 10 11.0137V14.5137C10 14.7789 9.89464 15.0332 9.70711 15.2208C9.51957 15.4083 9.26522 15.5137 9 15.5137ZM6.5 6.51367C6.4332 6.50925 6.36622 6.51916 6.30355 6.54272C6.24088 6.56629 6.18398 6.60297 6.13663 6.65031C6.08929 6.69765 6.05261 6.75456 6.02905 6.81722C6.00548 6.87989 5.99558 6.94687 6 7.01367V10.0137H7V14.5137H9V10.0137H10V7.01367C10.0044 6.94687 9.99452 6.87989 9.97095 6.81722C9.94739 6.75456 9.91071 6.69765 9.86337 6.65031C9.81602 6.60297 9.75911 6.56629 9.69645 6.54272C9.63378 6.51916 9.5668 6.50925 9.5 6.51367H6.5Z" fill="currentColor"/>
<path d="M8 5.01367C7.60444 5.01367 7.21776 4.89637 6.88886 4.67661C6.55996 4.45685 6.30362 4.14449 6.15224 3.77904C6.00087 3.41359 5.96126 3.01145 6.03843 2.62349C6.1156 2.23553 6.30608 1.87916 6.58579 1.59946C6.86549 1.31975 7.22186 1.12927 7.60982 1.0521C7.99778 0.974932 8.39991 1.01454 8.76537 1.16591C9.13082 1.31729 9.44318 1.57363 9.66294 1.90253C9.8827 2.23143 10 2.61811 10 3.01367C10 3.54411 9.78929 4.05281 9.41421 4.42789C9.03914 4.80296 8.53043 5.01367 8 5.01367ZM8 2.01367C7.80222 2.01367 7.60888 2.07232 7.44443 2.1822C7.27998 2.29208 7.15181 2.44826 7.07612 2.63099C7.00043 2.81372 6.98063 3.01478 7.01921 3.20876C7.0578 3.40274 7.15304 3.58093 7.29289 3.72078C7.43275 3.86063 7.61093 3.95587 7.80491 3.99446C7.99889 4.03304 8.19996 4.01324 8.38268 3.93755C8.56541 3.86186 8.72159 3.73369 8.83147 3.56924C8.94135 3.40479 9 3.21145 9 3.01367C9 2.74846 8.89464 2.4941 8.70711 2.30657C8.51957 2.11903 8.26522 2.01367 8 2.01367Z" fill="currentColor"/>
</svg>
