<svg viewBox="0 0 16 17" fill="none" xmlns="http://www.w3.org/2000/svg">
<rect width="16" height="16" transform="translate(0 0.513672)" fill="white" fill-opacity="0.01" style="mix-blend-mode:multiply"/>
<path d="M12.9999 15.0137H12.9149C3.08988 14.4487 1.69488 6.15867 1.49988 3.62867C1.48417 3.43196 1.50742 3.23408 1.56832 3.04638C1.62921 2.85867 1.72654 2.68482 1.85474 2.5348C1.98293 2.38477 2.13947 2.26152 2.31538 2.17209C2.4913 2.08267 2.68313 2.02883 2.87988 2.01367H5.63488C5.83516 2.01348 6.03088 2.07343 6.1967 2.18575C6.36251 2.29808 6.49078 2.45761 6.56488 2.64367L7.32488 4.51367C7.39806 4.69545 7.41621 4.89471 7.3771 5.08672C7.33799 5.27872 7.24333 5.45501 7.10488 5.59367L6.03988 6.66867C6.20624 7.61405 6.65897 8.48551 7.33683 9.16515C8.01468 9.8448 8.88495 10.2998 9.82988 10.4687L10.9149 9.39367C11.0556 9.25675 11.2336 9.1643 11.4265 9.12784C11.6195 9.09139 11.8189 9.11254 11.9999 9.18867L13.8849 9.94367C14.0681 10.0201 14.2245 10.1494 14.334 10.315C14.4435 10.4806 14.5013 10.6751 14.4999 10.8737V13.5137C14.4999 13.9115 14.3418 14.293 14.0605 14.5743C13.7792 14.8556 13.3977 15.0137 12.9999 15.0137ZM2.99988 3.01367C2.86727 3.01367 2.74009 3.06635 2.64633 3.16012C2.55256 3.25389 2.49988 3.38106 2.49988 3.51367V3.55367C2.72988 6.51367 4.20488 13.5137 12.9699 14.0137C13.0356 14.0177 13.1014 14.0088 13.1636 13.9873C13.2259 13.9659 13.2832 13.9324 13.3325 13.8887C13.3817 13.8451 13.4218 13.7921 13.4506 13.7329C13.4793 13.6737 13.4961 13.6094 13.4999 13.5437V10.8737L11.6149 10.1187L10.1799 11.5437L9.93988 11.5137C5.58988 10.9687 4.99988 6.61867 4.99988 6.57367L4.96988 6.33367L6.38988 4.89867L5.63988 3.01367H2.99988Z" fill="currentColor"/>
</svg>
