<svg viewBox="0 0 16 17" fill="none" xmlns="http://www.w3.org/2000/svg">
<rect width="16" height="16" transform="translate(0 0.513672)" fill="white" fill-opacity="0.01" style="mix-blend-mode:multiply"/>
<path d="M13 15.0137H12.9C3.09998 14.4637 1.69998 6.16367 1.49998 3.61367C1.44998 2.81367 2.04998 2.06367 2.89998 2.01367C2.89998 2.01367 2.94998 2.01367 2.99998 2.01367H5.64998C6.04998 2.01367 6.44998 2.26367 6.59998 2.66367L7.29998 4.51367C7.44998 4.86367 7.34998 5.31367 7.09998 5.61367L6.04998 6.66367C6.39998 8.61367 7.89998 10.1137 9.84998 10.4637L10.95 9.41367C11.25 9.11367 11.65 9.06367 12.05 9.21367L13.95 9.96367C14.3 10.1137 14.55 10.4637 14.55 10.9137V13.5137C14.5 14.3637 13.85 15.0137 13 15.0137ZM2.99998 3.01367C2.69998 3.01367 2.49998 3.21367 2.49998 3.51367V3.56367C2.74998 6.51367 4.19998 13.5137 12.95 14.0137C13.25 14.0137 13.45 13.8137 13.5 13.5637C13.5 13.5637 13.5 13.5637 13.5 13.5137V10.8637L11.6 10.1137L10.15 11.5637L9.94998 11.5137C5.59998 10.9637 4.99998 6.61367 4.99998 6.56367L4.94998 6.31367L6.34998 4.86367L5.64998 3.01367H2.99998Z" fill="currentColor"/>
<path d="M9.99998 2.51367V3.51367H12.3L8.99998 6.81367L9.69998 7.51367L13 4.21367V6.51367H14V2.51367H9.99998Z" fill="currentColor"/>
</svg>
