<svg viewBox="0 0 16 17" fill="none" xmlns="http://www.w3.org/2000/svg">
<rect width="16" height="16" transform="translate(0 0.513672)" fill="white" fill-opacity="0.01" style="mix-blend-mode:multiply"/>
<path d="M9 7.51367H8V8.51367H9V7.51367Z" fill="currentColor"/>
<path d="M11 7.51367H10V8.51367H11V7.51367Z" fill="currentColor"/>
<path d="M13 7.51367H12V8.51367H13V7.51367Z" fill="currentColor"/>
<path d="M9 9.51367H8V10.5137H9V9.51367Z" fill="currentColor"/>
<path d="M11 9.51367H10V10.5137H11V9.51367Z" fill="currentColor"/>
<path d="M13 9.51367H12V10.5137H13V9.51367Z" fill="currentColor"/>
<path d="M9 11.5137H8V12.5137H9V11.5137Z" fill="currentColor"/>
<path d="M11 11.5137H10V12.5137H11V11.5137Z" fill="currentColor"/>
<path d="M13 11.5137H12V12.5137H13V11.5137Z" fill="currentColor"/>
<path d="M13 5.51367H8V6.51367H13V5.51367Z" fill="currentColor"/>
<path d="M14 3.51367H7V3.01367C6.99967 2.74856 6.89421 2.4944 6.70674 2.30693C6.51928 2.11947 6.26511 2.014 6 2.01367H4C3.73488 2.014 3.48072 2.11947 3.29326 2.30693C3.10579 2.4944 3.00033 2.74856 3 3.01367V3.51367H2C1.73489 3.514 1.48072 3.61947 1.29326 3.80693C1.10579 3.9944 1.00033 4.24856 1 4.51367V13.5137C1.00033 13.7788 1.10579 14.0329 1.29326 14.2204C1.48072 14.4079 1.73489 14.5133 2 14.5137H14C14.2651 14.5133 14.5193 14.4079 14.7067 14.2204C14.8942 14.0329 14.9997 13.7788 15 13.5137V4.51367C14.9997 4.24856 14.8942 3.9944 14.7067 3.80693C14.5193 3.61947 14.2651 3.514 14 3.51367ZM4 3.01367H6V11.5137H4V3.01367ZM14 13.5137H2V4.51367H3V11.5137C3.00033 11.7788 3.10579 12.0329 3.29326 12.2204C3.48072 12.4079 3.73488 12.5133 4 12.5137H6C6.26511 12.5133 6.51928 12.4079 6.70674 12.2204C6.89421 12.0329 6.99967 11.7788 7 11.5137V4.51367H14V13.5137Z" fill="currentColor"/>
</svg>
