<svg viewBox="0 0 16 17" fill="none" xmlns="http://www.w3.org/2000/svg">
<rect width="16" height="16" transform="translate(0 0.513672)" fill="white" fill-opacity="0.01" style="mix-blend-mode:multiply"/>
<path d="M4.595 9.79367C3.36591 7.93125 2.64381 5.78046 2.5 3.55367V3.51367C2.5 3.38106 2.55268 3.25389 2.64645 3.16012C2.74021 3.06635 2.86739 3.01367 3 3.01367H5.64L6.39 4.89867L4.97 6.33367L5 6.57367C5.12258 7.30523 5.36948 8.01042 5.73 8.65867L6.46 7.92867C6.26069 7.53083 6.11926 7.10654 6.04 6.66867L7.105 5.59367C7.24345 5.45501 7.33811 5.27872 7.37722 5.08672C7.41634 4.89471 7.39818 4.69545 7.325 4.51367L6.565 2.64367C6.4909 2.45761 6.36263 2.29808 6.19682 2.18575C6.031 2.07343 5.83528 2.01348 5.635 2.01367H2.88C2.68325 2.02883 2.49142 2.08267 2.31551 2.17209C2.13959 2.26152 1.98305 2.38477 1.85486 2.5348C1.72666 2.68482 1.62933 2.85867 1.56844 3.04638C1.50754 3.23408 1.48429 3.43196 1.5 3.62867C1.67635 6.0949 2.5027 8.47043 3.895 10.5137L4.595 9.79367Z" fill="currentColor"/>
<path d="M13.885 9.94367L12 9.18867C11.819 9.11254 11.6196 9.09139 11.4266 9.12784C11.2337 9.1643 11.0557 9.25675 10.915 9.39367L9.83 10.4687C9.05829 10.3353 8.33359 10.0066 7.725 9.51367L15 2.21867L14.295 1.51367L1 14.8087L1.705 15.5137L5.205 12.0137C6.895 13.6037 9.345 14.8237 12.9 15.0137H13C13.3978 15.0137 13.7794 14.8556 14.0607 14.5743C14.342 14.293 14.5 13.9115 14.5 13.5137V10.8737C14.5014 10.6751 14.4437 10.4806 14.3341 10.315C14.2246 10.1494 14.0683 10.0201 13.885 9.94367ZM13.5 13.5437C13.4962 13.6094 13.4794 13.6737 13.4507 13.7329C13.422 13.7921 13.3818 13.8451 13.3326 13.8887C13.2833 13.9324 13.226 13.9659 13.1638 13.9873C13.1015 14.0088 13.0357 14.0177 12.97 14.0137C9.715 13.8287 7.47 12.7437 5.915 11.3037L7 10.2337C7.82728 10.949 8.85276 11.3954 9.94 11.5137L10.18 11.5437L11.615 10.1187L13.5 10.8737V13.5437Z" fill="currentColor"/>
</svg>
