<svg viewBox="0 0 16 17" fill="none" xmlns="http://www.w3.org/2000/svg">
<rect width="16" height="16" transform="translate(0 0.513672)" fill="white" fill-opacity="0.01" style="mix-blend-mode:multiply"/>
<path d="M10.1648 11.2537L11.2848 10.1337C11.4357 9.98471 11.6265 9.88273 11.8342 9.84013C12.0419 9.79753 12.2575 9.81613 12.4548 9.89369L13.8198 10.4387C14.0192 10.5196 14.1902 10.6578 14.3112 10.8357C14.4322 11.0137 14.4979 11.2235 14.4998 11.4387V13.9387C14.4987 14.0851 14.4679 14.2297 14.4094 14.3639C14.3508 14.4981 14.2657 14.619 14.1592 14.7195C14.0527 14.8199 13.927 14.8978 13.7896 14.9483C13.6522 14.9989 13.506 15.0211 13.3598 15.0137C3.79482 14.4187 1.86482 6.31869 1.49982 3.21869C1.48288 3.06646 1.49836 2.91237 1.54525 2.76655C1.59213 2.62073 1.66936 2.48649 1.77186 2.37266C1.87435 2.25883 1.99978 2.16799 2.1399 2.10612C2.28002 2.04425 2.43165 2.01275 2.58482 2.01369H4.99982C5.21533 2.01433 5.42571 2.07943 5.60392 2.20061C5.78213 2.32179 5.92001 2.49351 5.99982 2.69369L6.54482 4.05869C6.62495 4.25523 6.64539 4.47101 6.6036 4.6791C6.5618 4.88718 6.45962 5.07834 6.30982 5.22869L5.18982 6.34869C5.18982 6.34869 5.83482 10.7137 10.1648 11.2537Z" fill="currentColor"/>
</svg>
