<svg viewBox="0 0 16 17" fill="none" xmlns="http://www.w3.org/2000/svg">
<rect width="16" height="16" transform="translate(0 0.513672)" fill="white" fill-opacity="0.01" style="mix-blend-mode:multiply"/>
<path d="M14.685 7.88867L10 5.51367V3.51367C10 2.98324 9.78929 2.47453 9.41421 2.09946C9.03914 1.72439 8.53043 1.51367 8 1.51367C7.46957 1.51367 6.96086 1.72439 6.58579 2.09946C6.21071 2.47453 6 2.98324 6 3.51367V5.51367L1.315 7.88867C1.22197 7.92572 1.1422 7.98986 1.08604 8.07276C1.02988 8.15567 0.999903 8.25353 1 8.35367V10.8537C1 10.9863 1.05268 11.1135 1.14645 11.2072C1.24022 11.301 1.36739 11.3537 1.5 11.3537C1.5493 11.3525 1.59816 11.3441 1.645 11.3287L6 9.51367V12.0137L4.275 12.8737C4.19178 12.9156 4.12194 12.98 4.07335 13.0595C4.02476 13.139 3.99935 13.2305 4 13.3237V15.0137C4 15.1463 4.05268 15.2735 4.14645 15.3672C4.24022 15.461 4.36739 15.5137 4.5 15.5137C4.54638 15.521 4.59362 15.521 4.64 15.5137L8 14.5137L11.36 15.5137C11.4064 15.521 11.4536 15.521 11.5 15.5137C11.6326 15.5137 11.7598 15.461 11.8536 15.3672C11.9473 15.2735 12 15.1463 12 15.0137V13.3237C12.0006 13.2305 11.9752 13.139 11.9267 13.0595C11.8781 12.98 11.8082 12.9156 11.725 12.8737L10 12.0137V9.51367L14.355 11.3187C14.4018 11.3341 14.4507 11.3425 14.5 11.3437C14.6326 11.3437 14.7598 11.291 14.8536 11.1972C14.9473 11.1035 15 10.9763 15 10.8437V8.34367C14.9981 8.24524 14.9672 8.14956 14.9112 8.06862C14.8552 7.98768 14.7765 7.92508 14.685 7.88867ZM14 10.0887L9 8.01367V12.6337L11 13.6337V14.3487L8 13.4737L5 14.3487V13.6337L7 12.6337V8.01367L2 10.0887V8.66367L7 6.12867V3.51367C7 3.24846 7.10536 2.9941 7.29289 2.80657C7.48043 2.61903 7.73478 2.51367 8 2.51367C8.26522 2.51367 8.51957 2.61903 8.70711 2.80657C8.89464 2.9941 9 3.24846 9 3.51367V6.12867L14 8.66367V10.0887Z" fill="currentColor"/>
</svg>
