<svg viewBox="0 0 16 17" fill="none" xmlns="http://www.w3.org/2000/svg">
<rect width="16" height="16" transform="translate(0 0.513672)" fill="white" fill-opacity="0.01" style="mix-blend-mode:multiply"/>
<path d="M15 15.5137H14C13.612 15.5171 13.2286 15.4289 12.8811 15.2562C12.5335 15.0836 12.2317 14.8313 12 14.52C11.766 14.8288 11.4636 15.0792 11.1166 15.2516C10.7696 15.424 10.3874 15.5137 10 15.5137C9.61255 15.5137 9.23037 15.424 8.88338 15.2516C8.5364 15.0792 8.23404 14.8288 8 14.52C7.76596 14.8288 7.4636 15.0792 7.11662 15.2516C6.76964 15.424 6.38745 15.5137 6 15.5137C5.61255 15.5137 5.23036 15.424 4.88338 15.2516C4.5364 15.0792 4.23404 14.8288 4 14.52C3.76834 14.8313 3.46647 15.0836 3.11894 15.2562C2.77141 15.4289 2.38804 15.5171 2 15.5137H1V14.5137H2C2.34095 14.4936 2.66821 14.3725 2.94009 14.1658C3.21196 13.9591 3.41614 13.6761 3.5266 13.3529C3.55822 13.2528 3.62145 13.1656 3.7068 13.1045C3.79215 13.0433 3.89502 13.0114 4 13.0137C4.10482 13.0142 4.20686 13.0474 4.2919 13.1087C4.37693 13.17 4.44072 13.2563 4.47435 13.3556C4.58507 13.6782 4.78926 13.9606 5.06093 14.1668C5.33261 14.373 5.6595 14.4938 6 14.5137C6.34095 14.4936 6.66821 14.3725 6.94009 14.1658C7.21196 13.9591 7.41614 13.6761 7.5266 13.3529C7.55952 13.2536 7.62307 13.1673 7.70813 13.1063C7.79318 13.0454 7.89536 13.0129 8 13.0137C8.10482 13.0142 8.20686 13.0474 8.2919 13.1087C8.37693 13.17 8.44072 13.2563 8.47435 13.3556C8.58507 13.6782 8.78926 13.9606 9.06094 14.1668C9.33261 14.373 9.6595 14.4938 10 14.5137C10.341 14.4936 10.6682 14.3725 10.9401 14.1658C11.212 13.9591 11.4161 13.6761 11.5266 13.3529C11.5603 13.2538 11.6242 13.1677 11.7094 13.1069C11.7946 13.046 11.8967 13.0135 12.0014 13.0138C12.1061 13.014 12.2081 13.0472 12.2929 13.1085C12.3778 13.1698 12.4412 13.2563 12.4743 13.3556C12.5851 13.6782 12.7893 13.9606 13.0609 14.1668C13.3326 14.373 13.6595 14.4938 14 14.5137H15V15.5137Z" fill="currentColor"/>
<path d="M14 3.51367V5.51367H12.75L11.7 4.11367C11.5599 3.92775 11.3787 3.77681 11.1705 3.67271C10.9623 3.56861 10.7328 3.51417 10.5 3.51367H7.5C7.10231 3.51411 6.72103 3.67228 6.43982 3.95349C6.15861 4.2347 6.00044 4.61598 6 5.01367V5.51367H4.3091L3.44725 3.79002C3.40571 3.70697 3.34187 3.63713 3.26288 3.58832C3.18388 3.53951 3.09286 3.51366 3 3.51367H1.5C1.36739 3.51367 1.24021 3.56635 1.14645 3.66012C1.05268 3.75389 1 3.88106 1 4.01367V7.01367C1.00044 7.41136 1.15861 7.79264 1.43982 8.07385C1.72103 8.35506 2.10231 8.51324 2.5 8.51367H5.91L5.5767 10.5137H3.5C3.36739 10.5137 3.24021 10.5663 3.14645 10.6601C3.05268 10.7539 3 10.8811 3 11.0137C3 11.1463 3.05268 11.2735 3.14645 11.3672C3.24021 11.461 3.36739 11.5137 3.5 11.5137H13.5C13.6326 11.5137 13.7598 11.461 13.8536 11.3672C13.9473 11.2735 14 11.1463 14 11.0137C14 10.8811 13.9473 10.7539 13.8536 10.6601C13.7598 10.5663 13.6326 10.5137 13.5 10.5137H11.4235L11.09 8.51367H11.1714C11.4999 8.51455 11.8252 8.45027 12.1286 8.32455C12.432 8.19883 12.7075 8.01417 12.939 7.78127L14 6.72072V8.51367H15V3.51367H14ZM7 5.01367C7.00012 4.8811 7.05284 4.75399 7.14658 4.66025C7.24032 4.56651 7.36743 4.51379 7.5 4.51367H10.5C10.5776 4.51385 10.6541 4.53199 10.7235 4.56669C10.7929 4.60139 10.8533 4.6517 10.9 4.71367L11.5 5.51367H7V5.01367ZM10.41 10.5137H6.59L6.9233 8.51367H10.0763L10.41 10.5137ZM11.1719 7.51367H2.5C2.36743 7.51355 2.24032 7.46084 2.14658 7.36709C2.05284 7.27335 2.00012 7.14624 2 7.01367V4.51367H2.6909L3.6909 6.51367H12.7929L12.2322 7.07422C12.0933 7.21399 11.928 7.32479 11.746 7.40023C11.5639 7.47566 11.3689 7.51422 11.1719 7.51367Z" fill="currentColor"/>
</svg>
