<svg viewBox="0 0 16 17" fill="none" xmlns="http://www.w3.org/2000/svg">
<rect width="16" height="16" transform="translate(0 0.513672)" fill="white" fill-opacity="0.01" style="mix-blend-mode:multiply"/>
<path d="M11 4.51367H10.5V1.51367H9.5V4.51367H6.5V1.51367H5.5V4.51367H5C4.73478 4.51367 4.48043 4.61903 4.29289 4.80657C4.10536 4.9941 4 5.24846 4 5.51367V8.51367C4.00158 9.48716 4.35779 10.4267 5.00199 11.1566C5.64619 11.8864 6.53425 12.3566 7.5 12.479V15.5137H8.5V12.479C9.46575 12.3566 10.3538 11.8864 10.998 11.1566C11.6422 10.4267 11.9984 9.48716 12 8.51367V5.51367C12 5.24846 11.8946 4.9941 11.7071 4.80657C11.5196 4.61903 11.2652 4.51367 11 4.51367V4.51367Z" fill="currentColor"/>
</svg>
