<svg viewBox="0 0 16 17" fill="none" xmlns="http://www.w3.org/2000/svg">
<rect width="16" height="16" transform="translate(0 0.513672)" fill="white" fill-opacity="0.01" style="mix-blend-mode:multiply"/>
<path d="M9.5 4.01367V2.31372C9.5 1.87187 9.1418 1.51367 8.69995 1.51367H2V2.51367H8.5V4.01367H5.5C4.9477 4.01367 4.5 4.46137 4.5 5.01367V12.0137C4.5 12.566 4.9477 13.0137 5.5 13.0137H8.5V14.5137H2V15.5137H8.69995C9.1418 15.5137 9.5 15.1555 9.5 14.7136V13.0137H12.5C13.0523 13.0137 13.5 12.566 13.5 12.0137V5.01367C13.5 4.46137 13.0523 4.01367 12.5 4.01367H9.5ZM12.5 12.0137H5.5V5.01367H12.5V12.0137Z" fill="currentColor"/>
</svg>
