<svg viewBox="0 0 16 17" fill="none" xmlns="http://www.w3.org/2000/svg">
<rect width="16" height="16" transform="translate(0 0.513672)" fill="white" fill-opacity="0.01" style="mix-blend-mode:multiply"/>
<path d="M8.75264 8.51367L12.8322 4.88722C12.9079 4.81985 12.9614 4.73105 12.9855 4.63259C13.0096 4.53414 13.0032 4.43069 12.9672 4.33595C12.9312 4.2412 12.8672 4.15965 12.7837 4.1021C12.7003 4.04454 12.6014 4.0137 12.5 4.01367H11V1.51367H9.99999V5.01367H11.185L7.99999 7.84472L4.81499 5.01367H5.99999V1.51367H4.99999V4.01367H3.49999C3.39862 4.01368 3.29965 4.04451 3.2162 4.10205C3.13275 4.1596 3.06876 4.24115 3.03272 4.3359C2.99668 4.43064 2.99029 4.53411 3.01439 4.63257C3.0385 4.73103 3.09196 4.81984 3.16769 4.88722L7.24724 8.51367L3.16764 12.1401C3.09191 12.2075 3.03844 12.2963 3.01434 12.3948C2.99024 12.4933 2.99663 12.5967 3.03268 12.6915C3.06873 12.7862 3.13272 12.8678 3.21618 12.9253C3.29964 12.9829 3.39862 13.0137 3.49999 13.0137H4.99999V15.5137H5.99999V12.0137H4.81499L7.99999 9.18262L11.185 12.0137H9.99999V15.5137H11V13.0137H12.5C12.6014 13.0137 12.7003 12.9828 12.7838 12.9253C12.8672 12.8677 12.9312 12.7862 12.9672 12.6914C13.0033 12.5967 13.0096 12.4932 12.9855 12.3948C12.9614 12.2963 12.908 12.2075 12.8322 12.1401L8.75264 8.51367Z" fill="currentColor"/>
</svg>
