<svg viewBox="0 0 16 16" fill="none" xmlns="http://www.w3.org/2000/svg">
<rect width="16" height="16" fill="white" fill-opacity="0.01" style="mix-blend-mode:multiply"/>
<path d="M14.5 10.26C14.5 7.95 12.61 7.69 11.09 7.48C9.435 7.25 8.5 7.05 8.5 5.625C8.5 4.43 9.755 4.005 10.825 4.005C11.985 4.005 12.895 4.435 13.61 5.32L14.39 4.69C13.63 3.75 12.66 3.205 11.5 3.05V1.5H10.5V3.01C8.69 3.12 7.5 4.14 7.5 5.62C7.5 7.985 9.415 8.25 10.955 8.465C12.58 8.69 13.5 8.885 13.5 10.255C13.5 11.77 11.935 11.995 11 11.995C9.285 11.995 8.56 11.515 7.89 10.68L7.11 11.31C7.995 12.405 8.975 12.895 10.5 12.98V14.5H11.5V12.98C13.365 12.83 14.5 11.815 14.5 10.26Z" fill="currentColor"/>
<path d="M5.5 5.5H1.5V6.5H5.5V5.5Z" fill="currentColor"/>
<path d="M5.5 9.5H1.5V10.5H5.5V9.5Z" fill="currentColor"/>
<path d="M6.5 7.5H2.5V8.5H6.5V7.5Z" fill="currentColor"/>
</svg>
