<svg viewBox="0 0 16 16" fill="none" xmlns="http://www.w3.org/2000/svg">
<rect width="16" height="16" fill="white" fill-opacity="0.01" style="mix-blend-mode:multiply"/>
<path d="M12.5 11.071V4.5C12.5 3.3972 11.6028 2.5 10.5 2.5H8.41405L9.707 1.20705L8.99995 0.5L6.49995 3L8.99995 5.5L9.707 4.79295L8.41405 3.5H10.5C11.0514 3.5 11.5 3.94875 11.5 4.5V11.071C10.6399 11.2947 10 12.0708 10 13C10 14.1028 10.8972 15 12 15C13.1028 15 14 14.1028 14 13C14 12.0708 13.3601 11.2947 12.5 11.071ZM12 14C11.4486 14 11 13.5512 11 13C11 12.4488 11.4486 12 12 12C12.5514 12 13 12.4488 13 13C13 13.5512 12.5514 14 12 14Z" fill="currentColor"/>
<path d="M2 3C2 3.9292 2.6399 4.7053 3.5 4.92895V11.071C2.6399 11.2945 2 12.0707 2 13C2 14.103 2.8972 15 4 15C5.1028 15 6 14.103 6 13C6 12.0707 5.3601 11.2945 4.5 11.071V4.92895C5.3601 4.7053 6 3.9292 6 3C6 1.8972 5.1028 1 4 1C2.8972 1 2 1.8972 2 3ZM5 13C5 13.5512 4.5515 14 4 14C3.4485 14 3 13.5512 3 13C3 12.4488 3.4485 12 4 12C4.5515 12 5 12.4488 5 13ZM5 3C5 3.5515 4.5515 4 4 4C3.4485 4 3 3.5515 3 3C3 2.4485 3.4485 2 4 2C4.5515 2 5 2.4485 5 3Z" fill="currentColor"/>
</svg>
