<svg viewBox="0 0 16 17" fill="none" xmlns="http://www.w3.org/2000/svg">
<rect width="16" height="16" transform="translate(0 0.513672)" fill="white" fill-opacity="0.01" style="mix-blend-mode:multiply"/>
<path d="M15 2.22097L14.2927 1.51367L8.64663 7.15992C8.59905 7.20609 8.56111 7.26126 8.53505 7.32222C8.50898 7.38318 8.4953 7.44872 8.4948 7.51501C8.49429 7.58131 8.50698 7.64705 8.53212 7.7084C8.55727 7.76975 8.59436 7.82548 8.64124 7.87236C8.68812 7.91925 8.74386 7.95633 8.80521 7.98147C8.86656 8.00661 8.9323 8.01929 8.9986 8.01878C9.0649 8.01828 9.13044 8.00459 9.1914 7.97852C9.25236 7.95245 9.30752 7.91451 9.35368 7.86692L11.0808 6.13987C11.3317 6.5156 11.4756 6.95246 11.4972 7.40369C11.5188 7.85493 11.4173 8.30354 11.2035 8.70151C10.9897 9.09949 10.6718 9.43183 10.2836 9.66297C9.89548 9.8941 9.45178 10.0153 9.00003 10.0137C8.89839 10.0115 8.79697 10.0031 8.69633 9.98867C8.28827 9.00631 7.50763 8.22563 6.52528 7.81752C6.4738 7.46532 6.49968 7.10612 6.60112 6.76494C6.70256 6.42375 6.87712 6.10876 7.11267 5.8419C7.34821 5.57503 7.63907 5.36269 7.96502 5.21966C8.29096 5.07663 8.64416 5.00633 9.00003 5.01367V4.01367C8.07209 4.0147 7.18245 4.38378 6.5263 5.03994C5.87015 5.69609 5.50107 6.58573 5.50003 7.51367C5.50003 7.52537 5.50283 7.53712 5.50298 7.54867C5.33623 7.5265 5.16825 7.51481 5.00003 7.51367C4.66449 7.51487 4.33045 7.55855 4.00588 7.64367C4.00478 7.60012 4.00003 7.55762 4.00003 7.51367C4.00154 6.18805 4.52881 4.91716 5.46617 3.9798C6.40352 3.04245 7.67441 2.51518 9.00003 2.51367V1.51367C7.40929 1.51548 5.88422 2.14821 4.7594 3.27303C3.63457 4.39786 3.00185 5.92293 3.00003 7.51367C3.00003 7.69117 3.00858 7.86672 3.02358 8.04052C2.48829 8.34445 2.03042 8.76791 1.68567 9.27788C1.34093 9.78785 1.11862 10.3705 1.03609 10.9805C0.953558 11.5906 1.01303 12.2114 1.20986 12.7946C1.4067 13.3779 1.73558 13.9078 2.17087 14.343C2.60616 14.7783 3.13609 15.1071 3.71935 15.3039C4.30261 15.5007 4.92344 15.5601 5.53344 15.4775C6.14343 15.3949 6.72611 15.1725 7.23605 14.8277C7.74599 14.483 8.1694 14.025 8.47328 13.4897C8.64828 13.5047 8.82423 13.5137 9.00003 13.5137C10.1442 13.5151 11.2648 13.1889 12.2295 12.5737C13.1942 11.9586 13.9626 11.0801 14.4439 10.0421C14.9253 9.00417 15.0994 7.85011 14.9458 6.71633C14.7921 5.58256 14.3171 4.51646 13.5769 3.64402L15 2.22097ZM7.95503 11.0137H6.97818C6.91324 10.2598 6.70663 9.52493 6.36918 8.84767C6.78334 9.06106 7.1422 9.36783 7.41742 9.74374C7.69265 10.1197 7.8767 10.5544 7.95503 11.0137V11.0137ZM2.04503 12.0137H3.02178C3.08676 12.7676 3.29341 13.5026 3.63088 14.1799C3.2167 13.9665 2.85782 13.6597 2.58259 13.2837C2.30737 12.9078 2.12333 12.473 2.04503 12.0137V12.0137ZM3.02163 11.0137H2.04503C2.12335 10.5544 2.30738 10.1197 2.58258 9.74377C2.85778 9.36786 3.21661 9.06108 3.63073 8.84767C3.29334 9.52495 3.08675 10.2598 3.02178 11.0137H3.02163ZM5.00003 14.5066C4.45577 13.7792 4.11963 12.9175 4.02763 12.0137H5.97263C5.88058 12.9175 5.54437 13.7792 5.00003 14.5066V14.5066ZM4.02763 11.0137C4.11964 10.11 4.45577 9.24843 5.00003 8.52122C5.54433 9.24841 5.88048 10.11 5.97243 11.0137H4.02763ZM6.36918 14.1799C6.70666 13.5026 6.91331 12.7676 6.97828 12.0137H7.95503C7.87673 12.473 7.6927 12.9078 7.41747 13.2837C7.14225 13.6597 6.78337 13.9665 6.36918 14.1799V14.1799ZM14 7.51367C13.9985 8.83929 13.4713 10.1102 12.5339 11.0475C11.5965 11.9849 10.3257 12.5122 9.00003 12.5137C8.95658 12.5137 8.91338 12.5087 8.87003 12.5078C9.0015 12.0202 9.0338 11.5111 8.96503 11.0107C8.97688 11.0107 8.98833 11.0137 9.00003 11.0137C9.6496 11.0138 10.2864 10.833 10.8391 10.4918C11.3918 10.1505 11.8386 9.66214 12.1295 9.08136C12.4204 8.50058 12.5439 7.85029 12.4862 7.20329C12.4285 6.55629 12.1919 5.93812 11.8028 5.41797L12.8684 4.35227C13.6006 5.24309 14.0006 6.36058 14 7.51367Z" fill="currentColor"/>
</svg>
