<svg viewBox="0 0 16 17" fill="none" xmlns="http://www.w3.org/2000/svg">
<rect width="16" height="16" transform="translate(0 0.513672)" fill="white" fill-opacity="0.01" style="mix-blend-mode:multiply"/>
<path d="M14 5.51367H12V1.51367H11V5.51367H6.5V4.51367H5.5V5.51367H4V4.51367H3V5.51367H2C1.73478 5.51367 1.48043 5.61903 1.29289 5.80657C1.10536 5.9941 1 6.24846 1 6.51367V14.5137C1 14.7789 1.10536 15.0332 1.29289 15.2208C1.48043 15.4083 1.73478 15.5137 2 15.5137H14C14.2652 15.5137 14.5196 15.4083 14.7071 15.2208C14.8946 15.0332 15 14.7789 15 14.5137V6.51367C15 6.24846 14.8946 5.9941 14.7071 5.80657C14.5196 5.61903 14.2652 5.51367 14 5.51367ZM2 14.5137V6.51367H14V14.5137H2Z" fill="currentColor"/>
<path d="M5 13.5137C4.60444 13.5137 4.21776 13.3964 3.88886 13.1766C3.55996 12.9568 3.30362 12.6445 3.15224 12.279C3.00087 11.9136 2.96126 11.5115 3.03843 11.1235C3.1156 10.7355 3.30608 10.3792 3.58579 10.0995C3.86549 9.81975 4.22186 9.62927 4.60982 9.5521C4.99778 9.47493 5.39991 9.51454 5.76537 9.66591C6.13082 9.81729 6.44318 10.0736 6.66294 10.4025C6.8827 10.7314 7 11.1181 7 11.5137C7 12.0441 6.78929 12.5528 6.41421 12.9279C6.03914 13.303 5.53043 13.5137 5 13.5137ZM5 10.5137C4.80222 10.5137 4.60888 10.5723 4.44443 10.6822C4.27998 10.7921 4.15181 10.9483 4.07612 11.131C4.00043 11.3137 3.98063 11.5148 4.01921 11.7088C4.0578 11.9027 4.15304 12.0809 4.29289 12.2208C4.43275 12.3606 4.61093 12.4559 4.80491 12.4945C4.99889 12.533 5.19996 12.5132 5.38268 12.4376C5.56541 12.3619 5.72159 12.2337 5.83147 12.0692C5.94135 11.9048 6 11.7115 6 11.5137C6 11.2485 5.89464 10.9941 5.70711 10.8066C5.51957 10.619 5.26522 10.5137 5 10.5137Z" fill="currentColor"/>
<path d="M6.5 7.51367H3.5V8.51367H6.5V7.51367Z" fill="currentColor"/>
<path d="M13 8.51367H8.5V9.51367H13V8.51367Z" fill="currentColor"/>
<path d="M13 10.5137H8.5V11.5137H13V10.5137Z" fill="currentColor"/>
<path d="M13 12.5137H8.5V13.5137H13V12.5137Z" fill="currentColor"/>
</svg>
