<svg viewBox="0 0 16 17" fill="none" xmlns="http://www.w3.org/2000/svg">
<rect width="16" height="16" transform="translate(0 0.513672)" fill="white" fill-opacity="0.01" style="mix-blend-mode:multiply"/>
<path d="M5 13.5137C4.60444 13.5137 4.21776 13.3964 3.88886 13.1766C3.55996 12.9568 3.30362 12.6445 3.15224 12.279C3.00087 11.9136 2.96126 11.5115 3.03843 11.1235C3.1156 10.7355 3.30608 10.3792 3.58579 10.0995C3.86549 9.81975 4.22186 9.62927 4.60982 9.5521C4.99778 9.47493 5.39991 9.51454 5.76537 9.66591C6.13082 9.81729 6.44318 10.0736 6.66294 10.4025C6.8827 10.7314 7 11.1181 7 11.5137C6.9994 12.0439 6.7885 12.5523 6.41356 12.9272C6.03861 13.3022 5.53025 13.5131 5 13.5137ZM5 10.5137C4.80222 10.5137 4.60888 10.5723 4.44443 10.6822C4.27998 10.7921 4.15181 10.9483 4.07612 11.131C4.00043 11.3137 3.98063 11.5148 4.01921 11.7088C4.0578 11.9027 4.15304 12.0809 4.29289 12.2208C4.43275 12.3606 4.61093 12.4559 4.80491 12.4945C4.99889 12.533 5.19996 12.5132 5.38268 12.4376C5.56541 12.3619 5.72159 12.2337 5.83147 12.0692C5.94135 11.9048 6 11.7115 6 11.5137C5.99972 11.2485 5.89428 10.9943 5.7068 10.8069C5.51932 10.6194 5.26513 10.5139 5 10.5137Z" fill="currentColor"/>
<path d="M13 10.5137H8.5V11.5137H13V10.5137Z" fill="currentColor"/>
<path d="M13 12.5137H8.5V13.5137H13V12.5137Z" fill="currentColor"/>
<path d="M10 6.51367H14C14.2651 6.51337 14.5193 6.40791 14.7068 6.22044C14.8942 6.03297 14.9997 5.7788 15 5.51367V3.51367C14.9997 3.24855 14.8942 2.99437 14.7068 2.8069C14.5193 2.61943 14.2651 2.51398 14 2.51367H10C9.73488 2.51398 9.4807 2.61943 9.29323 2.8069C9.10576 2.99437 9.0003 3.24855 9 3.51367V4.01367H6C5.46975 4.01427 4.96139 4.22517 4.58644 4.60012C4.2115 4.97506 4.0006 5.48342 4 6.01367V7.51367H3V2.51367H2V7.51367C1.73488 7.51398 1.4807 7.61943 1.29323 7.8069C1.10576 7.99437 1.0003 8.24855 1 8.51367V14.5137C1.0003 14.7788 1.10576 15.033 1.29323 15.2204C1.4807 15.4079 1.73488 15.5134 2 15.5137H14C14.2651 15.5134 14.5193 15.4079 14.7068 15.2204C14.8942 15.033 14.9997 14.7788 15 14.5137V8.51367C14.9997 8.24855 14.8942 7.99437 14.7068 7.8069C14.5193 7.61943 14.2651 7.51398 14 7.51367H5V6.01367C5.0003 5.74855 5.10576 5.49437 5.29323 5.3069C5.4807 5.11943 5.73488 5.01398 6 5.01367H9V5.51367C9.0003 5.7788 9.10576 6.03297 9.29323 6.22044C9.4807 6.40791 9.73488 6.51337 10 6.51367ZM12 3.51367H14V5.51367H12V3.51367ZM10 3.51367H11V5.51367H10V3.51367ZM14 14.5137H2V8.51367H14V14.5137Z" fill="currentColor"/>
</svg>
