<svg viewBox="0 0 16 17" fill="none" xmlns="http://www.w3.org/2000/svg">
<rect width="16" height="16" transform="translate(0 0.513672)" fill="white" fill-opacity="0.01" style="mix-blend-mode:multiply"/>
<path d="M8 1.51367C6.61553 1.51367 5.26216 1.92421 4.11101 2.69338C2.95987 3.46255 2.06266 4.55581 1.53285 5.83489C1.00303 7.11397 0.86441 8.52144 1.13451 9.8793C1.4046 11.2372 2.07129 12.4845 3.05026 13.4634C4.02922 14.4424 5.2765 15.1091 6.63437 15.3792C7.99224 15.6493 9.3997 15.5106 10.6788 14.9808C11.9579 14.451 13.0511 13.5538 13.8203 12.4027C14.5895 11.2515 15 9.89814 15 8.51367C15 6.65716 14.2625 4.87668 12.9497 3.56392C11.637 2.25117 9.85652 1.51367 8 1.51367V1.51367ZM8 14.5137C6.81332 14.5137 5.65328 14.1618 4.66658 13.5025C3.67989 12.8432 2.91085 11.9061 2.45673 10.8098C2.0026 9.71342 1.88378 8.50702 2.11529 7.34313C2.3468 6.17924 2.91825 5.11015 3.75736 4.27103C4.59648 3.43192 5.66558 2.86047 6.82946 2.62896C7.99335 2.39745 9.19975 2.51627 10.2961 2.97039C11.3925 3.42452 12.3295 4.19356 12.9888 5.18025C13.6481 6.16695 14 7.32698 14 8.51367C14 10.105 13.3679 11.6311 12.2426 12.7563C11.1174 13.8815 9.5913 14.5137 8 14.5137Z" fill="currentColor"/>
</svg>
