<svg viewBox="0 0 16 17" fill="none" xmlns="http://www.w3.org/2000/svg">
<rect width="16" height="16" transform="translate(0 0.513672)" fill="white" fill-opacity="0.01" style="mix-blend-mode:multiply"/>
<path d="M9.5 6.01367H6.5V7.01367H9.5V6.01367Z" fill="currentColor"/>
<path d="M9.5 8.01367H6.5V9.01367H9.5V8.01367Z" fill="currentColor"/>
<path d="M8 13.0137C8.55228 13.0137 9 12.566 9 12.0137C9 11.4614 8.55228 11.0137 8 11.0137C7.44772 11.0137 7 11.4614 7 12.0137C7 12.566 7.44772 13.0137 8 13.0137Z" fill="currentColor"/>
<path d="M11 4.01367H10.5V1.51367H9.5V4.01367H5C4.73488 4.01398 4.4807 4.11943 4.29323 4.3069C4.10576 4.49437 4.0003 4.74855 4 5.01367V6.01367H3V7.01367H4V8.01367H3V9.01367H4V14.5137C4.0003 14.7788 4.10576 15.033 4.29323 15.2204C4.4807 15.4079 4.73488 15.5134 5 15.5137H11C11.2651 15.5134 11.5193 15.4079 11.7068 15.2204C11.8942 15.033 11.9997 14.7788 12 14.5137V5.01367C11.9997 4.74855 11.8942 4.49437 11.7068 4.3069C11.5193 4.11943 11.2651 4.01398 11 4.01367ZM5 14.5137V5.01367H11V14.5137H5Z" fill="currentColor"/>
</svg>
