<svg viewBox="0 0 16 17" fill="none" xmlns="http://www.w3.org/2000/svg">
<rect width="16" height="16" transform="translate(0 0.513672)" fill="white" fill-opacity="0.01" style="mix-blend-mode:multiply"/>
<path d="M8.5 15.5137C8.41476 15.5137 8.33094 15.4919 8.25649 15.4504C8.18204 15.4089 8.11944 15.3491 8.07463 15.2766C8.02982 15.204 8.00429 15.1213 8.00047 15.0361C7.99665 14.951 8.01467 14.8663 8.0528 14.79L9.0528 12.7898C9.11213 12.6712 9.21614 12.581 9.34195 12.5391C9.46776 12.4971 9.60507 12.5069 9.72368 12.5662C9.84228 12.6256 9.93247 12.7296 9.97439 12.8554C10.0163 12.9812 10.0065 13.1185 9.9472 13.2371L8.9472 15.2371C8.9058 15.3203 8.842 15.3902 8.76299 15.4391C8.68398 15.488 8.5929 15.5138 8.5 15.5137Z" fill="currentColor"/>
<path d="M4 15.5137C3.91476 15.5137 3.83094 15.4919 3.75649 15.4504C3.68204 15.4089 3.61944 15.3491 3.57463 15.2766C3.52982 15.204 3.50429 15.1213 3.50047 15.0361C3.49665 14.951 3.51467 14.8663 3.5528 14.79L4.5528 12.7898C4.58218 12.731 4.62283 12.6787 4.67244 12.6357C4.72205 12.5926 4.77965 12.5598 4.84195 12.5391C4.90424 12.5183 4.97002 12.51 5.03552 12.5147C5.10101 12.5194 5.16495 12.5369 5.22368 12.5662C5.28241 12.5956 5.33477 12.6363 5.37779 12.6859C5.42081 12.7355 5.45363 12.7931 5.47438 12.8554C5.49514 12.9177 5.50342 12.9835 5.49876 13.049C5.4941 13.1145 5.47658 13.1784 5.4472 13.2371L4.4472 15.2371C4.4058 15.3203 4.342 15.3902 4.26299 15.4391C4.18398 15.488 4.0929 15.5138 4 15.5137Z" fill="currentColor"/>
<path d="M15 8.26372C14.9965 7.51589 14.7364 6.79192 14.2632 6.21279C13.7901 5.63366 13.1325 5.23443 12.4004 5.08182C12.1873 4.07268 11.6339 3.16744 10.8328 2.51781C10.0317 1.86819 9.03164 1.51367 8.00025 1.51367C6.96886 1.51367 5.96882 1.86819 5.16772 2.51781C4.36662 3.16744 3.81316 4.07268 3.6001 5.08182C2.93274 5.2172 2.32487 5.55906 1.86256 6.05903C1.40024 6.55899 1.10691 7.19171 1.02409 7.86761C0.941276 8.54351 1.07317 9.22833 1.4011 9.82512C1.72902 10.4219 2.23637 10.9004 2.8513 11.1929L2.053 12.7901C2.02243 12.8489 2.00386 12.9132 1.99838 12.9793C1.9929 13.0454 2.00062 13.1119 2.02109 13.175C2.04156 13.2381 2.07438 13.2965 2.11762 13.3467C2.16087 13.397 2.21368 13.4382 2.27299 13.4678C2.3323 13.4975 2.39691 13.5151 2.46308 13.5195C2.52924 13.524 2.59563 13.5152 2.65837 13.4938C2.72112 13.4723 2.77898 13.4386 2.82857 13.3946C2.87817 13.3506 2.91851 13.2971 2.94725 13.2374L3.8087 11.5137H7.1909L6.553 12.7901C6.52243 12.8489 6.50386 12.9132 6.49838 12.9793C6.4929 13.0454 6.50062 13.1119 6.52109 13.175C6.54156 13.2381 6.57438 13.2965 6.61762 13.3467C6.66087 13.397 6.71368 13.4382 6.77299 13.4678C6.8323 13.4975 6.89691 13.5151 6.96308 13.5195C7.02924 13.524 7.09563 13.5152 7.15837 13.4938C7.22112 13.4723 7.27898 13.4386 7.32857 13.3946C7.37817 13.3506 7.41851 13.2971 7.44725 13.2374L8.30886 11.5137H11.6909L11.053 12.7901C11.0224 12.8489 11.0039 12.9132 10.9984 12.9793C10.9929 13.0454 11.0006 13.1119 11.0211 13.175C11.0416 13.2381 11.0744 13.2965 11.1176 13.3467C11.1609 13.397 11.2137 13.4382 11.273 13.4678C11.3323 13.4975 11.3969 13.5151 11.4631 13.5195C11.5292 13.524 11.5956 13.5152 11.6584 13.4938C11.7211 13.4723 11.779 13.4386 11.8286 13.3946C11.8782 13.3506 11.9185 13.2971 11.9473 13.2374L12.9195 11.2924C13.5311 11.0561 14.057 10.6404 14.4283 10.0999C14.7996 9.55948 14.9989 8.91943 15 8.26372ZM11.75 10.5137H4.25C3.6689 10.5139 3.11028 10.2891 2.69126 9.88651C2.27223 9.48389 2.02533 8.93469 2.00231 8.35404C1.9793 7.77339 2.18195 7.20637 2.56779 6.77185C2.95364 6.33733 3.49271 6.06904 4.072 6.02322L4.47975 5.99127L4.5293 5.58527C4.63313 4.73781 5.04341 3.95762 5.68278 3.39179C6.32216 2.82596 7.14646 2.5136 8.00025 2.5136C8.85405 2.5136 9.67835 2.82596 10.3177 3.39179C10.9571 3.95762 11.3674 4.73781 11.4712 5.58527L11.5205 5.99127L11.9282 6.02322C12.5075 6.06904 13.0466 6.33734 13.4325 6.77189C13.8183 7.20643 14.0209 7.77348 13.9979 8.35414C13.9749 8.93481 13.7279 9.48401 13.3088 9.88661C12.8898 10.2892 12.3311 10.514 11.75 10.5137Z" fill="currentColor"/>
</svg>
