<svg viewBox="0 0 16 17" fill="none" xmlns="http://www.w3.org/2000/svg">
<rect width="16" height="16" transform="translate(0 0.513672)" fill="white" fill-opacity="0.01" style="mix-blend-mode:multiply"/>
<path d="M5.49999 15.5137C5.41475 15.5137 5.33092 15.4919 5.25647 15.4504C5.18202 15.4089 5.11942 15.3491 5.07461 15.2766C5.0298 15.204 5.00427 15.1213 5.00046 15.0361C4.99664 14.951 5.01465 14.8663 5.05279 14.79L6.05279 12.79C6.08184 12.7308 6.12234 12.6779 6.17194 12.6343C6.22155 12.5908 6.27927 12.5576 6.3418 12.5364C6.40432 12.5153 6.4704 12.5068 6.53623 12.5114C6.60206 12.5159 6.66634 12.5335 6.72536 12.563C6.78438 12.5925 6.83697 12.6334 6.88011 12.6834C6.92324 12.7333 6.95606 12.7913 6.97668 12.854C6.99729 12.9167 7.0053 12.9828 7.00023 13.0486C6.99516 13.1144 6.97711 13.1785 6.94714 13.2373L5.94714 15.2373C5.90571 15.3204 5.84191 15.3904 5.76291 15.4392C5.68392 15.488 5.59286 15.5138 5.49999 15.5137Z" fill="currentColor"/>
<path d="M12.4004 5.08182C12.1873 4.07268 11.6339 3.16744 10.8328 2.51781C10.0317 1.86819 9.03163 1.51367 8.00024 1.51367C6.96885 1.51367 5.9688 1.86819 5.1677 2.51781C4.3666 3.16744 3.81315 4.07268 3.60009 5.08182C2.81102 5.24259 2.10978 5.6907 1.6324 6.33922C1.15501 6.98775 0.935509 7.79046 1.01647 8.59166C1.09742 9.39287 1.47307 10.1354 2.07053 10.6754C2.668 11.2153 3.4447 11.5141 4.24999 11.5137H9.69064L9.05249 12.7901C9.02312 12.8488 9.0056 12.9128 9.00094 12.9783C8.99629 13.0438 9.00458 13.1095 9.02534 13.1718C9.0461 13.2341 9.07893 13.2917 9.12196 13.3413C9.16498 13.391 9.21735 13.4316 9.27609 13.461C9.33482 13.4903 9.39876 13.5079 9.46427 13.5125C9.52977 13.5172 9.59555 13.5089 9.65785 13.4881C9.78366 13.4462 9.88767 13.356 9.94699 13.2374L10.8088 11.5137H11.75C12.5552 11.5141 13.3319 11.2153 13.9294 10.6754C14.5268 10.1356 14.9025 9.39303 14.9835 8.59187C15.0646 7.7907 14.8451 6.988 14.3678 6.33944C13.8906 5.69089 13.1894 5.24271 12.4004 5.08182ZM11.75 10.5137H4.24999C3.66888 10.5139 3.11026 10.2891 2.69124 9.88651C2.27221 9.48389 2.02531 8.93469 2.00229 8.35404C1.97928 7.77339 2.18193 7.20637 2.56777 6.77185C2.95362 6.33733 3.49269 6.06904 4.07199 6.02322L4.47974 5.99127L4.52929 5.58527C4.63311 4.73781 5.04339 3.95762 5.68277 3.39179C6.32214 2.82596 7.14644 2.5136 8.00024 2.5136C8.85403 2.5136 9.67833 2.82596 10.3177 3.39179C10.9571 3.95762 11.3674 4.73781 11.4712 5.58527L11.5205 5.99127L11.9282 6.02322C12.5075 6.06904 13.0466 6.33734 13.4324 6.77189C13.8183 7.20643 14.0209 7.77348 13.9979 8.35414C13.9748 8.93481 13.7279 9.48401 13.3088 9.88661C12.8898 10.2892 12.3311 10.514 11.75 10.5137Z" fill="currentColor"/>
</svg>
