<svg viewBox="0 0 16 17" fill="none" xmlns="http://www.w3.org/2000/svg">
<g clip-path="url(#clip0_1961_11617)">
<rect width="16" height="16" transform="translate(0 0.513672)" fill="white" fill-opacity="0.01" style="mix-blend-mode:multiply"/>
<path d="M4.2543 16.5138C4.17648 16.5137 4.09974 16.4956 4.03005 16.461C3.97118 16.4318 3.91867 16.3912 3.87552 16.3417C3.83237 16.2921 3.79943 16.2345 3.77859 16.1722C3.75775 16.1098 3.74942 16.044 3.75408 15.9784C3.75874 15.9129 3.7763 15.8489 3.80575 15.7901L4.55245 14.2901C4.61253 14.1725 4.71662 14.0833 4.84209 14.042C4.96756 14.0007 5.10426 14.0106 5.22248 14.0695C5.34069 14.1285 5.43087 14.2317 5.4734 14.3568C5.51593 14.4818 5.50738 14.6186 5.4496 14.7374L4.7029 16.2374C4.6612 16.3206 4.59713 16.3905 4.51789 16.4394C4.43865 16.4882 4.34737 16.514 4.2543 16.5138Z" fill="currentColor"/>
<path d="M14.9222 7.03114C14.8661 6.91172 14.7798 6.80899 14.6719 6.73308C14.564 6.65717 14.4381 6.61069 14.3067 6.59824C13.6524 6.53112 13.0457 6.22568 12.602 5.74009C12.2213 5.31202 11.9611 4.79045 11.8482 4.22878C11.7354 3.66711 11.7738 3.08553 11.9595 2.54359C12.0032 2.41273 12.0123 2.27283 11.986 2.13743C11.9597 2.00202 11.8989 1.87568 11.8095 1.77064C11.7276 1.67388 11.6217 1.60026 11.5025 1.55708C11.3832 1.51391 11.2548 1.50269 11.1298 1.52454L11.1203 1.52599C10.3434 1.69372 9.63563 2.09322 9.09058 2.67172C8.54553 3.25021 8.18882 3.98047 8.0676 4.76599C7.64755 4.60205 7.20099 4.51657 6.7501 4.51379C5.95389 4.51808 5.17941 4.77398 4.53738 5.24491C3.89536 5.71583 3.41865 6.37768 3.1754 7.13584C2.47987 7.33398 1.87948 7.77699 1.485 8.38312C1.09052 8.98926 0.928587 9.71762 1.02907 10.4338C1.12955 11.15 1.48568 11.8057 2.03173 12.2798C2.57777 12.754 3.2769 13.0147 4.0001 13.0138H7.691L7.0531 14.2901C7.02252 14.349 7.00395 14.4133 6.99847 14.4794C6.99299 14.5455 7.00071 14.612 7.02118 14.6751C7.04166 14.7381 7.07447 14.7965 7.11772 14.8468C7.16096 14.8971 7.21378 14.9382 7.27308 14.9679C7.33239 14.9976 7.39701 15.0151 7.46317 15.0196C7.52933 15.024 7.59572 15.0153 7.65847 14.9938C7.72121 14.9724 7.77907 14.9387 7.82867 14.8947C7.87826 14.8506 7.9186 14.7972 7.94735 14.7374L8.80895 13.0138H9.5001C9.9435 13.0172 10.3821 12.9215 10.7838 12.7337C11.1854 12.5459 11.5401 12.2707 11.8219 11.9283C12.1036 11.5859 12.3054 11.1849 12.4123 10.7546C12.5193 10.3243 12.5288 9.8755 12.4401 9.44104C12.936 9.34414 13.4072 9.14803 13.8254 8.86449C14.2435 8.58095 14.6001 8.21583 14.8737 7.79104C14.947 7.67948 14.9901 7.55075 14.9986 7.41751C15.0071 7.28427 14.9808 7.15111 14.9222 7.03114ZM9.5001 12.0138H4.0001C3.49928 12.0147 3.01644 11.8273 2.64733 11.4888C2.27823 11.1503 2.04984 10.6854 2.00747 10.1864C1.96509 9.68738 2.11183 9.19066 2.41858 8.79478C2.72532 8.3989 3.16966 8.13277 3.66345 8.04919L3.99495 7.99279L4.06775 7.66469C4.20356 7.05455 4.54333 6.50894 5.03098 6.11791C5.51863 5.72687 6.12503 5.51377 6.7501 5.51377C7.37517 5.51377 7.98156 5.72687 8.46922 6.11791C8.95687 6.50894 9.29663 7.05455 9.43245 7.66469L9.50525 7.99279L9.83655 8.04919C10.3304 8.13263 10.7749 8.3987 11.0818 8.79458C11.3886 9.19047 11.5354 9.68725 11.4931 10.1863C11.4507 10.6854 11.2223 11.1504 10.8531 11.4889C10.4839 11.8274 10.001 12.0148 9.5001 12.0138ZM12.0755 8.48984C11.6873 7.83063 11.0605 7.34587 10.3248 7.13584C10.0886 6.39993 9.63093 5.75489 9.0144 5.28879C9.03802 4.70983 9.22852 4.15004 9.56296 3.67686C9.8974 3.20367 10.3615 2.83727 10.8994 2.62179C10.7424 3.28621 10.7486 3.97875 10.9175 4.64025C11.0864 5.30174 11.4129 5.91252 11.8691 6.42039C12.3883 6.9849 13.0701 7.37414 13.8201 7.53429C13.3801 8.06167 12.7569 8.40304 12.0755 8.48984Z" fill="currentColor"/>
</g>
<defs>
<clipPath id="clip0_1961_11617">
<rect width="16" height="16" fill="white" transform="translate(0 0.513672)"/>
</clipPath>
</defs>
</svg>
