<svg viewBox="0 0 16 17" fill="none" xmlns="http://www.w3.org/2000/svg">
<rect width="16" height="16" transform="translate(0 0.513672)" fill="white" fill-opacity="0.01" style="mix-blend-mode:multiply"/>
<path d="M8 12.5137V11.5137C8.3866 11.4803 8.74899 11.3115 9.02338 11.0371C9.29776 10.7627 9.46654 10.4003 9.5 10.0137H10.5C10.4677 10.6663 10.1939 11.2836 9.73191 11.7456C9.26989 12.2077 8.6526 12.4814 8 12.5137Z" fill="currentColor"/>
<path d="M8 14.5137C6.80699 14.5122 5.66327 14.0376 4.81969 13.194C3.9761 12.3504 3.50151 11.2067 3.5 10.0137C3.5269 9.13651 3.78457 8.2819 4.24705 7.53602L7.5764 2.23207C7.62448 2.16454 7.68802 2.10948 7.76171 2.07149C7.83539 2.03349 7.9171 2.01367 8 2.01367C8.0829 2.01367 8.16461 2.03349 8.23829 2.07149C8.31198 2.10948 8.37552 2.16454 8.4236 2.23207L11.7381 7.51027C12.2084 8.26295 12.4713 9.12664 12.5 10.0137C12.4985 11.2067 12.0239 12.3504 11.1803 13.194C10.3367 14.0376 9.19301 14.5122 8 14.5137ZM8 3.43787L5.10915 8.04182C4.73661 8.63429 4.52653 9.31436 4.5 10.0137C4.5 10.942 4.86875 11.8322 5.52513 12.4886C6.1815 13.145 7.07174 13.5137 8 13.5137C8.92826 13.5137 9.8185 13.145 10.4749 12.4886C11.1313 11.8322 11.5 10.942 11.5 10.0137C11.4715 9.30451 11.2563 8.6154 10.876 8.01607L8 3.43787Z" fill="currentColor"/>
</svg>
