<svg viewBox="0 0 16 17" fill="none" xmlns="http://www.w3.org/2000/svg">
<rect width="16" height="16" transform="translate(0 0.513672)" fill="white" fill-opacity="0.01" style="mix-blend-mode:multiply"/>
<path d="M11.7499 11.5139H4.24993C3.44813 11.5089 2.67651 11.2076 2.08342 10.668C1.49033 10.1284 1.11764 9.38863 1.03699 8.59088C0.956351 7.79314 1.17345 6.99373 1.64656 6.34637C2.11966 5.69901 2.81537 5.24939 3.59993 5.08395C3.81578 4.07721 4.37035 3.17493 5.17109 2.52768C5.97183 1.88043 6.97031 1.52734 7.99993 1.52734C9.02955 1.52734 10.028 1.88043 10.8288 2.52768C11.6295 3.17493 12.1841 4.07721 12.3999 5.08395C13.1845 5.24939 13.8802 5.69901 14.3533 6.34637C14.8264 6.99373 15.0435 7.79314 14.9629 8.59088C14.8822 9.38863 14.5095 10.1284 13.9164 10.668C13.3233 11.2076 12.5517 11.5089 11.7499 11.5139ZM7.99993 2.51395C7.14674 2.5148 6.32324 2.82726 5.68424 3.3926C5.04524 3.95794 4.63475 4.73722 4.52993 5.58395L4.49993 6.01395H4.06993C3.47319 6.03782 2.91038 6.29776 2.5053 6.7366C2.10022 7.17543 1.88606 7.75721 1.90993 8.35395C1.9338 8.95068 2.19374 9.5135 2.63258 9.91858C3.07141 10.3237 3.65319 10.5378 4.24993 10.5139H11.7499C12.3467 10.5378 12.9284 10.3237 13.3673 9.91858C13.8061 9.5135 14.0661 8.95068 14.0899 8.35395C14.1138 7.75721 13.8996 7.17543 13.4946 6.7366C13.0895 6.29776 12.5267 6.03782 11.9299 6.01395H11.4999L11.4499 5.60395C11.3501 4.757 10.9444 3.97566 10.3091 3.40669C9.67386 2.83772 8.85272 2.52026 7.99993 2.51395Z" fill="currentColor"/>
<path d="M6.99993 15.5139C6.92149 15.5149 6.84409 15.496 6.77493 15.4589C6.65717 15.399 6.56792 15.2949 6.5267 15.1693C6.48547 15.0438 6.49562 14.907 6.55493 14.7889L7.55493 12.7889C7.58136 12.7255 7.6206 12.6681 7.67019 12.6205C7.71979 12.5729 7.77867 12.536 7.84316 12.5122C7.90765 12.4883 7.97637 12.478 8.04501 12.482C8.11366 12.4859 8.18076 12.5039 8.24212 12.535C8.30348 12.566 8.35778 12.6093 8.40163 12.6623C8.44548 12.7152 8.47793 12.7767 8.49697 12.8427C8.516 12.9088 8.5212 12.9781 8.51225 13.0463C8.5033 13.1144 8.48038 13.18 8.44493 13.2389L7.44493 15.2389C7.40338 15.3214 7.33981 15.3907 7.26126 15.4393C7.18272 15.4878 7.09226 15.5137 6.99993 15.5139Z" fill="currentColor"/>
<path d="M9.99993 15.5139C9.92149 15.5149 9.84409 15.496 9.77493 15.4589C9.65717 15.399 9.56792 15.2949 9.5267 15.1693C9.48547 15.0438 9.49562 14.907 9.55493 14.7889L10.5549 12.7889C10.5814 12.7255 10.6206 12.6681 10.6702 12.6205C10.7198 12.5729 10.7787 12.536 10.8432 12.5122C10.9077 12.4883 10.9764 12.478 11.045 12.482C11.1137 12.4859 11.1808 12.5039 11.2421 12.535C11.3035 12.566 11.3578 12.6093 11.4016 12.6623C11.4455 12.7152 11.4779 12.7767 11.497 12.8427C11.516 12.9088 11.5212 12.9781 11.5122 13.0463C11.5033 13.1144 11.4804 13.18 11.4449 13.2389L10.4449 15.2389C10.4034 15.3214 10.3398 15.3907 10.2613 15.4393C10.1827 15.4878 10.0923 15.5137 9.99993 15.5139Z" fill="currentColor"/>
<path d="M3.99993 15.5139C3.92149 15.5149 3.84409 15.496 3.77493 15.4589C3.65717 15.399 3.56792 15.2949 3.5267 15.1693C3.48547 15.0438 3.49562 14.907 3.55493 14.7889L4.55493 12.7889C4.58136 12.7255 4.6206 12.6681 4.67019 12.6205C4.71979 12.5729 4.77867 12.536 4.84316 12.5122C4.90765 12.4883 4.97637 12.478 5.04501 12.482C5.11366 12.4859 5.18076 12.5039 5.24212 12.535C5.30348 12.566 5.35778 12.6093 5.40163 12.6623C5.44548 12.7152 5.47793 12.7767 5.49697 12.8427C5.516 12.9088 5.5212 12.9781 5.51225 13.0463C5.5033 13.1144 5.48038 13.18 5.44493 13.2389L4.44493 15.2389C4.40338 15.3214 4.33981 15.3907 4.26126 15.4393C4.18272 15.4878 4.09226 15.5137 3.99993 15.5139Z" fill="currentColor"/>
</svg>
