<svg viewBox="0 0 16 17" fill="none" xmlns="http://www.w3.org/2000/svg">
<g clip-path="url(#clip0_1961_11616)">
<rect width="16" height="16" transform="translate(0 0.513672)" fill="white" fill-opacity="0.01" style="mix-blend-mode:multiply"/>
<path d="M4.2542 16.5137C4.17639 16.5136 4.09966 16.4955 4.02995 16.461C3.97108 16.4317 3.91857 16.3912 3.87542 16.3416C3.83227 16.292 3.79933 16.2344 3.77849 16.1721C3.75765 16.1098 3.74932 16.0439 3.75398 15.9784C3.75864 15.9128 3.7762 15.8488 3.80565 15.7901L4.55235 14.2898C4.61243 14.1722 4.71652 14.083 4.84199 14.0417C4.96746 14.0004 5.10416 14.0103 5.22238 14.0692C5.34059 14.1282 5.43077 14.2314 5.4733 14.3564C5.51583 14.4815 5.50728 14.6183 5.4495 14.7371L4.7028 16.2371C4.66113 16.3203 4.59708 16.3903 4.51784 16.4392C4.43859 16.488 4.34729 16.5138 4.2542 16.5137Z" fill="currentColor"/>
<path d="M13.9392 8.24625L13.2323 8.95339L14.2931 10.0138L15 9.30666L13.9392 8.24625Z" fill="currentColor"/>
<path d="M16 5.51367H14.5V6.51367H16V5.51367Z" fill="currentColor"/>
<path d="M14.2929 2.01388L13.2321 3.07461L13.9393 3.78179L15 2.72105L14.2929 2.01388Z" fill="currentColor"/>
<path d="M11 0.513672H10V2.01367H11V0.513672Z" fill="currentColor"/>
<path d="M6.70709 2.0139L5.99991 2.72108L7.06064 3.78181L7.76782 3.07463L6.70709 2.0139Z" fill="currentColor"/>
<path d="M13.5 6.01367C13.5005 5.33736 13.2723 4.68074 12.8525 4.15051C12.4327 3.62027 11.8459 3.24758 11.1875 3.09298C10.5291 2.93838 9.83775 3.01097 9.22581 3.29894C8.61387 3.58691 8.11729 4.07335 7.81675 4.67922C7.47125 4.57182 7.11179 4.51604 6.75 4.51367C5.9538 4.51797 5.17934 4.77387 4.53733 5.2448C3.89532 5.71573 3.41863 6.37757 3.1754 7.13572C2.47988 7.33386 1.87949 7.77686 1.48501 8.38299C1.09054 8.98912 0.928593 9.71746 1.02906 10.4336C1.12953 11.1498 1.48564 11.8055 2.03167 12.2797C2.5777 12.7539 3.27681 13.0146 4 13.0137H7.6909L7.053 14.29C7.02242 14.3489 7.00385 14.4132 6.99837 14.4793C6.99289 14.5454 7.00061 14.6119 7.02108 14.675C7.04156 14.738 7.07437 14.7964 7.11762 14.8467C7.16086 14.8969 7.21368 14.9381 7.27298 14.9678C7.33229 14.9974 7.39691 15.015 7.46307 15.0195C7.52923 15.0239 7.59562 15.0152 7.65837 14.9937C7.72111 14.9723 7.77897 14.9386 7.82857 14.8945C7.87816 14.8505 7.9185 14.7971 7.94725 14.7373L8.80885 13.0137H9.5C10.0244 13.015 10.5399 12.8784 10.995 12.6178C11.45 12.3571 11.8285 11.9814 12.0927 11.5284C12.3568 11.0754 12.4973 10.5609 12.5 10.0365C12.5027 9.51215 12.3676 8.99625 12.1081 8.54052C12.534 8.27044 12.8848 7.89727 13.1281 7.45558C13.3714 7.01388 13.4993 6.51794 13.5 6.01367ZM9.5 12.0137H4C3.4991 12.0147 3.01613 11.8273 2.64693 11.4888C2.27773 11.1503 2.04928 10.6854 2.00691 10.1863C1.96454 9.68718 2.11136 9.19039 2.41821 8.79449C2.72507 8.39859 3.16955 8.13252 3.66345 8.04907L3.995 7.99267L4.0679 7.66457C4.20371 7.05443 4.54348 6.50883 5.03113 6.11779C5.51878 5.72675 6.12518 5.51365 6.75025 5.51365C7.37532 5.51365 7.98171 5.72675 8.46937 6.11779C8.95702 6.50883 9.29678 7.05443 9.4326 7.66457L9.5055 7.99267L9.8368 8.04907C10.3307 8.13252 10.7752 8.39861 11.0821 8.79454C11.3889 9.19046 11.5357 9.68728 11.4933 10.1864C11.4509 10.6855 11.2224 11.1505 10.8532 11.489C10.4839 11.8274 10.0009 12.0147 9.5 12.0137ZM11.4634 7.75832C11.1342 7.46964 10.7453 7.25707 10.3246 7.13572C10.0508 6.29067 9.48659 5.5699 8.73195 5.10132C8.87408 4.82363 9.0794 4.58317 9.33139 4.39928C9.58338 4.21539 9.87501 4.09321 10.1828 4.04257C10.4906 3.99192 10.806 4.01422 11.1037 4.10768C11.4013 4.20113 11.6728 4.36313 11.8964 4.58065C12.1201 4.79816 12.2895 5.06512 12.3911 5.36005C12.4928 5.65498 12.5238 5.96965 12.4817 6.27875C12.4395 6.58784 12.3255 6.88274 12.1486 7.13971C11.9718 7.39669 11.7371 7.60857 11.4634 7.75832Z" fill="currentColor"/>
</g>
<defs>
<clipPath id="clip0_1961_11616">
<rect width="16" height="16" fill="white" transform="translate(0 0.513672)"/>
</clipPath>
</defs>
</svg>
