<svg viewBox="0 0 16 17" fill="none" xmlns="http://www.w3.org/2000/svg">
<rect width="16" height="16" transform="translate(0 0.513672)" fill="white" fill-opacity="0.01" style="mix-blend-mode:multiply"/>
<path d="M7 6.51367C6.48464 6.52743 5.98482 6.33643 5.60997 5.98248C5.23512 5.62853 5.01579 5.14048 5 4.62517C5.00936 4.25726 5.12261 3.89951 5.32665 3.59322L6.585 1.72072C6.63336 1.65643 6.69601 1.60425 6.768 1.56832C6.83999 1.53239 6.91934 1.51369 6.9998 1.51369C7.08026 1.51369 7.15961 1.53239 7.2316 1.56832C7.30359 1.60425 7.36624 1.65643 7.4146 1.72072L8.6577 3.56867C8.87001 3.88109 8.98877 4.24761 9 4.62517C8.98421 5.14048 8.76488 5.62853 8.39003 5.98248C8.01518 6.33643 7.51536 6.52743 7 6.51367ZM7.00025 2.89527L6.1719 4.12652C6.06843 4.27305 6.00881 4.44601 6 4.62517C6.01584 4.87521 6.12982 5.10886 6.31711 5.27527C6.5044 5.44167 6.74984 5.52736 7 5.51367C7.25016 5.52736 7.4956 5.44167 7.68289 5.27527C7.87018 5.10886 7.98416 4.87521 8 4.62517C7.98876 4.43641 7.92369 4.25482 7.8125 4.10187L7.00025 2.89527Z" fill="currentColor"/>
<path d="M3.75 13.5137C3.03764 13.5291 2.3482 13.2616 1.83274 12.7696C1.31728 12.2777 1.01783 11.6015 1 10.8892C1.01041 10.3858 1.16181 9.89535 1.437 9.47367L3.245 6.78282C3.30063 6.69998 3.37578 6.63208 3.46383 6.58513C3.55188 6.53818 3.65013 6.5136 3.74992 6.51357C3.84971 6.51354 3.94797 6.53806 4.03605 6.58496C4.12413 6.63186 4.19932 6.69971 4.255 6.78252L6.03 9.42137C6.32356 9.85574 6.48665 10.3651 6.5 10.8892C6.48217 11.6015 6.18272 12.2777 5.66726 12.7696C5.1518 13.2616 4.46236 13.5291 3.75 13.5137ZM3.75 7.82367L2.28245 10.0071C2.10747 10.2688 2.0096 10.5745 2 10.8892C2.01777 11.3363 2.21184 11.7581 2.53977 12.0625C2.8677 12.367 3.30282 12.5292 3.75 12.5137C4.19718 12.5292 4.6323 12.367 4.96023 12.0625C5.28816 11.7581 5.48223 11.3363 5.5 10.8892C5.4884 10.5539 5.3789 10.2294 5.185 9.95567L3.75 7.82367Z" fill="currentColor"/>
<path d="M12.5 1.51367L10 4.01367L10.7071 4.72072L12 3.42772V8.51367C11.9994 9.04392 11.7885 9.55228 11.4136 9.92723C11.0386 10.3022 10.5303 10.5131 10 10.5137H8V11.5137H10C10.7954 11.5128 11.5579 11.1964 12.1204 10.634C12.6828 10.0716 12.9991 9.30905 13 8.51367V3.42772L14.2929 4.72072L15 4.01367L12.5 1.51367Z" fill="currentColor"/>
<path d="M15 14.5137H1V15.5137H15V14.5137Z" fill="currentColor"/>
</svg>
