<svg viewBox="0 0 16 16" fill="none" xmlns="http://www.w3.org/2000/svg">
<rect width="16" height="16" fill="white" fill-opacity="0.01" style="mix-blend-mode:multiply"/>
<path d="M9 13.5C9.27614 13.5 9.5 13.2761 9.5 13C9.5 12.7239 9.27614 12.5 9 12.5C8.72386 12.5 8.5 12.7239 8.5 13C8.5 13.2761 8.72386 13.5 9 13.5Z" fill="currentColor"/>
<path d="M14 10C14.5514 10 15 9.55125 15 9V7C15 6.44875 14.5514 6 14 6H13.5V3.5C13.5 2.94875 13.0514 2.5 12.5 2.5H10V2C10 1.44875 9.5514 1 9 1H7C6.4486 1 6 1.44875 6 2V2.5H3.5C2.9486 2.5 2.5 2.94875 2.5 3.5V6.07105C1.6399 6.2947 1 7.0708 1 8C1 8.9292 1.6399 9.7053 2.5 9.92895V12.5C2.5 13.0512 2.9486 13.5 3.5 13.5H7V14C7 14.5512 7.4486 15 8 15H14C14.5514 15 15 14.5512 15 14V12C15 11.4488 14.5514 11 14 11H13.5V10H14ZM14 9H12V7H14V9ZM7 2H9V4H7V2ZM6 3.5V4C6 4.55125 6.4486 5 7 5H9C9.5514 5 10 4.55125 10 4V3.5H12.5V6H12C11.4486 6 11 6.44875 11 7V7.5H4.92895C4.74705 6.80055 4.19935 6.25295 3.5 6.07105V3.5H6ZM2 8C2 7.44875 2.4486 7 3 7C3.5514 7 4 7.44875 4 8C4 8.55125 3.5514 9 3 9C2.4486 9 2 8.55125 2 8ZM14 14H8V12H14V14ZM12.5 11H8C7.4486 11 7 11.4488 7 12V12.5H3.5V9.92895C4.19935 9.74705 4.74705 9.19945 4.92895 8.5H11V9C11 9.55125 11.4486 10 12 10H12.5V11Z" fill="currentColor"/>
</svg>
