<svg viewBox="0 0 16 17" fill="none" xmlns="http://www.w3.org/2000/svg">
<rect width="16" height="16" transform="translate(0 0.513672)" fill="white" fill-opacity="0.01" style="mix-blend-mode:multiply"/>
<path d="M15 12.2046L14 11.7046V10.5137C13.9988 9.80536 13.7473 9.12027 13.2898 8.57952C12.8323 8.03877 12.1983 7.67718 11.5 7.55867V6.51367H10.5V7.55867C9.80167 7.67718 9.16772 8.03877 8.71023 8.57952C8.25274 9.12027 8.00118 9.80536 8 10.5137V11.7046L7 12.2046V14.5137H10V15.5137H12V14.5137H15V12.2046ZM14 13.5137H8V12.8228L9 12.3228V10.5137C9 9.98324 9.21071 9.47453 9.58579 9.09946C9.96086 8.72439 10.4696 8.51367 11 8.51367C11.5304 8.51367 12.0391 8.72439 12.4142 9.09946C12.7893 9.47453 13 9.98324 13 10.5137V12.3228L14 12.8228V13.5137Z" fill="currentColor"/>
<path d="M14 3.51367C14 3.24846 13.8946 2.9941 13.7071 2.80657C13.5196 2.61903 13.2652 2.51367 13 2.51367H11V1.51367H10V2.51367H6V1.51367H5V2.51367H3C2.73478 2.51367 2.48043 2.61903 2.29289 2.80657C2.10536 2.9941 2 3.24846 2 3.51367V13.5137C2 13.7789 2.10536 14.0332 2.29289 14.2208C2.48043 14.4083 2.73478 14.5137 3 14.5137H5V13.5137H3V3.51367H5V4.51367H6V3.51367H10V4.51367H11V3.51367H13V6.51367H14V3.51367Z" fill="currentColor"/>
</svg>
