<svg viewBox="0 0 16 16" fill="none" xmlns="http://www.w3.org/2000/svg">
<rect width="16" height="16" fill="white" fill-opacity="0.01" style="mix-blend-mode:multiply"/>
<path d="M11.8 10.7L13.6 12.5L11.8 14.3L12.5 15L15 12.5L12.5 10L11.8 10.7Z" fill="currentColor"/>
<path d="M10.2 10.7L8.4 12.5L10.2 14.3L9.5 15L7 12.5L9.5 10L10.2 10.7Z" fill="currentColor"/>
<path d="M14 4H8L6.3 2.3C6.1 2.1 5.85 2 5.6 2H2C1.45 2 1 2.45 1 3V13C1 13.55 1.45 14 2 14H5.5V13H2V3H5.6L7.6 5H14V9H15V5C15 4.45 14.55 4 14 4Z" fill="currentColor"/>
</svg>
