<svg viewBox="0 0 16 17" fill="none" xmlns="http://www.w3.org/2000/svg">
<rect width="16" height="16" transform="translate(0 0.513672)" fill="white" fill-opacity="0.01" style="mix-blend-mode:multiply"/>
<path d="M8.5894 9.26162C8.5894 7.84327 9.35445 6.92342 10.6697 6.92342C12.071 6.92342 12.7157 7.95497 12.7157 9.18427V9.54532H9.73275V9.65707C9.73275 10.3018 10.1024 10.7402 10.8245 10.7402C11.3661 10.7402 11.6927 10.4823 11.9678 10.1299L12.561 10.7918C12.1914 11.299 11.538 11.6171 10.7041 11.6171C9.38035 11.6171 8.5894 10.6972 8.5894 9.26162ZM9.73275 8.79742V8.86627H11.5723V8.78887C11.5723 8.16992 11.2542 7.74872 10.6869 7.74872C10.1109 7.74872 9.73275 8.17852 9.73275 8.79742Z" fill="currentColor"/>
<path d="M4.6347 11.5137H3.50005V5.51367H6.20775C7.2995 5.51367 7.97855 6.23572 7.97855 7.37042C7.97855 8.19562 7.6003 8.82312 6.8611 9.07237L8.0903 11.5137H6.82675L5.7093 9.20132H4.6347V11.5137ZM6.19545 8.24717C6.6339 8.24717 6.9003 8.00652 6.9003 7.56812V7.17267C6.9003 6.73422 6.6339 6.50217 6.19545 6.50217H4.7341V8.24712L6.19545 8.24717Z" fill="currentColor"/>
<path d="M14 15.5137H2C1.4477 15.5137 1 15.066 1 14.5137V2.51367C1 1.96137 1.4477 1.51367 2 1.51367H14C14.5523 1.51367 15 1.96137 15 2.51367V14.5137C15 15.066 14.5523 15.5137 14 15.5137ZM2 14.5137H14V2.51367H2V14.5137Z" fill="currentColor"/>
</svg>
