<svg viewBox="0 0 16 17" fill="none" xmlns="http://www.w3.org/2000/svg">
<rect width="16" height="16" transform="translate(0 0.513672)" fill="white" fill-opacity="0.01" style="mix-blend-mode:multiply"/>
<path d="M8.5894 9.26162C8.5894 7.84327 9.35445 6.92342 10.6697 6.92342C12.071 6.92342 12.7157 7.95497 12.7157 9.18427V9.54532H9.73275V9.65707C9.73275 10.3018 10.1024 10.7402 10.8245 10.7402C11.3661 10.7402 11.6927 10.4823 11.9678 10.1299L12.561 10.7918C12.1914 11.299 11.538 11.6171 10.7041 11.6171C9.38035 11.6171 8.5894 10.6972 8.5894 9.26162ZM9.73275 8.79742V8.86627H11.5723V8.78887C11.5723 8.16992 11.2542 7.74872 10.6869 7.74872C10.1109 7.74872 9.73275 8.17852 9.73275 8.79742Z" fill="currentColor"/>
<path d="M4.6347 11.5137H3.50005V5.51367H6.20775C7.2995 5.51367 7.97855 6.23572 7.97855 7.37042C7.97855 8.19562 7.6003 8.82312 6.8611 9.07237L8.0903 11.5137H6.82675L5.7093 9.20132H4.6347V11.5137ZM6.19545 8.24717C6.6339 8.24717 6.9003 8.00652 6.9003 7.56812V7.17267C6.9003 6.73422 6.6339 6.50217 6.19545 6.50217H4.7341V8.24712L6.19545 8.24717Z" fill="currentColor"/>
<path d="M10.5 15.5137H5.5C3.0187 15.5137 1 13.495 1 11.0137V6.01367C1 3.53237 3.0187 1.51367 5.5 1.51367H10.5C12.9813 1.51367 15 3.53237 15 6.01367V11.0137C15 13.495 12.9813 15.5137 10.5 15.5137ZM5.5 2.51367C3.57005 2.51367 2 4.08372 2 6.01367V11.0137C2 12.9436 3.57005 14.5137 5.5 14.5137H10.5C12.4299 14.5137 14 12.9436 14 11.0137V6.01367C14 4.08372 12.4299 2.51367 10.5 2.51367H5.5Z" fill="currentColor"/>
</svg>
