<svg viewBox="0 0 16 17" fill="none" xmlns="http://www.w3.org/2000/svg">
<rect width="16" height="16" transform="translate(0 0.513672)" fill="white" fill-opacity="0.01" style="mix-blend-mode:multiply"/>
<path d="M5.5 1.5139H4.5V6.5139H5.5V1.5139Z" fill="currentColor"/>
<path d="M7 6.0139C7 6.54433 6.78929 7.05304 6.41421 7.42811C6.03914 7.80318 5.53043 8.0139 5 8.0139C4.46957 8.0139 3.96086 7.80318 3.58579 7.42811C3.21071 7.05304 3 6.54433 3 6.0139V1.5139H2V6.0139C2.00072 6.72234 2.25212 7.40766 2.70969 7.94851C3.16726 8.48936 3.80147 8.85082 4.5 8.9689V15.5139H5.5V8.9689C6.19853 8.85082 6.83274 8.48936 7.29031 7.94851C7.74788 7.40766 7.99928 6.72234 8 6.0139V1.5139H7V6.0139Z" fill="currentColor"/>
<path d="M11 1.5139H10.5V15.5139H11.5V10.5139H13C13.2652 10.5139 13.5196 10.4085 13.7071 10.221C13.8946 10.0335 14 9.77911 14 9.5139V4.5139C14.0155 4.11579 13.9484 3.71878 13.8032 3.3478C13.6579 2.97683 13.4374 2.6399 13.1557 2.35818C12.874 2.07646 12.5371 1.85603 12.1661 1.71074C11.7951 1.56545 11.3981 1.49843 11 1.5139ZM13 9.5139H11.5V2.5589C12.94 2.8389 13 4.3289 13 4.5139V9.5139Z" fill="currentColor"/>
</svg>
