<svg viewBox="0 0 16 17" fill="none" xmlns="http://www.w3.org/2000/svg">
<rect width="16" height="16" transform="translate(0 0.513672)" fill="white" fill-opacity="0.01" style="mix-blend-mode:multiply"/>
<path d="M15 6.01392V2.01392C15 1.88131 14.9473 1.75414 14.8536 1.66037C14.7598 1.5666 14.6326 1.51392 14.5 1.51392H9.5C9.36739 1.51392 9.24021 1.5666 9.14645 1.66037C9.05268 1.75414 9 1.88131 9 2.01392V6.01392C9.00117 6.72221 9.25274 7.40728 9.71023 7.94799C10.1677 8.48871 10.8017 8.85024 11.5 8.96867V14.5137H9.5V15.5137H14.5V14.5137H12.5V8.96867C13.1983 8.85024 13.8323 8.48871 14.2898 7.94799C14.7473 7.40728 14.9988 6.72221 15 6.01392ZM10 6.01392V2.51367H14V6.01392C14 6.54435 13.7893 7.05306 13.4142 7.42814C13.0391 7.80321 12.5304 8.01392 12 8.01392C11.4696 8.01392 10.9609 7.80321 10.5858 7.42814C10.2107 7.05306 10 6.54435 10 6.01392Z" fill="currentColor"/>
<path d="M6 1.51367V6.02367C5.99942 6.54862 5.79062 7.0519 5.41943 7.4231C5.04823 7.7943 4.54495 8.00309 4.02 8.00367C3.48976 8.00831 2.97933 7.80247 2.60065 7.43129C2.22197 7.06011 2.00596 6.5539 2 6.02367V1.51367H1V6.02367C1.00488 6.72856 1.25827 7.40913 1.71557 7.94556C2.17288 8.482 2.80477 8.8399 3.5 8.95627V15.5137H4.5V8.96132C5.19712 8.84708 5.83106 8.48909 6.28889 7.95111C6.74672 7.41313 6.99872 6.73009 7 6.02367V1.51367H6Z" fill="currentColor"/>
<path d="M4.5 1.51367H3.5V6.50367H4.5V1.51367Z" fill="currentColor"/>
</svg>
