<svg viewBox="0 0 16 17" fill="none" xmlns="http://www.w3.org/2000/svg">
<rect width="16" height="16" transform="translate(0 0.513672)" fill="white" fill-opacity="0.01" style="mix-blend-mode:multiply"/>
<path d="M9.5 7.01367H6.5V8.01367H9.5V7.01367Z" fill="currentColor"/>
<path d="M12.7205 4.51367L12.0843 2.23867C12.0239 2.03015 11.8976 1.84681 11.7243 1.71611C11.5509 1.58541 11.3399 1.51438 11.1228 1.51367H4.8772C4.66006 1.5144 4.449 1.58547 4.27564 1.71624C4.10229 1.847 3.97599 2.03043 3.91565 2.23902L3.26575 4.51367H2V5.51367H3V9.01367C3.00033 9.27879 3.10579 9.53295 3.29326 9.72041C3.48072 9.90788 3.73488 10.0133 4 10.0137V11.5137H5V10.0137H11V11.5137H12V10.0137C12.2651 10.0133 12.5193 9.90788 12.7067 9.72041C12.8942 9.53295 12.9997 9.27879 13 9.01367V5.51367H14V4.51367H12.7205ZM4.8772 2.51367H11.1229L11.8371 5.01367H4.16285L4.8772 2.51367ZM12 7.01367H11V8.01367H12V9.01367H4V8.01367H5V7.01367H4V6.01367H12V7.01367Z" fill="currentColor"/>
<path d="M2 8.51367H1V15.5137H2V8.51367Z" fill="currentColor"/>
<path d="M15 8.51367H14V15.5137H15V8.51367Z" fill="currentColor"/>
<path d="M8.5 11.0137H7.5V12.5137H8.5V11.0137Z" fill="currentColor"/>
<path d="M8.5 13.5137H7.5V15.5137H8.5V13.5137Z" fill="currentColor"/>
</svg>
