<svg viewBox="0 0 16 17" fill="none" xmlns="http://www.w3.org/2000/svg">
<rect width="16" height="16" transform="translate(0 0.513672)" fill="white" fill-opacity="0.01" style="mix-blend-mode:multiply"/>
<path d="M7.64264 8.161L3.64395 12.1597L4.35106 12.8668L8.34975 8.86811L7.64264 8.161Z" fill="currentColor"/>
<path d="M8.49991 15.5137C8.43658 15.5139 8.3738 15.502 8.31491 15.4787C8.233 15.446 8.16117 15.3923 8.10673 15.3229C8.05229 15.2536 8.01716 15.171 8.00491 15.0837L7.50491 11.5837L8.50491 11.4437L8.87991 14.0787L10.4999 12.7737V9.0137C10.4995 8.9479 10.5121 8.88267 10.537 8.82175C10.5619 8.76083 10.5986 8.70542 10.6449 8.6587L12.6799 6.6237C13.0992 6.20723 13.4318 5.71174 13.6584 5.16589C13.8849 4.62005 14.001 4.0347 13.9999 3.4437V2.5137H13.0699C12.4789 2.51258 11.8936 2.62866 11.3477 2.85524C10.8019 3.08182 10.3064 3.41438 9.88991 3.8337L7.85491 5.8687C7.80819 5.91504 7.75278 5.95171 7.69186 5.97659C7.63094 6.00147 7.56571 6.01408 7.49991 6.0137H3.73991L2.43491 7.6437L5.06991 8.0187L4.92991 9.0187L1.42991 8.5187C1.34258 8.50645 1.26005 8.47132 1.19067 8.41688C1.1213 8.36244 1.06757 8.29062 1.03491 8.2087C1.00185 8.12622 0.991373 8.03641 1.00456 7.94852C1.01774 7.86064 1.0541 7.77786 1.10991 7.7087L3.10991 5.2087C3.15597 5.14886 3.21499 5.10022 3.28253 5.06645C3.35008 5.03268 3.4244 5.01464 3.49991 5.0137H7.29491L9.17991 3.1237C9.68949 2.61126 10.2957 2.20507 10.9635 1.9287C11.6312 1.65233 12.3472 1.51127 13.0699 1.5137H13.9999C14.2651 1.5137 14.5195 1.61906 14.707 1.8066C14.8946 1.99413 14.9999 2.24849 14.9999 2.5137V3.4437C15.0023 4.16639 14.8613 4.88236 14.5849 5.55012C14.3085 6.21787 13.9024 6.82412 13.3899 7.3337L11.4999 9.2187V13.0137C11.4996 13.0888 11.4823 13.1629 11.4494 13.2304C11.4165 13.2979 11.3688 13.3571 11.3099 13.4037L8.80991 15.4037C8.72194 15.4743 8.61269 15.513 8.49991 15.5137Z" fill="currentColor"/>
</svg>
