<svg viewBox="0 0 16 17" fill="none" xmlns="http://www.w3.org/2000/svg">
<rect width="16" height="16" transform="translate(0 0.513672)" fill="white" fill-opacity="0.01" style="mix-blend-mode:multiply"/>
<path d="M8 8.01366C8.41421 8.01366 8.75 7.67788 8.75 7.26366C8.75 6.84945 8.41421 6.51366 8 6.51366C7.58579 6.51366 7.25 6.84945 7.25 7.26366C7.25 7.67788 7.58579 8.01366 8 8.01366Z" fill="currentColor"/>
<path d="M9.7678 5.74606C9.53565 5.51387 9.26003 5.32968 8.95669 5.20402C8.65334 5.07835 8.32822 5.01367 7.99988 5.01367C7.67153 5.01367 7.34641 5.07835 7.04306 5.20402C6.73972 5.32968 6.4641 5.51387 6.23195 5.74606L5.525 5.03906C5.84998 4.71397 6.23583 4.45609 6.66049 4.28015C7.08516 4.1042 7.54033 4.01364 8 4.01364C8.45967 4.01364 8.91484 4.1042 9.33951 4.28015C9.76417 4.45609 10.15 4.71397 10.475 5.03906L9.7678 5.74606Z" fill="currentColor"/>
<path d="M11.5357 3.97816C11.0714 3.51383 10.5201 3.14551 9.91349 2.89421C9.30684 2.64292 8.65664 2.51358 8 2.51358C7.34336 2.51358 6.69316 2.64292 6.08651 2.89421C5.47986 3.14551 4.92865 3.51383 4.46435 3.97816L3.7573 3.27086C4.88259 2.14574 6.40872 1.51367 8 1.51367C9.59128 1.51367 11.1174 2.14574 12.2427 3.27086L11.5357 3.97816Z" fill="currentColor"/>
<path d="M10.5 13.0137L8 15.5137L5.5 13.0137L6.2045 12.3042L7.5 13.5902V10.0137H8.5V13.6167L9.7955 12.3042L10.5 13.0137Z" fill="currentColor"/>
<path d="M12 6.01366L9.5 8.51366L12 11.0137L12.7095 10.3092L11.4235 9.01366H15V8.01366H11.397L12.7095 6.71816L12 6.01366Z" fill="currentColor"/>
<path d="M4 6.01366L6.5 8.51366L4 11.0137L3.2905 10.3092L4.5765 9.01366H1V8.01366H4.603L3.2905 6.71816L4 6.01366Z" fill="currentColor"/>
</svg>
