<svg viewBox="0 0 16 17" fill="none" xmlns="http://www.w3.org/2000/svg">
<rect width="16" height="16" transform="translate(0 0.513672)" fill="white" fill-opacity="0.01" style="mix-blend-mode:multiply"/>
<path d="M10.5 4.01367L8 1.51367L5.5 4.01367L6.2045 4.72317L7.5 3.43717V7.01367H8.5V3.41067L9.7955 4.72317L10.5 4.01367Z" fill="currentColor"/>
<path d="M10.5 13.0137L8 15.5137L5.5 13.0137L6.2045 12.3042L7.5 13.5902V10.0137H8.5V13.6167L9.7955 12.3042L10.5 13.0137Z" fill="currentColor"/>
<path d="M12 6.01367L9.5 8.51367L12 11.0137L12.7095 10.3092L11.4235 9.01367H15V8.01367H11.397L12.7095 6.71817L12 6.01367Z" fill="currentColor"/>
<path d="M4 6.01367L6.5 8.51367L4 11.0137L3.2905 10.3092L4.5765 9.01367H1V8.01367H4.603L3.2905 6.71817L4 6.01367Z" fill="currentColor"/>
</svg>
