<svg viewBox="0 0 16 17" fill="none" xmlns="http://www.w3.org/2000/svg">
<rect width="16" height="16" transform="translate(0 0.513672)" fill="white" fill-opacity="0.01" style="mix-blend-mode:multiply"/>
<path d="M10.5 13.0137L8 15.5137L5.5 13.0137L6.2045 12.3042L7.5 13.5902V10.0137H8.5V13.6167L9.7955 12.3042L10.5 13.0137Z" fill="currentColor"/>
<path d="M12 6.01367L9.5 8.51367L12 11.0137L12.7095 10.3092L11.4235 9.01367H15V8.01367H11.397L12.7095 6.71817L12 6.01367Z" fill="currentColor"/>
<path d="M4 6.01367L6.5 8.51367L4 11.0137L3.2905 10.3092L4.5765 9.01367H1V8.01367H4.603L3.2905 6.71817L4 6.01367Z" fill="currentColor"/>
<path d="M6.21445 3.42502V4.24002C6.21376 4.3491 6.18143 4.45564 6.12137 4.5467C6.06131 4.63777 5.9761 4.70944 5.8761 4.75302L5.1811 5.05137C5.07911 5.09442 4.96666 5.10633 4.85792 5.0856C4.74917 5.06487 4.649 5.01242 4.57 4.93487L3.6604 4.02532C3.60897 3.97307 3.56833 3.9112 3.54081 3.84325C3.51329 3.77529 3.49942 3.70259 3.5 3.62927C3.50058 3.55596 3.5156 3.48348 3.54419 3.41597C3.57279 3.34846 3.6144 3.28724 3.66665 3.23582L3.68405 3.21942C7.38055 -0.0440829 11.0297 2.20072 12.2904 3.19577C12.406 3.28825 12.4802 3.42287 12.4965 3.57001C12.5129 3.71716 12.4702 3.86478 12.3777 3.98042C12.3641 3.99745 12.3495 4.01366 12.3341 4.02897L11.4554 4.90757C11.3768 4.98575 11.2765 5.03862 11.1676 5.05937C11.0587 5.08012 10.946 5.06781 10.8441 5.02402L10.1491 4.72567C10.0485 4.6833 9.96261 4.61222 9.90214 4.52132C9.84167 4.43041 9.80933 4.3237 9.80915 4.21452V3.39952C9.80915 3.39952 7.9863 2.04607 6.21445 3.42502Z" fill="currentColor"/>
</svg>
