<svg viewBox="0 0 16 17" fill="none" xmlns="http://www.w3.org/2000/svg">
<rect width="16" height="16" transform="translate(0 0.513672)" fill="white" fill-opacity="0.01" style="mix-blend-mode:multiply"/>
<path d="M14 12.5137H2V13.5137H14V12.5137Z" fill="currentColor"/>
<path d="M13 9.51367H3V7.51367H13V9.51367ZM14 9.51367V7.51367C14 7.24846 13.8946 6.9941 13.7071 6.80657C13.5196 6.61903 13.2652 6.51367 13 6.51367H3C2.73478 6.51367 2.48043 6.61903 2.29289 6.80657C2.10536 6.9941 2 7.24846 2 7.51367V9.51367C2 9.77889 2.10536 10.0332 2.29289 10.2208C2.48043 10.4083 2.73478 10.5137 3 10.5137H13C13.2652 10.5137 13.5196 10.4083 13.7071 10.2208C13.8946 10.0332 14 9.77889 14 9.51367Z" fill="currentColor"/>
<path d="M14 3.51367H2V4.51367H14V3.51367Z" fill="currentColor"/>
</svg>
