<svg viewBox="0 0 16 16" fill="none" xmlns="http://www.w3.org/2000/svg">
<rect width="16" height="16" fill="white" fill-opacity="0.01" style="mix-blend-mode:multiply"/>
<path d="M4.5 9.5V12.5L7 11L4.5 9.5Z" fill="currentColor"/>
<path d="M5.5 8C7.15 8 8.5 9.35 8.5 11C8.5 12.65 7.15 14 5.5 14C3.85 14 2.5 12.65 2.5 11C2.5 9.35 3.85 8 5.5 8ZM5.5 7C3.3 7 1.5 8.8 1.5 11C1.5 13.2 3.3 15 5.5 15C7.7 15 9.5 13.2 9.5 11C9.5 8.8 7.7 7 5.5 7Z" fill="currentColor"/>
<path d="M2 3V6H13V13H11V14H13C13.55 14 14 13.55 14 13V3C14 2.45 13.55 2 13 2H3C2.45 2 2 2.45 2 3ZM3 5V3H13V5H3Z" fill="currentColor"/>
</svg>
