<svg viewBox="0 0 16 17" fill="none" xmlns="http://www.w3.org/2000/svg">
<rect width="16" height="16" transform="translate(0 0.513672)" fill="white" fill-opacity="0.01" style="mix-blend-mode:multiply"/>
<path d="M10.8535 10.6602L8.3535 8.16017C8.25595 8.06252 8.128 8.01367 8 8.01367C7.872 8.01367 7.744 8.06252 7.6465 8.16017L1 14.8066L1.70715 15.5137L8 9.22072L9.79285 11.0137L7 13.8066L7.70715 14.5137L10.8535 11.3672C10.9512 11.2695 11 11.1416 11 11.0137C11 10.8858 10.9512 10.7578 10.8535 10.6602Z" fill="currentColor"/>
<path d="M14.2929 5.01367L11.5 7.80662L8.4994 4.80587C8.3034 4.60997 8.04575 4.51262 7.7884 4.51362C7.5336 4.51462 7.27915 4.61202 7.08525 4.80587L4.00005 7.89352L4.7072 8.60057L7.7924 5.51317L11.1465 8.86717C11.2441 8.96482 11.3721 9.01367 11.5 9.01367C11.6279 9.01367 11.756 8.96482 11.8535 8.86717L15 5.72067L14.2929 5.01367Z" fill="currentColor"/>
<path d="M11.25 5.01367C10.285 5.01367 9.5 4.22862 9.5 3.26367C9.5 2.29872 10.285 1.51367 11.25 1.51367C12.215 1.51367 13 2.29872 13 3.26367C13 4.22862 12.215 5.01367 11.25 5.01367ZM11.25 2.51367C10.8365 2.51367 10.5 2.85012 10.5 3.26367C10.5 3.67722 10.8365 4.01367 11.25 4.01367C11.6635 4.01367 12 3.67722 12 3.26367C12 2.85012 11.6635 2.51367 11.25 2.51367Z" fill="currentColor"/>
</svg>
