<svg viewBox="0 0 16 17" fill="none" xmlns="http://www.w3.org/2000/svg">
<rect width="16" height="16" transform="translate(0 0.513672)" fill="white" fill-opacity="0.01" style="mix-blend-mode:multiply"/>
<path d="M3.48436 13.0137H4.51516L4.14016 11.5137H11.8594L11.4844 13.0137H12.5152L12.9849 11.1348C13.0033 11.0611 13.0046 10.9842 12.9888 10.9099C12.9731 10.8356 12.9406 10.7658 12.8938 10.706C12.847 10.6461 12.7873 10.5977 12.719 10.5644C12.6507 10.531 12.5757 10.5137 12.4998 10.5137H9.99976V9.01373H12.4998C12.5837 9.01374 12.6662 8.99264 12.7398 8.95237C12.8134 8.9121 12.8757 8.85395 12.921 8.78328C12.9662 8.71261 12.9929 8.63169 12.9987 8.54798C13.0044 8.46428 12.989 8.38047 12.9539 8.30428L9.95386 1.80428C9.91777 1.72609 9.8621 1.65854 9.79225 1.60817C9.72239 1.5578 9.64072 1.52631 9.55513 1.51676C9.46954 1.50721 9.38294 1.51991 9.3037 1.55363C9.22446 1.58736 9.15526 1.64097 9.10281 1.70928L4.10351 8.20903C4.04663 8.28304 4.0116 8.37149 4.00239 8.46437C3.99317 8.55726 4.01014 8.65087 4.05138 8.73461C4.09261 8.81835 4.15647 8.88888 4.23571 8.9382C4.31495 8.98753 4.40642 9.01369 4.49976 9.01373H8.99976V10.5137H3.49976C3.4238 10.5137 3.34885 10.5311 3.28058 10.5644C3.21232 10.5977 3.15254 10.6461 3.10579 10.706C3.05904 10.7659 3.02655 10.8356 3.01077 10.9099C2.995 10.9842 2.99637 11.0611 3.01476 11.1348L3.48436 13.0137ZM9.99976 4.29008L11.7183 8.01373H9.99976V4.29008ZM5.51516 8.01373L8.99976 3.48373V8.01373H5.51516Z" fill="currentColor"/>
<path d="M13.4527 13.3892C13.3696 13.7113 13.1817 13.9966 12.9187 14.2002C12.6556 14.4037 12.3324 14.514 11.9998 14.5137C11.6592 14.4939 11.3323 14.3731 11.0606 14.1669C10.789 13.9606 10.5848 13.6782 10.4741 13.3555C10.4405 13.2563 10.3767 13.17 10.2916 13.1087C10.2066 13.0475 10.1046 13.0142 9.99976 13.0137C9.8951 13.0129 9.79289 13.0454 9.70783 13.1063C9.62276 13.1673 9.55923 13.2537 9.52636 13.3531C9.41589 13.6762 9.2117 13.9592 8.93983 14.1659C8.66796 14.3726 8.3407 14.4937 7.99976 14.5137C7.65924 14.4939 7.33233 14.3731 7.06065 14.1669C6.78896 13.9606 6.58479 13.6782 6.47411 13.3555C6.44046 13.2563 6.37666 13.17 6.29163 13.1087C6.2066 13.0475 6.10457 13.0142 5.99976 13.0137C5.89477 13.0115 5.79188 13.0433 5.70652 13.1045C5.62117 13.1657 5.55795 13.2529 5.52636 13.3531C5.41589 13.6762 5.2117 13.9592 4.93983 14.1659C4.66796 14.3726 4.3407 14.4937 3.99976 14.5137C3.66715 14.514 3.34388 14.4037 3.08085 14.2002C2.81781 13.9966 2.62996 13.7113 2.54686 13.3892L1.57861 13.6382C1.71683 14.1752 2.02976 14.6509 2.4681 14.9905C2.90644 15.33 3.44529 15.5141 3.99976 15.5137C4.3878 15.5172 4.77117 15.429 5.1187 15.2563C5.46623 15.0836 5.7681 14.8314 5.99976 14.5201C6.23381 14.8289 6.53616 15.0792 6.88314 15.2516C7.23013 15.424 7.61232 15.5137 7.99976 15.5137C8.38721 15.5137 8.7694 15.424 9.11638 15.2516C9.46337 15.0792 9.76572 14.8289 9.99976 14.5201C10.2314 14.8314 10.5333 15.0836 10.8808 15.2563C11.2284 15.429 11.6117 15.5172 11.9998 15.5137C12.5542 15.5141 13.0931 15.33 13.5314 14.9905C13.9698 14.6509 14.2827 14.1752 14.4209 13.6382L13.4527 13.3892Z" fill="currentColor"/>
</svg>
