<svg viewBox="0 0 16 17" fill="none" xmlns="http://www.w3.org/2000/svg">
<rect width="16" height="16" transform="translate(0 0.513672)" fill="white" fill-opacity="0.01" style="mix-blend-mode:multiply"/>
<path d="M15 3.51367V2.51367H13.5V1.51367H12.5V2.51367H12C11.4486 2.51367 11 2.96242 11 3.51367V4.51367C11 5.06492 11.4486 5.51367 12 5.51367H14V6.51367H11V7.51367H12.5V8.51367H13.5V7.51367H14C14.5514 7.51367 15 7.06492 15 6.51367V5.51367C15 4.96242 14.5514 4.51367 14 4.51367H12V3.51367H15Z" fill="currentColor"/>
<path d="M12 10.5137V11.5137H13.2929L11.5001 13.3066L10.3542 12.1601C10.2605 12.0664 10.1333 12.0136 10.0007 12.0136C9.8682 12.0136 9.74085 12.0664 9.6471 12.1601L7 14.8066L7.70715 15.5137L10.0005 13.2207L11.1463 14.3672C11.2401 14.461 11.3673 14.5137 11.5 14.5137C11.6326 14.5137 11.7598 14.461 11.8535 14.3672L14 12.2207V13.5137H15V10.5137H12Z" fill="currentColor"/>
<path d="M2 15.5137H1V13.0137C1 11.0837 2.57005 9.51367 4.5 9.51367H7.5C8.49425 9.51367 9.44505 9.93877 10.1085 10.6801L9.3634 11.3471C8.8894 10.8175 8.2102 10.5137 7.5 10.5137H4.5C3.12145 10.5137 2 11.6352 2 13.0137V15.5137Z" fill="currentColor"/>
<path d="M6 8.51367C7.933 8.51367 9.5 6.94667 9.5 5.01367C9.5 3.08067 7.933 1.51367 6 1.51367C4.067 1.51367 2.5 3.08067 2.5 5.01367C2.5 6.94667 4.067 8.51367 6 8.51367ZM6 2.51367C7.38075 2.51367 8.5 3.63292 8.5 5.01367C8.5 6.39442 7.38075 7.51367 6 7.51367C4.61925 7.51367 3.5 6.39442 3.5 5.01367C3.5016 3.63362 4.61995 2.51527 6 2.51367Z" fill="currentColor"/>
</svg>
