<svg viewBox="0 0 16 17" fill="none" xmlns="http://www.w3.org/2000/svg">
<rect width="16" height="16" transform="translate(0 0.513672)" fill="white" fill-opacity="0.01" style="mix-blend-mode:multiply"/>
<path d="M15 7.51367H14C13.9985 6.18805 13.4712 4.91715 12.5339 3.97979C11.5965 3.04243 10.3256 2.51517 9 2.51367V1.51367C10.5907 1.51548 12.1158 2.14821 13.2406 3.27303C14.3655 4.39786 14.9982 5.92293 15 7.51367Z" fill="currentColor"/>
<path d="M13 7.51367H12C11.9991 6.71829 11.6828 5.95575 11.1203 5.39333C10.5579 4.83091 9.79538 4.51456 9 4.51367V3.51367C10.0605 3.51489 11.0772 3.93671 11.8271 4.68659C12.577 5.43647 12.9988 6.45318 13 7.51367Z" fill="currentColor"/>
<path d="M8 14.5137V12.9937C8.6526 13.061 9.31207 12.9981 9.94017 12.8085C10.5683 12.619 11.1525 12.3067 11.6589 11.8897C11.7588 11.8082 11.8406 11.7068 11.8989 11.5919C11.9573 11.477 11.991 11.3512 11.9978 11.2225C12.004 11.0971 11.9838 10.9719 11.9387 10.8548C11.8936 10.7377 11.8245 10.6313 11.7359 10.5425L9.20705 8.01367L10.5 6.72072L9.79295 6.01367L8.5 7.30662L5.97095 4.77732C5.88183 4.68912 5.77539 4.62034 5.65835 4.57534C5.54131 4.53034 5.41621 4.51009 5.29095 4.51587C5.16226 4.52267 5.03643 4.55636 4.92155 4.61477C4.80668 4.67318 4.70532 4.755 4.624 4.85497C3.93979 5.68872 3.54486 6.72213 3.49863 7.79969C3.4524 8.87725 3.75737 9.94068 4.36765 10.83L3.13965 14.5137H1V15.5137H15V14.5137H8ZM5.34 5.56057L10.9529 11.1737C10.1831 11.7707 9.22199 12.0664 8.24976 12.0052C7.27753 11.944 6.36103 11.5301 5.67221 10.8413C4.98339 10.1524 4.56959 9.23592 4.50842 8.26369C4.44726 7.29145 4.74294 6.33031 5.34 5.56057ZM7 14.5137H4.19375L5.1316 11.7002C5.66776 12.1939 6.30548 12.5643 7 12.7854V14.5137Z" fill="currentColor"/>
</svg>
