<svg viewBox="0 0 16 17" fill="none" xmlns="http://www.w3.org/2000/svg">
<rect width="16" height="16" transform="translate(0 0.513672)" fill="white" fill-opacity="0.01" style="mix-blend-mode:multiply"/>
<path d="M11.4571 8.76369L12.8535 7.36719C12.9 7.32078 12.9368 7.26568 12.962 7.20502C12.9871 7.14436 13 7.07935 13 7.01369C13 6.94803 12.9871 6.88301 12.962 6.82236C12.9368 6.7617 12.9 6.7066 12.8535 6.66019L11.7071 5.51369L12.75 4.47074L14.293 6.01369L15 5.30664L11.2071 1.51369L10.5 2.22074L12.043 3.76369L11 4.80664L9.85352 3.66019C9.80711 3.61374 9.752 3.57689 9.69135 3.55175C9.63069 3.52661 9.56568 3.51367 9.50002 3.51367C9.43436 3.51367 9.36934 3.52661 9.30869 3.55175C9.24803 3.57689 9.19292 3.61374 9.14652 3.66019L7.75002 5.05664L4.35352 1.66019C4.30711 1.61374 4.252 1.57689 4.19135 1.55175C4.13069 1.52661 4.06568 1.51367 4.00002 1.51367C3.93436 1.51367 3.86934 1.52661 3.80869 1.55175C3.74803 1.57689 3.69293 1.61374 3.64652 1.66019L1.14652 4.16019C1.10007 4.2066 1.06322 4.2617 1.03808 4.32236C1.01294 4.38301 1 4.44803 1 4.51369C1 4.57935 1.01294 4.64436 1.03808 4.70502C1.06322 4.76568 1.10007 4.82078 1.14652 4.86719L4.54297 8.26369L3.14652 9.66019C3.10007 9.7066 3.06322 9.7617 3.03808 9.82236C3.01294 9.88301 3 9.94803 3 10.0137C3 10.0793 3.01294 10.1444 3.03808 10.205C3.06322 10.2657 3.10007 10.3208 3.14652 10.3672L4.29297 11.5137L3.25002 12.5566L1.70707 11.0137L1.00002 11.7207L4.79297 15.5137L5.50002 14.8066L3.95707 13.2637L5.00002 12.2207L6.14652 13.3672C6.19293 13.4136 6.24804 13.4505 6.30869 13.4756C6.36935 13.5007 6.43436 13.5137 6.50002 13.5137C6.56568 13.5137 6.63069 13.5007 6.69134 13.4756C6.752 13.4505 6.80711 13.4136 6.85352 13.3672L8.25002 11.9707L11.6465 15.3672C11.6929 15.4136 11.748 15.4505 11.8087 15.4756C11.8693 15.5007 11.9344 15.5137 12 15.5137C12.0657 15.5137 12.1307 15.5007 12.1913 15.4756C12.252 15.4505 12.3071 15.4136 12.3535 15.3672L14.8535 12.8672C14.9 12.8208 14.9368 12.7657 14.962 12.705C14.9871 12.6444 15 12.5793 15 12.5137C15 12.448 14.9871 12.383 14.962 12.3224C14.9368 12.2617 14.9 12.2066 14.8535 12.1602L11.4571 8.76369ZM2.20707 4.51369L4.00002 2.72074L5.04297 3.76369L3.25002 5.55664L2.20707 4.51369ZM3.95707 6.26369L5.75002 4.47074L7.04297 5.76369L5.25002 7.55664L3.95707 6.26369ZM6.50002 12.3066L4.20707 10.0137L9.50002 4.72074L11.793 7.01369L6.50002 12.3066ZM8.95707 11.2637L10.75 9.47074L12.043 10.7637L10.25 12.5566L8.95707 11.2637ZM12 14.3066L10.9571 13.2637L12.75 11.4707L13.793 12.5137L12 14.3066Z" fill="currentColor"/>
</svg>
