<svg viewBox="0 0 16 17" fill="none" xmlns="http://www.w3.org/2000/svg">
<rect width="16" height="16" transform="translate(0 0.513672)" fill="white" fill-opacity="0.01" style="mix-blend-mode:multiply"/>
<path d="M8.69725 10.2905C8.69725 9.36887 9.3949 8.91237 10.618 8.91237H11.3847V8.58512C11.3847 8.08547 11.1349 7.79262 10.5492 7.79262C10.0324 7.79262 9.7395 8.05102 9.5242 8.36112L8.86955 7.77542C9.1968 7.25857 9.72235 6.91402 10.6267 6.91402C11.8412 6.91402 12.4872 7.49117 12.4872 8.51612V10.6351H12.9352V11.5137H12.3237C11.8499 11.5137 11.5571 11.2036 11.4881 10.7385H11.4365C11.2899 11.3156 10.799 11.6171 10.1271 11.6171C9.21415 11.6171 8.69725 11.0916 8.69725 10.2905ZM11.3785 10.1699V9.57562H10.6721C10.0951 9.57562 9.8108 9.77372 9.8108 10.1269V10.2733C9.8108 10.635 10.0606 10.8159 10.4912 10.8159C10.9822 10.8159 11.3785 10.592 11.3785 10.1699Z" fill="currentColor"/>
<path d="M3.30975 10.6179L4.07635 9.87708C4.4898 10.3594 4.998 10.6179 5.6182 10.6179C6.31585 10.6179 6.67765 10.2819 6.67765 9.77378C6.67765 9.36893 6.4882 9.11913 5.8593 9.00718L5.2908 8.92098C4.0763 8.73153 3.49065 8.15438 3.49065 7.17243C3.49065 6.09573 4.3261 5.39803 5.66985 5.39803C6.57425 5.39803 7.24615 5.70813 7.72845 6.28523L6.9533 7.01743C6.66045 6.64703 6.247 6.39723 5.60955 6.39723C4.96355 6.39723 4.6276 6.65563 4.6276 7.10353C4.6276 7.56008 4.886 7.74953 5.46315 7.85293L6.02295 7.95628C7.23745 8.17168 7.80605 8.71428 7.80605 9.70488C7.80605 10.8418 6.9877 11.6171 5.5492 11.6171C4.5242 11.6171 3.81795 11.2122 3.30975 10.6179Z" fill="currentColor"/>
<path d="M14 15.5137H2C1.4477 15.5137 1 15.066 1 14.5137V2.51367C1 1.96137 1.4477 1.51367 2 1.51367H14C14.5523 1.51367 15 1.96137 15 2.51367V14.5137C15 15.066 14.5523 15.5137 14 15.5137ZM2 14.5137H14V2.51367H2V14.5137Z" fill="currentColor"/>
</svg>
