<svg viewBox="0 0 16 17" fill="none" xmlns="http://www.w3.org/2000/svg">
<rect width="16" height="16" transform="translate(0 0.513672)" fill="white" fill-opacity="0.01" style="mix-blend-mode:multiply"/>
<path d="M8.6967 10.2905C8.6967 9.36887 9.39435 8.91237 10.6175 8.91237H11.3841V8.58512C11.3841 8.08547 11.1344 7.79262 10.5487 7.79262C10.0318 7.79262 9.73895 8.05102 9.52365 8.36112L8.869 7.77542C9.19625 7.25857 9.7218 6.91402 10.6262 6.91402C11.8407 6.91402 12.4867 7.49117 12.4867 8.51612V10.6351H12.9347V11.5137H12.3231C11.8494 11.5137 11.5565 11.2036 11.4876 10.7385H11.4359C11.2894 11.3156 10.7985 11.6171 10.1266 11.6171C9.2136 11.6171 8.6967 11.0916 8.6967 10.2905ZM11.3779 10.1699V9.57562H10.6716C10.0946 9.57562 9.81025 9.77372 9.81025 10.1269V10.2733C9.81025 10.635 10.06 10.8159 10.4907 10.8159C10.9816 10.8159 11.3779 10.592 11.3779 10.1699Z" fill="currentColor"/>
<path d="M3.30919 10.6179L4.07579 9.87708C4.48924 10.3594 4.99744 10.6179 5.61764 10.6179C6.31529 10.6179 6.67709 10.2819 6.67709 9.77378C6.67709 9.36893 6.48764 9.11913 5.85874 9.00718L5.29024 8.92098C4.07574 8.73153 3.49009 8.15438 3.49009 7.17243C3.49009 6.09573 4.32554 5.39803 5.66929 5.39803C6.57369 5.39803 7.24559 5.70813 7.72789 6.28523L6.95274 7.01743C6.65989 6.64703 6.24644 6.39723 5.60899 6.39723C4.96299 6.39723 4.62704 6.65563 4.62704 7.10353C4.62704 7.56008 4.88544 7.74953 5.46259 7.85293L6.02239 7.95628C7.23689 8.17168 7.80549 8.71428 7.80549 9.70488C7.80549 10.8418 6.98714 11.6171 5.54864 11.6171C4.52364 11.6171 3.81739 11.2122 3.30919 10.6179Z" fill="currentColor"/>
<path d="M10.5 15.5137H5.5C3.0187 15.5137 1 13.495 1 11.0137V6.01367C1 3.53237 3.0187 1.51367 5.5 1.51367H10.5C12.9813 1.51367 15 3.53237 15 6.01367V11.0137C15 13.495 12.9813 15.5137 10.5 15.5137ZM5.5 2.51367C3.57005 2.51367 2 4.08372 2 6.01367V11.0137C2 12.9436 3.57005 14.5137 5.5 14.5137H10.5C12.4299 14.5137 14 12.9436 14 11.0137V6.01367C14 4.08372 12.4299 2.51367 10.5 2.51367H5.5Z" fill="currentColor"/>
</svg>
