<svg viewBox="0 0 16 16" fill="none" xmlns="http://www.w3.org/2000/svg">
<rect width="16" height="16" fill="white" fill-opacity="0.01" style="mix-blend-mode:multiply"/>
<path d="M13.5001 9.50053C13.4995 8.97016 13.2886 8.46169 12.9135 8.08666C12.5385 7.71162 12.03 7.50066 11.4997 7.50003H4.50067C4.2354 7.49977 3.98108 7.39428 3.7935 7.20672C3.60592 7.01916 3.50041 6.76485 3.50012 6.49958V4.92903C3.84387 4.83944 4.15751 4.65978 4.4087 4.4086C4.65989 4.15741 4.83956 3.84378 4.92917 3.50003H11.0712C11.1929 3.97136 11.4823 4.38213 11.8852 4.65534C12.2881 4.92854 12.7768 5.04543 13.2597 4.98409C13.7426 4.92276 14.1865 4.6874 14.5083 4.32215C14.8301 3.9569 15.0077 3.48682 15.0077 3.00003C15.0077 2.51325 14.8301 2.04317 14.5083 1.67792C14.1865 1.31266 13.7426 1.07731 13.2597 1.01597C12.7768 0.954638 12.2881 1.07153 11.8852 1.34473C11.4823 1.61794 11.1929 2.0287 11.0712 2.50003H4.92917C4.84169 2.15892 4.66551 1.84702 4.41852 1.596C4.17153 1.34499 3.86252 1.16379 3.52285 1.07082C3.18319 0.97784 2.82498 0.976392 2.48458 1.06662C2.14418 1.15684 1.83371 1.33553 1.58469 1.58454C1.33568 1.83355 1.15698 2.14402 1.06675 2.48441C0.976518 2.82481 0.97796 3.18303 1.07093 3.52269C1.1639 3.86235 1.34509 4.17137 1.5961 4.41837C1.84711 4.66537 2.159 4.84155 2.50012 4.92903V6.49958C2.50075 7.02996 2.71173 7.53843 3.08677 7.91345C3.46181 8.28847 3.97029 8.49943 4.50067 8.50003H11.4997C11.7649 8.50031 12.0192 8.60581 12.2068 8.79338C12.3944 8.98095 12.4999 9.23527 12.5001 9.50053V11H11.0001V12.5H4.92917C4.80747 12.0287 4.51805 11.6179 4.11516 11.3447C3.71227 11.0715 3.22357 10.9546 2.74067 11.016C2.25776 11.0773 1.8138 11.3127 1.49201 11.6779C1.17021 12.0432 0.992676 12.5132 0.992676 13C0.992676 13.4868 1.17021 13.9569 1.49201 14.3222C1.8138 14.6874 2.25776 14.9228 2.74067 14.9841C3.22357 15.0454 3.71227 14.9285 4.11516 14.6553C4.51805 14.3821 4.80747 13.9714 4.92917 13.5H11.0001V15H15.0001V11H13.5001V9.50053ZM13.0001 2.00003C13.1979 2.00003 13.3912 2.05868 13.5557 2.16856C13.7201 2.27845 13.8483 2.43462 13.924 2.61735C13.9997 2.80008 14.0195 3.00114 13.9809 3.19512C13.9423 3.38911 13.8471 3.56729 13.7072 3.70714C13.5674 3.84699 13.3892 3.94223 13.1952 3.98082C13.0012 4.0194 12.8002 3.9996 12.6174 3.92391C12.4347 3.84823 12.2785 3.72005 12.1686 3.5556C12.0588 3.39116 12.0001 3.19782 12.0001 3.00003C12.0004 2.73489 12.1058 2.48069 12.2933 2.29321C12.4808 2.10572 12.735 2.00029 13.0001 2.00003V2.00003ZM2.00012 3.00003C2.00012 2.80225 2.05877 2.60891 2.16865 2.44446C2.27853 2.28001 2.43471 2.15184 2.61743 2.07615C2.80016 2.00047 3.00123 1.98066 3.19521 2.01925C3.38919 2.05783 3.56737 2.15307 3.70722 2.29293C3.84708 2.43278 3.94232 2.61096 3.9809 2.80494C4.01949 2.99892 3.99968 3.19999 3.924 3.38272C3.84831 3.56544 3.72014 3.72162 3.55569 3.8315C3.39124 3.94139 3.1979 4.00003 3.00012 4.00003C2.73498 3.99978 2.48077 3.89435 2.29329 3.70686C2.10581 3.51938 2.00037 3.26517 2.00012 3.00003V3.00003ZM3.00012 14C2.80234 14 2.609 13.9414 2.44455 13.8315C2.2801 13.7216 2.15193 13.5654 2.07624 13.3827C2.00055 13.2 1.98075 12.9989 2.01933 12.8049C2.05792 12.611 2.15316 12.4328 2.29301 12.2929C2.43286 12.1531 2.61105 12.0578 2.80503 12.0192C2.99901 11.9807 3.20007 12.0005 3.3828 12.0762C3.56553 12.1518 3.72171 12.28 3.83159 12.4445C3.94147 12.6089 4.00012 12.8023 4.00012 13C3.99985 13.2652 3.89441 13.5194 3.70693 13.7068C3.51945 13.8943 3.26525 13.9998 3.00012 14V14ZM14.0001 12V14H12.0001V12H14.0001Z" fill="currentColor"/>
</svg>
