<svg viewBox="0 0 16 17" fill="none" xmlns="http://www.w3.org/2000/svg">
<rect width="16" height="16" transform="translate(0 0.513672)" fill="white" fill-opacity="0.01" style="mix-blend-mode:multiply"/>
<path d="M8.5 10.0137H7.5V14.5137H8.5V10.0137Z" fill="currentColor"/>
<path d="M11.5 5.51367V4.51367H10C9.99967 4.24856 9.89421 3.9944 9.70674 3.80693C9.51928 3.61947 9.26511 3.514 9 3.51367H7C6.73488 3.514 6.48072 3.61947 6.29326 3.80693C6.10579 3.9944 6.00033 4.24856 6 4.51367H4.5V5.51367H6V7.60572C5.70838 7.70849 5.45571 7.89899 5.27667 8.15107C5.09762 8.40316 5.00098 8.70448 5 9.01367V12.5137H6V9.01367C6.00011 8.8811 6.05282 8.75398 6.14656 8.66024C6.24031 8.56649 6.36742 8.51378 6.5 8.51367H9.5C9.63258 8.51378 9.75969 8.56649 9.85344 8.66024C9.94718 8.75398 9.99989 8.8811 10 9.01367V12.5137H11V9.01367C10.999 8.70448 10.9024 8.40316 10.7233 8.15107C10.5443 7.89899 10.2916 7.70849 10 7.60572V5.51367H11.5ZM9 4.51367V7.51367H7V4.51367H9Z" fill="currentColor"/>
</svg>
