<svg viewBox="0 0 16 17" fill="none" xmlns="http://www.w3.org/2000/svg">
<rect width="16" height="16" transform="translate(0 0.513672)" fill="white" fill-opacity="0.01" style="mix-blend-mode:multiply"/>
<path d="M13 14.5137C12.6044 14.5137 12.2178 14.3964 11.8889 14.1766C11.56 13.9568 11.3036 13.6445 11.1522 13.279C11.0009 12.9136 10.9613 12.5115 11.0384 12.1235C11.1156 11.7355 11.3061 11.3792 11.5858 11.0995C11.8655 10.8198 12.2219 10.6293 12.6098 10.5521C12.9978 10.4749 13.3999 10.5145 13.7654 10.6659C14.1308 10.8173 14.4432 11.0736 14.6629 11.4025C14.8827 11.7314 15 12.1181 15 12.5137C14.9994 13.0439 14.7885 13.5523 14.4136 13.9272C14.0386 14.3022 13.5303 14.5131 13 14.5137ZM13 11.5137C12.8022 11.5137 12.6089 11.5723 12.4444 11.6822C12.28 11.7921 12.1518 11.9483 12.0761 12.131C12.0004 12.3137 11.9806 12.5148 12.0192 12.7088C12.0578 12.9027 12.153 13.0809 12.2929 13.2208C12.4327 13.3606 12.6109 13.4559 12.8049 13.4945C12.9989 13.533 13.2 13.5132 13.3827 13.4376C13.5654 13.3619 13.7216 13.2337 13.8315 13.0692C13.9414 12.9048 14 12.7115 14 12.5137C13.9997 12.2485 13.8942 11.9944 13.7068 11.8069C13.5193 11.6194 13.2651 11.514 13 11.5137Z" fill="currentColor"/>
<path d="M12 4.51367H9V5.51367H12C12.1326 5.51367 12.2598 5.56635 12.3536 5.66012C12.4473 5.75389 12.5 5.88106 12.5 6.01367C12.5 6.14628 12.4473 6.27346 12.3536 6.36723C12.2598 6.46099 12.1326 6.51367 12 6.51367H10.5C10.426 6.51371 10.353 6.53016 10.2862 6.56183C10.2193 6.5935 10.1604 6.6396 10.1135 6.69682C10.0666 6.75403 10.033 6.82093 10.0151 6.8927C9.99723 6.96446 9.99548 7.0393 10.01 7.11182L10.472 9.42237L9.2169 11.5137H7.8719L6.58575 7.22607C6.52477 7.01963 6.39842 6.83856 6.22569 6.71009C6.05297 6.58162 5.84321 6.51269 5.62795 6.51367H3V7.51367H5.62805L5.92805 8.51367H3.5C2.83719 8.51443 2.20174 8.77806 1.73307 9.24674C1.26439 9.71542 1.00075 10.3509 1 11.0137V12.0137C1 12.1463 1.05268 12.2735 1.14645 12.3672C1.24021 12.461 1.36739 12.5137 1.5 12.5137H2C2 13.0441 2.21071 13.5528 2.58579 13.9279C2.96086 14.303 3.46957 14.5137 4 14.5137C4.53043 14.5137 5.03914 14.303 5.41421 13.9279C5.78929 13.5528 6 13.0441 6 12.5137H9.5C9.58633 12.5137 9.67119 12.4913 9.74631 12.4488C9.82144 12.4063 9.88428 12.345 9.9287 12.271L11.4287 9.77097C11.4927 9.66428 11.5147 9.53754 11.4902 9.41552L11.11 7.51367H12C12.3978 7.51367 12.7794 7.35564 13.0607 7.07433C13.342 6.79303 13.5 6.4115 13.5 6.01367C13.5 5.61585 13.342 5.23432 13.0607 4.95301C12.7794 4.67171 12.3978 4.51367 12 4.51367ZM4 13.5137C3.73488 13.5133 3.48072 13.4079 3.29326 13.2204C3.10579 13.0329 3.00033 12.7788 3 12.5137H5C4.99967 12.7788 4.89421 13.0329 4.70674 13.2204C4.51928 13.4079 4.26512 13.5133 4 13.5137ZM2 11.5137V11.0137C2.00044 10.616 2.15861 10.2347 2.43982 9.95349C2.72103 9.67228 3.10231 9.51411 3.5 9.51367H6.22805L6.82805 11.5137H2Z" fill="currentColor"/>
</svg>
