<svg viewBox="0 0 16 17" fill="none" xmlns="http://www.w3.org/2000/svg">
<rect width="16" height="16" transform="translate(0 0.513672)" fill="white" fill-opacity="0.01" style="mix-blend-mode:multiply"/>
<path d="M15 13.0137H11V14.0137H15V13.0137Z" fill="currentColor"/>
<path d="M15 11.0137H11V12.0137H15V11.0137Z" fill="currentColor"/>
<path d="M9.20705 6.01367H11.5V5.01367H7.5V9.01367H8.5V6.72072L11.7929 10.0137L12.5 9.30662L9.20705 6.01367Z" fill="currentColor"/>
<path d="M14 2.01367H2C1.4486 2.01367 1 2.46242 1 3.01367V11.0137C1 11.5649 1.4486 12.0137 2 12.0137H6V14.0137H4V15.0137H10V11.0137H2V3.01367H14V10.0137H15V3.01367C15 2.46242 14.5514 2.01367 14 2.01367ZM9 14.0137H7V12.0137H9V14.0137Z" fill="currentColor"/>
</svg>
