<svg viewBox="0 0 16 17" fill="none" xmlns="http://www.w3.org/2000/svg">
<rect width="16" height="16" transform="translate(0 0.513672)" fill="white" fill-opacity="0.01" style="mix-blend-mode:multiply"/>
<path d="M14 11.5137H5.705L15 2.21867L14.295 1.51367L13.295 2.51367H2C1.73478 2.51367 1.48043 2.61903 1.29289 2.80657C1.10536 2.9941 1 3.24846 1 3.51367V11.5137H2V3.51367H12.295L1 14.8087L1.705 15.5137L4.705 12.5137H6V14.5137H4V15.5137H12V14.5137H10V12.5137H14C14.2652 12.5137 14.5196 12.4083 14.7071 12.2208C14.8946 12.0332 15 11.7789 15 11.5137V5.01367H14V11.5137ZM9 14.5137H7V12.5137H9V14.5137Z" fill="currentColor"/>
</svg>
