<svg viewBox="0 0 16 16" fill="none" xmlns="http://www.w3.org/2000/svg">
<rect width="16" height="16" fill="white" fill-opacity="0.01" style="mix-blend-mode:multiply"/>
<path d="M13.855 2.14464C13.7875 2.07748 13.7023 2.03098 13.6093 2.0106C13.5163 1.99023 13.4194 1.99684 13.33 2.02964L2.33 6.02964C2.23513 6.06562 2.15346 6.12962 2.09583 6.21312C2.03819 6.29662 2.00732 6.39568 2.00732 6.49714C2.00732 6.5986 2.03819 6.69766 2.09583 6.78116C2.15346 6.86466 2.23513 6.92866 2.33 6.96464L6.625 8.67964L9.795 5.49964L10.5 6.20464L7.315 9.38964L9.035 13.6846C9.07205 13.7777 9.13619 13.8574 9.21909 13.9136C9.302 13.9698 9.39986 13.9997 9.5 13.9996C9.60104 13.9976 9.69909 13.9649 9.7812 13.906C9.86332 13.8471 9.92566 13.7647 9.96 13.6696L13.96 2.66964C13.9941 2.58118 14.0023 2.48486 13.9837 2.3919C13.9651 2.29895 13.9205 2.2132 13.855 2.14464Z" fill="currentColor"/>
</svg>
