<svg viewBox="0 0 16 17" fill="none" xmlns="http://www.w3.org/2000/svg">
<rect width="16" height="16" transform="translate(0 0.513672)" fill="white" fill-opacity="0.01" style="mix-blend-mode:multiply"/>
<path d="M15 12.5137V11.5137H13.9495C13.8845 11.1952 13.7575 10.8992 13.5835 10.6372L14.3285 9.89217L13.6215 9.18517L12.8765 9.93017C12.6145 9.75617 12.3185 9.62917 12 9.56417V8.51367H11V9.56417C10.6815 9.62917 10.3855 9.75617 10.1235 9.93017L9.3785 9.18517L8.6715 9.89217L9.4165 10.6372C9.2425 10.8992 9.1155 11.1952 9.0505 11.5137H8V12.5137H9.0505C9.1155 12.8322 9.2425 13.1282 9.4165 13.3902L8.6715 14.1352L9.3785 14.8422L10.1235 14.0972C10.3855 14.2712 10.6815 14.3982 11 14.4632V15.5137H12V14.4632C12.3185 14.3982 12.6145 14.2712 12.8765 14.0972L13.6215 14.8422L14.3285 14.1352L13.5835 13.3902C13.7575 13.1282 13.8845 12.8322 13.9495 12.5137H15ZM11.5 13.5137C10.673 13.5137 10 12.8407 10 12.0137C10 11.1867 10.673 10.5137 11.5 10.5137C12.327 10.5137 13 11.1867 13 12.0137C13 12.8407 12.327 13.5137 11.5 13.5137Z" fill="currentColor"/>
<path d="M8 3.51367H6V4.51367H8V3.51367Z" fill="currentColor"/>
<path d="M3 14.5137V2.51367H11V7.01367H12V2.51367C12 1.96217 11.5515 1.51367 11 1.51367H3C2.4485 1.51367 2 1.96217 2 2.51367V14.5137C2 15.0652 2.4485 15.5137 3 15.5137H7V14.5137H3Z" fill="currentColor"/>
</svg>
