<svg viewBox="0 0 16 17" fill="none" xmlns="http://www.w3.org/2000/svg">
<rect width="16" height="16" transform="translate(0 0.513672)" fill="white" fill-opacity="0.01" style="mix-blend-mode:multiply"/>
<path d="M14 15.5137H2C1.73487 15.5134 1.48068 15.4079 1.2932 15.2205C1.10572 15.033 1.00028 14.7788 1 14.5137V11.5137C1.00028 11.2485 1.10572 10.9944 1.2932 10.8069C1.48068 10.6194 1.73487 10.514 2 10.5137H14C14.2651 10.514 14.5193 10.6194 14.7068 10.8069C14.8943 10.9944 14.9997 11.2485 15 11.5137V14.5137C14.9997 14.7788 14.8943 15.033 14.7068 15.2205C14.5193 15.4079 14.2651 15.5134 14 15.5137ZM2 11.5137V14.5137H14V11.5137H2Z" fill="currentColor"/>
<path d="M3.5 13.5137C3.77614 13.5137 4 13.2898 4 13.0137C4 12.7375 3.77614 12.5137 3.5 12.5137C3.22386 12.5137 3 12.7375 3 13.0137C3 13.2898 3.22386 13.5137 3.5 13.5137Z" fill="currentColor"/>
<path d="M9.5 6.30667L8.5 5.30667V3.51367H7.5V5.72067L8.793 7.01367L9.5 6.30667Z" fill="currentColor"/>
<path d="M8 9.51367C7.20887 9.51367 6.43552 9.27908 5.77772 8.83955C5.11992 8.40003 4.60723 7.77531 4.30448 7.04441C4.00173 6.3135 3.92252 5.50924 4.07686 4.73331C4.2312 3.95739 4.61216 3.24466 5.17157 2.68525C5.73098 2.12584 6.44372 1.74487 7.21964 1.59053C7.99556 1.43619 8.79983 1.5154 9.53073 1.81816C10.2616 2.12091 10.8864 2.6336 11.3259 3.29139C11.7654 3.94919 12 4.72255 12 5.51367C11.9988 6.57417 11.577 7.59087 10.8271 8.34076C10.0772 9.09064 9.06049 9.51246 8 9.51367ZM8 2.51367C7.40666 2.51367 6.82664 2.68962 6.33329 3.01926C5.83994 3.34891 5.45542 3.81745 5.22836 4.36562C5.0013 4.9138 4.94189 5.517 5.05764 6.09894C5.1734 6.68089 5.45912 7.21544 5.87868 7.63499C6.29824 8.05455 6.83279 8.34027 7.41473 8.45603C7.99667 8.57178 8.59987 8.51237 9.14805 8.28531C9.69623 8.05825 10.1648 7.67373 10.4944 7.18038C10.8241 6.68704 11 6.10702 11 5.51367C10.9991 4.7183 10.6828 3.95575 10.1203 3.39333C9.55792 2.83092 8.79538 2.51456 8 2.51367Z" fill="currentColor"/>
</svg>
