<svg viewBox="0 0 16 17" fill="none" xmlns="http://www.w3.org/2000/svg">
<rect width="16" height="16" transform="translate(0 0.513672)" fill="white" fill-opacity="0.01" style="mix-blend-mode:multiply"/>
<path d="M8 1.51367C7.20887 1.51367 6.43552 1.74827 5.77772 2.18779C5.11992 2.62732 4.60723 3.25203 4.30448 3.98294C4.00173 4.71384 3.92252 5.51811 4.07686 6.29403C4.2312 7.06996 4.61216 7.78269 5.17157 8.3421C5.73098 8.90151 6.44372 9.28247 7.21964 9.43681C7.99556 9.59115 8.79983 9.51194 9.53073 9.20919C10.2616 8.90644 10.8864 8.39375 11.3259 7.73595C11.7654 7.07816 12 6.3048 12 5.51367C11.9988 4.45318 11.577 3.43647 10.8271 2.68659C10.0772 1.93671 9.06049 1.51489 8 1.51367ZM10.955 5.01367H9.7362C9.71112 4.2716 9.57777 3.53718 9.34035 2.83367C9.7616 3.04494 10.1272 3.35235 10.4077 3.73105C10.6882 4.10975 10.8757 4.54913 10.955 5.01367ZM8.011 8.51317H8.0072C7.81655 8.45287 7.35265 7.60252 7.2677 6.01367H8.7323C8.6476 7.60182 8.18555 8.45217 8.011 8.51317ZM7.2677 5.01367C7.3524 3.42552 7.81445 2.57517 7.989 2.51417H7.9928C8.18345 2.57447 8.64735 3.42482 8.7323 5.01367H7.2677ZM6.65965 2.83367C6.42223 3.53718 6.28888 4.2716 6.2638 5.01367H5.045C5.1243 4.54913 5.31177 4.10975 5.59226 3.73105C5.87275 3.35235 6.2384 3.04494 6.65965 2.83367ZM5.045 6.01367H6.26365C6.28873 6.75574 6.42208 7.49016 6.6595 8.19367C6.23828 7.98238 5.87266 7.67497 5.5922 7.29627C5.31173 6.91757 5.12429 6.4782 5.045 6.01367ZM9.34 8.19367C9.57753 7.49018 9.71101 6.75576 9.7362 6.01367H10.955C10.8757 6.47822 10.6882 6.91759 10.4077 7.29629C10.1272 7.67499 9.76125 7.9824 9.34 8.19367Z" fill="currentColor"/>
<path d="M14 15.5137H2C1.73487 15.5134 1.48068 15.4079 1.2932 15.2205C1.10572 15.033 1.00028 14.7788 1 14.5137V11.5137C1.00028 11.2485 1.10572 10.9943 1.2932 10.8069C1.48068 10.6194 1.73487 10.5139 2 10.5137H14C14.2651 10.5139 14.5193 10.6194 14.7068 10.8069C14.8943 10.9943 14.9997 11.2485 15 11.5137V14.5137C14.9997 14.7788 14.8943 15.033 14.7068 15.2205C14.5193 15.4079 14.2651 15.5134 14 15.5137ZM2 11.5137V14.5137H14V11.5137H2Z" fill="currentColor"/>
<path d="M3.5 13.5137C3.77614 13.5137 4 13.2898 4 13.0137C4 12.7375 3.77614 12.5137 3.5 12.5137C3.22386 12.5137 3 12.7375 3 13.0137C3 13.2898 3.22386 13.5137 3.5 13.5137Z" fill="currentColor"/>
</svg>
