<svg viewBox="0 0 16 17" fill="none" xmlns="http://www.w3.org/2000/svg">
<rect width="16" height="16" transform="translate(0 0.513672)" fill="white" fill-opacity="0.01" style="mix-blend-mode:multiply"/>
<path d="M13 4.51367L12.295 5.21867L13.585 6.51367H8C7.26098 6.51378 6.54829 6.78816 6 7.28367V3.92867L7.295 5.21867L8 4.51367L5.5 2.01367L3 4.51367L3.705 5.21867L5 3.92867V9.51367C5.0002 10.2527 5.27457 10.9653 5.77 11.5137H2.415L3.705 10.2187L3 9.51367L0.5 12.0137L3 14.5137L3.705 13.8087L2.415 12.5137H8C8.57955 12.5147 9.14694 12.3475 9.63337 12.0324C10.1198 11.7173 10.5044 11.2679 10.7404 10.7386C10.9765 10.2093 11.0539 9.6229 10.9633 9.05047C10.8727 8.47804 10.618 7.9442 10.23 7.51367H13.585L12.295 8.80867L13 9.51367L15.5 7.01367L13 4.51367ZM10 9.51367C10 9.90923 9.8827 10.2959 9.66294 10.6248C9.44318 10.9537 9.13082 11.2101 8.76537 11.3614C8.39991 11.5128 7.99778 11.5524 7.60982 11.4752C7.22186 11.3981 6.86549 11.2076 6.58579 10.9279C6.30608 10.6482 6.1156 10.2918 6.03843 9.90385C5.96126 9.51589 6.00087 9.11376 6.15224 8.74831C6.30362 8.38285 6.55996 8.0705 6.88886 7.85073C7.21776 7.63097 7.60444 7.51367 8 7.51367C8.53025 7.51427 9.03861 7.72517 9.41356 8.10012C9.7885 8.47506 9.9994 8.98342 10 9.51367Z" fill="currentColor"/>
</svg>
