<svg viewBox="0 0 16 17" fill="none" xmlns="http://www.w3.org/2000/svg">
<rect width="16" height="16" transform="translate(0 0.513672)" fill="white" fill-opacity="0.01" style="mix-blend-mode:multiply"/>
<path d="M2.5 8.51367H1.5V14.0137C1.5 14.5659 1.9477 15.0137 2.5 15.0137H6.5V14.0137H2.5V8.51367Z" fill="currentColor"/>
<path d="M14 15.0137H8.5C8.32325 15.0137 8.15955 14.9204 8.0696 14.7681C8.02325 14.6897 8 14.6017 8 14.5137C8 14.4308 8.0206 14.3478 8.0619 14.2727L10.8119 9.27272C10.9068 9.10017 11.0785 9.01382 11.25 9.01367C11.4217 9.01352 11.593 9.09987 11.6881 9.27272L14.4381 14.2727C14.4794 14.3478 14.5 14.4308 14.5 14.5137C14.5 14.6018 14.4767 14.6897 14.4304 14.7681C14.3404 14.9203 14.1768 15.0137 14 15.0137ZM9.3456 14.0137H13.1545L11.25 10.5512L9.3456 14.0137Z" fill="currentColor"/>
<path d="M13.5 2.01367H8V3.01367H13.5V10.0098H14.5V3.01367C14.5 2.46142 14.0523 2.01367 13.5 2.01367Z" fill="currentColor"/>
<path d="M5.5 2.01367H2.5C1.9477 2.01367 1.5 2.46142 1.5 3.01367V6.01367C1.5 6.56592 1.9477 7.01367 2.5 7.01367H5.5C6.0523 7.01367 6.5 6.56592 6.5 6.01367V3.01367C6.5 2.46142 6.0523 2.01367 5.5 2.01367ZM5.5 6.01367H2.5V3.01367H5.5V6.01367Z" fill="currentColor"/>
</svg>
