<svg viewBox="0 0 16 17" fill="none" xmlns="http://www.w3.org/2000/svg">
<rect width="16" height="16" transform="translate(0 0.513672)" fill="white" fill-opacity="0.01" style="mix-blend-mode:multiply"/>
<path d="M6 6.51367H5V7.51367H6V6.51367Z" fill="currentColor"/>
<path d="M4 6.51367H3V7.51367H4V6.51367Z" fill="currentColor"/>
<path d="M2 6.51367H1V7.51367H2V6.51367Z" fill="currentColor"/>
<path d="M13 15.5137H12V14.0137H10C9.33718 14.0129 8.70172 13.7493 8.23304 13.2806C7.76435 12.812 7.50073 12.1765 7.5 11.5137V10.874L6.3419 10.488C6.27088 10.4643 6.20608 10.425 6.15229 10.3729C6.0985 10.3209 6.05709 10.2574 6.03111 10.1872C6.00514 10.1169 5.99527 10.0418 6.00222 9.96725C6.00918 9.8927 6.03278 9.82067 6.0713 9.75647L7.5 7.37512V6.01367C7.50132 4.8206 7.97585 3.67678 8.81948 2.83315C9.66311 1.98953 10.8069 1.515 12 1.51367H14.5V2.51367H12C11.0721 2.5147 10.1824 2.88378 9.52627 3.53994C8.87011 4.19609 8.50103 5.08573 8.5 6.01367V7.51367C8.5 7.60429 8.47535 7.69319 8.4287 7.77087L7.2494 9.73647L8.1581 10.0393C8.25766 10.0725 8.34425 10.1362 8.40562 10.2213C8.46698 10.3064 8.5 10.4087 8.5 10.5137V11.5137C8.50044 11.9114 8.65861 12.2926 8.93982 12.5738C9.22103 12.8551 9.60231 13.0132 10 13.0137H12.5C12.6326 13.0137 12.7598 13.0663 12.8536 13.1601C12.9473 13.2539 13 13.3811 13 13.5137V15.5137Z" fill="currentColor"/>
<path d="M11.5 6.51367H9.50005V7.51367H11.5V6.51367Z" fill="currentColor"/>
</svg>
