<svg viewBox="0 0 16 17" fill="none" xmlns="http://www.w3.org/2000/svg">
<rect width="16" height="16" transform="translate(0 0.513672)" fill="white" fill-opacity="0.01" style="mix-blend-mode:multiply"/>
<path d="M10.5 5.01367H4C3.73488 5.01398 3.4807 5.11943 3.29323 5.3069C3.10576 5.49437 3.0003 5.74855 3 6.01367V11.0137C3.0003 11.2788 3.10576 11.533 3.29323 11.7204C3.4807 11.9079 3.73488 12.0134 4 12.0137H10.5C10.7651 12.0134 11.0193 11.9079 11.2068 11.7204C11.3942 11.533 11.4997 11.2788 11.5 11.0137V6.01367C11.4997 5.74855 11.3942 5.49437 11.2068 5.3069C11.0193 5.11943 10.7651 5.01398 10.5 5.01367ZM10.5 7.01367H9V6.01367H10.5V7.01367ZM9 8.01367H10.5V9.01367H9V8.01367ZM8 6.01367V11.0137H6.5V7.51367C6.5 7.38106 6.44732 7.25389 6.35355 7.16012C6.25979 7.06635 6.13261 7.01367 6 7.01367H4V6.01367H8ZM5.5 9.01367H4V8.01367H5.5V9.01367ZM4 10.0137H5.5V11.0137H4V10.0137ZM9 11.0137V10.0137H10.5V11.0137H9Z" fill="currentColor"/>
<path d="M11.7659 14.0137H2C1.73487 14.0134 1.48068 13.9079 1.2932 13.7205C1.10572 13.533 1.00028 13.2788 1 13.0137V4.01367C1.00028 3.74854 1.10572 3.49435 1.2932 3.30687C1.48068 3.1194 1.73487 3.01395 2 3.01367H14C14.2651 3.01395 14.5193 3.1194 14.7068 3.30687C14.8943 3.49435 14.9997 3.74854 15 4.01367V10.3326C14.9998 10.5666 14.9178 10.7932 14.7681 10.973L12.5339 13.6537C12.4403 13.7665 12.3229 13.8572 12.1901 13.9194C12.0573 13.9816 11.9125 14.0138 11.7659 14.0137ZM2 4.01367V13.0137H11.7659L14 10.3326V4.01367H2Z" fill="currentColor"/>
</svg>
