<svg viewBox="0 0 16 17" fill="none" xmlns="http://www.w3.org/2000/svg">
<rect width="16" height="16" transform="translate(0 0.513672)" fill="white" fill-opacity="0.01" style="mix-blend-mode:multiply"/>
<path d="M3.99999 12.5137H2.99999V13.5137H3.99999V12.5137Z" fill="currentColor"/>
<path d="M4.99999 13.5137H3.99999V14.5137H4.99999V13.5137Z" fill="currentColor"/>
<path d="M5.99999 14.5137H4.99999V15.5137H5.99999V14.5137Z" fill="currentColor"/>
<path d="M5.99999 12.5137H4.99999V13.5137H5.99999V12.5137Z" fill="currentColor"/>
<path d="M3.99999 14.5137H2.99999V15.5137H3.99999V14.5137Z" fill="currentColor"/>
<path d="M10.5 15.5137C10.4147 15.5137 10.3309 15.4919 10.2565 15.4504C10.182 15.4089 10.1194 15.3491 10.0746 15.2766C10.0298 15.204 10.0043 15.1213 10.0005 15.0361C9.99664 14.951 10.0146 14.8663 10.0528 14.79L11.0528 12.7898C11.0822 12.731 11.1228 12.6787 11.1724 12.6357C11.222 12.5926 11.2796 12.5598 11.3419 12.5391C11.4042 12.5183 11.47 12.51 11.5355 12.5147C11.601 12.5194 11.6649 12.5369 11.7237 12.5662C11.7824 12.5956 11.8348 12.6363 11.8778 12.6859C11.9208 12.7355 11.9536 12.7931 11.9744 12.8554C11.9951 12.9177 12.0034 12.9835 11.9987 13.049C11.9941 13.1145 11.9766 13.1784 11.9472 13.2371L10.9472 15.2371C10.9058 15.3203 10.842 15.3902 10.763 15.4391C10.684 15.488 10.5929 15.5138 10.5 15.5137Z" fill="currentColor"/>
<path d="M12.4004 5.08182C12.1873 4.07268 11.6339 3.16744 10.8328 2.51781C10.0317 1.86819 9.03163 1.51367 8.00024 1.51367C6.96885 1.51367 5.9688 1.86819 5.1677 2.51781C4.3666 3.16744 3.81315 4.07268 3.60009 5.08182C2.81102 5.24259 2.10978 5.6907 1.6324 6.33922C1.15501 6.98775 0.935509 7.79046 1.01647 8.59166C1.09742 9.39287 1.47307 10.1354 2.07053 10.6754C2.668 11.2153 3.4447 11.5141 4.24999 11.5137H8.69089L8.05299 12.7901C8.02241 12.8489 8.00384 12.9132 7.99836 12.9793C7.99288 13.0454 8.0006 13.1119 8.02107 13.175C8.04155 13.2381 8.07436 13.2965 8.11761 13.3467C8.16085 13.397 8.21366 13.4382 8.27297 13.4678C8.33228 13.4975 8.39689 13.5151 8.46306 13.5195C8.52922 13.524 8.59561 13.5152 8.65836 13.4938C8.7211 13.4723 8.77896 13.4386 8.82855 13.3946C8.87815 13.3506 8.91849 13.2971 8.94724 13.2374L9.80884 11.5137H11.75C12.5552 11.5141 13.3319 11.2153 13.9294 10.6754C14.5268 10.1356 14.9025 9.39303 14.9835 8.59187C15.0646 7.7907 14.8451 6.988 14.3678 6.33944C13.8906 5.69089 13.1894 5.24271 12.4004 5.08182ZM11.75 10.5137H4.24999C3.66888 10.5139 3.11026 10.2891 2.69124 9.88651C2.27221 9.48389 2.02531 8.93469 2.00229 8.35404C1.97928 7.77339 2.18193 7.20637 2.56777 6.77185C2.95362 6.33733 3.49269 6.06904 4.07199 6.02322L4.47974 5.99127L4.52929 5.58527C4.63311 4.73781 5.04339 3.95762 5.68277 3.39179C6.32214 2.82596 7.14644 2.5136 8.00024 2.5136C8.85403 2.5136 9.67833 2.82596 10.3177 3.39179C10.9571 3.95762 11.3674 4.73781 11.4712 5.58527L11.5205 5.99127L11.9282 6.02322C12.5075 6.06904 13.0466 6.33734 13.4324 6.77189C13.8183 7.20643 14.0209 7.77348 13.9979 8.35414C13.9748 8.93481 13.7279 9.48401 13.3088 9.88661C12.8898 10.2892 12.3311 10.514 11.75 10.5137Z" fill="currentColor"/>
</svg>
