<svg viewBox="0 0 16 17" fill="none" xmlns="http://www.w3.org/2000/svg">
<rect width="16" height="16" transform="translate(0 0.513672)" fill="white" fill-opacity="0.01" style="mix-blend-mode:multiply"/>
<path d="M10.0002 7.51389V6.51389H6.00021V7.51389H8.75021L6.00021 10.5139V11.5139H10.0002V10.5139H7.25371L10.0002 7.51389Z" fill="currentColor"/>
<path d="M12.2081 2.5137L11.5005 3.21987L13.2919 5.01476L13.9995 4.30858L12.2081 2.5137Z" fill="currentColor"/>
<path d="M8.00021 14.5139C6.91241 14.5139 5.84904 14.1913 4.94457 13.587C4.0401 12.9826 3.33515 12.1236 2.91887 11.1187C2.50259 10.1137 2.39367 9.00779 2.60589 7.9409C2.81811 6.874 3.34193 5.894 4.11112 5.12481C4.88031 4.35562 5.86032 3.83179 6.92721 3.61957C7.99411 3.40736 9.09997 3.51627 10.105 3.93256C11.11 4.34884 11.9689 5.05379 12.5733 5.95826C13.1776 6.86273 13.5002 7.9261 13.5002 9.01389C13.4986 10.4721 12.9186 11.8701 11.8875 12.9012C10.8564 13.9322 9.45839 14.5122 8.00021 14.5139ZM8.00021 4.51389C7.11019 4.51389 6.24016 4.77781 5.50014 5.27228C4.76012 5.76675 4.18334 6.46955 3.84275 7.29182C3.50216 8.11409 3.41304 9.01889 3.58667 9.8918C3.76031 10.7647 4.18889 11.5665 4.81823 12.1959C5.44756 12.8252 6.24939 13.2538 7.1223 13.4274C7.99522 13.6011 8.90002 13.5119 9.72228 13.1714C10.5446 12.8308 11.2474 12.254 11.7418 11.514C12.2363 10.7739 12.5002 9.90391 12.5002 9.01389C12.4989 7.82083 12.0244 6.677 11.1807 5.83337C10.3371 4.98975 9.19328 4.51522 8.00021 4.51389Z" fill="currentColor"/>
<path d="M3.79239 2.51367L2.00098 4.30856L2.70852 5.01473L4.49994 3.21985L3.79239 2.51367Z" fill="currentColor"/>
</svg>
