<svg viewBox="0 0 16 17" fill="none" xmlns="http://www.w3.org/2000/svg">
<g clip-path="url(#clip0_1961_11626)">
<rect width="16" height="16" transform="translate(0 0.513672)" fill="white" fill-opacity="0.01" style="mix-blend-mode:multiply"/>
<path d="M7.49998 5.51372H6.49998V6.51372H7.49998V5.51372Z" fill="currentColor"/>
<path d="M8.49998 6.51372H7.49998V7.51372H8.49998V6.51372Z" fill="currentColor"/>
<path d="M9.49998 7.51372H8.49998V8.51372H9.49998V7.51372Z" fill="currentColor"/>
<path d="M9.49998 5.51372H8.49998V6.51372H9.49998V5.51372Z" fill="currentColor"/>
<path d="M7.49998 7.51372H6.49998V8.51372H7.49998V7.51372Z" fill="currentColor"/>
<path d="M2.49998 13.5137H1.49998V14.5137H2.49998V13.5137Z" fill="currentColor"/>
<path d="M3.49998 14.5137H2.49998V15.5137H3.49998V14.5137Z" fill="currentColor"/>
<path d="M4.49998 15.5137H3.49998V16.5137H4.49998V15.5137Z" fill="currentColor"/>
<path d="M4.49998 13.5137H3.49998V14.5137H4.49998V13.5137Z" fill="currentColor"/>
<path d="M2.49998 15.5137H1.49998V16.5137H2.49998V15.5137Z" fill="currentColor"/>
<path d="M12.5 13.5137H11.5V14.5137H12.5V13.5137Z" fill="currentColor"/>
<path d="M13.5 14.5137H12.5V15.5137H13.5V14.5137Z" fill="currentColor"/>
<path d="M14.5 15.5137H13.5V16.5137H14.5V15.5137Z" fill="currentColor"/>
<path d="M14.5 13.5137H13.5V14.5137H14.5V13.5137Z" fill="currentColor"/>
<path d="M12.5 15.5137H11.5V16.5137H12.5V15.5137Z" fill="currentColor"/>
<path d="M4.99998 9.51372H3.99998V10.5137H4.99998V9.51372Z" fill="currentColor"/>
<path d="M5.99998 10.5137H4.99998V11.5137H5.99998V10.5137Z" fill="currentColor"/>
<path d="M6.99998 11.5137H5.99998V12.5137H6.99998V11.5137Z" fill="currentColor"/>
<path d="M6.99998 9.51372H5.99998V10.5137H6.99998V9.51372Z" fill="currentColor"/>
<path d="M4.99998 11.5137H3.99998V12.5137H4.99998V11.5137Z" fill="currentColor"/>
<path d="M9.99998 9.51372H8.99998V10.5137H9.99998V9.51372Z" fill="currentColor"/>
<path d="M11 10.5137H9.99998V11.5137H11V10.5137Z" fill="currentColor"/>
<path d="M12 11.5137H11V12.5137H12V11.5137Z" fill="currentColor"/>
<path d="M12 9.51372H11V10.5137H12V9.51372Z" fill="currentColor"/>
<path d="M9.99998 11.5137H8.99998V12.5137H9.99998V11.5137Z" fill="currentColor"/>
<path d="M7.49998 13.5137H6.49998V14.5137H7.49998V13.5137Z" fill="currentColor"/>
<path d="M8.49998 14.5137H7.49998V15.5137H8.49998V14.5137Z" fill="currentColor"/>
<path d="M9.49998 15.5137H8.49998V16.5137H9.49998V15.5137Z" fill="currentColor"/>
<path d="M9.49998 13.5137H8.49998V14.5137H9.49998V13.5137Z" fill="currentColor"/>
<path d="M7.49998 15.5137H6.49998V16.5137H7.49998V15.5137Z" fill="currentColor"/>
<path d="M12.4004 5.08182C12.1873 4.07268 11.6339 3.16744 10.8328 2.51781C10.0317 1.86819 9.03162 1.51367 8.00023 1.51367C6.96883 1.51367 5.96879 1.86819 5.16769 2.51781C4.36659 3.16744 3.81313 4.07268 3.60008 5.08182C2.91896 5.22046 2.30028 5.57395 1.835 6.09033C1.36972 6.60671 1.08237 7.25875 1.0152 7.95058C0.948036 8.64241 1.10459 9.33753 1.46186 9.93377C1.81912 10.53 2.35824 10.9959 2.99998 11.263V10.133C2.61124 9.87367 2.31301 9.49964 2.14678 9.06292C1.98056 8.6262 1.95461 8.14853 2.07255 7.69637C2.19049 7.24422 2.44646 6.84008 2.80482 6.5402C3.16318 6.24032 3.60611 6.05961 4.07198 6.02322L4.47973 5.99127L4.52928 5.58527C4.6331 4.73781 5.04338 3.95762 5.68275 3.39179C6.32213 2.82596 7.14643 2.5136 8.00023 2.5136C8.85402 2.5136 9.67832 2.82596 10.3177 3.39179C10.9571 3.95762 11.3674 4.73781 11.4712 5.58527L11.5205 5.99127L11.9282 6.02322C12.394 6.0597 12.8368 6.24046 13.1951 6.54035C13.5534 6.84024 13.8093 7.24436 13.9272 7.69646C14.0451 8.14857 14.0192 8.62619 13.853 9.06286C13.6868 9.49954 13.3886 9.87355 13 10.1329V11.2629C13.6416 10.9958 14.1807 10.5299 14.5379 9.93376C14.8952 9.33757 15.0518 8.64252 14.9847 7.95074C14.9175 7.25896 14.6303 6.60696 14.1651 6.09056C13.7 5.57415 13.0814 5.22058 12.4004 5.08182Z" fill="currentColor"/>
</g>
<defs>
<clipPath id="clip0_1961_11626">
<rect width="16" height="16" fill="white" transform="translate(0 0.513672)"/>
</clipPath>
</defs>
</svg>
