<svg viewBox="0 0 16 17" fill="none" xmlns="http://www.w3.org/2000/svg">
<rect width="16" height="16" transform="translate(0 0.513672)" fill="white" fill-opacity="0.01" style="mix-blend-mode:multiply"/>
<path d="M10.7074 6.51367H14V5.51367H11.7074L14.0002 3.22097L13.2932 2.51367L11 4.80712V2.51367H10V5.80712L9.29335 6.51367H8.5V4.51367H7.5V6.51367H6.70665L6 5.80712V2.51367H5V4.80712L2.7068 2.51367L2 3.22097L4.2926 5.51367H2V6.51367H5.2926L6 7.22117V8.01367H4V9.01367H6V9.80712L5.29335 10.5137H2V11.5137H4.29335L2 13.8069L2.70705 14.5139L5 12.2212V14.5137H6V11.2212L6.7074 10.5137H7.5V12.5137H8.5V10.5137H9.2926L10 11.2212V14.5137H11V12.2212L13.2927 14.5139L14 13.8069L11.7066 11.5137H14V10.5137H10.7066L10 9.80712V9.01367H12V8.01367H10V7.22117L10.7074 6.51367ZM9 9.51367H7V7.51367H9V9.51367Z" fill="currentColor"/>
</svg>
