<svg viewBox="0 0 16 17" fill="none" xmlns="http://www.w3.org/2000/svg">
<g clip-path="url(#clip0_1961_11628)">
<rect width="16" height="16" transform="translate(0 0.513672)" fill="white" fill-opacity="0.01" style="mix-blend-mode:multiply"/>
<path d="M2.0001 13.5137H1.0001V14.5137H2.0001V13.5137Z" fill="currentColor"/>
<path d="M3.0001 14.5137H2.0001V15.5137H3.0001V14.5137Z" fill="currentColor"/>
<path d="M4.0001 15.5137H3.0001V16.5137H4.0001V15.5137Z" fill="currentColor"/>
<path d="M4.0001 13.5137H3.0001V14.5137H4.0001V13.5137Z" fill="currentColor"/>
<path d="M2.0001 15.5137H1.0001V16.5137H2.0001V15.5137Z" fill="currentColor"/>
<path d="M11.0001 13.5137H10.0001V14.5137H11.0001V13.5137Z" fill="currentColor"/>
<path d="M12.0001 14.5137H11.0001V15.5137H12.0001V14.5137Z" fill="currentColor"/>
<path d="M13.0001 15.5137H12.0001V16.5137H13.0001V15.5137Z" fill="currentColor"/>
<path d="M13.0001 13.5137H12.0001V14.5137H13.0001V13.5137Z" fill="currentColor"/>
<path d="M11.0001 15.5137H10.0001V16.5137H11.0001V15.5137Z" fill="currentColor"/>
<path d="M6.5001 13.5137H5.5001V14.5137H6.5001V13.5137Z" fill="currentColor"/>
<path d="M7.5001 14.5137H6.5001V15.5137H7.5001V14.5137Z" fill="currentColor"/>
<path d="M8.5001 15.5137H7.5001V16.5137H8.5001V15.5137Z" fill="currentColor"/>
<path d="M8.5001 13.5137H7.5001V14.5137H8.5001V13.5137Z" fill="currentColor"/>
<path d="M6.5001 15.5137H5.5001V16.5137H6.5001V15.5137Z" fill="currentColor"/>
<path d="M11.0001 0.513672H10.0001V2.01367H11.0001V0.513672Z" fill="currentColor"/>
<path d="M16.0001 5.51402H14.5001V6.51402H16.0001V5.51402Z" fill="currentColor"/>
<path d="M14.2929 2.01398L13.2323 3.07464L13.9394 3.78175L15.0001 2.72109L14.2929 2.01398Z" fill="currentColor"/>
<path d="M13.2323 8.95335L14.293 10.014L15.0001 9.30691L13.9394 8.24625L13.2323 8.95335Z" fill="currentColor"/>
<path d="M6.00005 2.72111L7.06071 3.78177L7.76781 3.07466L6.70715 2.014L6.00005 2.72111Z" fill="currentColor"/>
<path d="M13.5001 6.01367C13.5017 5.3789 13.3014 4.76008 12.9281 4.24664C12.5549 3.7332 12.028 3.35174 11.4237 3.15739C10.8195 2.96305 10.169 2.96588 9.56645 3.16549C8.96389 3.3651 8.4404 3.75114 8.07165 4.26782C7.65045 4.10274 7.20248 4.01659 6.7501 4.01367C5.95389 4.01796 5.17941 4.27386 4.53738 4.74479C3.89536 5.21572 3.41865 5.87756 3.1754 6.63572C2.47987 6.83386 1.87948 7.27687 1.485 7.88301C1.09052 8.48915 0.928587 9.21751 1.02907 9.93369C1.12955 10.6499 1.48568 11.3055 2.03173 11.7797C2.57777 12.2539 3.2769 12.5146 4.0001 12.5137H9.5001C9.98983 12.5164 10.4727 12.3985 10.9061 12.1704C11.3395 11.9424 11.7101 11.6111 11.9851 11.2059C12.2602 10.8007 12.4313 10.334 12.4833 9.84708C12.5353 9.36012 12.4667 8.86783 12.2834 8.41367C12.6599 8.13674 12.9661 7.77532 13.1774 7.35848C13.3887 6.94164 13.4993 6.48101 13.5001 6.01367ZM9.5001 11.5137H4.0001C3.49928 11.5145 3.01644 11.3272 2.64733 10.9887C2.27823 10.6502 2.04984 10.1853 2.00747 9.68628C1.96509 9.18726 2.11183 8.69055 2.41858 8.29466C2.72532 7.89878 3.16966 7.63265 3.66345 7.54907L3.99495 7.49267L4.06775 7.16457C4.20356 6.55443 4.54333 6.00883 5.03098 5.61779C5.51863 5.22675 6.12503 5.01365 6.7501 5.01365C7.37517 5.01365 7.98156 5.22675 8.46922 5.61779C8.95687 6.00883 9.29663 6.55443 9.43245 7.16457L9.50525 7.49267L9.83655 7.54907C10.3304 7.63252 10.7749 7.89858 11.0818 8.29447C11.3886 8.69036 11.5354 9.18713 11.4931 9.68623C11.4507 10.1853 11.2223 10.6503 10.8531 10.9888C10.4839 11.3273 10.001 11.5146 9.5001 11.5137ZM11.7612 7.55712C11.3825 7.11651 10.8832 6.79624 10.3248 6.63572C10.0825 5.87754 9.60591 5.21579 8.9636 4.74572C9.1402 4.5298 9.36016 4.35334 9.60924 4.22776C9.85832 4.10219 10.131 4.03028 10.4096 4.0167C10.6882 4.00312 10.9666 4.04817 11.2267 4.14893C11.4868 4.24969 11.7229 4.40391 11.9197 4.60164C12.1164 4.79937 12.2695 5.03619 12.369 5.29679C12.4685 5.55739 12.5122 5.83598 12.4972 6.11453C12.4823 6.39307 12.4091 6.66539 12.2823 6.91386C12.1555 7.16233 11.978 7.38157 11.7612 7.55712Z" fill="currentColor"/>
</g>
<defs>
<clipPath id="clip0_1961_11628">
<rect width="16" height="16" fill="white" transform="translate(0 0.513672)"/>
</clipPath>
</defs>
</svg>
