<svg viewBox="0 0 16 17" fill="none" xmlns="http://www.w3.org/2000/svg">
<rect width="16" height="16" transform="translate(0 0.513672)" fill="white" fill-opacity="0.01" style="mix-blend-mode:multiply"/>
<path d="M14.6955 7.77717L8.7365 1.81817C8.5335 1.61517 8.2665 1.51367 8 1.51367C7.7335 1.51367 7.4665 1.61517 7.2635 1.81817L1.3045 7.77717C1.1015 7.98017 1 8.24667 1 8.51367C1 8.78067 1.1015 9.04717 1.3045 9.25017L7.263 15.2087C7.4665 15.4122 7.7335 15.5137 8 15.5137C8.2665 15.5137 8.5335 15.4122 8.7365 15.2092L14.695 9.25067C14.8985 9.04717 15 8.78067 15 8.51367C15 8.24667 14.8985 7.98017 14.6955 7.77717ZM8 14.5317L1.9825 8.51367L8 2.49567L14.018 8.51367L8 14.5317Z" fill="currentColor"/>
</svg>
