<svg viewBox="0 0 16 17" fill="none" xmlns="http://www.w3.org/2000/svg">
<rect width="16" height="16" transform="translate(0 0.513672)" fill="white" fill-opacity="0.01" style="mix-blend-mode:multiply"/>
<path d="M5.14635 3.95815L3.44931 5.65519L4.15641 6.36229L5.85345 4.66525L5.14635 3.95815Z" fill="currentColor"/>
<path d="M2.45 10.3637L1.3 9.21367C1.1 9.01367 1 8.76367 1 8.51367C1 8.26367 1.1 8.01367 1.3 7.81367L2.45 6.66367L3.15 7.36367L2 8.51367L3.15 9.66367L2.45 10.3637Z" fill="currentColor"/>
<path d="M4.15148 10.6601L3.44438 11.3672L5.14142 13.0643L5.84852 12.3572L4.15148 10.6601Z" fill="currentColor"/>
<path d="M8 15.5137C7.75 15.5137 7.5 15.4137 7.3 15.2137L6.15 14.0637L6.85 13.3637L8 14.5137L9.15 13.3637L9.85 14.0637L8.7 15.2137C8.5 15.4137 8.25 15.5137 8 15.5137Z" fill="currentColor"/>
<path d="M11.8434 10.6651L10.1463 12.3621L10.8534 13.0692L12.5505 11.3722L11.8434 10.6651Z" fill="currentColor"/>
<path d="M13.55 10.3637L12.85 9.66367L14 8.51367L12.85 7.36367L13.55 6.66367L14.7 7.81367C14.9 8.01367 15 8.26367 15 8.51367C15 8.76367 14.9 9.01367 14.7 9.21367L13.55 10.3637Z" fill="currentColor"/>
<path d="M10.8584 3.96308L10.1513 4.67018L11.8483 6.36722L12.5554 5.66012L10.8584 3.96308Z" fill="currentColor"/>
<path d="M8 1.51367C7.75 1.51367 7.5 1.61367 7.3 1.81367L6.15 2.96367L6.85 3.66367L8 2.51367L9.15 3.66367L9.85 2.96367L8.7 1.81367C8.5 1.61367 8.25 1.51367 8 1.51367Z" fill="currentColor"/>
</svg>
