<svg viewBox="0 0 16 17" fill="none" xmlns="http://www.w3.org/2000/svg">
<rect width="16" height="16" transform="translate(0 0.513672)" fill="white" fill-opacity="0.01" style="mix-blend-mode:multiply"/>
<path d="M12.25 15.5137C11.7673 15.5414 11.2864 15.434 10.8613 15.2036C10.4363 14.9732 10.0838 14.6289 9.84359 14.2093C9.60336 13.7897 9.48484 13.3114 9.50134 12.8282C9.51784 12.345 9.66871 11.8759 9.937 11.4737L11.745 8.78277C11.8007 8.69996 11.8758 8.63211 11.9639 8.5852C12.052 8.53829 12.1502 8.51375 12.25 8.51375C12.3498 8.51375 12.448 8.53829 12.5361 8.5852C12.6242 8.63211 12.6993 8.69996 12.755 8.78277L14.53 11.4214C14.8236 11.8557 14.9867 12.3651 15 12.8892C14.9822 13.6015 14.6827 14.2777 14.1673 14.7696C13.6518 15.2616 12.9624 15.5291 12.25 15.5137ZM12.25 9.82367L10.7822 12.0073C10.6095 12.2583 10.5118 12.5534 10.5007 12.858C10.4896 13.1626 10.5655 13.464 10.7195 13.727C10.8735 13.9899 11.0993 14.2036 11.3703 14.3429C11.6414 14.4823 11.9465 14.5415 12.25 14.5137C12.6972 14.5292 13.1323 14.367 13.4602 14.0625C13.7882 13.7581 13.9822 13.3363 14 12.8892C13.9884 12.5539 13.8789 12.2294 13.685 11.9557L12.25 9.82367Z" fill="currentColor"/>
<path d="M5.5 8.51367V6.01367H6C6.53025 6.01308 7.03861 5.80217 7.41356 5.42723C7.7885 5.05228 7.9994 4.54392 8 4.01367V2.51367H6.5C5.98805 2.51449 5.49612 2.71269 5.1266 3.06702C4.86764 2.59693 4.48738 2.20487 4.02542 1.93167C3.56346 1.65847 3.0367 1.51413 2.5 1.51367H1V3.01367C1.00087 3.80905 1.31722 4.57161 1.87964 5.13403C2.44206 5.69645 3.20462 6.0128 4 6.01367H4.5V8.51367H1V9.51367H8V8.51367H5.5ZM6.5 3.51367H7V4.01367C6.99974 4.27881 6.89429 4.53301 6.70681 4.72049C6.51934 4.90797 6.26514 5.01341 6 5.01367H5.5V4.51367C5.50026 4.24854 5.60571 3.99434 5.79319 3.80686C5.98066 3.61938 6.23486 3.51394 6.5 3.51367ZM4 5.01367C3.46975 5.01308 2.96139 4.80217 2.58644 4.42723C2.2115 4.05228 2.0006 3.54392 2 3.01367V2.51367H2.5C3.03025 2.51427 3.53861 2.72517 3.91356 3.10012C4.2885 3.47506 4.4994 3.98342 4.5 4.51367V5.01367H4Z" fill="currentColor"/>
<path d="M8 11.0137H1V12.0137H8V11.0137Z" fill="currentColor"/>
<path d="M8 13.5137H1V14.5137H8V13.5137Z" fill="currentColor"/>
</svg>
