<svg viewBox="0 0 16 17" fill="none" xmlns="http://www.w3.org/2000/svg">
<rect width="16" height="16" transform="translate(0 0.513672)" fill="white" fill-opacity="0.01" style="mix-blend-mode:multiply"/>
<path d="M5.5 8.51367V6.01367H6C6.53025 6.01308 7.03861 5.80217 7.41356 5.42723C7.7885 5.05228 7.9994 4.54392 8 4.01367V2.51367H6.5C5.98805 2.51449 5.49612 2.71269 5.1266 3.06702C4.86764 2.59693 4.48738 2.20487 4.02542 1.93167C3.56346 1.65847 3.0367 1.51413 2.5 1.51367H1V3.01367C1.00087 3.80905 1.31722 4.57161 1.87964 5.13403C2.44206 5.69645 3.20462 6.0128 4 6.01367H4.5V8.51367H1V9.51367H8V8.51367H5.5ZM6.5 3.51367H7V4.01367C6.99974 4.27881 6.89429 4.53301 6.70681 4.72049C6.51934 4.90797 6.26514 5.01341 6 5.01367H5.5V4.51367C5.50026 4.24854 5.60571 3.99434 5.79319 3.80686C5.98066 3.61938 6.23486 3.51394 6.5 3.51367ZM4 5.01367C3.46975 5.01308 2.96139 4.80217 2.58644 4.42723C2.2115 4.05228 2.0006 3.54392 2 3.01367V2.51367H2.5C3.03025 2.51427 3.53861 2.72517 3.91356 3.10012C4.2885 3.47506 4.4994 3.98342 4.5 4.51367V5.01367H4Z" fill="currentColor"/>
<path d="M8 11.0137H1V12.0137H8V11.0137Z" fill="currentColor"/>
<path d="M8 13.5137H1V14.5137H8V13.5137Z" fill="currentColor"/>
<path d="M12.5 15.5137C11.9758 15.5152 11.4644 15.3514 11.0386 15.0457C10.6128 14.7399 10.2942 14.3077 10.1281 13.8105C9.96198 13.3133 9.95682 12.7764 10.1134 12.2761C10.2699 11.7758 10.5801 11.3375 11 11.0237V8.01367C11 7.61585 11.158 7.23432 11.4393 6.95301C11.7206 6.67171 12.1022 6.51367 12.5 6.51367C12.8978 6.51367 13.2794 6.67171 13.5607 6.95301C13.842 7.23432 14 7.61585 14 8.01367V11.0237C14.4199 11.3375 14.7301 11.7758 14.8866 12.2761C15.0432 12.7764 15.038 13.3133 14.8719 13.8105C14.7058 14.3077 14.3872 14.7399 13.9614 15.0457C13.5356 15.3514 13.0242 15.5152 12.5 15.5137ZM12.5 7.51367C12.3674 7.51382 12.2403 7.56654 12.1466 7.66028C12.0529 7.75402 12.0001 7.88111 12 8.01367V11.5787L11.7514 11.7233C11.5233 11.8528 11.3336 12.0404 11.2016 12.2671C11.0696 12.4938 11 12.7514 11 13.0137C11 13.4115 11.158 13.793 11.4393 14.0743C11.7206 14.3556 12.1022 14.5137 12.5 14.5137C12.8978 14.5137 13.2794 14.3556 13.5607 14.0743C13.842 13.793 14 13.4115 14 13.0137C14 12.7513 13.9305 12.4937 13.7985 12.267C13.6665 12.0403 13.4767 11.8526 13.2486 11.7231L13 11.5787V8.01367C12.9999 7.88111 12.9471 7.75402 12.8534 7.66028C12.7597 7.56654 12.6326 7.51382 12.5 7.51367Z" fill="currentColor"/>
</svg>
