<svg viewBox="0 0 16 17" fill="none" xmlns="http://www.w3.org/2000/svg">
<rect width="16" height="16" transform="translate(0 0.513672)" fill="white" fill-opacity="0.01" style="mix-blend-mode:multiply"/>
<path d="M12.25 14.5137C11.5376 14.5291 10.8482 14.2616 10.3327 13.7696C9.81728 13.2777 9.51783 12.6015 9.5 11.8892C9.51043 11.3858 9.66183 10.8954 9.937 10.4738L11.745 7.78282C11.8007 7.70001 11.8758 7.63216 11.9639 7.58525C12.052 7.53834 12.1502 7.5138 12.25 7.5138C12.3498 7.5138 12.448 7.53834 12.5361 7.58525C12.6242 7.63216 12.6993 7.70001 12.755 7.78282L14.53 10.4214C14.8236 10.8557 14.9867 11.3651 15 11.8892C14.9822 12.6015 14.6827 13.2777 14.1673 13.7696C13.6518 14.2616 12.9624 14.5291 12.25 14.5137ZM12.25 8.82367L10.7822 11.0073C10.6073 11.269 10.5096 11.5746 10.5 11.8892C10.5334 12.3304 10.7322 12.7428 11.0567 13.0437C11.3813 13.3446 11.8075 13.5118 12.25 13.5118C12.6925 13.5118 13.1187 13.3446 13.4433 13.0437C13.7678 12.7428 13.9666 12.3304 14 11.8892C13.9884 11.5539 13.8789 11.2294 13.685 10.9557L12.25 8.82367Z" fill="currentColor"/>
<path d="M2.5 7.51367C2.77614 7.51367 3 7.28981 3 7.01367C3 6.73753 2.77614 6.51367 2.5 6.51367C2.22386 6.51367 2 6.73753 2 7.01367C2 7.28981 2.22386 7.51367 2.5 7.51367Z" fill="currentColor"/>
<path d="M5.5 10.5137C5.77614 10.5137 6 10.2898 6 10.0137C6 9.73753 5.77614 9.51367 5.5 9.51367C5.22386 9.51367 5 9.73753 5 10.0137C5 10.2898 5.22386 10.5137 5.5 10.5137Z" fill="currentColor"/>
<path d="M7.5 13.5137C7.77614 13.5137 8 13.2898 8 13.0137C8 12.7375 7.77614 12.5137 7.5 12.5137C7.22386 12.5137 7 12.7375 7 13.0137C7 13.2898 7.22386 13.5137 7.5 13.5137Z" fill="currentColor"/>
<path d="M8.5 8.51367C8.77614 8.51367 9 8.28981 9 8.01367C9 7.73753 8.77614 7.51367 8.5 7.51367C8.22386 7.51367 8 7.73753 8 8.01367C8 8.28981 8.22386 8.51367 8.5 8.51367Z" fill="currentColor"/>
<path d="M6.5 6.51367C6.77614 6.51367 7 6.28981 7 6.01367C7 5.73753 6.77614 5.51367 6.5 5.51367C6.22386 5.51367 6 5.73753 6 6.01367C6 6.28981 6.22386 6.51367 6.5 6.51367Z" fill="currentColor"/>
<path d="M13.5 6.51367C13.7761 6.51367 14 6.28981 14 6.01367C14 5.73753 13.7761 5.51367 13.5 5.51367C13.2239 5.51367 13 5.73753 13 6.01367C13 6.28981 13.2239 6.51367 13.5 6.51367Z" fill="currentColor"/>
<path d="M4.5 14.5137C4.77614 14.5137 5 14.2898 5 14.0137C5 13.7375 4.77614 13.5137 4.5 13.5137C4.22386 13.5137 4 13.7375 4 14.0137C4 14.2898 4.22386 14.5137 4.5 14.5137Z" fill="currentColor"/>
<path d="M1.5 11.5137C1.77614 11.5137 2 11.2898 2 11.0137C2 10.7375 1.77614 10.5137 1.5 10.5137C1.22386 10.5137 1 10.7375 1 11.0137C1 11.2898 1.22386 11.5137 1.5 11.5137Z" fill="currentColor"/>
<path d="M15 3.51367H1V4.51367H15V3.51367Z" fill="currentColor"/>
</svg>
