<svg viewBox="0 0 16 16" fill="none" xmlns="http://www.w3.org/2000/svg">
<rect width="16" height="16" fill="white" fill-opacity="0.01" style="mix-blend-mode:multiply"/>
<path d="M1.50002 5.5V6.5H4.29502L1.14502 9.645L1.85502 10.355L5.00002 7.205V10H6.00002V5.5H1.50002Z" fill="currentColor"/>
<path d="M13 6.5H11.5V6H10.5V6.5H9.00002C8.7348 6.5 8.48045 6.60536 8.29291 6.79289C8.10538 6.98043 8.00002 7.23478 8.00002 7.5V8.5C8.00002 8.76522 8.10538 9.01957 8.29291 9.20711C8.48045 9.39464 8.7348 9.5 9.00002 9.5H10.5V10H11.5V9.5H13C13.2652 9.5 13.5196 9.39464 13.7071 9.20711C13.8947 9.01957 14 8.76522 14 8.5V7.5C14 7.23478 13.8947 6.98043 13.7071 6.79289C13.5196 6.60536 13.2652 6.5 13 6.5ZM9.00002 8.5V7.5H13V8.5H9.00002Z" fill="currentColor"/>
<path d="M13 11.5H11.5V11H10.5V11.5H9.00002C8.7348 11.5 8.48045 11.6054 8.29291 11.7929C8.10538 11.9804 8.00002 12.2348 8.00002 12.5V13.5C8.00002 13.7652 8.10538 14.0196 8.29291 14.2071C8.48045 14.3946 8.7348 14.5 9.00002 14.5H10.5V15H11.5V14.5H13C13.2652 14.5 13.5196 14.3946 13.7071 14.2071C13.8947 14.0196 14 13.7652 14 13.5V12.5C14 12.2348 13.8947 11.9804 13.7071 11.7929C13.5196 11.6054 13.2652 11.5 13 11.5ZM9.00002 13.5V12.5H13V13.5H9.00002Z" fill="currentColor"/>
<path d="M13 1.5H11.5V1H10.5V1.5H9.00002C8.7348 1.5 8.48045 1.60536 8.29291 1.79289C8.10538 1.98043 8.00002 2.23478 8.00002 2.5V3.5C8.00002 3.76522 8.10538 4.01957 8.29291 4.20711C8.48045 4.39464 8.7348 4.5 9.00002 4.5H10.5V5H11.5V4.5H13C13.2652 4.5 13.5196 4.39464 13.7071 4.20711C13.8947 4.01957 14 3.76522 14 3.5V2.5C14 2.23478 13.8947 1.98043 13.7071 1.79289C13.5196 1.60536 13.2652 1.5 13 1.5ZM9.00002 3.5V2.5H13V3.5H9.00002Z" fill="currentColor"/>
</svg>
