<svg viewBox="0 0 16 17" fill="none" xmlns="http://www.w3.org/2000/svg">
<rect width="16" height="16" transform="translate(0 0.513672)" fill="white" fill-opacity="0.01" style="mix-blend-mode:multiply"/>
<path d="M8.00014 3.77367L9.38014 6.56367L9.61014 7.06367L10.1101 7.13867L13.1901 7.58367L11.0001 9.73367L10.6251 10.0987L10.7151 10.5987L11.2401 13.6637L8.48514 12.2187L8.00014 12.0137L7.53514 12.2587L4.78014 13.6837L5.28014 10.6187L5.37014 10.1187L5.00014 9.73367L2.79014 7.55867L5.87014 7.11367L6.37014 7.03867L6.60014 6.53867L8.00014 3.77367ZM8.00014 1.51367L5.72514 6.12367L0.640137 6.85867L4.32014 10.4487L3.45014 15.5137L8.00014 13.1237L12.5501 15.5137L11.6801 10.4487L15.3601 6.86367L10.2751 6.12367L8.00014 1.51367Z" fill="currentColor"/>
</svg>
