<svg viewBox="0 0 16 17" fill="none" xmlns="http://www.w3.org/2000/svg">
<rect width="16" height="16" transform="translate(0 0.513672)" fill="white" fill-opacity="0.01" style="mix-blend-mode:multiply"/>
<path d="M11.5 15.5137H10.5V14.5137C10.4996 14.116 10.3414 13.7347 10.0602 13.4535C9.77897 13.1723 9.39769 13.0141 9 13.0137H7C6.60231 13.0141 6.22103 13.1723 5.93982 13.4535C5.65861 13.7347 5.50044 14.116 5.5 14.5137V15.5137H4.5V14.5137C4.50078 13.8509 4.76442 13.2155 5.2331 12.7468C5.70177 12.2781 6.3372 12.0145 7 12.0137H9C9.6628 12.0145 10.2982 12.2781 10.7669 12.7468C11.2356 13.2155 11.4992 13.8509 11.5 14.5137V15.5137Z" fill="currentColor"/>
<path d="M8 7.0137C8.29667 7.0137 8.58668 7.10168 8.83335 7.2665C9.08003 7.43132 9.27229 7.66559 9.38582 7.93968C9.49935 8.21377 9.52906 8.51537 9.47118 8.80634C9.4133 9.09731 9.27044 9.36458 9.06066 9.57436C8.85088 9.78414 8.58361 9.927 8.29264 9.98488C8.00166 10.0428 7.70006 10.0131 7.42597 9.89952C7.15189 9.78599 6.91762 9.59373 6.7528 9.34706C6.58797 9.10038 6.5 8.81038 6.5 8.5137C6.5 8.11588 6.65804 7.73435 6.93934 7.45304C7.22064 7.17174 7.60218 7.0137 8 7.0137ZM8 6.0137C7.50555 6.0137 7.0222 6.16033 6.61107 6.43503C6.19995 6.70973 5.87952 7.10018 5.6903 7.55699C5.50108 8.01381 5.45157 8.51648 5.54804 9.00143C5.6445 9.48638 5.8826 9.93184 6.23223 10.2815C6.58186 10.6311 7.02732 10.8692 7.51227 10.9657C7.99723 11.0621 8.49989 11.0126 8.95671 10.8234C9.41352 10.6342 9.80397 10.3138 10.0787 9.90263C10.3534 9.49151 10.5 9.00816 10.5 8.5137C10.5 7.85066 10.2366 7.21478 9.76777 6.74594C9.29893 6.2771 8.66304 6.0137 8 6.0137Z" fill="currentColor"/>
<path d="M15 15.5137H14V7.74565L8 2.6687L2 7.74565V15.5137H1V7.5137C0.999995 7.44104 1.01583 7.36925 1.0464 7.30333C1.07696 7.23741 1.12153 7.17894 1.177 7.132L7.677 1.632C7.76728 1.5556 7.88173 1.51367 8 1.51367C8.11827 1.51367 8.23272 1.5556 8.323 1.632L14.823 7.132C14.8785 7.17894 14.923 7.23741 14.9536 7.30333C14.9842 7.36925 15 7.44104 15 7.5137V15.5137Z" fill="currentColor"/>
</svg>
