<svg viewBox="0 0 16 16" fill="none" xmlns="http://www.w3.org/2000/svg">
<rect width="16" height="16" fill="white" fill-opacity="0.01" style="mix-blend-mode:multiply"/>
<path d="M15 5.3397L14 2.3397C13.9652 2.23621 13.8975 2.14695 13.8072 2.08556C13.717 2.02417 13.6091 1.99401 13.5 1.9997H2.50003C2.391 1.99401 2.2831 2.02417 2.19281 2.08556C2.10253 2.14695 2.03482 2.23621 2.00003 2.3397L1.00003 5.3397C0.992828 5.39279 0.992828 5.44661 1.00003 5.4997V8.4997C1.00003 8.63231 1.05271 8.75949 1.14648 8.85326C1.24025 8.94703 1.36742 8.9997 1.50003 8.9997H2.00003V13.9997H3.00003V8.9997H6.00003V13.9997H14V8.9997H14.5C14.6326 8.9997 14.7598 8.94703 14.8536 8.85326C14.9474 8.75949 15 8.63231 15 8.4997V5.4997C15.0072 5.44661 15.0072 5.39279 15 5.3397V5.3397ZM13 12.9997H7.00003V8.9997H13V12.9997ZM14 7.9997H12V5.9997H11V7.9997H8.50003V5.9997H7.50003V7.9997H5.00003V5.9997H4.00003V7.9997H2.00003V5.5797L2.86003 2.9997H13.14L14 5.5797V7.9997Z" fill="currentColor"/>
</svg>
