<svg viewBox="0 0 16 16" fill="none" xmlns="http://www.w3.org/2000/svg">
<rect width="16" height="16" fill="white" fill-opacity="0.01" style="mix-blend-mode:multiply"/>
<path d="M6 1.7075L5.293 1L3.5 2.7935L1.707 1L1 1.7075L2.793 3.5L1 5.293L1.707 6L3.5 4.207L5.293 6L6 5.293L4.207 3.5L6 1.7075Z" fill="currentColor"/>
<path d="M12.5 1L10 3.5L10.7044 4.20945L12 2.89695V7.5H4C3.4486 7.5 3 7.94875 3 8.5V10.0506C1.86035 10.2828 1 11.2928 1 12.5C1 13.8784 2.12145 15 3.5 15C4.87855 15 6 13.8784 6 12.5C6 11.2927 5.13965 10.2827 4 10.0506V8.5H12C12.5514 8.5 13 8.05125 13 7.5V2.9236L14.2956 4.2095L15 3.50005L12.5 1ZM5 12.5C5 13.3271 4.32715 14 3.5 14C2.67285 14 2 13.3271 2 12.5C2 11.6729 2.67285 11 3.5 11C4.32715 11 5 11.6729 5 12.5Z" fill="currentColor"/>
<path d="M15 10.7075L14.293 10L12.5 11.7935L10.707 10L10 10.7075L11.793 12.5L10 14.293L10.707 15L12.5 13.207L14.293 15L15 14.293L13.207 12.5L15 10.7075Z" fill="currentColor"/>
</svg>
