<svg viewBox="0 0 16 16" fill="none" xmlns="http://www.w3.org/2000/svg">
<rect width="16" height="16" fill="white" fill-opacity="0.01" style="mix-blend-mode:multiply"/>
<path d="M11 4.49962H13.6C12.9516 3.51033 12.0015 2.75643 10.8908 2.34979C9.78006 1.94314 8.56782 1.90542 7.43394 2.24222C6.30006 2.57901 5.30497 3.27238 4.59632 4.21944C3.88767 5.1665 3.50321 6.31678 3.5 7.49962H2.5C2.50068 6.16322 2.91327 4.85951 3.68158 3.76604C4.44988 2.67257 5.53656 1.84249 6.79362 1.38886C8.05067 0.935225 9.417 0.880085 10.7065 1.23095C11.996 1.58181 13.1461 2.32162 14 3.34962V1.49962H15V5.49962H11V4.49962Z" fill="currentColor"/>
<path d="M8 5.99962C8.29667 5.99962 8.58668 6.08759 8.83335 6.25242C9.08003 6.41724 9.27229 6.65151 9.38582 6.92559C9.49935 7.19968 9.52906 7.50128 9.47118 7.79225C9.4133 8.08323 9.27044 8.3505 9.06066 8.56028C8.85088 8.77006 8.58361 8.91292 8.29264 8.9708C8.00166 9.02868 7.70006 8.99897 7.42597 8.88544C7.15189 8.77191 6.91762 8.57965 6.7528 8.33297C6.58797 8.0863 6.5 7.79629 6.5 7.49962C6.49662 7.3017 6.5331 7.10513 6.60729 6.92162C6.68147 6.7381 6.79183 6.57139 6.9318 6.43142C7.07177 6.29145 7.23848 6.18109 7.422 6.10691C7.60551 6.03272 7.80208 5.99624 8 5.99962ZM8 4.99962C7.50555 4.99962 7.0222 5.14624 6.61107 5.42095C6.19995 5.69565 5.87952 6.0861 5.6903 6.54291C5.50108 6.99973 5.45157 7.50239 5.54804 7.98735C5.6445 8.4723 5.8826 8.91776 6.23223 9.26739C6.58186 9.61702 7.02732 9.85512 7.51227 9.95158C7.99723 10.048 8.49989 9.99854 8.95671 9.80932C9.41352 9.6201 9.80397 9.29967 10.0787 8.88855C10.3534 8.47742 10.5 7.99407 10.5 7.49962C10.5 6.83658 10.2366 6.20069 9.76777 5.73185C9.29893 5.26301 8.66304 4.99962 8 4.99962Z" fill="currentColor"/>
<path d="M11.5 14.9996H10.5V13.4996C10.5 13.1018 10.342 12.7203 10.0607 12.439C9.77936 12.1577 9.39782 11.9996 9 11.9996H7C6.60218 11.9996 6.22064 12.1577 5.93934 12.439C5.65804 12.7203 5.5 13.1018 5.5 13.4996V14.9996H4.5V13.4996C4.5 12.8366 4.76339 12.2007 5.23223 11.7319C5.70107 11.263 6.33696 10.9996 7 10.9996H9C9.3283 10.9996 9.65339 11.0643 9.95671 11.1899C10.26 11.3156 10.5356 11.4997 10.7678 11.7319C10.9999 11.964 11.1841 12.2396 11.3097 12.5429C11.4353 12.8462 11.5 13.1713 11.5 13.4996V14.9996Z" fill="currentColor"/>
</svg>
