<svg viewBox="0 0 16 16" fill="none" xmlns="http://www.w3.org/2000/svg">
<rect width="16" height="16" fill="white" fill-opacity="0.01" style="mix-blend-mode:multiply"/>
<path d="M7.6736 14.9929C6.95496 14.9604 6.2457 14.8168 5.57105 14.5671L5.9182 13.6294C6.4962 13.8432 7.10384 13.9662 7.7195 13.9939L7.6736 14.9929ZM9.80615 14.765L9.54885 13.7987C10.1444 13.6401 10.7116 13.39 11.2304 13.0574L11.7696 13.8997C11.1638 14.2879 10.5014 14.5798 9.80615 14.765ZM3.6975 13.5223C3.13059 13.0802 2.63483 12.5538 2.2275 11.9614L3.0517 11.3948C3.40102 11.9031 3.82631 12.3548 4.3127 12.734L3.6975 13.5223ZM1.29835 10.0276C1.10045 9.37003 1.00002 8.68703 1.00025 8.00036H2C1.99983 8.58914 2.08604 9.17476 2.25585 9.73851L1.29835 10.0276Z" fill="currentColor"/>
<path d="M13 8.50036L12.2929 9.20741L13.0859 10.0004H7.90785C7.87257 9.89971 7.8266 9.80313 7.77075 9.71226L10.0112 6.91176C10.168 6.96855 10.3333 6.9985 10.5 7.00036C10.7753 7.00153 11.0455 6.92693 11.2812 6.78473C11.5169 6.64253 11.709 6.43822 11.8363 6.19416C11.9636 5.95011 12.0213 5.67573 12.0031 5.40106C11.9848 5.1264 11.8914 4.86205 11.7329 4.63695C11.5745 4.41186 11.3572 4.23471 11.1047 4.1249C10.8523 4.01509 10.5746 3.97685 10.3019 4.01438C10.0292 4.05191 9.77206 4.16375 9.55868 4.33766C9.34531 4.51157 9.18391 4.74084 9.09215 5.00036H6.90785C6.80596 4.70819 6.6157 4.45496 6.36344 4.27577C6.11118 4.09659 5.80942 4.00032 5.5 4.00032C5.19058 4.00032 4.88882 4.09659 4.63656 4.27577C4.3843 4.45496 4.19404 4.70819 4.09215 5.00036H1V6.00036H4.09215C4.19404 6.29253 4.3843 6.54576 4.63656 6.72495C4.88882 6.90414 5.19058 7.0004 5.5 7.0004C5.80942 7.0004 6.11118 6.90414 6.36344 6.72495C6.6157 6.54576 6.80596 6.29253 6.90785 6.00036H9.09215C9.12743 6.10102 9.1734 6.1976 9.22925 6.28846L6.98875 9.08896C6.83197 9.03218 6.66674 9.00222 6.5 9.00036C6.22473 8.9992 5.95446 9.0738 5.71876 9.216C5.48307 9.3582 5.29105 9.56251 5.16373 9.80656C5.03641 10.0506 4.97871 10.325 4.99693 10.5997C5.01516 10.8743 5.10861 11.1387 5.26706 11.3638C5.42551 11.5889 5.64284 11.766 5.89526 11.8758C6.14767 11.9856 6.42544 12.0239 6.69813 11.9863C6.97083 11.9488 7.22794 11.837 7.44132 11.6631C7.65469 11.4892 7.81609 11.2599 7.90785 11.0004H13.0859L12.2929 11.7933L13 12.5004L15 10.5004L13 8.50036ZM10.5 5.00036C10.5989 5.00036 10.6956 5.02969 10.7778 5.08463C10.86 5.13957 10.9241 5.21766 10.9619 5.30902C10.9998 5.40038 11.0097 5.50092 10.9904 5.59791C10.9711 5.6949 10.9235 5.78399 10.8536 5.85392C10.7836 5.92384 10.6945 5.97146 10.5975 5.99076C10.5006 6.01005 10.4 6.00015 10.3087 5.9623C10.2173 5.92446 10.1392 5.86037 10.0843 5.77815C10.0293 5.69592 10 5.59925 10 5.50036C10.0001 5.36779 10.0528 5.24068 10.1466 5.14694C10.2403 5.0532 10.3674 5.00048 10.5 5.00036ZM5.5 6.00036C5.40111 6.00036 5.30444 5.97104 5.22221 5.9161C5.13999 5.86116 5.0759 5.78307 5.03806 5.6917C5.00022 5.60034 4.99031 5.49981 5.00961 5.40282C5.0289 5.30583 5.07652 5.21674 5.14645 5.14681C5.21637 5.07688 5.30546 5.02926 5.40245 5.00997C5.49945 4.99068 5.59998 5.00058 5.69134 5.03842C5.7827 5.07627 5.86079 5.14035 5.91573 5.22258C5.97068 5.3048 6 5.40147 6 5.50036C5.99988 5.63293 5.94716 5.76004 5.85342 5.85378C5.75968 5.94753 5.63257 6.00024 5.5 6.00036ZM6.5 11.0004C6.40111 11.0004 6.30444 10.971 6.22221 10.9161C6.13999 10.8612 6.0759 10.7831 6.03806 10.6917C6.00022 10.6003 5.99031 10.4998 6.00961 10.4028C6.0289 10.3058 6.07652 10.2167 6.14645 10.1468C6.21637 10.0769 6.30546 10.0293 6.40245 10.01C6.49945 9.99068 6.59998 10.0006 6.69134 10.0384C6.7827 10.0763 6.86079 10.1404 6.91573 10.2226C6.97068 10.3048 7 10.4015 7 10.5004C6.99988 10.6329 6.94716 10.76 6.85342 10.8538C6.75968 10.9475 6.63257 11.0002 6.5 11.0004Z" fill="currentColor"/>
<path d="M14 8.00036C14.0002 7.41159 13.914 6.82597 13.7442 6.26221L14.7016 5.97316C14.8996 6.63069 15.0001 7.31368 15 8.00036H14ZM12.9482 4.60596C12.5989 4.09764 12.1736 3.64597 11.6873 3.26671L12.3022 2.47841C12.8692 2.92051 13.3649 3.44692 13.7722 4.03931L12.9482 4.60596ZM4.76955 2.94336L4.23045 2.10106C4.83623 1.71282 5.49858 1.4209 6.19385 1.23571L6.45115 2.20201C5.85565 2.36066 5.28836 2.61076 4.76955 2.94336ZM10.0818 2.37131C9.5038 2.15748 8.89616 2.03452 8.2805 2.00681L8.3264 1.00781C9.04504 1.0403 9.7543 1.18394 10.429 1.43361L10.0818 2.37131Z" fill="currentColor"/>
</svg>
