<svg viewBox="0 0 16 17" fill="none" xmlns="http://www.w3.org/2000/svg">
<rect width="16" height="16" transform="translate(0 0.513672)" fill="white" fill-opacity="0.01" style="mix-blend-mode:multiply"/>
<path d="M14.9993 14.0137H1V15.0137H14.9993V14.0137Z" fill="currentColor"/>
<path d="M8 10.5137C8.53025 10.5143 9.03861 10.7252 9.41356 11.1001C9.7885 11.4751 9.9994 11.9834 10 12.5137H11C11 11.718 10.6839 10.955 10.1213 10.3924C9.55871 9.82974 8.79565 9.51367 8 9.51367C7.20435 9.51367 6.44129 9.82974 5.87868 10.3924C5.31607 10.955 5 11.718 5 12.5137H6C6.0006 11.9834 6.2115 11.4751 6.58644 11.1001C6.96139 10.7252 7.46975 10.5143 8 10.5137Z" fill="currentColor"/>
<path d="M15 11.5137H12.5V12.5137H15V11.5137Z" fill="currentColor"/>
<path d="M12.5962 7.21043L10.8433 8.96334L11.5503 9.67038L13.3032 7.91746L12.5962 7.21043Z" fill="currentColor"/>
<path d="M8 2.51367L5.5 5.01367L6.205 5.71867L7.5 4.42867V8.01367H8.5V4.42867L9.795 5.71867L10.5 5.01367L8 2.51367Z" fill="currentColor"/>
<path d="M3.4038 7.21047L2.69676 7.91751L4.44968 9.67043L5.15672 8.96339L3.4038 7.21047Z" fill="currentColor"/>
<path d="M3.5 11.5137H1V12.5137H3.5V11.5137Z" fill="currentColor"/>
</svg>
