<svg viewBox="0 0 16 17" fill="none" xmlns="http://www.w3.org/2000/svg">
<rect width="16" height="16" transform="translate(0 0.513672)" fill="white" fill-opacity="0.01" style="mix-blend-mode:multiply"/>
<path d="M14.9993 14.0166H1V15.0166H14.9993V14.0166Z" fill="currentColor"/>
<path d="M8 10.5166C8.53025 10.5171 9.03861 10.7281 9.41356 11.103C9.7885 11.4779 9.9994 11.9863 10 12.5166H11C11 11.7209 10.6839 10.9578 10.1213 10.3952C9.55871 9.83262 8.79565 9.51655 8 9.51655C7.20435 9.51655 6.44129 9.83262 5.87868 10.3952C5.31607 10.9578 5 11.7209 5 12.5166H6C6.0006 11.9863 6.2115 11.4779 6.58644 11.103C6.96139 10.7281 7.46975 10.5171 8 10.5166Z" fill="currentColor"/>
<path d="M15 11.5166H12.5V12.5166H15V11.5166Z" fill="currentColor"/>
<path d="M12.5962 7.21331L10.8433 8.96622L11.5503 9.67326L13.3032 7.92034L12.5962 7.21331Z" fill="currentColor"/>
<path d="M9.795 5.3116L8.5 6.6016V2.5166H7.5V6.6016L6.205 5.3116L5.5 6.0166L8 8.5166L10.5 6.0166L9.795 5.3116Z" fill="currentColor"/>
<path d="M3.4038 7.2133L2.69676 7.92034L4.44968 9.67326L5.15672 8.96622L3.4038 7.2133Z" fill="currentColor"/>
<path d="M3.5 11.5166H1V12.5166H3.5V11.5166Z" fill="currentColor"/>
</svg>
