<svg viewBox="0 0 16 16" fill="none" xmlns="http://www.w3.org/2000/svg">
<g clip-path="url(#clip0_1961_6915)">
<rect width="16" height="16" fill="white" fill-opacity="0.01" style="mix-blend-mode:multiply"/>
<path d="M10.7854 13.8748C9.912 14.2896 8.97485 14.5 8 14.5C4.4159 14.5 1.5 11.584 1.5 8C1.5 6.4624 2.02855 5.0105 3 3.8462V5H4V2H1V3H2.4208C1.18315 4.37695 0.5 6.1311 0.5 8C0.5 12.1355 3.8645 15.5 8 15.5C9.1245 15.5 10.2059 15.2571 11.2146 14.7781L10.7854 13.8748Z" fill="currentColor"/>
<path d="M10.5 4.5C8.9199 4.5 7.62425 5.7285 7.5111 7.28025C6.9784 6.79735 6.27415 6.5 5.5 6.5H3.5V8.5C3.5 10.1543 4.84585 11.5 6.5 11.5H7.5V13.5H8.5V9.49975L9.5 9.5C11.1542 9.5 12.5 8.1543 12.5 6.5V4.5H10.5ZM6.5 10.5C5.3972 10.5 4.5 9.6028 4.5 8.5V7.5H5.5C6.6028 7.5 7.5 8.3972 7.5 9.5V9.79295L6.3535 8.64645L5.64645 9.3535L6.79295 10.5H6.5ZM11.5 6.5C11.5 7.6028 10.6028 8.5 9.5 8.5H9.20705L10.3535 7.3535L9.6465 6.64645L8.5 7.79295V7.5C8.5 6.3972 9.3972 5.5 10.5 5.5H11.5V6.5Z" fill="currentColor"/>
<path d="M15.5 8C15.5 3.8645 12.1355 0.5 8 0.5C6.8755 0.5 5.79405 0.7429 4.7854 1.2219L5.2146 2.1252C6.088 1.7104 7.02515 1.49995 8 1.49995C11.5841 1.49995 14.5 4.41595 14.5 7.99995C14.5 9.53755 13.9714 10.9895 13 12.1538V11H12V14H15V13H13.5792C14.8169 11.623 15.5 9.8689 15.5 8Z" fill="currentColor"/>
</g>
<defs>
<clipPath id="clip0_1961_6915">
<rect width="16" height="16" fill="white"/>
</clipPath>
</defs>
</svg>
