<svg viewBox="0 0 16 17" fill="none" xmlns="http://www.w3.org/2000/svg">
<rect width="16" height="16" transform="translate(0 0.513672)" fill="white" fill-opacity="0.01" style="mix-blend-mode:multiply"/>
<path d="M15 13.5137H14C13.612 13.5171 13.2286 13.4289 12.8811 13.2562C12.5335 13.0836 12.2317 12.8313 12 12.52C11.766 12.8288 11.4636 13.0792 11.1166 13.2516C10.7696 13.424 10.3874 13.5137 10 13.5137C9.61255 13.5137 9.23037 13.424 8.88338 13.2516C8.5364 13.0792 8.23404 12.8288 8 12.52C7.76596 12.8288 7.4636 13.0792 7.11662 13.2516C6.76964 13.424 6.38745 13.5137 6 13.5137C5.61255 13.5137 5.23036 13.424 4.88338 13.2516C4.5364 13.0792 4.23404 12.8288 4 12.52C3.76834 12.8313 3.46647 13.0836 3.11894 13.2562C2.77141 13.4289 2.38804 13.5171 2 13.5137H1V12.5137H2C2.34095 12.4936 2.66821 12.3725 2.94009 12.1658C3.21196 11.9591 3.41614 11.6761 3.5266 11.3529C3.55822 11.2528 3.62145 11.1656 3.7068 11.1045C3.79215 11.0433 3.89502 11.0114 4 11.0137C4.10482 11.0142 4.20686 11.0474 4.2919 11.1087C4.37693 11.17 4.44072 11.2563 4.47435 11.3556C4.58507 11.6782 4.78926 11.9606 5.06093 12.1668C5.33261 12.373 5.6595 12.4938 6 12.5137C6.34095 12.4936 6.66821 12.3725 6.94009 12.1658C7.21196 11.9591 7.41614 11.6761 7.5266 11.3529C7.55952 11.2536 7.62307 11.1673 7.70813 11.1063C7.79318 11.0454 7.89536 11.0129 8 11.0137C8.10482 11.0142 8.20686 11.0474 8.2919 11.1087C8.37693 11.17 8.44072 11.2563 8.47435 11.3556C8.58507 11.6782 8.78926 11.9606 9.06094 12.1668C9.33261 12.373 9.6595 12.4938 10 12.5137C10.341 12.4936 10.6682 12.3725 10.9401 12.1658C11.212 11.9591 11.4161 11.6761 11.5266 11.3529C11.5603 11.2538 11.6242 11.1677 11.7094 11.1069C11.7946 11.046 11.8967 11.0135 12.0014 11.0138C12.1061 11.014 12.2081 11.0472 12.2929 11.1085C12.3778 11.1698 12.4412 11.2563 12.4743 11.3556C12.5851 11.6782 12.7893 11.9606 13.0609 12.1668C13.3326 12.373 13.6595 12.4938 14 12.5137H15V13.5137Z" fill="currentColor"/>
<path d="M11.5 9.30662L7.1465 4.95312C7.00755 4.81333 6.84224 4.70251 6.66015 4.62708C6.47805 4.55164 6.2828 4.5131 6.0857 4.51367H2V5.51367H6.0857C6.15142 5.51347 6.21654 5.52631 6.27726 5.55146C6.33798 5.57661 6.39311 5.61356 6.43945 5.66017L7.79295 7.01367L5 9.80662L5.70705 10.5137L8.5 7.72072L10.7929 10.0137L11.5 9.30662Z" fill="currentColor"/>
<path d="M10 5.51367C10 5.11811 10.1173 4.73143 10.3371 4.40253C10.5568 4.07363 10.8692 3.81729 11.2346 3.66591C11.6001 3.51454 12.0022 3.47493 12.3902 3.5521C12.7781 3.62927 13.1345 3.81975 13.4142 4.09946C13.6939 4.37916 13.8844 4.73553 13.9616 5.12349C14.0387 5.51145 13.9991 5.91359 13.8478 6.27904C13.6964 6.64449 13.44 6.95685 13.1111 7.17661C12.7822 7.39637 12.3956 7.51367 12 7.51367C11.4697 7.51312 10.9614 7.30222 10.5864 6.92727C10.2114 6.55232 10.0006 6.04394 10 5.51367ZM11 5.51367C11 5.71145 11.0586 5.90479 11.1685 6.06924C11.2784 6.23369 11.4346 6.36186 11.6173 6.43755C11.8 6.51324 12.0011 6.53304 12.1951 6.49446C12.3891 6.45587 12.5673 6.36063 12.7071 6.22078C12.847 6.08093 12.9422 5.90274 12.9808 5.70876C13.0194 5.51478 12.9996 5.31372 12.9239 5.13099C12.8482 4.94826 12.72 4.79208 12.5556 4.6822C12.3911 4.57232 12.1978 4.51367 12 4.51367C11.7349 4.51398 11.4807 4.61943 11.2932 4.8069C11.1058 4.99437 11.0003 5.24855 11 5.51367Z" fill="currentColor"/>
</svg>
