<svg viewBox="0 0 16 16" fill="none" xmlns="http://www.w3.org/2000/svg">
<rect width="16" height="16" fill="white" fill-opacity="0.01" style="mix-blend-mode:multiply"/>
<path d="M10.4999 10.0002V15.0002L14.9999 12.5002L10.4999 10.0002Z" fill="currentColor"/>
<path d="M6.99994 8.00016C7.55222 8.00016 7.99994 7.55245 7.99994 7.00016C7.99994 6.44788 7.55222 6.00016 6.99994 6.00016C6.44765 6.00016 5.99994 6.44788 5.99994 7.00016C5.99994 7.55245 6.44765 8.00016 6.99994 8.00016Z" fill="currentColor"/>
<path d="M6.99994 10.0002C6.4066 10.0002 5.82658 9.82422 5.33323 9.49457C4.83988 9.16493 4.45536 8.69639 4.2283 8.14821C4.00124 7.60003 3.94183 6.99684 4.05758 6.41489C4.17334 5.83295 4.45906 5.2984 4.87862 4.87884C5.29818 4.45929 5.83273 4.17356 6.41467 4.05781C6.99661 3.94205 7.59981 4.00146 8.14799 4.22852C8.69617 4.45559 9.1647 4.8401 9.49435 5.33345C9.82399 5.8268 9.99994 6.40682 9.99994 7.00016C9.99907 7.79554 9.68271 8.5581 9.12029 9.12052C8.55787 9.68294 7.79532 9.99929 6.99994 10.0002ZM6.99994 5.00016C6.60438 5.00016 6.2177 5.11746 5.8888 5.33722C5.5599 5.55699 5.30356 5.86934 5.15218 6.2348C5.0008 6.60025 4.9612 7.00238 5.03837 7.39034C5.11554 7.77831 5.30602 8.13467 5.58573 8.41438C5.86543 8.69408 6.2218 8.88456 6.60976 8.96173C6.99772 9.0389 7.39985 8.9993 7.76531 8.84792C8.13076 8.69655 8.44312 8.4402 8.66288 8.1113C8.88264 7.7824 8.99994 7.39573 8.99994 7.00016C8.99934 6.46991 8.78844 5.96155 8.4135 5.58661C8.03855 5.21166 7.53019 5.00076 6.99994 5.00016Z" fill="currentColor"/>
<path d="M12.9755 6.45516H12.9723C12.8657 5.2244 12.3833 4.05616 11.5905 3.10872C10.7978 2.16128 9.73289 1.48045 8.54021 1.15845C7.34754 0.836458 6.08471 0.888871 4.92282 1.30859C3.76094 1.72831 2.75615 2.49505 2.0446 3.50492C1.33305 4.5148 0.949133 5.71899 0.94486 6.95436C0.940588 8.18972 1.31617 9.39655 2.02071 10.4113C2.72526 11.4261 3.72472 12.1998 4.88368 12.6275C6.04263 13.0553 7.30507 13.1164 8.49994 12.8027V11.7695C7.44021 12.1011 6.30013 12.0699 5.26014 11.6807C4.22016 11.2915 3.33968 10.5666 2.75804 9.62069C2.17641 8.67479 1.92686 7.56192 2.04888 6.45822C2.1709 5.35452 2.65753 4.32304 3.43174 3.52703C4.20595 2.73102 5.22352 2.21595 6.32341 2.06334C7.42329 1.91072 8.54266 2.12929 9.50435 2.68443C10.466 3.23958 11.2151 4.0996 11.633 5.12838C12.0509 6.15716 12.1138 7.29593 11.8117 8.36446L12.7741 8.63646C12.9242 8.10401 13.0002 7.55339 12.9999 7.00016C12.9999 6.81656 12.9918 6.6349 12.9755 6.45516Z" fill="currentColor"/>
</svg>
