<svg viewBox="0 0 16 17" fill="none" xmlns="http://www.w3.org/2000/svg">
<rect width="16" height="16" transform="translate(0 0.513672)" fill="white" fill-opacity="0.01" style="mix-blend-mode:multiply"/>
<path d="M4 13.5137H2V15.5137H4V13.5137Z" fill="currentColor"/>
<path d="M9 13.5137H7V15.5137H9V13.5137Z" fill="currentColor"/>
<path d="M14 13.5137H12V15.5137H14V13.5137Z" fill="currentColor"/>
<path d="M12.5 9.51367H8.5V8.51367H7.5V9.51367H3.5C2.9486 9.51367 2.5 9.96242 2.5 10.5137V12.5137H3.5V10.5137H7.5V12.5137H8.5V10.5137H12.5V12.5137H13.5V10.5137C13.5 9.96242 13.0514 9.51367 12.5 9.51367Z" fill="currentColor"/>
<path d="M10 1.51367H6C5.4486 1.51367 5 1.96242 5 2.51367V6.51367C5 7.06492 5.4486 7.51367 6 7.51367H10C10.5514 7.51367 11 7.06492 11 6.51367V2.51367C11 1.96242 10.5514 1.51367 10 1.51367ZM9.29295 2.51367L6 5.80662V2.51367H9.29295ZM6.707 6.51367L10.0001 3.22072L10.0006 6.51367H6.707Z" fill="currentColor"/>
</svg>
