<svg viewBox="0 0 16 17" fill="none" xmlns="http://www.w3.org/2000/svg">
<rect width="16" height="16" transform="translate(0 0.513672)" fill="white" fill-opacity="0.01" style="mix-blend-mode:multiply"/>
<path d="M13 7.01367H12V10.0137H13V7.01367Z" fill="currentColor"/>
<path d="M15 4.01367V13.0137C14.9997 13.2788 14.8942 13.533 14.7068 13.7204C14.5193 13.9079 14.2651 14.0134 14 14.0137H2C1.73486 14.0134 1.48066 13.908 1.29319 13.7205C1.10571 13.533 1.00026 13.2788 1 13.0137V4.01367C1.0003 3.74855 1.10576 3.49437 1.29323 3.3069C1.4807 3.11943 1.73488 3.01398 2 3.01367H14C14.2651 3.01403 14.5193 3.1195 14.7067 3.30696C14.8942 3.49442 14.9996 3.74857 15 4.01367ZM2 13.0137H14V4.01367H2V13.0137Z" fill="currentColor"/>
</svg>
