<svg viewBox="0 0 16 17" fill="none" xmlns="http://www.w3.org/2000/svg">
<rect width="16" height="16" transform="translate(0 0.513672)" fill="white" fill-opacity="0.01" style="mix-blend-mode:multiply"/>
<path d="M15 14.5137H8V15.5137H15V14.5137Z" fill="currentColor"/>
<path d="M13.5 13.5137H9.5C8.9486 13.5137 8.5 13.0651 8.5 12.5137V10.0137C8.5 9.46227 8.9486 9.01367 9.5 9.01367H13.5C14.0514 9.01367 14.5 9.46227 14.5 10.0137V12.5137C14.5 13.0651 14.0514 13.5137 13.5 13.5137ZM9.5 10.0137V12.5137H13.5V10.0137H9.5Z" fill="currentColor"/>
<path d="M7.5 12.0137H5C4.4486 12.0137 4 11.5651 4 11.0137V9.01367H5V11.0137H7.5V12.0137Z" fill="currentColor"/>
<path d="M8 7.01367H1V8.01367H8V7.01367Z" fill="currentColor"/>
<path d="M6.5 6.01367H2.5C1.9486 6.01367 1.5 5.56507 1.5 5.01367V2.51367C1.5 1.96227 1.9486 1.51367 2.5 1.51367H6.5C7.0514 1.51367 7.5 1.96227 7.5 2.51367V5.01367C7.5 5.56507 7.0514 6.01367 6.5 6.01367ZM2.5 2.51367V5.01367H6.5V2.51367H2.5Z" fill="currentColor"/>
</svg>
