<svg viewBox="0 0 16 17" fill="none" xmlns="http://www.w3.org/2000/svg">
<rect width="16" height="16" transform="translate(0 0.513672)" fill="white" fill-opacity="0.01" style="mix-blend-mode:multiply"/>
<path d="M6.99985 5.01367C7.38789 5.0171 7.77126 4.9289 8.11879 4.75624C8.46632 4.58358 8.76819 4.33134 8.99985 4.02002C9.23389 4.32879 9.53625 4.57918 9.88323 4.75158C10.2302 4.92397 10.6124 5.01368 10.9999 5.01368C11.3873 5.01368 11.7695 4.92397 12.1165 4.75158C12.4635 4.57918 12.7658 4.32879 12.9999 4.02002C13.2315 4.33134 13.5334 4.58358 13.8809 4.75624C14.2284 4.9289 14.6118 5.0171 14.9999 5.01367V4.01367C14.6593 3.99379 14.3324 3.87305 14.0607 3.6668C13.789 3.46055 13.5849 3.17812 13.4742 2.85547C13.4405 2.75622 13.3768 2.66994 13.2917 2.60867C13.2067 2.5474 13.1047 2.51419 12.9999 2.51367C12.8952 2.51288 12.793 2.54531 12.7079 2.60629C12.6229 2.66727 12.5593 2.75365 12.5265 2.85302C12.416 3.17619 12.2118 3.45915 11.9399 3.66585C11.668 3.87255 11.3408 3.99363 10.9999 4.01367C10.6593 3.99379 10.3324 3.87305 10.0607 3.6668C9.78905 3.46055 9.58488 3.17812 9.4742 2.85547C9.44055 2.75622 9.37675 2.66994 9.29172 2.60867C9.20669 2.5474 9.10466 2.51419 8.99985 2.51367C8.89486 2.51143 8.79197 2.54328 8.70661 2.60447C8.62126 2.66565 8.55804 2.75287 8.52645 2.85302C8.41598 3.17619 8.21179 3.45915 7.93992 3.66585C7.66805 3.87255 7.34079 3.99363 6.99985 4.01367H6.49985V3.51367C6.49985 2.98324 6.28914 2.47453 5.91407 2.09946C5.53899 1.72439 5.03029 1.51367 4.49985 1.51367C3.96942 1.51367 3.46071 1.72439 3.08564 2.09946C2.71057 2.47453 2.49985 2.98324 2.49985 3.51367V9.14452C1.90541 9.55543 1.45245 10.14 1.20294 10.8182C0.953427 11.4964 0.919561 12.2351 1.10597 12.9333C1.29238 13.6315 1.68996 14.255 2.24432 14.7186C2.79867 15.1821 3.48272 15.4631 4.20288 15.523C4.92303 15.583 5.6441 15.4189 6.26745 15.0533C6.89079 14.6877 7.38595 14.1385 7.68518 13.4807C7.98441 12.8229 8.0731 12.0887 7.9391 11.3786C7.8051 10.6685 7.45497 10.0172 6.9366 9.51367H6.99985C7.38789 9.5171 7.77126 9.4289 8.11879 9.25624C8.46632 9.08358 8.76819 8.83134 8.99985 8.52002C9.23389 8.82879 9.53625 9.07918 9.88323 9.25158C10.2302 9.42397 10.6124 9.51368 10.9999 9.51368C11.3873 9.51368 11.7695 9.42397 12.1165 9.25158C12.4635 9.07918 12.7658 8.82879 12.9999 8.52002C13.2315 8.83134 13.5334 9.08358 13.8809 9.25624C14.2284 9.4289 14.6118 9.5171 14.9999 9.51367V8.51367C14.6593 8.49379 14.3324 8.37305 14.0607 8.1668C13.789 7.96055 13.5849 7.67812 13.4742 7.35547C13.4405 7.25622 13.3768 7.16994 13.2917 7.10867C13.2067 7.0474 13.1047 7.01419 12.9999 7.01367C12.8952 7.01288 12.793 7.04531 12.7079 7.10629C12.6229 7.16727 12.5593 7.25365 12.5265 7.35302C12.416 7.67619 12.2118 7.95915 11.9399 8.16585C11.668 8.37255 11.3408 8.49363 10.9999 8.51367C10.6593 8.49379 10.3324 8.37305 10.0607 8.1668C9.78905 7.96055 9.58488 7.67812 9.4742 7.35547C9.44055 7.25622 9.37675 7.16994 9.29172 7.10867C9.20669 7.0474 9.10466 7.01419 8.99985 7.01367C8.89486 7.01143 8.79197 7.04328 8.70661 7.10447C8.62126 7.16565 8.55804 7.25287 8.52645 7.35302C8.41598 7.67619 8.21179 7.95915 7.93992 8.16585C7.66805 8.37255 7.34079 8.49363 6.99985 8.51367H6.49985V5.01367H6.99985ZM3.49985 3.51367C3.49985 3.24846 3.60521 2.9941 3.79275 2.80657C3.98028 2.61903 4.23464 2.51367 4.49985 2.51367C4.76507 2.51367 5.01942 2.61903 5.20696 2.80657C5.3945 2.9941 5.49985 3.24846 5.49985 3.51367V6.51367H3.49985V3.51367ZM4.49985 14.5137C3.94961 14.5141 3.41464 14.3328 2.97798 13.998C2.54132 13.6632 2.22741 13.1936 2.08498 12.6621C1.94255 12.1306 1.97957 11.567 2.1903 11.0587C2.40102 10.5504 2.77366 10.1259 3.25035 9.85107L3.49985 9.70652V7.51367H5.49985V9.70652L5.74935 9.85107C6.22605 10.1259 6.59869 10.5504 6.80941 11.0587C7.02013 11.567 7.05715 12.1306 6.91472 12.6621C6.77229 13.1936 6.45838 13.6632 6.02173 13.998C5.58507 14.3328 5.05009 14.5141 4.49985 14.5137Z" fill="currentColor"/>
</svg>
