<svg viewBox="0 0 16 17" fill="none" xmlns="http://www.w3.org/2000/svg">
<rect width="16" height="16" transform="translate(0 0.513672)" fill="white" fill-opacity="0.01" style="mix-blend-mode:multiply"/>
<path d="M13 14.0137H8.5C8.23488 14.0134 7.9807 13.9079 7.79323 13.7204C7.60576 13.533 7.50031 13.2788 7.5 13.0137V6.01367C7.50027 5.74854 7.60571 5.49434 7.79319 5.30686C7.98067 5.11938 8.23487 5.01394 8.5 5.01367H13V6.01367H8.5V13.0137H13V14.0137Z" fill="currentColor"/>
<path d="M4 7.01367C3.60444 7.01367 3.21776 6.89637 2.88886 6.67661C2.55996 6.45685 2.30362 6.14449 2.15224 5.77904C2.00087 5.41359 1.96126 5.01145 2.03843 4.62349C2.1156 4.23553 2.30608 3.87916 2.58579 3.59946C2.86549 3.31975 3.22186 3.12927 3.60982 3.0521C3.99778 2.97493 4.39992 3.01454 4.76537 3.16591C5.13082 3.31729 5.44318 3.57363 5.66294 3.90253C5.8827 4.23143 6 4.61811 6 5.01367C5.99844 5.54363 5.78723 6.05143 5.4125 6.42617C5.03776 6.8009 4.52996 7.01212 4 7.01367ZM4 4.01367C3.80222 4.01367 3.60888 4.07232 3.44443 4.1822C3.27998 4.29208 3.15181 4.44826 3.07612 4.63099C3.00043 4.81372 2.98063 5.01478 3.01922 5.20876C3.0578 5.40274 3.15304 5.58093 3.29289 5.72078C3.43275 5.86063 3.61093 5.95587 3.80491 5.99446C3.99889 6.03304 4.19996 6.01324 4.38268 5.93755C4.56541 5.86186 4.72159 5.73369 4.83147 5.56924C4.94135 5.40479 5 5.21145 5 5.01367C4.99922 4.7487 4.89362 4.49479 4.70625 4.30743C4.51888 4.12006 4.26498 4.01445 4 4.01367Z" fill="currentColor"/>
</svg>
