<svg viewBox="0 0 16 17" fill="none" xmlns="http://www.w3.org/2000/svg">
<rect width="16" height="16" transform="translate(0 0.513672)" fill="white" fill-opacity="0.01" style="mix-blend-mode:multiply"/>
<path d="M15 9.51367H12C11.7349 9.51337 11.4807 9.40791 11.2932 9.22044C11.1057 9.03297 11.0003 8.77879 11 8.51367V3.51367C11.0002 3.24854 11.1057 2.99434 11.2932 2.80686C11.4806 2.61938 11.7348 2.51394 12 2.51367H15V3.51367H12V8.51367H15V9.51367Z" fill="currentColor"/>
<path d="M8.99997 3.51367C9.55226 3.51367 9.99997 3.06596 9.99997 2.51367C9.99997 1.96139 9.55226 1.51367 8.99997 1.51367C8.44769 1.51367 7.99997 1.96139 7.99997 2.51367C7.99997 3.06596 8.44769 3.51367 8.99997 3.51367Z" fill="currentColor"/>
<path d="M4.99997 10.6057V6.51367H3.99997V10.6057C3.66637 10.7237 3.3852 10.9558 3.20616 11.261C3.02712 11.5662 2.96174 11.9248 3.02158 12.2736C3.08141 12.6223 3.26261 12.9387 3.53314 13.1668C3.80368 13.3948 4.14613 13.5199 4.49997 13.5199C4.85382 13.5199 5.19627 13.3948 5.4668 13.1668C5.73734 12.9387 5.91853 12.6223 5.97837 12.2736C6.03821 11.9248 5.97283 11.5662 5.79379 11.261C5.61475 10.9558 5.33358 10.7237 4.99997 10.6057Z" fill="currentColor"/>
<path d="M4.49997 15.5137C3.81105 15.5143 3.13728 15.3115 2.56325 14.9306C1.98921 14.5497 1.5405 14.0077 1.27343 13.3726C1.00636 12.7376 0.932839 12.0378 1.0621 11.3611C1.19136 10.6844 1.51764 10.061 1.99997 9.56907V4.01367C1.99997 3.35063 2.26337 2.71475 2.73221 2.2459C3.20105 1.77706 3.83693 1.51367 4.49997 1.51367C5.16301 1.51367 5.7989 1.77706 6.26774 2.2459C6.73658 2.71475 6.99997 3.35063 6.99997 4.01367V9.56907C7.48231 10.061 7.80859 10.6844 7.93785 11.3611C8.06711 12.0378 7.99359 12.7376 7.72652 13.3726C7.45945 14.0077 7.01073 14.5497 6.4367 14.9306C5.86266 15.3115 5.18889 15.5143 4.49997 15.5137ZM4.49997 2.51367C4.10228 2.51411 3.72101 2.67228 3.4398 2.95349C3.15859 3.2347 3.00041 3.61598 2.99997 4.01367V10.0054L2.83397 10.1545C2.45641 10.492 2.19023 10.9361 2.07066 11.4282C1.95109 11.9203 1.98378 12.4371 2.16438 12.9101C2.34499 13.3832 2.665 13.7903 3.08207 14.0775C3.49913 14.3647 3.99358 14.5185 4.49997 14.5185C5.00636 14.5185 5.50081 14.3647 5.91788 14.0775C6.33494 13.7903 6.65496 13.3832 6.83556 12.9101C7.01617 12.4371 7.04885 11.9203 6.92928 11.4282C6.80971 10.9361 6.54353 10.492 6.16597 10.1545L5.99997 10.0054V4.01367C5.99954 3.61598 5.84136 3.2347 5.56015 2.95349C5.27894 2.67228 4.89766 2.51411 4.49997 2.51367Z" fill="currentColor"/>
</svg>
