<svg viewBox="0 0 16 17" fill="none" xmlns="http://www.w3.org/2000/svg">
<rect width="16" height="16" transform="translate(0 0.513672)" fill="white" fill-opacity="0.01" style="mix-blend-mode:multiply"/>
<path d="M13.5 5.51373H10V6.51373H13.5V5.51373Z" fill="currentColor"/>
<path d="M15 8.51373H10V9.51373H15V8.51373Z" fill="currentColor"/>
<path d="M13.5 11.5137H10V12.5137H13.5V11.5137Z" fill="currentColor"/>
<path d="M5 10.6057V4.01373H4V10.6057C3.66639 10.7236 3.38522 10.9557 3.20619 11.2609C3.02715 11.5661 2.96177 11.9248 3.0216 12.2735C3.08144 12.6223 3.26264 12.9387 3.53317 13.1667C3.80371 13.3948 4.14616 13.5199 4.5 13.5199C4.85385 13.5199 5.1963 13.3948 5.46683 13.1667C5.73737 12.9387 5.91856 12.6223 5.9784 12.2735C6.03823 11.9248 5.97286 11.5661 5.79382 11.2609C5.61478 10.9557 5.33361 10.7236 5 10.6057Z" fill="currentColor"/>
<path d="M15 2.51373H6.4872C6.17352 2.09397 5.73548 1.7838 5.23536 1.62733C4.73525 1.47086 4.19853 1.47607 3.70155 1.6422C3.20456 1.80833 2.77261 2.12694 2.46713 2.55271C2.16165 2.97847 1.99819 3.48972 2 4.01373V9.56913C1.51767 10.0614 1.19141 10.6851 1.06213 11.3621C0.93285 12.0391 1.00631 12.7391 1.2733 13.3745C1.54029 14.0099 1.98892 14.5523 2.56294 14.9337C3.13695 15.3151 3.81081 15.5186 4.5 15.5186C5.18919 15.5186 5.86305 15.3151 6.43707 14.9337C7.01108 14.5523 7.45972 14.0099 7.7267 13.3745C7.99369 12.7391 8.06715 12.0391 7.93788 11.3621C7.8086 10.6851 7.48234 10.0614 7 9.56913V4.01373C6.99998 3.84579 6.98305 3.67828 6.94945 3.51373H15V2.51373ZM4.5 14.5137C3.99387 14.5144 3.49949 14.3613 3.0824 14.0746C2.6653 13.7879 2.34519 13.3812 2.1645 12.9084C1.98382 12.4356 1.95108 11.9191 2.07065 11.4273C2.19022 10.9355 2.45643 10.4916 2.834 10.1546L3 10.0054V4.01373C3 3.61591 3.15804 3.23438 3.43934 2.95307C3.72065 2.67177 4.10218 2.51373 4.5 2.51373C4.89783 2.51373 5.27936 2.67177 5.56066 2.95307C5.84197 3.23438 6 3.61591 6 4.01373V10.0054L6.166 10.1546C6.54357 10.4916 6.80979 10.9355 6.92935 11.4273C7.04892 11.9191 7.01619 12.4356 6.8355 12.9084C6.65481 13.3812 6.3347 13.7879 5.91761 14.0746C5.50051 14.3613 5.00613 14.5144 4.5 14.5137Z" fill="currentColor"/>
</svg>
