<svg viewBox="0 0 16 17" fill="none" xmlns="http://www.w3.org/2000/svg">
<rect width="16" height="16" transform="translate(0 0.513672)" fill="white" fill-opacity="0.01" style="mix-blend-mode:multiply"/>
<path d="M15 4.51367H12V7.51367H13V6.28417C13.3153 6.56359 13.5675 6.9069 13.7399 7.2913C13.9124 7.6757 14.001 8.09238 14 8.51367C13.9988 9.23015 13.7413 9.92257 13.2742 10.4658C12.807 11.0091 12.161 11.3673 11.4528 11.4758C11.3796 11.0096 11.2132 10.5629 10.9636 10.1623C10.714 9.76178 10.3863 9.41563 10 9.14452V3.51367C10 2.98324 9.78929 2.47453 9.41421 2.09946C9.03914 1.72439 8.53043 1.51367 8 1.51367C7.46957 1.51367 6.96086 1.72439 6.58579 2.09946C6.21071 2.47453 6 2.98324 6 3.51367V9.14452C5.52262 9.47675 5.13562 9.92277 4.87401 10.4422C4.6124 10.9617 4.48444 11.5381 4.50171 12.1195C4.51898 12.7008 4.68093 13.2687 4.97291 13.7717C5.26488 14.2747 5.67768 14.697 6.17393 15.0003C6.67018 15.3036 7.23423 15.4784 7.81504 15.5088C8.39584 15.5393 8.97508 15.4244 9.50033 15.1747C10.0256 14.9249 10.4803 14.5481 10.8232 14.0784C11.1662 13.6087 11.3866 13.0609 11.4646 12.4845C12.2331 12.3965 12.9595 12.0869 13.5552 11.5935C14.151 11.1002 14.5905 10.4442 14.8202 9.70558C15.0499 8.96693 15.06 8.17744 14.8491 7.43319C14.6382 6.68895 14.2156 6.02205 13.6326 5.51367H15V4.51367ZM7 3.51367C7 3.24846 7.10536 2.9941 7.29289 2.80657C7.48043 2.61903 7.73478 2.51367 8 2.51367C8.26522 2.51367 8.51957 2.61903 8.70711 2.80657C8.89464 2.9941 9 3.24846 9 3.51367V7.01367H7V3.51367ZM8 14.5137C7.44976 14.5141 6.91479 14.3328 6.47813 13.998C6.04147 13.6632 5.72756 13.1936 5.58513 12.6621C5.4427 12.1306 5.47972 11.567 5.69044 11.0587C5.90117 10.5504 6.2738 10.1259 6.7505 9.85107L7 9.70652V8.01367H9V9.70652L9.2495 9.85107C9.7262 10.1259 10.0988 10.5504 10.3096 11.0587C10.5203 11.567 10.5573 12.1306 10.4149 12.6621C10.2724 13.1936 9.95853 13.6632 9.52187 13.998C9.08521 14.3328 8.55024 14.5141 8 14.5137Z" fill="currentColor"/>
<path d="M1 5.51367C1.00293 6.08197 1.12632 6.64319 1.36203 7.16031C1.59774 7.67743 1.94041 8.13869 2.36745 8.51367H1V9.51367H4V6.51367H3V7.74327C2.68471 7.46382 2.43249 7.12049 2.26008 6.73608C2.08766 6.35167 1.99901 5.93498 2 5.51367C2.00087 4.71829 2.31722 3.95574 2.87964 3.39332C3.44206 2.8309 4.20462 2.51455 5 2.51367V1.51367C3.93951 1.51489 2.9228 1.93671 2.17292 2.68659C1.42304 3.43647 1.00122 4.45318 1 5.51367Z" fill="currentColor"/>
</svg>
