<svg viewBox="0 0 16 17" fill="none" xmlns="http://www.w3.org/2000/svg">
<rect width="16" height="16" transform="translate(0 0.513672)" fill="white" fill-opacity="0.01" style="mix-blend-mode:multiply"/>
<path d="M13.5835 8.95867L10.86 7.01367L13.5835 5.06817L14.842 5.48767L15.158 4.53917L14 4.15317V3.01367H13V4.25617L10.5 6.04217V3.19717L11.7775 2.34567L11.2225 1.51367L9.99997 2.32867L8.77747 1.51367L8.22247 2.34567L9.49997 3.19717V6.04217L7.99997 4.97067V6.19967L9.13997 7.01367L7.99997 7.82767V9.05667L9.49997 7.98517V11.3652L11.2225 12.5137L11.7775 11.6817L10.5 10.8302V7.98517L13 9.77117V11.0137H14V9.87417L15.158 9.48767L14.842 8.53917L13.5835 8.95867Z" fill="currentColor"/>
<path d="M5.99997 12.0137C5.99997 12.4115 5.84194 12.793 5.56063 13.0743C5.27933 13.3556 4.8978 13.5137 4.49997 13.5137C4.10215 13.5137 3.72062 13.3556 3.43931 13.0743C3.15801 12.793 2.99997 12.4115 2.99997 12.0137H5.99997Z" fill="currentColor"/>
<path d="M4.49997 15.5137C3.81105 15.5143 3.13728 15.3115 2.56325 14.9306C1.98921 14.5497 1.5405 14.0077 1.27343 13.3726C1.00636 12.7376 0.932839 12.0378 1.0621 11.3611C1.19136 10.6844 1.51764 10.061 1.99997 9.56907V4.01367C1.99997 3.35063 2.26337 2.71475 2.73221 2.2459C3.20105 1.77706 3.83693 1.51367 4.49997 1.51367C5.16301 1.51367 5.7989 1.77706 6.26774 2.2459C6.73658 2.71475 6.99997 3.35063 6.99997 4.01367V9.56907C7.48231 10.061 7.80859 10.6844 7.93785 11.3611C8.06711 12.0378 7.99359 12.7376 7.72652 13.3726C7.45945 14.0077 7.01073 14.5497 6.4367 14.9306C5.86266 15.3115 5.18889 15.5143 4.49997 15.5137ZM4.49997 2.51367C4.10228 2.51411 3.72101 2.67228 3.4398 2.95349C3.15859 3.2347 3.00041 3.61598 2.99997 4.01367V10.0054L2.83397 10.1545C2.45641 10.492 2.19023 10.9361 2.07066 11.4282C1.95109 11.9203 1.98378 12.4371 2.16438 12.9101C2.34499 13.3832 2.665 13.7903 3.08207 14.0775C3.49913 14.3647 3.99358 14.5185 4.49997 14.5185C5.00636 14.5185 5.50081 14.3647 5.91788 14.0775C6.33494 13.7903 6.65496 13.3832 6.83556 12.9101C7.01617 12.4371 7.04885 11.9203 6.92928 11.4282C6.80972 10.9361 6.54353 10.492 6.16597 10.1545L5.99997 10.0054V4.01367C5.99954 3.61598 5.84136 3.2347 5.56015 2.95349C5.27894 2.67228 4.89766 2.51411 4.49997 2.51367Z" fill="currentColor"/>
</svg>
