<svg viewBox="0 0 16 17" fill="none" xmlns="http://www.w3.org/2000/svg">
<rect width="16" height="16" transform="translate(0 0.513672)" fill="white" fill-opacity="0.01" style="mix-blend-mode:multiply"/>
<path d="M13 2.51855H3C2.73478 2.51855 2.48043 2.62391 2.29289 2.81145C2.10536 2.99898 2 3.25334 2 3.51855V13.5186C2 13.7838 2.10536 14.0381 2.29289 14.2257C2.48043 14.4132 2.73478 14.5186 3 14.5186H13C13.2652 14.5186 13.5196 14.4132 13.7071 14.2257C13.8946 14.0381 14 13.7838 14 13.5186V3.51855C14 3.25334 13.8946 2.99898 13.7071 2.81145C13.5196 2.62391 13.2652 2.51855 13 2.51855ZM13 3.51855V5.51855H3V3.51855H13ZM3 13.5186V6.51855H13V13.5186H3Z" fill="currentColor"/>
<path d="M5.38 8.60355L6.79 10.0186L5.38 11.4336L6.085 12.1386L8.205 10.0186L6.085 7.89855L5.38 8.60355Z" fill="currentColor"/>
</svg>
