<svg viewBox="0 0 16 16" fill="none" xmlns="http://www.w3.org/2000/svg">
<rect width="16" height="16" fill="white" fill-opacity="0.01" style="mix-blend-mode:multiply"/>
<path d="M2 10V11H4.293L1 14.293L1.707 15L5 11.707V14H6V10H2Z" fill="currentColor"/>
<path d="M14 12.5H12.5V11.5H14V3.5H12.5V2.5H14C14.5512 2.5 15 2.9485 15 3.5V11.5C15 12.0512 14.5512 12.5 14 12.5Z" fill="currentColor"/>
<path d="M11.5 8.5C12.0523 8.5 12.5 8.05228 12.5 7.5C12.5 6.94772 12.0523 6.5 11.5 6.5C10.9477 6.5 10.5 6.94772 10.5 7.5C10.5 8.05228 10.9477 8.5 11.5 8.5Z" fill="currentColor"/>
<path d="M8 8.5C8.55228 8.5 9 8.05228 9 7.5C9 6.94772 8.55228 6.5 8 6.5C7.44772 6.5 7 6.94772 7 7.5C7 8.05228 7.44772 8.5 8 8.5Z" fill="currentColor"/>
<path d="M4.5 8.5C5.05228 8.5 5.5 8.05228 5.5 7.5C5.5 6.94772 5.05228 6.5 4.5 6.5C3.94772 6.5 3.5 6.94772 3.5 7.5C3.5 8.05228 3.94772 8.5 4.5 8.5Z" fill="currentColor"/>
<path d="M2 8.5V3.5H3.5V2.5H2C1.4485 2.5 1 2.9485 1 3.5V8.5H2Z" fill="currentColor"/>
</svg>
