<svg viewBox="0 0 16 17" fill="none" xmlns="http://www.w3.org/2000/svg">
<rect width="16" height="16" transform="translate(0 0.513672)" fill="white" fill-opacity="0.01" style="mix-blend-mode:multiply"/>
<path d="M10 13.0137C9.42247 13.0142 8.85381 12.8715 8.34487 12.5985C7.83593 12.3256 7.40256 11.9307 7.0835 11.4493L7.9165 10.8956C8.14459 11.2394 8.4542 11.5214 8.81774 11.7165C9.18127 11.9116 9.58743 12.0137 10 12.0137C10.4126 12.0137 10.8187 11.9116 11.1823 11.7165C11.5458 11.5214 11.8554 11.2394 12.0835 10.8956L12.9165 11.4493C12.5974 11.9307 12.1641 12.3256 11.6551 12.5985C11.1462 12.8715 10.5775 13.0142 10 13.0137Z" fill="currentColor"/>
<path d="M12 7.51367C11.8022 7.51367 11.6089 7.57232 11.4444 7.6822C11.28 7.79208 11.1518 7.94826 11.0761 8.13099C11.0004 8.31371 10.9806 8.51478 11.0192 8.70876C11.0578 8.90274 11.153 9.08093 11.2929 9.22078C11.4327 9.36063 11.6109 9.45587 11.8049 9.49446C11.9989 9.53304 12.2 9.51324 12.3827 9.43755C12.5654 9.36186 12.7216 9.23369 12.8315 9.06924C12.9414 8.90479 13 8.71145 13 8.51367C13.0013 8.38199 12.9763 8.25137 12.9265 8.12946C12.8767 8.00755 12.8031 7.89679 12.71 7.80368C12.6169 7.71056 12.5061 7.63695 12.3842 7.58715C12.2623 7.53736 12.1317 7.51238 12 7.51367Z" fill="currentColor"/>
<path d="M8 7.51367C7.80222 7.51367 7.60888 7.57232 7.44443 7.6822C7.27998 7.79208 7.15181 7.94826 7.07612 8.13099C7.00043 8.31371 6.98063 8.51478 7.01921 8.70876C7.0578 8.90274 7.15304 9.08093 7.29289 9.22078C7.43275 9.36063 7.61093 9.45587 7.80491 9.49446C7.99889 9.53304 8.19996 9.51324 8.38268 9.43755C8.56541 9.36186 8.72159 9.23369 8.83147 9.06924C8.94135 8.90479 9 8.71145 9 8.51367C9.0013 8.38199 8.97632 8.25137 8.92652 8.12946C8.87672 8.00755 8.80311 7.89679 8.71 7.80368C8.61688 7.71056 8.50612 7.63695 8.38421 7.58715C8.2623 7.53736 8.13168 7.51238 8 7.51367Z" fill="currentColor"/>
<path d="M14 4.51367H11V2.51367C10.9997 2.24855 10.8942 1.99437 10.7068 1.8069C10.5193 1.61943 10.2651 1.51398 10 1.51367H2C1.73488 1.51398 1.4807 1.61943 1.29323 1.8069C1.10576 1.99437 1.0003 2.24855 1 2.51367V7.51367C1.0019 8.7352 1.45045 9.91387 2.26115 10.8276C3.07186 11.7413 4.18873 12.327 5.40135 12.4744C5.85313 13.5345 6.65725 14.4059 7.67765 14.9413C8.69806 15.4768 9.87209 15.6432 11.0011 15.4126C12.1301 15.182 13.1448 14.5684 13.8735 13.6757C14.6022 12.783 15.0001 11.666 15 10.5137V5.51367C14.9997 5.24855 14.8942 4.99437 14.7068 4.8069C14.5193 4.61943 14.2651 4.51398 14 4.51367ZM2 7.51367V2.51367H10V4.51367H6C5.73488 4.51398 5.4807 4.61943 5.29323 4.8069C5.10576 4.99437 5.0003 5.24855 5 5.51367V10.5137C5.00127 10.8123 5.02938 11.1101 5.084 11.4037C4.20732 11.1967 3.42603 10.7001 2.86642 9.99427C2.30681 9.2884 2.00156 8.41446 2 7.51367ZM14 10.5137C14 11.5745 13.5786 12.592 12.8284 13.3421C12.0783 14.0922 11.0609 14.5137 10 14.5137C8.93913 14.5137 7.92172 14.0922 7.17157 13.3421C6.42143 12.592 6 11.5745 6 10.5137V5.51367H14V10.5137Z" fill="currentColor"/>
</svg>
