<svg viewBox="0 0 16 17" fill="none" xmlns="http://www.w3.org/2000/svg">
<rect width="16" height="16" transform="translate(0 0.513672)" fill="white" fill-opacity="0.01" style="mix-blend-mode:multiply"/>
<path d="M13 6.51367H10V3.51367C9.99956 3.11598 9.84139 2.7347 9.56018 2.45349C9.27897 2.17228 8.89769 2.01411 8.5 2.01367H7.4336C7.19314 2.01464 6.96099 2.10181 6.77934 2.25937C6.59768 2.41693 6.47855 2.63441 6.4436 2.87232L6.02095 5.83057L4.2324 8.51367H1V15.5137H11.5C12.4279 15.5126 13.3176 15.1436 13.9737 14.4874C14.6299 13.8313 14.999 12.9416 15 12.0137V8.51367C14.9994 7.98342 14.7885 7.47506 14.4136 7.10012C14.0386 6.72517 13.5303 6.51427 13 6.51367ZM4 14.5137H2V9.51367H4V14.5137ZM14 12.0137C13.9992 12.6765 13.7356 13.3119 13.2669 13.7806C12.7983 14.2493 12.1628 14.5129 11.5 14.5137H5V9.16502L6.9789 6.19677L7.4336 3.01367H8.5C8.63258 3.01378 8.75969 3.06649 8.85344 3.16024C8.94718 3.25398 8.99989 3.3811 9 3.51367V7.51367H13C13.2651 7.514 13.5193 7.61947 13.7067 7.80693C13.8942 7.9944 13.9997 8.24856 14 8.51367V12.0137Z" fill="currentColor"/>
</svg>
