<svg viewBox="0 0 16 17" fill="none" xmlns="http://www.w3.org/2000/svg">
<rect width="16" height="16" transform="translate(0 0.513672)" fill="white" fill-opacity="0.01" style="mix-blend-mode:multiply"/>
<path d="M4 15.5137H2C1.73478 15.5137 1.48043 15.4083 1.29289 15.2208C1.10536 15.0332 1 14.7789 1 14.5137V12.5137C1 12.2485 1.10536 11.9941 1.29289 11.8066C1.48043 11.619 1.73478 11.5137 2 11.5137H4C4.26522 11.5137 4.51957 11.619 4.70711 11.8066C4.89464 11.9941 5 12.2485 5 12.5137V14.5137C5 14.7789 4.89464 15.0332 4.70711 15.2208C4.51957 15.4083 4.26522 15.5137 4 15.5137ZM2 12.5137V14.5137H4V12.5137H2Z" fill="currentColor"/>
<path d="M9 15.5137H7C6.73478 15.5137 6.48043 15.4083 6.29289 15.2208C6.10536 15.0332 6 14.7789 6 14.5137V12.5137C6 12.2485 6.10536 11.9941 6.29289 11.8066C6.48043 11.619 6.73478 11.5137 7 11.5137H9C9.26522 11.5137 9.51957 11.619 9.70711 11.8066C9.89464 11.9941 10 12.2485 10 12.5137V14.5137C10 14.7789 9.89464 15.0332 9.70711 15.2208C9.51957 15.4083 9.26522 15.5137 9 15.5137ZM7 12.5137V14.5137H9V12.5137H7Z" fill="currentColor"/>
<path d="M14 15.5137H12C11.7348 15.5137 11.4804 15.4083 11.2929 15.2208C11.1054 15.0332 11 14.7789 11 14.5137V12.5137C11 12.2485 11.1054 11.9941 11.2929 11.8066C11.4804 11.619 11.7348 11.5137 12 11.5137H14C14.2652 11.5137 14.5196 11.619 14.7071 11.8066C14.8946 11.9941 15 12.2485 15 12.5137V14.5137C15 14.7789 14.8946 15.0332 14.7071 15.2208C14.5196 15.4083 14.2652 15.5137 14 15.5137ZM12 12.5137V14.5137H14V12.5137H12Z" fill="currentColor"/>
<path d="M14 10.5137H2C1.73478 10.5137 1.48043 10.4083 1.29289 10.2208C1.10536 10.0332 1 9.77889 1 9.51367V2.51367C1 2.24846 1.10536 1.9941 1.29289 1.80657C1.48043 1.61903 1.73478 1.51367 2 1.51367H14C14.2652 1.51367 14.5196 1.61903 14.7071 1.80657C14.8946 1.9941 15 2.24846 15 2.51367V9.51367C15 9.77889 14.8946 10.0332 14.7071 10.2208C14.5196 10.4083 14.2652 10.5137 14 10.5137ZM2 2.51367V9.51367H14V2.51367H2Z" fill="currentColor"/>
</svg>
