<svg viewBox="0 0 16 17" fill="none" xmlns="http://www.w3.org/2000/svg">
<g clip-path="url(#clip0_1961_11657)">
<rect width="16" height="16" transform="translate(0 0.513672)" fill="white" fill-opacity="0.01" style="mix-blend-mode:multiply"/>
<path d="M6.669 15.5137L5.801 15.0137L6.9445 13.0137H5L6.9965 9.51367L7.865 10.0137L6.723 12.0137H8.6685L6.669 15.5137Z" fill="currentColor"/>
<path d="M13.5 6.01367C13.5005 5.33736 13.2723 4.68074 12.8525 4.15051C12.4327 3.62027 11.8459 3.24758 11.1875 3.09298C10.5291 2.93838 9.83775 3.01097 9.22581 3.29894C8.61387 3.58691 8.11729 4.07335 7.81675 4.67922C7.47125 4.57182 7.11179 4.51604 6.75 4.51367C5.9538 4.51797 5.17934 4.77387 4.53733 5.2448C3.89532 5.71573 3.41863 6.37757 3.1754 7.13572C2.47988 7.33386 1.87949 7.77686 1.48501 8.38299C1.09054 8.98912 0.928593 9.71746 1.02906 10.4336C1.12953 11.1498 1.48564 11.8055 2.03167 12.2797C2.5777 12.7539 3.27681 13.0146 4 13.0137V12.0137C3.4991 12.0147 3.01613 11.8273 2.64693 11.4888C2.27773 11.1503 2.04928 10.6854 2.00691 10.1863C1.96454 9.68718 2.11136 9.19039 2.41821 8.79449C2.72507 8.39859 3.16955 8.13252 3.66345 8.04907L3.995 7.99267L4.0679 7.66457C4.20371 7.05443 4.54348 6.50883 5.03113 6.11779C5.51878 5.72675 6.12518 5.51365 6.75025 5.51365C7.37532 5.51365 7.98171 5.72675 8.46937 6.11779C8.95702 6.50883 9.29678 7.05443 9.4326 7.66457L9.5055 7.99267L9.8368 8.04907C10.3307 8.13252 10.7752 8.39861 11.0821 8.79454C11.3889 9.19046 11.5357 9.68728 11.4933 10.1864C11.4509 10.6855 11.2224 11.1505 10.8532 11.489C10.4839 11.8274 10.0009 12.0147 9.5 12.0137V13.0137C10.0244 13.015 10.5399 12.8784 10.995 12.6178C11.45 12.3571 11.8285 11.9814 12.0927 11.5284C12.3568 11.0754 12.4973 10.5609 12.5 10.0365C12.5027 9.51215 12.3676 8.99625 12.1081 8.54052C12.534 8.27044 12.8848 7.89727 13.1281 7.45558C13.3714 7.01388 13.4993 6.51794 13.5 6.01367ZM11.4634 7.75832C11.1342 7.46964 10.7453 7.25707 10.3246 7.13572C10.0508 6.29067 9.48659 5.5699 8.73195 5.10132C8.87408 4.82363 9.0794 4.58317 9.33139 4.39928C9.58338 4.21539 9.87501 4.09321 10.1828 4.04257C10.4906 3.99192 10.806 4.01422 11.1037 4.10768C11.4013 4.20113 11.6728 4.36313 11.8964 4.58065C12.1201 4.79816 12.2895 5.06512 12.3911 5.36005C12.4928 5.65498 12.5238 5.96965 12.4817 6.27875C12.4395 6.58784 12.3255 6.88274 12.1486 7.13971C11.9718 7.39669 11.7371 7.60857 11.4634 7.75832Z" fill="currentColor"/>
<path d="M13.2322 8.95335L14.2929 10.014L15 9.30691L13.9393 8.24625L13.2322 8.95335Z" fill="currentColor"/>
<path d="M16 5.51367H14.5V6.51367H16V5.51367Z" fill="currentColor"/>
<path d="M14.2929 2.01398L13.2322 3.07464L13.9393 3.78175L15 2.72109L14.2929 2.01398Z" fill="currentColor"/>
<path d="M11 0.513672H10V2.01367H11V0.513672Z" fill="currentColor"/>
<path d="M5.99995 2.72111L7.06061 3.78177L7.76771 3.07466L6.70705 2.014L5.99995 2.72111Z" fill="currentColor"/>
</g>
<defs>
<clipPath id="clip0_1961_11657">
<rect width="16" height="16" fill="white" transform="translate(0 0.513672)"/>
</clipPath>
</defs>
</svg>
