<svg viewBox="0 0 16 17" fill="none" xmlns="http://www.w3.org/2000/svg">
<g clip-path="url(#clip0_1961_11659)">
<rect width="16" height="16" transform="translate(0 0.513672)" fill="white" fill-opacity="0.01" style="mix-blend-mode:multiply"/>
<path d="M10.4999 15.5137C10.4146 15.5137 10.3308 15.4919 10.2564 15.4504C10.1819 15.4089 10.1193 15.349 10.0745 15.2765C10.0297 15.204 10.0042 15.1212 10.0004 15.0361C9.99654 14.9509 10.0146 14.8662 10.0527 14.79L11.0527 12.7897C11.0819 12.7307 11.1225 12.6781 11.1721 12.6348C11.2217 12.5915 11.2794 12.5585 11.3418 12.5375C11.4042 12.5166 11.4701 12.5082 11.5358 12.5128C11.6014 12.5174 11.6656 12.535 11.7244 12.5644C11.7833 12.5939 11.8358 12.6346 11.8789 12.6844C11.9219 12.7342 11.9548 12.792 11.9754 12.8545C11.9961 12.917 12.0043 12.983 11.9994 13.0486C11.9945 13.1143 11.9767 13.1783 11.947 13.2371L10.947 15.2371C10.9056 15.3202 10.8418 15.3901 10.7628 15.439C10.6838 15.4879 10.5928 15.5137 10.4999 15.5137Z" fill="currentColor"/>
<path d="M4.49989 16.5137C4.41465 16.5137 4.33082 16.4919 4.25637 16.4504C4.18192 16.4089 4.11932 16.349 4.07451 16.2765C4.0297 16.204 4.00418 16.1212 4.00036 16.0361C3.99654 15.9509 4.01455 15.8662 4.05269 15.79L5.05269 13.7897C5.0819 13.7307 5.12248 13.6781 5.17208 13.6348C5.22169 13.5915 5.27936 13.5585 5.34177 13.5375C5.40418 13.5166 5.47011 13.5082 5.53578 13.5128C5.60145 13.5174 5.66556 13.535 5.72444 13.5644C5.78331 13.5939 5.83579 13.6346 5.87886 13.6844C5.92194 13.7342 5.95476 13.792 5.97544 13.8545C5.99612 13.917 6.00426 13.983 5.99939 14.0486C5.99451 14.1143 5.97672 14.1783 5.94704 14.2371L4.94704 16.2371C4.90563 16.3202 4.84184 16.3901 4.76284 16.439C4.68385 16.4879 4.59278 16.5137 4.49989 16.5137Z" fill="currentColor"/>
<path d="M7.95039 15.7617L7.08239 15.2657L8.65439 12.5137H5.65489L8.08239 8.26565L8.95039 8.76165L7.37789 11.5137H10.3784L7.95039 15.7617Z" fill="currentColor"/>
<path d="M13.9757 8.01365C13.9885 8.09646 13.9966 8.17993 13.9999 8.26365C13.9992 8.86019 13.762 9.43211 13.3402 9.85393C12.9183 10.2757 12.3464 10.513 11.7499 10.5137H11.4999V11.5137H11.7499C12.6115 11.5127 13.4376 11.1699 14.0469 10.5607C14.6562 9.95138 14.9989 9.1253 14.9999 8.26365C14.9999 8.17865 14.9843 8.09715 14.9777 8.01365H13.9757Z" fill="currentColor"/>
<path d="M15.9556 6.4814L12.814 0.698954C12.783 0.642819 12.7375 0.596026 12.6822 0.563442C12.627 0.530858 12.564 0.513672 12.4998 0.513672C12.4357 0.513672 12.3727 0.530858 12.3175 0.563442C12.2622 0.596026 12.2167 0.642819 12.1856 0.698954L9.04404 6.4814C9.01417 6.53621 8.99907 6.59785 9.00021 6.66025C9.00136 6.72266 9.01871 6.7837 9.05056 6.83737C9.08242 6.89105 9.12768 6.93552 9.18191 6.96643C9.23614 6.99733 9.29747 7.01361 9.35989 7.01365H15.6399C15.7023 7.01359 15.7636 6.9973 15.8178 6.96639C15.872 6.93548 15.9173 6.89101 15.9491 6.83733C15.981 6.78366 15.9983 6.72263 15.9995 6.66023C16.0006 6.59783 15.9855 6.53621 15.9556 6.4814ZM12.1249 2.51365H12.8749V4.51365H12.1249V2.51365ZM12.4999 6.01365C12.401 6.01365 12.3043 5.98433 12.2221 5.92939C12.1399 5.87445 12.0758 5.79636 12.0379 5.705C12.0001 5.61363 11.9902 5.5131 12.0095 5.41611C12.0288 5.31912 12.0764 5.23003 12.1463 5.1601C12.2163 5.09017 12.3054 5.04255 12.4023 5.02326C12.4993 5.00397 12.5999 5.01387 12.6912 5.05171C12.7826 5.08956 12.8607 5.15364 12.9156 5.23587C12.9706 5.31809 12.9999 5.41476 12.9999 5.51365C12.9999 5.64626 12.9472 5.77344 12.8534 5.86721C12.7597 5.96098 12.6325 6.01365 12.4999 6.01365Z" fill="currentColor"/>
<path d="M4.07189 6.02315L4.47959 5.9912L4.52914 5.5852C4.59614 5.03379 4.79368 4.50631 5.10536 4.04653C5.41704 3.58675 5.83388 3.20793 6.32128 2.94149C6.80868 2.67506 7.35259 2.5287 7.90787 2.51457C8.46316 2.50043 9.01381 2.61892 9.51414 2.8602L9.99989 1.98705C9.38565 1.68011 8.70919 1.51817 8.02254 1.51369C7.3359 1.50922 6.65738 1.66234 6.0392 1.96126C5.42101 2.26017 4.87965 2.69693 4.45676 3.23792C4.03387 3.7789 3.74073 4.40969 3.59989 5.08175C2.85628 5.23288 2.1891 5.63971 1.71424 6.23158C1.23939 6.82344 0.98686 7.56295 1.00053 8.32164C1.01419 9.08033 1.29319 9.81026 1.78905 10.3846C2.28492 10.959 2.96632 11.3416 3.71489 11.4658L3.05284 12.79C3.02226 12.8488 3.00369 12.9132 2.99821 12.9793C2.99273 13.0454 3.00045 13.1119 3.02092 13.1749C3.0414 13.238 3.07421 13.2964 3.11746 13.3467C3.1607 13.3969 3.21352 13.4381 3.27282 13.4678C3.33213 13.4974 3.39675 13.515 3.46291 13.5194C3.52907 13.5239 3.59546 13.5152 3.65821 13.4937C3.72095 13.4723 3.77881 13.4385 3.82841 13.3945C3.878 13.3505 3.91834 13.2971 3.94709 13.2373L4.94709 11.2373C4.97647 11.1786 4.99399 11.1146 4.99865 11.0491C5.00332 10.9836 4.99504 10.9179 4.97428 10.8555C4.95352 10.7932 4.92069 10.7356 4.87767 10.686C4.83465 10.6364 4.78227 10.5958 4.72354 10.5664C4.65381 10.533 4.57716 10.5167 4.49989 10.5187V10.5137H4.24989C3.66879 10.5138 3.11018 10.289 2.69116 9.88641C2.27214 9.48379 2.02525 8.93459 2.00224 8.35395C1.97924 7.7733 2.18189 7.20629 2.56773 6.77177C2.95358 6.33725 3.49259 6.06897 4.07189 6.02315Z" fill="currentColor"/>
</g>
<defs>
<clipPath id="clip0_1961_11659">
<rect width="16" height="16" fill="white" transform="translate(0 0.513672)"/>
</clipPath>
</defs>
</svg>
