<svg viewBox="0 0 16 16" fill="none" xmlns="http://www.w3.org/2000/svg">
<rect width="16" height="16" fill="white" fill-opacity="0.01" style="mix-blend-mode:multiply"/>
<path d="M8 12.5C8.27614 12.5 8.5 12.2761 8.5 12C8.5 11.7239 8.27614 11.5 8 11.5C7.72386 11.5 7.5 11.7239 7.5 12C7.5 12.2761 7.72386 12.5 8 12.5Z" fill="currentColor"/>
<path d="M15 6C15 5.08815 14.3828 4.3252 13.5469 4.0857L3.60435 1.1035C3.41245 1.042 3.212 1 3 1C1.8972 1 1 1.8972 1 3C1 3.30125 1.0719 3.58445 1.19175 3.8408L5.24255 13.1799C5.7018 14.249 6.76465 15 8 15C9.126 15 10.1081 14.3754 10.6211 13.4555L14.6221 7.1608C14.8577 6.8327 15 6.43385 15 6ZM8 9C6.79225 9 5.75145 9.719 5.27625 10.7502L2.7688 4.97655C2.8456 4.9856 2.9209 5 3 5C4.1028 5 5 4.1028 5 3C5 2.84035 4.9763 2.68725 4.9409 2.53835L11.635 4.5464C11.2465 4.9114 11 5.42605 11 6C11 7.07325 11.8515 7.9448 12.9134 7.9912L10.8837 11.1817C10.5263 9.92435 9.3701 9 8 9ZM14 6C14 6.55125 13.5514 7 13 7C12.4486 7 12 6.55125 12 6C12 5.44875 12.4486 5 13 5C13.5514 5 14 5.44875 14 6ZM3 2C3.5514 2 4 2.44875 4 3C4 3.55125 3.5514 4 3 4C2.4486 4 2 3.55125 2 3C2 2.44875 2.4486 2 3 2ZM8 14C6.8972 14 6 13.1028 6 12C6 10.8972 6.8972 10 8 10C9.1028 10 10 10.8972 10 12C10 13.1028 9.1028 14 8 14Z" fill="currentColor"/>
</svg>
