<svg viewBox="0 0 16 17" fill="none" xmlns="http://www.w3.org/2000/svg">
<rect width="16" height="16" transform="translate(0 0.513672)" fill="white" fill-opacity="0.01" style="mix-blend-mode:multiply"/>
<path d="M9 2.51365H1V3.51365H9V2.51365Z" fill="currentColor"/>
<path d="M8 4.51365H2V5.51365H8V4.51365Z" fill="currentColor"/>
<path d="M7 6.51365H1V7.51365H7V6.51365Z" fill="currentColor"/>
<path d="M6 8.51365H1V9.51365H6V8.51365Z" fill="currentColor"/>
<path d="M6 10.5137H2V11.5137H6V10.5137Z" fill="currentColor"/>
<path d="M7 12.5137H4V13.5137H7V12.5137Z" fill="currentColor"/>
<path d="M8 14.5137H6V15.5137H8V14.5137Z" fill="currentColor"/>
<path d="M14.9558 7.4814L11.8142 1.69895C11.7832 1.64282 11.7376 1.59603 11.6824 1.56344C11.6271 1.53086 11.5641 1.51367 11.5 1.51367C11.4359 1.51367 11.3729 1.53086 11.3176 1.56344C11.2624 1.59603 11.2168 1.64282 11.1858 1.69895L8.04425 7.4814C8.01439 7.53621 7.99929 7.59783 8.00043 7.66023C8.00157 7.72262 8.01891 7.78366 8.05075 7.83733C8.08259 7.89101 8.12784 7.93548 8.18206 7.96639C8.23627 7.9973 8.29759 8.01359 8.36 8.01365H14.64C14.7024 8.01359 14.7637 7.9973 14.8179 7.96639C14.8722 7.93548 14.9174 7.89101 14.9493 7.83733C14.9811 7.78366 14.9984 7.72262 14.9996 7.66023C15.0007 7.59783 14.9856 7.53621 14.9558 7.4814ZM11.125 3.51365H11.875V5.51365H11.125V3.51365ZM11.5 7.01365C11.4011 7.01365 11.3044 6.98433 11.2222 6.92939C11.14 6.87445 11.0759 6.79636 11.0381 6.705C11.0002 6.61363 10.9903 6.5131 11.0096 6.41611C11.0289 6.31912 11.0765 6.23003 11.1464 6.1601C11.2164 6.09017 11.3055 6.04255 11.4025 6.02326C11.4994 6.00397 11.6 6.01387 11.6913 6.05171C11.7827 6.08956 11.8608 6.15364 11.9157 6.23587C11.9707 6.31809 12 6.41476 12 6.51365C12 6.64626 11.9473 6.77344 11.8536 6.86721C11.7598 6.96098 11.6326 7.01365 11.5 7.01365Z" fill="currentColor"/>
</svg>
