<svg viewBox="0 0 16 17" fill="none" xmlns="http://www.w3.org/2000/svg">
<rect width="16" height="16" transform="translate(0 0.513672)" fill="white" fill-opacity="0.01" style="mix-blend-mode:multiply"/>
<path d="M2 12.5137H1V15.5137H2V12.5137Z" fill="currentColor"/>
<path d="M15 1.51367H14V15.5137H15V1.51367Z" fill="currentColor"/>
<path d="M8.5 1.51367H7.5V3.51367H8.5V1.51367Z" fill="currentColor"/>
<path d="M8.5 5.51367H7.5V7.51367H8.5V5.51367Z" fill="currentColor"/>
<path d="M8.5 9.51367H7.5V11.5137H8.5V9.51367Z" fill="currentColor"/>
<path d="M8.5 13.5137H7.5V15.5137H8.5V13.5137Z" fill="currentColor"/>
<path d="M3 6.51367C2.48464 6.52743 1.98482 6.33643 1.60997 5.98248C1.23512 5.62853 1.01579 5.14048 1 4.62517C1.00936 4.25726 1.12261 3.89951 1.32665 3.59322L2.585 1.72072C2.63336 1.65643 2.69601 1.60425 2.768 1.56832C2.83999 1.53239 2.91934 1.51369 2.9998 1.51369C3.08026 1.51369 3.15961 1.53239 3.2316 1.56832C3.30359 1.60425 3.36624 1.65643 3.4146 1.72072L4.6577 3.56867C4.87002 3.88109 4.98877 4.24761 5 4.62517C4.98421 5.14048 4.76488 5.62853 4.39003 5.98248C4.01518 6.33643 3.51536 6.52743 3 6.51367ZM3 2.89527L2.1719 4.12652C2.06843 4.27305 2.00881 4.44601 2 4.62517C2.01587 4.87522 2.12984 5.10888 2.31712 5.27532C2.50439 5.44176 2.74982 5.52751 3 5.51392C3.25018 5.52751 3.49561 5.44176 3.68288 5.27532C3.87016 5.10888 3.98413 4.87522 4 4.62517C3.98876 4.43641 3.92369 4.25482 3.8125 4.10187L3 2.89527Z" fill="currentColor"/>
<path d="M5.5 6.39502L4.6719 7.62632C4.56843 7.77285 4.50881 7.94581 4.5 8.12497C4.51588 8.37501 4.62986 8.60866 4.81713 8.77509C5.00441 8.94152 5.24983 9.02727 5.5 9.01367C5.75017 9.02727 5.99559 8.94152 6.18287 8.77509C6.37014 8.60866 6.48412 8.37501 6.5 8.12497C6.48877 7.93619 6.4237 7.75458 6.3125 7.60162L5.5 6.39502Z" fill="currentColor"/>
<path d="M3 8.39502L2.1719 9.62632C2.06843 9.77285 2.00881 9.94581 2 10.125C2.01588 10.375 2.12986 10.6087 2.31714 10.7751C2.50441 10.9415 2.74983 11.0273 3 11.0137C3.25017 11.0273 3.49559 10.9415 3.68286 10.7751C3.87014 10.6087 3.98412 10.375 4 10.125C3.98877 9.93619 3.9237 9.75458 3.8125 9.60162L3 8.39502Z" fill="currentColor"/>
</svg>
