<svg viewBox="0 0 16 17" fill="none" xmlns="http://www.w3.org/2000/svg">
<rect width="16" height="16" transform="translate(0 0.513672)" fill="white" fill-opacity="0.01" style="mix-blend-mode:multiply"/>
<path d="M12.3979 14.5137L9.4873 1.90137C9.4619 1.79116 9.39988 1.69282 9.31137 1.6224C9.22287 1.55198 9.1131 1.51366 9 1.51367H7C6.8869 1.51366 6.77713 1.55198 6.68863 1.6224C6.60012 1.69282 6.5381 1.79116 6.5127 1.90137L3.60215 14.5137H2V15.5137H14V14.5137H12.3979ZM9.9868 8.51367H6.0132L6.47465 6.51367H9.52535L9.9868 8.51367ZM10.2176 9.51367L10.6791 11.5137H5.3209L5.7824 9.51367H10.2176ZM7.3976 2.51367H8.6022L9.29445 5.51367H6.70545L7.3976 2.51367ZM5.09 12.5137H10.91L11.3715 14.5137H4.62865L5.09 12.5137Z" fill="currentColor"/>
</svg>
