<svg viewBox="0 0 16 17" fill="none" xmlns="http://www.w3.org/2000/svg">
<rect width="16" height="16" transform="translate(0 0.513672)" fill="white" fill-opacity="0.01" style="mix-blend-mode:multiply"/>
<path d="M15 14.5139H1V15.5139H15V14.5139Z" fill="currentColor"/>
<path d="M7.86396 5.35688L5.74264 7.4782L6.44974 8.18531L8.57106 6.06399L7.86396 5.35688Z" fill="currentColor"/>
<path d="M6.04075 12.2303L8.09915 13.3891C8.28931 13.4939 8.5083 13.5342 8.72331 13.5041C8.93832 13.4739 9.13777 13.3749 9.2918 13.2219L13.7081 8.80561C13.8611 8.65156 13.9601 8.45206 13.9902 8.23702C14.0203 8.02197 13.9799 7.80296 13.8751 7.61281L12.7262 5.54481L13.6213 4.64981L12.9142 3.94271L12.2071 4.64981L9.73205 2.17481C9.54434 1.98758 9.29005 1.88243 9.02493 1.88243C8.75981 1.88243 8.50551 1.98758 8.3178 2.17481L7.2573 1.11426L6.55 1.82136L7.61065 2.88206L3.3682 7.12466L2.30755 6.06386L1.60045 6.77111L2.6611 7.83176C2.47386 8.01946 2.36871 8.27376 2.36871 8.53888C2.36871 8.80401 2.47386 9.05831 2.6611 9.24601L5.1361 11.721L4.42885 12.428L5.136 13.1351L6.04075 12.2303ZM13.0007 8.09851L8.58435 12.5149L6.31155 11.2522L11.7383 5.82561L13.0007 8.09851ZM4.78245 9.95311L5.48955 9.24601L4.78245 8.53886L4.0753 9.24601L3.3682 8.53886L9.025 2.88206L9.73215 3.58916L9.025 4.29626L9.7322 5.00336L10.4393 4.29626L11.1464 5.00336L5.48955 10.6602L4.78245 9.95311Z" fill="currentColor"/>
</svg>
