<svg viewBox="0 0 16 17" fill="none" xmlns="http://www.w3.org/2000/svg">
<rect width="16" height="16" transform="translate(0 0.513672)" fill="white" fill-opacity="0.01" style="mix-blend-mode:multiply"/>
<path d="M8.5 11.0137H5.5V12.0137H8.5V11.0137Z" fill="currentColor"/>
<path d="M12.1228 4.51367L12.98 7.51367H15V6.51367H13.7344L13.0844 4.23927C13.0242 4.03057 12.8979 3.84703 12.7245 3.7162C12.5512 3.58537 12.34 3.5143 12.1228 3.51367H11.4486L11.0843 2.23927C11.0241 2.0306 10.8978 1.84708 10.7244 1.71625C10.5511 1.58542 10.34 1.51434 10.1228 1.51367H3.8772C3.66005 1.51433 3.44897 1.58538 3.27562 1.71616C3.10227 1.84694 2.976 2.0304 2.91575 2.23902L2.2656 4.51367H1V5.51367H3.02L3.8772 2.51367H10.1228L10.4086 3.51367H5.8772C5.6601 3.51432 5.44906 3.58533 5.27572 3.71604C5.10238 3.84675 4.97608 4.03012 4.91575 4.23867L4.40855 6.01367H3.8572C3.64875 6.01357 3.44549 6.07867 3.27589 6.19985C3.10629 6.32104 2.97884 6.49224 2.9114 6.68947L2.28575 8.51367H1V9.51367H2V13.0137C2.00033 13.2788 2.10579 13.5329 2.29326 13.7204C2.48072 13.9079 2.73488 14.0133 3 14.0137V15.5137H4V14.0137H10V15.5137H11V14.0137C11.2651 14.0133 11.5193 13.9079 11.7067 13.7204C11.8942 13.5329 11.9997 13.2788 12 13.0137V9.51367H13V8.51367H11.7143L11.0889 6.68992C11.0214 6.49259 10.894 6.3213 10.7243 6.20003C10.5547 6.07876 10.3513 6.0136 10.1428 6.01367H5.4485L5.8772 4.51367H12.1228ZM11 10.0137V11.0137H10V12.0137H11V13.0137H3V12.0137H4V11.0137H3V10.0137H11ZM10.8286 9.01367H3.1714L3.8572 7.01367H10.1428L10.8286 9.01367Z" fill="currentColor"/>
</svg>
