<svg viewBox="0 0 16 17" fill="none" xmlns="http://www.w3.org/2000/svg">
<rect width="16" height="16" transform="translate(0 0.513672)" fill="white" fill-opacity="0.01" style="mix-blend-mode:multiply"/>
<path d="M13.6515 1.51368C13.4736 1.51368 13.2976 1.54934 13.1337 1.61855C12.9699 1.68776 12.8216 1.78911 12.6975 1.91663L12.5009 2.11928L12.3025 1.91663C12.1784 1.78911 12.0301 1.68776 11.8663 1.61854C11.7024 1.54933 11.5264 1.51367 11.3485 1.51367C11.1707 1.51367 10.9946 1.54933 10.8308 1.61854C10.6669 1.68776 10.5186 1.78911 10.3946 1.91663C10.1415 2.17773 10 2.52708 10 2.8907C10 3.25433 10.1415 3.60368 10.3946 3.86478L12.5009 6.01368L14.6054 3.86478C14.8585 3.60368 15 3.25433 15 2.8907C15 2.52708 14.8585 2.17773 14.6054 1.91663C14.4814 1.78912 14.3331 1.68777 14.1693 1.61856C14.0054 1.54935 13.8294 1.51368 13.6515 1.51368Z" fill="currentColor"/>
<path d="M11 7.01368V8.51368H3V5.51368H7.5V4.51368H3.09215C3.19486 4.22204 3.38533 3.96934 3.6374 3.79029C3.88948 3.61124 4.1908 3.51461 4.5 3.51368H7.5V2.51368H4.5C3.83719 2.51443 3.20174 2.77807 2.73307 3.24674C2.26439 3.71542 2.00075 4.35087 2 5.01368V11.0137C2.00186 11.5511 2.17718 12.0735 2.49989 12.5033C2.82259 12.933 3.27543 13.247 3.791 13.3987L2.88465 15.5137H3.97255L4.8297 13.5137H9.1703L10.0274 15.5137H11.1153L10.209 13.3987C10.7246 13.247 11.1774 12.933 11.5001 12.5033C11.8228 12.0735 11.9981 11.5511 12 11.0137V7.01368H11ZM11 10.5137H9.5V11.5137H10.9079C10.8051 11.8053 10.6147 12.058 10.3626 12.2371C10.1105 12.4161 9.8092 12.5127 9.5 12.5137H4.5C4.1908 12.5127 3.88948 12.4161 3.6374 12.2371C3.38533 12.058 3.19486 11.8053 3.09215 11.5137H4.5V10.5137H3V9.51368H11V10.5137Z" fill="currentColor"/>
</svg>
