<svg viewBox="0 0 16 17" fill="none" xmlns="http://www.w3.org/2000/svg">
<rect width="16" height="16" transform="translate(0 0.513672)" fill="white" fill-opacity="0.01" style="mix-blend-mode:multiply"/>
<path d="M10.5 2.01367H5.5C4.83719 2.01443 4.20174 2.27806 3.73307 2.74674C3.26439 3.21542 3.00075 3.85086 3 4.51367V10.5137C3.00186 11.0511 3.17718 11.5735 3.49989 12.0033C3.82259 12.433 4.27543 12.747 4.791 12.8987L3.88465 15.0137H4.97255L5.8297 13.0137H10.1703L11.0274 15.0137H12.1153L11.209 12.8987C11.7246 12.747 12.1774 12.433 12.5001 12.0033C12.8228 11.5735 12.9981 11.0511 13 10.5137V4.51367C12.9992 3.85086 12.7356 3.21542 12.2669 2.74674C11.7983 2.27806 11.1628 2.01443 10.5 2.01367V2.01367ZM5.5 3.01367H10.5C10.8092 3.01461 11.1105 3.11123 11.3626 3.29029C11.6147 3.46934 11.8051 3.72203 11.9079 4.01367H4.09215C4.19486 3.72203 4.38532 3.46934 4.6374 3.29029C4.88948 3.11123 5.1908 3.01461 5.5 3.01367V3.01367ZM12 10.0137H10.5V11.0137H11.9079C11.8051 11.3053 11.6147 11.558 11.3626 11.7371C11.1105 11.9161 10.8092 12.0127 10.5 12.0137H5.5C5.1908 12.0127 4.88948 11.9161 4.6374 11.7371C4.38532 11.558 4.19486 11.3053 4.09215 11.0137H5.5V10.0137H4V9.01367H12V10.0137ZM12 8.01367H4V5.01367H12V8.01367Z" fill="currentColor"/>
</svg>
