<svg viewBox="0 0 16 17" fill="none" xmlns="http://www.w3.org/2000/svg">
<rect width="16" height="16" transform="translate(0 0.513672)" fill="white" fill-opacity="0.01" style="mix-blend-mode:multiply"/>
<path d="M14.563 4.07617C14.4138 4.07617 14.2707 4.01691 14.1652 3.91142C14.0598 3.80593 14.0005 3.66286 14.0005 3.51367C14.0005 3.36449 14.0598 3.22141 14.1652 3.11592C14.2707 3.01044 14.4138 2.95117 14.563 2.95117H15.0005V1.51367H9.00049V2.95117H9.43799C9.58717 2.95117 9.73025 3.01044 9.83574 3.11592C9.94123 3.22141 10.0005 3.36449 10.0005 3.51367C10.0005 3.66286 9.94123 3.80593 9.83574 3.91142C9.73025 4.01691 9.58717 4.07617 9.43799 4.07617H9.00049V5.51367H15.0005V4.07617H14.563Z" fill="currentColor"/>
<path d="M11.0005 7.01367V8.51367H3.00049V5.51367H7.50049V4.51367H3.09264C3.19534 4.22203 3.38581 3.96934 3.63789 3.79029C3.88997 3.61123 4.19129 3.51461 4.50049 3.51367H7.50049V2.51367H4.50049C3.83768 2.51443 3.20223 2.77806 2.73355 3.24674C2.26488 3.71542 2.00124 4.35086 2.00049 5.01367V11.0137C2.00235 11.5511 2.17767 12.0735 2.50038 12.5033C2.82308 12.933 3.27592 13.247 3.79149 13.3987L2.88514 15.5137H3.97304L4.83014 13.5137H9.17074L10.0279 15.5137H11.1158L10.2094 13.3987C10.725 13.247 11.1779 12.933 11.5006 12.5033C11.8233 12.0735 11.9986 11.5511 12.0005 11.0137V7.01367H11.0005ZM11.0005 10.5137H9.50049V11.5137H10.9083C10.8056 11.8053 10.6152 12.058 10.3631 12.2371C10.111 12.4161 9.80968 12.5127 9.50049 12.5137H4.50049C4.19129 12.5127 3.88997 12.4161 3.63789 12.2371C3.38581 12.058 3.19534 11.8053 3.09264 11.5137H4.50049V10.5137H3.00049V9.51367H11.0005V10.5137Z" fill="currentColor"/>
</svg>
