<svg viewBox="0 0 16 16" fill="none" xmlns="http://www.w3.org/2000/svg">
<rect width="16" height="16" fill="white" fill-opacity="0.01" style="mix-blend-mode:multiply"/>
<path d="M8.00009 1V2C11.3001 2 14.0001 4.7 14.0001 8C14.0001 11.3 11.3001 14 8.00009 14V15C11.8501 15 15.0001 11.85 15.0001 8C15.0001 4.15 11.8501 1 8.00009 1Z" fill="currentColor"/>
<path d="M4.10009 12.55L3.50009 13.35C4.10009 13.85 4.80009 14.3 5.60009 14.55L5.95009 13.6C5.25009 13.35 4.65009 13 4.10009 12.55Z" fill="currentColor"/>
<path d="M2.1001 9L1.1001 9.2C1.2501 10 1.5501 10.8 1.9501 11.5L2.8001 11C2.4501 10.4 2.2001 9.7 2.1001 9Z" fill="currentColor"/>
<path d="M2.80009 5L1.95009 4.5C1.55009 5.2 1.25009 6 1.15009 6.8L2.15009 6.95C2.20009 6.25 2.45009 5.6 2.80009 5Z" fill="currentColor"/>
<path d="M5.90009 2.4L5.55009 1.45C4.80009 1.75 4.10009 2.15 3.50009 2.65L4.15009 3.4C4.65009 3 5.25009 2.65 5.90009 2.4Z" fill="currentColor"/>
<path d="M5.91509 8L7.20509 6.71L6.50009 6L4.50009 8L6.50009 10L7.21009 9.295L5.91509 8Z" fill="currentColor"/>
<path d="M10.0851 8L8.79508 9.29L9.50008 10L11.5001 8L9.50008 6L8.79008 6.705L10.0851 8Z" fill="currentColor"/>
</svg>
