<svg viewBox="0 0 16 16" fill="none" xmlns="http://www.w3.org/2000/svg">
<rect width="16" height="16" fill="white" fill-opacity="0.01" style="mix-blend-mode:multiply"/>
<path d="M11.5001 8.5V7.5H10.4501C10.4001 7.2 10.2501 6.9 10.1001 6.6L10.8501 5.85L10.1501 5.15L9.4001 5.9C9.1501 5.75 8.8501 5.6 8.5001 5.55V4.5H7.5001V5.55C7.2001 5.6 6.9001 5.75 6.6001 5.9L5.8501 5.15L5.1501 5.85L5.9001 6.6C5.7501 6.85 5.6001 7.15 5.5501 7.5H4.5001V8.5H5.5501C5.6001 8.8 5.7501 9.1 5.9001 9.4L5.1501 10.15L5.8501 10.85L6.6001 10.1C6.8501 10.25 7.1501 10.4 7.5001 10.45V11.5H8.5001V10.45C8.8001 10.4 9.1001 10.25 9.4001 10.1L10.1501 10.85L10.8501 10.15L10.1001 9.4C10.2501 9.15 10.4001 8.85 10.4501 8.5H11.5001ZM8.0001 9.5C7.1501 9.5 6.5001 8.85 6.5001 8C6.5001 7.15 7.1501 6.5 8.0001 6.5C8.8501 6.5 9.5001 7.15 9.5001 8C9.5001 8.85 8.8501 9.5 8.0001 9.5Z" fill="currentColor"/>
<path d="M8.0001 1V2C11.3001 2 14.0001 4.7 14.0001 8C14.0001 11.3 11.3001 14 8.0001 14V15C11.8501 15 15.0001 11.85 15.0001 8C15.0001 4.15 11.8501 1 8.0001 1Z" fill="currentColor"/>
<path d="M4.1001 12.55L3.5001 13.35C4.1001 13.85 4.8001 14.3 5.6001 14.55L5.9501 13.6C5.2501 13.35 4.6501 13 4.1001 12.55Z" fill="currentColor"/>
<path d="M2.1001 9L1.1001 9.2C1.2501 10 1.5501 10.8 1.9501 11.5L2.8001 11C2.4501 10.4 2.2001 9.7 2.1001 9Z" fill="currentColor"/>
<path d="M2.8001 5L1.9501 4.5C1.5501 5.2 1.2501 6 1.1501 6.8L2.1501 6.95C2.2001 6.25 2.4501 5.6 2.8001 5Z" fill="currentColor"/>
<path d="M5.9001 2.4L5.5501 1.45C4.8001 1.75 4.1001 2.15 3.5001 2.65L4.1501 3.4C4.6501 3 5.2501 2.65 5.9001 2.4Z" fill="currentColor"/>
</svg>
