<svg viewBox="0 0 16 17" fill="none" xmlns="http://www.w3.org/2000/svg">
<rect width="16" height="16" transform="translate(0 0.513672)" fill="white" fill-opacity="0.01" style="mix-blend-mode:multiply"/>
<path d="M13.9745 13.3555C13.9414 13.2561 13.8779 13.1697 13.7931 13.1084C13.7082 13.0471 13.6062 13.014 13.5016 13.0137C13.3969 13.0135 13.2947 13.0461 13.2095 13.1069C13.1244 13.1678 13.0604 13.2539 13.0268 13.353C12.9163 13.6762 12.7121 13.9591 12.4403 14.1658C12.1684 14.3725 11.8411 14.4936 11.5002 14.5137C11.1593 14.4936 10.832 14.3725 10.5601 14.1658C10.2883 13.9591 10.0841 13.6762 9.9736 13.353C9.93994 13.2539 9.87602 13.1678 9.79084 13.1069C9.70567 13.0461 9.60353 13.0135 9.49884 13.0137C9.39415 13.014 9.29218 13.0471 9.20732 13.1084C9.12246 13.1697 9.05899 13.2561 9.02585 13.3555C8.91517 13.6781 8.711 13.9605 8.43931 14.1668C8.16763 14.373 7.84072 14.4938 7.5002 14.5137H7.2834C6.96225 13.9106 6.0002 11.6697 6.0002 6.51365V6.448L6.55865 6.8203C6.80417 6.98532 7.02586 7.18329 7.2175 7.40865L7.71785 6.48775C7.53226 6.30294 7.32989 6.13578 7.11335 5.98845L6.40145 5.51365H7.16685C7.50476 5.51636 7.84049 5.56808 8.16355 5.6672L8.6513 4.7695C8.17435 4.60147 7.67252 4.51498 7.16685 4.51365H6.55865C7.21186 3.87607 8.0874 3.51746 9.0002 3.51365H9.33365L9.877 2.51365H9.0002C8.32846 2.51618 7.66575 2.66846 7.06029 2.95941C6.45483 3.25036 5.92187 3.67265 5.5002 4.19555C5.07852 3.67266 4.54556 3.25036 3.9401 2.95941C3.33464 2.66846 2.67193 2.51618 2.0002 2.51365H1.0002V3.51365H2.0002C2.91296 3.51739 3.78848 3.87601 4.4416 4.51365H3.83345C2.86013 4.5158 1.91339 4.83138 1.13345 5.41365L0.200195 6.11365L0.800195 6.91365L1.7336 6.21365C2.34011 5.76056 3.07653 5.51509 3.8336 5.51365H4.59885L3.8869 5.98825C3.30599 6.37463 2.82971 6.89874 2.50052 7.51386C2.17132 8.12897 1.99944 8.81599 2.0002 9.51365H3.0002C2.99957 8.98064 3.13087 8.45576 3.38237 7.98581C3.63387 7.51586 3.99776 7.11546 4.4416 6.8203L5.0002 6.448V6.51365C5.0002 10.9819 5.6999 13.3906 6.1777 14.5137H1.0002V15.5137H7.5002C7.88824 15.5171 8.27161 15.4289 8.61913 15.2562C8.96666 15.0836 9.26853 14.8313 9.5002 14.52C9.73424 14.8288 10.0366 15.0792 10.3836 15.2516C10.7306 15.4239 11.1127 15.5137 11.5002 15.5137C11.8876 15.5137 12.2698 15.4239 12.6168 15.2516C12.9638 15.0792 13.2662 14.8288 13.5002 14.52C13.8684 15.0066 14.402 15.3415 15.0002 15.4617V14.4199C14.7662 14.3209 14.5547 14.1756 14.3784 13.9927C14.2021 13.8097 14.0648 13.593 13.9745 13.3555Z" fill="currentColor"/>
<path d="M14.9559 7.4814L11.8144 1.69895C11.7834 1.64282 11.7378 1.59603 11.6826 1.56344C11.6273 1.53086 11.5643 1.51367 11.5002 1.51367C11.436 1.51367 11.3731 1.53086 11.3178 1.56344C11.2626 1.59603 11.217 1.64282 11.186 1.69895L8.04444 7.4814C8.01458 7.53621 7.99948 7.59783 8.00062 7.66023C8.00176 7.72263 8.0191 7.78366 8.05094 7.83733C8.08279 7.89101 8.12803 7.93548 8.18225 7.96639C8.23647 7.9973 8.29779 8.01359 8.3602 8.01365H14.6402C14.7026 8.01359 14.7639 7.9973 14.8181 7.96639C14.8724 7.93548 14.9176 7.89101 14.9494 7.83733C14.9813 7.78366 14.9986 7.72263 14.9998 7.66023C15.0009 7.59783 14.9858 7.53621 14.9559 7.4814ZM11.1252 3.51365H11.8752V5.51365H11.1252V3.51365ZM11.5002 7.01365C11.4013 7.01365 11.3046 6.98433 11.2224 6.92939C11.1402 6.87445 11.0761 6.79636 11.0383 6.705C11.0004 6.61363 10.9905 6.5131 11.0098 6.41611C11.0291 6.31912 11.0767 6.23003 11.1466 6.1601C11.2166 6.09017 11.3057 6.04255 11.4026 6.02326C11.4996 6.00397 11.6002 6.01387 11.6915 6.05171C11.7829 6.08956 11.861 6.15364 11.9159 6.23587C11.9709 6.31809 12.0002 6.41476 12.0002 6.51365C12.0002 6.64626 11.9475 6.77344 11.8537 6.86721C11.76 6.96098 11.6328 7.01365 11.5002 7.01365Z" fill="currentColor"/>
</svg>
