<svg viewBox="0 0 16 17" fill="none" xmlns="http://www.w3.org/2000/svg">
<rect width="16" height="16" transform="translate(0 0.513672)" fill="white" fill-opacity="0.01" style="mix-blend-mode:multiply"/>
<path d="M8.00003 11.0137C7.50558 11.0137 7.02223 10.867 6.61111 10.5923C6.19998 10.3176 5.87955 9.9272 5.69033 9.47038C5.50111 9.01357 5.45161 8.5109 5.54807 8.02595C5.64453 7.54099 5.88263 7.09554 6.23226 6.7459C6.5819 6.39627 7.02735 6.15817 7.51231 6.06171C7.99726 5.96525 8.49993 6.01475 8.95674 6.20397C9.41356 6.39319 9.804 6.71362 10.0787 7.12475C10.3534 7.53587 10.5 8.01922 10.5 8.51367C10.4993 9.17648 10.2356 9.81193 9.76697 10.2806C9.29829 10.7493 8.66284 11.0129 8.00003 11.0137ZM8.00003 7.01367C7.70336 7.01367 7.41335 7.10165 7.16668 7.26647C6.92 7.43129 6.72774 7.66556 6.61421 7.93965C6.50068 8.21374 6.47098 8.51534 6.52885 8.80631C6.58673 9.09728 6.72959 9.36455 6.93937 9.57433C7.14915 9.78411 7.41642 9.92697 7.7074 9.98485C7.99837 10.0427 8.29997 10.013 8.57406 9.89949C8.84815 9.78596 9.08241 9.5937 9.24724 9.34703C9.41206 9.10035 9.50003 8.81034 9.50003 8.51367C9.4996 8.11598 9.34142 7.7347 9.06021 7.45349C8.779 7.17228 8.39772 7.01411 8.00003 7.01367Z" fill="currentColor"/>
<path d="M11.3261 2.60472L9.53568 4.67237L10.3932 5.31617C10.8924 5.68624 11.2978 6.16839 11.5765 6.72378C11.8553 7.27916 11.9997 7.89225 11.9982 8.51367L11.9986 8.54247L11.9994 8.56322C12.0084 8.77907 12.12 13.6189 4.67253 14.4243L6.46448 12.355L5.60698 11.7112C5.10775 11.3411 4.7024 10.859 4.42361 10.3036C4.14481 9.7482 4.00036 9.1351 4.00188 8.51367L4.00148 8.48487L4.00063 8.46412C3.99163 8.24867 3.88028 3.41722 11.3261 2.60472ZM12.4989 1.51367C12.4907 1.51367 12.4826 1.51367 12.4743 1.51417C2.62663 1.97097 3.00188 8.51367 3.00188 8.51367C3.00188 9.29001 3.18311 10.0556 3.53115 10.7496C3.87919 11.4436 4.38442 12.0467 5.00663 12.511L3.11843 14.6914C3.05793 14.7646 3.0194 14.8534 3.00731 14.9475C2.99522 15.0417 3.01006 15.1373 3.05012 15.2234C3.09018 15.3095 3.15381 15.3824 3.23363 15.4338C3.31346 15.4852 3.40621 15.5129 3.50113 15.5137C3.50933 15.5137 3.51748 15.5137 3.52578 15.5132C13.3734 15.0564 12.9982 8.51367 12.9982 8.51367C12.9982 7.73735 12.817 6.97174 12.4689 6.27778C12.1209 5.58383 11.6157 4.98069 10.9936 4.51637L12.8816 2.33592C12.9421 2.26277 12.9807 2.17397 12.9928 2.07982C13.0048 1.98566 12.99 1.89001 12.9499 1.80394C12.9099 1.71788 12.8463 1.64493 12.7664 1.59356C12.6866 1.54218 12.5939 1.51448 12.4989 1.51367Z" fill="currentColor"/>
</svg>
