<svg viewBox="0 0 16 17" fill="none" xmlns="http://www.w3.org/2000/svg">
<rect width="16" height="16" transform="translate(0 0.513672)" fill="white" fill-opacity="0.01" style="mix-blend-mode:multiply"/>
<path d="M8 11.0137C7.50555 11.0137 7.0222 10.867 6.61107 10.5923C6.19995 10.3176 5.87952 9.9272 5.6903 9.47038C5.50108 9.01357 5.45157 8.5109 5.54804 8.02595C5.6445 7.54099 5.8826 7.09554 6.23223 6.7459C6.58186 6.39627 7.02732 6.15817 7.51227 6.06171C7.99723 5.96525 8.49989 6.01475 8.95671 6.20397C9.41352 6.39319 9.80397 6.71362 10.0787 7.12475C10.3534 7.53587 10.5 8.01922 10.5 8.51367C10.4992 9.17648 10.2356 9.81193 9.76693 10.2806C9.29826 10.7493 8.66281 11.0129 8 11.0137ZM8 7.01367C7.70333 7.01367 7.41332 7.10165 7.16664 7.26647C6.91997 7.43129 6.72771 7.66556 6.61418 7.93965C6.50065 8.21374 6.47094 8.51534 6.52882 8.80631C6.5867 9.09728 6.72956 9.36455 6.93934 9.57433C7.14912 9.78411 7.41639 9.92697 7.70736 9.98485C7.99834 10.0427 8.29994 10.013 8.57403 9.89949C8.84811 9.78596 9.08238 9.5937 9.2472 9.34703C9.41203 9.10035 9.5 8.81034 9.5 8.51367C9.49956 8.11598 9.34139 7.7347 9.06018 7.45349C8.77897 7.17228 8.39769 7.01411 8 7.01367Z" fill="currentColor"/>
<path d="M13.43 6.75392C12.8645 5.71408 12.0244 4.84947 11.0013 4.25437C11.0694 4.18337 11.1431 4.10689 11.2225 4.02492C11.6325 3.60082 12.1875 3.03367 12.8535 2.36717C12.9235 2.29724 12.9711 2.20816 12.9903 2.11118C13.0096 2.01419 12.9997 1.91367 12.9619 1.82232C12.924 1.73097 12.86 1.65289 12.7777 1.59795C12.6955 1.54301 12.5989 1.51368 12.5 1.51367C12.323 1.51367 8.13185 1.53807 5.3655 3.66457C4.70342 4.16329 4.15041 4.79223 3.7405 5.51267C3.6697 5.44432 3.593 5.37062 3.51125 5.29152C3.08715 4.88112 2.52 4.32642 1.8535 3.66017C1.78357 3.59027 1.69449 3.54266 1.59752 3.52338C1.50054 3.5041 1.40002 3.514 1.30867 3.55183C1.21732 3.58967 1.13924 3.65374 1.0843 3.73594C1.02936 3.81815 1.00002 3.9148 1 4.01367C1 4.19337 1.025 8.45067 3.2029 11.2148C3.6926 11.8479 4.30301 12.3775 4.9988 12.773C4.8938 12.8818 4.7815 12.9988 4.67065 13.113C4.27295 13.5234 3.75635 14.0502 3.1465 14.6601C3.07658 14.73 3.02896 14.8191 3.00967 14.9161C2.99037 15.0131 3.00027 15.1136 3.03811 15.205C3.07594 15.2963 3.14002 15.3744 3.22224 15.4294C3.30445 15.4843 3.40111 15.5137 3.5 15.5137C3.6428 15.5137 7.0305 15.4961 9.7295 13.9609C10.7823 13.3945 11.6579 12.5478 12.2595 11.5147C12.3616 11.6126 12.4749 11.722 12.5995 11.843C13.0095 12.2407 13.5368 12.7573 14.1467 13.3672C14.2166 13.437 14.3057 13.4846 14.4026 13.5038C14.4996 13.5231 14.6 13.5132 14.6914 13.4753C14.7827 13.4375 14.8607 13.3735 14.9157 13.2913C14.9706 13.2091 14.9999 13.1125 15 13.0137C15 12.8696 14.9822 9.45752 13.43 6.75392ZM11.915 9.80762L11.6416 10.4912C11.1635 11.6098 10.3132 12.5286 9.235 13.0918C7.8528 13.8152 6.34444 14.2663 4.792 14.4204C5.01245 14.1958 6.70605 12.4292 6.70605 12.4292L6.02195 12.1555C5.21783 11.8252 4.51604 11.287 3.98855 10.596C2.71825 8.98387 2.2593 6.71482 2.09355 5.30597C2.3653 5.57282 4.0843 7.21927 4.0843 7.21927L4.3577 6.53567C4.69833 5.70909 5.25739 4.99073 5.975 4.45752C7.58325 3.22117 9.81545 2.77097 11.2078 2.60717C10.9412 2.87892 9.29395 4.59812 9.29395 4.59812L9.9778 4.87157C11.0869 5.34524 11.9995 6.18563 12.5628 7.25197C13.2956 8.64106 13.752 10.1591 13.9068 11.722C13.6821 11.5012 11.915 9.80762 11.915 9.80762Z" fill="currentColor"/>
</svg>
