<svg viewBox="0 0 16 17" fill="none" xmlns="http://www.w3.org/2000/svg">
<rect width="16" height="16" transform="translate(0 0.513672)" fill="white" fill-opacity="0.01" style="mix-blend-mode:multiply"/>
<path d="M12 7.51367H6V4.51367C6 3.98324 6.21071 3.47453 6.58579 3.09946C6.96086 2.72439 7.46957 2.51367 8 2.51367C8.53043 2.51367 9.03914 2.72439 9.41421 3.09946C9.78929 3.47453 10 3.98324 10 4.51367H11C11 3.71802 10.6839 2.95496 10.1213 2.39235C9.55871 1.82974 8.79565 1.51367 8 1.51367C7.20435 1.51367 6.44129 1.82974 5.87868 2.39235C5.31607 2.95496 5 3.71802 5 4.51367V7.51367H4C3.73478 7.51367 3.48043 7.61903 3.29289 7.80657C3.10536 7.9941 3 8.24846 3 8.51367V14.5137C3 14.7789 3.10536 15.0332 3.29289 15.2208C3.48043 15.4083 3.73478 15.5137 4 15.5137H12C12.2652 15.5137 12.5196 15.4083 12.7071 15.2208C12.8946 15.0332 13 14.7789 13 14.5137V8.51367C13 8.24846 12.8946 7.9941 12.7071 7.80657C12.5196 7.61903 12.2652 7.51367 12 7.51367ZM12 14.5137H4V8.51367H12V14.5137Z" fill="currentColor"/>
</svg>
