<svg viewBox="0 0 16 16" fill="none" xmlns="http://www.w3.org/2000/svg">
<rect width="16" height="16" fill="white" fill-opacity="0.01" style="mix-blend-mode:multiply"/>
<path d="M5 12.0001C5 13.6569 6.34315 15.0001 8 15.0001C9.65685 15.0001 11 13.6569 11 12.0001C11 10.3432 9.65685 9.00005 8 9.00005C6.34315 9.00005 5 10.3432 5 12.0001ZM6 12.0001C6 10.8973 6.8972 10.0001 8 10.0001C9.1028 10.0001 10 10.8973 10 12.0001C10 13.1029 9.1028 14.0001 8 14.0001C6.8972 14.0001 6 13.1029 6 12.0001Z" fill="currentColor"/>
<path d="M15 2.50005C15 1.6717 14.3284 1.00005 13.5 1.00005C12.6716 1.00005 12 1.6717 12 2.50005C12 3.15215 12.4187 3.70145 13 3.90825V6.50005C13 7.3609 12.624 8.17195 12 8.7337V7.50005H11V10.5001H14V9.50005H12.6416C13.4885 8.7503 14 7.65925 14 6.50005V3.90825C14.5813 3.70145 15 3.15215 15 2.50005ZM13.5 3.00005C13.2239 3.00005 13 2.77615 13 2.50005C13 2.22395 13.2239 2.00005 13.5 2.00005C13.7761 2.00005 14 2.22395 14 2.50005C14 2.77615 13.7761 3.00005 13.5 3.00005Z" fill="currentColor"/>
<path d="M9.293 5.793L8.50005 6.58595V3.9082C9.08135 3.7014 9.50005 3.1521 9.50005 2.5C9.50005 1.67165 8.8284 1 8.00005 1C7.1717 1 6.50005 1.67165 6.50005 2.5C6.50005 3.1521 6.91875 3.7014 7.50005 3.9082V6.58595L6.7071 5.793L6.00005 6.50005L8.00005 8.50005L10.0001 6.50005L9.293 5.793ZM8.00005 2.00005C8.27615 2.00005 8.50005 2.22395 8.50005 2.50005C8.50005 2.77615 8.27615 3.00005 8.00005 3.00005C7.72395 3.00005 7.50005 2.77615 7.50005 2.50005C7.50005 2.22395 7.72395 2.00005 8.00005 2.00005Z" fill="currentColor"/>
<path d="M4 7.50005V8.7337C3.376 8.17195 3 7.3609 3 6.50005V3.90825C3.5813 3.70145 4 3.15215 4 2.50005C4 1.6717 3.32835 1.00005 2.5 1.00005C1.67165 1.00005 1 1.6717 1 2.50005C1 3.15215 1.4187 3.70145 2 3.90825V6.50005C2 7.65925 2.51145 8.7503 3.3584 9.50005H2V10.5001H5V7.50005H4ZM2.5 2.00005C2.7761 2.00005 3 2.22395 3 2.50005C3 2.77615 2.7761 3.00005 2.5 3.00005C2.2239 3.00005 2 2.77615 2 2.50005C2 2.22395 2.2239 2.00005 2.5 2.00005Z" fill="currentColor"/>
</svg>
