<svg viewBox="0 0 16 17" fill="none" xmlns="http://www.w3.org/2000/svg">
<rect width="16" height="16" transform="translate(0 0.513672)" fill="white" fill-opacity="0.01" style="mix-blend-mode:multiply"/>
<path d="M12 8.01367V3.51367C12 3.24846 11.8946 2.9941 11.7071 2.80657C11.5196 2.61903 11.2652 2.51367 11 2.51367H5C4.73478 2.51367 4.48043 2.61903 4.29289 2.80657C4.10536 2.9941 4 3.24846 4 3.51367V8.01367C3.73478 8.01367 3.48043 8.11903 3.29289 8.30657C3.10536 8.4941 3 8.74846 3 9.01367V14.5137H4V9.01367H12V14.5137H13V9.01367C13 8.74846 12.8946 8.4941 12.7071 8.30657C12.5196 8.11903 12.2652 8.01367 12 8.01367ZM5 3.51367H11V8.01367H5V3.51367Z" fill="currentColor"/>
<path d="M7.5 5.51367H6V6.51367H7.5V5.51367Z" fill="currentColor"/>
<path d="M10 5.51367H8.5V6.51367H10V5.51367Z" fill="currentColor"/>
</svg>
