<svg viewBox="0 0 16 17" fill="none" xmlns="http://www.w3.org/2000/svg">
<rect width="16" height="16" transform="translate(0 0.513672)" fill="white" fill-opacity="0.01" style="mix-blend-mode:multiply"/>
<path d="M11.0367 11.5098C11.8901 11.5098 12.5071 11.1211 12.7943 10.3435L11.9663 9.94642C11.8057 10.3435 11.5522 10.6394 11.0367 10.6394C10.4366 10.6394 10.1325 10.2252 10.1325 9.60842V8.80557C10.1325 8.18852 10.4366 7.76622 11.0367 7.76622C11.5014 7.76622 11.7803 8.03667 11.8817 8.40847L12.7691 8.01112C12.5071 7.31812 11.9239 6.89577 11.0367 6.89577C9.73525 6.89577 9 7.78297 9 9.19422C9 10.6139 9.73525 11.5098 11.0367 11.5098Z" fill="currentColor"/>
<path d="M5.7563 11.5098C7.41275 11.5098 8.0297 10.7238 8.0297 8.99132V5.50977H6.93105V9.13512C6.93105 10.0562 6.6099 10.5211 5.76485 10.5211C4.9198 10.5211 4.59865 10.0562 4.59865 9.13512V5.50977H3.5V8.99132C3.5 10.7237 4.1 11.5098 5.7563 11.5098Z" fill="currentColor"/>
<path d="M1 2.51367V14.5137C1 15.066 1.4477 15.5137 2 15.5137H14C14.5523 15.5137 15 15.066 15 14.5137V2.51367C15 1.96137 14.5523 1.51367 14 1.51367H2C1.4477 1.51367 1 1.96137 1 2.51367ZM14 14.5137H2V2.51367H14V14.5137Z" fill="currentColor"/>
</svg>
