<svg viewBox="0 0 16 17" fill="none" xmlns="http://www.w3.org/2000/svg">
<rect width="16" height="16" transform="translate(0 0.513672)" fill="white" fill-opacity="0.01" style="mix-blend-mode:multiply"/>
<path d="M13.6515 6.51367C13.4736 6.51367 13.2976 6.54933 13.1337 6.61853C12.9699 6.68773 12.8216 6.78907 12.6975 6.91657L12.5009 7.11927L12.3025 6.91657C12.1784 6.78908 12.0301 6.68773 11.8663 6.61853C11.7024 6.54933 11.5264 6.51368 11.3485 6.51368C11.1707 6.51368 10.9946 6.54933 10.8308 6.61853C10.6669 6.68773 10.5186 6.78908 10.3946 6.91657C10.1415 7.17768 9.99999 7.52704 9.99999 7.89067C9.99999 8.2543 10.1415 8.60366 10.3946 8.86477L12.5009 11.0137L14.6054 8.86477C14.8585 8.60366 15 8.2543 15 7.89067C15 7.52704 14.8585 7.17768 14.6054 6.91657C14.4814 6.78908 14.3331 6.68774 14.1692 6.61854C14.0054 6.54934 13.8294 6.51368 13.6515 6.51367Z" fill="currentColor"/>
<path d="M1 15.5137H2V13.0137C2.00078 12.3509 2.26442 11.7154 2.7331 11.2468C3.20177 10.7781 3.8372 10.5145 4.5 10.5137H7.5C8.1628 10.5145 8.79823 10.7781 9.2669 11.2468C9.73558 11.7154 9.99922 12.3509 10 13.0137V15.5137H11V13.0137C10.9989 12.0857 10.6298 11.1961 9.97368 10.54C9.31753 9.88385 8.42792 9.51476 7.5 9.51367H4.5C3.57208 9.51476 2.68247 9.88385 2.02632 10.54C1.37018 11.1961 1.00109 12.0857 1 13.0137V15.5137Z" fill="currentColor"/>
<path d="M6 2.51367C6.49445 2.51367 6.9778 2.66029 7.38893 2.935C7.80005 3.2097 8.12048 3.60015 8.3097 4.05696C8.49892 4.51378 8.54843 5.01645 8.45196 5.5014C8.3555 5.98635 8.1174 6.43181 7.76777 6.78144C7.41814 7.13107 6.97268 7.36917 6.48773 7.46564C6.00277 7.5621 5.50011 7.51259 5.04329 7.32337C4.58648 7.13415 4.19603 6.81372 3.92133 6.4026C3.64662 5.99147 3.5 5.50813 3.5 5.01367C3.5 4.35063 3.76339 3.71475 4.23223 3.2459C4.70107 2.77706 5.33696 2.51367 6 2.51367ZM6 1.51367C5.30777 1.51367 4.63108 1.71894 4.0555 2.10353C3.47993 2.48811 3.03133 3.03474 2.76642 3.67428C2.50151 4.31382 2.4322 5.01755 2.56725 5.69649C2.7023 6.37542 3.03564 6.99906 3.52513 7.48855C4.01461 7.97803 4.63825 8.31137 5.31718 8.44642C5.99612 8.58147 6.69985 8.51216 7.33939 8.24725C7.97893 7.98234 8.52556 7.53374 8.91014 6.95817C9.29473 6.3826 9.5 5.70591 9.5 5.01367C9.5 4.08541 9.13125 3.19518 8.47487 2.5388C7.8185 1.88242 6.92826 1.51367 6 1.51367Z" fill="currentColor"/>
</svg>
