<svg viewBox="0 0 16 17" fill="none" xmlns="http://www.w3.org/2000/svg">
<g clip-path="url(#clip0_1961_11753)">
<rect width="16" height="16" transform="translate(0 0.513672)" fill="white" fill-opacity="0.01" style="mix-blend-mode:multiply"/>
<path d="M11.0001 6.01367H13.0001C13.1327 6.01367 13.2599 6.06635 13.3537 6.16012C13.4474 6.25389 13.5001 6.38106 13.5001 6.51367V7.51367H10.5001V6.51367C10.5001 6.38106 10.5528 6.25389 10.6466 6.16012C10.7403 6.06635 10.8675 6.01367 11.0001 6.01367Z" fill="currentColor"/>
<path d="M12.0001 5.51367C12.5524 5.51367 13.0001 5.06596 13.0001 4.51367C13.0001 3.96139 12.5524 3.51367 12.0001 3.51367C11.4478 3.51367 11.0001 3.96139 11.0001 4.51367C11.0001 5.06596 11.4478 5.51367 12.0001 5.51367Z" fill="currentColor"/>
<path d="M15.0001 9.51367H9.00012C8.735 9.51337 8.48082 9.40791 8.29335 9.22044C8.10588 9.03297 8.00043 8.77879 8.00012 8.51367V2.51367C8.00039 2.24854 8.10583 1.99434 8.29331 1.80686C8.48079 1.61938 8.73499 1.51394 9.00012 1.51367H15.0001C15.2652 1.51398 15.5194 1.61943 15.7069 1.8069C15.8944 1.99437 15.9998 2.24855 16.0001 2.51367V8.51367C15.9998 8.77878 15.8943 9.03293 15.7068 9.22038C15.5194 9.40784 15.2652 9.51331 15.0001 9.51367ZM9.00012 2.51367V8.51367H15.0006L15.0001 2.51367H9.00012Z" fill="currentColor"/>
<path d="M7.50012 15.5137H6.50012V13.5137C6.50375 13.3157 6.46743 13.119 6.39333 12.9354C6.31924 12.7518 6.20888 12.5849 6.06886 12.4449C5.92885 12.3049 5.76204 12.1946 5.57841 12.1205C5.39478 12.0464 5.1981 12.01 5.00012 12.0137H3.00012C2.80214 12.01 2.60546 12.0464 2.42183 12.1205C2.2382 12.1946 2.0714 12.3049 1.93138 12.4449C1.79136 12.5849 1.68101 12.7518 1.60691 12.9354C1.53281 13.119 1.49649 13.3157 1.50012 13.5137V15.5137H0.50012V13.5137C0.496873 13.1845 0.55932 12.8579 0.683807 12.5531C0.808293 12.2484 0.992319 11.9715 1.22512 11.7387C1.45791 11.5059 1.7348 11.3218 2.03958 11.1974C2.34436 11.0729 2.67091 11.0104 3.00012 11.0137H5.00012C5.32933 11.0104 5.65588 11.0729 5.96066 11.1974C6.26544 11.3218 6.54233 11.5059 6.77513 11.7387C7.00792 11.9715 7.19195 12.2484 7.31644 12.5531C7.44092 12.8579 7.50337 13.1845 7.50012 13.5137V15.5137Z" fill="currentColor"/>
<path d="M4.00012 6.01367C4.39795 6.01367 4.77948 6.17171 5.06078 6.45301C5.34209 6.73432 5.50012 7.11585 5.50012 7.51367C5.50012 7.9115 5.34209 8.29303 5.06078 8.57433C4.77948 8.85564 4.39795 9.01367 4.00012 9.01367C3.6023 9.01367 3.22077 8.85564 2.93946 8.57433C2.65816 8.29303 2.50012 7.9115 2.50012 7.51367C2.50012 7.11585 2.65816 6.73432 2.93946 6.45301C3.22077 6.17171 3.6023 6.01367 4.00012 6.01367ZM4.00012 5.01367C3.33708 5.01367 2.70119 5.27706 2.23235 5.7459C1.76351 6.21475 1.50012 6.85063 1.50012 7.51367C1.50012 8.17671 1.76351 8.8126 2.23235 9.28144C2.70119 9.75028 3.33708 10.0137 4.00012 10.0137C4.66316 10.0137 5.29905 9.75028 5.76789 9.28144C6.23673 8.8126 6.50012 8.17671 6.50012 7.51367C6.50012 6.85063 6.23673 6.21475 5.76789 5.7459C5.29905 5.27706 4.66316 5.01367 4.00012 5.01367Z" fill="currentColor"/>
</g>
<defs>
<clipPath id="clip0_1961_11753">
<rect width="16" height="16" fill="white" transform="translate(0 0.513672)"/>
</clipPath>
</defs>
</svg>
