<svg viewBox="0 0 16 17" fill="none" xmlns="http://www.w3.org/2000/svg">
<g clip-path="url(#clip0_1961_11737)">
<rect width="16" height="16" transform="translate(0 0.513672)" fill="white" fill-opacity="0.01" style="mix-blend-mode:multiply"/>
<path d="M8 15.5133H7V13.0133C6.99956 12.6156 6.84139 12.2343 6.56018 11.9531C6.27897 11.6719 5.89769 11.5137 5.5 11.5133H3.5C3.10231 11.5137 2.72103 11.6719 2.43982 11.9531C2.15861 12.2343 2.00044 12.6156 2 13.0133V15.5133H1V13.0133C1.00078 12.3505 1.26442 11.715 1.7331 11.2464C2.20177 10.7777 2.8372 10.514 3.5 10.5133H5.5C6.1628 10.514 6.79823 10.7777 7.2669 11.2464C7.73558 11.715 7.99922 12.3505 8 13.0133V15.5133Z" fill="currentColor"/>
<path d="M4.5 5.51326C4.79667 5.51326 5.08668 5.60123 5.33336 5.76605C5.58003 5.93088 5.77229 6.16514 5.88582 6.43923C5.99935 6.71332 6.02906 7.01492 5.97118 7.30589C5.9133 7.59687 5.77044 7.86414 5.56066 8.07392C5.35088 8.2837 5.08361 8.42656 4.79264 8.48444C4.50166 8.54231 4.20006 8.51261 3.92597 8.39908C3.65189 8.28555 3.41762 8.09329 3.2528 7.84661C3.08797 7.59994 3 7.30993 3 7.01326C3 6.61543 3.15804 6.2339 3.43934 5.9526C3.72064 5.67129 4.10218 5.51326 4.5 5.51326ZM4.5 4.51326C4.00555 4.51326 3.5222 4.65988 3.11107 4.93458C2.69995 5.20929 2.37952 5.59973 2.1903 6.05655C2.00108 6.51337 1.95157 7.01603 2.04804 7.50098C2.1445 7.98594 2.3826 8.43139 2.73223 8.78103C3.08186 9.13066 3.52732 9.36876 4.01227 9.46522C4.49723 9.56169 4.99989 9.51218 5.45671 9.32296C5.91352 9.13374 6.30397 8.81331 6.57867 8.40218C6.85338 7.99106 7 7.50771 7 7.01326C7 6.68495 6.93534 6.35986 6.8097 6.05655C6.68406 5.75324 6.49991 5.47764 6.26777 5.24549C6.03562 5.01335 5.76002 4.8292 5.45671 4.70356C5.15339 4.57792 4.8283 4.51326 4.5 4.51326Z" fill="currentColor"/>
<path d="M15 6.51326C14.9135 6.51446 14.8275 6.52693 14.7442 6.55036L14.2165 6.02276C14.4019 5.71867 14.5 5.3694 14.5 5.01326C14.5 4.65712 14.4019 4.30785 14.2165 4.00376L14.7442 3.47616C14.9606 3.53641 15.191 3.52326 15.3992 3.43877C15.6074 3.35429 15.7818 3.20321 15.8951 3.00916C16.0083 2.8151 16.0542 2.58899 16.0254 2.36614C15.9966 2.14328 15.8948 1.93624 15.7359 1.77735C15.577 1.61846 15.37 1.51667 15.1471 1.48788C14.9243 1.45908 14.6982 1.50491 14.5041 1.6182C14.31 1.73149 14.159 1.90586 14.0745 2.11408C13.99 2.32229 13.9769 2.55263 14.0371 2.76911L13.5095 3.29671C13.2054 3.11133 12.8561 3.01326 12.5 3.01326C12.1439 3.01326 11.7946 3.11133 11.4905 3.29671L10.9629 2.76911C11.0231 2.55263 11.01 2.32229 10.9255 2.11408C10.841 1.90586 10.69 1.73149 10.4959 1.6182C10.3018 1.50491 10.0757 1.45908 9.85288 1.48788C9.63002 1.51667 9.42298 1.61846 9.26409 1.77735C9.1052 1.93624 9.00341 2.14328 8.97462 2.36614C8.94583 2.58899 8.99165 2.8151 9.10494 3.00916C9.21823 3.20321 9.3926 3.35429 9.60082 3.43877C9.80904 3.52326 10.0394 3.53641 10.2558 3.47616L10.7835 4.00376C10.5981 4.30785 10.5 4.65712 10.5 5.01326C10.5 5.3694 10.5981 5.71867 10.7835 6.02276L10.2558 6.55036C10.0394 6.49011 9.80904 6.50326 9.60082 6.58774C9.3926 6.67223 9.21823 6.8233 9.10494 7.01736C8.99165 7.21141 8.94583 7.43753 8.97462 7.66038C9.00341 7.88323 9.1052 8.09028 9.26409 8.24917C9.42298 8.40806 9.63002 8.50985 9.85288 8.53864C10.0757 8.56743 10.3018 8.52161 10.4959 8.40832C10.69 8.29503 10.841 8.12066 10.9255 7.91244C11.01 7.70422 11.0231 7.47389 10.9629 7.25741L11.4905 6.72981C11.7946 6.91519 12.1439 7.01326 12.5 7.01326C12.8561 7.01326 13.2054 6.91519 13.5095 6.72981L14.0371 7.25741C13.9841 7.45895 13.9956 7.67201 14.0698 7.86672C14.1441 8.06142 14.2774 8.22799 14.4512 8.34305C14.6249 8.45811 14.8303 8.51589 15.0386 8.50829C15.2468 8.50069 15.4475 8.42808 15.6123 8.30065C15.7772 8.17323 15.8981 7.99738 15.9579 7.79778C16.0178 7.59818 16.0137 7.38484 15.9462 7.18771C15.8786 6.99057 15.7511 6.81952 15.5814 6.69856C15.4117 6.57761 15.2084 6.51281 15 6.51326ZM11.5 5.01326C11.5 4.81548 11.5586 4.62214 11.6685 4.45769C11.7784 4.29324 11.9346 4.16507 12.1173 4.08938C12.3 4.01369 12.5011 3.99389 12.6951 4.03247C12.8891 4.07106 13.0673 4.1663 13.2071 4.30615C13.347 4.446 13.4422 4.62419 13.4808 4.81817C13.5194 5.01215 13.4996 5.21322 13.4239 5.39594C13.3482 5.57867 13.22 5.73485 13.0556 5.84473C12.8911 5.95461 12.6978 6.01326 12.5 6.01326C12.2349 6.01293 11.9807 5.90746 11.7933 5.72C11.6058 5.53254 11.5003 5.27837 11.5 5.01326Z" fill="currentColor"/>
</g>
<defs>
<clipPath id="clip0_1961_11737">
<rect width="16" height="16" fill="white" transform="translate(0 0.513672)"/>
</clipPath>
</defs>
</svg>
