<svg viewBox="0 0 16 17" fill="none" xmlns="http://www.w3.org/2000/svg">
<rect width="16" height="16" transform="translate(0 0.513672)" fill="white" fill-opacity="0.01" style="mix-blend-mode:multiply"/>
<path d="M14.7073 10.0137L13.85 9.15627C13.9476 8.95603 13.9988 8.73641 14 8.51367C14 8.217 13.912 7.92699 13.7472 7.68032C13.5824 7.43364 13.3481 7.24138 13.074 7.12785C12.7999 7.01432 12.4983 6.98462 12.2074 7.04249C11.9164 7.10037 11.6491 7.24323 11.4393 7.45301C11.2296 7.66279 11.0867 7.93006 11.0288 8.22104C10.9709 8.51201 11.0006 8.81361 11.1142 9.0877C11.2277 9.36179 11.42 9.59605 11.6666 9.76088C11.9133 9.9257 12.2033 10.0137 12.5 10.0137C12.7229 10.0126 12.9428 9.96132 13.1432 9.86367L14 10.7207V14.5137H11V13.0137C10.999 12.0857 10.6299 11.1961 9.97373 10.5399C9.31758 9.88378 8.42794 9.5147 7.5 9.51367H4.5C3.57207 9.51473 2.68244 9.88382 2.0263 10.54C1.37015 11.1961 1.00106 12.0857 1 13.0137V15.5137H15V10.7207C15.0003 10.5894 14.9747 10.4593 14.9244 10.3379C14.8742 10.2165 14.8004 10.1063 14.7073 10.0137ZM2 13.0137C2.00079 12.3509 2.26444 11.7155 2.73311 11.2468C3.20178 10.7781 3.8372 10.5145 4.5 10.5137H7.5C8.1628 10.5145 8.79823 10.7781 9.2669 11.2468C9.73558 11.7154 9.99922 12.3509 10 13.0137V14.5137H2V13.0137Z" fill="currentColor"/>
<path d="M6 2.51367C6.49445 2.51367 6.9778 2.66029 7.38893 2.935C7.80005 3.2097 8.12048 3.60015 8.3097 4.05696C8.49892 4.51378 8.54843 5.01645 8.45196 5.5014C8.3555 5.98635 8.1174 6.43181 7.76777 6.78144C7.41814 7.13107 6.97268 7.36917 6.48773 7.46564C6.00277 7.5621 5.50011 7.51259 5.04329 7.32337C4.58648 7.13415 4.19603 6.81372 3.92133 6.4026C3.64662 5.99147 3.5 5.50813 3.5 5.01367C3.5 4.35063 3.76339 3.71475 4.23223 3.2459C4.70107 2.77706 5.33696 2.51367 6 2.51367ZM6 1.51367C5.30777 1.51367 4.63108 1.71894 4.0555 2.10353C3.47993 2.48811 3.03133 3.03474 2.76642 3.67428C2.50151 4.31382 2.4322 5.01755 2.56725 5.69649C2.7023 6.37542 3.03564 6.99906 3.52513 7.48855C4.01461 7.97803 4.63825 8.31137 5.31718 8.44642C5.99612 8.58147 6.69985 8.51216 7.33939 8.24725C7.97893 7.98234 8.52556 7.53374 8.91014 6.95817C9.29473 6.3826 9.5 5.70591 9.5 5.01367C9.5 4.08541 9.13125 3.19518 8.47487 2.5388C7.8185 1.88242 6.92826 1.51367 6 1.51367Z" fill="currentColor"/>
</svg>
