<svg viewBox="0 0 16 17" fill="none" xmlns="http://www.w3.org/2000/svg">
<rect width="16" height="16" transform="translate(0 0.513672)" fill="white" fill-opacity="0.01" style="mix-blend-mode:multiply"/>
<path d="M14.3832 2.64149C14.0071 2.25938 13.4995 2.03506 12.9637 2.01428C12.428 1.9935 11.9045 2.17781 11.5 2.52964C11.0955 2.17781 10.572 1.9935 10.0363 2.01428C9.50054 2.03506 8.99291 2.25938 8.61685 2.64149C8.22146 3.04512 8.00001 3.58764 8.00001 4.15267C8.00001 4.71769 8.22146 5.26021 8.61685 5.66384L11.499 8.58359L11.5 8.58239L11.501 8.58334L14.3832 5.66384C14.7785 5.26021 15 4.71769 15 4.15267C15 3.58764 14.7785 3.04512 14.3832 2.64149ZM13.671 4.96099L11.501 7.15964L11.5 7.15859L11.499 7.15959L9.329 4.96094C9.11723 4.74514 8.99858 4.45485 8.99858 4.15249C8.99858 3.85013 9.11723 3.55985 9.329 3.34404C9.54029 3.13864 9.82335 3.02373 10.118 3.02373C10.4127 3.02373 10.6958 3.13864 10.9071 3.34404L11.4976 3.94774L11.5 3.94529L11.5024 3.94779L12.0929 3.34409C12.3042 3.13869 12.5873 3.02378 12.882 3.02378C13.1767 3.02378 13.4597 3.13869 13.671 3.34409C13.8828 3.5599 14.0014 3.85018 14.0014 4.15254C14.0014 4.4549 13.8828 4.74519 13.671 4.96099Z" fill="currentColor"/>
<path d="M8 15.5136H7V13.0136C6.99956 12.6159 6.84139 12.2346 6.56018 11.9534C6.27897 11.6722 5.89769 11.514 5.5 11.5136H3.5C3.10231 11.514 2.72103 11.6722 2.43982 11.9534C2.15861 12.2346 2.00044 12.6159 2 13.0136V15.5136H1V13.0136C1.00078 12.3508 1.26442 11.7154 1.7331 11.2467C2.20177 10.778 2.8372 10.5144 3.5 10.5136H5.5C6.1628 10.5144 6.79823 10.778 7.2669 11.2467C7.73558 11.7154 7.99922 12.3508 8 13.0136V15.5136Z" fill="currentColor"/>
<path d="M4.5 5.51359C4.79667 5.51359 5.08668 5.60156 5.33336 5.76639C5.58003 5.93121 5.77229 6.16548 5.88582 6.43957C5.99935 6.71365 6.02906 7.01525 5.97118 7.30623C5.9133 7.5972 5.77044 7.86447 5.56066 8.07425C5.35088 8.28403 5.08361 8.42689 4.79264 8.48477C4.50166 8.54265 4.20006 8.51294 3.92597 8.39941C3.65189 8.28588 3.41762 8.09362 3.2528 7.84695C3.08797 7.60027 3 7.31026 3 7.01359C3 6.61577 3.15804 6.23424 3.43934 5.95293C3.72064 5.67163 4.10218 5.51359 4.5 5.51359ZM4.5 4.51359C4.00555 4.51359 3.5222 4.66021 3.11107 4.93492C2.69995 5.20962 2.37952 5.60007 2.1903 6.05688C2.00108 6.5137 1.95157 7.01636 2.04804 7.50132C2.1445 7.98627 2.3826 8.43173 2.73223 8.78136C3.08186 9.13099 3.52732 9.36909 4.01227 9.46555C4.49723 9.56202 4.99989 9.51251 5.45671 9.32329C5.91352 9.13407 6.30397 8.81364 6.57867 8.40252C6.85338 7.99139 7 7.50804 7 7.01359C7 6.68529 6.93534 6.3602 6.8097 6.05688C6.68406 5.75357 6.49991 5.47797 6.26777 5.24582C6.03562 5.01368 5.76002 4.82953 5.45671 4.70389C5.15339 4.57826 4.8283 4.51359 4.5 4.51359Z" fill="currentColor"/>
</svg>
