<svg viewBox="0 0 16 17" fill="none" xmlns="http://www.w3.org/2000/svg">
<rect width="16" height="16" transform="translate(0 0.513672)" fill="white" fill-opacity="0.01" style="mix-blend-mode:multiply"/>
<path d="M8 15.5137H7V13.0137C6.9991 12.1856 6.32805 11.5146 5.5 11.5137H3.5C2.67195 11.5146 2.0009 12.1856 2 13.0137V15.5137H1V13.0137C1.00165 11.6336 2.11995 10.5153 3.5 10.5137H5.5C6.88005 10.5153 7.99835 11.6336 8 13.0137V15.5137Z" fill="currentColor"/>
<path d="M4.5 5.51367C5.32845 5.51367 6 6.18522 6 7.01367C6 7.84212 5.32845 8.51367 4.5 8.51367C3.67155 8.51367 3 7.84212 3 7.01367C3 6.18522 3.67155 5.51367 4.5 5.51367ZM4.5 4.51367C3.1193 4.51367 2 5.63297 2 7.01367C2 8.39437 3.1193 9.51367 4.5 9.51367C5.8807 9.51367 7 8.39437 7 7.01367C7 5.63297 5.8807 4.51367 4.5 4.51367Z" fill="currentColor"/>
<path d="M14 4.51367H11V3.01367C11 2.46242 11.4486 2.01367 12 2.01367C12.5514 2.01367 13 2.46242 13 3.01367H14C14 1.91087 13.1028 1.01367 12 1.01367C10.8972 1.01367 10 1.91087 10 3.01367V4.51367C9.4486 4.51367 9 4.96242 9 5.51367V8.51367C9 9.06492 9.4486 9.51367 10 9.51367H14C14.5514 9.51367 15 9.06492 15 8.51367V5.51367C15 4.96242 14.5514 4.51367 14 4.51367ZM14 8.51367H10V5.51367H14V8.51367Z" fill="currentColor"/>
</svg>
