<svg viewBox="0 0 16 17" fill="none" xmlns="http://www.w3.org/2000/svg">
<g clip-path="url(#clip0_1961_11766)">
<rect width="16" height="16" transform="translate(0 0.513672)" fill="white" fill-opacity="0.01" style="mix-blend-mode:multiply"/>
<path d="M15.5001 2.01367H8.50012C8.36751 2.01367 8.24034 2.06635 8.14657 2.16012C8.0528 2.25389 8.00012 2.38106 8.00012 2.51367V9.01367C8.00012 9.14628 8.0528 9.27346 8.14657 9.36723C8.24034 9.46099 8.36751 9.51367 8.50012 9.51367H15.5001C15.6327 9.51367 15.7599 9.46099 15.8537 9.36723C15.9474 9.27346 16.0001 9.14628 16.0001 9.01367V2.51367C16.0001 2.38106 15.9474 2.25389 15.8537 2.16012C15.7599 2.06635 15.6327 2.01367 15.5001 2.01367ZM14.0001 5.01367H12.5001V6.51367H14.0001V7.51367H12.5001V8.51367H11.5001V7.51367H10.0001V6.51367H11.5001V5.01367H10.0001V4.01367H11.5001V3.01367H12.5001V4.01367H14.0001V5.01367Z" fill="currentColor"/>
<path d="M7.50012 15.5137H6.50012V13.5137C6.50375 13.3157 6.46743 13.119 6.39333 12.9354C6.31924 12.7518 6.20888 12.5849 6.06886 12.4449C5.92885 12.3049 5.76204 12.1946 5.57841 12.1205C5.39478 12.0464 5.1981 12.01 5.00012 12.0137H3.00012C2.80214 12.01 2.60546 12.0464 2.42183 12.1205C2.2382 12.1946 2.0714 12.3049 1.93138 12.4449C1.79136 12.5849 1.68101 12.7518 1.60691 12.9354C1.53281 13.119 1.49649 13.3157 1.50012 13.5137V15.5137H0.50012V13.5137C0.496873 13.1845 0.55932 12.8579 0.683807 12.5531C0.808293 12.2484 0.992319 11.9715 1.22512 11.7387C1.45791 11.5059 1.7348 11.3218 2.03958 11.1974C2.34436 11.0729 2.67091 11.0104 3.00012 11.0137H5.00012C5.32933 11.0104 5.65588 11.0729 5.96066 11.1974C6.26544 11.3218 6.54233 11.5059 6.77513 11.7387C7.00792 11.9715 7.19195 12.2484 7.31644 12.5531C7.44092 12.8579 7.50337 13.1845 7.50012 13.5137V15.5137Z" fill="currentColor"/>
<path d="M4.00012 6.01367C4.39795 6.01367 4.77948 6.17171 5.06078 6.45301C5.34209 6.73432 5.50012 7.11585 5.50012 7.51367C5.50012 7.9115 5.34209 8.29303 5.06078 8.57433C4.77948 8.85564 4.39795 9.01367 4.00012 9.01367C3.6023 9.01367 3.22077 8.85564 2.93946 8.57433C2.65816 8.29303 2.50012 7.9115 2.50012 7.51367C2.50012 7.11585 2.65816 6.73432 2.93946 6.45301C3.22077 6.17171 3.6023 6.01367 4.00012 6.01367ZM4.00012 5.01367C3.33708 5.01367 2.70119 5.27706 2.23235 5.7459C1.76351 6.21475 1.50012 6.85063 1.50012 7.51367C1.50012 8.17671 1.76351 8.8126 2.23235 9.28144C2.70119 9.75028 3.33708 10.0137 4.00012 10.0137C4.66316 10.0137 5.29905 9.75028 5.76789 9.28144C6.23673 8.8126 6.50012 8.17671 6.50012 7.51367C6.50012 6.85063 6.23673 6.21475 5.76789 5.7459C5.29905 5.27706 4.66316 5.01367 4.00012 5.01367Z" fill="currentColor"/>
</g>
<defs>
<clipPath id="clip0_1961_11766">
<rect width="16" height="16" fill="white" transform="translate(0 0.513672)"/>
</clipPath>
</defs>
</svg>
