<svg viewBox="0 0 16 17" fill="none" xmlns="http://www.w3.org/2000/svg">
<rect width="16" height="16" transform="translate(0 0.513672)" fill="white" fill-opacity="0.01" style="mix-blend-mode:multiply"/>
<path d="M12.5 12.0137H12.4893C12.3825 12.0112 12.2792 11.9747 12.1947 11.9094C12.1101 11.8442 12.0487 11.7536 12.0192 11.6509L10.4355 6.10867L9.46825 8.68902C9.43251 8.78436 9.36853 8.86652 9.28486 8.92453C9.20119 8.98254 9.10181 9.01364 9 9.01367H7V8.01367H8.6533L10.0317 4.33812C10.0687 4.23963 10.1359 4.15531 10.2235 4.09715C10.3112 4.03899 10.415 4.00996 10.5201 4.01418C10.6252 4.0184 10.7264 4.05565 10.8091 4.12065C10.8918 4.18565 10.952 4.27508 10.981 4.37622L12.5366 9.82227L13.5259 6.85547C13.559 6.75592 13.6226 6.66933 13.7077 6.60797C13.7928 6.54662 13.8951 6.51363 14 6.51367H16V7.51367H14.3603L12.9741 11.6719C12.941 11.7714 12.8774 11.8581 12.7923 11.9194C12.7072 11.9808 12.6049 12.0137 12.5 12.0137Z" fill="currentColor"/>
<path d="M7.5 15.5137H6.5V12.0137C6.49956 11.616 6.34139 11.2347 6.06018 10.9535C5.77897 10.6723 5.39769 10.5141 5 10.5137H3C2.60231 10.5141 2.22103 10.6723 1.93982 10.9535C1.65861 11.2347 1.50044 11.616 1.5 12.0137V15.5137H0.5V12.0137C0.500781 11.3509 0.764423 10.7154 1.2331 10.2468C1.70177 9.7781 2.3372 9.51445 3 9.51367H5C5.6628 9.51445 6.29823 9.7781 6.7669 10.2468C7.23558 10.7154 7.49922 11.3509 7.5 12.0137V15.5137Z" fill="currentColor"/>
<path d="M4 4.51367C4.29667 4.51367 4.58668 4.60165 4.83336 4.76647C5.08003 4.93129 5.27229 5.16556 5.38582 5.43965C5.49935 5.71374 5.52906 6.01534 5.47118 6.30631C5.4133 6.59728 5.27044 6.86455 5.06066 7.07433C4.85088 7.28411 4.58361 7.42697 4.29264 7.48485C4.00166 7.54273 3.70006 7.51302 3.42597 7.39949C3.15189 7.28596 2.91762 7.0937 2.7528 6.84703C2.58797 6.60035 2.5 6.31034 2.5 6.01367C2.5 5.61585 2.65804 5.23432 2.93934 4.95301C3.22064 4.67171 3.60218 4.51367 4 4.51367ZM4 3.51367C3.50555 3.51367 3.0222 3.66029 2.61107 3.935C2.19995 4.2097 1.87952 4.60015 1.6903 5.05696C1.50108 5.51378 1.45157 6.01645 1.54804 6.5014C1.6445 6.98635 1.8826 7.43181 2.23223 7.78144C2.58186 8.13107 3.02732 8.36917 3.51227 8.46564C3.99723 8.5621 4.49989 8.51259 4.95671 8.32337C5.41352 8.13415 5.80397 7.81372 6.07867 7.4026C6.35338 6.99147 6.5 6.50813 6.5 6.01367C6.5 5.35063 6.23661 4.71475 5.76777 4.2459C5.29893 3.77706 4.66304 3.51367 4 3.51367Z" fill="currentColor"/>
</svg>
