<svg viewBox="0 0 16 17" fill="none" xmlns="http://www.w3.org/2000/svg">
<rect width="16" height="16" transform="translate(0 0.513672)" fill="white" fill-opacity="0.01" style="mix-blend-mode:multiply"/>
<path d="M6 2.51367C6.49445 2.51367 6.9778 2.66029 7.38893 2.935C7.80005 3.2097 8.12048 3.60015 8.3097 4.05696C8.49892 4.51378 8.54843 5.01645 8.45196 5.5014C8.3555 5.98635 8.1174 6.43181 7.76777 6.78144C7.41814 7.13107 6.97268 7.36917 6.48773 7.46564C6.00277 7.5621 5.50011 7.51259 5.04329 7.32337C4.58648 7.13415 4.19603 6.81372 3.92133 6.4026C3.64662 5.99147 3.5 5.50813 3.5 5.01367C3.5 4.35063 3.76339 3.71475 4.23223 3.2459C4.70107 2.77706 5.33696 2.51367 6 2.51367ZM6 1.51367C5.30777 1.51367 4.63108 1.71894 4.0555 2.10353C3.47993 2.48811 3.03133 3.03474 2.76642 3.67428C2.50151 4.31382 2.4322 5.01755 2.56725 5.69649C2.7023 6.37542 3.03564 6.99906 3.52513 7.48855C4.01461 7.97803 4.63825 8.31137 5.31718 8.44642C5.99612 8.58147 6.69985 8.51216 7.33939 8.24725C7.97893 7.98234 8.52556 7.53374 8.91014 6.95817C9.29473 6.3826 9.5 5.70591 9.5 5.01367C9.5 4.08541 9.13125 3.19518 8.47487 2.5388C7.8185 1.88242 6.92826 1.51367 6 1.51367Z" fill="currentColor"/>
<path d="M11 15.5137H10V13.0137C10 12.3506 9.73661 11.7147 9.26777 11.2459C8.79893 10.7771 8.16304 10.5137 7.5 10.5137H4.5C3.83696 10.5137 3.20107 10.7771 2.73223 11.2459C2.26339 11.7147 2 12.3506 2 13.0137V15.5137H1V13.0137C1 12.0854 1.36875 11.1952 2.02513 10.5388C2.6815 9.88242 3.57174 9.51367 4.5 9.51367H7.5C8.42826 9.51367 9.3185 9.88242 9.97487 10.5388C10.6313 11.1952 11 12.0854 11 13.0137V15.5137Z" fill="currentColor"/>
<path d="M16 2.51367H11V3.51367H16V2.51367Z" fill="currentColor"/>
<path d="M16 5.01367H11V6.01367H16V5.01367Z" fill="currentColor"/>
<path d="M14.5 7.51367H11V8.51367H14.5V7.51367Z" fill="currentColor"/>
</svg>
