<svg viewBox="0 0 16 17" fill="none" xmlns="http://www.w3.org/2000/svg">
<rect width="16" height="16" transform="translate(0 0.513672)" fill="white" fill-opacity="0.01" style="mix-blend-mode:multiply"/>
<path d="M8 4.51367C7.50555 4.51367 7.0222 4.66029 6.61108 4.935C6.19995 5.2097 5.87952 5.60015 5.6903 6.05696C5.50108 6.51378 5.45158 7.01645 5.54804 7.5014C5.6445 7.98635 5.88261 8.43181 6.23224 8.78144C6.58187 9.13107 7.02733 9.36917 7.51228 9.46564C7.99723 9.5621 8.4999 9.51259 8.95671 9.32337C9.41353 9.13415 9.80397 8.81372 10.0787 8.4026C10.3534 7.99147 10.5 7.50813 10.5 7.01367C10.5 6.35063 10.2366 5.71475 9.76777 5.2459C9.29893 4.77706 8.66304 4.51367 8 4.51367Z" fill="currentColor"/>
<path d="M8 1.51367C6.61553 1.51367 5.26216 1.92421 4.11101 2.69338C2.95987 3.46255 2.06266 4.55581 1.53285 5.83489C1.00303 7.11397 0.86441 8.52144 1.13451 9.8793C1.4046 11.2372 2.07129 12.4845 3.05026 13.4634C4.02922 14.4424 5.2765 15.1091 6.63437 15.3792C7.99224 15.6493 9.3997 15.5106 10.6788 14.9808C11.9579 14.451 13.0511 13.5538 13.8203 12.4027C14.5895 11.2515 15 9.89814 15 8.51367C14.9979 6.6578 14.2597 4.87854 12.9474 3.56623C11.6351 2.25393 9.85588 1.51576 8 1.51367ZM11.9963 12.9766C11.9863 12.3207 11.7191 11.695 11.2521 11.2343C10.7852 10.7736 10.156 10.5148 9.5 10.5137H6.5C5.84405 10.5148 5.2148 10.7736 4.74786 11.2343C4.28093 11.695 4.01369 12.3207 4.00375 12.9766C3.09703 12.1669 2.45762 11.101 2.17017 9.9199C1.88272 8.7388 1.9608 7.49824 2.39407 6.3625C2.82734 5.22676 3.59536 4.24941 4.59644 3.55985C5.59751 2.8703 6.78442 2.50108 8 2.50108C9.21558 2.50108 10.4025 2.8703 11.4036 3.55985C12.4046 4.24941 13.1727 5.22676 13.6059 6.3625C14.0392 7.49824 14.1173 8.7388 13.8298 9.9199C13.5424 11.101 12.903 12.1669 11.9963 12.9766Z" fill="currentColor"/>
</svg>
