<svg viewBox="0 0 16 17" fill="none" xmlns="http://www.w3.org/2000/svg">
<rect width="16" height="16" transform="translate(0 0.513672)" fill="white" fill-opacity="0.01" style="mix-blend-mode:multiply"/>
<path d="M9.5 2.01367H14.5C15.0518 2.01367 15.5 2.46192 15.5 3.01367V6.01367C15.5 6.56542 15.0518 7.01367 14.5 7.01367H13.2886L12.4228 8.51367L11.5567 8.01367L12.7114 6.01367H14.5V3.01367H9.5V6.01367H11V7.01367H9.5C8.94825 7.01367 8.5 6.56542 8.5 6.01367V3.01367C8.5 2.46192 8.94825 2.01367 9.5 2.01367Z" fill="currentColor"/>
<path d="M7.5 15.5137H6.5V13.0137C6.4991 12.1856 5.82805 11.5146 5 11.5137H3C2.17195 11.5146 1.5009 12.1856 1.5 13.0137V15.5137H0.5V13.0137C0.50165 11.6336 1.61995 10.5153 3 10.5137H5C6.38005 10.5153 7.49835 11.6336 7.5 13.0137V15.5137Z" fill="currentColor"/>
<path d="M4 5.51367C4.82845 5.51367 5.5 6.18522 5.5 7.01367C5.5 7.84212 4.82845 8.51367 4 8.51367C3.17155 8.51367 2.5 7.84212 2.5 7.01367C2.50095 6.18562 3.17195 5.51462 4 5.51367ZM4 4.51367C2.6193 4.51367 1.5 5.63297 1.5 7.01367C1.5 8.39437 2.6193 9.51367 4 9.51367C5.3807 9.51367 6.5 8.39437 6.5 7.01367C6.5 5.63297 5.3807 4.51367 4 4.51367Z" fill="currentColor"/>
</svg>
