<svg viewBox="0 0 16 17" fill="none" xmlns="http://www.w3.org/2000/svg">
<rect width="16" height="16" transform="translate(0 0.513672)" fill="white" fill-opacity="0.01" style="mix-blend-mode:multiply"/>
<path d="M3 15.5137H13V13.0137C12.9989 12.0857 12.6298 11.1961 11.9737 10.54C11.3175 9.88385 10.4279 9.51476 9.5 9.51367H6.5C5.57208 9.51476 4.68247 9.88385 4.02632 10.54C3.37018 11.1961 3.00109 12.0857 3 13.0137V15.5137Z" fill="currentColor"/>
<path d="M4.5 5.01367C4.5 5.70591 4.70527 6.3826 5.08986 6.95817C5.47444 7.53374 6.02107 7.98234 6.66061 8.24725C7.30015 8.51216 8.00388 8.58147 8.68282 8.44642C9.36175 8.31137 9.98539 7.97803 10.4749 7.48855C10.9644 6.99906 11.2977 6.37542 11.4327 5.69649C11.5678 5.01755 11.4985 4.31382 11.2336 3.67428C10.9687 3.03474 10.5201 2.48811 9.9445 2.10353C9.36892 1.71894 8.69223 1.51367 8 1.51367C7.07174 1.51367 6.1815 1.88242 5.52513 2.5388C4.86875 3.19518 4.5 4.08541 4.5 5.01367Z" fill="currentColor"/>
</svg>
