<svg viewBox="0 0 16 17" fill="none" xmlns="http://www.w3.org/2000/svg">
<rect width="16" height="16" transform="translate(0 0.513672)" fill="white" fill-opacity="0.01" style="mix-blend-mode:multiply"/>
<path d="M14.7321 7.51369L13 6.51369L12.5 7.37971L14.2321 8.37971L14.7321 7.51369Z" fill="currentColor"/>
<path d="M15 4.51367H13V5.51367H15V4.51367Z" fill="currentColor"/>
<path d="M1.76796 8.37971L3.50001 7.37971L3.00001 6.51368L1.26796 7.51368L1.76796 8.37971Z" fill="currentColor"/>
<path d="M13 15.5137H12V13.0137C11.9992 12.3509 11.7356 11.7154 11.2669 11.2468C10.7982 10.7781 10.1628 10.5145 9.5 10.5137H6.5C5.8372 10.5145 5.20177 10.7781 4.7331 11.2468C4.26442 11.7154 4.00078 12.3509 4 13.0137V15.5137H3V13.0137C3.00109 12.0857 3.37018 11.1961 4.02632 10.54C4.68247 9.88385 5.57208 9.51476 6.5 9.51367H9.5C10.4279 9.51476 11.3175 9.88385 11.9737 10.54C12.6298 11.1961 12.9989 12.0857 13 13.0137V15.5137Z" fill="currentColor"/>
<path d="M8 2.51367C8.49445 2.51367 8.9778 2.66029 9.38893 2.935C9.80005 3.2097 10.1205 3.60015 10.3097 4.05696C10.4989 4.51378 10.5484 5.01645 10.452 5.5014C10.3555 5.98635 10.1174 6.43181 9.76777 6.78144C9.41814 7.13107 8.97268 7.36917 8.48773 7.46564C8.00277 7.5621 7.50011 7.51259 7.04329 7.32337C6.58648 7.13415 6.19603 6.81372 5.92133 6.4026C5.64662 5.99147 5.5 5.50813 5.5 5.01367C5.5 4.35063 5.76339 3.71475 6.23223 3.2459C6.70107 2.77706 7.33696 2.51367 8 2.51367ZM8 1.51367C7.30777 1.51367 6.63108 1.71894 6.0555 2.10353C5.47993 2.48811 5.03133 3.03474 4.76642 3.67428C4.50152 4.31382 4.4322 5.01755 4.56725 5.69649C4.7023 6.37542 5.03564 6.99906 5.52513 7.48855C6.01461 7.97803 6.63825 8.31137 7.31718 8.44642C7.99612 8.58147 8.69985 8.51216 9.33939 8.24725C9.97893 7.98234 10.5256 7.53374 10.9101 6.95817C11.2947 6.3826 11.5 5.70591 11.5 5.01367C11.5 4.08541 11.1313 3.19518 10.4749 2.5388C9.8185 1.88242 8.92826 1.51367 8 1.51367Z" fill="currentColor"/>
<path d="M14.2321 1.64766L12.5 2.64766L13 3.51368L14.7321 2.51368L14.2321 1.64766Z" fill="currentColor"/>
<path d="M3 4.51367H1V5.51367H3V4.51367Z" fill="currentColor"/>
<path d="M1.26796 2.51368L3.00001 3.51368L3.50001 2.64766L1.76796 1.64766L1.26796 2.51368Z" fill="currentColor"/>
</svg>
