<svg viewBox="0 0 16 17" fill="none" xmlns="http://www.w3.org/2000/svg">
<rect width="16" height="16" transform="translate(0 0.513672)" fill="white" fill-opacity="0.01" style="mix-blend-mode:multiply"/>
<path d="M10.75 6.51369C11.1642 6.51369 11.5 6.1779 11.5 5.76369C11.5 5.34947 11.1642 5.01369 10.75 5.01369C10.3358 5.01369 10 5.34947 10 5.76369C10 6.1779 10.3358 6.51369 10.75 6.51369Z" fill="currentColor"/>
<path d="M14.25 1.01369C14.039 1.01267 13.8313 1.06614 13.6469 1.16894L9.4917 3.31789L9.49305 3.32059C9.11102 3.51691 8.78031 3.80003 8.52747 4.14725C8.27462 4.49447 8.10667 4.89611 8.0371 5.31997C7.96752 5.74382 7.99825 6.17808 8.12682 6.58791C8.25539 6.99774 8.47822 7.37173 8.77744 7.67988C9.07666 7.98804 9.44394 8.22177 9.84981 8.36234C10.2557 8.50291 10.6889 8.5464 11.1146 8.48931C11.5403 8.43223 11.9467 8.27616 12.3012 8.03364C12.6557 7.79112 12.9484 7.46888 13.1559 7.09279L13.1574 7.09354L15.3574 2.84354C15.4572 2.65302 15.5061 2.43998 15.4995 2.22502C15.4928 2.01006 15.4308 1.80046 15.3195 1.61647C15.2081 1.43248 15.0512 1.28034 14.8638 1.17474C14.6765 1.06915 14.4651 1.01367 14.25 1.01369ZM10.75 7.51369C10.4039 7.51369 10.0655 7.41105 9.77775 7.21876C9.48997 7.02647 9.26566 6.75315 9.13321 6.43338C9.00076 6.11361 8.9661 5.76174 9.03363 5.42228C9.10115 5.08281 9.26782 4.77099 9.51256 4.52625C9.7573 4.28151 10.0691 4.11484 10.4086 4.04731C10.7481 3.97979 11.0999 4.01444 11.4197 4.1469C11.7395 4.27935 12.0128 4.50365 12.2051 4.79144C12.3974 5.07922 12.5 5.41757 12.5 5.76369C12.4994 6.22764 12.3149 6.67244 11.9868 7.00051C11.6588 7.32858 11.214 7.51313 10.75 7.51369ZM14.4707 2.38139L13.2786 4.68409C12.999 4.03309 12.4801 3.51431 11.829 3.23489L14.1264 2.04639C14.1648 2.02718 14.2073 2.01783 14.2502 2.01917C14.293 2.02051 14.3349 2.0325 14.372 2.05406C14.409 2.07562 14.4401 2.10608 14.4625 2.14268C14.4849 2.17927 14.4977 2.22086 14.5 2.26369C14.5001 2.30473 14.49 2.34516 14.4707 2.38139Z" fill="currentColor"/>
<path d="M9.5 10.5137H13V9.51369H8.5V14.5137C8.50036 14.7788 8.60583 15.0329 8.79329 15.2204C8.98075 15.4079 9.23489 15.5133 9.5 15.5137H11V14.5137H9.5V10.5137Z" fill="currentColor"/>
<path d="M6 15.5137H4.5V14.5137H6V8.29689L4.2427 7.24244L4.7573 6.38504L6.51465 7.43924C6.66234 7.52854 6.78456 7.65434 6.86956 7.80454C6.95457 7.95475 6.99948 8.1243 7 8.29689V14.5137C6.99968 14.7788 6.89422 15.033 6.70676 15.2204C6.51929 15.4079 6.26512 15.5134 6 15.5137Z" fill="currentColor"/>
<path d="M8.65395 1.65629C8.2766 1.56162 7.88904 1.51372 7.5 1.51369C6.79866 1.51572 6.11009 1.70149 5.5029 2.05248C4.89571 2.40348 4.39108 2.90745 4.0393 3.51419C4.02625 3.51369 4.0132 3.51369 4 3.51369C3.20435 3.51369 2.44129 3.82976 1.87868 4.39237C1.31607 4.95498 1 5.71804 1 6.51369C1 7.30934 1.31607 8.0724 1.87868 8.63501C2.44129 9.19762 3.20435 9.51369 4 9.51369V8.51369C3.46957 8.51369 2.96086 8.30297 2.58579 7.9279C2.21071 7.55283 2 7.04412 2 6.51369C2 5.98325 2.21071 5.47455 2.58579 5.09947C2.96086 4.7244 3.46957 4.51369 4 4.51369C4.06489 4.51554 4.12955 4.52208 4.1935 4.53324L4.625 4.59034L4.7793 4.25659C5.02016 3.73746 5.40404 3.29777 5.88593 2.98907C6.36781 2.68037 6.92772 2.51547 7.5 2.51369C7.7917 2.5157 8.08216 2.55174 8.3655 2.62109L8.65395 1.65629Z" fill="currentColor"/>
</svg>
