<svg viewBox="0 0 16 16" fill="none" xmlns="http://www.w3.org/2000/svg">
<g clip-path="url(#clip0_1961_8118)">
<rect width="16" height="16" fill="white" fill-opacity="0.01" style="mix-blend-mode:multiply"/>
<path d="M9.29295 9.20705L8 7.91725L6.70625 9.2078L6 8.5L8 6.5L10 8.5L9.29295 9.20705Z" fill="currentColor"/>
<path d="M0.7929 8.7071C0.59765 8.51185 0.5 8.2559 0.5 8C0.5 7.7441 0.59765 7.48815 0.7929 7.2929L7.2929 0.7929C7.48815 0.59765 7.74405 0.5 8 0.5C8.25595 0.5 8.51185 0.59765 8.7071 0.7929L15.2071 7.2929C15.4023 7.48815 15.5 7.7441 15.5 8C15.5 8.2559 15.4023 8.51185 15.2071 8.7071L8.7071 15.2071C8.51185 15.4023 8.2559 15.5 8 15.5C7.7441 15.5 7.48815 15.4023 7.2929 15.2071L0.7929 8.7071ZM8 1.5L1.5 8L8 14.5L14.5 8L8 1.5Z" fill="currentColor"/>
</g>
<defs>
<clipPath id="clip0_1961_8118">
<rect width="16" height="16" fill="white"/>
</clipPath>
</defs>
</svg>
