<svg viewBox="0 0 16 17" fill="none" xmlns="http://www.w3.org/2000/svg">
<rect width="16" height="16" transform="translate(0 0.513672)" fill="white" fill-opacity="0.01" style="mix-blend-mode:multiply"/>
<path d="M10.1549 3.51367H1.99989C1.73468 3.51367 1.48032 3.61903 1.29279 3.80657C1.10525 3.9941 0.999892 4.24846 0.999892 4.51367V12.5137C0.997432 12.562 0.997432 12.6104 0.999892 12.6587L10.1549 3.51367Z" fill="currentColor"/>
<path d="M14.7299 4.56867C14.6504 4.53071 14.5623 4.51441 14.4745 4.52144C14.3867 4.52846 14.3023 4.55855 14.2299 4.60867L11.4999 6.54367V5.73367L14.9999 2.23367L14.2799 1.51367L0.999892 14.7937L1.71989 15.5137L3.71989 13.5137H10.4999C10.7651 13.5137 11.0195 13.4083 11.207 13.2208C11.3945 13.0332 11.4999 12.7789 11.4999 12.5137V10.4837L14.2099 12.4187C14.2845 12.4718 14.3723 12.5034 14.4637 12.5101C14.555 12.5167 14.6465 12.4981 14.728 12.4563C14.8095 12.4145 14.878 12.3511 14.9259 12.2731C14.9739 12.195 14.9995 12.1053 14.9999 12.0137V5.01367C15.0001 4.92186 14.975 4.83176 14.9274 4.75327C14.8797 4.67477 14.8114 4.61091 14.7299 4.56867Z" fill="currentColor"/>
</svg>
