<svg viewBox="0 0 16 17" fill="none" xmlns="http://www.w3.org/2000/svg">
<rect width="16" height="16" transform="translate(0 0.513672)" fill="white" fill-opacity="0.01" style="mix-blend-mode:multiply"/>
<path d="M10.5 13.5137H2C1.73478 13.5137 1.48043 13.4083 1.29289 13.2208C1.10536 13.0332 1 12.7789 1 12.5137V4.51367C1 4.24846 1.10536 3.9941 1.29289 3.80657C1.48043 3.61903 1.73478 3.51367 2 3.51367H10.5C10.7652 3.51367 11.0196 3.61903 11.2071 3.80657C11.3946 3.9941 11.5 4.24846 11.5 4.51367V6.54367L14.21 4.60867C14.2846 4.55554 14.3724 4.52393 14.4638 4.51729C14.5552 4.51065 14.6466 4.52925 14.7281 4.57104C14.8096 4.61283 14.8781 4.67622 14.926 4.75427C14.974 4.83233 14.9996 4.92206 15 5.01367V12.0137C14.9996 12.1053 14.974 12.195 14.926 12.2731C14.8781 12.3511 14.8096 12.4145 14.7281 12.4563C14.6466 12.4981 14.5552 12.5167 14.4638 12.5101C14.3724 12.5034 14.2846 12.4718 14.21 12.4187L11.5 10.4837V12.5137C11.5 12.7789 11.3946 13.0332 11.2071 13.2208C11.0196 13.4083 10.7652 13.5137 10.5 13.5137Z" fill="currentColor"/>
</svg>
