<svg viewBox="0 0 16 17" fill="none" xmlns="http://www.w3.org/2000/svg">
<rect width="16" height="16" transform="translate(0 0.513672)" fill="white" fill-opacity="0.01" style="mix-blend-mode:multiply"/>
<path d="M14.73 4.56867C14.6505 4.53071 14.5624 4.51441 14.4746 4.52144C14.3868 4.52846 14.3024 4.55855 14.23 4.60867L11.5 6.54367V5.73367L15 2.23367L14.28 1.51367L1 14.7937L1.72 15.5137L3.72 13.5137H10.5C10.7652 13.5137 11.0196 13.4083 11.2071 13.2208C11.3946 13.0332 11.5 12.7789 11.5 12.5137V10.4837L14.21 12.4187C14.2846 12.4718 14.3724 12.5034 14.4638 12.5101C14.5552 12.5167 14.6466 12.4981 14.7281 12.4563C14.8096 12.4145 14.8781 12.3511 14.926 12.2731C14.974 12.195 14.9996 12.1053 15 12.0137V5.01367C15.0002 4.92186 14.9751 4.83176 14.9275 4.75327C14.8798 4.67477 14.8115 4.61091 14.73 4.56867ZM14 11.0437L11.29 9.10867C11.2154 9.05554 11.1276 9.02393 11.0362 9.01729C10.9448 9.01065 10.8534 9.02925 10.7719 9.07104C10.6904 9.11283 10.6219 9.17622 10.574 9.25427C10.526 9.33233 10.5004 9.42206 10.5 9.51367V12.5137H4.72L10.5 6.73367V7.51367C10.5004 7.60528 10.526 7.69501 10.574 7.77307C10.6219 7.85113 10.6904 7.91451 10.7719 7.95631C10.8534 7.9981 10.9448 8.01669 11.0362 8.01005C11.1276 8.00342 11.2154 7.97181 11.29 7.91867L14 5.98367V11.0437Z" fill="currentColor"/>
<path d="M2 12.5137V4.51367H10V3.51367H2C1.73478 3.51367 1.48043 3.61903 1.29289 3.80657C1.10536 3.9941 1 4.24846 1 4.51367V12.5137H2Z" fill="currentColor"/>
</svg>
