<svg viewBox="0 0 16 17" fill="none" xmlns="http://www.w3.org/2000/svg">
<rect width="16" height="16" transform="translate(0 0.513672)" fill="white" fill-opacity="0.01" style="mix-blend-mode:multiply"/>
<path d="M15.4698 8.34367C14.8817 6.8225 13.8608 5.50698 12.5332 4.55971C11.2056 3.61245 9.62953 3.07496 7.99979 3.01367C6.37005 3.07496 4.79398 3.61245 3.46639 4.55971C2.1388 5.50698 1.11787 6.8225 0.529787 8.34367C0.490071 8.45353 0.490071 8.57382 0.529787 8.68367C1.11787 10.2048 2.1388 11.5204 3.46639 12.4676C4.79398 13.4149 6.37005 13.9524 7.99979 14.0137C9.62953 13.9524 11.2056 13.4149 12.5332 12.4676C13.8608 11.5204 14.8817 10.2048 15.4698 8.68367C15.5095 8.57382 15.5095 8.45353 15.4698 8.34367ZM7.99979 13.0137C5.34979 13.0137 2.54979 11.0487 1.53479 8.51367C2.54979 5.97867 5.34979 4.01367 7.99979 4.01367C10.6498 4.01367 13.4498 5.97867 14.4648 8.51367C13.4498 11.0487 10.6498 13.0137 7.99979 13.0137Z" fill="currentColor"/>
<path d="M7.99979 5.51367C7.40644 5.51367 6.82642 5.68962 6.33308 6.01926C5.83973 6.34891 5.45521 6.81744 5.22815 7.36562C5.00109 7.9138 4.94168 8.517 5.05743 9.09894C5.17319 9.68089 5.45891 10.2154 5.87847 10.635C6.29802 11.0546 6.83257 11.3403 7.41452 11.456C7.99646 11.5718 8.59966 11.5124 9.14784 11.2853C9.69602 11.0582 10.1646 10.6737 10.4942 10.1804C10.8238 9.68704 10.9998 9.10702 10.9998 8.51367C10.9998 7.71802 10.6837 6.95496 10.1211 6.39235C9.5585 5.82974 8.79544 5.51367 7.99979 5.51367ZM7.99979 10.5137C7.60422 10.5137 7.21755 10.3964 6.88865 10.1766C6.55975 9.95685 6.3034 9.64449 6.15203 9.27904C6.00065 8.91359 5.96105 8.51145 6.03822 8.12349C6.11539 7.73553 6.30587 7.37916 6.58557 7.09946C6.86528 6.81975 7.22164 6.62927 7.60961 6.5521C7.99757 6.47493 8.3997 6.51454 8.76515 6.66591C9.13061 6.81729 9.44296 7.07363 9.66273 7.40253C9.88249 7.73143 9.99979 8.11811 9.99979 8.51367C9.99979 9.0441 9.78907 9.55281 9.414 9.92789C9.03893 10.303 8.53022 10.5137 7.99979 10.5137Z" fill="currentColor"/>
</svg>
