<svg viewBox="0 0 16 17" fill="none" xmlns="http://www.w3.org/2000/svg">
<rect width="16" height="16" transform="translate(0 0.513672)" fill="white" fill-opacity="0.01" style="mix-blend-mode:multiply"/>
<path d="M7.99979 10.5137C9.10436 10.5137 9.99979 9.61824 9.99979 8.51367C9.99979 7.4091 9.10436 6.51367 7.99979 6.51367C6.89522 6.51367 5.99979 7.4091 5.99979 8.51367C5.99979 9.61824 6.89522 10.5137 7.99979 10.5137Z" fill="currentColor"/>
<path d="M15.4698 8.34367C14.8817 6.8225 13.8608 5.50698 12.5332 4.55971C11.2056 3.61245 9.62953 3.07496 7.99979 3.01367C6.37005 3.07496 4.79398 3.61245 3.46639 4.55971C2.1388 5.50698 1.11787 6.8225 0.529787 8.34367C0.490071 8.45353 0.490071 8.57382 0.529787 8.68367C1.11787 10.2048 2.1388 11.5204 3.46639 12.4676C4.79398 13.4149 6.37005 13.9524 7.99979 14.0137C9.62953 13.9524 11.2056 13.4149 12.5332 12.4676C13.8608 11.5204 14.8817 10.2048 15.4698 8.68367C15.5095 8.57382 15.5095 8.45353 15.4698 8.34367ZM7.99979 11.7637C7.357 11.7637 6.72864 11.5731 6.19418 11.2159C5.65972 10.8588 5.24316 10.3513 4.99718 9.75739C4.75119 9.16353 4.68683 8.51007 4.81224 7.87963C4.93764 7.24919 5.24717 6.6701 5.70169 6.21557C6.15621 5.76105 6.73531 5.45152 7.36574 5.32612C7.99618 5.20072 8.64965 5.26508 9.24351 5.51106C9.83737 5.75705 10.3449 6.17361 10.7021 6.70807C11.0592 7.24253 11.2498 7.87088 11.2498 8.51367C11.2485 9.37522 10.9056 10.2011 10.2964 10.8103C9.68722 11.4195 8.86133 11.7623 7.99979 11.7637Z" fill="currentColor"/>
</svg>
