<svg viewBox="0 0 16 17" fill="none" xmlns="http://www.w3.org/2000/svg">
<rect width="16" height="16" transform="translate(0 0.513672)" fill="white" fill-opacity="0.01" style="mix-blend-mode:multiply"/>
<path d="M14 13.5137H2V14.5137H14V13.5137Z" fill="currentColor"/>
<path d="M14 10.0137H2V11.0137H14V10.0137Z" fill="currentColor"/>
<path d="M6 3.51367V6.51367H3V3.51367H6ZM6 2.51367H3C2.73478 2.51367 2.48043 2.61903 2.29289 2.80657C2.10536 2.9941 2 3.24846 2 3.51367V6.51367C2 6.77889 2.10536 7.03324 2.29289 7.22078C2.48043 7.40831 2.73478 7.51367 3 7.51367H6C6.26522 7.51367 6.51957 7.40831 6.70711 7.22078C6.89464 7.03324 7 6.77889 7 6.51367V3.51367C7 3.24846 6.89464 2.9941 6.70711 2.80657C6.51957 2.61903 6.26522 2.51367 6 2.51367Z" fill="currentColor"/>
<path d="M13 3.51367V6.51367H10V3.51367H13ZM13 2.51367H10C9.73478 2.51367 9.48043 2.61903 9.29289 2.80657C9.10536 2.9941 9 3.24846 9 3.51367V6.51367C9 6.77889 9.10536 7.03324 9.29289 7.22078C9.48043 7.40831 9.73478 7.51367 10 7.51367H13C13.2652 7.51367 13.5196 7.40831 13.7071 7.22078C13.8946 7.03324 14 6.77889 14 6.51367V3.51367C14 3.24846 13.8946 2.9941 13.7071 2.80657C13.5196 2.61903 13.2652 2.51367 13 2.51367Z" fill="currentColor"/>
</svg>
