<svg viewBox="0 0 16 17" fill="none" xmlns="http://www.w3.org/2000/svg">
<rect width="16" height="16" transform="translate(0 0.513672)" fill="white" fill-opacity="0.01" style="mix-blend-mode:multiply"/>
<path d="M2.61979 11.7687L3.33479 11.0587C2.5519 10.3557 1.93677 9.48602 1.53479 8.51367C2.54979 5.97867 5.34979 4.01367 7.99979 4.01367C8.68173 4.02267 9.3575 4.14431 9.99979 4.37367L10.7748 3.59367C9.89611 3.22233 8.95363 3.02535 7.99979 3.01367C6.37005 3.07496 4.79398 3.61245 3.46639 4.55971C2.1388 5.50698 1.11787 6.8225 0.529787 8.34367C0.490071 8.45353 0.490071 8.57382 0.529787 8.68367C0.973911 9.86218 1.69 10.9192 2.61979 11.7687Z" fill="currentColor"/>
<path d="M5.99979 8.37867C6.03456 7.89953 6.24063 7.44891 6.58033 7.10921C6.92003 6.76952 7.37064 6.56344 7.84979 6.52867L8.75479 5.61867C8.24767 5.48514 7.71441 5.48688 7.20817 5.6237C6.70193 5.76053 6.24039 6.02766 5.86958 6.39847C5.49877 6.76928 5.23164 7.23081 5.09482 7.73705C4.95799 8.24329 4.95626 8.77655 5.08979 9.28367L5.99979 8.37867Z" fill="currentColor"/>
<path d="M15.4698 8.34367C14.8965 6.85027 13.8988 5.55718 12.5998 4.62367L14.9998 2.21867L14.2948 1.51367L0.999787 14.8087L1.70479 15.5137L4.25479 12.9637C5.39173 13.6307 6.68181 13.9924 7.99979 14.0137C9.62953 13.9524 11.2056 13.4149 12.5332 12.4676C13.8608 11.5204 14.8817 10.2048 15.4698 8.68367C15.5095 8.57382 15.5095 8.45353 15.4698 8.34367ZM9.99979 8.51367C9.99768 8.86372 9.90374 9.20709 9.72734 9.50945C9.55094 9.81182 9.29828 10.0626 8.99459 10.2367C8.69091 10.4108 8.34684 10.5022 7.99678 10.5016C7.64673 10.5011 7.30294 10.4087 6.99979 10.2337L9.71979 7.51367C9.89954 7.81654 9.99613 8.1615 9.99979 8.51367ZM7.99979 13.0137C6.95082 12.9953 5.92173 12.7244 4.99979 12.2237L6.26979 10.9537C6.84746 11.3545 7.54756 11.5397 8.24785 11.4769C8.94815 11.4141 9.60415 11.1074 10.1013 10.6102C10.5985 10.113 10.9052 9.45704 10.968 8.75674C11.0308 8.05644 10.8456 7.35634 10.4448 6.77867L11.8798 5.34367C13.0271 6.13116 13.9243 7.23138 14.4648 8.51367C13.4498 11.0487 10.6498 13.0137 7.99979 13.0137Z" fill="currentColor"/>
</svg>
