<svg viewBox="0 0 16 16" fill="none" xmlns="http://www.w3.org/2000/svg">
<rect width="16" height="16" fill="white" fill-opacity="0.01" style="mix-blend-mode:multiply"/>
<path d="M11.4999 7.00047C12.0522 7.00047 12.4999 6.55276 12.4999 6.00047C12.4999 5.44819 12.0522 5.00047 11.4999 5.00047C10.9476 5.00047 10.4999 5.44819 10.4999 6.00047C10.4999 6.55276 10.9476 7.00047 11.4999 7.00047Z" fill="currentColor"/>
<path d="M13.9999 2.50047H8.11993C7.75328 2.03945 7.28934 1.66509 6.76125 1.40414C6.23315 1.1432 5.65394 1.00211 5.065 0.990952C4.47606 0.979797 3.89193 1.09885 3.35433 1.33962C2.81673 1.58038 2.33895 1.9369 1.95511 2.38372C1.57127 2.83053 1.29085 3.3566 1.13389 3.92435C0.976922 4.4921 0.947289 5.08751 1.0471 5.66804C1.14692 6.24856 1.37372 6.79988 1.71129 7.2826C2.04887 7.76532 2.4889 8.16752 2.99993 8.46047V13.5005C2.99993 13.7657 3.10529 14.02 3.29282 14.2076C3.48036 14.3951 3.73471 14.5005 3.99993 14.5005H13.9999C14.2651 14.5005 14.5195 14.3951 14.707 14.2076C14.8946 14.02 14.9999 13.7657 14.9999 13.5005V3.50047C14.9999 3.23526 14.8946 2.9809 14.707 2.79337C14.5195 2.60583 14.2651 2.50047 13.9999 2.50047ZM1.99993 5.00047C2.00109 4.34105 2.2195 3.70038 2.62135 3.17756C3.02321 2.65473 3.58614 2.27887 4.22307 2.10811C4.86 1.93735 5.53545 1.98121 6.14495 2.23289C6.75445 2.48458 7.26405 2.93007 7.59493 3.50047H3.99993V4.50047H7.95493C7.98253 4.66577 7.99757 4.83291 7.99993 5.00047C7.99757 5.16804 7.98253 5.33518 7.95493 5.50047H4.99993V6.50047H7.59493C7.26405 7.07088 6.75445 7.51637 6.14495 7.76806C5.53545 8.01974 4.86 8.0636 4.22307 7.89284C3.58614 7.72208 3.02321 7.34622 2.62135 6.82339C2.2195 6.30056 2.00109 5.6599 1.99993 5.00047ZM13.9999 13.5005H3.99993L6.49993 11.0005L7.29493 11.7955C7.48229 11.9817 7.73574 12.0863 7.99993 12.0863C8.26411 12.0863 8.51757 11.9817 8.70493 11.7955L11.4999 9.00047L13.9999 11.5005V13.5005ZM13.9999 10.0855L12.2049 8.29047C12.0176 8.10422 11.7641 7.99968 11.4999 7.99968C11.2357 7.99968 10.9823 8.10422 10.7949 8.29047L7.99993 11.0855L7.20493 10.2905C7.01757 10.1042 6.76411 9.99968 6.49993 9.99968C6.23574 9.99968 5.98229 10.1042 5.79493 10.2905L3.99993 12.0855V8.87047C4.32668 8.95459 4.66253 8.99825 4.99993 9.00047C6.06079 9.00047 7.07821 8.57905 7.82836 7.8289C8.5785 7.07876 8.99993 6.06134 8.99993 5.00047C9.00021 4.48603 8.9 3.97649 8.70493 3.50047H13.9999V10.0855Z" fill="currentColor"/>
</svg>
