<svg viewBox="0 0 16 17" fill="none" xmlns="http://www.w3.org/2000/svg">
<rect width="16" height="16" transform="translate(0 0.513672)" fill="white" fill-opacity="0.01" style="mix-blend-mode:multiply"/>
<path d="M15 9.01367V8.01367H8.5V6.01367H9.5C9.76512 6.01337 10.0193 5.90791 10.2068 5.72044C10.3942 5.53297 10.4997 5.27879 10.5 5.01367V2.51367C10.4997 2.24855 10.3942 1.99437 10.2068 1.8069C10.0193 1.61943 9.76512 1.51398 9.5 1.51367H6.5C6.23488 1.51398 5.9807 1.61943 5.79323 1.8069C5.60576 1.99437 5.5003 2.24855 5.5 2.51367V5.01367C5.5003 5.27879 5.60576 5.53297 5.79323 5.72044C5.9807 5.90791 6.23488 6.01337 6.5 6.01367H7.5V8.01367H1V9.01367H4V11.0137H3C2.73488 11.014 2.4807 11.1194 2.29323 11.3069C2.10576 11.4944 2.0003 11.7485 2 12.0137V14.5137C2.0003 14.7788 2.10576 15.033 2.29323 15.2204C2.4807 15.4079 2.73488 15.5134 3 15.5137H6C6.26512 15.5134 6.5193 15.4079 6.70677 15.2204C6.89424 15.033 6.9997 14.7788 7 14.5137V12.0137C6.9997 11.7485 6.89424 11.4944 6.70677 11.3069C6.5193 11.1194 6.26512 11.014 6 11.0137H5V9.01367H11V11.0137H10C9.73488 11.014 9.4807 11.1194 9.29323 11.3069C9.10576 11.4944 9.0003 11.7485 9 12.0137V14.5137C9.0003 14.7788 9.10576 15.033 9.29323 15.2204C9.4807 15.4079 9.73488 15.5134 10 15.5137H13C13.2651 15.5134 13.5193 15.4079 13.7068 15.2204C13.8942 15.033 13.9997 14.7788 14 14.5137V12.0137C13.9997 11.7485 13.8942 11.4944 13.7068 11.3069C13.5193 11.1194 13.2651 11.014 13 11.0137H12V9.01367H15ZM6.5 2.51367H9.5V5.01367H6.5V2.51367ZM6 14.5137H3V12.0137H6V14.5137ZM13 14.5137H10V12.0137H13V14.5137Z" fill="currentColor"/>
</svg>
