<svg viewBox="0 0 16 17" fill="none" xmlns="http://www.w3.org/2000/svg">
<rect width="16" height="16" transform="translate(0 0.513672)" fill="white" fill-opacity="0.01" style="mix-blend-mode:multiply"/>
<path d="M12.0002 5.51367C11.4216 5.51484 10.8557 5.68331 10.3706 5.99878C9.88558 6.31425 9.50211 6.76326 9.26643 7.29169C9.03075 7.82013 8.95291 8.40545 9.04229 8.97711C9.13168 9.54878 9.38448 10.0824 9.77022 10.5137H6.23022C6.68832 10.0015 6.95671 9.34757 6.99051 8.66124C7.02431 7.97491 6.82147 7.29778 6.41591 6.74307C6.01035 6.18836 5.42664 5.78969 4.7624 5.61371C4.09815 5.43774 3.39363 5.49514 2.76662 5.77631C2.13962 6.05748 1.62815 6.54537 1.31772 7.15841C1.00729 7.77146 0.916728 8.47249 1.06117 9.1443C1.20562 9.8161 1.57632 10.418 2.11128 10.8492C2.64625 11.2805 3.31306 11.5151 4.00022 11.5137H12.0002C12.7959 11.5137 13.5589 11.1976 14.1215 10.635C14.6841 10.0724 15.0002 9.30932 15.0002 8.51367C15.0002 7.71802 14.6841 6.95496 14.1215 6.39235C13.5589 5.82974 12.7959 5.51367 12.0002 5.51367ZM2.00022 8.51367C2.00022 8.11811 2.11752 7.73143 2.33728 7.40253C2.55704 7.07363 2.8694 6.81729 3.23485 6.66591C3.6003 6.51454 4.00244 6.47493 4.3904 6.5521C4.77836 6.62927 5.13473 6.81975 5.41443 7.09946C5.69414 7.37916 5.88462 7.73553 5.96179 8.12349C6.03896 8.51145 5.99935 8.91359 5.84798 9.27904C5.6966 9.64449 5.44026 9.95685 5.11136 10.1766C4.78246 10.3964 4.39578 10.5137 4.00022 10.5137C3.46978 10.5137 2.96108 10.303 2.586 9.92789C2.21093 9.55281 2.00022 9.04411 2.00022 8.51367ZM12.0002 10.5137C11.6047 10.5137 11.218 10.3964 10.8891 10.1766C10.5602 9.95685 10.3038 9.64449 10.1525 9.27904C10.0011 8.91359 9.96148 8.51145 10.0386 8.12349C10.1158 7.73553 10.3063 7.37916 10.586 7.09946C10.8657 6.81975 11.2221 6.62927 11.61 6.5521C11.998 6.47493 12.4001 6.51454 12.7656 6.66591C13.131 6.81729 13.4434 7.07363 13.6632 7.40253C13.8829 7.73143 14.0002 8.11811 14.0002 8.51367C14.0002 9.04411 13.7895 9.55281 13.4144 9.92789C13.0394 10.303 12.5307 10.5137 12.0002 10.5137Z" fill="currentColor"/>
</svg>
