<svg viewBox="0 0 16 16" fill="none" xmlns="http://www.w3.org/2000/svg">
<rect width="16" height="16" fill="white" fill-opacity="0.01" style="mix-blend-mode:multiply"/>
<path d="M15.5 6.20528L14.795 5.50028L13 7.29528L11.205 5.50028L10.5 6.20528L12.295 8.00028L10.5 9.79528L11.205 10.5003L13 8.70528L14.795 10.5003L15.5 9.79528L13.705 8.00028L15.5 6.20528Z" fill="currentColor"/>
<path d="M9 15.0003C8.93385 15 8.86841 14.9866 8.80747 14.9609C8.74653 14.9351 8.69131 14.8975 8.645 14.8503L4.835 11.0003H1.5C1.36739 11.0003 1.24021 10.9476 1.14645 10.8538C1.05268 10.7601 1 10.6329 1 10.5003V5.50028C1 5.36767 1.05268 5.24049 1.14645 5.14673C1.24021 5.05296 1.36739 5.00028 1.5 5.00028H4.835L8.645 1.15028C8.73868 1.05715 8.86541 1.00488 8.9975 1.00488C9.12959 1.00488 9.25632 1.05715 9.35 1.15028C9.44421 1.24259 9.49812 1.36839 9.5 1.50028V14.5003C9.5 14.6329 9.44732 14.7601 9.35355 14.8538C9.25979 14.9476 9.13261 15.0003 9 15.0003Z" fill="currentColor"/>
</svg>
