<svg viewBox="0 0 16 16" fill="none" xmlns="http://www.w3.org/2000/svg">
<rect width="16" height="16" fill="white" fill-opacity="0.01" style="mix-blend-mode:multiply"/>
<path d="M16 7.49995H14V5.49995H13V7.49995H11V8.49995H13V10.5H14V8.49995H16V7.49995Z" fill="currentColor"/>
<path d="M9 15C8.93387 15 8.86838 14.9869 8.80736 14.9614C8.74633 14.936 8.69099 14.8986 8.64455 14.8515L4.833 11H1.5C1.43438 11 1.36939 10.9871 1.30874 10.962C1.2481 10.937 1.19299 10.9002 1.14656 10.8538C1.10013 10.8074 1.06329 10.7524 1.03814 10.6918C1.01299 10.6312 1.00003 10.5662 1 10.5006V5.49995C0.999954 5.43433 1.01284 5.36934 1.03791 5.3087C1.06298 5.24805 1.09976 5.19294 1.14613 5.14651C1.19251 5.10008 1.24757 5.06324 1.30819 5.03809C1.3688 5.01295 1.43378 4.99999 1.4994 4.99995H4.833L8.6445 1.1484C8.7142 1.07793 8.80328 1.02976 8.90041 1.01002C8.99755 0.990276 9.09836 0.99985 9.19004 1.03753C9.28173 1.0752 9.36014 1.13928 9.41533 1.22161C9.47052 1.30395 9.49999 1.40083 9.5 1.49995V14.5C9.49991 14.6325 9.4472 14.7597 9.35345 14.8534C9.2597 14.9472 9.13258 14.9999 9 15Z" fill="currentColor"/>
</svg>
