<svg viewBox="0 0 16 17" fill="none" xmlns="http://www.w3.org/2000/svg">
<rect width="16" height="16" transform="translate(0 0.513672)" fill="white" fill-opacity="0.01" style="mix-blend-mode:multiply"/>
<path d="M15 8.01367C15.001 7.513 14.8767 7.02003 14.6384 6.57971C14.4001 6.13938 14.0554 5.7657 13.6357 5.49272C13.2159 5.21975 12.7346 5.05616 12.2355 5.01686C11.7363 4.97757 11.2353 5.06382 10.778 5.26776C10.3208 5.4717 9.92183 5.78683 9.61756 6.18444C9.31328 6.58205 9.11336 7.0495 9.03602 7.54416C8.95867 8.03883 9.00636 8.54498 9.17474 9.0165C9.34311 9.48801 9.62682 9.90989 10 10.2437V15.0137L12 14.0718L14 15.0137V10.2437C14.3143 9.96336 14.5659 9.61981 14.7382 9.23551C14.9106 8.85121 14.9998 8.43484 15 8.01367ZM13 13.4375L12 12.9668L11 13.4375V10.8387C11.6462 11.0721 12.3538 11.0721 13 10.8387V13.4375ZM12 10.0137C11.6044 10.0137 11.2178 9.89637 10.8889 9.67661C10.56 9.45685 10.3036 9.14449 10.1522 8.77904C10.0009 8.41359 9.96126 8.01145 10.0384 7.62349C10.1156 7.23553 10.3061 6.87916 10.5858 6.59946C10.8655 6.31975 11.2219 6.12927 11.6098 6.0521C11.9978 5.97493 12.3999 6.01454 12.7654 6.16591C13.1308 6.31729 13.4432 6.57363 13.6629 6.90253C13.8827 7.23143 14 7.61811 14 8.01367C13.9994 8.54392 13.7885 9.05228 13.4136 9.42723C13.0386 9.80217 12.5303 10.0131 12 10.0137Z" fill="currentColor"/>
<path d="M7 1.51367C6.20462 1.51455 5.44206 1.8309 4.87964 2.39332C4.31722 2.95574 4.00087 3.71829 4 4.51367V7.51367H3C2.73488 7.51398 2.4807 7.61943 2.29323 7.8069C2.10576 7.99437 2.0003 8.24855 2 8.51367V14.5137C2.0003 14.7788 2.10576 15.033 2.29323 15.2204C2.4807 15.4079 2.73488 15.5134 3 15.5137H8.5V14.5137H3V8.51367H7.5V7.51367H5V4.51367C4.9994 4.01766 5.18314 3.53912 5.51555 3.17096C5.84795 2.8028 6.3053 2.5713 6.7988 2.52141C7.2923 2.47151 7.78674 2.60677 8.18611 2.90094C8.58548 3.1951 8.8613 3.62718 8.96 4.11327L9.94 3.91407C9.80031 3.2371 9.43176 2.62888 8.89632 2.19172C8.36088 1.75455 7.69123 1.51512 7 1.51367Z" fill="currentColor"/>
</svg>
