<svg viewBox="0 0 16 16" fill="none" xmlns="http://www.w3.org/2000/svg">
<rect width="16" height="16" fill="white" fill-opacity="0.01" style="mix-blend-mode:multiply"/>
<path d="M8.00003 10C7.58583 10 7.25003 10.3358 7.25003 10.75C7.25003 11.1642 7.58583 11.5 8.00003 11.5C8.41423 11.5 8.75003 11.1642 8.75003 10.75C8.75003 10.3358 8.41423 10 8.00003 10Z" fill="currentColor"/>
<path d="M8.50003 4.50002H7.50003V9.00002H8.50003V4.50002Z" fill="currentColor"/>
<path d="M8.00002 15C7.73327 15 7.46642 14.8985 7.26342 14.6953L1.30472 8.73662C0.898425 8.33047 0.898425 7.66952 1.30472 7.26337L7.26342 1.30472C7.66947 0.898425 8.33063 0.898425 8.73668 1.30472L14.6953 7.26337C15.1016 7.66952 15.1016 8.33047 14.6953 8.73662L8.73668 14.6953C8.53368 14.8984 8.26672 15 8.00002 15ZM8.00002 1.99963C7.98927 1.99963 7.97867 2.00378 7.97047 2.01183L2.01183 7.97047C1.99558 7.98682 1.99558 8.01322 2.01183 8.02957L7.97047 13.9882C7.98682 14.0043 8.01322 14.0043 8.02957 13.9882L13.9882 8.02957C14.0045 8.01322 14.0045 7.98682 13.9882 7.97047L8.02957 2.01183C8.02137 2.00378 8.01077 1.99963 8.00002 1.99963Z" fill="currentColor"/>
</svg>
