<svg viewBox="0 0 16 17" fill="none" xmlns="http://www.w3.org/2000/svg">
<rect width="16" height="16" transform="translate(0 0.513672)" fill="white" fill-opacity="0.01" style="mix-blend-mode:multiply"/>
<path d="M11 15.5137H8.5C7.57206 15.5126 6.68242 15.1436 6.02627 14.4874C5.37011 13.8313 5.00103 12.9416 5 12.0137C5.01269 11.1276 5.37678 10.2829 6.0122 9.66532C5.68588 9.5644 5.34621 9.51328 5.00465 9.51367C2.52125 9.53697 2 12.7893 2 15.5137H1C1 9.75902 3.1726 8.53077 4.99535 8.51367C5.77494 8.52399 6.54148 8.71517 7.2346 9.07217C7.31201 9.11336 7.37723 9.17418 7.42371 9.24853C7.4702 9.32289 7.49631 9.40816 7.49943 9.49579C7.50255 9.58342 7.48257 9.67033 7.44149 9.74781C7.40042 9.82528 7.33969 9.89058 7.2654 9.93717C6.7858 10.2 6.40844 10.6163 6.19396 11.1194C5.97947 11.6224 5.9403 12.183 6.08274 12.711C6.22518 13.239 6.54096 13.7038 6.97935 14.0307C7.41774 14.3577 7.9533 14.5278 8.5 14.5137H11V15.5137Z" fill="currentColor"/>
<path d="M9.5 4.51367H8.5V8.51367H9.5V4.51367Z" fill="currentColor"/>
<path d="M14 3.22072L13.2929 2.51367L12.1621 3.64452C11.4033 3.02141 10.477 2.63678 9.5 2.53907V1.51367H8.5V2.53907C7.26732 2.66444 6.12492 3.24245 5.29372 4.16132C4.46251 5.08019 4.00156 6.27463 4 7.51367H5C5 6.72255 5.2346 5.94919 5.67412 5.29139C6.11365 4.63359 6.73836 4.1209 7.46927 3.81815C8.20017 3.5154 9.00444 3.43619 9.78036 3.59053C10.5563 3.74487 11.269 4.12583 11.8284 4.68524C12.3878 5.24465 12.7688 5.95739 12.9231 6.73331C13.0775 7.50923 12.9983 8.3135 12.6955 9.04441C12.3928 9.77531 11.8801 10.4 11.2223 10.8396C10.5645 11.2791 9.79113 11.5137 9 11.5137V12.5137C9.94633 12.5144 10.8734 12.2463 11.6733 11.7406C12.4732 11.235 13.1131 10.5126 13.5184 9.65747C13.9238 8.80236 14.078 7.84971 13.963 6.91039C13.8481 5.97107 13.4687 5.08371 12.8692 4.35157L14 3.22072Z" fill="currentColor"/>
</svg>
