<svg viewBox="0 0 16 17" fill="none" xmlns="http://www.w3.org/2000/svg">
<rect width="16" height="16" transform="translate(0 0.513672)" fill="white" fill-opacity="0.01" style="mix-blend-mode:multiply"/>
<path d="M15 1.51367H12V2.51367H15V1.51367Z" fill="currentColor"/>
<path d="M14 4.51367H12V5.51367H14V4.51367Z" fill="currentColor"/>
<path d="M15 7.51367H12V8.51367H15V7.51367Z" fill="currentColor"/>
<path d="M14 10.5137H12V11.5137H14V10.5137Z" fill="currentColor"/>
<path d="M15 14.5137H12C11.0011 14.5102 10.026 14.2087 9.19956 13.6477C8.37309 13.0867 7.73287 12.2918 7.36088 11.3648C6.98889 10.4378 6.90207 9.4208 7.11152 8.44413C7.32098 7.46746 7.81719 6.57554 8.5366 5.88257C7.88333 5.64183 7.19305 5.51699 6.49685 5.51367C5.88807 5.50742 5.28847 5.66231 4.75889 5.96263C4.22931 6.26295 3.78859 6.69801 3.48145 7.22367C2.4983 8.73107 2 11.1837 2 14.5137H1C1 10.9866 1.553 8.34997 2.64355 6.67737C3.04199 6.01257 3.60705 5.46327 4.28285 5.08379C4.95866 4.70431 5.72181 4.5078 6.49685 4.51367H6.50025C7.62378 4.52961 8.72885 4.80187 9.7312 5.30967C9.80845 5.34996 9.87382 5.40974 9.92085 5.48308C9.96788 5.55642 9.99493 5.64078 9.99932 5.72779C10.0037 5.8148 9.98529 5.90145 9.94588 5.97915C9.90648 6.05685 9.84745 6.12291 9.77465 6.17077C9.06176 6.64977 8.52139 7.34488 8.23298 8.15387C7.94458 8.96286 7.92337 9.84305 8.17247 10.665C8.42157 11.4869 8.92783 12.2073 9.61682 12.72C10.3058 13.2328 11.1411 13.511 12 13.5137H15V14.5137Z" fill="currentColor"/>
</svg>
