<svg viewBox="0 0 16 17" fill="none" xmlns="http://www.w3.org/2000/svg">
<rect width="16" height="16" transform="translate(0 0.513672)" fill="white" fill-opacity="0.01" style="mix-blend-mode:multiply"/>
<path d="M8.5 14.5138V9.01383H9C9.26512 9.01353 9.5193 8.90807 9.70677 8.7206C9.89424 8.53313 9.9997 8.27895 10 8.01383V6.01383C9.9997 5.74871 9.89424 5.49453 9.70677 5.30706C9.5193 5.11959 9.26512 5.01414 9 5.01383H7C6.73488 5.01414 6.4807 5.11959 6.29323 5.30706C6.10576 5.49453 6.0003 5.74871 6 6.01383V8.01383C6.0003 8.27895 6.10576 8.53313 6.29323 8.7206C6.4807 8.90807 6.73488 9.01353 7 9.01383H7.5V14.5138H1V15.5138H15V14.5138H8.5ZM7 6.01383H9L9.00075 8.01383H7V6.01383Z" fill="currentColor"/>
<path d="M4.66625 9.62223C4.29933 9.29391 4.0058 8.89188 3.80484 8.44239C3.60388 7.9929 3.50001 7.50607 3.50001 7.01371C3.50001 6.52134 3.60388 6.03451 3.80484 5.58502C4.0058 5.13554 4.29933 4.7335 4.66625 4.40518L5.33325 5.15018C5.07107 5.38468 4.86132 5.67186 4.71771 5.99296C4.57411 6.31406 4.49988 6.66185 4.49988 7.01361C4.49988 7.36536 4.57411 7.71315 4.71771 8.03425C4.86132 8.35535 5.07107 8.64254 5.33325 8.87703L4.66625 9.62223Z" fill="currentColor"/>
<path d="M11.3335 9.62223L10.6665 8.87723C10.9287 8.64276 11.1385 8.35558 11.2821 8.03448C11.4258 7.71337 11.5 7.36557 11.5 7.01381C11.5 6.66204 11.4258 6.31424 11.2821 5.99314C11.1385 5.67203 10.9287 5.38485 10.6665 5.15038L11.3335 4.40538C11.7005 4.73367 11.994 5.1357 12.195 5.58519C12.396 6.03468 12.4999 6.52152 12.4999 7.01391C12.4999 7.50629 12.396 7.99313 12.195 8.44262C11.994 8.89212 11.7005 9.29394 11.3335 9.62223Z" fill="currentColor"/>
<path d="M3.1997 11.4142C2.51674 10.9018 1.96243 10.2374 1.58066 9.47373C1.19889 8.71001 1.00013 7.8679 1.00013 7.01408C1.00013 6.16026 1.19889 5.31815 1.58066 4.55444C1.96243 3.79072 2.51674 3.12635 3.1997 2.61393L3.8 3.41383C3.24107 3.83304 2.78741 4.37662 2.47495 5.00153C2.1625 5.62644 1.99983 6.31551 1.99983 7.01418C1.99983 7.71285 2.1625 8.40193 2.47495 9.02684C2.78741 9.65175 3.24107 10.1953 3.8 10.6145L3.1997 11.4142Z" fill="currentColor"/>
<path d="M12.8003 11.4142L12.1997 10.6142C12.7587 10.195 13.2124 9.65143 13.5248 9.0265C13.8373 8.40156 14 7.71246 14 7.01376C14 6.31505 13.8373 5.62595 13.5248 5.00102C13.2124 4.37608 12.7587 3.83249 12.1997 3.41328L12.8003 2.61328C13.4833 3.1257 14.0376 3.79008 14.4194 4.55383C14.8012 5.31757 15 6.1597 15 7.01356C15 7.86741 14.8012 8.70954 14.4194 9.47329C14.0376 10.237 13.4833 10.9018 12.8003 11.4142Z" fill="currentColor"/>
</svg>
