<svg viewBox="0 0 16 17" fill="none" xmlns="http://www.w3.org/2000/svg">
<rect width="16" height="16" transform="translate(0 0.513672)" fill="white" fill-opacity="0.01" style="mix-blend-mode:multiply"/>
<path d="M14.0828 1.51367C12.6575 1.51607 11.2723 1.98583 10.1396 2.85095C9.00687 3.71607 8.18914 4.9288 7.81175 6.30322L7.2234 8.46092C6.90414 9.62392 6.21225 10.6501 5.25381 11.3822C4.29536 12.1142 3.12327 12.5117 1.91725 12.5137H1V13.5137H1.91725C2.066 13.5137 2.21315 13.5051 2.3599 13.4951L6.32445 14.9819C6.4001 15.0103 6.4815 15.0199 6.56168 15.0099C6.64186 15 6.71843 14.9707 6.78484 14.9247C6.85124 14.8787 6.9055 14.8172 6.94297 14.7456C6.98045 14.6741 7.00001 14.5945 7 14.5137V11.0598C7.16541 10.8506 7.31772 10.6314 7.45605 10.4033L10.6375 9.49437C10.7167 9.47173 10.7891 9.42986 10.8482 9.37249C10.9073 9.31512 10.9514 9.24403 10.9764 9.16553C11.0014 9.08704 11.0067 9.00357 10.9917 8.92256C10.9767 8.84154 10.9419 8.7655 10.8904 8.70117L8.89215 6.20367C9.03642 5.79084 9.22974 5.39682 9.46795 5.03007L12.3418 5.98807C12.417 6.01314 12.497 6.01999 12.5754 6.00805C12.6537 5.9961 12.7281 5.96571 12.7924 5.91938C12.8566 5.87305 12.909 5.8121 12.9451 5.74156C12.9812 5.67102 13 5.59291 13 5.51367V2.62622C13.3563 2.55265 13.719 2.51494 14.0828 2.51367H15V1.51367H14.0828ZM4.1677 13.105C4.83106 12.8586 5.44991 12.5059 6 12.0608V13.792L4.1677 13.105ZM8.0377 9.19727C8.09305 9.04202 8.1445 8.88477 8.18835 8.72412L8.55435 7.38182L9.64 8.73927L8.0377 9.19727ZM12 4.81982L10.1294 4.19632C10.6592 3.64976 11.296 3.21833 12 2.92897V4.81982Z" fill="currentColor"/>
<path d="M5 2.51367V4.80667L1.707 1.51367L1 2.22067L4.293 5.51367H2V6.51367H6V2.51367H5Z" fill="currentColor"/>
</svg>
