<svg viewBox="0 0 16 17" fill="none" xmlns="http://www.w3.org/2000/svg">
<rect width="16" height="16" transform="translate(0 0.513672)" fill="white" fill-opacity="0.01" style="mix-blend-mode:multiply"/>
<path d="M14.0828 1.51367C12.5416 1.51607 11.0515 2.06664 9.87905 3.06692C9.66518 2.86201 9.40841 2.70724 9.12734 2.6138C8.84627 2.52037 8.54795 2.49061 8.25396 2.52669C7.95998 2.56277 7.6777 2.66379 7.42756 2.82241C7.17743 2.98104 6.96571 3.19331 6.80773 3.44386C6.64976 3.6944 6.54948 3.97694 6.51416 4.27102C6.47885 4.5651 6.50938 4.86335 6.60354 5.14417C6.69771 5.42499 6.85315 5.68136 7.05862 5.8947C7.26408 6.10804 7.51442 6.27301 7.7915 6.37767L7.2234 8.46092C7.18715 8.59377 7.14445 8.72362 7.09895 8.85182C6.69386 8.58172 6.20391 8.46922 5.72157 8.53557C5.23923 8.60192 4.79786 8.84253 4.48074 9.21198C4.16363 9.58142 3.99271 10.0542 4.00023 10.541C4.00776 11.0278 4.19321 11.4951 4.5216 11.8545C3.72167 12.287 2.82663 12.5136 1.91725 12.5137H1V13.5137H1.91725C2.066 13.5137 2.21315 13.5051 2.3599 13.4951L6.32445 14.9819C6.4001 15.0103 6.4815 15.0199 6.56168 15.0099C6.64186 15 6.71843 14.9707 6.78484 14.9247C6.85124 14.8787 6.9055 14.8172 6.94297 14.7456C6.98045 14.6741 7.00001 14.5945 7 14.5137V11.0598C7.16541 10.8506 7.31772 10.6314 7.45605 10.4033L10.6375 9.49437C10.7167 9.47173 10.7891 9.42986 10.8482 9.37249C10.9073 9.31512 10.9514 9.24403 10.9764 9.16553C11.0014 9.08704 11.0067 9.00357 10.9917 8.92256C10.9767 8.84154 10.9419 8.7655 10.8904 8.70117L8.89215 6.20367C9.03642 5.79084 9.22974 5.39682 9.46795 5.03007L12.3418 5.98807C12.417 6.01314 12.497 6.01999 12.5754 6.00805C12.6537 5.9961 12.7281 5.96571 12.7924 5.91938C12.8566 5.87305 12.909 5.8121 12.9451 5.74156C12.9812 5.67102 13 5.59291 13 5.51367V2.62622C13.3563 2.55265 13.719 2.51494 14.0828 2.51367H15V1.51367H14.0828ZM8.5 3.51367C8.74587 3.51675 8.9818 3.61121 9.16185 3.77867C8.73237 4.27562 8.38107 4.83507 8.12 5.43777C7.90571 5.34991 7.72858 5.19036 7.6189 4.98638C7.50921 4.78239 7.47378 4.54665 7.51865 4.31944C7.56353 4.09222 7.68592 3.88765 7.86492 3.74068C8.04391 3.59371 8.2684 3.51347 8.5 3.51367ZM5 10.5137C4.99882 10.3199 5.05432 10.13 5.15965 9.96734C5.26499 9.80468 5.41558 9.67637 5.59289 9.59818C5.7702 9.51999 5.9665 9.49534 6.15764 9.52726C6.34877 9.55917 6.52641 9.64627 6.6687 9.77782C6.33112 10.3549 5.8913 10.8657 5.37075 11.2852C5.25564 11.1921 5.16266 11.0746 5.09854 10.9412C5.03442 10.8077 5.00076 10.6617 5 10.5137ZM4.1677 13.105C4.83106 12.8586 5.44991 12.5059 6 12.0608V13.792L4.1677 13.105ZM8.0377 9.19727C8.09305 9.04202 8.1445 8.88477 8.18835 8.72412L8.55435 7.38182L9.64 8.73927L8.0377 9.19727ZM12 4.81982L10.1294 4.19632C10.6592 3.64976 11.296 3.21833 12 2.92897V4.81982Z" fill="currentColor"/>
<path d="M11 11.5137V12.5137H13.293L11 14.8067L11.707 15.5137L14 13.2207V15.5137H15V11.5137H11Z" fill="currentColor"/>
<path d="M1 1.51367V2.51367H3.293L1 4.80667L1.707 5.51367L4 3.22067V5.51367H5V1.51367H1Z" fill="currentColor"/>
</svg>
