<svg viewBox="0 0 16 17" fill="none" xmlns="http://www.w3.org/2000/svg">
<rect width="16" height="16" transform="translate(0 0.513672)" fill="white" fill-opacity="0.01" style="mix-blend-mode:multiply"/>
<path d="M14.0828 1.51367C12.6575 1.51607 11.2723 1.98583 10.1396 2.85095C9.00687 3.71607 8.18914 4.9288 7.81175 6.30322L7.2234 8.46092C6.90414 9.62392 6.21225 10.6501 5.25381 11.3822C4.29536 12.1142 3.12327 12.5117 1.91725 12.5137H1V13.5137H1.91725C2.50363 13.5125 3.08711 13.4314 3.6516 13.2727C3.7632 13.5449 3.93351 13.7892 4.15037 13.988C4.36724 14.1868 4.62531 14.3352 4.90618 14.4228C5.18704 14.5104 5.48377 14.5349 5.77519 14.4945C6.06661 14.4542 6.34554 14.35 6.59206 14.1895C6.83858 14.0289 7.04663 13.8159 7.20135 13.5657C7.35607 13.3155 7.45364 13.0342 7.48712 12.7419C7.52059 12.4496 7.48913 12.1535 7.39499 11.8748C7.30085 11.5961 7.14634 11.3416 6.9425 11.1294C7.26065 10.7411 7.53263 10.3171 7.75295 9.86597C8.00876 9.96955 8.28327 10.019 8.55914 10.0112C8.83502 10.0033 9.10628 9.93843 9.35581 9.82052C9.60534 9.7026 9.82773 9.53425 10.0089 9.32608C10.1901 9.11792 10.3262 8.87445 10.4086 8.61105C10.491 8.34765 10.5179 8.07003 10.4877 7.79571C10.4574 7.52139 10.3706 7.25632 10.2328 7.01722C10.0949 6.77812 9.909 6.57019 9.68676 6.40655C9.46453 6.2429 9.21079 6.12709 8.94155 6.06642C9.14729 5.5221 9.4385 5.01406 9.8042 4.56142C10.0733 5.00687 10.5061 5.32925 11.01 5.45956C11.5138 5.58986 12.0487 5.51774 12.5 5.25861C12.9513 4.99949 13.2833 4.57397 13.4248 4.07315C13.5663 3.57233 13.5061 3.03602 13.2571 2.57902C13.5303 2.53641 13.8063 2.51456 14.0828 2.51367H15V1.51367H14.0828ZM5.5 13.5137C5.30911 13.5132 5.12234 13.4581 4.9618 13.3548C4.80125 13.2516 4.67365 13.1044 4.5941 12.9309C5.19442 12.6589 5.75018 12.2977 6.24255 11.8596C6.37216 12.002 6.45736 12.1792 6.4877 12.3693C6.51804 12.5595 6.49219 12.7543 6.41333 12.93C6.33447 13.1057 6.20603 13.2545 6.04378 13.3582C5.88153 13.4618 5.69254 13.5159 5.5 13.5137ZM9.5 8.01367C9.50061 8.178 9.46056 8.33993 9.38342 8.48504C9.30628 8.63014 9.19445 8.75391 9.05788 8.84532C8.92132 8.93672 8.76426 8.99293 8.60071 9.00893C8.43716 9.02493 8.27219 9.00023 8.1205 8.93702C8.1426 8.86572 8.16845 8.79637 8.18825 8.72412L8.6505 7.02867C8.8864 7.06433 9.10175 7.18326 9.25757 7.36393C9.41339 7.54461 9.49938 7.77509 9.5 8.01367ZM12.5 3.51367C12.5007 3.75281 12.4154 3.98423 12.2597 4.16575C12.1041 4.34727 11.8883 4.46678 11.6519 4.50251C11.4154 4.53823 11.174 4.48779 10.9716 4.36037C10.7693 4.23295 10.6194 4.03704 10.5494 3.80837C11.0483 3.38865 11.6174 3.0605 12.2306 2.83912C12.402 3.02212 12.4982 3.26296 12.5 3.51367Z" fill="currentColor"/>
<path d="M5 2.51367V4.80667L1.707 1.51367L1 2.22067L4.293 5.51367H2V6.51367H6V2.51367H5Z" fill="currentColor"/>
</svg>
