<svg viewBox="0 0 16 17" fill="none" xmlns="http://www.w3.org/2000/svg">
<g clip-path="url(#clip0_1961_11050)">
<rect width="16" height="16" transform="translate(0 0.513672)" fill="white" fill-opacity="0.01" style="mix-blend-mode:multiply"/>
<path d="M11.2523 6.33202L8.25815 4.58202C8.17845 4.53537 8.0891 4.51267 7.99995 4.51367C7.915 4.51467 7.83025 4.53737 7.7542 4.58152L4.74835 6.33152C4.59455 6.42112 4.49995 6.58567 4.49995 6.76367V10.2637C4.49995 10.4417 4.59455 10.6062 4.74835 10.6958L7.7542 12.4458C7.83195 12.491 7.913 12.5137 7.99995 12.5137C8.0871 12.5137 8.18015 12.491 8.25815 12.4453L11.2523 10.6953C11.4058 10.6057 11.5 10.4414 11.5 10.2637V6.76367C11.5 6.58592 11.4058 6.42162 11.2523 6.33202ZM8.00535 5.59252L10.0091 6.76367L8.00535 7.93482L5.99375 6.76367L8.00535 5.59252ZM5.5 7.63327L7.5 8.79782V11.1406L5.5 9.97602V7.63327ZM8.5 11.1457V8.80392L10.5 7.63497V9.97677L8.5 11.1457Z" fill="currentColor"/>
<path d="M8 1.01367C7.91295 1.01367 7.82595 1.03637 7.74805 1.08177L1.74805 4.58177C1.5945 4.67137 1.5 4.83582 1.5 5.01367V12.0137C1.5 12.1915 1.5945 12.356 1.74805 12.4456L7.74805 15.9456C7.82595 15.991 7.91295 16.0137 8 16.0137C8.08705 16.0137 8.17405 15.991 8.25195 15.9456L13.752 12.7373L13.248 11.8735L8 14.9349L2.5 11.7266V5.30092L8 2.09252L13.5 5.30082V9.01367H14.5V5.01367C14.5 4.83582 14.4055 4.67137 14.252 4.58177L8.25195 1.08177C8.17405 1.03637 8.08705 1.01367 8 1.01367Z" fill="currentColor"/>
</g>
<defs>
<clipPath id="clip0_1961_11050">
<rect width="16" height="16" fill="white" transform="translate(0 0.513672)"/>
</clipPath>
</defs>
</svg>
