<svg viewBox="0 0 16 17" fill="none" xmlns="http://www.w3.org/2000/svg">
<g clip-path="url(#clip0_1961_11052)">
<rect width="16" height="16" transform="translate(0 0.513672)" fill="white" fill-opacity="0.01" style="mix-blend-mode:multiply"/>
<path d="M11.5 9.51367H10.5V6.01367H7V5.01367H11C11.2761 5.01367 11.5 5.23757 11.5 5.51367V9.51367Z" fill="currentColor"/>
<path d="M9 12.0137H5C4.7239 12.0137 4.5 11.7898 4.5 11.5137V7.51367C4.5 7.23757 4.7239 7.01367 5 7.01367H9C9.2761 7.01367 9.5 7.23757 9.5 7.51367V11.5137C9.5 11.7898 9.2761 12.0137 9 12.0137ZM5.5 11.0137H8.5V8.01367H5.5V11.0137Z" fill="currentColor"/>
<path d="M8 1.01367C7.91295 1.01367 7.82595 1.03637 7.74805 1.08177L1.74805 4.58177C1.5945 4.67137 1.5 4.83582 1.5 5.01367V12.0137C1.5 12.1915 1.5945 12.356 1.74805 12.4456L7.74805 15.9456C7.82595 15.991 7.91295 16.0137 8 16.0137C8.08705 16.0137 8.17405 15.991 8.25195 15.9456L13.752 12.7373L13.248 11.8735L8 14.9349L2.5 11.7266V5.30092L8 2.09252L13.5 5.30082V9.01367H14.5V5.01367C14.5 4.83582 14.4055 4.67137 14.252 4.58177L8.25195 1.08177C8.17405 1.03637 8.08705 1.01367 8 1.01367Z" fill="currentColor"/>
</g>
<defs>
<clipPath id="clip0_1961_11052">
<rect width="16" height="16" fill="white" transform="translate(0 0.513672)"/>
</clipPath>
</defs>
</svg>
