<svg viewBox="0 0 16 17" fill="none" xmlns="http://www.w3.org/2000/svg">
<rect width="16" height="16" transform="translate(0 0.513672)" fill="white" fill-opacity="0.01" style="mix-blend-mode:multiply"/>
<path d="M12.0002 13.5133C12.2755 13.5144 12.5457 13.4398 12.7814 13.2975C13.017 13.1553 13.209 12.951 13.3363 12.7069C13.4636 12.4628 13.5212 12.1885 13.5029 11.9138C13.4847 11.6392 13.3912 11.3748 13.2327 11.1498C13.0743 10.9247 12.8569 10.7476 12.6045 10.6378C12.3521 10.528 12.0744 10.4898 11.8017 10.5274C11.529 10.5649 11.2719 10.6767 11.0585 10.8506C10.8452 11.0246 10.6838 11.2538 10.592 11.5133H6.50024V12.0133C6.50024 12.5078 6.35362 12.9911 6.07892 13.4023C5.80421 13.8134 5.41377 14.1338 4.95695 14.323C4.50013 14.5122 3.99747 14.5618 3.51252 14.4653C3.02756 14.3688 2.58211 14.1307 2.23248 13.7811C1.88284 13.4315 1.64474 12.986 1.54828 12.5011C1.45182 12.0161 1.50132 11.5134 1.69054 11.0566C1.87976 10.5998 2.20019 10.2094 2.61132 9.93465C3.02244 9.65995 3.50579 9.51333 4.00024 9.51333V8.51333C3.32937 8.51337 2.67264 8.70623 2.10827 9.06893C1.54389 9.43163 1.09564 9.94888 0.8169 10.5591C0.538158 11.1693 0.440667 11.8468 0.536035 12.5109C0.631403 13.1749 0.915613 13.7976 1.35482 14.3047C1.79403 14.8118 2.36973 15.182 3.01337 15.3712C3.657 15.5605 4.34146 15.5607 4.98523 15.3719C5.62901 15.1832 6.20497 14.8134 6.64454 14.3066C7.0841 13.7998 7.36875 13.1773 7.46459 12.5133H10.592C10.6946 12.8052 10.885 13.058 11.1372 13.2371C11.3894 13.4162 11.6909 13.5127 12.0002 13.5133Z" fill="currentColor"/>
<path d="M12.0002 8.51333C11.5604 8.51337 11.1245 8.59602 10.7152 8.75698L9.13244 5.98723C9.36815 5.715 9.49982 5.36808 9.50407 5.00801C9.50833 4.64794 9.38491 4.29801 9.1557 4.02028C8.92649 3.74256 8.60631 3.555 8.25197 3.49089C7.89763 3.42678 7.53203 3.49025 7.22004 3.67006C6.90805 3.84986 6.66983 4.13436 6.54765 4.47309C6.42547 4.81182 6.42723 5.18289 6.55261 5.52045C6.67799 5.85801 6.91889 6.14024 7.23257 6.31708C7.54624 6.49393 7.91242 6.55394 8.26614 6.48648L10.3256 10.0907L10.7599 9.84193C11.1889 9.59691 11.6809 9.48447 12.1737 9.5188C12.6665 9.55313 13.1382 9.7327 13.529 10.0348C13.9199 10.337 14.2125 10.7481 14.3699 11.2164C14.5273 11.6847 14.5425 12.1891 14.4135 12.666C14.2844 13.1429 14.017 13.5709 13.645 13.8959C13.273 14.221 12.813 14.4285 12.3231 14.4924C11.8332 14.5562 11.3354 14.4735 10.8924 14.2547C10.4495 14.0359 10.0813 13.6907 9.83439 13.2628L8.96874 13.7638C9.27597 14.2959 9.71783 14.7377 10.2499 15.0449C10.782 15.3521 11.3856 15.5138 12 15.5138C12.6144 15.5138 13.218 15.3521 13.7501 15.0449C14.2822 14.7377 14.724 14.2958 15.0312 13.7638C15.3385 13.2317 15.5002 12.6281 15.5002 12.0137C15.5002 11.3993 15.3385 10.7957 15.0314 10.2636C14.7242 9.73149 14.2824 9.28961 13.7503 8.98238C13.2182 8.67514 12.6146 8.51337 12.0002 8.51333Z" fill="currentColor"/>
<path d="M4.26624 10.5402C3.9146 10.4738 3.55083 10.5341 3.23937 10.7103C2.9279 10.8864 2.68886 11.1672 2.56459 11.5028C2.44032 11.8383 2.43884 12.2071 2.56042 12.5436C2.682 12.8802 2.91879 13.1628 3.22883 13.3415C3.53887 13.5202 3.90216 13.5834 4.25431 13.5198C4.60647 13.4563 4.92477 13.2701 5.15281 12.9944C5.38086 12.7186 5.50393 12.371 5.50022 12.0132C5.49651 11.6554 5.36626 11.3104 5.13254 11.0394C5.87024 9.74833 6.93024 7.89368 6.94524 7.86733L7.19404 7.43323L6.76019 7.18473C6.33051 6.93922 5.98335 6.57172 5.7627 6.12877C5.54204 5.68581 5.45781 5.18733 5.52068 4.69647C5.58354 4.2056 5.79067 3.74444 6.11584 3.37139C6.441 2.99834 6.86957 2.73018 7.34725 2.60089C7.82494 2.47159 8.33025 2.48698 8.79918 2.64509C9.26812 2.8032 9.67957 3.09693 9.98144 3.48907C10.2833 3.88122 10.462 4.35412 10.4949 4.8479C10.5278 5.34168 10.4134 5.83411 10.1662 6.26283L11.0319 6.76383C11.3682 6.1817 11.5297 5.51508 11.4971 4.84362C11.4646 4.17216 11.2394 3.52428 10.8484 2.9774C10.4574 2.43053 9.91729 2.0078 9.29249 1.75973C8.66769 1.51167 7.98467 1.44877 7.32507 1.57854C6.66547 1.70832 6.05719 2.02528 5.57293 2.49155C5.08867 2.95782 4.74892 3.55367 4.59428 4.20789C4.43965 4.86211 4.47666 5.54702 4.70091 6.18076C4.92516 6.8145 5.32715 7.37026 5.85884 7.78163C5.63034 8.15298 5.30779 8.71743 4.82199 9.56803L4.26624 10.5402Z" fill="currentColor"/>
</svg>
