<svg viewBox="0 0 16 16" fill="none" xmlns="http://www.w3.org/2000/svg">
<rect width="16" height="16" fill="white" fill-opacity="0.01" style="mix-blend-mode:multiply"/>
<path d="M11 13.5899L9.705 12.2949L9 13L11 15L15 11L14.2949 10.295L11 13.5899Z" fill="currentColor"/>
<path d="M8 8.5H4.5V9.5H8V8.5Z" fill="currentColor"/>
<path d="M10.5 6H4.5V7H10.5V6Z" fill="currentColor"/>
<path d="M10.5 3.5H4.5V4.5H10.5V3.5Z" fill="currentColor"/>
<path d="M8 15H3C2.4485 15 2 14.5514 2 14V2C2 1.4486 2.4485 1 3 1H12C12.5515 1 13 1.4486 13 2V9.5H12V2H3V14H8V15Z" fill="currentColor"/>
</svg>
