<svg viewBox="0 0 16 17" fill="none" xmlns="http://www.w3.org/2000/svg">
<rect width="16" height="16" transform="translate(0 0.513672)" fill="white" fill-opacity="0.01" style="mix-blend-mode:multiply"/>
<path d="M10.0002 10.5137V9.0137C10.0002 8.48326 9.78952 7.97456 9.41445 7.59948C9.03937 7.22441 8.53067 7.0137 8.00023 7.0137C7.4698 7.0137 6.96109 7.22441 6.58602 7.59948C6.21095 7.97456 6.00023 8.48326 6.00023 9.0137V10.5137C5.73512 10.514 5.48096 10.6195 5.29349 10.807C5.10603 10.9944 5.00057 11.2486 5.00023 11.5137V14.5137C5.00057 14.7788 5.10603 15.033 5.29349 15.2204C5.48096 15.4079 5.73512 15.5134 6.00023 15.5137H10.0002C10.2653 15.5134 10.5195 15.4079 10.707 15.2204C10.8944 15.033 10.9999 14.7788 11.0002 14.5137V11.5137C10.9999 11.2486 10.8944 10.9944 10.707 10.807C10.5195 10.6195 10.2653 10.514 10.0002 10.5137ZM7.00023 9.0137C7.00023 8.74848 7.10559 8.49413 7.29313 8.30659C7.48066 8.11905 7.73502 8.0137 8.00023 8.0137C8.26545 8.0137 8.5198 8.11905 8.70734 8.30659C8.89488 8.49413 9.00023 8.74848 9.00023 9.0137V10.5137H7.00023V9.0137ZM6.00023 14.5137V11.5137H10.0002V14.5137H6.00023Z" fill="currentColor"/>
<path d="M3.05273 4.0662L3.75963 4.773C4.31607 4.21531 4.97704 3.77286 5.7047 3.47098C6.43237 3.16909 7.21243 3.0137 8.00023 3.0137C8.78803 3.0137 9.5681 3.16909 10.2958 3.47098C11.0234 3.77286 11.6844 4.21531 12.2408 4.773L12.9477 4.0662C12.2985 3.41556 11.5273 2.89937 10.6784 2.54716C9.8294 2.19496 8.91931 2.01367 8.00018 2.01367C7.08106 2.01367 6.17097 2.19496 5.322 2.54716C4.47304 2.89937 3.70193 3.41556 3.05273 4.0662Z" fill="currentColor"/>
<path d="M8.00023 4.5137C7.40932 4.51332 6.82416 4.6297 6.27837 4.85616C5.73257 5.08262 5.2369 5.41469 4.81983 5.8333L5.52648 6.54005C5.85107 6.21471 6.23664 5.95659 6.66113 5.78047C7.08561 5.60435 7.54067 5.5137 8.00023 5.5137C8.4598 5.5137 8.91486 5.60435 9.33934 5.78047C9.76382 5.95659 10.1494 6.21471 10.474 6.54005L11.1807 5.8333C10.7636 5.4147 10.268 5.08263 9.72214 4.85617C9.17633 4.62971 8.59116 4.51333 8.00023 4.5137Z" fill="currentColor"/>
</svg>
