<svg viewBox="0 0 16 17" fill="none" xmlns="http://www.w3.org/2000/svg">
<rect width="16" height="16" transform="translate(0 0.513672)" fill="white" fill-opacity="0.01" style="mix-blend-mode:multiply"/>
<path d="M3.4746 10.9887L2.7676 10.2816C2.99978 10.0495 3.18395 9.77386 3.30961 9.47053C3.43527 9.16719 3.49994 8.84208 3.49994 8.51375C3.49994 8.18542 3.43527 7.8603 3.30961 7.55697C3.18395 7.25363 2.99978 6.97802 2.7676 6.74587L3.4746 6.03867C3.79964 6.36368 4.05748 6.74953 4.2334 7.1742C4.40931 7.59886 4.49985 8.05402 4.49985 8.51367C4.49985 8.97333 4.40931 9.42848 4.2334 9.85315C4.05748 10.2778 3.79964 10.6637 3.4746 10.9887Z" fill="currentColor"/>
<path d="M5.2427 12.7564L4.53565 12.0493C5.47327 11.1116 6 9.83977 6 8.51367C6 7.18758 5.47327 5.91578 4.53565 4.97802L5.2427 4.27097C6.36788 5.39623 6.99999 6.92237 6.99999 8.51367C6.99999 10.105 6.36788 11.6311 5.2427 12.7564Z" fill="currentColor"/>
<path d="M12.5254 10.9887C12.2004 10.6637 11.9425 10.2778 11.7666 9.85315C11.5907 9.42848 11.5001 8.97333 11.5001 8.51367C11.5001 8.05402 11.5907 7.59886 11.7666 7.1742C11.9425 6.74953 12.2004 6.36368 12.5254 6.03867L13.2324 6.74597C13.0002 6.97812 12.816 7.25373 12.6904 7.55707C12.5647 7.8604 12.5001 8.18552 12.5001 8.51385C12.5001 8.84218 12.5647 9.16729 12.6904 9.47063C12.816 9.77396 13.0002 10.0496 13.2324 10.2817L12.5254 10.9887Z" fill="currentColor"/>
<path d="M10.7573 12.7564C9.63212 11.6311 9.00001 10.105 9.00001 8.51367C9.00001 6.92237 9.63212 5.39623 10.7573 4.27097L11.4643 4.97802C10.5267 5.91578 10 7.18758 10 8.51367C10 9.83977 10.5267 11.1116 11.4643 12.0493L10.7573 12.7564Z" fill="currentColor"/>
<path d="M1.5 8.01367H1V2.51367H0V14.5137H1V9.01367H1.5C1.63261 9.01367 1.75979 8.96099 1.85355 8.86723C1.94732 8.77346 2 8.64628 2 8.51367C2 8.38106 1.94732 8.25389 1.85355 8.16012C1.75979 8.06635 1.63261 8.01367 1.5 8.01367Z" fill="currentColor"/>
<path d="M15 2.51367V8.01367H14.5C14.3674 8.01367 14.2402 8.06635 14.1464 8.16012C14.0527 8.25389 14 8.38106 14 8.51367C14 8.64628 14.0527 8.77346 14.1464 8.86723C14.2402 8.96099 14.3674 9.01367 14.5 9.01367H15V14.5137H16V2.51367H15Z" fill="currentColor"/>
</svg>
