<svg viewBox="0 0 16 17" fill="none" xmlns="http://www.w3.org/2000/svg">
<rect width="16" height="16" transform="translate(0 0.513672)" fill="white" fill-opacity="0.01" style="mix-blend-mode:multiply"/>
<path d="M8 14.0137C8.55228 14.0137 9 13.566 9 13.0137C9 12.4614 8.55228 12.0137 8 12.0137C7.44772 12.0137 7 12.4614 7 13.0137C7 13.566 7.44772 14.0137 8 14.0137Z" fill="currentColor"/>
<path d="M15 2.22072L14.2929 1.51367L1 14.8066L1.70705 15.5137L7.0481 10.1726C7.56144 9.9975 8.11296 9.96639 8.64275 10.0827C9.17253 10.199 9.66031 10.4582 10.0531 10.8323L10.76 10.1255C10.0666 9.46129 9.15657 9.06992 8.1975 9.02342L9.89125 7.32957C10.7462 7.61306 11.5263 8.08554 12.1736 8.71192L12.88 8.00512C12.2415 7.38475 11.4904 6.8921 10.667 6.55367L12.1654 5.05517C12.9461 5.46052 13.6628 5.97852 14.2927 6.59252L15 5.88527V5.88427C14.3734 5.2719 13.6691 4.74445 12.9052 4.31542L15 2.22072Z" fill="currentColor"/>
<path d="M7.34 7.05247L8.36075 6.03172C8.2405 6.02537 8.12185 6.01367 8 6.01367C6.17283 6.01327 4.41851 6.73013 3.1145 8.01002L3.8213 8.71682C4.77599 7.78547 6.01442 7.19969 7.34 7.05247Z" fill="currentColor"/>
<path d="M8 4.01367C8.71336 4.01645 9.42382 4.10464 10.1162 4.27637L10.9375 3.45507C9.21606 2.92526 7.38331 2.87134 5.6337 3.29903C3.88409 3.72672 2.28289 4.62006 1 5.88427V5.89552L1.70215 6.59767C3.37973 4.94133 5.64252 4.01291 8 4.01367Z" fill="currentColor"/>
</svg>
