<svg viewBox="0 0 16 17" fill="none" xmlns="http://www.w3.org/2000/svg">
<rect width="16" height="16" transform="translate(0 0.513672)" fill="white" fill-opacity="0.01" style="mix-blend-mode:multiply"/>
<path d="M3 15.5135H13C13.2652 15.5135 13.5196 15.4082 13.7071 15.2206C13.8946 15.0331 14 14.7788 14 14.5135V11.5135C14 11.2483 13.8946 10.994 13.7071 10.8064C13.5196 10.6189 13.2652 10.5135 13 10.5135H3C2.73478 10.5135 2.48043 10.6189 2.29289 10.8064C2.10536 10.994 2 11.2483 2 11.5135V14.5135C2 14.7788 2.10536 15.0331 2.29289 15.2206C2.48043 15.4082 2.73478 15.5135 3 15.5135ZM3 11.5135H13V14.5135H3V11.5135Z" fill="currentColor"/>
<path d="M4.5 13.5135C4.77614 13.5135 5 13.2897 5 13.0135C5 12.7374 4.77614 12.5135 4.5 12.5135C4.22386 12.5135 4 12.7374 4 13.0135C4 13.2897 4.22386 13.5135 4.5 13.5135Z" fill="currentColor"/>
<path d="M8 8.51354C8.41421 8.51354 8.75 8.17775 8.75 7.76354C8.75 7.34933 8.41421 7.01354 8 7.01354C7.58579 7.01354 7.25 7.34933 7.25 7.76354C7.25 8.17775 7.58579 8.51354 8 8.51354Z" fill="currentColor"/>
<path d="M5.3916 5.67979C5.71992 5.31287 6.12196 5.01934 6.57144 4.81838C7.02093 4.61742 7.50776 4.51354 8.00012 4.51354C8.49249 4.51354 8.97932 4.61742 9.42881 4.81838C9.87829 5.01934 10.2803 5.31287 10.6087 5.67979L9.86365 6.34679C9.62916 6.0846 9.34197 5.87485 9.02087 5.73125C8.69977 5.58764 8.35198 5.51342 8.00023 5.51342C7.64847 5.51342 7.30068 5.58764 6.97958 5.73125C6.65848 5.87485 6.37129 6.0846 6.1368 6.34679L5.3916 5.67979Z" fill="currentColor"/>
<path d="M3.5996 4.21324C4.11202 3.53027 4.77639 2.97597 5.5401 2.5942C6.30382 2.21242 7.14593 2.01367 7.99975 2.01367C8.85357 2.01367 9.69568 2.21242 10.4594 2.5942C11.2231 2.97597 11.8875 3.53027 12.3999 4.21324L11.6 4.81354C11.1808 4.25462 10.6372 3.80098 10.0123 3.48855C9.38734 3.17612 8.69826 3.01347 7.99959 3.0135C7.30092 3.01352 6.61185 3.17621 5.98695 3.48869C5.36205 3.80116 4.81848 4.25484 4.3993 4.81379L3.5996 4.21324Z" fill="currentColor"/>
</svg>
