<svg viewBox="0 0 16 17" fill="none" xmlns="http://www.w3.org/2000/svg">
<rect width="16" height="16" transform="translate(0 0.513672)" fill="white" fill-opacity="0.01" style="mix-blend-mode:multiply"/>
<path d="M6.5 13.5137H5.5C5.49925 12.8509 5.23561 12.2154 4.76693 11.7467C4.29826 11.2781 3.66281 11.0144 3 11.0137V10.0137C3.92794 10.0147 4.81758 10.3838 5.47373 11.0399C6.12989 11.6961 6.49897 12.5857 6.5 13.5137Z" fill="currentColor"/>
<path d="M9 13.5137H8C7.9985 12.188 7.47124 10.9171 6.53388 9.97979C5.59652 9.04243 4.32562 8.51517 3 8.51367V7.51367C4.59074 7.51548 6.11581 8.14821 7.24064 9.27303C8.36546 10.3979 8.99819 11.9229 9 13.5137Z" fill="currentColor"/>
<path d="M13 7.01367C12.0721 7.01264 11.1824 6.64356 10.5263 5.98741C9.87011 5.33125 9.50103 4.44161 9.5 3.51367H10.5C10.5008 4.17648 10.7644 4.81193 11.2331 5.28061C11.7017 5.74928 12.3372 6.01292 13 6.01367V7.01367Z" fill="currentColor"/>
<path d="M13 9.51367C11.4093 9.51186 9.88419 8.87914 8.75936 7.75431C7.63454 6.62948 7.00181 5.10441 7 3.51367H8C8.0015 4.8393 8.52876 6.1102 9.46612 7.04755C10.4035 7.98491 11.6744 8.51218 13 8.51367V9.51367Z" fill="currentColor"/>
<path d="M3.8535 12.6602C3.80709 12.6137 3.75199 12.5769 3.69133 12.5517C3.63068 12.5266 3.56566 12.5137 3.5 12.5137C3.43434 12.5137 3.36932 12.5266 3.30867 12.5517C3.24801 12.5769 3.19291 12.6137 3.1465 12.6602L1 14.8066L1.70715 15.5137L3.8535 13.3672C3.89995 13.3208 3.9368 13.2657 3.96194 13.205C3.98708 13.1443 4.00002 13.0793 4.00002 13.0137C4.00002 12.948 3.98708 12.883 3.96194 12.8223C3.9368 12.7617 3.89995 12.7066 3.8535 12.6602Z" fill="currentColor"/>
<path d="M14.2929 1.51367L12.1465 3.66017C12.0554 3.75447 12.005 3.88077 12.0062 4.01187C12.0073 4.14297 12.0599 4.26838 12.1526 4.36108C12.2453 4.45379 12.3707 4.50637 12.5018 4.50751C12.6329 4.50865 12.7592 4.45825 12.8535 4.36717L15 2.22072L14.2929 1.51367Z" fill="currentColor"/>
</svg>
