<svg viewBox="0 0 16 17" fill="none" xmlns="http://www.w3.org/2000/svg">
<rect width="16" height="16" transform="translate(0 0.513672)" fill="white" fill-opacity="0.01" style="mix-blend-mode:multiply"/>
<path d="M8 1.51367C6.61553 1.51367 5.26216 1.92421 4.11101 2.69338C2.95987 3.46255 2.06266 4.55581 1.53285 5.83489C1.00303 7.11397 0.86441 8.52144 1.13451 9.8793C1.4046 11.2372 2.07129 12.4845 3.05026 13.4634C4.02922 14.4424 5.2765 15.1091 6.63437 15.3792C7.99224 15.6493 9.3997 15.5106 10.6788 14.9808C11.9579 14.451 13.0511 13.5538 13.8203 12.4027C14.5895 11.2515 15 9.89814 15 8.51367C15 6.65716 14.2625 4.87668 12.9497 3.56392C11.637 2.25117 9.85652 1.51367 8 1.51367V1.51367ZM14 8.01367H11C10.9416 6.17221 10.4646 4.36825 9.605 2.73867C10.7893 3.06262 11.8457 3.74209 12.6316 4.68538C13.4175 5.62867 13.8952 6.79037 14 8.01367V8.01367ZM8 14.5137C7.88846 14.5212 7.77654 14.5212 7.665 14.5137C6.62915 12.8618 6.05426 10.9627 6 9.01367H10C9.95026 10.9613 9.38058 12.8603 8.35 14.5137C8.23348 14.5218 8.11653 14.5218 8 14.5137ZM6 8.01367C6.04975 6.06601 6.61942 4.16708 7.65 2.51367C7.87264 2.48865 8.09737 2.48865 8.32 2.51367C9.36114 4.16407 9.94124 6.0632 10 8.01367H6ZM6.38 2.73867C5.52565 4.36949 5.05373 6.1734 5 8.01367H2C2.10485 6.79037 2.58247 5.62867 3.3684 4.68538C4.15432 3.74209 5.21072 3.06262 6.395 2.73867H6.38ZM2.025 9.01367H5.025C5.07718 10.8536 5.54739 12.6574 6.4 14.2887C5.21943 13.9612 4.16739 13.2803 3.38528 12.3373C2.60317 11.3943 2.12848 10.2344 2.025 9.01367V9.01367ZM9.605 14.2887C10.4646 12.6591 10.9416 10.8551 11 9.01367H14C13.8952 10.237 13.4175 11.3987 12.6316 12.342C11.8457 13.2853 10.7893 13.9647 9.605 14.2887Z" fill="currentColor"/>
</svg>
