<svg viewBox="0 0 16 17" fill="none" xmlns="http://www.w3.org/2000/svg">
<rect width="16" height="16" transform="translate(0 0.513672)" fill="white" fill-opacity="0.01" style="mix-blend-mode:multiply"/>
<path d="M6.5 15.5137C5.83719 15.5129 5.20174 15.2493 4.73307 14.7806C4.26439 14.3119 4.00075 13.6765 4 13.0137H5C5 13.3103 5.08797 13.6004 5.2528 13.847C5.41762 14.0937 5.65189 14.286 5.92597 14.3995C6.20006 14.513 6.50166 14.5427 6.79264 14.4849C7.08361 14.427 7.35088 14.2841 7.56066 14.0743C7.77044 13.8646 7.9133 13.5973 7.97118 13.3063C8.02906 13.0153 7.99935 12.7137 7.88582 12.4396C7.77229 12.1656 7.58003 11.9313 7.33336 11.7665C7.08668 11.6016 6.79667 11.5137 6.5 11.5137H2V10.5137H6.5C7.16304 10.5137 7.79893 10.7771 8.26777 11.2459C8.73661 11.7147 9 12.3506 9 13.0137C9 13.6767 8.73661 14.3126 8.26777 14.7814C7.79893 15.2503 7.16304 15.5137 6.5 15.5137Z" fill="currentColor"/>
<path d="M12.5 13.0137C11.8372 13.0129 11.2017 12.7493 10.7331 12.2806C10.2644 11.8119 10.0008 11.1765 10 10.5137H11C11 10.8103 11.088 11.1004 11.2528 11.347C11.4176 11.5937 11.6519 11.786 11.926 11.8995C12.2001 12.013 12.5017 12.0427 12.7926 11.9849C13.0836 11.927 13.3509 11.7841 13.5607 11.5743C13.7704 11.3646 13.9133 11.0973 13.9712 10.8063C14.0291 10.5153 13.9994 10.2137 13.8858 9.93965C13.7723 9.66556 13.58 9.43129 13.3334 9.26647C13.0867 9.10165 12.7967 9.01367 12.5 9.01367H1V8.01367H12.5C13.163 8.01367 13.7989 8.27706 14.2678 8.74591C14.7366 9.21475 15 9.85063 15 10.5137C15 11.1767 14.7366 11.8126 14.2678 12.2814C13.7989 12.7503 13.163 13.0137 12.5 13.0137Z" fill="currentColor"/>
<path d="M10.5 6.51367H3V5.51367H10.5C10.7967 5.51367 11.0867 5.4257 11.3334 5.26088C11.58 5.09606 11.7723 4.86179 11.8858 4.5877C11.9994 4.31361 12.0291 4.01201 11.9712 3.72104C11.9133 3.43007 11.7704 3.16279 11.5607 2.95301C11.3509 2.74323 11.0836 2.60037 10.7926 2.5425C10.5017 2.48462 10.2001 2.51432 9.92597 2.62785C9.65189 2.74139 9.41762 2.93364 9.2528 3.18032C9.08797 3.42699 9 3.717 9 4.01367H8C8 3.51922 8.14662 3.03587 8.42133 2.62475C8.69603 2.21362 9.08648 1.89319 9.54329 1.70397C10.0001 1.51476 10.5028 1.46525 10.9877 1.56171C11.4727 1.65817 11.9181 1.89627 12.2678 2.24591C12.6174 2.59554 12.8555 3.04099 12.952 3.52595C13.0484 4.0109 12.9989 4.51357 12.8097 4.97038C12.6205 5.4272 12.3 5.81764 11.8889 6.09235C11.4778 6.36705 10.9945 6.51367 10.5 6.51367Z" fill="currentColor"/>
</svg>
