<svg viewBox="0 0 16 17" fill="none" xmlns="http://www.w3.org/2000/svg">
<rect width="16" height="16" transform="translate(0 0.513672)" fill="white" fill-opacity="0.01" style="mix-blend-mode:multiply"/>
<path d="M14.6582 4.53935L5.6582 1.53935C5.5815 1.51377 5.49975 1.50718 5.41995 1.52013C5.34015 1.53308 5.26467 1.56518 5.2 1.6137L2 4.0137V1.5137H1V15.5137H2V6.0137L5.2 8.4137C5.26467 8.46224 5.34015 8.49437 5.41996 8.50733C5.49977 8.5203 5.58154 8.51372 5.65825 8.48815L14.6582 5.48815C14.7578 5.45497 14.8444 5.3913 14.9058 5.30616C14.9671 5.22103 15.0002 5.11874 15.0002 5.0138C15.0002 4.90885 14.9671 4.80657 14.9058 4.72143C14.8444 4.6363 14.7578 4.57253 14.6582 4.53935ZM5 7.0137L2.33325 5.0137L5 3.0137V7.0137ZM7 6.9866L6 7.3201V2.7073L7 3.0408V6.9866ZM9 6.3201L8 6.65335V3.37405L9 3.7073V6.3201ZM10 5.9866V4.0408L12.919 5.0137L10 5.9866Z" fill="currentColor"/>
<path d="M10 11.5137C10 10.9833 9.78929 10.4746 9.41421 10.0995C9.03914 9.72441 8.53043 9.5137 8 9.5137C7.46957 9.5137 6.96086 9.72441 6.58579 10.0995C6.21071 10.4746 6 10.9833 6 11.5137H7C7 11.3159 7.05865 11.1226 7.16853 10.9581C7.27841 10.7937 7.43459 10.6655 7.61732 10.5898C7.80004 10.5141 8.00111 10.4943 8.19509 10.5329C8.38907 10.5715 8.56725 10.6667 8.70711 10.8066C8.84696 10.9464 8.9422 11.1246 8.98079 11.3186C9.01937 11.5126 8.99957 11.7137 8.92388 11.8964C8.84819 12.0791 8.72002 12.2353 8.55557 12.3452C8.39112 12.455 8.19778 12.5137 8 12.5137H4V13.5137H8C8.53025 13.5131 9.03861 13.3022 9.41356 12.9273C9.7885 12.5523 9.9994 12.0439 10 11.5137Z" fill="currentColor"/>
<path d="M13 11.5137C12.4697 11.5143 11.9614 11.7252 11.5864 12.1001C11.2115 12.4751 11.0006 12.9834 11 13.5137H12C12 13.3159 12.0586 13.1226 12.1685 12.9581C12.2784 12.7937 12.4346 12.6655 12.6173 12.5898C12.8 12.5141 13.0011 12.4943 13.1951 12.5329C13.3891 12.5715 13.5673 12.6667 13.7071 12.8066C13.847 12.9464 13.9422 13.1246 13.9808 13.3186C14.0194 13.5126 13.9996 13.7137 13.9239 13.8964C13.8482 14.0791 13.72 14.2353 13.5556 14.3452C13.3911 14.455 13.1978 14.5137 13 14.5137H6V15.5137H13C13.5304 15.5137 14.0391 15.303 14.4142 14.9279C14.7893 14.5528 15 14.0441 15 13.5137C15 12.9833 14.7893 12.4746 14.4142 12.0995C14.0391 11.7244 13.5304 11.5137 13 11.5137Z" fill="currentColor"/>
</svg>
