<svg viewBox="0 0 16 17" fill="none" xmlns="http://www.w3.org/2000/svg">
<g clip-path="url(#clip0_1961_11691)">
<rect width="16" height="16" transform="translate(0 0.513672)" fill="white" fill-opacity="0.01" style="mix-blend-mode:multiply"/>
<path d="M8.5 13.5137H7.5V14.5137H8.5V13.5137Z" fill="currentColor"/>
<path d="M9.5 14.5137H8.5V15.5137H9.5V14.5137Z" fill="currentColor"/>
<path d="M10.5 15.5137H9.5V16.5137H10.5V15.5137Z" fill="currentColor"/>
<path d="M10.5 13.5137H9.5V14.5137H10.5V13.5137Z" fill="currentColor"/>
<path d="M8.5 15.5137H7.5V16.5137H8.5V15.5137Z" fill="currentColor"/>
<path d="M7.5 8.51372H6.5V9.51372H7.5V8.51372Z" fill="currentColor"/>
<path d="M8.5 9.51372H7.5V10.5137H8.5V9.51372Z" fill="currentColor"/>
<path d="M9.5 10.5137H8.5V11.5137H9.5V10.5137Z" fill="currentColor"/>
<path d="M9.5 8.51372H8.5V9.51372H9.5V8.51372Z" fill="currentColor"/>
<path d="M7.5 10.5137H6.5V11.5137H7.5V10.5137Z" fill="currentColor"/>
<path d="M5 15.5137C4.91476 15.5137 4.83093 15.4919 4.75648 15.4504C4.68203 15.4089 4.61943 15.3491 4.57462 15.2766C4.52981 15.204 4.50429 15.1213 4.50047 15.0361C4.49665 14.951 4.51466 14.8663 4.5528 14.79L5.5528 12.7898C5.61212 12.6712 5.71613 12.581 5.84194 12.5391C5.90424 12.5183 5.97002 12.51 6.03551 12.5147C6.10101 12.5194 6.16495 12.5369 6.22367 12.5662C6.2824 12.5956 6.33477 12.6363 6.37778 12.6859C6.4208 12.7355 6.45362 12.7931 6.47438 12.8554C6.49514 12.9177 6.50342 12.9835 6.49876 13.049C6.49409 13.1145 6.47657 13.1784 6.4472 13.2371L5.4472 15.2371C5.40579 15.3203 5.34199 15.3902 5.26298 15.4391C5.18398 15.488 5.0929 15.5138 5 15.5137Z" fill="currentColor"/>
<path d="M12.4004 5.08182C12.1873 4.07268 11.6339 3.16744 10.8328 2.51781C10.0317 1.86819 9.03164 1.51367 8.00025 1.51367C6.96886 1.51367 5.96881 1.86819 5.16771 2.51781C4.36662 3.16744 3.81316 4.07268 3.6001 5.08182C2.86789 5.23432 2.21021 5.63349 1.73696 6.21264C1.2637 6.79179 1.00356 7.51582 1 8.26372V11.5137L1.5 12.5137L2 11.5137V10.6037C2.47153 11.0575 3.06925 11.3581 3.7147 11.466L3.053 12.7901C3.02242 12.8489 3.00385 12.9132 2.99837 12.9793C2.99289 13.0454 3.00061 13.1119 3.02109 13.175C3.04156 13.2381 3.07437 13.2965 3.11762 13.3467C3.16087 13.397 3.21368 13.4382 3.27299 13.4678C3.33229 13.4975 3.39691 13.5151 3.46307 13.5195C3.52923 13.524 3.59562 13.5152 3.65837 13.4938C3.72112 13.4723 3.77897 13.4386 3.82857 13.3946C3.87816 13.3506 3.91851 13.2971 3.94725 13.2374L4.94725 11.2374C4.97663 11.1786 4.99416 11.1147 4.99882 11.0492C5.00349 10.9837 4.99521 10.9179 4.97446 10.8556C4.95371 10.7933 4.92088 10.7357 4.87787 10.6861C4.83485 10.6365 4.78248 10.5958 4.72375 10.5665C4.64747 10.5307 4.56324 10.5153 4.47925 10.5218V10.5137H4.25C3.66889 10.5139 3.11028 10.2891 2.69125 9.88651C2.27222 9.48389 2.02532 8.93469 2.00231 8.35404C1.97929 7.77339 2.18195 7.20637 2.56779 6.77185C2.95363 6.33733 3.4927 6.06904 4.072 6.02322L4.47975 5.99127L4.5293 5.58527C4.63312 4.73781 5.0434 3.95762 5.68278 3.39179C6.32216 2.82596 7.14645 2.5136 8.00025 2.5136C8.85405 2.5136 9.67834 2.82596 10.3177 3.39179C10.9571 3.95762 11.3674 4.73781 11.4712 5.58527L11.5205 5.99127L11.9282 6.02322C12.5075 6.06904 13.0466 6.33734 13.4324 6.77189C13.8183 7.20643 14.0209 7.77348 13.9979 8.35414C13.9748 8.93481 13.7279 9.48401 13.3088 9.88661C12.8898 10.2892 12.3311 10.514 11.75 10.5137H11.479V10.5179C11.3506 10.5227 11.229 10.577 11.1398 10.6694C11.0505 10.7619 11.0004 10.8852 11 11.0137V12.5137L11.5 13.5137L12 12.5137V11.501C12.3439 11.4757 12.6815 11.3953 13 11.263V13.5137L13.5 14.5137L14 13.5137V10.6037C14.4278 10.194 14.7353 9.67491 14.889 9.10282C15.0427 8.53073 15.0369 7.92746 14.872 7.35847C14.7072 6.78948 14.3897 6.27649 13.954 5.87515C13.5183 5.47381 12.981 5.19944 12.4004 5.08182Z" fill="currentColor"/>
</g>
<defs>
<clipPath id="clip0_1961_11691">
<rect width="16" height="16" fill="white" transform="translate(0 0.513672)"/>
</clipPath>
</defs>
</svg>
