<svg viewBox="0 0 16 17" fill="none" xmlns="http://www.w3.org/2000/svg">
<rect width="16" height="16" transform="translate(0 0.513672)" fill="white" fill-opacity="0.01" style="mix-blend-mode:multiply"/>
<path d="M10.8418 10.0392L9.5833 10.4592L6.4998 8.25665V4.19815L7.7773 3.34615L7.2223 2.51415L5.9998 3.32915L4.7773 2.51415L4.2223 3.34615L5.4998 4.19815V7.54215L2.9998 5.75665V4.51365H1.9998V5.65315L0.841797 6.03915L1.1578 6.98815L2.4163 6.56865L5.1398 8.51415L2.4163 10.4592L1.1578 10.0392L0.841797 10.9882L1.9998 11.3742V12.5137H2.9998V11.2712L5.4998 9.48565V12.8292L4.2223 13.6812L4.7773 14.5132L5.9998 13.6977L7.2223 14.5132L7.7773 13.6812L6.4998 12.8292V9.48515L8.9998 11.2712V12.5137H9.9998V11.3742L11.1578 10.9882L10.8418 10.0392Z" fill="currentColor"/>
<path d="M14.9555 7.4814L11.814 1.69895C11.783 1.64282 11.7374 1.59603 11.6822 1.56344C11.6269 1.53086 11.5639 1.51367 11.4998 1.51367C11.4356 1.51367 11.3727 1.53086 11.3174 1.56344C11.2622 1.59603 11.2166 1.64282 11.1856 1.69895L8.04405 7.4814C8.01419 7.53621 7.99908 7.59783 8.00022 7.66023C8.00136 7.72263 8.0187 7.78366 8.05055 7.83733C8.08239 7.89101 8.12764 7.93548 8.18185 7.96639C8.23607 7.9973 8.29739 8.01359 8.3598 8.01365H14.6398C14.7022 8.01359 14.7635 7.9973 14.8177 7.96639C14.872 7.93548 14.9172 7.89101 14.949 7.83733C14.9809 7.78366 14.9982 7.72263 14.9994 7.66023C15.0005 7.59783 14.9854 7.53621 14.9555 7.4814ZM11.1248 3.51365H11.8748V5.51365H11.1248V3.51365ZM11.4998 7.01365C11.4009 7.01365 11.3042 6.98433 11.222 6.92939C11.1398 6.87445 11.0757 6.79636 11.0379 6.705C11 6.61363 10.9901 6.5131 11.0094 6.41611C11.0287 6.31912 11.0763 6.23003 11.1462 6.1601C11.2162 6.09017 11.3053 6.04255 11.4023 6.02326C11.4992 6.00397 11.5998 6.01387 11.6911 6.05171C11.7825 6.08956 11.8606 6.15364 11.9155 6.23587C11.9705 6.31809 11.9998 6.41476 11.9998 6.51365C11.9998 6.64626 11.9471 6.77344 11.8534 6.86721C11.7596 6.96098 11.6324 7.01365 11.4998 7.01365Z" fill="currentColor"/>
</svg>
