<svg viewBox="0 0 16 16" fill="none" xmlns="http://www.w3.org/2000/svg">
<rect width="16" height="16" fill="white" fill-opacity="0.01" style="mix-blend-mode:multiply"/>
<path d="M11.0002 8H5.00019V9H11.0002V8Z" fill="currentColor"/>
<path d="M9.00019 10H5.00019V11H9.00019V10Z" fill="currentColor"/>
<path d="M8.00019 3.5C8.93045 3.5013 9.83134 3.82585 10.5487 4.41812C11.266 5.01039 11.7553 5.83356 11.9326 6.74675L12.0622 7.41975L12.7366 7.54175C13.4124 7.66359 14.0182 8.03378 14.435 8.57958C14.8517 9.12537 15.0492 9.8073 14.9888 10.4913C14.9283 11.1754 14.6142 11.8121 14.1081 12.2763C13.6021 12.7405 12.9407 12.9986 12.254 13H3.74789C3.061 12.9992 2.39927 12.7414 1.89282 12.2774C1.38637 11.8133 1.07184 11.1766 1.01107 10.4924C0.95031 9.80821 1.14771 9.12603 1.56446 8.58001C1.9812 8.03399 2.58715 7.66362 3.26314 7.54175L3.93754 7.41975L4.06709 6.74675C4.24469 5.83355 4.73406 5.01042 5.4515 4.41818C6.16895 3.82593 7.06988 3.50137 8.00019 3.5ZM8.00019 2.5C6.83744 2.50127 5.71131 2.90676 4.81465 3.64703C3.918 4.3873 3.30661 5.41628 3.08519 6.55775C2.16366 6.72408 1.33767 7.22909 0.769581 7.97351C0.201493 8.71793 -0.0676045 9.64792 0.0151838 10.5807C0.0979721 11.5134 0.526658 12.3815 1.21698 13.0142C1.9073 13.6469 2.80932 13.9986 3.74574 14H12.254C13.1904 13.9986 14.0925 13.647 14.7828 13.0143C15.4731 12.3815 15.9018 11.5135 15.9846 10.5807C16.0674 9.64796 15.7983 8.71796 15.2303 7.97353C14.6622 7.2291 13.8362 6.72408 12.9146 6.55775C12.6932 5.41532 12.0811 4.38557 11.1833 3.64517C10.2855 2.90478 9.15804 2.4999 7.99434 2.5H8.00019Z" fill="currentColor"/>
</svg>
